%TF.GenerationSoftware,KiCad,Pcbnew,9.0.7*%
%TF.CreationDate,2026-05-18T21:46:29+02:00*%
%TF.ProjectId,smart_plants_breakout_ws-board_rev2,736d6172-745f-4706-9c61-6e74735f6272,rev?*%
%TF.SameCoordinates,Original*%
%TF.FileFunction,Legend,Top*%
%TF.FilePolarity,Positive*%
%FSLAX46Y46*%
G04 Gerber Fmt 4.6, Leading zero omitted, Abs format (unit mm)*
G04 Created by KiCad (PCBNEW 9.0.7) date 2026-05-18 21:46:29*
%MOMM*%
%LPD*%
G01*
G04 APERTURE LIST*
%ADD10C,0.100000*%
%ADD11C,0.125000*%
%ADD12C,0.150000*%
%ADD13C,0.120000*%
G04 APERTURE END LIST*
D10*
X63161027Y-57872419D02*
X63494360Y-58872419D01*
X63494360Y-58872419D02*
X63827693Y-57872419D01*
X64161027Y-58872419D02*
X64161027Y-57872419D01*
X64161027Y-57872419D02*
X64399122Y-57872419D01*
X64399122Y-57872419D02*
X64541979Y-57920038D01*
X64541979Y-57920038D02*
X64637217Y-58015276D01*
X64637217Y-58015276D02*
X64684836Y-58110514D01*
X64684836Y-58110514D02*
X64732455Y-58300990D01*
X64732455Y-58300990D02*
X64732455Y-58443847D01*
X64732455Y-58443847D02*
X64684836Y-58634323D01*
X64684836Y-58634323D02*
X64637217Y-58729561D01*
X64637217Y-58729561D02*
X64541979Y-58824800D01*
X64541979Y-58824800D02*
X64399122Y-58872419D01*
X64399122Y-58872419D02*
X64161027Y-58872419D01*
X65732455Y-58777180D02*
X65684836Y-58824800D01*
X65684836Y-58824800D02*
X65541979Y-58872419D01*
X65541979Y-58872419D02*
X65446741Y-58872419D01*
X65446741Y-58872419D02*
X65303884Y-58824800D01*
X65303884Y-58824800D02*
X65208646Y-58729561D01*
X65208646Y-58729561D02*
X65161027Y-58634323D01*
X65161027Y-58634323D02*
X65113408Y-58443847D01*
X65113408Y-58443847D02*
X65113408Y-58300990D01*
X65113408Y-58300990D02*
X65161027Y-58110514D01*
X65161027Y-58110514D02*
X65208646Y-58015276D01*
X65208646Y-58015276D02*
X65303884Y-57920038D01*
X65303884Y-57920038D02*
X65446741Y-57872419D01*
X65446741Y-57872419D02*
X65541979Y-57872419D01*
X65541979Y-57872419D02*
X65684836Y-57920038D01*
X65684836Y-57920038D02*
X65732455Y-57967657D01*
X67446741Y-57920038D02*
X67351503Y-57872419D01*
X67351503Y-57872419D02*
X67208646Y-57872419D01*
X67208646Y-57872419D02*
X67065789Y-57920038D01*
X67065789Y-57920038D02*
X66970551Y-58015276D01*
X66970551Y-58015276D02*
X66922932Y-58110514D01*
X66922932Y-58110514D02*
X66875313Y-58300990D01*
X66875313Y-58300990D02*
X66875313Y-58443847D01*
X66875313Y-58443847D02*
X66922932Y-58634323D01*
X66922932Y-58634323D02*
X66970551Y-58729561D01*
X66970551Y-58729561D02*
X67065789Y-58824800D01*
X67065789Y-58824800D02*
X67208646Y-58872419D01*
X67208646Y-58872419D02*
X67303884Y-58872419D01*
X67303884Y-58872419D02*
X67446741Y-58824800D01*
X67446741Y-58824800D02*
X67494360Y-58777180D01*
X67494360Y-58777180D02*
X67494360Y-58443847D01*
X67494360Y-58443847D02*
X67303884Y-58443847D01*
X67922932Y-58872419D02*
X67922932Y-57872419D01*
X67922932Y-57872419D02*
X68494360Y-58872419D01*
X68494360Y-58872419D02*
X68494360Y-57872419D01*
X68970551Y-58872419D02*
X68970551Y-57872419D01*
X68970551Y-57872419D02*
X69208646Y-57872419D01*
X69208646Y-57872419D02*
X69351503Y-57920038D01*
X69351503Y-57920038D02*
X69446741Y-58015276D01*
X69446741Y-58015276D02*
X69494360Y-58110514D01*
X69494360Y-58110514D02*
X69541979Y-58300990D01*
X69541979Y-58300990D02*
X69541979Y-58443847D01*
X69541979Y-58443847D02*
X69494360Y-58634323D01*
X69494360Y-58634323D02*
X69446741Y-58729561D01*
X69446741Y-58729561D02*
X69351503Y-58824800D01*
X69351503Y-58824800D02*
X69208646Y-58872419D01*
X69208646Y-58872419D02*
X68970551Y-58872419D01*
X70684837Y-58824800D02*
X70827694Y-58872419D01*
X70827694Y-58872419D02*
X71065789Y-58872419D01*
X71065789Y-58872419D02*
X71161027Y-58824800D01*
X71161027Y-58824800D02*
X71208646Y-58777180D01*
X71208646Y-58777180D02*
X71256265Y-58681942D01*
X71256265Y-58681942D02*
X71256265Y-58586704D01*
X71256265Y-58586704D02*
X71208646Y-58491466D01*
X71208646Y-58491466D02*
X71161027Y-58443847D01*
X71161027Y-58443847D02*
X71065789Y-58396228D01*
X71065789Y-58396228D02*
X70875313Y-58348609D01*
X70875313Y-58348609D02*
X70780075Y-58300990D01*
X70780075Y-58300990D02*
X70732456Y-58253371D01*
X70732456Y-58253371D02*
X70684837Y-58158133D01*
X70684837Y-58158133D02*
X70684837Y-58062895D01*
X70684837Y-58062895D02*
X70732456Y-57967657D01*
X70732456Y-57967657D02*
X70780075Y-57920038D01*
X70780075Y-57920038D02*
X70875313Y-57872419D01*
X70875313Y-57872419D02*
X71113408Y-57872419D01*
X71113408Y-57872419D02*
X71256265Y-57920038D01*
X71684837Y-58872419D02*
X71684837Y-57872419D01*
X71684837Y-57872419D02*
X71922932Y-57872419D01*
X71922932Y-57872419D02*
X72065789Y-57920038D01*
X72065789Y-57920038D02*
X72161027Y-58015276D01*
X72161027Y-58015276D02*
X72208646Y-58110514D01*
X72208646Y-58110514D02*
X72256265Y-58300990D01*
X72256265Y-58300990D02*
X72256265Y-58443847D01*
X72256265Y-58443847D02*
X72208646Y-58634323D01*
X72208646Y-58634323D02*
X72161027Y-58729561D01*
X72161027Y-58729561D02*
X72065789Y-58824800D01*
X72065789Y-58824800D02*
X71922932Y-58872419D01*
X71922932Y-58872419D02*
X71684837Y-58872419D01*
X72637218Y-58586704D02*
X73113408Y-58586704D01*
X72541980Y-58872419D02*
X72875313Y-57872419D01*
X72875313Y-57872419D02*
X73208646Y-58872419D01*
X74256266Y-58824800D02*
X74399123Y-58872419D01*
X74399123Y-58872419D02*
X74637218Y-58872419D01*
X74637218Y-58872419D02*
X74732456Y-58824800D01*
X74732456Y-58824800D02*
X74780075Y-58777180D01*
X74780075Y-58777180D02*
X74827694Y-58681942D01*
X74827694Y-58681942D02*
X74827694Y-58586704D01*
X74827694Y-58586704D02*
X74780075Y-58491466D01*
X74780075Y-58491466D02*
X74732456Y-58443847D01*
X74732456Y-58443847D02*
X74637218Y-58396228D01*
X74637218Y-58396228D02*
X74446742Y-58348609D01*
X74446742Y-58348609D02*
X74351504Y-58300990D01*
X74351504Y-58300990D02*
X74303885Y-58253371D01*
X74303885Y-58253371D02*
X74256266Y-58158133D01*
X74256266Y-58158133D02*
X74256266Y-58062895D01*
X74256266Y-58062895D02*
X74303885Y-57967657D01*
X74303885Y-57967657D02*
X74351504Y-57920038D01*
X74351504Y-57920038D02*
X74446742Y-57872419D01*
X74446742Y-57872419D02*
X74684837Y-57872419D01*
X74684837Y-57872419D02*
X74827694Y-57920038D01*
X75827694Y-58777180D02*
X75780075Y-58824800D01*
X75780075Y-58824800D02*
X75637218Y-58872419D01*
X75637218Y-58872419D02*
X75541980Y-58872419D01*
X75541980Y-58872419D02*
X75399123Y-58824800D01*
X75399123Y-58824800D02*
X75303885Y-58729561D01*
X75303885Y-58729561D02*
X75256266Y-58634323D01*
X75256266Y-58634323D02*
X75208647Y-58443847D01*
X75208647Y-58443847D02*
X75208647Y-58300990D01*
X75208647Y-58300990D02*
X75256266Y-58110514D01*
X75256266Y-58110514D02*
X75303885Y-58015276D01*
X75303885Y-58015276D02*
X75399123Y-57920038D01*
X75399123Y-57920038D02*
X75541980Y-57872419D01*
X75541980Y-57872419D02*
X75637218Y-57872419D01*
X75637218Y-57872419D02*
X75780075Y-57920038D01*
X75780075Y-57920038D02*
X75827694Y-57967657D01*
X76732456Y-58872419D02*
X76256266Y-58872419D01*
X76256266Y-58872419D02*
X76256266Y-57872419D01*
X76382419Y-43136115D02*
X75382419Y-43136115D01*
X75382419Y-43136115D02*
X75382419Y-42898020D01*
X75382419Y-42898020D02*
X75430038Y-42755163D01*
X75430038Y-42755163D02*
X75525276Y-42659925D01*
X75525276Y-42659925D02*
X75620514Y-42612306D01*
X75620514Y-42612306D02*
X75810990Y-42564687D01*
X75810990Y-42564687D02*
X75953847Y-42564687D01*
X75953847Y-42564687D02*
X76144323Y-42612306D01*
X76144323Y-42612306D02*
X76239561Y-42659925D01*
X76239561Y-42659925D02*
X76334800Y-42755163D01*
X76334800Y-42755163D02*
X76382419Y-42898020D01*
X76382419Y-42898020D02*
X76382419Y-43136115D01*
X75477657Y-42183734D02*
X75430038Y-42136115D01*
X75430038Y-42136115D02*
X75382419Y-42040877D01*
X75382419Y-42040877D02*
X75382419Y-41802782D01*
X75382419Y-41802782D02*
X75430038Y-41707544D01*
X75430038Y-41707544D02*
X75477657Y-41659925D01*
X75477657Y-41659925D02*
X75572895Y-41612306D01*
X75572895Y-41612306D02*
X75668133Y-41612306D01*
X75668133Y-41612306D02*
X75810990Y-41659925D01*
X75810990Y-41659925D02*
X76382419Y-42231353D01*
X76382419Y-42231353D02*
X76382419Y-41612306D01*
X76382419Y-40659925D02*
X76382419Y-41231353D01*
X76382419Y-40945639D02*
X75382419Y-40945639D01*
X75382419Y-40945639D02*
X75525276Y-41040877D01*
X75525276Y-41040877D02*
X75620514Y-41136115D01*
X75620514Y-41136115D02*
X75668133Y-41231353D01*
X76001466Y-40231353D02*
X76001466Y-39469449D01*
X75715752Y-38993258D02*
X76715752Y-38993258D01*
X75763371Y-38993258D02*
X75715752Y-38898020D01*
X75715752Y-38898020D02*
X75715752Y-38707544D01*
X75715752Y-38707544D02*
X75763371Y-38612306D01*
X75763371Y-38612306D02*
X75810990Y-38564687D01*
X75810990Y-38564687D02*
X75906228Y-38517068D01*
X75906228Y-38517068D02*
X76191942Y-38517068D01*
X76191942Y-38517068D02*
X76287180Y-38564687D01*
X76287180Y-38564687D02*
X76334800Y-38612306D01*
X76334800Y-38612306D02*
X76382419Y-38707544D01*
X76382419Y-38707544D02*
X76382419Y-38898020D01*
X76382419Y-38898020D02*
X76334800Y-38993258D01*
X76382419Y-37945639D02*
X76334800Y-38040877D01*
X76334800Y-38040877D02*
X76287180Y-38088496D01*
X76287180Y-38088496D02*
X76191942Y-38136115D01*
X76191942Y-38136115D02*
X75906228Y-38136115D01*
X75906228Y-38136115D02*
X75810990Y-38088496D01*
X75810990Y-38088496D02*
X75763371Y-38040877D01*
X75763371Y-38040877D02*
X75715752Y-37945639D01*
X75715752Y-37945639D02*
X75715752Y-37802782D01*
X75715752Y-37802782D02*
X75763371Y-37707544D01*
X75763371Y-37707544D02*
X75810990Y-37659925D01*
X75810990Y-37659925D02*
X75906228Y-37612306D01*
X75906228Y-37612306D02*
X76191942Y-37612306D01*
X76191942Y-37612306D02*
X76287180Y-37659925D01*
X76287180Y-37659925D02*
X76334800Y-37707544D01*
X76334800Y-37707544D02*
X76382419Y-37802782D01*
X76382419Y-37802782D02*
X76382419Y-37945639D01*
X75715752Y-37278972D02*
X76382419Y-37088496D01*
X76382419Y-37088496D02*
X75906228Y-36898020D01*
X75906228Y-36898020D02*
X76382419Y-36707544D01*
X76382419Y-36707544D02*
X75715752Y-36517068D01*
X76334800Y-35755163D02*
X76382419Y-35850401D01*
X76382419Y-35850401D02*
X76382419Y-36040877D01*
X76382419Y-36040877D02*
X76334800Y-36136115D01*
X76334800Y-36136115D02*
X76239561Y-36183734D01*
X76239561Y-36183734D02*
X75858609Y-36183734D01*
X75858609Y-36183734D02*
X75763371Y-36136115D01*
X75763371Y-36136115D02*
X75715752Y-36040877D01*
X75715752Y-36040877D02*
X75715752Y-35850401D01*
X75715752Y-35850401D02*
X75763371Y-35755163D01*
X75763371Y-35755163D02*
X75858609Y-35707544D01*
X75858609Y-35707544D02*
X75953847Y-35707544D01*
X75953847Y-35707544D02*
X76049085Y-36183734D01*
X76382419Y-35278972D02*
X75715752Y-35278972D01*
X75906228Y-35278972D02*
X75810990Y-35231353D01*
X75810990Y-35231353D02*
X75763371Y-35183734D01*
X75763371Y-35183734D02*
X75715752Y-35088496D01*
X75715752Y-35088496D02*
X75715752Y-34993258D01*
X76334800Y-34278972D02*
X76382419Y-34374210D01*
X76382419Y-34374210D02*
X76382419Y-34564686D01*
X76382419Y-34564686D02*
X76334800Y-34659924D01*
X76334800Y-34659924D02*
X76239561Y-34707543D01*
X76239561Y-34707543D02*
X75858609Y-34707543D01*
X75858609Y-34707543D02*
X75763371Y-34659924D01*
X75763371Y-34659924D02*
X75715752Y-34564686D01*
X75715752Y-34564686D02*
X75715752Y-34374210D01*
X75715752Y-34374210D02*
X75763371Y-34278972D01*
X75763371Y-34278972D02*
X75858609Y-34231353D01*
X75858609Y-34231353D02*
X75953847Y-34231353D01*
X75953847Y-34231353D02*
X76049085Y-34707543D01*
X76382419Y-33374210D02*
X75382419Y-33374210D01*
X76334800Y-33374210D02*
X76382419Y-33469448D01*
X76382419Y-33469448D02*
X76382419Y-33659924D01*
X76382419Y-33659924D02*
X76334800Y-33755162D01*
X76334800Y-33755162D02*
X76287180Y-33802781D01*
X76287180Y-33802781D02*
X76191942Y-33850400D01*
X76191942Y-33850400D02*
X75906228Y-33850400D01*
X75906228Y-33850400D02*
X75810990Y-33802781D01*
X75810990Y-33802781D02*
X75763371Y-33755162D01*
X75763371Y-33755162D02*
X75715752Y-33659924D01*
X75715752Y-33659924D02*
X75715752Y-33469448D01*
X75715752Y-33469448D02*
X75763371Y-33374210D01*
D11*
X44190474Y-94865516D02*
X44666664Y-94865516D01*
X44095236Y-95151231D02*
X44428569Y-94151231D01*
X44428569Y-94151231D02*
X44761902Y-95151231D01*
X45238093Y-95151231D02*
X45142855Y-95103612D01*
X45142855Y-95103612D02*
X45095236Y-95008373D01*
X45095236Y-95008373D02*
X45095236Y-94151231D01*
X45999998Y-95103612D02*
X45904760Y-95151231D01*
X45904760Y-95151231D02*
X45714284Y-95151231D01*
X45714284Y-95151231D02*
X45619046Y-95103612D01*
X45619046Y-95103612D02*
X45571427Y-95008373D01*
X45571427Y-95008373D02*
X45571427Y-94627421D01*
X45571427Y-94627421D02*
X45619046Y-94532183D01*
X45619046Y-94532183D02*
X45714284Y-94484564D01*
X45714284Y-94484564D02*
X45904760Y-94484564D01*
X45904760Y-94484564D02*
X45999998Y-94532183D01*
X45999998Y-94532183D02*
X46047617Y-94627421D01*
X46047617Y-94627421D02*
X46047617Y-94722659D01*
X46047617Y-94722659D02*
X45571427Y-94817897D01*
X46380951Y-95151231D02*
X46904760Y-94484564D01*
X46380951Y-94484564D02*
X46904760Y-95151231D01*
X47714284Y-95151231D02*
X47714284Y-94627421D01*
X47714284Y-94627421D02*
X47666665Y-94532183D01*
X47666665Y-94532183D02*
X47571427Y-94484564D01*
X47571427Y-94484564D02*
X47380951Y-94484564D01*
X47380951Y-94484564D02*
X47285713Y-94532183D01*
X47714284Y-95103612D02*
X47619046Y-95151231D01*
X47619046Y-95151231D02*
X47380951Y-95151231D01*
X47380951Y-95151231D02*
X47285713Y-95103612D01*
X47285713Y-95103612D02*
X47238094Y-95008373D01*
X47238094Y-95008373D02*
X47238094Y-94913135D01*
X47238094Y-94913135D02*
X47285713Y-94817897D01*
X47285713Y-94817897D02*
X47380951Y-94770278D01*
X47380951Y-94770278D02*
X47619046Y-94770278D01*
X47619046Y-94770278D02*
X47714284Y-94722659D01*
X48190475Y-94484564D02*
X48190475Y-95151231D01*
X48190475Y-94579802D02*
X48238094Y-94532183D01*
X48238094Y-94532183D02*
X48333332Y-94484564D01*
X48333332Y-94484564D02*
X48476189Y-94484564D01*
X48476189Y-94484564D02*
X48571427Y-94532183D01*
X48571427Y-94532183D02*
X48619046Y-94627421D01*
X48619046Y-94627421D02*
X48619046Y-95151231D01*
X49523808Y-95151231D02*
X49523808Y-94151231D01*
X49523808Y-95103612D02*
X49428570Y-95151231D01*
X49428570Y-95151231D02*
X49238094Y-95151231D01*
X49238094Y-95151231D02*
X49142856Y-95103612D01*
X49142856Y-95103612D02*
X49095237Y-95055992D01*
X49095237Y-95055992D02*
X49047618Y-94960754D01*
X49047618Y-94960754D02*
X49047618Y-94675040D01*
X49047618Y-94675040D02*
X49095237Y-94579802D01*
X49095237Y-94579802D02*
X49142856Y-94532183D01*
X49142856Y-94532183D02*
X49238094Y-94484564D01*
X49238094Y-94484564D02*
X49428570Y-94484564D01*
X49428570Y-94484564D02*
X49523808Y-94532183D01*
X50380951Y-95103612D02*
X50285713Y-95151231D01*
X50285713Y-95151231D02*
X50095237Y-95151231D01*
X50095237Y-95151231D02*
X49999999Y-95103612D01*
X49999999Y-95103612D02*
X49952380Y-95008373D01*
X49952380Y-95008373D02*
X49952380Y-94627421D01*
X49952380Y-94627421D02*
X49999999Y-94532183D01*
X49999999Y-94532183D02*
X50095237Y-94484564D01*
X50095237Y-94484564D02*
X50285713Y-94484564D01*
X50285713Y-94484564D02*
X50380951Y-94532183D01*
X50380951Y-94532183D02*
X50428570Y-94627421D01*
X50428570Y-94627421D02*
X50428570Y-94722659D01*
X50428570Y-94722659D02*
X49952380Y-94817897D01*
X50857142Y-95151231D02*
X50857142Y-94484564D01*
X50857142Y-94675040D02*
X50904761Y-94579802D01*
X50904761Y-94579802D02*
X50952380Y-94532183D01*
X50952380Y-94532183D02*
X51047618Y-94484564D01*
X51047618Y-94484564D02*
X51142856Y-94484564D01*
X52238095Y-95151231D02*
X52238095Y-94151231D01*
X52809523Y-95151231D02*
X52380952Y-94579802D01*
X52809523Y-94151231D02*
X52238095Y-94722659D01*
X53666666Y-94484564D02*
X53666666Y-95151231D01*
X53238095Y-94484564D02*
X53238095Y-95008373D01*
X53238095Y-95008373D02*
X53285714Y-95103612D01*
X53285714Y-95103612D02*
X53380952Y-95151231D01*
X53380952Y-95151231D02*
X53523809Y-95151231D01*
X53523809Y-95151231D02*
X53619047Y-95103612D01*
X53619047Y-95103612D02*
X53666666Y-95055992D01*
X54000000Y-94484564D02*
X54380952Y-94484564D01*
X54142857Y-94151231D02*
X54142857Y-95008373D01*
X54142857Y-95008373D02*
X54190476Y-95103612D01*
X54190476Y-95103612D02*
X54285714Y-95151231D01*
X54285714Y-95151231D02*
X54380952Y-95151231D01*
X54666667Y-95103612D02*
X54761905Y-95151231D01*
X54761905Y-95151231D02*
X54952381Y-95151231D01*
X54952381Y-95151231D02*
X55047619Y-95103612D01*
X55047619Y-95103612D02*
X55095238Y-95008373D01*
X55095238Y-95008373D02*
X55095238Y-94960754D01*
X55095238Y-94960754D02*
X55047619Y-94865516D01*
X55047619Y-94865516D02*
X54952381Y-94817897D01*
X54952381Y-94817897D02*
X54809524Y-94817897D01*
X54809524Y-94817897D02*
X54714286Y-94770278D01*
X54714286Y-94770278D02*
X54666667Y-94675040D01*
X54666667Y-94675040D02*
X54666667Y-94627421D01*
X54666667Y-94627421D02*
X54714286Y-94532183D01*
X54714286Y-94532183D02*
X54809524Y-94484564D01*
X54809524Y-94484564D02*
X54952381Y-94484564D01*
X54952381Y-94484564D02*
X55047619Y-94532183D01*
X55952381Y-95103612D02*
X55857143Y-95151231D01*
X55857143Y-95151231D02*
X55666667Y-95151231D01*
X55666667Y-95151231D02*
X55571429Y-95103612D01*
X55571429Y-95103612D02*
X55523810Y-95055992D01*
X55523810Y-95055992D02*
X55476191Y-94960754D01*
X55476191Y-94960754D02*
X55476191Y-94675040D01*
X55476191Y-94675040D02*
X55523810Y-94579802D01*
X55523810Y-94579802D02*
X55571429Y-94532183D01*
X55571429Y-94532183D02*
X55666667Y-94484564D01*
X55666667Y-94484564D02*
X55857143Y-94484564D01*
X55857143Y-94484564D02*
X55952381Y-94532183D01*
X56380953Y-95151231D02*
X56380953Y-94151231D01*
X56809524Y-95151231D02*
X56809524Y-94627421D01*
X56809524Y-94627421D02*
X56761905Y-94532183D01*
X56761905Y-94532183D02*
X56666667Y-94484564D01*
X56666667Y-94484564D02*
X56523810Y-94484564D01*
X56523810Y-94484564D02*
X56428572Y-94532183D01*
X56428572Y-94532183D02*
X56380953Y-94579802D01*
X57666667Y-95103612D02*
X57571429Y-95151231D01*
X57571429Y-95151231D02*
X57380953Y-95151231D01*
X57380953Y-95151231D02*
X57285715Y-95103612D01*
X57285715Y-95103612D02*
X57238096Y-95008373D01*
X57238096Y-95008373D02*
X57238096Y-94627421D01*
X57238096Y-94627421D02*
X57285715Y-94532183D01*
X57285715Y-94532183D02*
X57380953Y-94484564D01*
X57380953Y-94484564D02*
X57571429Y-94484564D01*
X57571429Y-94484564D02*
X57666667Y-94532183D01*
X57666667Y-94532183D02*
X57714286Y-94627421D01*
X57714286Y-94627421D02*
X57714286Y-94722659D01*
X57714286Y-94722659D02*
X57238096Y-94817897D01*
X58142858Y-95151231D02*
X58142858Y-94484564D01*
X58142858Y-94675040D02*
X58190477Y-94579802D01*
X58190477Y-94579802D02*
X58238096Y-94532183D01*
X58238096Y-94532183D02*
X58333334Y-94484564D01*
X58333334Y-94484564D02*
X58428572Y-94484564D01*
X59190477Y-95151231D02*
X59190477Y-94627421D01*
X59190477Y-94627421D02*
X59142858Y-94532183D01*
X59142858Y-94532183D02*
X59047620Y-94484564D01*
X59047620Y-94484564D02*
X58857144Y-94484564D01*
X58857144Y-94484564D02*
X58761906Y-94532183D01*
X59190477Y-95103612D02*
X59095239Y-95151231D01*
X59095239Y-95151231D02*
X58857144Y-95151231D01*
X58857144Y-95151231D02*
X58761906Y-95103612D01*
X58761906Y-95103612D02*
X58714287Y-95008373D01*
X58714287Y-95008373D02*
X58714287Y-94913135D01*
X58714287Y-94913135D02*
X58761906Y-94817897D01*
X58761906Y-94817897D02*
X58857144Y-94770278D01*
X58857144Y-94770278D02*
X59095239Y-94770278D01*
X59095239Y-94770278D02*
X59190477Y-94722659D01*
X60380954Y-94246469D02*
X60428573Y-94198850D01*
X60428573Y-94198850D02*
X60523811Y-94151231D01*
X60523811Y-94151231D02*
X60761906Y-94151231D01*
X60761906Y-94151231D02*
X60857144Y-94198850D01*
X60857144Y-94198850D02*
X60904763Y-94246469D01*
X60904763Y-94246469D02*
X60952382Y-94341707D01*
X60952382Y-94341707D02*
X60952382Y-94436945D01*
X60952382Y-94436945D02*
X60904763Y-94579802D01*
X60904763Y-94579802D02*
X60333335Y-95151231D01*
X60333335Y-95151231D02*
X60952382Y-95151231D01*
X61571430Y-94151231D02*
X61666668Y-94151231D01*
X61666668Y-94151231D02*
X61761906Y-94198850D01*
X61761906Y-94198850D02*
X61809525Y-94246469D01*
X61809525Y-94246469D02*
X61857144Y-94341707D01*
X61857144Y-94341707D02*
X61904763Y-94532183D01*
X61904763Y-94532183D02*
X61904763Y-94770278D01*
X61904763Y-94770278D02*
X61857144Y-94960754D01*
X61857144Y-94960754D02*
X61809525Y-95055992D01*
X61809525Y-95055992D02*
X61761906Y-95103612D01*
X61761906Y-95103612D02*
X61666668Y-95151231D01*
X61666668Y-95151231D02*
X61571430Y-95151231D01*
X61571430Y-95151231D02*
X61476192Y-95103612D01*
X61476192Y-95103612D02*
X61428573Y-95055992D01*
X61428573Y-95055992D02*
X61380954Y-94960754D01*
X61380954Y-94960754D02*
X61333335Y-94770278D01*
X61333335Y-94770278D02*
X61333335Y-94532183D01*
X61333335Y-94532183D02*
X61380954Y-94341707D01*
X61380954Y-94341707D02*
X61428573Y-94246469D01*
X61428573Y-94246469D02*
X61476192Y-94198850D01*
X61476192Y-94198850D02*
X61571430Y-94151231D01*
X62285716Y-94246469D02*
X62333335Y-94198850D01*
X62333335Y-94198850D02*
X62428573Y-94151231D01*
X62428573Y-94151231D02*
X62666668Y-94151231D01*
X62666668Y-94151231D02*
X62761906Y-94198850D01*
X62761906Y-94198850D02*
X62809525Y-94246469D01*
X62809525Y-94246469D02*
X62857144Y-94341707D01*
X62857144Y-94341707D02*
X62857144Y-94436945D01*
X62857144Y-94436945D02*
X62809525Y-94579802D01*
X62809525Y-94579802D02*
X62238097Y-95151231D01*
X62238097Y-95151231D02*
X62857144Y-95151231D01*
X63714287Y-94151231D02*
X63523811Y-94151231D01*
X63523811Y-94151231D02*
X63428573Y-94198850D01*
X63428573Y-94198850D02*
X63380954Y-94246469D01*
X63380954Y-94246469D02*
X63285716Y-94389326D01*
X63285716Y-94389326D02*
X63238097Y-94579802D01*
X63238097Y-94579802D02*
X63238097Y-94960754D01*
X63238097Y-94960754D02*
X63285716Y-95055992D01*
X63285716Y-95055992D02*
X63333335Y-95103612D01*
X63333335Y-95103612D02*
X63428573Y-95151231D01*
X63428573Y-95151231D02*
X63619049Y-95151231D01*
X63619049Y-95151231D02*
X63714287Y-95103612D01*
X63714287Y-95103612D02*
X63761906Y-95055992D01*
X63761906Y-95055992D02*
X63809525Y-94960754D01*
X63809525Y-94960754D02*
X63809525Y-94722659D01*
X63809525Y-94722659D02*
X63761906Y-94627421D01*
X63761906Y-94627421D02*
X63714287Y-94579802D01*
X63714287Y-94579802D02*
X63619049Y-94532183D01*
X63619049Y-94532183D02*
X63428573Y-94532183D01*
X63428573Y-94532183D02*
X63333335Y-94579802D01*
X63333335Y-94579802D02*
X63285716Y-94627421D01*
X63285716Y-94627421D02*
X63238097Y-94722659D01*
X43452379Y-96713556D02*
X43595236Y-96761175D01*
X43595236Y-96761175D02*
X43833331Y-96761175D01*
X43833331Y-96761175D02*
X43928569Y-96713556D01*
X43928569Y-96713556D02*
X43976188Y-96665936D01*
X43976188Y-96665936D02*
X44023807Y-96570698D01*
X44023807Y-96570698D02*
X44023807Y-96475460D01*
X44023807Y-96475460D02*
X43976188Y-96380222D01*
X43976188Y-96380222D02*
X43928569Y-96332603D01*
X43928569Y-96332603D02*
X43833331Y-96284984D01*
X43833331Y-96284984D02*
X43642855Y-96237365D01*
X43642855Y-96237365D02*
X43547617Y-96189746D01*
X43547617Y-96189746D02*
X43499998Y-96142127D01*
X43499998Y-96142127D02*
X43452379Y-96046889D01*
X43452379Y-96046889D02*
X43452379Y-95951651D01*
X43452379Y-95951651D02*
X43499998Y-95856413D01*
X43499998Y-95856413D02*
X43547617Y-95808794D01*
X43547617Y-95808794D02*
X43642855Y-95761175D01*
X43642855Y-95761175D02*
X43880950Y-95761175D01*
X43880950Y-95761175D02*
X44023807Y-95808794D01*
X44452379Y-96761175D02*
X44452379Y-96094508D01*
X44452379Y-96189746D02*
X44499998Y-96142127D01*
X44499998Y-96142127D02*
X44595236Y-96094508D01*
X44595236Y-96094508D02*
X44738093Y-96094508D01*
X44738093Y-96094508D02*
X44833331Y-96142127D01*
X44833331Y-96142127D02*
X44880950Y-96237365D01*
X44880950Y-96237365D02*
X44880950Y-96761175D01*
X44880950Y-96237365D02*
X44928569Y-96142127D01*
X44928569Y-96142127D02*
X45023807Y-96094508D01*
X45023807Y-96094508D02*
X45166664Y-96094508D01*
X45166664Y-96094508D02*
X45261903Y-96142127D01*
X45261903Y-96142127D02*
X45309522Y-96237365D01*
X45309522Y-96237365D02*
X45309522Y-96761175D01*
X46214283Y-96761175D02*
X46214283Y-96237365D01*
X46214283Y-96237365D02*
X46166664Y-96142127D01*
X46166664Y-96142127D02*
X46071426Y-96094508D01*
X46071426Y-96094508D02*
X45880950Y-96094508D01*
X45880950Y-96094508D02*
X45785712Y-96142127D01*
X46214283Y-96713556D02*
X46119045Y-96761175D01*
X46119045Y-96761175D02*
X45880950Y-96761175D01*
X45880950Y-96761175D02*
X45785712Y-96713556D01*
X45785712Y-96713556D02*
X45738093Y-96618317D01*
X45738093Y-96618317D02*
X45738093Y-96523079D01*
X45738093Y-96523079D02*
X45785712Y-96427841D01*
X45785712Y-96427841D02*
X45880950Y-96380222D01*
X45880950Y-96380222D02*
X46119045Y-96380222D01*
X46119045Y-96380222D02*
X46214283Y-96332603D01*
X46690474Y-96761175D02*
X46690474Y-96094508D01*
X46690474Y-96284984D02*
X46738093Y-96189746D01*
X46738093Y-96189746D02*
X46785712Y-96142127D01*
X46785712Y-96142127D02*
X46880950Y-96094508D01*
X46880950Y-96094508D02*
X46976188Y-96094508D01*
X47166665Y-96094508D02*
X47547617Y-96094508D01*
X47309522Y-95761175D02*
X47309522Y-96618317D01*
X47309522Y-96618317D02*
X47357141Y-96713556D01*
X47357141Y-96713556D02*
X47452379Y-96761175D01*
X47452379Y-96761175D02*
X47547617Y-96761175D01*
X48642856Y-96761175D02*
X48642856Y-95761175D01*
X48642856Y-95761175D02*
X49023808Y-95761175D01*
X49023808Y-95761175D02*
X49119046Y-95808794D01*
X49119046Y-95808794D02*
X49166665Y-95856413D01*
X49166665Y-95856413D02*
X49214284Y-95951651D01*
X49214284Y-95951651D02*
X49214284Y-96094508D01*
X49214284Y-96094508D02*
X49166665Y-96189746D01*
X49166665Y-96189746D02*
X49119046Y-96237365D01*
X49119046Y-96237365D02*
X49023808Y-96284984D01*
X49023808Y-96284984D02*
X48642856Y-96284984D01*
X49785713Y-96761175D02*
X49690475Y-96713556D01*
X49690475Y-96713556D02*
X49642856Y-96618317D01*
X49642856Y-96618317D02*
X49642856Y-95761175D01*
X50595237Y-96761175D02*
X50595237Y-96237365D01*
X50595237Y-96237365D02*
X50547618Y-96142127D01*
X50547618Y-96142127D02*
X50452380Y-96094508D01*
X50452380Y-96094508D02*
X50261904Y-96094508D01*
X50261904Y-96094508D02*
X50166666Y-96142127D01*
X50595237Y-96713556D02*
X50499999Y-96761175D01*
X50499999Y-96761175D02*
X50261904Y-96761175D01*
X50261904Y-96761175D02*
X50166666Y-96713556D01*
X50166666Y-96713556D02*
X50119047Y-96618317D01*
X50119047Y-96618317D02*
X50119047Y-96523079D01*
X50119047Y-96523079D02*
X50166666Y-96427841D01*
X50166666Y-96427841D02*
X50261904Y-96380222D01*
X50261904Y-96380222D02*
X50499999Y-96380222D01*
X50499999Y-96380222D02*
X50595237Y-96332603D01*
X51071428Y-96094508D02*
X51071428Y-96761175D01*
X51071428Y-96189746D02*
X51119047Y-96142127D01*
X51119047Y-96142127D02*
X51214285Y-96094508D01*
X51214285Y-96094508D02*
X51357142Y-96094508D01*
X51357142Y-96094508D02*
X51452380Y-96142127D01*
X51452380Y-96142127D02*
X51499999Y-96237365D01*
X51499999Y-96237365D02*
X51499999Y-96761175D01*
X51833333Y-96094508D02*
X52214285Y-96094508D01*
X51976190Y-95761175D02*
X51976190Y-96618317D01*
X51976190Y-96618317D02*
X52023809Y-96713556D01*
X52023809Y-96713556D02*
X52119047Y-96761175D01*
X52119047Y-96761175D02*
X52214285Y-96761175D01*
X53642857Y-96237365D02*
X53785714Y-96284984D01*
X53785714Y-96284984D02*
X53833333Y-96332603D01*
X53833333Y-96332603D02*
X53880952Y-96427841D01*
X53880952Y-96427841D02*
X53880952Y-96570698D01*
X53880952Y-96570698D02*
X53833333Y-96665936D01*
X53833333Y-96665936D02*
X53785714Y-96713556D01*
X53785714Y-96713556D02*
X53690476Y-96761175D01*
X53690476Y-96761175D02*
X53309524Y-96761175D01*
X53309524Y-96761175D02*
X53309524Y-95761175D01*
X53309524Y-95761175D02*
X53642857Y-95761175D01*
X53642857Y-95761175D02*
X53738095Y-95808794D01*
X53738095Y-95808794D02*
X53785714Y-95856413D01*
X53785714Y-95856413D02*
X53833333Y-95951651D01*
X53833333Y-95951651D02*
X53833333Y-96046889D01*
X53833333Y-96046889D02*
X53785714Y-96142127D01*
X53785714Y-96142127D02*
X53738095Y-96189746D01*
X53738095Y-96189746D02*
X53642857Y-96237365D01*
X53642857Y-96237365D02*
X53309524Y-96237365D01*
X54309524Y-96761175D02*
X54309524Y-96094508D01*
X54309524Y-96284984D02*
X54357143Y-96189746D01*
X54357143Y-96189746D02*
X54404762Y-96142127D01*
X54404762Y-96142127D02*
X54500000Y-96094508D01*
X54500000Y-96094508D02*
X54595238Y-96094508D01*
X55309524Y-96713556D02*
X55214286Y-96761175D01*
X55214286Y-96761175D02*
X55023810Y-96761175D01*
X55023810Y-96761175D02*
X54928572Y-96713556D01*
X54928572Y-96713556D02*
X54880953Y-96618317D01*
X54880953Y-96618317D02*
X54880953Y-96237365D01*
X54880953Y-96237365D02*
X54928572Y-96142127D01*
X54928572Y-96142127D02*
X55023810Y-96094508D01*
X55023810Y-96094508D02*
X55214286Y-96094508D01*
X55214286Y-96094508D02*
X55309524Y-96142127D01*
X55309524Y-96142127D02*
X55357143Y-96237365D01*
X55357143Y-96237365D02*
X55357143Y-96332603D01*
X55357143Y-96332603D02*
X54880953Y-96427841D01*
X56214286Y-96761175D02*
X56214286Y-96237365D01*
X56214286Y-96237365D02*
X56166667Y-96142127D01*
X56166667Y-96142127D02*
X56071429Y-96094508D01*
X56071429Y-96094508D02*
X55880953Y-96094508D01*
X55880953Y-96094508D02*
X55785715Y-96142127D01*
X56214286Y-96713556D02*
X56119048Y-96761175D01*
X56119048Y-96761175D02*
X55880953Y-96761175D01*
X55880953Y-96761175D02*
X55785715Y-96713556D01*
X55785715Y-96713556D02*
X55738096Y-96618317D01*
X55738096Y-96618317D02*
X55738096Y-96523079D01*
X55738096Y-96523079D02*
X55785715Y-96427841D01*
X55785715Y-96427841D02*
X55880953Y-96380222D01*
X55880953Y-96380222D02*
X56119048Y-96380222D01*
X56119048Y-96380222D02*
X56214286Y-96332603D01*
X56690477Y-96761175D02*
X56690477Y-95761175D01*
X56785715Y-96380222D02*
X57071429Y-96761175D01*
X57071429Y-96094508D02*
X56690477Y-96475460D01*
X57642858Y-96761175D02*
X57547620Y-96713556D01*
X57547620Y-96713556D02*
X57500001Y-96665936D01*
X57500001Y-96665936D02*
X57452382Y-96570698D01*
X57452382Y-96570698D02*
X57452382Y-96284984D01*
X57452382Y-96284984D02*
X57500001Y-96189746D01*
X57500001Y-96189746D02*
X57547620Y-96142127D01*
X57547620Y-96142127D02*
X57642858Y-96094508D01*
X57642858Y-96094508D02*
X57785715Y-96094508D01*
X57785715Y-96094508D02*
X57880953Y-96142127D01*
X57880953Y-96142127D02*
X57928572Y-96189746D01*
X57928572Y-96189746D02*
X57976191Y-96284984D01*
X57976191Y-96284984D02*
X57976191Y-96570698D01*
X57976191Y-96570698D02*
X57928572Y-96665936D01*
X57928572Y-96665936D02*
X57880953Y-96713556D01*
X57880953Y-96713556D02*
X57785715Y-96761175D01*
X57785715Y-96761175D02*
X57642858Y-96761175D01*
X58833334Y-96094508D02*
X58833334Y-96761175D01*
X58404763Y-96094508D02*
X58404763Y-96618317D01*
X58404763Y-96618317D02*
X58452382Y-96713556D01*
X58452382Y-96713556D02*
X58547620Y-96761175D01*
X58547620Y-96761175D02*
X58690477Y-96761175D01*
X58690477Y-96761175D02*
X58785715Y-96713556D01*
X58785715Y-96713556D02*
X58833334Y-96665936D01*
X59166668Y-96094508D02*
X59547620Y-96094508D01*
X59309525Y-95761175D02*
X59309525Y-96618317D01*
X59309525Y-96618317D02*
X59357144Y-96713556D01*
X59357144Y-96713556D02*
X59452382Y-96761175D01*
X59452382Y-96761175D02*
X59547620Y-96761175D01*
X60976192Y-96237365D02*
X61119049Y-96284984D01*
X61119049Y-96284984D02*
X61166668Y-96332603D01*
X61166668Y-96332603D02*
X61214287Y-96427841D01*
X61214287Y-96427841D02*
X61214287Y-96570698D01*
X61214287Y-96570698D02*
X61166668Y-96665936D01*
X61166668Y-96665936D02*
X61119049Y-96713556D01*
X61119049Y-96713556D02*
X61023811Y-96761175D01*
X61023811Y-96761175D02*
X60642859Y-96761175D01*
X60642859Y-96761175D02*
X60642859Y-95761175D01*
X60642859Y-95761175D02*
X60976192Y-95761175D01*
X60976192Y-95761175D02*
X61071430Y-95808794D01*
X61071430Y-95808794D02*
X61119049Y-95856413D01*
X61119049Y-95856413D02*
X61166668Y-95951651D01*
X61166668Y-95951651D02*
X61166668Y-96046889D01*
X61166668Y-96046889D02*
X61119049Y-96142127D01*
X61119049Y-96142127D02*
X61071430Y-96189746D01*
X61071430Y-96189746D02*
X60976192Y-96237365D01*
X60976192Y-96237365D02*
X60642859Y-96237365D01*
X61785716Y-96761175D02*
X61690478Y-96713556D01*
X61690478Y-96713556D02*
X61642859Y-96665936D01*
X61642859Y-96665936D02*
X61595240Y-96570698D01*
X61595240Y-96570698D02*
X61595240Y-96284984D01*
X61595240Y-96284984D02*
X61642859Y-96189746D01*
X61642859Y-96189746D02*
X61690478Y-96142127D01*
X61690478Y-96142127D02*
X61785716Y-96094508D01*
X61785716Y-96094508D02*
X61928573Y-96094508D01*
X61928573Y-96094508D02*
X62023811Y-96142127D01*
X62023811Y-96142127D02*
X62071430Y-96189746D01*
X62071430Y-96189746D02*
X62119049Y-96284984D01*
X62119049Y-96284984D02*
X62119049Y-96570698D01*
X62119049Y-96570698D02*
X62071430Y-96665936D01*
X62071430Y-96665936D02*
X62023811Y-96713556D01*
X62023811Y-96713556D02*
X61928573Y-96761175D01*
X61928573Y-96761175D02*
X61785716Y-96761175D01*
X62976192Y-96761175D02*
X62976192Y-96237365D01*
X62976192Y-96237365D02*
X62928573Y-96142127D01*
X62928573Y-96142127D02*
X62833335Y-96094508D01*
X62833335Y-96094508D02*
X62642859Y-96094508D01*
X62642859Y-96094508D02*
X62547621Y-96142127D01*
X62976192Y-96713556D02*
X62880954Y-96761175D01*
X62880954Y-96761175D02*
X62642859Y-96761175D01*
X62642859Y-96761175D02*
X62547621Y-96713556D01*
X62547621Y-96713556D02*
X62500002Y-96618317D01*
X62500002Y-96618317D02*
X62500002Y-96523079D01*
X62500002Y-96523079D02*
X62547621Y-96427841D01*
X62547621Y-96427841D02*
X62642859Y-96380222D01*
X62642859Y-96380222D02*
X62880954Y-96380222D01*
X62880954Y-96380222D02*
X62976192Y-96332603D01*
X63452383Y-96761175D02*
X63452383Y-96094508D01*
X63452383Y-96284984D02*
X63500002Y-96189746D01*
X63500002Y-96189746D02*
X63547621Y-96142127D01*
X63547621Y-96142127D02*
X63642859Y-96094508D01*
X63642859Y-96094508D02*
X63738097Y-96094508D01*
X64500002Y-96761175D02*
X64500002Y-95761175D01*
X64500002Y-96713556D02*
X64404764Y-96761175D01*
X64404764Y-96761175D02*
X64214288Y-96761175D01*
X64214288Y-96761175D02*
X64119050Y-96713556D01*
X64119050Y-96713556D02*
X64071431Y-96665936D01*
X64071431Y-96665936D02*
X64023812Y-96570698D01*
X64023812Y-96570698D02*
X64023812Y-96284984D01*
X64023812Y-96284984D02*
X64071431Y-96189746D01*
X64071431Y-96189746D02*
X64119050Y-96142127D01*
X64119050Y-96142127D02*
X64214288Y-96094508D01*
X64214288Y-96094508D02*
X64404764Y-96094508D01*
X64404764Y-96094508D02*
X64500002Y-96142127D01*
X39357141Y-97704452D02*
X39357141Y-98513976D01*
X39357141Y-98513976D02*
X39309522Y-98609214D01*
X39309522Y-98609214D02*
X39261903Y-98656833D01*
X39261903Y-98656833D02*
X39166665Y-98704452D01*
X39166665Y-98704452D02*
X39023808Y-98704452D01*
X39023808Y-98704452D02*
X38928570Y-98656833D01*
X39357141Y-98323500D02*
X39261903Y-98371119D01*
X39261903Y-98371119D02*
X39071427Y-98371119D01*
X39071427Y-98371119D02*
X38976189Y-98323500D01*
X38976189Y-98323500D02*
X38928570Y-98275880D01*
X38928570Y-98275880D02*
X38880951Y-98180642D01*
X38880951Y-98180642D02*
X38880951Y-97894928D01*
X38880951Y-97894928D02*
X38928570Y-97799690D01*
X38928570Y-97799690D02*
X38976189Y-97752071D01*
X38976189Y-97752071D02*
X39071427Y-97704452D01*
X39071427Y-97704452D02*
X39261903Y-97704452D01*
X39261903Y-97704452D02*
X39357141Y-97752071D01*
X39833332Y-98371119D02*
X39833332Y-97704452D01*
X39833332Y-97371119D02*
X39785713Y-97418738D01*
X39785713Y-97418738D02*
X39833332Y-97466357D01*
X39833332Y-97466357D02*
X39880951Y-97418738D01*
X39880951Y-97418738D02*
X39833332Y-97371119D01*
X39833332Y-97371119D02*
X39833332Y-97466357D01*
X40166665Y-97704452D02*
X40547617Y-97704452D01*
X40309522Y-97371119D02*
X40309522Y-98228261D01*
X40309522Y-98228261D02*
X40357141Y-98323500D01*
X40357141Y-98323500D02*
X40452379Y-98371119D01*
X40452379Y-98371119D02*
X40547617Y-98371119D01*
X40880951Y-98371119D02*
X40880951Y-97371119D01*
X41309522Y-98371119D02*
X41309522Y-97847309D01*
X41309522Y-97847309D02*
X41261903Y-97752071D01*
X41261903Y-97752071D02*
X41166665Y-97704452D01*
X41166665Y-97704452D02*
X41023808Y-97704452D01*
X41023808Y-97704452D02*
X40928570Y-97752071D01*
X40928570Y-97752071D02*
X40880951Y-97799690D01*
X42214284Y-97704452D02*
X42214284Y-98371119D01*
X41785713Y-97704452D02*
X41785713Y-98228261D01*
X41785713Y-98228261D02*
X41833332Y-98323500D01*
X41833332Y-98323500D02*
X41928570Y-98371119D01*
X41928570Y-98371119D02*
X42071427Y-98371119D01*
X42071427Y-98371119D02*
X42166665Y-98323500D01*
X42166665Y-98323500D02*
X42214284Y-98275880D01*
X42690475Y-98371119D02*
X42690475Y-97371119D01*
X42690475Y-97752071D02*
X42785713Y-97704452D01*
X42785713Y-97704452D02*
X42976189Y-97704452D01*
X42976189Y-97704452D02*
X43071427Y-97752071D01*
X43071427Y-97752071D02*
X43119046Y-97799690D01*
X43119046Y-97799690D02*
X43166665Y-97894928D01*
X43166665Y-97894928D02*
X43166665Y-98180642D01*
X43166665Y-98180642D02*
X43119046Y-98275880D01*
X43119046Y-98275880D02*
X43071427Y-98323500D01*
X43071427Y-98323500D02*
X42976189Y-98371119D01*
X42976189Y-98371119D02*
X42785713Y-98371119D01*
X42785713Y-98371119D02*
X42690475Y-98323500D01*
X43595237Y-98275880D02*
X43642856Y-98323500D01*
X43642856Y-98323500D02*
X43595237Y-98371119D01*
X43595237Y-98371119D02*
X43547618Y-98323500D01*
X43547618Y-98323500D02*
X43595237Y-98275880D01*
X43595237Y-98275880D02*
X43595237Y-98371119D01*
X44499998Y-98323500D02*
X44404760Y-98371119D01*
X44404760Y-98371119D02*
X44214284Y-98371119D01*
X44214284Y-98371119D02*
X44119046Y-98323500D01*
X44119046Y-98323500D02*
X44071427Y-98275880D01*
X44071427Y-98275880D02*
X44023808Y-98180642D01*
X44023808Y-98180642D02*
X44023808Y-97894928D01*
X44023808Y-97894928D02*
X44071427Y-97799690D01*
X44071427Y-97799690D02*
X44119046Y-97752071D01*
X44119046Y-97752071D02*
X44214284Y-97704452D01*
X44214284Y-97704452D02*
X44404760Y-97704452D01*
X44404760Y-97704452D02*
X44499998Y-97752071D01*
X45071427Y-98371119D02*
X44976189Y-98323500D01*
X44976189Y-98323500D02*
X44928570Y-98275880D01*
X44928570Y-98275880D02*
X44880951Y-98180642D01*
X44880951Y-98180642D02*
X44880951Y-97894928D01*
X44880951Y-97894928D02*
X44928570Y-97799690D01*
X44928570Y-97799690D02*
X44976189Y-97752071D01*
X44976189Y-97752071D02*
X45071427Y-97704452D01*
X45071427Y-97704452D02*
X45214284Y-97704452D01*
X45214284Y-97704452D02*
X45309522Y-97752071D01*
X45309522Y-97752071D02*
X45357141Y-97799690D01*
X45357141Y-97799690D02*
X45404760Y-97894928D01*
X45404760Y-97894928D02*
X45404760Y-98180642D01*
X45404760Y-98180642D02*
X45357141Y-98275880D01*
X45357141Y-98275880D02*
X45309522Y-98323500D01*
X45309522Y-98323500D02*
X45214284Y-98371119D01*
X45214284Y-98371119D02*
X45071427Y-98371119D01*
X45833332Y-98371119D02*
X45833332Y-97704452D01*
X45833332Y-97799690D02*
X45880951Y-97752071D01*
X45880951Y-97752071D02*
X45976189Y-97704452D01*
X45976189Y-97704452D02*
X46119046Y-97704452D01*
X46119046Y-97704452D02*
X46214284Y-97752071D01*
X46214284Y-97752071D02*
X46261903Y-97847309D01*
X46261903Y-97847309D02*
X46261903Y-98371119D01*
X46261903Y-97847309D02*
X46309522Y-97752071D01*
X46309522Y-97752071D02*
X46404760Y-97704452D01*
X46404760Y-97704452D02*
X46547617Y-97704452D01*
X46547617Y-97704452D02*
X46642856Y-97752071D01*
X46642856Y-97752071D02*
X46690475Y-97847309D01*
X46690475Y-97847309D02*
X46690475Y-98371119D01*
X47880950Y-97323500D02*
X47023808Y-98609214D01*
X48119046Y-97704452D02*
X48357141Y-98371119D01*
X48357141Y-98371119D02*
X48595236Y-97704452D01*
X49357141Y-98323500D02*
X49261903Y-98371119D01*
X49261903Y-98371119D02*
X49071427Y-98371119D01*
X49071427Y-98371119D02*
X48976189Y-98323500D01*
X48976189Y-98323500D02*
X48928570Y-98228261D01*
X48928570Y-98228261D02*
X48928570Y-97847309D01*
X48928570Y-97847309D02*
X48976189Y-97752071D01*
X48976189Y-97752071D02*
X49071427Y-97704452D01*
X49071427Y-97704452D02*
X49261903Y-97704452D01*
X49261903Y-97704452D02*
X49357141Y-97752071D01*
X49357141Y-97752071D02*
X49404760Y-97847309D01*
X49404760Y-97847309D02*
X49404760Y-97942547D01*
X49404760Y-97942547D02*
X48928570Y-98037785D01*
X49833332Y-98371119D02*
X49833332Y-97371119D01*
X49928570Y-97990166D02*
X50214284Y-98371119D01*
X50214284Y-97704452D02*
X49833332Y-98085404D01*
X50499999Y-97704452D02*
X50880951Y-97704452D01*
X50642856Y-97371119D02*
X50642856Y-98228261D01*
X50642856Y-98228261D02*
X50690475Y-98323500D01*
X50690475Y-98323500D02*
X50785713Y-98371119D01*
X50785713Y-98371119D02*
X50880951Y-98371119D01*
X51357142Y-98371119D02*
X51261904Y-98323500D01*
X51261904Y-98323500D02*
X51214285Y-98275880D01*
X51214285Y-98275880D02*
X51166666Y-98180642D01*
X51166666Y-98180642D02*
X51166666Y-97894928D01*
X51166666Y-97894928D02*
X51214285Y-97799690D01*
X51214285Y-97799690D02*
X51261904Y-97752071D01*
X51261904Y-97752071D02*
X51357142Y-97704452D01*
X51357142Y-97704452D02*
X51499999Y-97704452D01*
X51499999Y-97704452D02*
X51595237Y-97752071D01*
X51595237Y-97752071D02*
X51642856Y-97799690D01*
X51642856Y-97799690D02*
X51690475Y-97894928D01*
X51690475Y-97894928D02*
X51690475Y-98180642D01*
X51690475Y-98180642D02*
X51642856Y-98275880D01*
X51642856Y-98275880D02*
X51595237Y-98323500D01*
X51595237Y-98323500D02*
X51499999Y-98371119D01*
X51499999Y-98371119D02*
X51357142Y-98371119D01*
X52119047Y-98371119D02*
X52119047Y-97704452D01*
X52119047Y-97894928D02*
X52166666Y-97799690D01*
X52166666Y-97799690D02*
X52214285Y-97752071D01*
X52214285Y-97752071D02*
X52309523Y-97704452D01*
X52309523Y-97704452D02*
X52404761Y-97704452D01*
X52738095Y-98371119D02*
X52738095Y-97704452D01*
X52738095Y-97371119D02*
X52690476Y-97418738D01*
X52690476Y-97418738D02*
X52738095Y-97466357D01*
X52738095Y-97466357D02*
X52785714Y-97418738D01*
X52785714Y-97418738D02*
X52738095Y-97371119D01*
X52738095Y-97371119D02*
X52738095Y-97466357D01*
X53357142Y-98371119D02*
X53261904Y-98323500D01*
X53261904Y-98323500D02*
X53214285Y-98275880D01*
X53214285Y-98275880D02*
X53166666Y-98180642D01*
X53166666Y-98180642D02*
X53166666Y-97894928D01*
X53166666Y-97894928D02*
X53214285Y-97799690D01*
X53214285Y-97799690D02*
X53261904Y-97752071D01*
X53261904Y-97752071D02*
X53357142Y-97704452D01*
X53357142Y-97704452D02*
X53499999Y-97704452D01*
X53499999Y-97704452D02*
X53595237Y-97752071D01*
X53595237Y-97752071D02*
X53642856Y-97799690D01*
X53642856Y-97799690D02*
X53690475Y-97894928D01*
X53690475Y-97894928D02*
X53690475Y-98180642D01*
X53690475Y-98180642D02*
X53642856Y-98275880D01*
X53642856Y-98275880D02*
X53595237Y-98323500D01*
X53595237Y-98323500D02*
X53499999Y-98371119D01*
X53499999Y-98371119D02*
X53357142Y-98371119D01*
X54547618Y-97704452D02*
X54547618Y-98371119D01*
X54119047Y-97704452D02*
X54119047Y-98228261D01*
X54119047Y-98228261D02*
X54166666Y-98323500D01*
X54166666Y-98323500D02*
X54261904Y-98371119D01*
X54261904Y-98371119D02*
X54404761Y-98371119D01*
X54404761Y-98371119D02*
X54499999Y-98323500D01*
X54499999Y-98323500D02*
X54547618Y-98275880D01*
X54976190Y-98323500D02*
X55071428Y-98371119D01*
X55071428Y-98371119D02*
X55261904Y-98371119D01*
X55261904Y-98371119D02*
X55357142Y-98323500D01*
X55357142Y-98323500D02*
X55404761Y-98228261D01*
X55404761Y-98228261D02*
X55404761Y-98180642D01*
X55404761Y-98180642D02*
X55357142Y-98085404D01*
X55357142Y-98085404D02*
X55261904Y-98037785D01*
X55261904Y-98037785D02*
X55119047Y-98037785D01*
X55119047Y-98037785D02*
X55023809Y-97990166D01*
X55023809Y-97990166D02*
X54976190Y-97894928D01*
X54976190Y-97894928D02*
X54976190Y-97847309D01*
X54976190Y-97847309D02*
X55023809Y-97752071D01*
X55023809Y-97752071D02*
X55119047Y-97704452D01*
X55119047Y-97704452D02*
X55261904Y-97704452D01*
X55261904Y-97704452D02*
X55357142Y-97752071D01*
X56547618Y-97323500D02*
X55690476Y-98609214D01*
X56880952Y-98371119D02*
X56880952Y-97371119D01*
X57309523Y-98371119D02*
X57309523Y-97847309D01*
X57309523Y-97847309D02*
X57261904Y-97752071D01*
X57261904Y-97752071D02*
X57166666Y-97704452D01*
X57166666Y-97704452D02*
X57023809Y-97704452D01*
X57023809Y-97704452D02*
X56928571Y-97752071D01*
X56928571Y-97752071D02*
X56880952Y-97799690D01*
X57785714Y-97704452D02*
X57785714Y-98704452D01*
X57785714Y-97752071D02*
X57880952Y-97704452D01*
X57880952Y-97704452D02*
X58071428Y-97704452D01*
X58071428Y-97704452D02*
X58166666Y-97752071D01*
X58166666Y-97752071D02*
X58214285Y-97799690D01*
X58214285Y-97799690D02*
X58261904Y-97894928D01*
X58261904Y-97894928D02*
X58261904Y-98180642D01*
X58261904Y-98180642D02*
X58214285Y-98275880D01*
X58214285Y-98275880D02*
X58166666Y-98323500D01*
X58166666Y-98323500D02*
X58071428Y-98371119D01*
X58071428Y-98371119D02*
X57880952Y-98371119D01*
X57880952Y-98371119D02*
X57785714Y-98323500D01*
X58690476Y-98371119D02*
X58690476Y-97704452D01*
X58690476Y-97371119D02*
X58642857Y-97418738D01*
X58642857Y-97418738D02*
X58690476Y-97466357D01*
X58690476Y-97466357D02*
X58738095Y-97418738D01*
X58738095Y-97418738D02*
X58690476Y-97371119D01*
X58690476Y-97371119D02*
X58690476Y-97466357D01*
X58928571Y-98466357D02*
X59690475Y-98466357D01*
X59880952Y-98323500D02*
X59976190Y-98371119D01*
X59976190Y-98371119D02*
X60166666Y-98371119D01*
X60166666Y-98371119D02*
X60261904Y-98323500D01*
X60261904Y-98323500D02*
X60309523Y-98228261D01*
X60309523Y-98228261D02*
X60309523Y-98180642D01*
X60309523Y-98180642D02*
X60261904Y-98085404D01*
X60261904Y-98085404D02*
X60166666Y-98037785D01*
X60166666Y-98037785D02*
X60023809Y-98037785D01*
X60023809Y-98037785D02*
X59928571Y-97990166D01*
X59928571Y-97990166D02*
X59880952Y-97894928D01*
X59880952Y-97894928D02*
X59880952Y-97847309D01*
X59880952Y-97847309D02*
X59928571Y-97752071D01*
X59928571Y-97752071D02*
X60023809Y-97704452D01*
X60023809Y-97704452D02*
X60166666Y-97704452D01*
X60166666Y-97704452D02*
X60261904Y-97752071D01*
X60738095Y-98371119D02*
X60738095Y-97704452D01*
X60738095Y-97799690D02*
X60785714Y-97752071D01*
X60785714Y-97752071D02*
X60880952Y-97704452D01*
X60880952Y-97704452D02*
X61023809Y-97704452D01*
X61023809Y-97704452D02*
X61119047Y-97752071D01*
X61119047Y-97752071D02*
X61166666Y-97847309D01*
X61166666Y-97847309D02*
X61166666Y-98371119D01*
X61166666Y-97847309D02*
X61214285Y-97752071D01*
X61214285Y-97752071D02*
X61309523Y-97704452D01*
X61309523Y-97704452D02*
X61452380Y-97704452D01*
X61452380Y-97704452D02*
X61547619Y-97752071D01*
X61547619Y-97752071D02*
X61595238Y-97847309D01*
X61595238Y-97847309D02*
X61595238Y-98371119D01*
X62499999Y-98371119D02*
X62499999Y-97847309D01*
X62499999Y-97847309D02*
X62452380Y-97752071D01*
X62452380Y-97752071D02*
X62357142Y-97704452D01*
X62357142Y-97704452D02*
X62166666Y-97704452D01*
X62166666Y-97704452D02*
X62071428Y-97752071D01*
X62499999Y-98323500D02*
X62404761Y-98371119D01*
X62404761Y-98371119D02*
X62166666Y-98371119D01*
X62166666Y-98371119D02*
X62071428Y-98323500D01*
X62071428Y-98323500D02*
X62023809Y-98228261D01*
X62023809Y-98228261D02*
X62023809Y-98133023D01*
X62023809Y-98133023D02*
X62071428Y-98037785D01*
X62071428Y-98037785D02*
X62166666Y-97990166D01*
X62166666Y-97990166D02*
X62404761Y-97990166D01*
X62404761Y-97990166D02*
X62499999Y-97942547D01*
X62976190Y-98371119D02*
X62976190Y-97704452D01*
X62976190Y-97894928D02*
X63023809Y-97799690D01*
X63023809Y-97799690D02*
X63071428Y-97752071D01*
X63071428Y-97752071D02*
X63166666Y-97704452D01*
X63166666Y-97704452D02*
X63261904Y-97704452D01*
X63452381Y-97704452D02*
X63833333Y-97704452D01*
X63595238Y-97371119D02*
X63595238Y-98228261D01*
X63595238Y-98228261D02*
X63642857Y-98323500D01*
X63642857Y-98323500D02*
X63738095Y-98371119D01*
X63738095Y-98371119D02*
X63833333Y-98371119D01*
X63928572Y-98466357D02*
X64690476Y-98466357D01*
X64928572Y-97704452D02*
X64928572Y-98704452D01*
X64928572Y-97752071D02*
X65023810Y-97704452D01*
X65023810Y-97704452D02*
X65214286Y-97704452D01*
X65214286Y-97704452D02*
X65309524Y-97752071D01*
X65309524Y-97752071D02*
X65357143Y-97799690D01*
X65357143Y-97799690D02*
X65404762Y-97894928D01*
X65404762Y-97894928D02*
X65404762Y-98180642D01*
X65404762Y-98180642D02*
X65357143Y-98275880D01*
X65357143Y-98275880D02*
X65309524Y-98323500D01*
X65309524Y-98323500D02*
X65214286Y-98371119D01*
X65214286Y-98371119D02*
X65023810Y-98371119D01*
X65023810Y-98371119D02*
X64928572Y-98323500D01*
X65976191Y-98371119D02*
X65880953Y-98323500D01*
X65880953Y-98323500D02*
X65833334Y-98228261D01*
X65833334Y-98228261D02*
X65833334Y-97371119D01*
X66785715Y-98371119D02*
X66785715Y-97847309D01*
X66785715Y-97847309D02*
X66738096Y-97752071D01*
X66738096Y-97752071D02*
X66642858Y-97704452D01*
X66642858Y-97704452D02*
X66452382Y-97704452D01*
X66452382Y-97704452D02*
X66357144Y-97752071D01*
X66785715Y-98323500D02*
X66690477Y-98371119D01*
X66690477Y-98371119D02*
X66452382Y-98371119D01*
X66452382Y-98371119D02*
X66357144Y-98323500D01*
X66357144Y-98323500D02*
X66309525Y-98228261D01*
X66309525Y-98228261D02*
X66309525Y-98133023D01*
X66309525Y-98133023D02*
X66357144Y-98037785D01*
X66357144Y-98037785D02*
X66452382Y-97990166D01*
X66452382Y-97990166D02*
X66690477Y-97990166D01*
X66690477Y-97990166D02*
X66785715Y-97942547D01*
X67261906Y-97704452D02*
X67261906Y-98371119D01*
X67261906Y-97799690D02*
X67309525Y-97752071D01*
X67309525Y-97752071D02*
X67404763Y-97704452D01*
X67404763Y-97704452D02*
X67547620Y-97704452D01*
X67547620Y-97704452D02*
X67642858Y-97752071D01*
X67642858Y-97752071D02*
X67690477Y-97847309D01*
X67690477Y-97847309D02*
X67690477Y-98371119D01*
X68023811Y-97704452D02*
X68404763Y-97704452D01*
X68166668Y-97371119D02*
X68166668Y-98228261D01*
X68166668Y-98228261D02*
X68214287Y-98323500D01*
X68214287Y-98323500D02*
X68309525Y-98371119D01*
X68309525Y-98371119D02*
X68404763Y-98371119D01*
X68690478Y-98323500D02*
X68785716Y-98371119D01*
X68785716Y-98371119D02*
X68976192Y-98371119D01*
X68976192Y-98371119D02*
X69071430Y-98323500D01*
X69071430Y-98323500D02*
X69119049Y-98228261D01*
X69119049Y-98228261D02*
X69119049Y-98180642D01*
X69119049Y-98180642D02*
X69071430Y-98085404D01*
X69071430Y-98085404D02*
X68976192Y-98037785D01*
X68976192Y-98037785D02*
X68833335Y-98037785D01*
X68833335Y-98037785D02*
X68738097Y-97990166D01*
X68738097Y-97990166D02*
X68690478Y-97894928D01*
X68690478Y-97894928D02*
X68690478Y-97847309D01*
X68690478Y-97847309D02*
X68738097Y-97752071D01*
X68738097Y-97752071D02*
X68833335Y-97704452D01*
X68833335Y-97704452D02*
X68976192Y-97704452D01*
X68976192Y-97704452D02*
X69071430Y-97752071D01*
D10*
X69824800Y-51743734D02*
X69872419Y-51600877D01*
X69872419Y-51600877D02*
X69872419Y-51362782D01*
X69872419Y-51362782D02*
X69824800Y-51267544D01*
X69824800Y-51267544D02*
X69777180Y-51219925D01*
X69777180Y-51219925D02*
X69681942Y-51172306D01*
X69681942Y-51172306D02*
X69586704Y-51172306D01*
X69586704Y-51172306D02*
X69491466Y-51219925D01*
X69491466Y-51219925D02*
X69443847Y-51267544D01*
X69443847Y-51267544D02*
X69396228Y-51362782D01*
X69396228Y-51362782D02*
X69348609Y-51553258D01*
X69348609Y-51553258D02*
X69300990Y-51648496D01*
X69300990Y-51648496D02*
X69253371Y-51696115D01*
X69253371Y-51696115D02*
X69158133Y-51743734D01*
X69158133Y-51743734D02*
X69062895Y-51743734D01*
X69062895Y-51743734D02*
X68967657Y-51696115D01*
X68967657Y-51696115D02*
X68920038Y-51648496D01*
X68920038Y-51648496D02*
X68872419Y-51553258D01*
X68872419Y-51553258D02*
X68872419Y-51315163D01*
X68872419Y-51315163D02*
X68920038Y-51172306D01*
X68872419Y-50124686D02*
X69872419Y-49791353D01*
X69872419Y-49791353D02*
X68872419Y-49458020D01*
X69872419Y-49124686D02*
X68872419Y-49124686D01*
X68872419Y-49124686D02*
X68872419Y-48886591D01*
X68872419Y-48886591D02*
X68920038Y-48743734D01*
X68920038Y-48743734D02*
X69015276Y-48648496D01*
X69015276Y-48648496D02*
X69110514Y-48600877D01*
X69110514Y-48600877D02*
X69300990Y-48553258D01*
X69300990Y-48553258D02*
X69443847Y-48553258D01*
X69443847Y-48553258D02*
X69634323Y-48600877D01*
X69634323Y-48600877D02*
X69729561Y-48648496D01*
X69729561Y-48648496D02*
X69824800Y-48743734D01*
X69824800Y-48743734D02*
X69872419Y-48886591D01*
X69872419Y-48886591D02*
X69872419Y-49124686D01*
X69777180Y-47553258D02*
X69824800Y-47600877D01*
X69824800Y-47600877D02*
X69872419Y-47743734D01*
X69872419Y-47743734D02*
X69872419Y-47838972D01*
X69872419Y-47838972D02*
X69824800Y-47981829D01*
X69824800Y-47981829D02*
X69729561Y-48077067D01*
X69729561Y-48077067D02*
X69634323Y-48124686D01*
X69634323Y-48124686D02*
X69443847Y-48172305D01*
X69443847Y-48172305D02*
X69300990Y-48172305D01*
X69300990Y-48172305D02*
X69110514Y-48124686D01*
X69110514Y-48124686D02*
X69015276Y-48077067D01*
X69015276Y-48077067D02*
X68920038Y-47981829D01*
X68920038Y-47981829D02*
X68872419Y-47838972D01*
X68872419Y-47838972D02*
X68872419Y-47743734D01*
X68872419Y-47743734D02*
X68920038Y-47600877D01*
X68920038Y-47600877D02*
X68967657Y-47553258D01*
X68920038Y-45838972D02*
X68872419Y-45934210D01*
X68872419Y-45934210D02*
X68872419Y-46077067D01*
X68872419Y-46077067D02*
X68920038Y-46219924D01*
X68920038Y-46219924D02*
X69015276Y-46315162D01*
X69015276Y-46315162D02*
X69110514Y-46362781D01*
X69110514Y-46362781D02*
X69300990Y-46410400D01*
X69300990Y-46410400D02*
X69443847Y-46410400D01*
X69443847Y-46410400D02*
X69634323Y-46362781D01*
X69634323Y-46362781D02*
X69729561Y-46315162D01*
X69729561Y-46315162D02*
X69824800Y-46219924D01*
X69824800Y-46219924D02*
X69872419Y-46077067D01*
X69872419Y-46077067D02*
X69872419Y-45981829D01*
X69872419Y-45981829D02*
X69824800Y-45838972D01*
X69824800Y-45838972D02*
X69777180Y-45791353D01*
X69777180Y-45791353D02*
X69443847Y-45791353D01*
X69443847Y-45791353D02*
X69443847Y-45981829D01*
X69872419Y-45362781D02*
X68872419Y-45362781D01*
X68872419Y-45362781D02*
X69872419Y-44791353D01*
X69872419Y-44791353D02*
X68872419Y-44791353D01*
X69872419Y-44315162D02*
X68872419Y-44315162D01*
X68872419Y-44315162D02*
X68872419Y-44077067D01*
X68872419Y-44077067D02*
X68920038Y-43934210D01*
X68920038Y-43934210D02*
X69015276Y-43838972D01*
X69015276Y-43838972D02*
X69110514Y-43791353D01*
X69110514Y-43791353D02*
X69300990Y-43743734D01*
X69300990Y-43743734D02*
X69443847Y-43743734D01*
X69443847Y-43743734D02*
X69634323Y-43791353D01*
X69634323Y-43791353D02*
X69729561Y-43838972D01*
X69729561Y-43838972D02*
X69824800Y-43934210D01*
X69824800Y-43934210D02*
X69872419Y-44077067D01*
X69872419Y-44077067D02*
X69872419Y-44315162D01*
D12*
X49753333Y-70454819D02*
X49420000Y-69978628D01*
X49181905Y-70454819D02*
X49181905Y-69454819D01*
X49181905Y-69454819D02*
X49562857Y-69454819D01*
X49562857Y-69454819D02*
X49658095Y-69502438D01*
X49658095Y-69502438D02*
X49705714Y-69550057D01*
X49705714Y-69550057D02*
X49753333Y-69645295D01*
X49753333Y-69645295D02*
X49753333Y-69788152D01*
X49753333Y-69788152D02*
X49705714Y-69883390D01*
X49705714Y-69883390D02*
X49658095Y-69931009D01*
X49658095Y-69931009D02*
X49562857Y-69978628D01*
X49562857Y-69978628D02*
X49181905Y-69978628D01*
X50086667Y-69454819D02*
X50705714Y-69454819D01*
X50705714Y-69454819D02*
X50372381Y-69835771D01*
X50372381Y-69835771D02*
X50515238Y-69835771D01*
X50515238Y-69835771D02*
X50610476Y-69883390D01*
X50610476Y-69883390D02*
X50658095Y-69931009D01*
X50658095Y-69931009D02*
X50705714Y-70026247D01*
X50705714Y-70026247D02*
X50705714Y-70264342D01*
X50705714Y-70264342D02*
X50658095Y-70359580D01*
X50658095Y-70359580D02*
X50610476Y-70407200D01*
X50610476Y-70407200D02*
X50515238Y-70454819D01*
X50515238Y-70454819D02*
X50229524Y-70454819D01*
X50229524Y-70454819D02*
X50134286Y-70407200D01*
X50134286Y-70407200D02*
X50086667Y-70359580D01*
X63523810Y-84454819D02*
X63523810Y-83454819D01*
X63952381Y-83550057D02*
X64000000Y-83502438D01*
X64000000Y-83502438D02*
X64095238Y-83454819D01*
X64095238Y-83454819D02*
X64333333Y-83454819D01*
X64333333Y-83454819D02*
X64428571Y-83502438D01*
X64428571Y-83502438D02*
X64476190Y-83550057D01*
X64476190Y-83550057D02*
X64523809Y-83645295D01*
X64523809Y-83645295D02*
X64523809Y-83740533D01*
X64523809Y-83740533D02*
X64476190Y-83883390D01*
X64476190Y-83883390D02*
X63904762Y-84454819D01*
X63904762Y-84454819D02*
X64523809Y-84454819D01*
X65523809Y-84359580D02*
X65476190Y-84407200D01*
X65476190Y-84407200D02*
X65333333Y-84454819D01*
X65333333Y-84454819D02*
X65238095Y-84454819D01*
X65238095Y-84454819D02*
X65095238Y-84407200D01*
X65095238Y-84407200D02*
X65000000Y-84311961D01*
X65000000Y-84311961D02*
X64952381Y-84216723D01*
X64952381Y-84216723D02*
X64904762Y-84026247D01*
X64904762Y-84026247D02*
X64904762Y-83883390D01*
X64904762Y-83883390D02*
X64952381Y-83692914D01*
X64952381Y-83692914D02*
X65000000Y-83597676D01*
X65000000Y-83597676D02*
X65095238Y-83502438D01*
X65095238Y-83502438D02*
X65238095Y-83454819D01*
X65238095Y-83454819D02*
X65333333Y-83454819D01*
X65333333Y-83454819D02*
X65476190Y-83502438D01*
X65476190Y-83502438D02*
X65523809Y-83550057D01*
X63500000Y-67454819D02*
X63500000Y-66454819D01*
X63928571Y-66550057D02*
X63976190Y-66502438D01*
X63976190Y-66502438D02*
X64071428Y-66454819D01*
X64071428Y-66454819D02*
X64309523Y-66454819D01*
X64309523Y-66454819D02*
X64404761Y-66502438D01*
X64404761Y-66502438D02*
X64452380Y-66550057D01*
X64452380Y-66550057D02*
X64499999Y-66645295D01*
X64499999Y-66645295D02*
X64499999Y-66740533D01*
X64499999Y-66740533D02*
X64452380Y-66883390D01*
X64452380Y-66883390D02*
X63880952Y-67454819D01*
X63880952Y-67454819D02*
X64499999Y-67454819D01*
X65499999Y-67359580D02*
X65452380Y-67407200D01*
X65452380Y-67407200D02*
X65309523Y-67454819D01*
X65309523Y-67454819D02*
X65214285Y-67454819D01*
X65214285Y-67454819D02*
X65071428Y-67407200D01*
X65071428Y-67407200D02*
X64976190Y-67311961D01*
X64976190Y-67311961D02*
X64928571Y-67216723D01*
X64928571Y-67216723D02*
X64880952Y-67026247D01*
X64880952Y-67026247D02*
X64880952Y-66883390D01*
X64880952Y-66883390D02*
X64928571Y-66692914D01*
X64928571Y-66692914D02*
X64976190Y-66597676D01*
X64976190Y-66597676D02*
X65071428Y-66502438D01*
X65071428Y-66502438D02*
X65214285Y-66454819D01*
X65214285Y-66454819D02*
X65309523Y-66454819D01*
X65309523Y-66454819D02*
X65452380Y-66502438D01*
X65452380Y-66502438D02*
X65499999Y-66550057D01*
X66690476Y-67454819D02*
X66690476Y-66454819D01*
X66690476Y-66454819D02*
X66928571Y-66454819D01*
X66928571Y-66454819D02*
X67071428Y-66502438D01*
X67071428Y-66502438D02*
X67166666Y-66597676D01*
X67166666Y-66597676D02*
X67214285Y-66692914D01*
X67214285Y-66692914D02*
X67261904Y-66883390D01*
X67261904Y-66883390D02*
X67261904Y-67026247D01*
X67261904Y-67026247D02*
X67214285Y-67216723D01*
X67214285Y-67216723D02*
X67166666Y-67311961D01*
X67166666Y-67311961D02*
X67071428Y-67407200D01*
X67071428Y-67407200D02*
X66928571Y-67454819D01*
X66928571Y-67454819D02*
X66690476Y-67454819D01*
X67642857Y-66550057D02*
X67690476Y-66502438D01*
X67690476Y-66502438D02*
X67785714Y-66454819D01*
X67785714Y-66454819D02*
X68023809Y-66454819D01*
X68023809Y-66454819D02*
X68119047Y-66502438D01*
X68119047Y-66502438D02*
X68166666Y-66550057D01*
X68166666Y-66550057D02*
X68214285Y-66645295D01*
X68214285Y-66645295D02*
X68214285Y-66740533D01*
X68214285Y-66740533D02*
X68166666Y-66883390D01*
X68166666Y-66883390D02*
X67595238Y-67454819D01*
X67595238Y-67454819D02*
X68214285Y-67454819D01*
X68642857Y-67073866D02*
X69404762Y-67073866D01*
X69880952Y-66788152D02*
X69880952Y-67788152D01*
X69880952Y-66835771D02*
X69976190Y-66788152D01*
X69976190Y-66788152D02*
X70166666Y-66788152D01*
X70166666Y-66788152D02*
X70261904Y-66835771D01*
X70261904Y-66835771D02*
X70309523Y-66883390D01*
X70309523Y-66883390D02*
X70357142Y-66978628D01*
X70357142Y-66978628D02*
X70357142Y-67264342D01*
X70357142Y-67264342D02*
X70309523Y-67359580D01*
X70309523Y-67359580D02*
X70261904Y-67407200D01*
X70261904Y-67407200D02*
X70166666Y-67454819D01*
X70166666Y-67454819D02*
X69976190Y-67454819D01*
X69976190Y-67454819D02*
X69880952Y-67407200D01*
X70928571Y-67454819D02*
X70833333Y-67407200D01*
X70833333Y-67407200D02*
X70785714Y-67359580D01*
X70785714Y-67359580D02*
X70738095Y-67264342D01*
X70738095Y-67264342D02*
X70738095Y-66978628D01*
X70738095Y-66978628D02*
X70785714Y-66883390D01*
X70785714Y-66883390D02*
X70833333Y-66835771D01*
X70833333Y-66835771D02*
X70928571Y-66788152D01*
X70928571Y-66788152D02*
X71071428Y-66788152D01*
X71071428Y-66788152D02*
X71166666Y-66835771D01*
X71166666Y-66835771D02*
X71214285Y-66883390D01*
X71214285Y-66883390D02*
X71261904Y-66978628D01*
X71261904Y-66978628D02*
X71261904Y-67264342D01*
X71261904Y-67264342D02*
X71214285Y-67359580D01*
X71214285Y-67359580D02*
X71166666Y-67407200D01*
X71166666Y-67407200D02*
X71071428Y-67454819D01*
X71071428Y-67454819D02*
X70928571Y-67454819D01*
X71595238Y-66788152D02*
X71785714Y-67454819D01*
X71785714Y-67454819D02*
X71976190Y-66978628D01*
X71976190Y-66978628D02*
X72166666Y-67454819D01*
X72166666Y-67454819D02*
X72357142Y-66788152D01*
X73119047Y-67407200D02*
X73023809Y-67454819D01*
X73023809Y-67454819D02*
X72833333Y-67454819D01*
X72833333Y-67454819D02*
X72738095Y-67407200D01*
X72738095Y-67407200D02*
X72690476Y-67311961D01*
X72690476Y-67311961D02*
X72690476Y-66931009D01*
X72690476Y-66931009D02*
X72738095Y-66835771D01*
X72738095Y-66835771D02*
X72833333Y-66788152D01*
X72833333Y-66788152D02*
X73023809Y-66788152D01*
X73023809Y-66788152D02*
X73119047Y-66835771D01*
X73119047Y-66835771D02*
X73166666Y-66931009D01*
X73166666Y-66931009D02*
X73166666Y-67026247D01*
X73166666Y-67026247D02*
X72690476Y-67121485D01*
X73595238Y-67454819D02*
X73595238Y-66788152D01*
X73595238Y-66978628D02*
X73642857Y-66883390D01*
X73642857Y-66883390D02*
X73690476Y-66835771D01*
X73690476Y-66835771D02*
X73785714Y-66788152D01*
X73785714Y-66788152D02*
X73880952Y-66788152D01*
X74595238Y-67407200D02*
X74500000Y-67454819D01*
X74500000Y-67454819D02*
X74309524Y-67454819D01*
X74309524Y-67454819D02*
X74214286Y-67407200D01*
X74214286Y-67407200D02*
X74166667Y-67311961D01*
X74166667Y-67311961D02*
X74166667Y-66931009D01*
X74166667Y-66931009D02*
X74214286Y-66835771D01*
X74214286Y-66835771D02*
X74309524Y-66788152D01*
X74309524Y-66788152D02*
X74500000Y-66788152D01*
X74500000Y-66788152D02*
X74595238Y-66835771D01*
X74595238Y-66835771D02*
X74642857Y-66931009D01*
X74642857Y-66931009D02*
X74642857Y-67026247D01*
X74642857Y-67026247D02*
X74166667Y-67121485D01*
X75500000Y-67454819D02*
X75500000Y-66454819D01*
X75500000Y-67407200D02*
X75404762Y-67454819D01*
X75404762Y-67454819D02*
X75214286Y-67454819D01*
X75214286Y-67454819D02*
X75119048Y-67407200D01*
X75119048Y-67407200D02*
X75071429Y-67359580D01*
X75071429Y-67359580D02*
X75023810Y-67264342D01*
X75023810Y-67264342D02*
X75023810Y-66978628D01*
X75023810Y-66978628D02*
X75071429Y-66883390D01*
X75071429Y-66883390D02*
X75119048Y-66835771D01*
X75119048Y-66835771D02*
X75214286Y-66788152D01*
X75214286Y-66788152D02*
X75404762Y-66788152D01*
X75404762Y-66788152D02*
X75500000Y-66835771D01*
X54416667Y-79904819D02*
X54416667Y-78904819D01*
X54416667Y-78904819D02*
X54797619Y-78904819D01*
X54797619Y-78904819D02*
X54892857Y-78952438D01*
X54892857Y-78952438D02*
X54940476Y-79000057D01*
X54940476Y-79000057D02*
X54988095Y-79095295D01*
X54988095Y-79095295D02*
X54988095Y-79238152D01*
X54988095Y-79238152D02*
X54940476Y-79333390D01*
X54940476Y-79333390D02*
X54892857Y-79381009D01*
X54892857Y-79381009D02*
X54797619Y-79428628D01*
X54797619Y-79428628D02*
X54416667Y-79428628D01*
X55845238Y-79238152D02*
X55845238Y-79904819D01*
X55416667Y-79238152D02*
X55416667Y-79761961D01*
X55416667Y-79761961D02*
X55464286Y-79857200D01*
X55464286Y-79857200D02*
X55559524Y-79904819D01*
X55559524Y-79904819D02*
X55702381Y-79904819D01*
X55702381Y-79904819D02*
X55797619Y-79857200D01*
X55797619Y-79857200D02*
X55845238Y-79809580D01*
X56321429Y-79904819D02*
X56321429Y-79238152D01*
X56321429Y-79333390D02*
X56369048Y-79285771D01*
X56369048Y-79285771D02*
X56464286Y-79238152D01*
X56464286Y-79238152D02*
X56607143Y-79238152D01*
X56607143Y-79238152D02*
X56702381Y-79285771D01*
X56702381Y-79285771D02*
X56750000Y-79381009D01*
X56750000Y-79381009D02*
X56750000Y-79904819D01*
X56750000Y-79381009D02*
X56797619Y-79285771D01*
X56797619Y-79285771D02*
X56892857Y-79238152D01*
X56892857Y-79238152D02*
X57035714Y-79238152D01*
X57035714Y-79238152D02*
X57130953Y-79285771D01*
X57130953Y-79285771D02*
X57178572Y-79381009D01*
X57178572Y-79381009D02*
X57178572Y-79904819D01*
X57654762Y-79238152D02*
X57654762Y-80238152D01*
X57654762Y-79285771D02*
X57750000Y-79238152D01*
X57750000Y-79238152D02*
X57940476Y-79238152D01*
X57940476Y-79238152D02*
X58035714Y-79285771D01*
X58035714Y-79285771D02*
X58083333Y-79333390D01*
X58083333Y-79333390D02*
X58130952Y-79428628D01*
X58130952Y-79428628D02*
X58130952Y-79714342D01*
X58130952Y-79714342D02*
X58083333Y-79809580D01*
X58083333Y-79809580D02*
X58035714Y-79857200D01*
X58035714Y-79857200D02*
X57940476Y-79904819D01*
X57940476Y-79904819D02*
X57750000Y-79904819D01*
X57750000Y-79904819D02*
X57654762Y-79857200D01*
X56404761Y-76050057D02*
X56309523Y-76002438D01*
X56309523Y-76002438D02*
X56214285Y-75907200D01*
X56214285Y-75907200D02*
X56071428Y-75764342D01*
X56071428Y-75764342D02*
X55976190Y-75716723D01*
X55976190Y-75716723D02*
X55880952Y-75716723D01*
X55928571Y-75954819D02*
X55833333Y-75907200D01*
X55833333Y-75907200D02*
X55738095Y-75811961D01*
X55738095Y-75811961D02*
X55690476Y-75621485D01*
X55690476Y-75621485D02*
X55690476Y-75288152D01*
X55690476Y-75288152D02*
X55738095Y-75097676D01*
X55738095Y-75097676D02*
X55833333Y-75002438D01*
X55833333Y-75002438D02*
X55928571Y-74954819D01*
X55928571Y-74954819D02*
X56119047Y-74954819D01*
X56119047Y-74954819D02*
X56214285Y-75002438D01*
X56214285Y-75002438D02*
X56309523Y-75097676D01*
X56309523Y-75097676D02*
X56357142Y-75288152D01*
X56357142Y-75288152D02*
X56357142Y-75621485D01*
X56357142Y-75621485D02*
X56309523Y-75811961D01*
X56309523Y-75811961D02*
X56214285Y-75907200D01*
X56214285Y-75907200D02*
X56119047Y-75954819D01*
X56119047Y-75954819D02*
X55928571Y-75954819D01*
X57309523Y-75954819D02*
X56738095Y-75954819D01*
X57023809Y-75954819D02*
X57023809Y-74954819D01*
X57023809Y-74954819D02*
X56928571Y-75097676D01*
X56928571Y-75097676D02*
X56833333Y-75192914D01*
X56833333Y-75192914D02*
X56738095Y-75240533D01*
X45333333Y-86359580D02*
X45285714Y-86407200D01*
X45285714Y-86407200D02*
X45142857Y-86454819D01*
X45142857Y-86454819D02*
X45047619Y-86454819D01*
X45047619Y-86454819D02*
X44904762Y-86407200D01*
X44904762Y-86407200D02*
X44809524Y-86311961D01*
X44809524Y-86311961D02*
X44761905Y-86216723D01*
X44761905Y-86216723D02*
X44714286Y-86026247D01*
X44714286Y-86026247D02*
X44714286Y-85883390D01*
X44714286Y-85883390D02*
X44761905Y-85692914D01*
X44761905Y-85692914D02*
X44809524Y-85597676D01*
X44809524Y-85597676D02*
X44904762Y-85502438D01*
X44904762Y-85502438D02*
X45047619Y-85454819D01*
X45047619Y-85454819D02*
X45142857Y-85454819D01*
X45142857Y-85454819D02*
X45285714Y-85502438D01*
X45285714Y-85502438D02*
X45333333Y-85550057D01*
X45666667Y-85454819D02*
X46285714Y-85454819D01*
X46285714Y-85454819D02*
X45952381Y-85835771D01*
X45952381Y-85835771D02*
X46095238Y-85835771D01*
X46095238Y-85835771D02*
X46190476Y-85883390D01*
X46190476Y-85883390D02*
X46238095Y-85931009D01*
X46238095Y-85931009D02*
X46285714Y-86026247D01*
X46285714Y-86026247D02*
X46285714Y-86264342D01*
X46285714Y-86264342D02*
X46238095Y-86359580D01*
X46238095Y-86359580D02*
X46190476Y-86407200D01*
X46190476Y-86407200D02*
X46095238Y-86454819D01*
X46095238Y-86454819D02*
X45809524Y-86454819D01*
X45809524Y-86454819D02*
X45714286Y-86407200D01*
X45714286Y-86407200D02*
X45666667Y-86359580D01*
X63523810Y-92954819D02*
X63523810Y-91954819D01*
X63952381Y-92050057D02*
X64000000Y-92002438D01*
X64000000Y-92002438D02*
X64095238Y-91954819D01*
X64095238Y-91954819D02*
X64333333Y-91954819D01*
X64333333Y-91954819D02*
X64428571Y-92002438D01*
X64428571Y-92002438D02*
X64476190Y-92050057D01*
X64476190Y-92050057D02*
X64523809Y-92145295D01*
X64523809Y-92145295D02*
X64523809Y-92240533D01*
X64523809Y-92240533D02*
X64476190Y-92383390D01*
X64476190Y-92383390D02*
X63904762Y-92954819D01*
X63904762Y-92954819D02*
X64523809Y-92954819D01*
X65523809Y-92859580D02*
X65476190Y-92907200D01*
X65476190Y-92907200D02*
X65333333Y-92954819D01*
X65333333Y-92954819D02*
X65238095Y-92954819D01*
X65238095Y-92954819D02*
X65095238Y-92907200D01*
X65095238Y-92907200D02*
X65000000Y-92811961D01*
X65000000Y-92811961D02*
X64952381Y-92716723D01*
X64952381Y-92716723D02*
X64904762Y-92526247D01*
X64904762Y-92526247D02*
X64904762Y-92383390D01*
X64904762Y-92383390D02*
X64952381Y-92192914D01*
X64952381Y-92192914D02*
X65000000Y-92097676D01*
X65000000Y-92097676D02*
X65095238Y-92002438D01*
X65095238Y-92002438D02*
X65238095Y-91954819D01*
X65238095Y-91954819D02*
X65333333Y-91954819D01*
X65333333Y-91954819D02*
X65476190Y-92002438D01*
X65476190Y-92002438D02*
X65523809Y-92050057D01*
X32369048Y-65771486D02*
X32369048Y-66581009D01*
X32369048Y-66581009D02*
X32416667Y-66676247D01*
X32416667Y-66676247D02*
X32464286Y-66723867D01*
X32464286Y-66723867D02*
X32559524Y-66771486D01*
X32559524Y-66771486D02*
X32750000Y-66771486D01*
X32750000Y-66771486D02*
X32845238Y-66723867D01*
X32845238Y-66723867D02*
X32892857Y-66676247D01*
X32892857Y-66676247D02*
X32940476Y-66581009D01*
X32940476Y-66581009D02*
X32940476Y-65771486D01*
X33369048Y-66723867D02*
X33511905Y-66771486D01*
X33511905Y-66771486D02*
X33750000Y-66771486D01*
X33750000Y-66771486D02*
X33845238Y-66723867D01*
X33845238Y-66723867D02*
X33892857Y-66676247D01*
X33892857Y-66676247D02*
X33940476Y-66581009D01*
X33940476Y-66581009D02*
X33940476Y-66485771D01*
X33940476Y-66485771D02*
X33892857Y-66390533D01*
X33892857Y-66390533D02*
X33845238Y-66342914D01*
X33845238Y-66342914D02*
X33750000Y-66295295D01*
X33750000Y-66295295D02*
X33559524Y-66247676D01*
X33559524Y-66247676D02*
X33464286Y-66200057D01*
X33464286Y-66200057D02*
X33416667Y-66152438D01*
X33416667Y-66152438D02*
X33369048Y-66057200D01*
X33369048Y-66057200D02*
X33369048Y-65961962D01*
X33369048Y-65961962D02*
X33416667Y-65866724D01*
X33416667Y-65866724D02*
X33464286Y-65819105D01*
X33464286Y-65819105D02*
X33559524Y-65771486D01*
X33559524Y-65771486D02*
X33797619Y-65771486D01*
X33797619Y-65771486D02*
X33940476Y-65819105D01*
X34702381Y-66247676D02*
X34845238Y-66295295D01*
X34845238Y-66295295D02*
X34892857Y-66342914D01*
X34892857Y-66342914D02*
X34940476Y-66438152D01*
X34940476Y-66438152D02*
X34940476Y-66581009D01*
X34940476Y-66581009D02*
X34892857Y-66676247D01*
X34892857Y-66676247D02*
X34845238Y-66723867D01*
X34845238Y-66723867D02*
X34750000Y-66771486D01*
X34750000Y-66771486D02*
X34369048Y-66771486D01*
X34369048Y-66771486D02*
X34369048Y-65771486D01*
X34369048Y-65771486D02*
X34702381Y-65771486D01*
X34702381Y-65771486D02*
X34797619Y-65819105D01*
X34797619Y-65819105D02*
X34845238Y-65866724D01*
X34845238Y-65866724D02*
X34892857Y-65961962D01*
X34892857Y-65961962D02*
X34892857Y-66057200D01*
X34892857Y-66057200D02*
X34845238Y-66152438D01*
X34845238Y-66152438D02*
X34797619Y-66200057D01*
X34797619Y-66200057D02*
X34702381Y-66247676D01*
X34702381Y-66247676D02*
X34369048Y-66247676D01*
X35369048Y-66390533D02*
X36130953Y-66390533D01*
X37178571Y-66676247D02*
X37130952Y-66723867D01*
X37130952Y-66723867D02*
X36988095Y-66771486D01*
X36988095Y-66771486D02*
X36892857Y-66771486D01*
X36892857Y-66771486D02*
X36750000Y-66723867D01*
X36750000Y-66723867D02*
X36654762Y-66628628D01*
X36654762Y-66628628D02*
X36607143Y-66533390D01*
X36607143Y-66533390D02*
X36559524Y-66342914D01*
X36559524Y-66342914D02*
X36559524Y-66200057D01*
X36559524Y-66200057D02*
X36607143Y-66009581D01*
X36607143Y-66009581D02*
X36654762Y-65914343D01*
X36654762Y-65914343D02*
X36750000Y-65819105D01*
X36750000Y-65819105D02*
X36892857Y-65771486D01*
X36892857Y-65771486D02*
X36988095Y-65771486D01*
X36988095Y-65771486D02*
X37130952Y-65819105D01*
X37130952Y-65819105D02*
X37178571Y-65866724D01*
X33430682Y-45576247D02*
X33383063Y-45623867D01*
X33383063Y-45623867D02*
X33240206Y-45671486D01*
X33240206Y-45671486D02*
X33144968Y-45671486D01*
X33144968Y-45671486D02*
X33002111Y-45623867D01*
X33002111Y-45623867D02*
X32906873Y-45528628D01*
X32906873Y-45528628D02*
X32859254Y-45433390D01*
X32859254Y-45433390D02*
X32811635Y-45242914D01*
X32811635Y-45242914D02*
X32811635Y-45100057D01*
X32811635Y-45100057D02*
X32859254Y-44909581D01*
X32859254Y-44909581D02*
X32906873Y-44814343D01*
X32906873Y-44814343D02*
X33002111Y-44719105D01*
X33002111Y-44719105D02*
X33144968Y-44671486D01*
X33144968Y-44671486D02*
X33240206Y-44671486D01*
X33240206Y-44671486D02*
X33383063Y-44719105D01*
X33383063Y-44719105D02*
X33430682Y-44766724D01*
X33811635Y-44766724D02*
X33859254Y-44719105D01*
X33859254Y-44719105D02*
X33954492Y-44671486D01*
X33954492Y-44671486D02*
X34192587Y-44671486D01*
X34192587Y-44671486D02*
X34287825Y-44719105D01*
X34287825Y-44719105D02*
X34335444Y-44766724D01*
X34335444Y-44766724D02*
X34383063Y-44861962D01*
X34383063Y-44861962D02*
X34383063Y-44957200D01*
X34383063Y-44957200D02*
X34335444Y-45100057D01*
X34335444Y-45100057D02*
X33764016Y-45671486D01*
X33764016Y-45671486D02*
X34383063Y-45671486D01*
X74454819Y-42904761D02*
X73454819Y-42904761D01*
X73454819Y-42904761D02*
X74169104Y-42571428D01*
X74169104Y-42571428D02*
X73454819Y-42238095D01*
X73454819Y-42238095D02*
X74454819Y-42238095D01*
X74454819Y-41619047D02*
X74407200Y-41714285D01*
X74407200Y-41714285D02*
X74359580Y-41761904D01*
X74359580Y-41761904D02*
X74264342Y-41809523D01*
X74264342Y-41809523D02*
X73978628Y-41809523D01*
X73978628Y-41809523D02*
X73883390Y-41761904D01*
X73883390Y-41761904D02*
X73835771Y-41714285D01*
X73835771Y-41714285D02*
X73788152Y-41619047D01*
X73788152Y-41619047D02*
X73788152Y-41476190D01*
X73788152Y-41476190D02*
X73835771Y-41380952D01*
X73835771Y-41380952D02*
X73883390Y-41333333D01*
X73883390Y-41333333D02*
X73978628Y-41285714D01*
X73978628Y-41285714D02*
X74264342Y-41285714D01*
X74264342Y-41285714D02*
X74359580Y-41333333D01*
X74359580Y-41333333D02*
X74407200Y-41380952D01*
X74407200Y-41380952D02*
X74454819Y-41476190D01*
X74454819Y-41476190D02*
X74454819Y-41619047D01*
X74454819Y-40857142D02*
X73788152Y-40857142D01*
X73454819Y-40857142D02*
X73502438Y-40904761D01*
X73502438Y-40904761D02*
X73550057Y-40857142D01*
X73550057Y-40857142D02*
X73502438Y-40809523D01*
X73502438Y-40809523D02*
X73454819Y-40857142D01*
X73454819Y-40857142D02*
X73550057Y-40857142D01*
X74407200Y-40428571D02*
X74454819Y-40333333D01*
X74454819Y-40333333D02*
X74454819Y-40142857D01*
X74454819Y-40142857D02*
X74407200Y-40047619D01*
X74407200Y-40047619D02*
X74311961Y-40000000D01*
X74311961Y-40000000D02*
X74264342Y-40000000D01*
X74264342Y-40000000D02*
X74169104Y-40047619D01*
X74169104Y-40047619D02*
X74121485Y-40142857D01*
X74121485Y-40142857D02*
X74121485Y-40285714D01*
X74121485Y-40285714D02*
X74073866Y-40380952D01*
X74073866Y-40380952D02*
X73978628Y-40428571D01*
X73978628Y-40428571D02*
X73931009Y-40428571D01*
X73931009Y-40428571D02*
X73835771Y-40380952D01*
X73835771Y-40380952D02*
X73788152Y-40285714D01*
X73788152Y-40285714D02*
X73788152Y-40142857D01*
X73788152Y-40142857D02*
X73835771Y-40047619D01*
X73788152Y-39714285D02*
X73788152Y-39333333D01*
X73454819Y-39571428D02*
X74311961Y-39571428D01*
X74311961Y-39571428D02*
X74407200Y-39523809D01*
X74407200Y-39523809D02*
X74454819Y-39428571D01*
X74454819Y-39428571D02*
X74454819Y-39333333D01*
X73788152Y-38571428D02*
X74454819Y-38571428D01*
X73788152Y-38999999D02*
X74311961Y-38999999D01*
X74311961Y-38999999D02*
X74407200Y-38952380D01*
X74407200Y-38952380D02*
X74454819Y-38857142D01*
X74454819Y-38857142D02*
X74454819Y-38714285D01*
X74454819Y-38714285D02*
X74407200Y-38619047D01*
X74407200Y-38619047D02*
X74359580Y-38571428D01*
X74454819Y-38095237D02*
X73788152Y-38095237D01*
X73978628Y-38095237D02*
X73883390Y-38047618D01*
X73883390Y-38047618D02*
X73835771Y-37999999D01*
X73835771Y-37999999D02*
X73788152Y-37904761D01*
X73788152Y-37904761D02*
X73788152Y-37809523D01*
X74407200Y-37095237D02*
X74454819Y-37190475D01*
X74454819Y-37190475D02*
X74454819Y-37380951D01*
X74454819Y-37380951D02*
X74407200Y-37476189D01*
X74407200Y-37476189D02*
X74311961Y-37523808D01*
X74311961Y-37523808D02*
X73931009Y-37523808D01*
X73931009Y-37523808D02*
X73835771Y-37476189D01*
X73835771Y-37476189D02*
X73788152Y-37380951D01*
X73788152Y-37380951D02*
X73788152Y-37190475D01*
X73788152Y-37190475D02*
X73835771Y-37095237D01*
X73835771Y-37095237D02*
X73931009Y-37047618D01*
X73931009Y-37047618D02*
X74026247Y-37047618D01*
X74026247Y-37047618D02*
X74121485Y-37523808D01*
X34454819Y-81658094D02*
X33454819Y-81658094D01*
X33454819Y-81658094D02*
X33454819Y-81419999D01*
X33454819Y-81419999D02*
X33502438Y-81277142D01*
X33502438Y-81277142D02*
X33597676Y-81181904D01*
X33597676Y-81181904D02*
X33692914Y-81134285D01*
X33692914Y-81134285D02*
X33883390Y-81086666D01*
X33883390Y-81086666D02*
X34026247Y-81086666D01*
X34026247Y-81086666D02*
X34216723Y-81134285D01*
X34216723Y-81134285D02*
X34311961Y-81181904D01*
X34311961Y-81181904D02*
X34407200Y-81277142D01*
X34407200Y-81277142D02*
X34454819Y-81419999D01*
X34454819Y-81419999D02*
X34454819Y-81658094D01*
X33550057Y-80705713D02*
X33502438Y-80658094D01*
X33502438Y-80658094D02*
X33454819Y-80562856D01*
X33454819Y-80562856D02*
X33454819Y-80324761D01*
X33454819Y-80324761D02*
X33502438Y-80229523D01*
X33502438Y-80229523D02*
X33550057Y-80181904D01*
X33550057Y-80181904D02*
X33645295Y-80134285D01*
X33645295Y-80134285D02*
X33740533Y-80134285D01*
X33740533Y-80134285D02*
X33883390Y-80181904D01*
X33883390Y-80181904D02*
X34454819Y-80753332D01*
X34454819Y-80753332D02*
X34454819Y-80134285D01*
X32354819Y-86261904D02*
X31354819Y-86261904D01*
X32354819Y-85690476D02*
X31783390Y-86119047D01*
X31354819Y-85690476D02*
X31926247Y-86261904D01*
X56254819Y-42666666D02*
X55778628Y-42999999D01*
X56254819Y-43238094D02*
X55254819Y-43238094D01*
X55254819Y-43238094D02*
X55254819Y-42857142D01*
X55254819Y-42857142D02*
X55302438Y-42761904D01*
X55302438Y-42761904D02*
X55350057Y-42714285D01*
X55350057Y-42714285D02*
X55445295Y-42666666D01*
X55445295Y-42666666D02*
X55588152Y-42666666D01*
X55588152Y-42666666D02*
X55683390Y-42714285D01*
X55683390Y-42714285D02*
X55731009Y-42761904D01*
X55731009Y-42761904D02*
X55778628Y-42857142D01*
X55778628Y-42857142D02*
X55778628Y-43238094D01*
X56254819Y-41714285D02*
X56254819Y-42285713D01*
X56254819Y-41999999D02*
X55254819Y-41999999D01*
X55254819Y-41999999D02*
X55397676Y-42095237D01*
X55397676Y-42095237D02*
X55492914Y-42190475D01*
X55492914Y-42190475D02*
X55540533Y-42285713D01*
X32535714Y-57790534D02*
X32678571Y-57838153D01*
X32678571Y-57838153D02*
X32916666Y-57838153D01*
X32916666Y-57838153D02*
X33011904Y-57790534D01*
X33011904Y-57790534D02*
X33059523Y-57742914D01*
X33059523Y-57742914D02*
X33107142Y-57647676D01*
X33107142Y-57647676D02*
X33107142Y-57552438D01*
X33107142Y-57552438D02*
X33059523Y-57457200D01*
X33059523Y-57457200D02*
X33011904Y-57409581D01*
X33011904Y-57409581D02*
X32916666Y-57361962D01*
X32916666Y-57361962D02*
X32726190Y-57314343D01*
X32726190Y-57314343D02*
X32630952Y-57266724D01*
X32630952Y-57266724D02*
X32583333Y-57219105D01*
X32583333Y-57219105D02*
X32535714Y-57123867D01*
X32535714Y-57123867D02*
X32535714Y-57028629D01*
X32535714Y-57028629D02*
X32583333Y-56933391D01*
X32583333Y-56933391D02*
X32630952Y-56885772D01*
X32630952Y-56885772D02*
X32726190Y-56838153D01*
X32726190Y-56838153D02*
X32964285Y-56838153D01*
X32964285Y-56838153D02*
X33107142Y-56885772D01*
X33440476Y-57171486D02*
X33630952Y-57838153D01*
X33630952Y-57838153D02*
X33821428Y-57361962D01*
X33821428Y-57361962D02*
X34011904Y-57838153D01*
X34011904Y-57838153D02*
X34202380Y-57171486D01*
X34583333Y-57838153D02*
X34583333Y-57171486D01*
X34583333Y-56838153D02*
X34535714Y-56885772D01*
X34535714Y-56885772D02*
X34583333Y-56933391D01*
X34583333Y-56933391D02*
X34630952Y-56885772D01*
X34630952Y-56885772D02*
X34583333Y-56838153D01*
X34583333Y-56838153D02*
X34583333Y-56933391D01*
X34916666Y-57171486D02*
X35297618Y-57171486D01*
X35059523Y-56838153D02*
X35059523Y-57695295D01*
X35059523Y-57695295D02*
X35107142Y-57790534D01*
X35107142Y-57790534D02*
X35202380Y-57838153D01*
X35202380Y-57838153D02*
X35297618Y-57838153D01*
X36059523Y-57790534D02*
X35964285Y-57838153D01*
X35964285Y-57838153D02*
X35773809Y-57838153D01*
X35773809Y-57838153D02*
X35678571Y-57790534D01*
X35678571Y-57790534D02*
X35630952Y-57742914D01*
X35630952Y-57742914D02*
X35583333Y-57647676D01*
X35583333Y-57647676D02*
X35583333Y-57361962D01*
X35583333Y-57361962D02*
X35630952Y-57266724D01*
X35630952Y-57266724D02*
X35678571Y-57219105D01*
X35678571Y-57219105D02*
X35773809Y-57171486D01*
X35773809Y-57171486D02*
X35964285Y-57171486D01*
X35964285Y-57171486D02*
X36059523Y-57219105D01*
X36488095Y-57838153D02*
X36488095Y-56838153D01*
X36916666Y-57838153D02*
X36916666Y-57314343D01*
X36916666Y-57314343D02*
X36869047Y-57219105D01*
X36869047Y-57219105D02*
X36773809Y-57171486D01*
X36773809Y-57171486D02*
X36630952Y-57171486D01*
X36630952Y-57171486D02*
X36535714Y-57219105D01*
X36535714Y-57219105D02*
X36488095Y-57266724D01*
X49753333Y-66954819D02*
X49420000Y-66478628D01*
X49181905Y-66954819D02*
X49181905Y-65954819D01*
X49181905Y-65954819D02*
X49562857Y-65954819D01*
X49562857Y-65954819D02*
X49658095Y-66002438D01*
X49658095Y-66002438D02*
X49705714Y-66050057D01*
X49705714Y-66050057D02*
X49753333Y-66145295D01*
X49753333Y-66145295D02*
X49753333Y-66288152D01*
X49753333Y-66288152D02*
X49705714Y-66383390D01*
X49705714Y-66383390D02*
X49658095Y-66431009D01*
X49658095Y-66431009D02*
X49562857Y-66478628D01*
X49562857Y-66478628D02*
X49181905Y-66478628D01*
X50610476Y-66288152D02*
X50610476Y-66954819D01*
X50372381Y-65907200D02*
X50134286Y-66621485D01*
X50134286Y-66621485D02*
X50753333Y-66621485D01*
X32678570Y-48381009D02*
X32821427Y-48428628D01*
X32821427Y-48428628D02*
X32869046Y-48476247D01*
X32869046Y-48476247D02*
X32916665Y-48571485D01*
X32916665Y-48571485D02*
X32916665Y-48714342D01*
X32916665Y-48714342D02*
X32869046Y-48809580D01*
X32869046Y-48809580D02*
X32821427Y-48857200D01*
X32821427Y-48857200D02*
X32726189Y-48904819D01*
X32726189Y-48904819D02*
X32345237Y-48904819D01*
X32345237Y-48904819D02*
X32345237Y-47904819D01*
X32345237Y-47904819D02*
X32678570Y-47904819D01*
X32678570Y-47904819D02*
X32773808Y-47952438D01*
X32773808Y-47952438D02*
X32821427Y-48000057D01*
X32821427Y-48000057D02*
X32869046Y-48095295D01*
X32869046Y-48095295D02*
X32869046Y-48190533D01*
X32869046Y-48190533D02*
X32821427Y-48285771D01*
X32821427Y-48285771D02*
X32773808Y-48333390D01*
X32773808Y-48333390D02*
X32678570Y-48381009D01*
X32678570Y-48381009D02*
X32345237Y-48381009D01*
X33773808Y-48904819D02*
X33773808Y-48381009D01*
X33773808Y-48381009D02*
X33726189Y-48285771D01*
X33726189Y-48285771D02*
X33630951Y-48238152D01*
X33630951Y-48238152D02*
X33440475Y-48238152D01*
X33440475Y-48238152D02*
X33345237Y-48285771D01*
X33773808Y-48857200D02*
X33678570Y-48904819D01*
X33678570Y-48904819D02*
X33440475Y-48904819D01*
X33440475Y-48904819D02*
X33345237Y-48857200D01*
X33345237Y-48857200D02*
X33297618Y-48761961D01*
X33297618Y-48761961D02*
X33297618Y-48666723D01*
X33297618Y-48666723D02*
X33345237Y-48571485D01*
X33345237Y-48571485D02*
X33440475Y-48523866D01*
X33440475Y-48523866D02*
X33678570Y-48523866D01*
X33678570Y-48523866D02*
X33773808Y-48476247D01*
X34107142Y-48238152D02*
X34488094Y-48238152D01*
X34249999Y-47904819D02*
X34249999Y-48761961D01*
X34249999Y-48761961D02*
X34297618Y-48857200D01*
X34297618Y-48857200D02*
X34392856Y-48904819D01*
X34392856Y-48904819D02*
X34488094Y-48904819D01*
X34678571Y-48238152D02*
X35059523Y-48238152D01*
X34821428Y-47904819D02*
X34821428Y-48761961D01*
X34821428Y-48761961D02*
X34869047Y-48857200D01*
X34869047Y-48857200D02*
X34964285Y-48904819D01*
X34964285Y-48904819D02*
X35059523Y-48904819D01*
X35773809Y-48857200D02*
X35678571Y-48904819D01*
X35678571Y-48904819D02*
X35488095Y-48904819D01*
X35488095Y-48904819D02*
X35392857Y-48857200D01*
X35392857Y-48857200D02*
X35345238Y-48761961D01*
X35345238Y-48761961D02*
X35345238Y-48381009D01*
X35345238Y-48381009D02*
X35392857Y-48285771D01*
X35392857Y-48285771D02*
X35488095Y-48238152D01*
X35488095Y-48238152D02*
X35678571Y-48238152D01*
X35678571Y-48238152D02*
X35773809Y-48285771D01*
X35773809Y-48285771D02*
X35821428Y-48381009D01*
X35821428Y-48381009D02*
X35821428Y-48476247D01*
X35821428Y-48476247D02*
X35345238Y-48571485D01*
X36250000Y-48904819D02*
X36250000Y-48238152D01*
X36250000Y-48428628D02*
X36297619Y-48333390D01*
X36297619Y-48333390D02*
X36345238Y-48285771D01*
X36345238Y-48285771D02*
X36440476Y-48238152D01*
X36440476Y-48238152D02*
X36535714Y-48238152D01*
X36773810Y-48238152D02*
X37011905Y-48904819D01*
X37250000Y-48238152D02*
X37011905Y-48904819D01*
X37011905Y-48904819D02*
X36916667Y-49142914D01*
X36916667Y-49142914D02*
X36869048Y-49190533D01*
X36869048Y-49190533D02*
X36773810Y-49238152D01*
X49753333Y-63454819D02*
X49420000Y-62978628D01*
X49181905Y-63454819D02*
X49181905Y-62454819D01*
X49181905Y-62454819D02*
X49562857Y-62454819D01*
X49562857Y-62454819D02*
X49658095Y-62502438D01*
X49658095Y-62502438D02*
X49705714Y-62550057D01*
X49705714Y-62550057D02*
X49753333Y-62645295D01*
X49753333Y-62645295D02*
X49753333Y-62788152D01*
X49753333Y-62788152D02*
X49705714Y-62883390D01*
X49705714Y-62883390D02*
X49658095Y-62931009D01*
X49658095Y-62931009D02*
X49562857Y-62978628D01*
X49562857Y-62978628D02*
X49181905Y-62978628D01*
X50658095Y-62454819D02*
X50181905Y-62454819D01*
X50181905Y-62454819D02*
X50134286Y-62931009D01*
X50134286Y-62931009D02*
X50181905Y-62883390D01*
X50181905Y-62883390D02*
X50277143Y-62835771D01*
X50277143Y-62835771D02*
X50515238Y-62835771D01*
X50515238Y-62835771D02*
X50610476Y-62883390D01*
X50610476Y-62883390D02*
X50658095Y-62931009D01*
X50658095Y-62931009D02*
X50705714Y-63026247D01*
X50705714Y-63026247D02*
X50705714Y-63264342D01*
X50705714Y-63264342D02*
X50658095Y-63359580D01*
X50658095Y-63359580D02*
X50610476Y-63407200D01*
X50610476Y-63407200D02*
X50515238Y-63454819D01*
X50515238Y-63454819D02*
X50277143Y-63454819D01*
X50277143Y-63454819D02*
X50181905Y-63407200D01*
X50181905Y-63407200D02*
X50134286Y-63359580D01*
X52954819Y-42666666D02*
X52478628Y-42999999D01*
X52954819Y-43238094D02*
X51954819Y-43238094D01*
X51954819Y-43238094D02*
X51954819Y-42857142D01*
X51954819Y-42857142D02*
X52002438Y-42761904D01*
X52002438Y-42761904D02*
X52050057Y-42714285D01*
X52050057Y-42714285D02*
X52145295Y-42666666D01*
X52145295Y-42666666D02*
X52288152Y-42666666D01*
X52288152Y-42666666D02*
X52383390Y-42714285D01*
X52383390Y-42714285D02*
X52431009Y-42761904D01*
X52431009Y-42761904D02*
X52478628Y-42857142D01*
X52478628Y-42857142D02*
X52478628Y-43238094D01*
X52050057Y-42285713D02*
X52002438Y-42238094D01*
X52002438Y-42238094D02*
X51954819Y-42142856D01*
X51954819Y-42142856D02*
X51954819Y-41904761D01*
X51954819Y-41904761D02*
X52002438Y-41809523D01*
X52002438Y-41809523D02*
X52050057Y-41761904D01*
X52050057Y-41761904D02*
X52145295Y-41714285D01*
X52145295Y-41714285D02*
X52240533Y-41714285D01*
X52240533Y-41714285D02*
X52383390Y-41761904D01*
X52383390Y-41761904D02*
X52954819Y-42333332D01*
X52954819Y-42333332D02*
X52954819Y-41714285D01*
X63500000Y-75954819D02*
X63500000Y-74954819D01*
X63928571Y-75050057D02*
X63976190Y-75002438D01*
X63976190Y-75002438D02*
X64071428Y-74954819D01*
X64071428Y-74954819D02*
X64309523Y-74954819D01*
X64309523Y-74954819D02*
X64404761Y-75002438D01*
X64404761Y-75002438D02*
X64452380Y-75050057D01*
X64452380Y-75050057D02*
X64499999Y-75145295D01*
X64499999Y-75145295D02*
X64499999Y-75240533D01*
X64499999Y-75240533D02*
X64452380Y-75383390D01*
X64452380Y-75383390D02*
X63880952Y-75954819D01*
X63880952Y-75954819D02*
X64499999Y-75954819D01*
X65499999Y-75859580D02*
X65452380Y-75907200D01*
X65452380Y-75907200D02*
X65309523Y-75954819D01*
X65309523Y-75954819D02*
X65214285Y-75954819D01*
X65214285Y-75954819D02*
X65071428Y-75907200D01*
X65071428Y-75907200D02*
X64976190Y-75811961D01*
X64976190Y-75811961D02*
X64928571Y-75716723D01*
X64928571Y-75716723D02*
X64880952Y-75526247D01*
X64880952Y-75526247D02*
X64880952Y-75383390D01*
X64880952Y-75383390D02*
X64928571Y-75192914D01*
X64928571Y-75192914D02*
X64976190Y-75097676D01*
X64976190Y-75097676D02*
X65071428Y-75002438D01*
X65071428Y-75002438D02*
X65214285Y-74954819D01*
X65214285Y-74954819D02*
X65309523Y-74954819D01*
X65309523Y-74954819D02*
X65452380Y-75002438D01*
X65452380Y-75002438D02*
X65499999Y-75050057D01*
X66690476Y-75954819D02*
X66690476Y-74954819D01*
X66690476Y-74954819D02*
X66928571Y-74954819D01*
X66928571Y-74954819D02*
X67071428Y-75002438D01*
X67071428Y-75002438D02*
X67166666Y-75097676D01*
X67166666Y-75097676D02*
X67214285Y-75192914D01*
X67214285Y-75192914D02*
X67261904Y-75383390D01*
X67261904Y-75383390D02*
X67261904Y-75526247D01*
X67261904Y-75526247D02*
X67214285Y-75716723D01*
X67214285Y-75716723D02*
X67166666Y-75811961D01*
X67166666Y-75811961D02*
X67071428Y-75907200D01*
X67071428Y-75907200D02*
X66928571Y-75954819D01*
X66928571Y-75954819D02*
X66690476Y-75954819D01*
X67595238Y-74954819D02*
X68214285Y-74954819D01*
X68214285Y-74954819D02*
X67880952Y-75335771D01*
X67880952Y-75335771D02*
X68023809Y-75335771D01*
X68023809Y-75335771D02*
X68119047Y-75383390D01*
X68119047Y-75383390D02*
X68166666Y-75431009D01*
X68166666Y-75431009D02*
X68214285Y-75526247D01*
X68214285Y-75526247D02*
X68214285Y-75764342D01*
X68214285Y-75764342D02*
X68166666Y-75859580D01*
X68166666Y-75859580D02*
X68119047Y-75907200D01*
X68119047Y-75907200D02*
X68023809Y-75954819D01*
X68023809Y-75954819D02*
X67738095Y-75954819D01*
X67738095Y-75954819D02*
X67642857Y-75907200D01*
X67642857Y-75907200D02*
X67595238Y-75859580D01*
X68642857Y-75573866D02*
X69404762Y-75573866D01*
X69880952Y-75288152D02*
X69880952Y-76288152D01*
X69880952Y-75335771D02*
X69976190Y-75288152D01*
X69976190Y-75288152D02*
X70166666Y-75288152D01*
X70166666Y-75288152D02*
X70261904Y-75335771D01*
X70261904Y-75335771D02*
X70309523Y-75383390D01*
X70309523Y-75383390D02*
X70357142Y-75478628D01*
X70357142Y-75478628D02*
X70357142Y-75764342D01*
X70357142Y-75764342D02*
X70309523Y-75859580D01*
X70309523Y-75859580D02*
X70261904Y-75907200D01*
X70261904Y-75907200D02*
X70166666Y-75954819D01*
X70166666Y-75954819D02*
X69976190Y-75954819D01*
X69976190Y-75954819D02*
X69880952Y-75907200D01*
X70928571Y-75954819D02*
X70833333Y-75907200D01*
X70833333Y-75907200D02*
X70785714Y-75859580D01*
X70785714Y-75859580D02*
X70738095Y-75764342D01*
X70738095Y-75764342D02*
X70738095Y-75478628D01*
X70738095Y-75478628D02*
X70785714Y-75383390D01*
X70785714Y-75383390D02*
X70833333Y-75335771D01*
X70833333Y-75335771D02*
X70928571Y-75288152D01*
X70928571Y-75288152D02*
X71071428Y-75288152D01*
X71071428Y-75288152D02*
X71166666Y-75335771D01*
X71166666Y-75335771D02*
X71214285Y-75383390D01*
X71214285Y-75383390D02*
X71261904Y-75478628D01*
X71261904Y-75478628D02*
X71261904Y-75764342D01*
X71261904Y-75764342D02*
X71214285Y-75859580D01*
X71214285Y-75859580D02*
X71166666Y-75907200D01*
X71166666Y-75907200D02*
X71071428Y-75954819D01*
X71071428Y-75954819D02*
X70928571Y-75954819D01*
X71595238Y-75288152D02*
X71785714Y-75954819D01*
X71785714Y-75954819D02*
X71976190Y-75478628D01*
X71976190Y-75478628D02*
X72166666Y-75954819D01*
X72166666Y-75954819D02*
X72357142Y-75288152D01*
X73119047Y-75907200D02*
X73023809Y-75954819D01*
X73023809Y-75954819D02*
X72833333Y-75954819D01*
X72833333Y-75954819D02*
X72738095Y-75907200D01*
X72738095Y-75907200D02*
X72690476Y-75811961D01*
X72690476Y-75811961D02*
X72690476Y-75431009D01*
X72690476Y-75431009D02*
X72738095Y-75335771D01*
X72738095Y-75335771D02*
X72833333Y-75288152D01*
X72833333Y-75288152D02*
X73023809Y-75288152D01*
X73023809Y-75288152D02*
X73119047Y-75335771D01*
X73119047Y-75335771D02*
X73166666Y-75431009D01*
X73166666Y-75431009D02*
X73166666Y-75526247D01*
X73166666Y-75526247D02*
X72690476Y-75621485D01*
X73595238Y-75954819D02*
X73595238Y-75288152D01*
X73595238Y-75478628D02*
X73642857Y-75383390D01*
X73642857Y-75383390D02*
X73690476Y-75335771D01*
X73690476Y-75335771D02*
X73785714Y-75288152D01*
X73785714Y-75288152D02*
X73880952Y-75288152D01*
X74595238Y-75907200D02*
X74500000Y-75954819D01*
X74500000Y-75954819D02*
X74309524Y-75954819D01*
X74309524Y-75954819D02*
X74214286Y-75907200D01*
X74214286Y-75907200D02*
X74166667Y-75811961D01*
X74166667Y-75811961D02*
X74166667Y-75431009D01*
X74166667Y-75431009D02*
X74214286Y-75335771D01*
X74214286Y-75335771D02*
X74309524Y-75288152D01*
X74309524Y-75288152D02*
X74500000Y-75288152D01*
X74500000Y-75288152D02*
X74595238Y-75335771D01*
X74595238Y-75335771D02*
X74642857Y-75431009D01*
X74642857Y-75431009D02*
X74642857Y-75526247D01*
X74642857Y-75526247D02*
X74166667Y-75621485D01*
X75500000Y-75954819D02*
X75500000Y-74954819D01*
X75500000Y-75907200D02*
X75404762Y-75954819D01*
X75404762Y-75954819D02*
X75214286Y-75954819D01*
X75214286Y-75954819D02*
X75119048Y-75907200D01*
X75119048Y-75907200D02*
X75071429Y-75859580D01*
X75071429Y-75859580D02*
X75023810Y-75764342D01*
X75023810Y-75764342D02*
X75023810Y-75478628D01*
X75023810Y-75478628D02*
X75071429Y-75383390D01*
X75071429Y-75383390D02*
X75119048Y-75335771D01*
X75119048Y-75335771D02*
X75214286Y-75288152D01*
X75214286Y-75288152D02*
X75404762Y-75288152D01*
X75404762Y-75288152D02*
X75500000Y-75335771D01*
X49753333Y-59954819D02*
X49420000Y-59478628D01*
X49181905Y-59954819D02*
X49181905Y-58954819D01*
X49181905Y-58954819D02*
X49562857Y-58954819D01*
X49562857Y-58954819D02*
X49658095Y-59002438D01*
X49658095Y-59002438D02*
X49705714Y-59050057D01*
X49705714Y-59050057D02*
X49753333Y-59145295D01*
X49753333Y-59145295D02*
X49753333Y-59288152D01*
X49753333Y-59288152D02*
X49705714Y-59383390D01*
X49705714Y-59383390D02*
X49658095Y-59431009D01*
X49658095Y-59431009D02*
X49562857Y-59478628D01*
X49562857Y-59478628D02*
X49181905Y-59478628D01*
X50610476Y-58954819D02*
X50420000Y-58954819D01*
X50420000Y-58954819D02*
X50324762Y-59002438D01*
X50324762Y-59002438D02*
X50277143Y-59050057D01*
X50277143Y-59050057D02*
X50181905Y-59192914D01*
X50181905Y-59192914D02*
X50134286Y-59383390D01*
X50134286Y-59383390D02*
X50134286Y-59764342D01*
X50134286Y-59764342D02*
X50181905Y-59859580D01*
X50181905Y-59859580D02*
X50229524Y-59907200D01*
X50229524Y-59907200D02*
X50324762Y-59954819D01*
X50324762Y-59954819D02*
X50515238Y-59954819D01*
X50515238Y-59954819D02*
X50610476Y-59907200D01*
X50610476Y-59907200D02*
X50658095Y-59859580D01*
X50658095Y-59859580D02*
X50705714Y-59764342D01*
X50705714Y-59764342D02*
X50705714Y-59526247D01*
X50705714Y-59526247D02*
X50658095Y-59431009D01*
X50658095Y-59431009D02*
X50610476Y-59383390D01*
X50610476Y-59383390D02*
X50515238Y-59335771D01*
X50515238Y-59335771D02*
X50324762Y-59335771D01*
X50324762Y-59335771D02*
X50229524Y-59383390D01*
X50229524Y-59383390D02*
X50181905Y-59431009D01*
X50181905Y-59431009D02*
X50134286Y-59526247D01*
X38954819Y-81738094D02*
X37954819Y-81738094D01*
X37954819Y-81738094D02*
X37954819Y-81499999D01*
X37954819Y-81499999D02*
X38002438Y-81357142D01*
X38002438Y-81357142D02*
X38097676Y-81261904D01*
X38097676Y-81261904D02*
X38192914Y-81214285D01*
X38192914Y-81214285D02*
X38383390Y-81166666D01*
X38383390Y-81166666D02*
X38526247Y-81166666D01*
X38526247Y-81166666D02*
X38716723Y-81214285D01*
X38716723Y-81214285D02*
X38811961Y-81261904D01*
X38811961Y-81261904D02*
X38907200Y-81357142D01*
X38907200Y-81357142D02*
X38954819Y-81499999D01*
X38954819Y-81499999D02*
X38954819Y-81738094D01*
X38954819Y-80214285D02*
X38954819Y-80785713D01*
X38954819Y-80499999D02*
X37954819Y-80499999D01*
X37954819Y-80499999D02*
X38097676Y-80595237D01*
X38097676Y-80595237D02*
X38192914Y-80690475D01*
X38192914Y-80690475D02*
X38240533Y-80785713D01*
X36854819Y-86341904D02*
X35854819Y-86341904D01*
X36854819Y-85770476D02*
X36283390Y-86199047D01*
X35854819Y-85770476D02*
X36426247Y-86341904D01*
D13*
%TO.C,R3*%
X45880000Y-70000000D02*
X46650000Y-70000000D01*
X53960000Y-70000000D02*
X53190000Y-70000000D01*
X53190000Y-71370000D02*
X46650000Y-71370000D01*
X46650000Y-68630000D01*
X53190000Y-68630000D01*
X53190000Y-71370000D01*
%TO.C,I2C*%
X63150000Y-76750000D02*
X63150000Y-78000000D01*
X63450000Y-79300000D02*
X64200000Y-79300000D01*
X64200000Y-79300000D02*
X64200000Y-82250000D01*
X64200000Y-82250000D02*
X69750000Y-82250000D01*
X64400000Y-76750000D02*
X63150000Y-76750000D01*
X75300000Y-79300000D02*
X75300000Y-82250000D01*
X75300000Y-82250000D02*
X69750000Y-82250000D01*
X76050000Y-79300000D02*
X75300000Y-79300000D01*
X63440000Y-77040000D02*
X76060000Y-77040000D01*
X76060000Y-83010000D01*
X63440000Y-83010000D01*
X63440000Y-77040000D01*
X63450000Y-77050000D02*
X65250000Y-77050000D01*
X65250000Y-77800000D01*
X63450000Y-77800000D01*
X63450000Y-77050000D01*
X66750000Y-77050000D02*
X72750000Y-77050000D01*
X72750000Y-77800000D01*
X66750000Y-77800000D01*
X66750000Y-77050000D01*
X74250000Y-77050000D02*
X76050000Y-77050000D01*
X76050000Y-77800000D01*
X74250000Y-77800000D01*
X74250000Y-77050000D01*
%TO.C,I2C D2-powered*%
X63150000Y-59750000D02*
X63150000Y-61000000D01*
X63450000Y-62300000D02*
X64200000Y-62300000D01*
X64200000Y-62300000D02*
X64200000Y-65250000D01*
X64200000Y-65250000D02*
X69750000Y-65250000D01*
X64400000Y-59750000D02*
X63150000Y-59750000D01*
X75300000Y-62300000D02*
X75300000Y-65250000D01*
X75300000Y-65250000D02*
X69750000Y-65250000D01*
X76050000Y-62300000D02*
X75300000Y-62300000D01*
X63440000Y-60040000D02*
X76060000Y-60040000D01*
X76060000Y-66010000D01*
X63440000Y-66010000D01*
X63440000Y-60040000D01*
X63450000Y-60050000D02*
X65250000Y-60050000D01*
X65250000Y-60800000D01*
X63450000Y-60800000D01*
X63450000Y-60050000D01*
X66750000Y-60050000D02*
X72750000Y-60050000D01*
X72750000Y-60800000D01*
X66750000Y-60800000D01*
X66750000Y-60050000D01*
X74250000Y-60050000D02*
X76050000Y-60050000D01*
X76050000Y-60800000D01*
X74250000Y-60800000D01*
X74250000Y-60050000D01*
%TO.C,Pump*%
X52150000Y-80250000D02*
X52150000Y-81500000D01*
X52450000Y-82800000D02*
X53200000Y-82800000D01*
X53200000Y-82800000D02*
X53200000Y-85750000D01*
X53200000Y-85750000D02*
X56250000Y-85750000D01*
X53400000Y-80250000D02*
X52150000Y-80250000D01*
X59300000Y-82800000D02*
X59300000Y-85750000D01*
X59300000Y-85750000D02*
X56250000Y-85750000D01*
X60050000Y-82800000D02*
X59300000Y-82800000D01*
X52440000Y-80540000D02*
X60060000Y-80540000D01*
X60060000Y-86510000D01*
X52440000Y-86510000D01*
X52440000Y-80540000D01*
X52450000Y-80550000D02*
X54250000Y-80550000D01*
X54250000Y-81300000D01*
X52450000Y-81300000D01*
X52450000Y-80550000D01*
X55750000Y-80550000D02*
X56750000Y-80550000D01*
X56750000Y-81300000D01*
X55750000Y-81300000D01*
X55750000Y-80550000D01*
X58250000Y-80550000D02*
X60050000Y-80550000D01*
X60050000Y-81300000D01*
X58250000Y-81300000D01*
X58250000Y-80550000D01*
%TO.C,Q1*%
X44890000Y-73190000D02*
X55110000Y-73190000D01*
X44890000Y-74570000D02*
X55110000Y-74570000D01*
X44890000Y-77810000D02*
X44890000Y-73190000D01*
X48150000Y-73190000D02*
X48150000Y-74570000D01*
X51850000Y-73190000D02*
X51850000Y-74570000D01*
X55110000Y-73190000D02*
X55110000Y-77810000D01*
X55110000Y-77810000D02*
X44890000Y-77810000D01*
%TO.C,C3*%
X42340302Y-81185000D02*
X43140302Y-81185000D01*
X42740302Y-80785000D02*
X42740302Y-81585000D01*
X46750000Y-79420000D02*
X46750000Y-87580000D01*
X46790000Y-79420000D02*
X46790000Y-87580000D01*
X46830000Y-79421000D02*
X46830000Y-87579000D01*
X46870000Y-79422000D02*
X46870000Y-87578000D01*
X46910000Y-79423000D02*
X46910000Y-87577000D01*
X46950000Y-79425000D02*
X46950000Y-87575000D01*
X46990000Y-79427000D02*
X46990000Y-87573000D01*
X47030000Y-79430000D02*
X47030000Y-87570000D01*
X47070000Y-79432000D02*
X47070000Y-87568000D01*
X47110000Y-79436000D02*
X47110000Y-87564000D01*
X47150000Y-79439000D02*
X47150000Y-87561000D01*
X47190000Y-79444000D02*
X47190000Y-87556000D01*
X47230000Y-79448000D02*
X47230000Y-87552000D01*
X47270000Y-79453000D02*
X47270000Y-87547000D01*
X47310000Y-79458000D02*
X47310000Y-87542000D01*
X47350000Y-79464000D02*
X47350000Y-87536000D01*
X47390000Y-79470000D02*
X47390000Y-87530000D01*
X47430000Y-79477000D02*
X47430000Y-87523000D01*
X47470000Y-79483000D02*
X47470000Y-82460000D01*
X47470000Y-84540000D02*
X47470000Y-87517000D01*
X47510000Y-79491000D02*
X47510000Y-82460000D01*
X47510000Y-84540000D02*
X47510000Y-87509000D01*
X47550000Y-79498000D02*
X47550000Y-82460000D01*
X47550000Y-84540000D02*
X47550000Y-87502000D01*
X47590000Y-79507000D02*
X47590000Y-82460000D01*
X47590000Y-84540000D02*
X47590000Y-87493000D01*
X47630000Y-79515000D02*
X47630000Y-82460000D01*
X47630000Y-84540000D02*
X47630000Y-87485000D01*
X47670000Y-79524000D02*
X47670000Y-82460000D01*
X47670000Y-84540000D02*
X47670000Y-87476000D01*
X47710000Y-79533000D02*
X47710000Y-82460000D01*
X47710000Y-84540000D02*
X47710000Y-87467000D01*
X47750000Y-79543000D02*
X47750000Y-82460000D01*
X47750000Y-84540000D02*
X47750000Y-87457000D01*
X47790000Y-79553000D02*
X47790000Y-82460000D01*
X47790000Y-84540000D02*
X47790000Y-87447000D01*
X47830000Y-79564000D02*
X47830000Y-82460000D01*
X47830000Y-84540000D02*
X47830000Y-87436000D01*
X47870000Y-79575000D02*
X47870000Y-82460000D01*
X47870000Y-84540000D02*
X47870000Y-87425000D01*
X47910000Y-79587000D02*
X47910000Y-82460000D01*
X47910000Y-84540000D02*
X47910000Y-87413000D01*
X47950000Y-79599000D02*
X47950000Y-82460000D01*
X47950000Y-84540000D02*
X47950000Y-87401000D01*
X47990000Y-79611000D02*
X47990000Y-82460000D01*
X47990000Y-84540000D02*
X47990000Y-87389000D01*
X48030000Y-79624000D02*
X48030000Y-82460000D01*
X48030000Y-84540000D02*
X48030000Y-87376000D01*
X48070000Y-79637000D02*
X48070000Y-82460000D01*
X48070000Y-84540000D02*
X48070000Y-87363000D01*
X48110000Y-79651000D02*
X48110000Y-82460000D01*
X48110000Y-84540000D02*
X48110000Y-87349000D01*
X48150000Y-79665000D02*
X48150000Y-82460000D01*
X48150000Y-84540000D02*
X48150000Y-87335000D01*
X48190000Y-79680000D02*
X48190000Y-82460000D01*
X48190000Y-84540000D02*
X48190000Y-87320000D01*
X48230000Y-79695000D02*
X48230000Y-82460000D01*
X48230000Y-84540000D02*
X48230000Y-87305000D01*
X48270000Y-79711000D02*
X48270000Y-82460000D01*
X48270000Y-84540000D02*
X48270000Y-87289000D01*
X48310000Y-79727000D02*
X48310000Y-82460000D01*
X48310000Y-84540000D02*
X48310000Y-87273000D01*
X48350000Y-79743000D02*
X48350000Y-82460000D01*
X48350000Y-84540000D02*
X48350000Y-87257000D01*
X48390000Y-79760000D02*
X48390000Y-82460000D01*
X48390000Y-84540000D02*
X48390000Y-87240000D01*
X48430000Y-79778000D02*
X48430000Y-82460000D01*
X48430000Y-84540000D02*
X48430000Y-87222000D01*
X48470000Y-79796000D02*
X48470000Y-82460000D01*
X48470000Y-84540000D02*
X48470000Y-87204000D01*
X48510000Y-79815000D02*
X48510000Y-82460000D01*
X48510000Y-84540000D02*
X48510000Y-87185000D01*
X48550000Y-79834000D02*
X48550000Y-82460000D01*
X48550000Y-84540000D02*
X48550000Y-87166000D01*
X48590000Y-79854000D02*
X48590000Y-82460000D01*
X48590000Y-84540000D02*
X48590000Y-87146000D01*
X48630000Y-79874000D02*
X48630000Y-82460000D01*
X48630000Y-84540000D02*
X48630000Y-87126000D01*
X48670000Y-79895000D02*
X48670000Y-82460000D01*
X48670000Y-84540000D02*
X48670000Y-87105000D01*
X48710000Y-79916000D02*
X48710000Y-82460000D01*
X48710000Y-84540000D02*
X48710000Y-87084000D01*
X48750000Y-79938000D02*
X48750000Y-82460000D01*
X48750000Y-84540000D02*
X48750000Y-87062000D01*
X48790000Y-79961000D02*
X48790000Y-82460000D01*
X48790000Y-84540000D02*
X48790000Y-87039000D01*
X48830000Y-79984000D02*
X48830000Y-82460000D01*
X48830000Y-84540000D02*
X48830000Y-87016000D01*
X48870000Y-80007000D02*
X48870000Y-82460000D01*
X48870000Y-84540000D02*
X48870000Y-86993000D01*
X48910000Y-80032000D02*
X48910000Y-82460000D01*
X48910000Y-84540000D02*
X48910000Y-86968000D01*
X48950000Y-80057000D02*
X48950000Y-82460000D01*
X48950000Y-84540000D02*
X48950000Y-86943000D01*
X48990000Y-80082000D02*
X48990000Y-82460000D01*
X48990000Y-84540000D02*
X48990000Y-86918000D01*
X49030000Y-80108000D02*
X49030000Y-82460000D01*
X49030000Y-84540000D02*
X49030000Y-86892000D01*
X49070000Y-80135000D02*
X49070000Y-82460000D01*
X49070000Y-84540000D02*
X49070000Y-86865000D01*
X49110000Y-80163000D02*
X49110000Y-82460000D01*
X49110000Y-84540000D02*
X49110000Y-86837000D01*
X49150000Y-80191000D02*
X49150000Y-82460000D01*
X49150000Y-84540000D02*
X49150000Y-86809000D01*
X49190000Y-80220000D02*
X49190000Y-82460000D01*
X49190000Y-84540000D02*
X49190000Y-86780000D01*
X49230000Y-80250000D02*
X49230000Y-82460000D01*
X49230000Y-84540000D02*
X49230000Y-86750000D01*
X49270000Y-80281000D02*
X49270000Y-82460000D01*
X49270000Y-84540000D02*
X49270000Y-86719000D01*
X49310000Y-80312000D02*
X49310000Y-82460000D01*
X49310000Y-84540000D02*
X49310000Y-86688000D01*
X49350000Y-80344000D02*
X49350000Y-82460000D01*
X49350000Y-84540000D02*
X49350000Y-86656000D01*
X49390000Y-80377000D02*
X49390000Y-82460000D01*
X49390000Y-84540000D02*
X49390000Y-86623000D01*
X49430000Y-80411000D02*
X49430000Y-82460000D01*
X49430000Y-84540000D02*
X49430000Y-86589000D01*
X49470000Y-80445000D02*
X49470000Y-82460000D01*
X49470000Y-84540000D02*
X49470000Y-86555000D01*
X49510000Y-80481000D02*
X49510000Y-82460000D01*
X49510000Y-84540000D02*
X49510000Y-86519000D01*
X49550000Y-80518000D02*
X49550000Y-86482000D01*
X49590000Y-80555000D02*
X49590000Y-86445000D01*
X49630000Y-80594000D02*
X49630000Y-86406000D01*
X49670000Y-80633000D02*
X49670000Y-86367000D01*
X49710000Y-80674000D02*
X49710000Y-86326000D01*
X49750000Y-80716000D02*
X49750000Y-86284000D01*
X49790000Y-80759000D02*
X49790000Y-86241000D01*
X49830000Y-80804000D02*
X49830000Y-86196000D01*
X49870000Y-80849000D02*
X49870000Y-86151000D01*
X49910000Y-80896000D02*
X49910000Y-86104000D01*
X49950000Y-80945000D02*
X49950000Y-86055000D01*
X49990000Y-80995000D02*
X49990000Y-86005000D01*
X50030000Y-81047000D02*
X50030000Y-85953000D01*
X50070000Y-81100000D02*
X50070000Y-85900000D01*
X50110000Y-81156000D02*
X50110000Y-85844000D01*
X50150000Y-81213000D02*
X50150000Y-85787000D01*
X50190000Y-81273000D02*
X50190000Y-85727000D01*
X50230000Y-81335000D02*
X50230000Y-85665000D01*
X50270000Y-81399000D02*
X50270000Y-85601000D01*
X50310000Y-81466000D02*
X50310000Y-85534000D01*
X50350000Y-81536000D02*
X50350000Y-85464000D01*
X50390000Y-81610000D02*
X50390000Y-85390000D01*
X50430000Y-81687000D02*
X50430000Y-85313000D01*
X50470000Y-81769000D02*
X50470000Y-85231000D01*
X50510000Y-81856000D02*
X50510000Y-85144000D01*
X50550000Y-81948000D02*
X50550000Y-85052000D01*
X50590000Y-82047000D02*
X50590000Y-84953000D01*
X50630000Y-82154000D02*
X50630000Y-84846000D01*
X50670000Y-82272000D02*
X50670000Y-84728000D01*
X50710000Y-82403000D02*
X50710000Y-84597000D01*
X50750000Y-82553000D02*
X50750000Y-84447000D01*
X50790000Y-82732000D02*
X50790000Y-84268000D01*
X50830000Y-82967000D02*
X50830000Y-84033000D01*
X50870000Y-83500000D02*
G75*
G02*
X42630000Y-83500000I-4120000J0D01*
G01*
X42630000Y-83500000D02*
G75*
G02*
X50870000Y-83500000I4120000J0D01*
G01*
%TO.C,J1*%
X40170000Y-35370000D02*
X40170000Y-55750000D01*
X40170000Y-35370000D02*
X42830000Y-35370000D01*
X40170000Y-55750000D02*
X42830000Y-55750000D01*
X41500000Y-32770000D02*
X42830000Y-32770000D01*
X42830000Y-32770000D02*
X42830000Y-34100000D01*
X42830000Y-35370000D02*
X42830000Y-55750000D01*
%TO.C,I2C*%
X63150000Y-85250000D02*
X63150000Y-86500000D01*
X63450000Y-87800000D02*
X64200000Y-87800000D01*
X64200000Y-87800000D02*
X64200000Y-90750000D01*
X64200000Y-90750000D02*
X69750000Y-90750000D01*
X64400000Y-85250000D02*
X63150000Y-85250000D01*
X75300000Y-87800000D02*
X75300000Y-90750000D01*
X75300000Y-90750000D02*
X69750000Y-90750000D01*
X76050000Y-87800000D02*
X75300000Y-87800000D01*
X63440000Y-85540000D02*
X76060000Y-85540000D01*
X76060000Y-91510000D01*
X63440000Y-91510000D01*
X63440000Y-85540000D01*
X63450000Y-85550000D02*
X65250000Y-85550000D01*
X65250000Y-86300000D01*
X63450000Y-86300000D01*
X63450000Y-85550000D01*
X66750000Y-85550000D02*
X72750000Y-85550000D01*
X72750000Y-86300000D01*
X66750000Y-86300000D01*
X66750000Y-85550000D01*
X74250000Y-85550000D02*
X76050000Y-85550000D01*
X76050000Y-86300000D01*
X74250000Y-86300000D01*
X74250000Y-85550000D01*
%TO.C,J2*%
X65170000Y-35370000D02*
X65170000Y-55750000D01*
X65170000Y-35370000D02*
X67830000Y-35370000D01*
X65170000Y-55750000D02*
X67830000Y-55750000D01*
X66500000Y-32770000D02*
X67830000Y-32770000D01*
X67830000Y-32770000D02*
X67830000Y-34100000D01*
X67830000Y-35370000D02*
X67830000Y-55750000D01*
%TO.C,USB-C*%
X31390000Y-67106667D02*
X31390000Y-68356667D01*
X31690000Y-68716667D02*
X32300000Y-68716667D01*
X31690000Y-70016667D02*
X32300000Y-70016667D01*
X32300000Y-68016667D02*
X32300000Y-71516667D01*
X32300000Y-71516667D02*
X37200000Y-71516667D01*
X32640000Y-67106667D02*
X31390000Y-67106667D01*
X33150000Y-67206667D02*
X33150000Y-67406667D01*
X33450000Y-67206667D02*
X33150000Y-67206667D01*
X33450000Y-67306667D02*
X33150000Y-67306667D01*
X33450000Y-67406667D02*
X33450000Y-67206667D01*
X34250000Y-67406667D02*
X34250000Y-68016667D01*
X34250000Y-68016667D02*
X32300000Y-68016667D01*
X34650000Y-71016667D02*
X34850000Y-71016667D01*
X34650000Y-71516667D02*
X34650000Y-71016667D01*
X34750000Y-71516667D02*
X34750000Y-71016667D01*
X34850000Y-71016667D02*
X34850000Y-71516667D01*
X35250000Y-68016667D02*
X35250000Y-67406667D01*
X37200000Y-68016667D02*
X35250000Y-68016667D01*
X37200000Y-71516667D02*
X37200000Y-68016667D01*
X37810000Y-68716667D02*
X37200000Y-68716667D01*
X37810000Y-70016667D02*
X37200000Y-70016667D01*
X31690000Y-67406667D02*
X37810000Y-67406667D01*
X37810000Y-72126667D01*
X31690000Y-72126667D01*
X31690000Y-67406667D01*
%TO.C,U1*%
X44885000Y-32443000D02*
X63385000Y-32443000D01*
X63385000Y-55943000D01*
X44885000Y-55943000D01*
X44885000Y-32443000D01*
%TO.C,C2*%
X30437651Y-40401667D02*
X31237651Y-40401667D01*
X30837651Y-40001667D02*
X30837651Y-40801667D01*
X34847349Y-38636667D02*
X34847349Y-46796667D01*
X34887349Y-38636667D02*
X34887349Y-46796667D01*
X34927349Y-38637667D02*
X34927349Y-46795667D01*
X34967349Y-38638667D02*
X34967349Y-46794667D01*
X35007349Y-38639667D02*
X35007349Y-46793667D01*
X35047349Y-38641667D02*
X35047349Y-46791667D01*
X35087349Y-38643667D02*
X35087349Y-46789667D01*
X35127349Y-38646667D02*
X35127349Y-46786667D01*
X35167349Y-38648667D02*
X35167349Y-46784667D01*
X35207349Y-38652667D02*
X35207349Y-46780667D01*
X35247349Y-38655667D02*
X35247349Y-46777667D01*
X35287349Y-38660667D02*
X35287349Y-46772667D01*
X35327349Y-38664667D02*
X35327349Y-46768667D01*
X35367349Y-38669667D02*
X35367349Y-46763667D01*
X35407349Y-38674667D02*
X35407349Y-46758667D01*
X35447349Y-38680667D02*
X35447349Y-46752667D01*
X35487349Y-38686667D02*
X35487349Y-46746667D01*
X35527349Y-38693667D02*
X35527349Y-46739667D01*
X35567349Y-38699667D02*
X35567349Y-41676667D01*
X35567349Y-43756667D02*
X35567349Y-46733667D01*
X35607349Y-38707667D02*
X35607349Y-41676667D01*
X35607349Y-43756667D02*
X35607349Y-46725667D01*
X35647349Y-38714667D02*
X35647349Y-41676667D01*
X35647349Y-43756667D02*
X35647349Y-46718667D01*
X35687349Y-38723667D02*
X35687349Y-41676667D01*
X35687349Y-43756667D02*
X35687349Y-46709667D01*
X35727349Y-38731667D02*
X35727349Y-41676667D01*
X35727349Y-43756667D02*
X35727349Y-46701667D01*
X35767349Y-38740667D02*
X35767349Y-41676667D01*
X35767349Y-43756667D02*
X35767349Y-46692667D01*
X35807349Y-38749667D02*
X35807349Y-41676667D01*
X35807349Y-43756667D02*
X35807349Y-46683667D01*
X35847349Y-38759667D02*
X35847349Y-41676667D01*
X35847349Y-43756667D02*
X35847349Y-46673667D01*
X35887349Y-38769667D02*
X35887349Y-41676667D01*
X35887349Y-43756667D02*
X35887349Y-46663667D01*
X35927349Y-38780667D02*
X35927349Y-41676667D01*
X35927349Y-43756667D02*
X35927349Y-46652667D01*
X35967349Y-38791667D02*
X35967349Y-41676667D01*
X35967349Y-43756667D02*
X35967349Y-46641667D01*
X36007349Y-38803667D02*
X36007349Y-41676667D01*
X36007349Y-43756667D02*
X36007349Y-46629667D01*
X36047349Y-38815667D02*
X36047349Y-41676667D01*
X36047349Y-43756667D02*
X36047349Y-46617667D01*
X36087349Y-38827667D02*
X36087349Y-41676667D01*
X36087349Y-43756667D02*
X36087349Y-46605667D01*
X36127349Y-38840667D02*
X36127349Y-41676667D01*
X36127349Y-43756667D02*
X36127349Y-46592667D01*
X36167349Y-38853667D02*
X36167349Y-41676667D01*
X36167349Y-43756667D02*
X36167349Y-46579667D01*
X36207349Y-38867667D02*
X36207349Y-41676667D01*
X36207349Y-43756667D02*
X36207349Y-46565667D01*
X36247349Y-38881667D02*
X36247349Y-41676667D01*
X36247349Y-43756667D02*
X36247349Y-46551667D01*
X36287349Y-38896667D02*
X36287349Y-41676667D01*
X36287349Y-43756667D02*
X36287349Y-46536667D01*
X36327349Y-38911667D02*
X36327349Y-41676667D01*
X36327349Y-43756667D02*
X36327349Y-46521667D01*
X36367349Y-38927667D02*
X36367349Y-41676667D01*
X36367349Y-43756667D02*
X36367349Y-46505667D01*
X36407349Y-38943667D02*
X36407349Y-41676667D01*
X36407349Y-43756667D02*
X36407349Y-46489667D01*
X36447349Y-38959667D02*
X36447349Y-41676667D01*
X36447349Y-43756667D02*
X36447349Y-46473667D01*
X36487349Y-38976667D02*
X36487349Y-41676667D01*
X36487349Y-43756667D02*
X36487349Y-46456667D01*
X36527349Y-38994667D02*
X36527349Y-41676667D01*
X36527349Y-43756667D02*
X36527349Y-46438667D01*
X36567349Y-39012667D02*
X36567349Y-41676667D01*
X36567349Y-43756667D02*
X36567349Y-46420667D01*
X36607349Y-39031667D02*
X36607349Y-41676667D01*
X36607349Y-43756667D02*
X36607349Y-46401667D01*
X36647349Y-39050667D02*
X36647349Y-41676667D01*
X36647349Y-43756667D02*
X36647349Y-46382667D01*
X36687349Y-39070667D02*
X36687349Y-41676667D01*
X36687349Y-43756667D02*
X36687349Y-46362667D01*
X36727349Y-39090667D02*
X36727349Y-41676667D01*
X36727349Y-43756667D02*
X36727349Y-46342667D01*
X36767349Y-39111667D02*
X36767349Y-41676667D01*
X36767349Y-43756667D02*
X36767349Y-46321667D01*
X36807349Y-39132667D02*
X36807349Y-41676667D01*
X36807349Y-43756667D02*
X36807349Y-46300667D01*
X36847349Y-39154667D02*
X36847349Y-41676667D01*
X36847349Y-43756667D02*
X36847349Y-46278667D01*
X36887349Y-39177667D02*
X36887349Y-41676667D01*
X36887349Y-43756667D02*
X36887349Y-46255667D01*
X36927349Y-39200667D02*
X36927349Y-41676667D01*
X36927349Y-43756667D02*
X36927349Y-46232667D01*
X36967349Y-39223667D02*
X36967349Y-41676667D01*
X36967349Y-43756667D02*
X36967349Y-46209667D01*
X37007349Y-39248667D02*
X37007349Y-41676667D01*
X37007349Y-43756667D02*
X37007349Y-46184667D01*
X37047349Y-39273667D02*
X37047349Y-41676667D01*
X37047349Y-43756667D02*
X37047349Y-46159667D01*
X37087349Y-39298667D02*
X37087349Y-41676667D01*
X37087349Y-43756667D02*
X37087349Y-46134667D01*
X37127349Y-39324667D02*
X37127349Y-41676667D01*
X37127349Y-43756667D02*
X37127349Y-46108667D01*
X37167349Y-39351667D02*
X37167349Y-41676667D01*
X37167349Y-43756667D02*
X37167349Y-46081667D01*
X37207349Y-39379667D02*
X37207349Y-41676667D01*
X37207349Y-43756667D02*
X37207349Y-46053667D01*
X37247349Y-39407667D02*
X37247349Y-41676667D01*
X37247349Y-43756667D02*
X37247349Y-46025667D01*
X37287349Y-39436667D02*
X37287349Y-41676667D01*
X37287349Y-43756667D02*
X37287349Y-45996667D01*
X37327349Y-39466667D02*
X37327349Y-41676667D01*
X37327349Y-43756667D02*
X37327349Y-45966667D01*
X37367349Y-39497667D02*
X37367349Y-41676667D01*
X37367349Y-43756667D02*
X37367349Y-45935667D01*
X37407349Y-39528667D02*
X37407349Y-41676667D01*
X37407349Y-43756667D02*
X37407349Y-45904667D01*
X37447349Y-39560667D02*
X37447349Y-41676667D01*
X37447349Y-43756667D02*
X37447349Y-45872667D01*
X37487349Y-39593667D02*
X37487349Y-41676667D01*
X37487349Y-43756667D02*
X37487349Y-45839667D01*
X37527349Y-39627667D02*
X37527349Y-41676667D01*
X37527349Y-43756667D02*
X37527349Y-45805667D01*
X37567349Y-39661667D02*
X37567349Y-41676667D01*
X37567349Y-43756667D02*
X37567349Y-45771667D01*
X37607349Y-39697667D02*
X37607349Y-41676667D01*
X37607349Y-43756667D02*
X37607349Y-45735667D01*
X37647349Y-39734667D02*
X37647349Y-45698667D01*
X37687349Y-39771667D02*
X37687349Y-45661667D01*
X37727349Y-39810667D02*
X37727349Y-45622667D01*
X37767349Y-39849667D02*
X37767349Y-45583667D01*
X37807349Y-39890667D02*
X37807349Y-45542667D01*
X37847349Y-39932667D02*
X37847349Y-45500667D01*
X37887349Y-39975667D02*
X37887349Y-45457667D01*
X37927349Y-40020667D02*
X37927349Y-45412667D01*
X37967349Y-40065667D02*
X37967349Y-45367667D01*
X38007349Y-40112667D02*
X38007349Y-45320667D01*
X38047349Y-40161667D02*
X38047349Y-45271667D01*
X38087349Y-40211667D02*
X38087349Y-45221667D01*
X38127349Y-40263667D02*
X38127349Y-45169667D01*
X38167349Y-40316667D02*
X38167349Y-45116667D01*
X38207349Y-40372667D02*
X38207349Y-45060667D01*
X38247349Y-40429667D02*
X38247349Y-45003667D01*
X38287349Y-40489667D02*
X38287349Y-44943667D01*
X38327349Y-40551667D02*
X38327349Y-44881667D01*
X38367349Y-40615667D02*
X38367349Y-44817667D01*
X38407349Y-40682667D02*
X38407349Y-44750667D01*
X38447349Y-40752667D02*
X38447349Y-44680667D01*
X38487349Y-40826667D02*
X38487349Y-44606667D01*
X38527349Y-40903667D02*
X38527349Y-44529667D01*
X38567349Y-40985667D02*
X38567349Y-44447667D01*
X38607349Y-41072667D02*
X38607349Y-44360667D01*
X38647349Y-41164667D02*
X38647349Y-44268667D01*
X38687349Y-41263667D02*
X38687349Y-44169667D01*
X38727349Y-41370667D02*
X38727349Y-44062667D01*
X38767349Y-41488667D02*
X38767349Y-43944667D01*
X38807349Y-41619667D02*
X38807349Y-43813667D01*
X38847349Y-41769667D02*
X38847349Y-43663667D01*
X38887349Y-41948667D02*
X38887349Y-43484667D01*
X38927349Y-42183667D02*
X38927349Y-43249667D01*
X38967349Y-42716667D02*
G75*
G02*
X30727349Y-42716667I-4120000J0D01*
G01*
X30727349Y-42716667D02*
G75*
G02*
X38967349Y-42716667I4120000J0D01*
G01*
%TO.C,Moisture*%
X70250000Y-52600000D02*
X70250000Y-53850000D01*
X70250000Y-53850000D02*
X71500000Y-53850000D01*
X72800000Y-43450000D02*
X72800000Y-44200000D01*
X72800000Y-44200000D02*
X75750000Y-44200000D01*
X72800000Y-52800000D02*
X75750000Y-52800000D01*
X72800000Y-53550000D02*
X72800000Y-52800000D01*
X75750000Y-44200000D02*
X75750000Y-48500000D01*
X75750000Y-52800000D02*
X75750000Y-48500000D01*
X70540000Y-53560000D02*
X76510000Y-53560000D01*
X76510000Y-43440000D01*
X70540000Y-43440000D01*
X70540000Y-53560000D01*
X70550000Y-45250000D02*
X71300000Y-45250000D01*
X71300000Y-43450000D01*
X70550000Y-43450000D01*
X70550000Y-45250000D01*
X70550000Y-50250000D02*
X71300000Y-50250000D01*
X71300000Y-46750000D01*
X70550000Y-46750000D01*
X70550000Y-50250000D01*
X70550000Y-53550000D02*
X71300000Y-53550000D01*
X71300000Y-51750000D01*
X70550000Y-51750000D01*
X70550000Y-53550000D01*
%TO.C,D2*%
X32530000Y-82620000D02*
X35470000Y-82620000D01*
X32530000Y-82740000D02*
X35470000Y-82740000D01*
X32530000Y-82860000D02*
X35470000Y-82860000D01*
X34000000Y-77180000D02*
X34000000Y-78200000D01*
X34000000Y-84660000D02*
X34000000Y-83640000D01*
X32530000Y-83640000D02*
X35470000Y-83640000D01*
X35470000Y-78200000D01*
X32530000Y-78200000D01*
X32530000Y-83640000D01*
%TO.C,R1*%
X55800000Y-38460000D02*
X55800000Y-39230000D01*
X55800000Y-46540000D02*
X55800000Y-45770000D01*
X57170000Y-39230000D02*
X54430000Y-39230000D01*
X54430000Y-45770000D01*
X57170000Y-45770000D01*
X57170000Y-39230000D01*
%TO.C,Switch*%
X30650000Y-58183334D02*
X30650000Y-59433334D01*
X30950000Y-60733334D02*
X31700000Y-60733334D01*
X31700000Y-60733334D02*
X31700000Y-63683334D01*
X31700000Y-63683334D02*
X34750000Y-63683334D01*
X31900000Y-58183334D02*
X30650000Y-58183334D01*
X37800000Y-60733334D02*
X37800000Y-63683334D01*
X37800000Y-63683334D02*
X34750000Y-63683334D01*
X38550000Y-60733334D02*
X37800000Y-60733334D01*
X30940000Y-58473334D02*
X38560000Y-58473334D01*
X38560000Y-64443334D01*
X30940000Y-64443334D01*
X30940000Y-58473334D01*
X30950000Y-58483334D02*
X32750000Y-58483334D01*
X32750000Y-59233334D01*
X30950000Y-59233334D01*
X30950000Y-58483334D01*
X34250000Y-58483334D02*
X35250000Y-58483334D01*
X35250000Y-59233334D01*
X34250000Y-59233334D01*
X34250000Y-58483334D01*
X36750000Y-58483334D02*
X38550000Y-58483334D01*
X38550000Y-59233334D01*
X36750000Y-59233334D01*
X36750000Y-58483334D01*
%TO.C,R4*%
X45880000Y-66500000D02*
X46650000Y-66500000D01*
X53960000Y-66500000D02*
X53190000Y-66500000D01*
X46650000Y-65130000D02*
X53190000Y-65130000D01*
X53190000Y-67870000D01*
X46650000Y-67870000D01*
X46650000Y-65130000D01*
%TO.C,Battery*%
X30650000Y-49250000D02*
X30650000Y-50500000D01*
X30950000Y-51800000D02*
X31700000Y-51800000D01*
X31700000Y-51800000D02*
X31700000Y-54750000D01*
X31700000Y-54750000D02*
X34750000Y-54750000D01*
X31900000Y-49250000D02*
X30650000Y-49250000D01*
X37800000Y-51800000D02*
X37800000Y-54750000D01*
X37800000Y-54750000D02*
X34750000Y-54750000D01*
X38550000Y-51800000D02*
X37800000Y-51800000D01*
X30940000Y-49540000D02*
X38560000Y-49540000D01*
X38560000Y-55510000D01*
X30940000Y-55510000D01*
X30940000Y-49540000D01*
X30950000Y-49550000D02*
X32750000Y-49550000D01*
X32750000Y-50300000D01*
X30950000Y-50300000D01*
X30950000Y-49550000D01*
X34250000Y-49550000D02*
X35250000Y-49550000D01*
X35250000Y-50300000D01*
X34250000Y-50300000D01*
X34250000Y-49550000D01*
X36750000Y-49550000D02*
X38550000Y-49550000D01*
X38550000Y-50300000D01*
X36750000Y-50300000D01*
X36750000Y-49550000D01*
%TO.C,R5*%
X45880000Y-63000000D02*
X46650000Y-63000000D01*
X53960000Y-63000000D02*
X53190000Y-63000000D01*
X46650000Y-61630000D02*
X53190000Y-61630000D01*
X53190000Y-64370000D01*
X46650000Y-64370000D01*
X46650000Y-61630000D01*
%TO.C,R2*%
X52500000Y-38460000D02*
X52500000Y-39230000D01*
X52500000Y-46540000D02*
X52500000Y-45770000D01*
X53870000Y-39230000D02*
X51130000Y-39230000D01*
X51130000Y-45770000D01*
X53870000Y-45770000D01*
X53870000Y-39230000D01*
%TO.C,I2C D3-powered*%
X63150000Y-68250000D02*
X63150000Y-69500000D01*
X63450000Y-70800000D02*
X64200000Y-70800000D01*
X64200000Y-70800000D02*
X64200000Y-73750000D01*
X64200000Y-73750000D02*
X69750000Y-73750000D01*
X64400000Y-68250000D02*
X63150000Y-68250000D01*
X75300000Y-70800000D02*
X75300000Y-73750000D01*
X75300000Y-73750000D02*
X69750000Y-73750000D01*
X76050000Y-70800000D02*
X75300000Y-70800000D01*
X63440000Y-68540000D02*
X76060000Y-68540000D01*
X76060000Y-74510000D01*
X63440000Y-74510000D01*
X63440000Y-68540000D01*
X63450000Y-68550000D02*
X65250000Y-68550000D01*
X65250000Y-69300000D01*
X63450000Y-69300000D01*
X63450000Y-68550000D01*
X66750000Y-68550000D02*
X72750000Y-68550000D01*
X72750000Y-69300000D01*
X66750000Y-69300000D01*
X66750000Y-68550000D01*
X74250000Y-68550000D02*
X76050000Y-68550000D01*
X76050000Y-69300000D01*
X74250000Y-69300000D01*
X74250000Y-68550000D01*
%TO.C,R6*%
X45880000Y-59500000D02*
X46650000Y-59500000D01*
X53960000Y-59500000D02*
X53190000Y-59500000D01*
X46650000Y-58130000D02*
X53190000Y-58130000D01*
X53190000Y-60870000D01*
X46650000Y-60870000D01*
X46650000Y-58130000D01*
%TO.C,D1*%
X37030000Y-82700000D02*
X39970000Y-82700000D01*
X37030000Y-82820000D02*
X39970000Y-82820000D01*
X37030000Y-82940000D02*
X39970000Y-82940000D01*
X38500000Y-77260000D02*
X38500000Y-78280000D01*
X38500000Y-84740000D02*
X38500000Y-83720000D01*
X37030000Y-83720000D02*
X39970000Y-83720000D01*
X39970000Y-78280000D01*
X37030000Y-78280000D01*
X37030000Y-83720000D01*
%TD*%
M02*
