%TF.GenerationSoftware,KiCad,Pcbnew,9.0.7*%
%TF.CreationDate,2026-04-07T10:22:00+02:00*%
%TF.ProjectId,smart_plants_breakout_ws-board_rev2,736d6172-745f-4706-9c61-6e74735f6272,rev?*%
%TF.SameCoordinates,Original*%
%TF.FileFunction,Legend,Top*%
%TF.FilePolarity,Positive*%
%FSLAX46Y46*%
G04 Gerber Fmt 4.6, Leading zero omitted, Abs format (unit mm)*
G04 Created by KiCad (PCBNEW 9.0.7) date 2026-04-07 10:22:00*
%MOMM*%
%LPD*%
G01*
G04 APERTURE LIST*
%ADD10C,0.125000*%
%ADD11C,0.100000*%
%ADD12C,0.150000*%
%ADD13C,0.120000*%
G04 APERTURE END LIST*
D10*
X38772712Y-94365516D02*
X39248902Y-94365516D01*
X38677474Y-94651231D02*
X39010807Y-93651231D01*
X39010807Y-93651231D02*
X39344140Y-94651231D01*
X39820331Y-94651231D02*
X39725093Y-94603612D01*
X39725093Y-94603612D02*
X39677474Y-94508373D01*
X39677474Y-94508373D02*
X39677474Y-93651231D01*
X40582236Y-94603612D02*
X40486998Y-94651231D01*
X40486998Y-94651231D02*
X40296522Y-94651231D01*
X40296522Y-94651231D02*
X40201284Y-94603612D01*
X40201284Y-94603612D02*
X40153665Y-94508373D01*
X40153665Y-94508373D02*
X40153665Y-94127421D01*
X40153665Y-94127421D02*
X40201284Y-94032183D01*
X40201284Y-94032183D02*
X40296522Y-93984564D01*
X40296522Y-93984564D02*
X40486998Y-93984564D01*
X40486998Y-93984564D02*
X40582236Y-94032183D01*
X40582236Y-94032183D02*
X40629855Y-94127421D01*
X40629855Y-94127421D02*
X40629855Y-94222659D01*
X40629855Y-94222659D02*
X40153665Y-94317897D01*
X40963189Y-94651231D02*
X41486998Y-93984564D01*
X40963189Y-93984564D02*
X41486998Y-94651231D01*
X42296522Y-94651231D02*
X42296522Y-94127421D01*
X42296522Y-94127421D02*
X42248903Y-94032183D01*
X42248903Y-94032183D02*
X42153665Y-93984564D01*
X42153665Y-93984564D02*
X41963189Y-93984564D01*
X41963189Y-93984564D02*
X41867951Y-94032183D01*
X42296522Y-94603612D02*
X42201284Y-94651231D01*
X42201284Y-94651231D02*
X41963189Y-94651231D01*
X41963189Y-94651231D02*
X41867951Y-94603612D01*
X41867951Y-94603612D02*
X41820332Y-94508373D01*
X41820332Y-94508373D02*
X41820332Y-94413135D01*
X41820332Y-94413135D02*
X41867951Y-94317897D01*
X41867951Y-94317897D02*
X41963189Y-94270278D01*
X41963189Y-94270278D02*
X42201284Y-94270278D01*
X42201284Y-94270278D02*
X42296522Y-94222659D01*
X42772713Y-93984564D02*
X42772713Y-94651231D01*
X42772713Y-94079802D02*
X42820332Y-94032183D01*
X42820332Y-94032183D02*
X42915570Y-93984564D01*
X42915570Y-93984564D02*
X43058427Y-93984564D01*
X43058427Y-93984564D02*
X43153665Y-94032183D01*
X43153665Y-94032183D02*
X43201284Y-94127421D01*
X43201284Y-94127421D02*
X43201284Y-94651231D01*
X44106046Y-94651231D02*
X44106046Y-93651231D01*
X44106046Y-94603612D02*
X44010808Y-94651231D01*
X44010808Y-94651231D02*
X43820332Y-94651231D01*
X43820332Y-94651231D02*
X43725094Y-94603612D01*
X43725094Y-94603612D02*
X43677475Y-94555992D01*
X43677475Y-94555992D02*
X43629856Y-94460754D01*
X43629856Y-94460754D02*
X43629856Y-94175040D01*
X43629856Y-94175040D02*
X43677475Y-94079802D01*
X43677475Y-94079802D02*
X43725094Y-94032183D01*
X43725094Y-94032183D02*
X43820332Y-93984564D01*
X43820332Y-93984564D02*
X44010808Y-93984564D01*
X44010808Y-93984564D02*
X44106046Y-94032183D01*
X44963189Y-94603612D02*
X44867951Y-94651231D01*
X44867951Y-94651231D02*
X44677475Y-94651231D01*
X44677475Y-94651231D02*
X44582237Y-94603612D01*
X44582237Y-94603612D02*
X44534618Y-94508373D01*
X44534618Y-94508373D02*
X44534618Y-94127421D01*
X44534618Y-94127421D02*
X44582237Y-94032183D01*
X44582237Y-94032183D02*
X44677475Y-93984564D01*
X44677475Y-93984564D02*
X44867951Y-93984564D01*
X44867951Y-93984564D02*
X44963189Y-94032183D01*
X44963189Y-94032183D02*
X45010808Y-94127421D01*
X45010808Y-94127421D02*
X45010808Y-94222659D01*
X45010808Y-94222659D02*
X44534618Y-94317897D01*
X45439380Y-94651231D02*
X45439380Y-93984564D01*
X45439380Y-94175040D02*
X45486999Y-94079802D01*
X45486999Y-94079802D02*
X45534618Y-94032183D01*
X45534618Y-94032183D02*
X45629856Y-93984564D01*
X45629856Y-93984564D02*
X45725094Y-93984564D01*
X46820333Y-94651231D02*
X46820333Y-93651231D01*
X47391761Y-94651231D02*
X46963190Y-94079802D01*
X47391761Y-93651231D02*
X46820333Y-94222659D01*
X48248904Y-93984564D02*
X48248904Y-94651231D01*
X47820333Y-93984564D02*
X47820333Y-94508373D01*
X47820333Y-94508373D02*
X47867952Y-94603612D01*
X47867952Y-94603612D02*
X47963190Y-94651231D01*
X47963190Y-94651231D02*
X48106047Y-94651231D01*
X48106047Y-94651231D02*
X48201285Y-94603612D01*
X48201285Y-94603612D02*
X48248904Y-94555992D01*
X48582238Y-93984564D02*
X48963190Y-93984564D01*
X48725095Y-93651231D02*
X48725095Y-94508373D01*
X48725095Y-94508373D02*
X48772714Y-94603612D01*
X48772714Y-94603612D02*
X48867952Y-94651231D01*
X48867952Y-94651231D02*
X48963190Y-94651231D01*
X49248905Y-94603612D02*
X49344143Y-94651231D01*
X49344143Y-94651231D02*
X49534619Y-94651231D01*
X49534619Y-94651231D02*
X49629857Y-94603612D01*
X49629857Y-94603612D02*
X49677476Y-94508373D01*
X49677476Y-94508373D02*
X49677476Y-94460754D01*
X49677476Y-94460754D02*
X49629857Y-94365516D01*
X49629857Y-94365516D02*
X49534619Y-94317897D01*
X49534619Y-94317897D02*
X49391762Y-94317897D01*
X49391762Y-94317897D02*
X49296524Y-94270278D01*
X49296524Y-94270278D02*
X49248905Y-94175040D01*
X49248905Y-94175040D02*
X49248905Y-94127421D01*
X49248905Y-94127421D02*
X49296524Y-94032183D01*
X49296524Y-94032183D02*
X49391762Y-93984564D01*
X49391762Y-93984564D02*
X49534619Y-93984564D01*
X49534619Y-93984564D02*
X49629857Y-94032183D01*
X50534619Y-94603612D02*
X50439381Y-94651231D01*
X50439381Y-94651231D02*
X50248905Y-94651231D01*
X50248905Y-94651231D02*
X50153667Y-94603612D01*
X50153667Y-94603612D02*
X50106048Y-94555992D01*
X50106048Y-94555992D02*
X50058429Y-94460754D01*
X50058429Y-94460754D02*
X50058429Y-94175040D01*
X50058429Y-94175040D02*
X50106048Y-94079802D01*
X50106048Y-94079802D02*
X50153667Y-94032183D01*
X50153667Y-94032183D02*
X50248905Y-93984564D01*
X50248905Y-93984564D02*
X50439381Y-93984564D01*
X50439381Y-93984564D02*
X50534619Y-94032183D01*
X50963191Y-94651231D02*
X50963191Y-93651231D01*
X51391762Y-94651231D02*
X51391762Y-94127421D01*
X51391762Y-94127421D02*
X51344143Y-94032183D01*
X51344143Y-94032183D02*
X51248905Y-93984564D01*
X51248905Y-93984564D02*
X51106048Y-93984564D01*
X51106048Y-93984564D02*
X51010810Y-94032183D01*
X51010810Y-94032183D02*
X50963191Y-94079802D01*
X52248905Y-94603612D02*
X52153667Y-94651231D01*
X52153667Y-94651231D02*
X51963191Y-94651231D01*
X51963191Y-94651231D02*
X51867953Y-94603612D01*
X51867953Y-94603612D02*
X51820334Y-94508373D01*
X51820334Y-94508373D02*
X51820334Y-94127421D01*
X51820334Y-94127421D02*
X51867953Y-94032183D01*
X51867953Y-94032183D02*
X51963191Y-93984564D01*
X51963191Y-93984564D02*
X52153667Y-93984564D01*
X52153667Y-93984564D02*
X52248905Y-94032183D01*
X52248905Y-94032183D02*
X52296524Y-94127421D01*
X52296524Y-94127421D02*
X52296524Y-94222659D01*
X52296524Y-94222659D02*
X51820334Y-94317897D01*
X52725096Y-94651231D02*
X52725096Y-93984564D01*
X52725096Y-94175040D02*
X52772715Y-94079802D01*
X52772715Y-94079802D02*
X52820334Y-94032183D01*
X52820334Y-94032183D02*
X52915572Y-93984564D01*
X52915572Y-93984564D02*
X53010810Y-93984564D01*
X53772715Y-94651231D02*
X53772715Y-94127421D01*
X53772715Y-94127421D02*
X53725096Y-94032183D01*
X53725096Y-94032183D02*
X53629858Y-93984564D01*
X53629858Y-93984564D02*
X53439382Y-93984564D01*
X53439382Y-93984564D02*
X53344144Y-94032183D01*
X53772715Y-94603612D02*
X53677477Y-94651231D01*
X53677477Y-94651231D02*
X53439382Y-94651231D01*
X53439382Y-94651231D02*
X53344144Y-94603612D01*
X53344144Y-94603612D02*
X53296525Y-94508373D01*
X53296525Y-94508373D02*
X53296525Y-94413135D01*
X53296525Y-94413135D02*
X53344144Y-94317897D01*
X53344144Y-94317897D02*
X53439382Y-94270278D01*
X53439382Y-94270278D02*
X53677477Y-94270278D01*
X53677477Y-94270278D02*
X53772715Y-94222659D01*
X54963192Y-93746469D02*
X55010811Y-93698850D01*
X55010811Y-93698850D02*
X55106049Y-93651231D01*
X55106049Y-93651231D02*
X55344144Y-93651231D01*
X55344144Y-93651231D02*
X55439382Y-93698850D01*
X55439382Y-93698850D02*
X55487001Y-93746469D01*
X55487001Y-93746469D02*
X55534620Y-93841707D01*
X55534620Y-93841707D02*
X55534620Y-93936945D01*
X55534620Y-93936945D02*
X55487001Y-94079802D01*
X55487001Y-94079802D02*
X54915573Y-94651231D01*
X54915573Y-94651231D02*
X55534620Y-94651231D01*
X56153668Y-93651231D02*
X56248906Y-93651231D01*
X56248906Y-93651231D02*
X56344144Y-93698850D01*
X56344144Y-93698850D02*
X56391763Y-93746469D01*
X56391763Y-93746469D02*
X56439382Y-93841707D01*
X56439382Y-93841707D02*
X56487001Y-94032183D01*
X56487001Y-94032183D02*
X56487001Y-94270278D01*
X56487001Y-94270278D02*
X56439382Y-94460754D01*
X56439382Y-94460754D02*
X56391763Y-94555992D01*
X56391763Y-94555992D02*
X56344144Y-94603612D01*
X56344144Y-94603612D02*
X56248906Y-94651231D01*
X56248906Y-94651231D02*
X56153668Y-94651231D01*
X56153668Y-94651231D02*
X56058430Y-94603612D01*
X56058430Y-94603612D02*
X56010811Y-94555992D01*
X56010811Y-94555992D02*
X55963192Y-94460754D01*
X55963192Y-94460754D02*
X55915573Y-94270278D01*
X55915573Y-94270278D02*
X55915573Y-94032183D01*
X55915573Y-94032183D02*
X55963192Y-93841707D01*
X55963192Y-93841707D02*
X56010811Y-93746469D01*
X56010811Y-93746469D02*
X56058430Y-93698850D01*
X56058430Y-93698850D02*
X56153668Y-93651231D01*
X56867954Y-93746469D02*
X56915573Y-93698850D01*
X56915573Y-93698850D02*
X57010811Y-93651231D01*
X57010811Y-93651231D02*
X57248906Y-93651231D01*
X57248906Y-93651231D02*
X57344144Y-93698850D01*
X57344144Y-93698850D02*
X57391763Y-93746469D01*
X57391763Y-93746469D02*
X57439382Y-93841707D01*
X57439382Y-93841707D02*
X57439382Y-93936945D01*
X57439382Y-93936945D02*
X57391763Y-94079802D01*
X57391763Y-94079802D02*
X56820335Y-94651231D01*
X56820335Y-94651231D02*
X57439382Y-94651231D01*
X58296525Y-93651231D02*
X58106049Y-93651231D01*
X58106049Y-93651231D02*
X58010811Y-93698850D01*
X58010811Y-93698850D02*
X57963192Y-93746469D01*
X57963192Y-93746469D02*
X57867954Y-93889326D01*
X57867954Y-93889326D02*
X57820335Y-94079802D01*
X57820335Y-94079802D02*
X57820335Y-94460754D01*
X57820335Y-94460754D02*
X57867954Y-94555992D01*
X57867954Y-94555992D02*
X57915573Y-94603612D01*
X57915573Y-94603612D02*
X58010811Y-94651231D01*
X58010811Y-94651231D02*
X58201287Y-94651231D01*
X58201287Y-94651231D02*
X58296525Y-94603612D01*
X58296525Y-94603612D02*
X58344144Y-94555992D01*
X58344144Y-94555992D02*
X58391763Y-94460754D01*
X58391763Y-94460754D02*
X58391763Y-94222659D01*
X58391763Y-94222659D02*
X58344144Y-94127421D01*
X58344144Y-94127421D02*
X58296525Y-94079802D01*
X58296525Y-94079802D02*
X58201287Y-94032183D01*
X58201287Y-94032183D02*
X58010811Y-94032183D01*
X58010811Y-94032183D02*
X57915573Y-94079802D01*
X57915573Y-94079802D02*
X57867954Y-94127421D01*
X57867954Y-94127421D02*
X57820335Y-94222659D01*
X38772712Y-96213556D02*
X38915569Y-96261175D01*
X38915569Y-96261175D02*
X39153664Y-96261175D01*
X39153664Y-96261175D02*
X39248902Y-96213556D01*
X39248902Y-96213556D02*
X39296521Y-96165936D01*
X39296521Y-96165936D02*
X39344140Y-96070698D01*
X39344140Y-96070698D02*
X39344140Y-95975460D01*
X39344140Y-95975460D02*
X39296521Y-95880222D01*
X39296521Y-95880222D02*
X39248902Y-95832603D01*
X39248902Y-95832603D02*
X39153664Y-95784984D01*
X39153664Y-95784984D02*
X38963188Y-95737365D01*
X38963188Y-95737365D02*
X38867950Y-95689746D01*
X38867950Y-95689746D02*
X38820331Y-95642127D01*
X38820331Y-95642127D02*
X38772712Y-95546889D01*
X38772712Y-95546889D02*
X38772712Y-95451651D01*
X38772712Y-95451651D02*
X38820331Y-95356413D01*
X38820331Y-95356413D02*
X38867950Y-95308794D01*
X38867950Y-95308794D02*
X38963188Y-95261175D01*
X38963188Y-95261175D02*
X39201283Y-95261175D01*
X39201283Y-95261175D02*
X39344140Y-95308794D01*
X39772712Y-96261175D02*
X39772712Y-95594508D01*
X39772712Y-95689746D02*
X39820331Y-95642127D01*
X39820331Y-95642127D02*
X39915569Y-95594508D01*
X39915569Y-95594508D02*
X40058426Y-95594508D01*
X40058426Y-95594508D02*
X40153664Y-95642127D01*
X40153664Y-95642127D02*
X40201283Y-95737365D01*
X40201283Y-95737365D02*
X40201283Y-96261175D01*
X40201283Y-95737365D02*
X40248902Y-95642127D01*
X40248902Y-95642127D02*
X40344140Y-95594508D01*
X40344140Y-95594508D02*
X40486997Y-95594508D01*
X40486997Y-95594508D02*
X40582236Y-95642127D01*
X40582236Y-95642127D02*
X40629855Y-95737365D01*
X40629855Y-95737365D02*
X40629855Y-96261175D01*
X41534616Y-96261175D02*
X41534616Y-95737365D01*
X41534616Y-95737365D02*
X41486997Y-95642127D01*
X41486997Y-95642127D02*
X41391759Y-95594508D01*
X41391759Y-95594508D02*
X41201283Y-95594508D01*
X41201283Y-95594508D02*
X41106045Y-95642127D01*
X41534616Y-96213556D02*
X41439378Y-96261175D01*
X41439378Y-96261175D02*
X41201283Y-96261175D01*
X41201283Y-96261175D02*
X41106045Y-96213556D01*
X41106045Y-96213556D02*
X41058426Y-96118317D01*
X41058426Y-96118317D02*
X41058426Y-96023079D01*
X41058426Y-96023079D02*
X41106045Y-95927841D01*
X41106045Y-95927841D02*
X41201283Y-95880222D01*
X41201283Y-95880222D02*
X41439378Y-95880222D01*
X41439378Y-95880222D02*
X41534616Y-95832603D01*
X42010807Y-96261175D02*
X42010807Y-95594508D01*
X42010807Y-95784984D02*
X42058426Y-95689746D01*
X42058426Y-95689746D02*
X42106045Y-95642127D01*
X42106045Y-95642127D02*
X42201283Y-95594508D01*
X42201283Y-95594508D02*
X42296521Y-95594508D01*
X42486998Y-95594508D02*
X42867950Y-95594508D01*
X42629855Y-95261175D02*
X42629855Y-96118317D01*
X42629855Y-96118317D02*
X42677474Y-96213556D01*
X42677474Y-96213556D02*
X42772712Y-96261175D01*
X42772712Y-96261175D02*
X42867950Y-96261175D01*
X43963189Y-96261175D02*
X43963189Y-95261175D01*
X43963189Y-95261175D02*
X44344141Y-95261175D01*
X44344141Y-95261175D02*
X44439379Y-95308794D01*
X44439379Y-95308794D02*
X44486998Y-95356413D01*
X44486998Y-95356413D02*
X44534617Y-95451651D01*
X44534617Y-95451651D02*
X44534617Y-95594508D01*
X44534617Y-95594508D02*
X44486998Y-95689746D01*
X44486998Y-95689746D02*
X44439379Y-95737365D01*
X44439379Y-95737365D02*
X44344141Y-95784984D01*
X44344141Y-95784984D02*
X43963189Y-95784984D01*
X45106046Y-96261175D02*
X45010808Y-96213556D01*
X45010808Y-96213556D02*
X44963189Y-96118317D01*
X44963189Y-96118317D02*
X44963189Y-95261175D01*
X45915570Y-96261175D02*
X45915570Y-95737365D01*
X45915570Y-95737365D02*
X45867951Y-95642127D01*
X45867951Y-95642127D02*
X45772713Y-95594508D01*
X45772713Y-95594508D02*
X45582237Y-95594508D01*
X45582237Y-95594508D02*
X45486999Y-95642127D01*
X45915570Y-96213556D02*
X45820332Y-96261175D01*
X45820332Y-96261175D02*
X45582237Y-96261175D01*
X45582237Y-96261175D02*
X45486999Y-96213556D01*
X45486999Y-96213556D02*
X45439380Y-96118317D01*
X45439380Y-96118317D02*
X45439380Y-96023079D01*
X45439380Y-96023079D02*
X45486999Y-95927841D01*
X45486999Y-95927841D02*
X45582237Y-95880222D01*
X45582237Y-95880222D02*
X45820332Y-95880222D01*
X45820332Y-95880222D02*
X45915570Y-95832603D01*
X46391761Y-95594508D02*
X46391761Y-96261175D01*
X46391761Y-95689746D02*
X46439380Y-95642127D01*
X46439380Y-95642127D02*
X46534618Y-95594508D01*
X46534618Y-95594508D02*
X46677475Y-95594508D01*
X46677475Y-95594508D02*
X46772713Y-95642127D01*
X46772713Y-95642127D02*
X46820332Y-95737365D01*
X46820332Y-95737365D02*
X46820332Y-96261175D01*
X47153666Y-95594508D02*
X47534618Y-95594508D01*
X47296523Y-95261175D02*
X47296523Y-96118317D01*
X47296523Y-96118317D02*
X47344142Y-96213556D01*
X47344142Y-96213556D02*
X47439380Y-96261175D01*
X47439380Y-96261175D02*
X47534618Y-96261175D01*
X48963190Y-95737365D02*
X49106047Y-95784984D01*
X49106047Y-95784984D02*
X49153666Y-95832603D01*
X49153666Y-95832603D02*
X49201285Y-95927841D01*
X49201285Y-95927841D02*
X49201285Y-96070698D01*
X49201285Y-96070698D02*
X49153666Y-96165936D01*
X49153666Y-96165936D02*
X49106047Y-96213556D01*
X49106047Y-96213556D02*
X49010809Y-96261175D01*
X49010809Y-96261175D02*
X48629857Y-96261175D01*
X48629857Y-96261175D02*
X48629857Y-95261175D01*
X48629857Y-95261175D02*
X48963190Y-95261175D01*
X48963190Y-95261175D02*
X49058428Y-95308794D01*
X49058428Y-95308794D02*
X49106047Y-95356413D01*
X49106047Y-95356413D02*
X49153666Y-95451651D01*
X49153666Y-95451651D02*
X49153666Y-95546889D01*
X49153666Y-95546889D02*
X49106047Y-95642127D01*
X49106047Y-95642127D02*
X49058428Y-95689746D01*
X49058428Y-95689746D02*
X48963190Y-95737365D01*
X48963190Y-95737365D02*
X48629857Y-95737365D01*
X49629857Y-96261175D02*
X49629857Y-95594508D01*
X49629857Y-95784984D02*
X49677476Y-95689746D01*
X49677476Y-95689746D02*
X49725095Y-95642127D01*
X49725095Y-95642127D02*
X49820333Y-95594508D01*
X49820333Y-95594508D02*
X49915571Y-95594508D01*
X50629857Y-96213556D02*
X50534619Y-96261175D01*
X50534619Y-96261175D02*
X50344143Y-96261175D01*
X50344143Y-96261175D02*
X50248905Y-96213556D01*
X50248905Y-96213556D02*
X50201286Y-96118317D01*
X50201286Y-96118317D02*
X50201286Y-95737365D01*
X50201286Y-95737365D02*
X50248905Y-95642127D01*
X50248905Y-95642127D02*
X50344143Y-95594508D01*
X50344143Y-95594508D02*
X50534619Y-95594508D01*
X50534619Y-95594508D02*
X50629857Y-95642127D01*
X50629857Y-95642127D02*
X50677476Y-95737365D01*
X50677476Y-95737365D02*
X50677476Y-95832603D01*
X50677476Y-95832603D02*
X50201286Y-95927841D01*
X51534619Y-96261175D02*
X51534619Y-95737365D01*
X51534619Y-95737365D02*
X51487000Y-95642127D01*
X51487000Y-95642127D02*
X51391762Y-95594508D01*
X51391762Y-95594508D02*
X51201286Y-95594508D01*
X51201286Y-95594508D02*
X51106048Y-95642127D01*
X51534619Y-96213556D02*
X51439381Y-96261175D01*
X51439381Y-96261175D02*
X51201286Y-96261175D01*
X51201286Y-96261175D02*
X51106048Y-96213556D01*
X51106048Y-96213556D02*
X51058429Y-96118317D01*
X51058429Y-96118317D02*
X51058429Y-96023079D01*
X51058429Y-96023079D02*
X51106048Y-95927841D01*
X51106048Y-95927841D02*
X51201286Y-95880222D01*
X51201286Y-95880222D02*
X51439381Y-95880222D01*
X51439381Y-95880222D02*
X51534619Y-95832603D01*
X52010810Y-96261175D02*
X52010810Y-95261175D01*
X52106048Y-95880222D02*
X52391762Y-96261175D01*
X52391762Y-95594508D02*
X52010810Y-95975460D01*
X52963191Y-96261175D02*
X52867953Y-96213556D01*
X52867953Y-96213556D02*
X52820334Y-96165936D01*
X52820334Y-96165936D02*
X52772715Y-96070698D01*
X52772715Y-96070698D02*
X52772715Y-95784984D01*
X52772715Y-95784984D02*
X52820334Y-95689746D01*
X52820334Y-95689746D02*
X52867953Y-95642127D01*
X52867953Y-95642127D02*
X52963191Y-95594508D01*
X52963191Y-95594508D02*
X53106048Y-95594508D01*
X53106048Y-95594508D02*
X53201286Y-95642127D01*
X53201286Y-95642127D02*
X53248905Y-95689746D01*
X53248905Y-95689746D02*
X53296524Y-95784984D01*
X53296524Y-95784984D02*
X53296524Y-96070698D01*
X53296524Y-96070698D02*
X53248905Y-96165936D01*
X53248905Y-96165936D02*
X53201286Y-96213556D01*
X53201286Y-96213556D02*
X53106048Y-96261175D01*
X53106048Y-96261175D02*
X52963191Y-96261175D01*
X54153667Y-95594508D02*
X54153667Y-96261175D01*
X53725096Y-95594508D02*
X53725096Y-96118317D01*
X53725096Y-96118317D02*
X53772715Y-96213556D01*
X53772715Y-96213556D02*
X53867953Y-96261175D01*
X53867953Y-96261175D02*
X54010810Y-96261175D01*
X54010810Y-96261175D02*
X54106048Y-96213556D01*
X54106048Y-96213556D02*
X54153667Y-96165936D01*
X54487001Y-95594508D02*
X54867953Y-95594508D01*
X54629858Y-95261175D02*
X54629858Y-96118317D01*
X54629858Y-96118317D02*
X54677477Y-96213556D01*
X54677477Y-96213556D02*
X54772715Y-96261175D01*
X54772715Y-96261175D02*
X54867953Y-96261175D01*
X56296525Y-95737365D02*
X56439382Y-95784984D01*
X56439382Y-95784984D02*
X56487001Y-95832603D01*
X56487001Y-95832603D02*
X56534620Y-95927841D01*
X56534620Y-95927841D02*
X56534620Y-96070698D01*
X56534620Y-96070698D02*
X56487001Y-96165936D01*
X56487001Y-96165936D02*
X56439382Y-96213556D01*
X56439382Y-96213556D02*
X56344144Y-96261175D01*
X56344144Y-96261175D02*
X55963192Y-96261175D01*
X55963192Y-96261175D02*
X55963192Y-95261175D01*
X55963192Y-95261175D02*
X56296525Y-95261175D01*
X56296525Y-95261175D02*
X56391763Y-95308794D01*
X56391763Y-95308794D02*
X56439382Y-95356413D01*
X56439382Y-95356413D02*
X56487001Y-95451651D01*
X56487001Y-95451651D02*
X56487001Y-95546889D01*
X56487001Y-95546889D02*
X56439382Y-95642127D01*
X56439382Y-95642127D02*
X56391763Y-95689746D01*
X56391763Y-95689746D02*
X56296525Y-95737365D01*
X56296525Y-95737365D02*
X55963192Y-95737365D01*
X57106049Y-96261175D02*
X57010811Y-96213556D01*
X57010811Y-96213556D02*
X56963192Y-96165936D01*
X56963192Y-96165936D02*
X56915573Y-96070698D01*
X56915573Y-96070698D02*
X56915573Y-95784984D01*
X56915573Y-95784984D02*
X56963192Y-95689746D01*
X56963192Y-95689746D02*
X57010811Y-95642127D01*
X57010811Y-95642127D02*
X57106049Y-95594508D01*
X57106049Y-95594508D02*
X57248906Y-95594508D01*
X57248906Y-95594508D02*
X57344144Y-95642127D01*
X57344144Y-95642127D02*
X57391763Y-95689746D01*
X57391763Y-95689746D02*
X57439382Y-95784984D01*
X57439382Y-95784984D02*
X57439382Y-96070698D01*
X57439382Y-96070698D02*
X57391763Y-96165936D01*
X57391763Y-96165936D02*
X57344144Y-96213556D01*
X57344144Y-96213556D02*
X57248906Y-96261175D01*
X57248906Y-96261175D02*
X57106049Y-96261175D01*
X58296525Y-96261175D02*
X58296525Y-95737365D01*
X58296525Y-95737365D02*
X58248906Y-95642127D01*
X58248906Y-95642127D02*
X58153668Y-95594508D01*
X58153668Y-95594508D02*
X57963192Y-95594508D01*
X57963192Y-95594508D02*
X57867954Y-95642127D01*
X58296525Y-96213556D02*
X58201287Y-96261175D01*
X58201287Y-96261175D02*
X57963192Y-96261175D01*
X57963192Y-96261175D02*
X57867954Y-96213556D01*
X57867954Y-96213556D02*
X57820335Y-96118317D01*
X57820335Y-96118317D02*
X57820335Y-96023079D01*
X57820335Y-96023079D02*
X57867954Y-95927841D01*
X57867954Y-95927841D02*
X57963192Y-95880222D01*
X57963192Y-95880222D02*
X58201287Y-95880222D01*
X58201287Y-95880222D02*
X58296525Y-95832603D01*
X58772716Y-96261175D02*
X58772716Y-95594508D01*
X58772716Y-95784984D02*
X58820335Y-95689746D01*
X58820335Y-95689746D02*
X58867954Y-95642127D01*
X58867954Y-95642127D02*
X58963192Y-95594508D01*
X58963192Y-95594508D02*
X59058430Y-95594508D01*
X59820335Y-96261175D02*
X59820335Y-95261175D01*
X59820335Y-96213556D02*
X59725097Y-96261175D01*
X59725097Y-96261175D02*
X59534621Y-96261175D01*
X59534621Y-96261175D02*
X59439383Y-96213556D01*
X59439383Y-96213556D02*
X59391764Y-96165936D01*
X59391764Y-96165936D02*
X59344145Y-96070698D01*
X59344145Y-96070698D02*
X59344145Y-95784984D01*
X59344145Y-95784984D02*
X59391764Y-95689746D01*
X59391764Y-95689746D02*
X59439383Y-95642127D01*
X59439383Y-95642127D02*
X59534621Y-95594508D01*
X59534621Y-95594508D02*
X59725097Y-95594508D01*
X59725097Y-95594508D02*
X59820335Y-95642127D01*
X39248902Y-97204452D02*
X39248902Y-98013976D01*
X39248902Y-98013976D02*
X39201283Y-98109214D01*
X39201283Y-98109214D02*
X39153664Y-98156833D01*
X39153664Y-98156833D02*
X39058426Y-98204452D01*
X39058426Y-98204452D02*
X38915569Y-98204452D01*
X38915569Y-98204452D02*
X38820331Y-98156833D01*
X39248902Y-97823500D02*
X39153664Y-97871119D01*
X39153664Y-97871119D02*
X38963188Y-97871119D01*
X38963188Y-97871119D02*
X38867950Y-97823500D01*
X38867950Y-97823500D02*
X38820331Y-97775880D01*
X38820331Y-97775880D02*
X38772712Y-97680642D01*
X38772712Y-97680642D02*
X38772712Y-97394928D01*
X38772712Y-97394928D02*
X38820331Y-97299690D01*
X38820331Y-97299690D02*
X38867950Y-97252071D01*
X38867950Y-97252071D02*
X38963188Y-97204452D01*
X38963188Y-97204452D02*
X39153664Y-97204452D01*
X39153664Y-97204452D02*
X39248902Y-97252071D01*
X39725093Y-97871119D02*
X39725093Y-97204452D01*
X39725093Y-96871119D02*
X39677474Y-96918738D01*
X39677474Y-96918738D02*
X39725093Y-96966357D01*
X39725093Y-96966357D02*
X39772712Y-96918738D01*
X39772712Y-96918738D02*
X39725093Y-96871119D01*
X39725093Y-96871119D02*
X39725093Y-96966357D01*
X40058426Y-97204452D02*
X40439378Y-97204452D01*
X40201283Y-96871119D02*
X40201283Y-97728261D01*
X40201283Y-97728261D02*
X40248902Y-97823500D01*
X40248902Y-97823500D02*
X40344140Y-97871119D01*
X40344140Y-97871119D02*
X40439378Y-97871119D01*
X40772712Y-97871119D02*
X40772712Y-96871119D01*
X41201283Y-97871119D02*
X41201283Y-97347309D01*
X41201283Y-97347309D02*
X41153664Y-97252071D01*
X41153664Y-97252071D02*
X41058426Y-97204452D01*
X41058426Y-97204452D02*
X40915569Y-97204452D01*
X40915569Y-97204452D02*
X40820331Y-97252071D01*
X40820331Y-97252071D02*
X40772712Y-97299690D01*
X42106045Y-97204452D02*
X42106045Y-97871119D01*
X41677474Y-97204452D02*
X41677474Y-97728261D01*
X41677474Y-97728261D02*
X41725093Y-97823500D01*
X41725093Y-97823500D02*
X41820331Y-97871119D01*
X41820331Y-97871119D02*
X41963188Y-97871119D01*
X41963188Y-97871119D02*
X42058426Y-97823500D01*
X42058426Y-97823500D02*
X42106045Y-97775880D01*
X42582236Y-97871119D02*
X42582236Y-96871119D01*
X42582236Y-97252071D02*
X42677474Y-97204452D01*
X42677474Y-97204452D02*
X42867950Y-97204452D01*
X42867950Y-97204452D02*
X42963188Y-97252071D01*
X42963188Y-97252071D02*
X43010807Y-97299690D01*
X43010807Y-97299690D02*
X43058426Y-97394928D01*
X43058426Y-97394928D02*
X43058426Y-97680642D01*
X43058426Y-97680642D02*
X43010807Y-97775880D01*
X43010807Y-97775880D02*
X42963188Y-97823500D01*
X42963188Y-97823500D02*
X42867950Y-97871119D01*
X42867950Y-97871119D02*
X42677474Y-97871119D01*
X42677474Y-97871119D02*
X42582236Y-97823500D01*
X43486998Y-97775880D02*
X43534617Y-97823500D01*
X43534617Y-97823500D02*
X43486998Y-97871119D01*
X43486998Y-97871119D02*
X43439379Y-97823500D01*
X43439379Y-97823500D02*
X43486998Y-97775880D01*
X43486998Y-97775880D02*
X43486998Y-97871119D01*
X44391759Y-97823500D02*
X44296521Y-97871119D01*
X44296521Y-97871119D02*
X44106045Y-97871119D01*
X44106045Y-97871119D02*
X44010807Y-97823500D01*
X44010807Y-97823500D02*
X43963188Y-97775880D01*
X43963188Y-97775880D02*
X43915569Y-97680642D01*
X43915569Y-97680642D02*
X43915569Y-97394928D01*
X43915569Y-97394928D02*
X43963188Y-97299690D01*
X43963188Y-97299690D02*
X44010807Y-97252071D01*
X44010807Y-97252071D02*
X44106045Y-97204452D01*
X44106045Y-97204452D02*
X44296521Y-97204452D01*
X44296521Y-97204452D02*
X44391759Y-97252071D01*
X44963188Y-97871119D02*
X44867950Y-97823500D01*
X44867950Y-97823500D02*
X44820331Y-97775880D01*
X44820331Y-97775880D02*
X44772712Y-97680642D01*
X44772712Y-97680642D02*
X44772712Y-97394928D01*
X44772712Y-97394928D02*
X44820331Y-97299690D01*
X44820331Y-97299690D02*
X44867950Y-97252071D01*
X44867950Y-97252071D02*
X44963188Y-97204452D01*
X44963188Y-97204452D02*
X45106045Y-97204452D01*
X45106045Y-97204452D02*
X45201283Y-97252071D01*
X45201283Y-97252071D02*
X45248902Y-97299690D01*
X45248902Y-97299690D02*
X45296521Y-97394928D01*
X45296521Y-97394928D02*
X45296521Y-97680642D01*
X45296521Y-97680642D02*
X45248902Y-97775880D01*
X45248902Y-97775880D02*
X45201283Y-97823500D01*
X45201283Y-97823500D02*
X45106045Y-97871119D01*
X45106045Y-97871119D02*
X44963188Y-97871119D01*
X45725093Y-97871119D02*
X45725093Y-97204452D01*
X45725093Y-97299690D02*
X45772712Y-97252071D01*
X45772712Y-97252071D02*
X45867950Y-97204452D01*
X45867950Y-97204452D02*
X46010807Y-97204452D01*
X46010807Y-97204452D02*
X46106045Y-97252071D01*
X46106045Y-97252071D02*
X46153664Y-97347309D01*
X46153664Y-97347309D02*
X46153664Y-97871119D01*
X46153664Y-97347309D02*
X46201283Y-97252071D01*
X46201283Y-97252071D02*
X46296521Y-97204452D01*
X46296521Y-97204452D02*
X46439378Y-97204452D01*
X46439378Y-97204452D02*
X46534617Y-97252071D01*
X46534617Y-97252071D02*
X46582236Y-97347309D01*
X46582236Y-97347309D02*
X46582236Y-97871119D01*
X47772711Y-96823500D02*
X46915569Y-98109214D01*
X48010807Y-97204452D02*
X48248902Y-97871119D01*
X48248902Y-97871119D02*
X48486997Y-97204452D01*
X49248902Y-97823500D02*
X49153664Y-97871119D01*
X49153664Y-97871119D02*
X48963188Y-97871119D01*
X48963188Y-97871119D02*
X48867950Y-97823500D01*
X48867950Y-97823500D02*
X48820331Y-97728261D01*
X48820331Y-97728261D02*
X48820331Y-97347309D01*
X48820331Y-97347309D02*
X48867950Y-97252071D01*
X48867950Y-97252071D02*
X48963188Y-97204452D01*
X48963188Y-97204452D02*
X49153664Y-97204452D01*
X49153664Y-97204452D02*
X49248902Y-97252071D01*
X49248902Y-97252071D02*
X49296521Y-97347309D01*
X49296521Y-97347309D02*
X49296521Y-97442547D01*
X49296521Y-97442547D02*
X48820331Y-97537785D01*
X49725093Y-97871119D02*
X49725093Y-96871119D01*
X49820331Y-97490166D02*
X50106045Y-97871119D01*
X50106045Y-97204452D02*
X49725093Y-97585404D01*
X50391760Y-97204452D02*
X50772712Y-97204452D01*
X50534617Y-96871119D02*
X50534617Y-97728261D01*
X50534617Y-97728261D02*
X50582236Y-97823500D01*
X50582236Y-97823500D02*
X50677474Y-97871119D01*
X50677474Y-97871119D02*
X50772712Y-97871119D01*
X51248903Y-97871119D02*
X51153665Y-97823500D01*
X51153665Y-97823500D02*
X51106046Y-97775880D01*
X51106046Y-97775880D02*
X51058427Y-97680642D01*
X51058427Y-97680642D02*
X51058427Y-97394928D01*
X51058427Y-97394928D02*
X51106046Y-97299690D01*
X51106046Y-97299690D02*
X51153665Y-97252071D01*
X51153665Y-97252071D02*
X51248903Y-97204452D01*
X51248903Y-97204452D02*
X51391760Y-97204452D01*
X51391760Y-97204452D02*
X51486998Y-97252071D01*
X51486998Y-97252071D02*
X51534617Y-97299690D01*
X51534617Y-97299690D02*
X51582236Y-97394928D01*
X51582236Y-97394928D02*
X51582236Y-97680642D01*
X51582236Y-97680642D02*
X51534617Y-97775880D01*
X51534617Y-97775880D02*
X51486998Y-97823500D01*
X51486998Y-97823500D02*
X51391760Y-97871119D01*
X51391760Y-97871119D02*
X51248903Y-97871119D01*
X52010808Y-97871119D02*
X52010808Y-97204452D01*
X52010808Y-97394928D02*
X52058427Y-97299690D01*
X52058427Y-97299690D02*
X52106046Y-97252071D01*
X52106046Y-97252071D02*
X52201284Y-97204452D01*
X52201284Y-97204452D02*
X52296522Y-97204452D01*
X52629856Y-97871119D02*
X52629856Y-97204452D01*
X52629856Y-96871119D02*
X52582237Y-96918738D01*
X52582237Y-96918738D02*
X52629856Y-96966357D01*
X52629856Y-96966357D02*
X52677475Y-96918738D01*
X52677475Y-96918738D02*
X52629856Y-96871119D01*
X52629856Y-96871119D02*
X52629856Y-96966357D01*
X53248903Y-97871119D02*
X53153665Y-97823500D01*
X53153665Y-97823500D02*
X53106046Y-97775880D01*
X53106046Y-97775880D02*
X53058427Y-97680642D01*
X53058427Y-97680642D02*
X53058427Y-97394928D01*
X53058427Y-97394928D02*
X53106046Y-97299690D01*
X53106046Y-97299690D02*
X53153665Y-97252071D01*
X53153665Y-97252071D02*
X53248903Y-97204452D01*
X53248903Y-97204452D02*
X53391760Y-97204452D01*
X53391760Y-97204452D02*
X53486998Y-97252071D01*
X53486998Y-97252071D02*
X53534617Y-97299690D01*
X53534617Y-97299690D02*
X53582236Y-97394928D01*
X53582236Y-97394928D02*
X53582236Y-97680642D01*
X53582236Y-97680642D02*
X53534617Y-97775880D01*
X53534617Y-97775880D02*
X53486998Y-97823500D01*
X53486998Y-97823500D02*
X53391760Y-97871119D01*
X53391760Y-97871119D02*
X53248903Y-97871119D01*
X54439379Y-97204452D02*
X54439379Y-97871119D01*
X54010808Y-97204452D02*
X54010808Y-97728261D01*
X54010808Y-97728261D02*
X54058427Y-97823500D01*
X54058427Y-97823500D02*
X54153665Y-97871119D01*
X54153665Y-97871119D02*
X54296522Y-97871119D01*
X54296522Y-97871119D02*
X54391760Y-97823500D01*
X54391760Y-97823500D02*
X54439379Y-97775880D01*
X54867951Y-97823500D02*
X54963189Y-97871119D01*
X54963189Y-97871119D02*
X55153665Y-97871119D01*
X55153665Y-97871119D02*
X55248903Y-97823500D01*
X55248903Y-97823500D02*
X55296522Y-97728261D01*
X55296522Y-97728261D02*
X55296522Y-97680642D01*
X55296522Y-97680642D02*
X55248903Y-97585404D01*
X55248903Y-97585404D02*
X55153665Y-97537785D01*
X55153665Y-97537785D02*
X55010808Y-97537785D01*
X55010808Y-97537785D02*
X54915570Y-97490166D01*
X54915570Y-97490166D02*
X54867951Y-97394928D01*
X54867951Y-97394928D02*
X54867951Y-97347309D01*
X54867951Y-97347309D02*
X54915570Y-97252071D01*
X54915570Y-97252071D02*
X55010808Y-97204452D01*
X55010808Y-97204452D02*
X55153665Y-97204452D01*
X55153665Y-97204452D02*
X55248903Y-97252071D01*
X56439379Y-96823500D02*
X55582237Y-98109214D01*
X56772713Y-97871119D02*
X56772713Y-96871119D01*
X57201284Y-97871119D02*
X57201284Y-97347309D01*
X57201284Y-97347309D02*
X57153665Y-97252071D01*
X57153665Y-97252071D02*
X57058427Y-97204452D01*
X57058427Y-97204452D02*
X56915570Y-97204452D01*
X56915570Y-97204452D02*
X56820332Y-97252071D01*
X56820332Y-97252071D02*
X56772713Y-97299690D01*
X57677475Y-97204452D02*
X57677475Y-98204452D01*
X57677475Y-97252071D02*
X57772713Y-97204452D01*
X57772713Y-97204452D02*
X57963189Y-97204452D01*
X57963189Y-97204452D02*
X58058427Y-97252071D01*
X58058427Y-97252071D02*
X58106046Y-97299690D01*
X58106046Y-97299690D02*
X58153665Y-97394928D01*
X58153665Y-97394928D02*
X58153665Y-97680642D01*
X58153665Y-97680642D02*
X58106046Y-97775880D01*
X58106046Y-97775880D02*
X58058427Y-97823500D01*
X58058427Y-97823500D02*
X57963189Y-97871119D01*
X57963189Y-97871119D02*
X57772713Y-97871119D01*
X57772713Y-97871119D02*
X57677475Y-97823500D01*
X58582237Y-97871119D02*
X58582237Y-97204452D01*
X58582237Y-96871119D02*
X58534618Y-96918738D01*
X58534618Y-96918738D02*
X58582237Y-96966357D01*
X58582237Y-96966357D02*
X58629856Y-96918738D01*
X58629856Y-96918738D02*
X58582237Y-96871119D01*
X58582237Y-96871119D02*
X58582237Y-96966357D01*
X58820332Y-97966357D02*
X59582236Y-97966357D01*
X59772713Y-97823500D02*
X59867951Y-97871119D01*
X59867951Y-97871119D02*
X60058427Y-97871119D01*
X60058427Y-97871119D02*
X60153665Y-97823500D01*
X60153665Y-97823500D02*
X60201284Y-97728261D01*
X60201284Y-97728261D02*
X60201284Y-97680642D01*
X60201284Y-97680642D02*
X60153665Y-97585404D01*
X60153665Y-97585404D02*
X60058427Y-97537785D01*
X60058427Y-97537785D02*
X59915570Y-97537785D01*
X59915570Y-97537785D02*
X59820332Y-97490166D01*
X59820332Y-97490166D02*
X59772713Y-97394928D01*
X59772713Y-97394928D02*
X59772713Y-97347309D01*
X59772713Y-97347309D02*
X59820332Y-97252071D01*
X59820332Y-97252071D02*
X59915570Y-97204452D01*
X59915570Y-97204452D02*
X60058427Y-97204452D01*
X60058427Y-97204452D02*
X60153665Y-97252071D01*
X60629856Y-97871119D02*
X60629856Y-97204452D01*
X60629856Y-97299690D02*
X60677475Y-97252071D01*
X60677475Y-97252071D02*
X60772713Y-97204452D01*
X60772713Y-97204452D02*
X60915570Y-97204452D01*
X60915570Y-97204452D02*
X61010808Y-97252071D01*
X61010808Y-97252071D02*
X61058427Y-97347309D01*
X61058427Y-97347309D02*
X61058427Y-97871119D01*
X61058427Y-97347309D02*
X61106046Y-97252071D01*
X61106046Y-97252071D02*
X61201284Y-97204452D01*
X61201284Y-97204452D02*
X61344141Y-97204452D01*
X61344141Y-97204452D02*
X61439380Y-97252071D01*
X61439380Y-97252071D02*
X61486999Y-97347309D01*
X61486999Y-97347309D02*
X61486999Y-97871119D01*
X62391760Y-97871119D02*
X62391760Y-97347309D01*
X62391760Y-97347309D02*
X62344141Y-97252071D01*
X62344141Y-97252071D02*
X62248903Y-97204452D01*
X62248903Y-97204452D02*
X62058427Y-97204452D01*
X62058427Y-97204452D02*
X61963189Y-97252071D01*
X62391760Y-97823500D02*
X62296522Y-97871119D01*
X62296522Y-97871119D02*
X62058427Y-97871119D01*
X62058427Y-97871119D02*
X61963189Y-97823500D01*
X61963189Y-97823500D02*
X61915570Y-97728261D01*
X61915570Y-97728261D02*
X61915570Y-97633023D01*
X61915570Y-97633023D02*
X61963189Y-97537785D01*
X61963189Y-97537785D02*
X62058427Y-97490166D01*
X62058427Y-97490166D02*
X62296522Y-97490166D01*
X62296522Y-97490166D02*
X62391760Y-97442547D01*
X62867951Y-97871119D02*
X62867951Y-97204452D01*
X62867951Y-97394928D02*
X62915570Y-97299690D01*
X62915570Y-97299690D02*
X62963189Y-97252071D01*
X62963189Y-97252071D02*
X63058427Y-97204452D01*
X63058427Y-97204452D02*
X63153665Y-97204452D01*
X63344142Y-97204452D02*
X63725094Y-97204452D01*
X63486999Y-96871119D02*
X63486999Y-97728261D01*
X63486999Y-97728261D02*
X63534618Y-97823500D01*
X63534618Y-97823500D02*
X63629856Y-97871119D01*
X63629856Y-97871119D02*
X63725094Y-97871119D01*
X63820333Y-97966357D02*
X64582237Y-97966357D01*
X64820333Y-97204452D02*
X64820333Y-98204452D01*
X64820333Y-97252071D02*
X64915571Y-97204452D01*
X64915571Y-97204452D02*
X65106047Y-97204452D01*
X65106047Y-97204452D02*
X65201285Y-97252071D01*
X65201285Y-97252071D02*
X65248904Y-97299690D01*
X65248904Y-97299690D02*
X65296523Y-97394928D01*
X65296523Y-97394928D02*
X65296523Y-97680642D01*
X65296523Y-97680642D02*
X65248904Y-97775880D01*
X65248904Y-97775880D02*
X65201285Y-97823500D01*
X65201285Y-97823500D02*
X65106047Y-97871119D01*
X65106047Y-97871119D02*
X64915571Y-97871119D01*
X64915571Y-97871119D02*
X64820333Y-97823500D01*
X65867952Y-97871119D02*
X65772714Y-97823500D01*
X65772714Y-97823500D02*
X65725095Y-97728261D01*
X65725095Y-97728261D02*
X65725095Y-96871119D01*
X66677476Y-97871119D02*
X66677476Y-97347309D01*
X66677476Y-97347309D02*
X66629857Y-97252071D01*
X66629857Y-97252071D02*
X66534619Y-97204452D01*
X66534619Y-97204452D02*
X66344143Y-97204452D01*
X66344143Y-97204452D02*
X66248905Y-97252071D01*
X66677476Y-97823500D02*
X66582238Y-97871119D01*
X66582238Y-97871119D02*
X66344143Y-97871119D01*
X66344143Y-97871119D02*
X66248905Y-97823500D01*
X66248905Y-97823500D02*
X66201286Y-97728261D01*
X66201286Y-97728261D02*
X66201286Y-97633023D01*
X66201286Y-97633023D02*
X66248905Y-97537785D01*
X66248905Y-97537785D02*
X66344143Y-97490166D01*
X66344143Y-97490166D02*
X66582238Y-97490166D01*
X66582238Y-97490166D02*
X66677476Y-97442547D01*
X67153667Y-97204452D02*
X67153667Y-97871119D01*
X67153667Y-97299690D02*
X67201286Y-97252071D01*
X67201286Y-97252071D02*
X67296524Y-97204452D01*
X67296524Y-97204452D02*
X67439381Y-97204452D01*
X67439381Y-97204452D02*
X67534619Y-97252071D01*
X67534619Y-97252071D02*
X67582238Y-97347309D01*
X67582238Y-97347309D02*
X67582238Y-97871119D01*
X67915572Y-97204452D02*
X68296524Y-97204452D01*
X68058429Y-96871119D02*
X68058429Y-97728261D01*
X68058429Y-97728261D02*
X68106048Y-97823500D01*
X68106048Y-97823500D02*
X68201286Y-97871119D01*
X68201286Y-97871119D02*
X68296524Y-97871119D01*
X68582239Y-97823500D02*
X68677477Y-97871119D01*
X68677477Y-97871119D02*
X68867953Y-97871119D01*
X68867953Y-97871119D02*
X68963191Y-97823500D01*
X68963191Y-97823500D02*
X69010810Y-97728261D01*
X69010810Y-97728261D02*
X69010810Y-97680642D01*
X69010810Y-97680642D02*
X68963191Y-97585404D01*
X68963191Y-97585404D02*
X68867953Y-97537785D01*
X68867953Y-97537785D02*
X68725096Y-97537785D01*
X68725096Y-97537785D02*
X68629858Y-97490166D01*
X68629858Y-97490166D02*
X68582239Y-97394928D01*
X68582239Y-97394928D02*
X68582239Y-97347309D01*
X68582239Y-97347309D02*
X68629858Y-97252071D01*
X68629858Y-97252071D02*
X68725096Y-97204452D01*
X68725096Y-97204452D02*
X68867953Y-97204452D01*
X68867953Y-97204452D02*
X68963191Y-97252071D01*
D11*
X63161027Y-57872419D02*
X63494360Y-58872419D01*
X63494360Y-58872419D02*
X63827693Y-57872419D01*
X64161027Y-58872419D02*
X64161027Y-57872419D01*
X64161027Y-57872419D02*
X64399122Y-57872419D01*
X64399122Y-57872419D02*
X64541979Y-57920038D01*
X64541979Y-57920038D02*
X64637217Y-58015276D01*
X64637217Y-58015276D02*
X64684836Y-58110514D01*
X64684836Y-58110514D02*
X64732455Y-58300990D01*
X64732455Y-58300990D02*
X64732455Y-58443847D01*
X64732455Y-58443847D02*
X64684836Y-58634323D01*
X64684836Y-58634323D02*
X64637217Y-58729561D01*
X64637217Y-58729561D02*
X64541979Y-58824800D01*
X64541979Y-58824800D02*
X64399122Y-58872419D01*
X64399122Y-58872419D02*
X64161027Y-58872419D01*
X65732455Y-58777180D02*
X65684836Y-58824800D01*
X65684836Y-58824800D02*
X65541979Y-58872419D01*
X65541979Y-58872419D02*
X65446741Y-58872419D01*
X65446741Y-58872419D02*
X65303884Y-58824800D01*
X65303884Y-58824800D02*
X65208646Y-58729561D01*
X65208646Y-58729561D02*
X65161027Y-58634323D01*
X65161027Y-58634323D02*
X65113408Y-58443847D01*
X65113408Y-58443847D02*
X65113408Y-58300990D01*
X65113408Y-58300990D02*
X65161027Y-58110514D01*
X65161027Y-58110514D02*
X65208646Y-58015276D01*
X65208646Y-58015276D02*
X65303884Y-57920038D01*
X65303884Y-57920038D02*
X65446741Y-57872419D01*
X65446741Y-57872419D02*
X65541979Y-57872419D01*
X65541979Y-57872419D02*
X65684836Y-57920038D01*
X65684836Y-57920038D02*
X65732455Y-57967657D01*
X67446741Y-57920038D02*
X67351503Y-57872419D01*
X67351503Y-57872419D02*
X67208646Y-57872419D01*
X67208646Y-57872419D02*
X67065789Y-57920038D01*
X67065789Y-57920038D02*
X66970551Y-58015276D01*
X66970551Y-58015276D02*
X66922932Y-58110514D01*
X66922932Y-58110514D02*
X66875313Y-58300990D01*
X66875313Y-58300990D02*
X66875313Y-58443847D01*
X66875313Y-58443847D02*
X66922932Y-58634323D01*
X66922932Y-58634323D02*
X66970551Y-58729561D01*
X66970551Y-58729561D02*
X67065789Y-58824800D01*
X67065789Y-58824800D02*
X67208646Y-58872419D01*
X67208646Y-58872419D02*
X67303884Y-58872419D01*
X67303884Y-58872419D02*
X67446741Y-58824800D01*
X67446741Y-58824800D02*
X67494360Y-58777180D01*
X67494360Y-58777180D02*
X67494360Y-58443847D01*
X67494360Y-58443847D02*
X67303884Y-58443847D01*
X67922932Y-58872419D02*
X67922932Y-57872419D01*
X67922932Y-57872419D02*
X68494360Y-58872419D01*
X68494360Y-58872419D02*
X68494360Y-57872419D01*
X68970551Y-58872419D02*
X68970551Y-57872419D01*
X68970551Y-57872419D02*
X69208646Y-57872419D01*
X69208646Y-57872419D02*
X69351503Y-57920038D01*
X69351503Y-57920038D02*
X69446741Y-58015276D01*
X69446741Y-58015276D02*
X69494360Y-58110514D01*
X69494360Y-58110514D02*
X69541979Y-58300990D01*
X69541979Y-58300990D02*
X69541979Y-58443847D01*
X69541979Y-58443847D02*
X69494360Y-58634323D01*
X69494360Y-58634323D02*
X69446741Y-58729561D01*
X69446741Y-58729561D02*
X69351503Y-58824800D01*
X69351503Y-58824800D02*
X69208646Y-58872419D01*
X69208646Y-58872419D02*
X68970551Y-58872419D01*
X70684837Y-58824800D02*
X70827694Y-58872419D01*
X70827694Y-58872419D02*
X71065789Y-58872419D01*
X71065789Y-58872419D02*
X71161027Y-58824800D01*
X71161027Y-58824800D02*
X71208646Y-58777180D01*
X71208646Y-58777180D02*
X71256265Y-58681942D01*
X71256265Y-58681942D02*
X71256265Y-58586704D01*
X71256265Y-58586704D02*
X71208646Y-58491466D01*
X71208646Y-58491466D02*
X71161027Y-58443847D01*
X71161027Y-58443847D02*
X71065789Y-58396228D01*
X71065789Y-58396228D02*
X70875313Y-58348609D01*
X70875313Y-58348609D02*
X70780075Y-58300990D01*
X70780075Y-58300990D02*
X70732456Y-58253371D01*
X70732456Y-58253371D02*
X70684837Y-58158133D01*
X70684837Y-58158133D02*
X70684837Y-58062895D01*
X70684837Y-58062895D02*
X70732456Y-57967657D01*
X70732456Y-57967657D02*
X70780075Y-57920038D01*
X70780075Y-57920038D02*
X70875313Y-57872419D01*
X70875313Y-57872419D02*
X71113408Y-57872419D01*
X71113408Y-57872419D02*
X71256265Y-57920038D01*
X71684837Y-58872419D02*
X71684837Y-57872419D01*
X71684837Y-57872419D02*
X71922932Y-57872419D01*
X71922932Y-57872419D02*
X72065789Y-57920038D01*
X72065789Y-57920038D02*
X72161027Y-58015276D01*
X72161027Y-58015276D02*
X72208646Y-58110514D01*
X72208646Y-58110514D02*
X72256265Y-58300990D01*
X72256265Y-58300990D02*
X72256265Y-58443847D01*
X72256265Y-58443847D02*
X72208646Y-58634323D01*
X72208646Y-58634323D02*
X72161027Y-58729561D01*
X72161027Y-58729561D02*
X72065789Y-58824800D01*
X72065789Y-58824800D02*
X71922932Y-58872419D01*
X71922932Y-58872419D02*
X71684837Y-58872419D01*
X72637218Y-58586704D02*
X73113408Y-58586704D01*
X72541980Y-58872419D02*
X72875313Y-57872419D01*
X72875313Y-57872419D02*
X73208646Y-58872419D01*
X74256266Y-58824800D02*
X74399123Y-58872419D01*
X74399123Y-58872419D02*
X74637218Y-58872419D01*
X74637218Y-58872419D02*
X74732456Y-58824800D01*
X74732456Y-58824800D02*
X74780075Y-58777180D01*
X74780075Y-58777180D02*
X74827694Y-58681942D01*
X74827694Y-58681942D02*
X74827694Y-58586704D01*
X74827694Y-58586704D02*
X74780075Y-58491466D01*
X74780075Y-58491466D02*
X74732456Y-58443847D01*
X74732456Y-58443847D02*
X74637218Y-58396228D01*
X74637218Y-58396228D02*
X74446742Y-58348609D01*
X74446742Y-58348609D02*
X74351504Y-58300990D01*
X74351504Y-58300990D02*
X74303885Y-58253371D01*
X74303885Y-58253371D02*
X74256266Y-58158133D01*
X74256266Y-58158133D02*
X74256266Y-58062895D01*
X74256266Y-58062895D02*
X74303885Y-57967657D01*
X74303885Y-57967657D02*
X74351504Y-57920038D01*
X74351504Y-57920038D02*
X74446742Y-57872419D01*
X74446742Y-57872419D02*
X74684837Y-57872419D01*
X74684837Y-57872419D02*
X74827694Y-57920038D01*
X75827694Y-58777180D02*
X75780075Y-58824800D01*
X75780075Y-58824800D02*
X75637218Y-58872419D01*
X75637218Y-58872419D02*
X75541980Y-58872419D01*
X75541980Y-58872419D02*
X75399123Y-58824800D01*
X75399123Y-58824800D02*
X75303885Y-58729561D01*
X75303885Y-58729561D02*
X75256266Y-58634323D01*
X75256266Y-58634323D02*
X75208647Y-58443847D01*
X75208647Y-58443847D02*
X75208647Y-58300990D01*
X75208647Y-58300990D02*
X75256266Y-58110514D01*
X75256266Y-58110514D02*
X75303885Y-58015276D01*
X75303885Y-58015276D02*
X75399123Y-57920038D01*
X75399123Y-57920038D02*
X75541980Y-57872419D01*
X75541980Y-57872419D02*
X75637218Y-57872419D01*
X75637218Y-57872419D02*
X75780075Y-57920038D01*
X75780075Y-57920038D02*
X75827694Y-57967657D01*
X76732456Y-58872419D02*
X76256266Y-58872419D01*
X76256266Y-58872419D02*
X76256266Y-57872419D01*
D12*
X49753333Y-70454819D02*
X49420000Y-69978628D01*
X49181905Y-70454819D02*
X49181905Y-69454819D01*
X49181905Y-69454819D02*
X49562857Y-69454819D01*
X49562857Y-69454819D02*
X49658095Y-69502438D01*
X49658095Y-69502438D02*
X49705714Y-69550057D01*
X49705714Y-69550057D02*
X49753333Y-69645295D01*
X49753333Y-69645295D02*
X49753333Y-69788152D01*
X49753333Y-69788152D02*
X49705714Y-69883390D01*
X49705714Y-69883390D02*
X49658095Y-69931009D01*
X49658095Y-69931009D02*
X49562857Y-69978628D01*
X49562857Y-69978628D02*
X49181905Y-69978628D01*
X50086667Y-69454819D02*
X50705714Y-69454819D01*
X50705714Y-69454819D02*
X50372381Y-69835771D01*
X50372381Y-69835771D02*
X50515238Y-69835771D01*
X50515238Y-69835771D02*
X50610476Y-69883390D01*
X50610476Y-69883390D02*
X50658095Y-69931009D01*
X50658095Y-69931009D02*
X50705714Y-70026247D01*
X50705714Y-70026247D02*
X50705714Y-70264342D01*
X50705714Y-70264342D02*
X50658095Y-70359580D01*
X50658095Y-70359580D02*
X50610476Y-70407200D01*
X50610476Y-70407200D02*
X50515238Y-70454819D01*
X50515238Y-70454819D02*
X50229524Y-70454819D01*
X50229524Y-70454819D02*
X50134286Y-70407200D01*
X50134286Y-70407200D02*
X50086667Y-70359580D01*
X63523810Y-84454819D02*
X63523810Y-83454819D01*
X63952381Y-83550057D02*
X64000000Y-83502438D01*
X64000000Y-83502438D02*
X64095238Y-83454819D01*
X64095238Y-83454819D02*
X64333333Y-83454819D01*
X64333333Y-83454819D02*
X64428571Y-83502438D01*
X64428571Y-83502438D02*
X64476190Y-83550057D01*
X64476190Y-83550057D02*
X64523809Y-83645295D01*
X64523809Y-83645295D02*
X64523809Y-83740533D01*
X64523809Y-83740533D02*
X64476190Y-83883390D01*
X64476190Y-83883390D02*
X63904762Y-84454819D01*
X63904762Y-84454819D02*
X64523809Y-84454819D01*
X65523809Y-84359580D02*
X65476190Y-84407200D01*
X65476190Y-84407200D02*
X65333333Y-84454819D01*
X65333333Y-84454819D02*
X65238095Y-84454819D01*
X65238095Y-84454819D02*
X65095238Y-84407200D01*
X65095238Y-84407200D02*
X65000000Y-84311961D01*
X65000000Y-84311961D02*
X64952381Y-84216723D01*
X64952381Y-84216723D02*
X64904762Y-84026247D01*
X64904762Y-84026247D02*
X64904762Y-83883390D01*
X64904762Y-83883390D02*
X64952381Y-83692914D01*
X64952381Y-83692914D02*
X65000000Y-83597676D01*
X65000000Y-83597676D02*
X65095238Y-83502438D01*
X65095238Y-83502438D02*
X65238095Y-83454819D01*
X65238095Y-83454819D02*
X65333333Y-83454819D01*
X65333333Y-83454819D02*
X65476190Y-83502438D01*
X65476190Y-83502438D02*
X65523809Y-83550057D01*
X63500000Y-67454819D02*
X63500000Y-66454819D01*
X63928571Y-66550057D02*
X63976190Y-66502438D01*
X63976190Y-66502438D02*
X64071428Y-66454819D01*
X64071428Y-66454819D02*
X64309523Y-66454819D01*
X64309523Y-66454819D02*
X64404761Y-66502438D01*
X64404761Y-66502438D02*
X64452380Y-66550057D01*
X64452380Y-66550057D02*
X64499999Y-66645295D01*
X64499999Y-66645295D02*
X64499999Y-66740533D01*
X64499999Y-66740533D02*
X64452380Y-66883390D01*
X64452380Y-66883390D02*
X63880952Y-67454819D01*
X63880952Y-67454819D02*
X64499999Y-67454819D01*
X65499999Y-67359580D02*
X65452380Y-67407200D01*
X65452380Y-67407200D02*
X65309523Y-67454819D01*
X65309523Y-67454819D02*
X65214285Y-67454819D01*
X65214285Y-67454819D02*
X65071428Y-67407200D01*
X65071428Y-67407200D02*
X64976190Y-67311961D01*
X64976190Y-67311961D02*
X64928571Y-67216723D01*
X64928571Y-67216723D02*
X64880952Y-67026247D01*
X64880952Y-67026247D02*
X64880952Y-66883390D01*
X64880952Y-66883390D02*
X64928571Y-66692914D01*
X64928571Y-66692914D02*
X64976190Y-66597676D01*
X64976190Y-66597676D02*
X65071428Y-66502438D01*
X65071428Y-66502438D02*
X65214285Y-66454819D01*
X65214285Y-66454819D02*
X65309523Y-66454819D01*
X65309523Y-66454819D02*
X65452380Y-66502438D01*
X65452380Y-66502438D02*
X65499999Y-66550057D01*
X66690476Y-67454819D02*
X66690476Y-66454819D01*
X66690476Y-66454819D02*
X66928571Y-66454819D01*
X66928571Y-66454819D02*
X67071428Y-66502438D01*
X67071428Y-66502438D02*
X67166666Y-66597676D01*
X67166666Y-66597676D02*
X67214285Y-66692914D01*
X67214285Y-66692914D02*
X67261904Y-66883390D01*
X67261904Y-66883390D02*
X67261904Y-67026247D01*
X67261904Y-67026247D02*
X67214285Y-67216723D01*
X67214285Y-67216723D02*
X67166666Y-67311961D01*
X67166666Y-67311961D02*
X67071428Y-67407200D01*
X67071428Y-67407200D02*
X66928571Y-67454819D01*
X66928571Y-67454819D02*
X66690476Y-67454819D01*
X67642857Y-66550057D02*
X67690476Y-66502438D01*
X67690476Y-66502438D02*
X67785714Y-66454819D01*
X67785714Y-66454819D02*
X68023809Y-66454819D01*
X68023809Y-66454819D02*
X68119047Y-66502438D01*
X68119047Y-66502438D02*
X68166666Y-66550057D01*
X68166666Y-66550057D02*
X68214285Y-66645295D01*
X68214285Y-66645295D02*
X68214285Y-66740533D01*
X68214285Y-66740533D02*
X68166666Y-66883390D01*
X68166666Y-66883390D02*
X67595238Y-67454819D01*
X67595238Y-67454819D02*
X68214285Y-67454819D01*
X68642857Y-67073866D02*
X69404762Y-67073866D01*
X69880952Y-66788152D02*
X69880952Y-67788152D01*
X69880952Y-66835771D02*
X69976190Y-66788152D01*
X69976190Y-66788152D02*
X70166666Y-66788152D01*
X70166666Y-66788152D02*
X70261904Y-66835771D01*
X70261904Y-66835771D02*
X70309523Y-66883390D01*
X70309523Y-66883390D02*
X70357142Y-66978628D01*
X70357142Y-66978628D02*
X70357142Y-67264342D01*
X70357142Y-67264342D02*
X70309523Y-67359580D01*
X70309523Y-67359580D02*
X70261904Y-67407200D01*
X70261904Y-67407200D02*
X70166666Y-67454819D01*
X70166666Y-67454819D02*
X69976190Y-67454819D01*
X69976190Y-67454819D02*
X69880952Y-67407200D01*
X70928571Y-67454819D02*
X70833333Y-67407200D01*
X70833333Y-67407200D02*
X70785714Y-67359580D01*
X70785714Y-67359580D02*
X70738095Y-67264342D01*
X70738095Y-67264342D02*
X70738095Y-66978628D01*
X70738095Y-66978628D02*
X70785714Y-66883390D01*
X70785714Y-66883390D02*
X70833333Y-66835771D01*
X70833333Y-66835771D02*
X70928571Y-66788152D01*
X70928571Y-66788152D02*
X71071428Y-66788152D01*
X71071428Y-66788152D02*
X71166666Y-66835771D01*
X71166666Y-66835771D02*
X71214285Y-66883390D01*
X71214285Y-66883390D02*
X71261904Y-66978628D01*
X71261904Y-66978628D02*
X71261904Y-67264342D01*
X71261904Y-67264342D02*
X71214285Y-67359580D01*
X71214285Y-67359580D02*
X71166666Y-67407200D01*
X71166666Y-67407200D02*
X71071428Y-67454819D01*
X71071428Y-67454819D02*
X70928571Y-67454819D01*
X71595238Y-66788152D02*
X71785714Y-67454819D01*
X71785714Y-67454819D02*
X71976190Y-66978628D01*
X71976190Y-66978628D02*
X72166666Y-67454819D01*
X72166666Y-67454819D02*
X72357142Y-66788152D01*
X73119047Y-67407200D02*
X73023809Y-67454819D01*
X73023809Y-67454819D02*
X72833333Y-67454819D01*
X72833333Y-67454819D02*
X72738095Y-67407200D01*
X72738095Y-67407200D02*
X72690476Y-67311961D01*
X72690476Y-67311961D02*
X72690476Y-66931009D01*
X72690476Y-66931009D02*
X72738095Y-66835771D01*
X72738095Y-66835771D02*
X72833333Y-66788152D01*
X72833333Y-66788152D02*
X73023809Y-66788152D01*
X73023809Y-66788152D02*
X73119047Y-66835771D01*
X73119047Y-66835771D02*
X73166666Y-66931009D01*
X73166666Y-66931009D02*
X73166666Y-67026247D01*
X73166666Y-67026247D02*
X72690476Y-67121485D01*
X73595238Y-67454819D02*
X73595238Y-66788152D01*
X73595238Y-66978628D02*
X73642857Y-66883390D01*
X73642857Y-66883390D02*
X73690476Y-66835771D01*
X73690476Y-66835771D02*
X73785714Y-66788152D01*
X73785714Y-66788152D02*
X73880952Y-66788152D01*
X74595238Y-67407200D02*
X74500000Y-67454819D01*
X74500000Y-67454819D02*
X74309524Y-67454819D01*
X74309524Y-67454819D02*
X74214286Y-67407200D01*
X74214286Y-67407200D02*
X74166667Y-67311961D01*
X74166667Y-67311961D02*
X74166667Y-66931009D01*
X74166667Y-66931009D02*
X74214286Y-66835771D01*
X74214286Y-66835771D02*
X74309524Y-66788152D01*
X74309524Y-66788152D02*
X74500000Y-66788152D01*
X74500000Y-66788152D02*
X74595238Y-66835771D01*
X74595238Y-66835771D02*
X74642857Y-66931009D01*
X74642857Y-66931009D02*
X74642857Y-67026247D01*
X74642857Y-67026247D02*
X74166667Y-67121485D01*
X75500000Y-67454819D02*
X75500000Y-66454819D01*
X75500000Y-67407200D02*
X75404762Y-67454819D01*
X75404762Y-67454819D02*
X75214286Y-67454819D01*
X75214286Y-67454819D02*
X75119048Y-67407200D01*
X75119048Y-67407200D02*
X75071429Y-67359580D01*
X75071429Y-67359580D02*
X75023810Y-67264342D01*
X75023810Y-67264342D02*
X75023810Y-66978628D01*
X75023810Y-66978628D02*
X75071429Y-66883390D01*
X75071429Y-66883390D02*
X75119048Y-66835771D01*
X75119048Y-66835771D02*
X75214286Y-66788152D01*
X75214286Y-66788152D02*
X75404762Y-66788152D01*
X75404762Y-66788152D02*
X75500000Y-66835771D01*
X54416667Y-79904819D02*
X54416667Y-78904819D01*
X54416667Y-78904819D02*
X54797619Y-78904819D01*
X54797619Y-78904819D02*
X54892857Y-78952438D01*
X54892857Y-78952438D02*
X54940476Y-79000057D01*
X54940476Y-79000057D02*
X54988095Y-79095295D01*
X54988095Y-79095295D02*
X54988095Y-79238152D01*
X54988095Y-79238152D02*
X54940476Y-79333390D01*
X54940476Y-79333390D02*
X54892857Y-79381009D01*
X54892857Y-79381009D02*
X54797619Y-79428628D01*
X54797619Y-79428628D02*
X54416667Y-79428628D01*
X55845238Y-79238152D02*
X55845238Y-79904819D01*
X55416667Y-79238152D02*
X55416667Y-79761961D01*
X55416667Y-79761961D02*
X55464286Y-79857200D01*
X55464286Y-79857200D02*
X55559524Y-79904819D01*
X55559524Y-79904819D02*
X55702381Y-79904819D01*
X55702381Y-79904819D02*
X55797619Y-79857200D01*
X55797619Y-79857200D02*
X55845238Y-79809580D01*
X56321429Y-79904819D02*
X56321429Y-79238152D01*
X56321429Y-79333390D02*
X56369048Y-79285771D01*
X56369048Y-79285771D02*
X56464286Y-79238152D01*
X56464286Y-79238152D02*
X56607143Y-79238152D01*
X56607143Y-79238152D02*
X56702381Y-79285771D01*
X56702381Y-79285771D02*
X56750000Y-79381009D01*
X56750000Y-79381009D02*
X56750000Y-79904819D01*
X56750000Y-79381009D02*
X56797619Y-79285771D01*
X56797619Y-79285771D02*
X56892857Y-79238152D01*
X56892857Y-79238152D02*
X57035714Y-79238152D01*
X57035714Y-79238152D02*
X57130953Y-79285771D01*
X57130953Y-79285771D02*
X57178572Y-79381009D01*
X57178572Y-79381009D02*
X57178572Y-79904819D01*
X57654762Y-79238152D02*
X57654762Y-80238152D01*
X57654762Y-79285771D02*
X57750000Y-79238152D01*
X57750000Y-79238152D02*
X57940476Y-79238152D01*
X57940476Y-79238152D02*
X58035714Y-79285771D01*
X58035714Y-79285771D02*
X58083333Y-79333390D01*
X58083333Y-79333390D02*
X58130952Y-79428628D01*
X58130952Y-79428628D02*
X58130952Y-79714342D01*
X58130952Y-79714342D02*
X58083333Y-79809580D01*
X58083333Y-79809580D02*
X58035714Y-79857200D01*
X58035714Y-79857200D02*
X57940476Y-79904819D01*
X57940476Y-79904819D02*
X57750000Y-79904819D01*
X57750000Y-79904819D02*
X57654762Y-79857200D01*
X56404761Y-76050057D02*
X56309523Y-76002438D01*
X56309523Y-76002438D02*
X56214285Y-75907200D01*
X56214285Y-75907200D02*
X56071428Y-75764342D01*
X56071428Y-75764342D02*
X55976190Y-75716723D01*
X55976190Y-75716723D02*
X55880952Y-75716723D01*
X55928571Y-75954819D02*
X55833333Y-75907200D01*
X55833333Y-75907200D02*
X55738095Y-75811961D01*
X55738095Y-75811961D02*
X55690476Y-75621485D01*
X55690476Y-75621485D02*
X55690476Y-75288152D01*
X55690476Y-75288152D02*
X55738095Y-75097676D01*
X55738095Y-75097676D02*
X55833333Y-75002438D01*
X55833333Y-75002438D02*
X55928571Y-74954819D01*
X55928571Y-74954819D02*
X56119047Y-74954819D01*
X56119047Y-74954819D02*
X56214285Y-75002438D01*
X56214285Y-75002438D02*
X56309523Y-75097676D01*
X56309523Y-75097676D02*
X56357142Y-75288152D01*
X56357142Y-75288152D02*
X56357142Y-75621485D01*
X56357142Y-75621485D02*
X56309523Y-75811961D01*
X56309523Y-75811961D02*
X56214285Y-75907200D01*
X56214285Y-75907200D02*
X56119047Y-75954819D01*
X56119047Y-75954819D02*
X55928571Y-75954819D01*
X57309523Y-75954819D02*
X56738095Y-75954819D01*
X57023809Y-75954819D02*
X57023809Y-74954819D01*
X57023809Y-74954819D02*
X56928571Y-75097676D01*
X56928571Y-75097676D02*
X56833333Y-75192914D01*
X56833333Y-75192914D02*
X56738095Y-75240533D01*
X45333333Y-86359580D02*
X45285714Y-86407200D01*
X45285714Y-86407200D02*
X45142857Y-86454819D01*
X45142857Y-86454819D02*
X45047619Y-86454819D01*
X45047619Y-86454819D02*
X44904762Y-86407200D01*
X44904762Y-86407200D02*
X44809524Y-86311961D01*
X44809524Y-86311961D02*
X44761905Y-86216723D01*
X44761905Y-86216723D02*
X44714286Y-86026247D01*
X44714286Y-86026247D02*
X44714286Y-85883390D01*
X44714286Y-85883390D02*
X44761905Y-85692914D01*
X44761905Y-85692914D02*
X44809524Y-85597676D01*
X44809524Y-85597676D02*
X44904762Y-85502438D01*
X44904762Y-85502438D02*
X45047619Y-85454819D01*
X45047619Y-85454819D02*
X45142857Y-85454819D01*
X45142857Y-85454819D02*
X45285714Y-85502438D01*
X45285714Y-85502438D02*
X45333333Y-85550057D01*
X45666667Y-85454819D02*
X46285714Y-85454819D01*
X46285714Y-85454819D02*
X45952381Y-85835771D01*
X45952381Y-85835771D02*
X46095238Y-85835771D01*
X46095238Y-85835771D02*
X46190476Y-85883390D01*
X46190476Y-85883390D02*
X46238095Y-85931009D01*
X46238095Y-85931009D02*
X46285714Y-86026247D01*
X46285714Y-86026247D02*
X46285714Y-86264342D01*
X46285714Y-86264342D02*
X46238095Y-86359580D01*
X46238095Y-86359580D02*
X46190476Y-86407200D01*
X46190476Y-86407200D02*
X46095238Y-86454819D01*
X46095238Y-86454819D02*
X45809524Y-86454819D01*
X45809524Y-86454819D02*
X45714286Y-86407200D01*
X45714286Y-86407200D02*
X45666667Y-86359580D01*
X63523810Y-92954819D02*
X63523810Y-91954819D01*
X63952381Y-92050057D02*
X64000000Y-92002438D01*
X64000000Y-92002438D02*
X64095238Y-91954819D01*
X64095238Y-91954819D02*
X64333333Y-91954819D01*
X64333333Y-91954819D02*
X64428571Y-92002438D01*
X64428571Y-92002438D02*
X64476190Y-92050057D01*
X64476190Y-92050057D02*
X64523809Y-92145295D01*
X64523809Y-92145295D02*
X64523809Y-92240533D01*
X64523809Y-92240533D02*
X64476190Y-92383390D01*
X64476190Y-92383390D02*
X63904762Y-92954819D01*
X63904762Y-92954819D02*
X64523809Y-92954819D01*
X65523809Y-92859580D02*
X65476190Y-92907200D01*
X65476190Y-92907200D02*
X65333333Y-92954819D01*
X65333333Y-92954819D02*
X65238095Y-92954819D01*
X65238095Y-92954819D02*
X65095238Y-92907200D01*
X65095238Y-92907200D02*
X65000000Y-92811961D01*
X65000000Y-92811961D02*
X64952381Y-92716723D01*
X64952381Y-92716723D02*
X64904762Y-92526247D01*
X64904762Y-92526247D02*
X64904762Y-92383390D01*
X64904762Y-92383390D02*
X64952381Y-92192914D01*
X64952381Y-92192914D02*
X65000000Y-92097676D01*
X65000000Y-92097676D02*
X65095238Y-92002438D01*
X65095238Y-92002438D02*
X65238095Y-91954819D01*
X65238095Y-91954819D02*
X65333333Y-91954819D01*
X65333333Y-91954819D02*
X65476190Y-92002438D01*
X65476190Y-92002438D02*
X65523809Y-92050057D01*
X32369048Y-65771486D02*
X32369048Y-66581009D01*
X32369048Y-66581009D02*
X32416667Y-66676247D01*
X32416667Y-66676247D02*
X32464286Y-66723867D01*
X32464286Y-66723867D02*
X32559524Y-66771486D01*
X32559524Y-66771486D02*
X32750000Y-66771486D01*
X32750000Y-66771486D02*
X32845238Y-66723867D01*
X32845238Y-66723867D02*
X32892857Y-66676247D01*
X32892857Y-66676247D02*
X32940476Y-66581009D01*
X32940476Y-66581009D02*
X32940476Y-65771486D01*
X33369048Y-66723867D02*
X33511905Y-66771486D01*
X33511905Y-66771486D02*
X33750000Y-66771486D01*
X33750000Y-66771486D02*
X33845238Y-66723867D01*
X33845238Y-66723867D02*
X33892857Y-66676247D01*
X33892857Y-66676247D02*
X33940476Y-66581009D01*
X33940476Y-66581009D02*
X33940476Y-66485771D01*
X33940476Y-66485771D02*
X33892857Y-66390533D01*
X33892857Y-66390533D02*
X33845238Y-66342914D01*
X33845238Y-66342914D02*
X33750000Y-66295295D01*
X33750000Y-66295295D02*
X33559524Y-66247676D01*
X33559524Y-66247676D02*
X33464286Y-66200057D01*
X33464286Y-66200057D02*
X33416667Y-66152438D01*
X33416667Y-66152438D02*
X33369048Y-66057200D01*
X33369048Y-66057200D02*
X33369048Y-65961962D01*
X33369048Y-65961962D02*
X33416667Y-65866724D01*
X33416667Y-65866724D02*
X33464286Y-65819105D01*
X33464286Y-65819105D02*
X33559524Y-65771486D01*
X33559524Y-65771486D02*
X33797619Y-65771486D01*
X33797619Y-65771486D02*
X33940476Y-65819105D01*
X34702381Y-66247676D02*
X34845238Y-66295295D01*
X34845238Y-66295295D02*
X34892857Y-66342914D01*
X34892857Y-66342914D02*
X34940476Y-66438152D01*
X34940476Y-66438152D02*
X34940476Y-66581009D01*
X34940476Y-66581009D02*
X34892857Y-66676247D01*
X34892857Y-66676247D02*
X34845238Y-66723867D01*
X34845238Y-66723867D02*
X34750000Y-66771486D01*
X34750000Y-66771486D02*
X34369048Y-66771486D01*
X34369048Y-66771486D02*
X34369048Y-65771486D01*
X34369048Y-65771486D02*
X34702381Y-65771486D01*
X34702381Y-65771486D02*
X34797619Y-65819105D01*
X34797619Y-65819105D02*
X34845238Y-65866724D01*
X34845238Y-65866724D02*
X34892857Y-65961962D01*
X34892857Y-65961962D02*
X34892857Y-66057200D01*
X34892857Y-66057200D02*
X34845238Y-66152438D01*
X34845238Y-66152438D02*
X34797619Y-66200057D01*
X34797619Y-66200057D02*
X34702381Y-66247676D01*
X34702381Y-66247676D02*
X34369048Y-66247676D01*
X35369048Y-66390533D02*
X36130953Y-66390533D01*
X37178571Y-66676247D02*
X37130952Y-66723867D01*
X37130952Y-66723867D02*
X36988095Y-66771486D01*
X36988095Y-66771486D02*
X36892857Y-66771486D01*
X36892857Y-66771486D02*
X36750000Y-66723867D01*
X36750000Y-66723867D02*
X36654762Y-66628628D01*
X36654762Y-66628628D02*
X36607143Y-66533390D01*
X36607143Y-66533390D02*
X36559524Y-66342914D01*
X36559524Y-66342914D02*
X36559524Y-66200057D01*
X36559524Y-66200057D02*
X36607143Y-66009581D01*
X36607143Y-66009581D02*
X36654762Y-65914343D01*
X36654762Y-65914343D02*
X36750000Y-65819105D01*
X36750000Y-65819105D02*
X36892857Y-65771486D01*
X36892857Y-65771486D02*
X36988095Y-65771486D01*
X36988095Y-65771486D02*
X37130952Y-65819105D01*
X37130952Y-65819105D02*
X37178571Y-65866724D01*
X33430682Y-45576247D02*
X33383063Y-45623867D01*
X33383063Y-45623867D02*
X33240206Y-45671486D01*
X33240206Y-45671486D02*
X33144968Y-45671486D01*
X33144968Y-45671486D02*
X33002111Y-45623867D01*
X33002111Y-45623867D02*
X32906873Y-45528628D01*
X32906873Y-45528628D02*
X32859254Y-45433390D01*
X32859254Y-45433390D02*
X32811635Y-45242914D01*
X32811635Y-45242914D02*
X32811635Y-45100057D01*
X32811635Y-45100057D02*
X32859254Y-44909581D01*
X32859254Y-44909581D02*
X32906873Y-44814343D01*
X32906873Y-44814343D02*
X33002111Y-44719105D01*
X33002111Y-44719105D02*
X33144968Y-44671486D01*
X33144968Y-44671486D02*
X33240206Y-44671486D01*
X33240206Y-44671486D02*
X33383063Y-44719105D01*
X33383063Y-44719105D02*
X33430682Y-44766724D01*
X33811635Y-44766724D02*
X33859254Y-44719105D01*
X33859254Y-44719105D02*
X33954492Y-44671486D01*
X33954492Y-44671486D02*
X34192587Y-44671486D01*
X34192587Y-44671486D02*
X34287825Y-44719105D01*
X34287825Y-44719105D02*
X34335444Y-44766724D01*
X34335444Y-44766724D02*
X34383063Y-44861962D01*
X34383063Y-44861962D02*
X34383063Y-44957200D01*
X34383063Y-44957200D02*
X34335444Y-45100057D01*
X34335444Y-45100057D02*
X33764016Y-45671486D01*
X33764016Y-45671486D02*
X34383063Y-45671486D01*
X69904819Y-56428571D02*
X68904819Y-56428571D01*
X68904819Y-56428571D02*
X69619104Y-56095238D01*
X69619104Y-56095238D02*
X68904819Y-55761905D01*
X68904819Y-55761905D02*
X69904819Y-55761905D01*
X69904819Y-55142857D02*
X69857200Y-55238095D01*
X69857200Y-55238095D02*
X69809580Y-55285714D01*
X69809580Y-55285714D02*
X69714342Y-55333333D01*
X69714342Y-55333333D02*
X69428628Y-55333333D01*
X69428628Y-55333333D02*
X69333390Y-55285714D01*
X69333390Y-55285714D02*
X69285771Y-55238095D01*
X69285771Y-55238095D02*
X69238152Y-55142857D01*
X69238152Y-55142857D02*
X69238152Y-55000000D01*
X69238152Y-55000000D02*
X69285771Y-54904762D01*
X69285771Y-54904762D02*
X69333390Y-54857143D01*
X69333390Y-54857143D02*
X69428628Y-54809524D01*
X69428628Y-54809524D02*
X69714342Y-54809524D01*
X69714342Y-54809524D02*
X69809580Y-54857143D01*
X69809580Y-54857143D02*
X69857200Y-54904762D01*
X69857200Y-54904762D02*
X69904819Y-55000000D01*
X69904819Y-55000000D02*
X69904819Y-55142857D01*
X69904819Y-54380952D02*
X69238152Y-54380952D01*
X68904819Y-54380952D02*
X68952438Y-54428571D01*
X68952438Y-54428571D02*
X69000057Y-54380952D01*
X69000057Y-54380952D02*
X68952438Y-54333333D01*
X68952438Y-54333333D02*
X68904819Y-54380952D01*
X68904819Y-54380952D02*
X69000057Y-54380952D01*
X69857200Y-53952381D02*
X69904819Y-53857143D01*
X69904819Y-53857143D02*
X69904819Y-53666667D01*
X69904819Y-53666667D02*
X69857200Y-53571429D01*
X69857200Y-53571429D02*
X69761961Y-53523810D01*
X69761961Y-53523810D02*
X69714342Y-53523810D01*
X69714342Y-53523810D02*
X69619104Y-53571429D01*
X69619104Y-53571429D02*
X69571485Y-53666667D01*
X69571485Y-53666667D02*
X69571485Y-53809524D01*
X69571485Y-53809524D02*
X69523866Y-53904762D01*
X69523866Y-53904762D02*
X69428628Y-53952381D01*
X69428628Y-53952381D02*
X69381009Y-53952381D01*
X69381009Y-53952381D02*
X69285771Y-53904762D01*
X69285771Y-53904762D02*
X69238152Y-53809524D01*
X69238152Y-53809524D02*
X69238152Y-53666667D01*
X69238152Y-53666667D02*
X69285771Y-53571429D01*
X69238152Y-53238095D02*
X69238152Y-52857143D01*
X68904819Y-53095238D02*
X69761961Y-53095238D01*
X69761961Y-53095238D02*
X69857200Y-53047619D01*
X69857200Y-53047619D02*
X69904819Y-52952381D01*
X69904819Y-52952381D02*
X69904819Y-52857143D01*
X69238152Y-52095238D02*
X69904819Y-52095238D01*
X69238152Y-52523809D02*
X69761961Y-52523809D01*
X69761961Y-52523809D02*
X69857200Y-52476190D01*
X69857200Y-52476190D02*
X69904819Y-52380952D01*
X69904819Y-52380952D02*
X69904819Y-52238095D01*
X69904819Y-52238095D02*
X69857200Y-52142857D01*
X69857200Y-52142857D02*
X69809580Y-52095238D01*
X69904819Y-51619047D02*
X69238152Y-51619047D01*
X69428628Y-51619047D02*
X69333390Y-51571428D01*
X69333390Y-51571428D02*
X69285771Y-51523809D01*
X69285771Y-51523809D02*
X69238152Y-51428571D01*
X69238152Y-51428571D02*
X69238152Y-51333333D01*
X69857200Y-50619047D02*
X69904819Y-50714285D01*
X69904819Y-50714285D02*
X69904819Y-50904761D01*
X69904819Y-50904761D02*
X69857200Y-50999999D01*
X69857200Y-50999999D02*
X69761961Y-51047618D01*
X69761961Y-51047618D02*
X69381009Y-51047618D01*
X69381009Y-51047618D02*
X69285771Y-50999999D01*
X69285771Y-50999999D02*
X69238152Y-50904761D01*
X69238152Y-50904761D02*
X69238152Y-50714285D01*
X69238152Y-50714285D02*
X69285771Y-50619047D01*
X69285771Y-50619047D02*
X69381009Y-50571428D01*
X69381009Y-50571428D02*
X69476247Y-50571428D01*
X69476247Y-50571428D02*
X69571485Y-51047618D01*
X69904819Y-49380951D02*
X68904819Y-49380951D01*
X68904819Y-49380951D02*
X68904819Y-49142856D01*
X68904819Y-49142856D02*
X68952438Y-48999999D01*
X68952438Y-48999999D02*
X69047676Y-48904761D01*
X69047676Y-48904761D02*
X69142914Y-48857142D01*
X69142914Y-48857142D02*
X69333390Y-48809523D01*
X69333390Y-48809523D02*
X69476247Y-48809523D01*
X69476247Y-48809523D02*
X69666723Y-48857142D01*
X69666723Y-48857142D02*
X69761961Y-48904761D01*
X69761961Y-48904761D02*
X69857200Y-48999999D01*
X69857200Y-48999999D02*
X69904819Y-49142856D01*
X69904819Y-49142856D02*
X69904819Y-49380951D01*
X69904819Y-47857142D02*
X69904819Y-48428570D01*
X69904819Y-48142856D02*
X68904819Y-48142856D01*
X68904819Y-48142856D02*
X69047676Y-48238094D01*
X69047676Y-48238094D02*
X69142914Y-48333332D01*
X69142914Y-48333332D02*
X69190533Y-48428570D01*
X69523866Y-47428570D02*
X69523866Y-46666666D01*
X69238152Y-46190475D02*
X70238152Y-46190475D01*
X69285771Y-46190475D02*
X69238152Y-46095237D01*
X69238152Y-46095237D02*
X69238152Y-45904761D01*
X69238152Y-45904761D02*
X69285771Y-45809523D01*
X69285771Y-45809523D02*
X69333390Y-45761904D01*
X69333390Y-45761904D02*
X69428628Y-45714285D01*
X69428628Y-45714285D02*
X69714342Y-45714285D01*
X69714342Y-45714285D02*
X69809580Y-45761904D01*
X69809580Y-45761904D02*
X69857200Y-45809523D01*
X69857200Y-45809523D02*
X69904819Y-45904761D01*
X69904819Y-45904761D02*
X69904819Y-46095237D01*
X69904819Y-46095237D02*
X69857200Y-46190475D01*
X69904819Y-45142856D02*
X69857200Y-45238094D01*
X69857200Y-45238094D02*
X69809580Y-45285713D01*
X69809580Y-45285713D02*
X69714342Y-45333332D01*
X69714342Y-45333332D02*
X69428628Y-45333332D01*
X69428628Y-45333332D02*
X69333390Y-45285713D01*
X69333390Y-45285713D02*
X69285771Y-45238094D01*
X69285771Y-45238094D02*
X69238152Y-45142856D01*
X69238152Y-45142856D02*
X69238152Y-44999999D01*
X69238152Y-44999999D02*
X69285771Y-44904761D01*
X69285771Y-44904761D02*
X69333390Y-44857142D01*
X69333390Y-44857142D02*
X69428628Y-44809523D01*
X69428628Y-44809523D02*
X69714342Y-44809523D01*
X69714342Y-44809523D02*
X69809580Y-44857142D01*
X69809580Y-44857142D02*
X69857200Y-44904761D01*
X69857200Y-44904761D02*
X69904819Y-44999999D01*
X69904819Y-44999999D02*
X69904819Y-45142856D01*
X69238152Y-44476189D02*
X69904819Y-44285713D01*
X69904819Y-44285713D02*
X69428628Y-44095237D01*
X69428628Y-44095237D02*
X69904819Y-43904761D01*
X69904819Y-43904761D02*
X69238152Y-43714285D01*
X69857200Y-42952380D02*
X69904819Y-43047618D01*
X69904819Y-43047618D02*
X69904819Y-43238094D01*
X69904819Y-43238094D02*
X69857200Y-43333332D01*
X69857200Y-43333332D02*
X69761961Y-43380951D01*
X69761961Y-43380951D02*
X69381009Y-43380951D01*
X69381009Y-43380951D02*
X69285771Y-43333332D01*
X69285771Y-43333332D02*
X69238152Y-43238094D01*
X69238152Y-43238094D02*
X69238152Y-43047618D01*
X69238152Y-43047618D02*
X69285771Y-42952380D01*
X69285771Y-42952380D02*
X69381009Y-42904761D01*
X69381009Y-42904761D02*
X69476247Y-42904761D01*
X69476247Y-42904761D02*
X69571485Y-43380951D01*
X69904819Y-42476189D02*
X69238152Y-42476189D01*
X69428628Y-42476189D02*
X69333390Y-42428570D01*
X69333390Y-42428570D02*
X69285771Y-42380951D01*
X69285771Y-42380951D02*
X69238152Y-42285713D01*
X69238152Y-42285713D02*
X69238152Y-42190475D01*
X69857200Y-41476189D02*
X69904819Y-41571427D01*
X69904819Y-41571427D02*
X69904819Y-41761903D01*
X69904819Y-41761903D02*
X69857200Y-41857141D01*
X69857200Y-41857141D02*
X69761961Y-41904760D01*
X69761961Y-41904760D02*
X69381009Y-41904760D01*
X69381009Y-41904760D02*
X69285771Y-41857141D01*
X69285771Y-41857141D02*
X69238152Y-41761903D01*
X69238152Y-41761903D02*
X69238152Y-41571427D01*
X69238152Y-41571427D02*
X69285771Y-41476189D01*
X69285771Y-41476189D02*
X69381009Y-41428570D01*
X69381009Y-41428570D02*
X69476247Y-41428570D01*
X69476247Y-41428570D02*
X69571485Y-41904760D01*
X69904819Y-40571427D02*
X68904819Y-40571427D01*
X69857200Y-40571427D02*
X69904819Y-40666665D01*
X69904819Y-40666665D02*
X69904819Y-40857141D01*
X69904819Y-40857141D02*
X69857200Y-40952379D01*
X69857200Y-40952379D02*
X69809580Y-40999998D01*
X69809580Y-40999998D02*
X69714342Y-41047617D01*
X69714342Y-41047617D02*
X69428628Y-41047617D01*
X69428628Y-41047617D02*
X69333390Y-40999998D01*
X69333390Y-40999998D02*
X69285771Y-40952379D01*
X69285771Y-40952379D02*
X69238152Y-40857141D01*
X69238152Y-40857141D02*
X69238152Y-40666665D01*
X69238152Y-40666665D02*
X69285771Y-40571427D01*
X34454819Y-81658094D02*
X33454819Y-81658094D01*
X33454819Y-81658094D02*
X33454819Y-81419999D01*
X33454819Y-81419999D02*
X33502438Y-81277142D01*
X33502438Y-81277142D02*
X33597676Y-81181904D01*
X33597676Y-81181904D02*
X33692914Y-81134285D01*
X33692914Y-81134285D02*
X33883390Y-81086666D01*
X33883390Y-81086666D02*
X34026247Y-81086666D01*
X34026247Y-81086666D02*
X34216723Y-81134285D01*
X34216723Y-81134285D02*
X34311961Y-81181904D01*
X34311961Y-81181904D02*
X34407200Y-81277142D01*
X34407200Y-81277142D02*
X34454819Y-81419999D01*
X34454819Y-81419999D02*
X34454819Y-81658094D01*
X33550057Y-80705713D02*
X33502438Y-80658094D01*
X33502438Y-80658094D02*
X33454819Y-80562856D01*
X33454819Y-80562856D02*
X33454819Y-80324761D01*
X33454819Y-80324761D02*
X33502438Y-80229523D01*
X33502438Y-80229523D02*
X33550057Y-80181904D01*
X33550057Y-80181904D02*
X33645295Y-80134285D01*
X33645295Y-80134285D02*
X33740533Y-80134285D01*
X33740533Y-80134285D02*
X33883390Y-80181904D01*
X33883390Y-80181904D02*
X34454819Y-80753332D01*
X34454819Y-80753332D02*
X34454819Y-80134285D01*
X32354819Y-86261904D02*
X31354819Y-86261904D01*
X32354819Y-85690476D02*
X31783390Y-86119047D01*
X31354819Y-85690476D02*
X31926247Y-86261904D01*
X56254819Y-42666666D02*
X55778628Y-42999999D01*
X56254819Y-43238094D02*
X55254819Y-43238094D01*
X55254819Y-43238094D02*
X55254819Y-42857142D01*
X55254819Y-42857142D02*
X55302438Y-42761904D01*
X55302438Y-42761904D02*
X55350057Y-42714285D01*
X55350057Y-42714285D02*
X55445295Y-42666666D01*
X55445295Y-42666666D02*
X55588152Y-42666666D01*
X55588152Y-42666666D02*
X55683390Y-42714285D01*
X55683390Y-42714285D02*
X55731009Y-42761904D01*
X55731009Y-42761904D02*
X55778628Y-42857142D01*
X55778628Y-42857142D02*
X55778628Y-43238094D01*
X56254819Y-41714285D02*
X56254819Y-42285713D01*
X56254819Y-41999999D02*
X55254819Y-41999999D01*
X55254819Y-41999999D02*
X55397676Y-42095237D01*
X55397676Y-42095237D02*
X55492914Y-42190475D01*
X55492914Y-42190475D02*
X55540533Y-42285713D01*
X32535714Y-57790534D02*
X32678571Y-57838153D01*
X32678571Y-57838153D02*
X32916666Y-57838153D01*
X32916666Y-57838153D02*
X33011904Y-57790534D01*
X33011904Y-57790534D02*
X33059523Y-57742914D01*
X33059523Y-57742914D02*
X33107142Y-57647676D01*
X33107142Y-57647676D02*
X33107142Y-57552438D01*
X33107142Y-57552438D02*
X33059523Y-57457200D01*
X33059523Y-57457200D02*
X33011904Y-57409581D01*
X33011904Y-57409581D02*
X32916666Y-57361962D01*
X32916666Y-57361962D02*
X32726190Y-57314343D01*
X32726190Y-57314343D02*
X32630952Y-57266724D01*
X32630952Y-57266724D02*
X32583333Y-57219105D01*
X32583333Y-57219105D02*
X32535714Y-57123867D01*
X32535714Y-57123867D02*
X32535714Y-57028629D01*
X32535714Y-57028629D02*
X32583333Y-56933391D01*
X32583333Y-56933391D02*
X32630952Y-56885772D01*
X32630952Y-56885772D02*
X32726190Y-56838153D01*
X32726190Y-56838153D02*
X32964285Y-56838153D01*
X32964285Y-56838153D02*
X33107142Y-56885772D01*
X33440476Y-57171486D02*
X33630952Y-57838153D01*
X33630952Y-57838153D02*
X33821428Y-57361962D01*
X33821428Y-57361962D02*
X34011904Y-57838153D01*
X34011904Y-57838153D02*
X34202380Y-57171486D01*
X34583333Y-57838153D02*
X34583333Y-57171486D01*
X34583333Y-56838153D02*
X34535714Y-56885772D01*
X34535714Y-56885772D02*
X34583333Y-56933391D01*
X34583333Y-56933391D02*
X34630952Y-56885772D01*
X34630952Y-56885772D02*
X34583333Y-56838153D01*
X34583333Y-56838153D02*
X34583333Y-56933391D01*
X34916666Y-57171486D02*
X35297618Y-57171486D01*
X35059523Y-56838153D02*
X35059523Y-57695295D01*
X35059523Y-57695295D02*
X35107142Y-57790534D01*
X35107142Y-57790534D02*
X35202380Y-57838153D01*
X35202380Y-57838153D02*
X35297618Y-57838153D01*
X36059523Y-57790534D02*
X35964285Y-57838153D01*
X35964285Y-57838153D02*
X35773809Y-57838153D01*
X35773809Y-57838153D02*
X35678571Y-57790534D01*
X35678571Y-57790534D02*
X35630952Y-57742914D01*
X35630952Y-57742914D02*
X35583333Y-57647676D01*
X35583333Y-57647676D02*
X35583333Y-57361962D01*
X35583333Y-57361962D02*
X35630952Y-57266724D01*
X35630952Y-57266724D02*
X35678571Y-57219105D01*
X35678571Y-57219105D02*
X35773809Y-57171486D01*
X35773809Y-57171486D02*
X35964285Y-57171486D01*
X35964285Y-57171486D02*
X36059523Y-57219105D01*
X36488095Y-57838153D02*
X36488095Y-56838153D01*
X36916666Y-57838153D02*
X36916666Y-57314343D01*
X36916666Y-57314343D02*
X36869047Y-57219105D01*
X36869047Y-57219105D02*
X36773809Y-57171486D01*
X36773809Y-57171486D02*
X36630952Y-57171486D01*
X36630952Y-57171486D02*
X36535714Y-57219105D01*
X36535714Y-57219105D02*
X36488095Y-57266724D01*
X49753333Y-66954819D02*
X49420000Y-66478628D01*
X49181905Y-66954819D02*
X49181905Y-65954819D01*
X49181905Y-65954819D02*
X49562857Y-65954819D01*
X49562857Y-65954819D02*
X49658095Y-66002438D01*
X49658095Y-66002438D02*
X49705714Y-66050057D01*
X49705714Y-66050057D02*
X49753333Y-66145295D01*
X49753333Y-66145295D02*
X49753333Y-66288152D01*
X49753333Y-66288152D02*
X49705714Y-66383390D01*
X49705714Y-66383390D02*
X49658095Y-66431009D01*
X49658095Y-66431009D02*
X49562857Y-66478628D01*
X49562857Y-66478628D02*
X49181905Y-66478628D01*
X50610476Y-66288152D02*
X50610476Y-66954819D01*
X50372381Y-65907200D02*
X50134286Y-66621485D01*
X50134286Y-66621485D02*
X50753333Y-66621485D01*
X32678570Y-48381009D02*
X32821427Y-48428628D01*
X32821427Y-48428628D02*
X32869046Y-48476247D01*
X32869046Y-48476247D02*
X32916665Y-48571485D01*
X32916665Y-48571485D02*
X32916665Y-48714342D01*
X32916665Y-48714342D02*
X32869046Y-48809580D01*
X32869046Y-48809580D02*
X32821427Y-48857200D01*
X32821427Y-48857200D02*
X32726189Y-48904819D01*
X32726189Y-48904819D02*
X32345237Y-48904819D01*
X32345237Y-48904819D02*
X32345237Y-47904819D01*
X32345237Y-47904819D02*
X32678570Y-47904819D01*
X32678570Y-47904819D02*
X32773808Y-47952438D01*
X32773808Y-47952438D02*
X32821427Y-48000057D01*
X32821427Y-48000057D02*
X32869046Y-48095295D01*
X32869046Y-48095295D02*
X32869046Y-48190533D01*
X32869046Y-48190533D02*
X32821427Y-48285771D01*
X32821427Y-48285771D02*
X32773808Y-48333390D01*
X32773808Y-48333390D02*
X32678570Y-48381009D01*
X32678570Y-48381009D02*
X32345237Y-48381009D01*
X33773808Y-48904819D02*
X33773808Y-48381009D01*
X33773808Y-48381009D02*
X33726189Y-48285771D01*
X33726189Y-48285771D02*
X33630951Y-48238152D01*
X33630951Y-48238152D02*
X33440475Y-48238152D01*
X33440475Y-48238152D02*
X33345237Y-48285771D01*
X33773808Y-48857200D02*
X33678570Y-48904819D01*
X33678570Y-48904819D02*
X33440475Y-48904819D01*
X33440475Y-48904819D02*
X33345237Y-48857200D01*
X33345237Y-48857200D02*
X33297618Y-48761961D01*
X33297618Y-48761961D02*
X33297618Y-48666723D01*
X33297618Y-48666723D02*
X33345237Y-48571485D01*
X33345237Y-48571485D02*
X33440475Y-48523866D01*
X33440475Y-48523866D02*
X33678570Y-48523866D01*
X33678570Y-48523866D02*
X33773808Y-48476247D01*
X34107142Y-48238152D02*
X34488094Y-48238152D01*
X34249999Y-47904819D02*
X34249999Y-48761961D01*
X34249999Y-48761961D02*
X34297618Y-48857200D01*
X34297618Y-48857200D02*
X34392856Y-48904819D01*
X34392856Y-48904819D02*
X34488094Y-48904819D01*
X34678571Y-48238152D02*
X35059523Y-48238152D01*
X34821428Y-47904819D02*
X34821428Y-48761961D01*
X34821428Y-48761961D02*
X34869047Y-48857200D01*
X34869047Y-48857200D02*
X34964285Y-48904819D01*
X34964285Y-48904819D02*
X35059523Y-48904819D01*
X35773809Y-48857200D02*
X35678571Y-48904819D01*
X35678571Y-48904819D02*
X35488095Y-48904819D01*
X35488095Y-48904819D02*
X35392857Y-48857200D01*
X35392857Y-48857200D02*
X35345238Y-48761961D01*
X35345238Y-48761961D02*
X35345238Y-48381009D01*
X35345238Y-48381009D02*
X35392857Y-48285771D01*
X35392857Y-48285771D02*
X35488095Y-48238152D01*
X35488095Y-48238152D02*
X35678571Y-48238152D01*
X35678571Y-48238152D02*
X35773809Y-48285771D01*
X35773809Y-48285771D02*
X35821428Y-48381009D01*
X35821428Y-48381009D02*
X35821428Y-48476247D01*
X35821428Y-48476247D02*
X35345238Y-48571485D01*
X36250000Y-48904819D02*
X36250000Y-48238152D01*
X36250000Y-48428628D02*
X36297619Y-48333390D01*
X36297619Y-48333390D02*
X36345238Y-48285771D01*
X36345238Y-48285771D02*
X36440476Y-48238152D01*
X36440476Y-48238152D02*
X36535714Y-48238152D01*
X36773810Y-48238152D02*
X37011905Y-48904819D01*
X37250000Y-48238152D02*
X37011905Y-48904819D01*
X37011905Y-48904819D02*
X36916667Y-49142914D01*
X36916667Y-49142914D02*
X36869048Y-49190533D01*
X36869048Y-49190533D02*
X36773810Y-49238152D01*
X49753333Y-63454819D02*
X49420000Y-62978628D01*
X49181905Y-63454819D02*
X49181905Y-62454819D01*
X49181905Y-62454819D02*
X49562857Y-62454819D01*
X49562857Y-62454819D02*
X49658095Y-62502438D01*
X49658095Y-62502438D02*
X49705714Y-62550057D01*
X49705714Y-62550057D02*
X49753333Y-62645295D01*
X49753333Y-62645295D02*
X49753333Y-62788152D01*
X49753333Y-62788152D02*
X49705714Y-62883390D01*
X49705714Y-62883390D02*
X49658095Y-62931009D01*
X49658095Y-62931009D02*
X49562857Y-62978628D01*
X49562857Y-62978628D02*
X49181905Y-62978628D01*
X50658095Y-62454819D02*
X50181905Y-62454819D01*
X50181905Y-62454819D02*
X50134286Y-62931009D01*
X50134286Y-62931009D02*
X50181905Y-62883390D01*
X50181905Y-62883390D02*
X50277143Y-62835771D01*
X50277143Y-62835771D02*
X50515238Y-62835771D01*
X50515238Y-62835771D02*
X50610476Y-62883390D01*
X50610476Y-62883390D02*
X50658095Y-62931009D01*
X50658095Y-62931009D02*
X50705714Y-63026247D01*
X50705714Y-63026247D02*
X50705714Y-63264342D01*
X50705714Y-63264342D02*
X50658095Y-63359580D01*
X50658095Y-63359580D02*
X50610476Y-63407200D01*
X50610476Y-63407200D02*
X50515238Y-63454819D01*
X50515238Y-63454819D02*
X50277143Y-63454819D01*
X50277143Y-63454819D02*
X50181905Y-63407200D01*
X50181905Y-63407200D02*
X50134286Y-63359580D01*
X52954819Y-42666666D02*
X52478628Y-42999999D01*
X52954819Y-43238094D02*
X51954819Y-43238094D01*
X51954819Y-43238094D02*
X51954819Y-42857142D01*
X51954819Y-42857142D02*
X52002438Y-42761904D01*
X52002438Y-42761904D02*
X52050057Y-42714285D01*
X52050057Y-42714285D02*
X52145295Y-42666666D01*
X52145295Y-42666666D02*
X52288152Y-42666666D01*
X52288152Y-42666666D02*
X52383390Y-42714285D01*
X52383390Y-42714285D02*
X52431009Y-42761904D01*
X52431009Y-42761904D02*
X52478628Y-42857142D01*
X52478628Y-42857142D02*
X52478628Y-43238094D01*
X52050057Y-42285713D02*
X52002438Y-42238094D01*
X52002438Y-42238094D02*
X51954819Y-42142856D01*
X51954819Y-42142856D02*
X51954819Y-41904761D01*
X51954819Y-41904761D02*
X52002438Y-41809523D01*
X52002438Y-41809523D02*
X52050057Y-41761904D01*
X52050057Y-41761904D02*
X52145295Y-41714285D01*
X52145295Y-41714285D02*
X52240533Y-41714285D01*
X52240533Y-41714285D02*
X52383390Y-41761904D01*
X52383390Y-41761904D02*
X52954819Y-42333332D01*
X52954819Y-42333332D02*
X52954819Y-41714285D01*
X63500000Y-75954819D02*
X63500000Y-74954819D01*
X63928571Y-75050057D02*
X63976190Y-75002438D01*
X63976190Y-75002438D02*
X64071428Y-74954819D01*
X64071428Y-74954819D02*
X64309523Y-74954819D01*
X64309523Y-74954819D02*
X64404761Y-75002438D01*
X64404761Y-75002438D02*
X64452380Y-75050057D01*
X64452380Y-75050057D02*
X64499999Y-75145295D01*
X64499999Y-75145295D02*
X64499999Y-75240533D01*
X64499999Y-75240533D02*
X64452380Y-75383390D01*
X64452380Y-75383390D02*
X63880952Y-75954819D01*
X63880952Y-75954819D02*
X64499999Y-75954819D01*
X65499999Y-75859580D02*
X65452380Y-75907200D01*
X65452380Y-75907200D02*
X65309523Y-75954819D01*
X65309523Y-75954819D02*
X65214285Y-75954819D01*
X65214285Y-75954819D02*
X65071428Y-75907200D01*
X65071428Y-75907200D02*
X64976190Y-75811961D01*
X64976190Y-75811961D02*
X64928571Y-75716723D01*
X64928571Y-75716723D02*
X64880952Y-75526247D01*
X64880952Y-75526247D02*
X64880952Y-75383390D01*
X64880952Y-75383390D02*
X64928571Y-75192914D01*
X64928571Y-75192914D02*
X64976190Y-75097676D01*
X64976190Y-75097676D02*
X65071428Y-75002438D01*
X65071428Y-75002438D02*
X65214285Y-74954819D01*
X65214285Y-74954819D02*
X65309523Y-74954819D01*
X65309523Y-74954819D02*
X65452380Y-75002438D01*
X65452380Y-75002438D02*
X65499999Y-75050057D01*
X66690476Y-75954819D02*
X66690476Y-74954819D01*
X66690476Y-74954819D02*
X66928571Y-74954819D01*
X66928571Y-74954819D02*
X67071428Y-75002438D01*
X67071428Y-75002438D02*
X67166666Y-75097676D01*
X67166666Y-75097676D02*
X67214285Y-75192914D01*
X67214285Y-75192914D02*
X67261904Y-75383390D01*
X67261904Y-75383390D02*
X67261904Y-75526247D01*
X67261904Y-75526247D02*
X67214285Y-75716723D01*
X67214285Y-75716723D02*
X67166666Y-75811961D01*
X67166666Y-75811961D02*
X67071428Y-75907200D01*
X67071428Y-75907200D02*
X66928571Y-75954819D01*
X66928571Y-75954819D02*
X66690476Y-75954819D01*
X67595238Y-74954819D02*
X68214285Y-74954819D01*
X68214285Y-74954819D02*
X67880952Y-75335771D01*
X67880952Y-75335771D02*
X68023809Y-75335771D01*
X68023809Y-75335771D02*
X68119047Y-75383390D01*
X68119047Y-75383390D02*
X68166666Y-75431009D01*
X68166666Y-75431009D02*
X68214285Y-75526247D01*
X68214285Y-75526247D02*
X68214285Y-75764342D01*
X68214285Y-75764342D02*
X68166666Y-75859580D01*
X68166666Y-75859580D02*
X68119047Y-75907200D01*
X68119047Y-75907200D02*
X68023809Y-75954819D01*
X68023809Y-75954819D02*
X67738095Y-75954819D01*
X67738095Y-75954819D02*
X67642857Y-75907200D01*
X67642857Y-75907200D02*
X67595238Y-75859580D01*
X68642857Y-75573866D02*
X69404762Y-75573866D01*
X69880952Y-75288152D02*
X69880952Y-76288152D01*
X69880952Y-75335771D02*
X69976190Y-75288152D01*
X69976190Y-75288152D02*
X70166666Y-75288152D01*
X70166666Y-75288152D02*
X70261904Y-75335771D01*
X70261904Y-75335771D02*
X70309523Y-75383390D01*
X70309523Y-75383390D02*
X70357142Y-75478628D01*
X70357142Y-75478628D02*
X70357142Y-75764342D01*
X70357142Y-75764342D02*
X70309523Y-75859580D01*
X70309523Y-75859580D02*
X70261904Y-75907200D01*
X70261904Y-75907200D02*
X70166666Y-75954819D01*
X70166666Y-75954819D02*
X69976190Y-75954819D01*
X69976190Y-75954819D02*
X69880952Y-75907200D01*
X70928571Y-75954819D02*
X70833333Y-75907200D01*
X70833333Y-75907200D02*
X70785714Y-75859580D01*
X70785714Y-75859580D02*
X70738095Y-75764342D01*
X70738095Y-75764342D02*
X70738095Y-75478628D01*
X70738095Y-75478628D02*
X70785714Y-75383390D01*
X70785714Y-75383390D02*
X70833333Y-75335771D01*
X70833333Y-75335771D02*
X70928571Y-75288152D01*
X70928571Y-75288152D02*
X71071428Y-75288152D01*
X71071428Y-75288152D02*
X71166666Y-75335771D01*
X71166666Y-75335771D02*
X71214285Y-75383390D01*
X71214285Y-75383390D02*
X71261904Y-75478628D01*
X71261904Y-75478628D02*
X71261904Y-75764342D01*
X71261904Y-75764342D02*
X71214285Y-75859580D01*
X71214285Y-75859580D02*
X71166666Y-75907200D01*
X71166666Y-75907200D02*
X71071428Y-75954819D01*
X71071428Y-75954819D02*
X70928571Y-75954819D01*
X71595238Y-75288152D02*
X71785714Y-75954819D01*
X71785714Y-75954819D02*
X71976190Y-75478628D01*
X71976190Y-75478628D02*
X72166666Y-75954819D01*
X72166666Y-75954819D02*
X72357142Y-75288152D01*
X73119047Y-75907200D02*
X73023809Y-75954819D01*
X73023809Y-75954819D02*
X72833333Y-75954819D01*
X72833333Y-75954819D02*
X72738095Y-75907200D01*
X72738095Y-75907200D02*
X72690476Y-75811961D01*
X72690476Y-75811961D02*
X72690476Y-75431009D01*
X72690476Y-75431009D02*
X72738095Y-75335771D01*
X72738095Y-75335771D02*
X72833333Y-75288152D01*
X72833333Y-75288152D02*
X73023809Y-75288152D01*
X73023809Y-75288152D02*
X73119047Y-75335771D01*
X73119047Y-75335771D02*
X73166666Y-75431009D01*
X73166666Y-75431009D02*
X73166666Y-75526247D01*
X73166666Y-75526247D02*
X72690476Y-75621485D01*
X73595238Y-75954819D02*
X73595238Y-75288152D01*
X73595238Y-75478628D02*
X73642857Y-75383390D01*
X73642857Y-75383390D02*
X73690476Y-75335771D01*
X73690476Y-75335771D02*
X73785714Y-75288152D01*
X73785714Y-75288152D02*
X73880952Y-75288152D01*
X74595238Y-75907200D02*
X74500000Y-75954819D01*
X74500000Y-75954819D02*
X74309524Y-75954819D01*
X74309524Y-75954819D02*
X74214286Y-75907200D01*
X74214286Y-75907200D02*
X74166667Y-75811961D01*
X74166667Y-75811961D02*
X74166667Y-75431009D01*
X74166667Y-75431009D02*
X74214286Y-75335771D01*
X74214286Y-75335771D02*
X74309524Y-75288152D01*
X74309524Y-75288152D02*
X74500000Y-75288152D01*
X74500000Y-75288152D02*
X74595238Y-75335771D01*
X74595238Y-75335771D02*
X74642857Y-75431009D01*
X74642857Y-75431009D02*
X74642857Y-75526247D01*
X74642857Y-75526247D02*
X74166667Y-75621485D01*
X75500000Y-75954819D02*
X75500000Y-74954819D01*
X75500000Y-75907200D02*
X75404762Y-75954819D01*
X75404762Y-75954819D02*
X75214286Y-75954819D01*
X75214286Y-75954819D02*
X75119048Y-75907200D01*
X75119048Y-75907200D02*
X75071429Y-75859580D01*
X75071429Y-75859580D02*
X75023810Y-75764342D01*
X75023810Y-75764342D02*
X75023810Y-75478628D01*
X75023810Y-75478628D02*
X75071429Y-75383390D01*
X75071429Y-75383390D02*
X75119048Y-75335771D01*
X75119048Y-75335771D02*
X75214286Y-75288152D01*
X75214286Y-75288152D02*
X75404762Y-75288152D01*
X75404762Y-75288152D02*
X75500000Y-75335771D01*
X49753333Y-59954819D02*
X49420000Y-59478628D01*
X49181905Y-59954819D02*
X49181905Y-58954819D01*
X49181905Y-58954819D02*
X49562857Y-58954819D01*
X49562857Y-58954819D02*
X49658095Y-59002438D01*
X49658095Y-59002438D02*
X49705714Y-59050057D01*
X49705714Y-59050057D02*
X49753333Y-59145295D01*
X49753333Y-59145295D02*
X49753333Y-59288152D01*
X49753333Y-59288152D02*
X49705714Y-59383390D01*
X49705714Y-59383390D02*
X49658095Y-59431009D01*
X49658095Y-59431009D02*
X49562857Y-59478628D01*
X49562857Y-59478628D02*
X49181905Y-59478628D01*
X50610476Y-58954819D02*
X50420000Y-58954819D01*
X50420000Y-58954819D02*
X50324762Y-59002438D01*
X50324762Y-59002438D02*
X50277143Y-59050057D01*
X50277143Y-59050057D02*
X50181905Y-59192914D01*
X50181905Y-59192914D02*
X50134286Y-59383390D01*
X50134286Y-59383390D02*
X50134286Y-59764342D01*
X50134286Y-59764342D02*
X50181905Y-59859580D01*
X50181905Y-59859580D02*
X50229524Y-59907200D01*
X50229524Y-59907200D02*
X50324762Y-59954819D01*
X50324762Y-59954819D02*
X50515238Y-59954819D01*
X50515238Y-59954819D02*
X50610476Y-59907200D01*
X50610476Y-59907200D02*
X50658095Y-59859580D01*
X50658095Y-59859580D02*
X50705714Y-59764342D01*
X50705714Y-59764342D02*
X50705714Y-59526247D01*
X50705714Y-59526247D02*
X50658095Y-59431009D01*
X50658095Y-59431009D02*
X50610476Y-59383390D01*
X50610476Y-59383390D02*
X50515238Y-59335771D01*
X50515238Y-59335771D02*
X50324762Y-59335771D01*
X50324762Y-59335771D02*
X50229524Y-59383390D01*
X50229524Y-59383390D02*
X50181905Y-59431009D01*
X50181905Y-59431009D02*
X50134286Y-59526247D01*
X38954819Y-81738094D02*
X37954819Y-81738094D01*
X37954819Y-81738094D02*
X37954819Y-81499999D01*
X37954819Y-81499999D02*
X38002438Y-81357142D01*
X38002438Y-81357142D02*
X38097676Y-81261904D01*
X38097676Y-81261904D02*
X38192914Y-81214285D01*
X38192914Y-81214285D02*
X38383390Y-81166666D01*
X38383390Y-81166666D02*
X38526247Y-81166666D01*
X38526247Y-81166666D02*
X38716723Y-81214285D01*
X38716723Y-81214285D02*
X38811961Y-81261904D01*
X38811961Y-81261904D02*
X38907200Y-81357142D01*
X38907200Y-81357142D02*
X38954819Y-81499999D01*
X38954819Y-81499999D02*
X38954819Y-81738094D01*
X38954819Y-80214285D02*
X38954819Y-80785713D01*
X38954819Y-80499999D02*
X37954819Y-80499999D01*
X37954819Y-80499999D02*
X38097676Y-80595237D01*
X38097676Y-80595237D02*
X38192914Y-80690475D01*
X38192914Y-80690475D02*
X38240533Y-80785713D01*
X36854819Y-86341904D02*
X35854819Y-86341904D01*
X36854819Y-85770476D02*
X36283390Y-86199047D01*
X35854819Y-85770476D02*
X36426247Y-86341904D01*
%TO.C,U1*%
D13*
X44885000Y-32443000D02*
X63385000Y-32443000D01*
X63385000Y-55943000D01*
X44885000Y-55943000D01*
X44885000Y-32443000D01*
%TO.C,R3*%
X45880000Y-70000000D02*
X46650000Y-70000000D01*
X53960000Y-70000000D02*
X53190000Y-70000000D01*
X53190000Y-71370000D02*
X46650000Y-71370000D01*
X46650000Y-68630000D01*
X53190000Y-68630000D01*
X53190000Y-71370000D01*
%TO.C,I2C*%
X63150000Y-76750000D02*
X63150000Y-78000000D01*
X63450000Y-79300000D02*
X64200000Y-79300000D01*
X64200000Y-79300000D02*
X64200000Y-82250000D01*
X64200000Y-82250000D02*
X69750000Y-82250000D01*
X64400000Y-76750000D02*
X63150000Y-76750000D01*
X75300000Y-79300000D02*
X75300000Y-82250000D01*
X75300000Y-82250000D02*
X69750000Y-82250000D01*
X76050000Y-79300000D02*
X75300000Y-79300000D01*
X63440000Y-77040000D02*
X76060000Y-77040000D01*
X76060000Y-83010000D01*
X63440000Y-83010000D01*
X63440000Y-77040000D01*
X63450000Y-77050000D02*
X65250000Y-77050000D01*
X65250000Y-77800000D01*
X63450000Y-77800000D01*
X63450000Y-77050000D01*
X66750000Y-77050000D02*
X72750000Y-77050000D01*
X72750000Y-77800000D01*
X66750000Y-77800000D01*
X66750000Y-77050000D01*
X74250000Y-77050000D02*
X76050000Y-77050000D01*
X76050000Y-77800000D01*
X74250000Y-77800000D01*
X74250000Y-77050000D01*
%TO.C,I2C D2-powered*%
X63150000Y-59750000D02*
X63150000Y-61000000D01*
X63450000Y-62300000D02*
X64200000Y-62300000D01*
X64200000Y-62300000D02*
X64200000Y-65250000D01*
X64200000Y-65250000D02*
X69750000Y-65250000D01*
X64400000Y-59750000D02*
X63150000Y-59750000D01*
X75300000Y-62300000D02*
X75300000Y-65250000D01*
X75300000Y-65250000D02*
X69750000Y-65250000D01*
X76050000Y-62300000D02*
X75300000Y-62300000D01*
X63440000Y-60040000D02*
X76060000Y-60040000D01*
X76060000Y-66010000D01*
X63440000Y-66010000D01*
X63440000Y-60040000D01*
X63450000Y-60050000D02*
X65250000Y-60050000D01*
X65250000Y-60800000D01*
X63450000Y-60800000D01*
X63450000Y-60050000D01*
X66750000Y-60050000D02*
X72750000Y-60050000D01*
X72750000Y-60800000D01*
X66750000Y-60800000D01*
X66750000Y-60050000D01*
X74250000Y-60050000D02*
X76050000Y-60050000D01*
X76050000Y-60800000D01*
X74250000Y-60800000D01*
X74250000Y-60050000D01*
%TO.C,Pump*%
X52150000Y-80250000D02*
X52150000Y-81500000D01*
X52450000Y-82800000D02*
X53200000Y-82800000D01*
X53200000Y-82800000D02*
X53200000Y-85750000D01*
X53200000Y-85750000D02*
X56250000Y-85750000D01*
X53400000Y-80250000D02*
X52150000Y-80250000D01*
X59300000Y-82800000D02*
X59300000Y-85750000D01*
X59300000Y-85750000D02*
X56250000Y-85750000D01*
X60050000Y-82800000D02*
X59300000Y-82800000D01*
X52440000Y-80540000D02*
X60060000Y-80540000D01*
X60060000Y-86510000D01*
X52440000Y-86510000D01*
X52440000Y-80540000D01*
X52450000Y-80550000D02*
X54250000Y-80550000D01*
X54250000Y-81300000D01*
X52450000Y-81300000D01*
X52450000Y-80550000D01*
X55750000Y-80550000D02*
X56750000Y-80550000D01*
X56750000Y-81300000D01*
X55750000Y-81300000D01*
X55750000Y-80550000D01*
X58250000Y-80550000D02*
X60050000Y-80550000D01*
X60050000Y-81300000D01*
X58250000Y-81300000D01*
X58250000Y-80550000D01*
%TO.C,Q1*%
X44890000Y-73190000D02*
X55110000Y-73190000D01*
X44890000Y-74570000D02*
X55110000Y-74570000D01*
X44890000Y-77810000D02*
X44890000Y-73190000D01*
X48150000Y-73190000D02*
X48150000Y-74570000D01*
X51850000Y-73190000D02*
X51850000Y-74570000D01*
X55110000Y-73190000D02*
X55110000Y-77810000D01*
X55110000Y-77810000D02*
X44890000Y-77810000D01*
%TO.C,C3*%
X42340302Y-81185000D02*
X43140302Y-81185000D01*
X42740302Y-80785000D02*
X42740302Y-81585000D01*
X46750000Y-79420000D02*
X46750000Y-87580000D01*
X46790000Y-79420000D02*
X46790000Y-87580000D01*
X46830000Y-79421000D02*
X46830000Y-87579000D01*
X46870000Y-79422000D02*
X46870000Y-87578000D01*
X46910000Y-79423000D02*
X46910000Y-87577000D01*
X46950000Y-79425000D02*
X46950000Y-87575000D01*
X46990000Y-79427000D02*
X46990000Y-87573000D01*
X47030000Y-79430000D02*
X47030000Y-87570000D01*
X47070000Y-79432000D02*
X47070000Y-87568000D01*
X47110000Y-79436000D02*
X47110000Y-87564000D01*
X47150000Y-79439000D02*
X47150000Y-87561000D01*
X47190000Y-79444000D02*
X47190000Y-87556000D01*
X47230000Y-79448000D02*
X47230000Y-87552000D01*
X47270000Y-79453000D02*
X47270000Y-87547000D01*
X47310000Y-79458000D02*
X47310000Y-87542000D01*
X47350000Y-79464000D02*
X47350000Y-87536000D01*
X47390000Y-79470000D02*
X47390000Y-87530000D01*
X47430000Y-79477000D02*
X47430000Y-87523000D01*
X47470000Y-79483000D02*
X47470000Y-82460000D01*
X47470000Y-84540000D02*
X47470000Y-87517000D01*
X47510000Y-79491000D02*
X47510000Y-82460000D01*
X47510000Y-84540000D02*
X47510000Y-87509000D01*
X47550000Y-79498000D02*
X47550000Y-82460000D01*
X47550000Y-84540000D02*
X47550000Y-87502000D01*
X47590000Y-79507000D02*
X47590000Y-82460000D01*
X47590000Y-84540000D02*
X47590000Y-87493000D01*
X47630000Y-79515000D02*
X47630000Y-82460000D01*
X47630000Y-84540000D02*
X47630000Y-87485000D01*
X47670000Y-79524000D02*
X47670000Y-82460000D01*
X47670000Y-84540000D02*
X47670000Y-87476000D01*
X47710000Y-79533000D02*
X47710000Y-82460000D01*
X47710000Y-84540000D02*
X47710000Y-87467000D01*
X47750000Y-79543000D02*
X47750000Y-82460000D01*
X47750000Y-84540000D02*
X47750000Y-87457000D01*
X47790000Y-79553000D02*
X47790000Y-82460000D01*
X47790000Y-84540000D02*
X47790000Y-87447000D01*
X47830000Y-79564000D02*
X47830000Y-82460000D01*
X47830000Y-84540000D02*
X47830000Y-87436000D01*
X47870000Y-79575000D02*
X47870000Y-82460000D01*
X47870000Y-84540000D02*
X47870000Y-87425000D01*
X47910000Y-79587000D02*
X47910000Y-82460000D01*
X47910000Y-84540000D02*
X47910000Y-87413000D01*
X47950000Y-79599000D02*
X47950000Y-82460000D01*
X47950000Y-84540000D02*
X47950000Y-87401000D01*
X47990000Y-79611000D02*
X47990000Y-82460000D01*
X47990000Y-84540000D02*
X47990000Y-87389000D01*
X48030000Y-79624000D02*
X48030000Y-82460000D01*
X48030000Y-84540000D02*
X48030000Y-87376000D01*
X48070000Y-79637000D02*
X48070000Y-82460000D01*
X48070000Y-84540000D02*
X48070000Y-87363000D01*
X48110000Y-79651000D02*
X48110000Y-82460000D01*
X48110000Y-84540000D02*
X48110000Y-87349000D01*
X48150000Y-79665000D02*
X48150000Y-82460000D01*
X48150000Y-84540000D02*
X48150000Y-87335000D01*
X48190000Y-79680000D02*
X48190000Y-82460000D01*
X48190000Y-84540000D02*
X48190000Y-87320000D01*
X48230000Y-79695000D02*
X48230000Y-82460000D01*
X48230000Y-84540000D02*
X48230000Y-87305000D01*
X48270000Y-79711000D02*
X48270000Y-82460000D01*
X48270000Y-84540000D02*
X48270000Y-87289000D01*
X48310000Y-79727000D02*
X48310000Y-82460000D01*
X48310000Y-84540000D02*
X48310000Y-87273000D01*
X48350000Y-79743000D02*
X48350000Y-82460000D01*
X48350000Y-84540000D02*
X48350000Y-87257000D01*
X48390000Y-79760000D02*
X48390000Y-82460000D01*
X48390000Y-84540000D02*
X48390000Y-87240000D01*
X48430000Y-79778000D02*
X48430000Y-82460000D01*
X48430000Y-84540000D02*
X48430000Y-87222000D01*
X48470000Y-79796000D02*
X48470000Y-82460000D01*
X48470000Y-84540000D02*
X48470000Y-87204000D01*
X48510000Y-79815000D02*
X48510000Y-82460000D01*
X48510000Y-84540000D02*
X48510000Y-87185000D01*
X48550000Y-79834000D02*
X48550000Y-82460000D01*
X48550000Y-84540000D02*
X48550000Y-87166000D01*
X48590000Y-79854000D02*
X48590000Y-82460000D01*
X48590000Y-84540000D02*
X48590000Y-87146000D01*
X48630000Y-79874000D02*
X48630000Y-82460000D01*
X48630000Y-84540000D02*
X48630000Y-87126000D01*
X48670000Y-79895000D02*
X48670000Y-82460000D01*
X48670000Y-84540000D02*
X48670000Y-87105000D01*
X48710000Y-79916000D02*
X48710000Y-82460000D01*
X48710000Y-84540000D02*
X48710000Y-87084000D01*
X48750000Y-79938000D02*
X48750000Y-82460000D01*
X48750000Y-84540000D02*
X48750000Y-87062000D01*
X48790000Y-79961000D02*
X48790000Y-82460000D01*
X48790000Y-84540000D02*
X48790000Y-87039000D01*
X48830000Y-79984000D02*
X48830000Y-82460000D01*
X48830000Y-84540000D02*
X48830000Y-87016000D01*
X48870000Y-80007000D02*
X48870000Y-82460000D01*
X48870000Y-84540000D02*
X48870000Y-86993000D01*
X48910000Y-80032000D02*
X48910000Y-82460000D01*
X48910000Y-84540000D02*
X48910000Y-86968000D01*
X48950000Y-80057000D02*
X48950000Y-82460000D01*
X48950000Y-84540000D02*
X48950000Y-86943000D01*
X48990000Y-80082000D02*
X48990000Y-82460000D01*
X48990000Y-84540000D02*
X48990000Y-86918000D01*
X49030000Y-80108000D02*
X49030000Y-82460000D01*
X49030000Y-84540000D02*
X49030000Y-86892000D01*
X49070000Y-80135000D02*
X49070000Y-82460000D01*
X49070000Y-84540000D02*
X49070000Y-86865000D01*
X49110000Y-80163000D02*
X49110000Y-82460000D01*
X49110000Y-84540000D02*
X49110000Y-86837000D01*
X49150000Y-80191000D02*
X49150000Y-82460000D01*
X49150000Y-84540000D02*
X49150000Y-86809000D01*
X49190000Y-80220000D02*
X49190000Y-82460000D01*
X49190000Y-84540000D02*
X49190000Y-86780000D01*
X49230000Y-80250000D02*
X49230000Y-82460000D01*
X49230000Y-84540000D02*
X49230000Y-86750000D01*
X49270000Y-80281000D02*
X49270000Y-82460000D01*
X49270000Y-84540000D02*
X49270000Y-86719000D01*
X49310000Y-80312000D02*
X49310000Y-82460000D01*
X49310000Y-84540000D02*
X49310000Y-86688000D01*
X49350000Y-80344000D02*
X49350000Y-82460000D01*
X49350000Y-84540000D02*
X49350000Y-86656000D01*
X49390000Y-80377000D02*
X49390000Y-82460000D01*
X49390000Y-84540000D02*
X49390000Y-86623000D01*
X49430000Y-80411000D02*
X49430000Y-82460000D01*
X49430000Y-84540000D02*
X49430000Y-86589000D01*
X49470000Y-80445000D02*
X49470000Y-82460000D01*
X49470000Y-84540000D02*
X49470000Y-86555000D01*
X49510000Y-80481000D02*
X49510000Y-82460000D01*
X49510000Y-84540000D02*
X49510000Y-86519000D01*
X49550000Y-80518000D02*
X49550000Y-86482000D01*
X49590000Y-80555000D02*
X49590000Y-86445000D01*
X49630000Y-80594000D02*
X49630000Y-86406000D01*
X49670000Y-80633000D02*
X49670000Y-86367000D01*
X49710000Y-80674000D02*
X49710000Y-86326000D01*
X49750000Y-80716000D02*
X49750000Y-86284000D01*
X49790000Y-80759000D02*
X49790000Y-86241000D01*
X49830000Y-80804000D02*
X49830000Y-86196000D01*
X49870000Y-80849000D02*
X49870000Y-86151000D01*
X49910000Y-80896000D02*
X49910000Y-86104000D01*
X49950000Y-80945000D02*
X49950000Y-86055000D01*
X49990000Y-80995000D02*
X49990000Y-86005000D01*
X50030000Y-81047000D02*
X50030000Y-85953000D01*
X50070000Y-81100000D02*
X50070000Y-85900000D01*
X50110000Y-81156000D02*
X50110000Y-85844000D01*
X50150000Y-81213000D02*
X50150000Y-85787000D01*
X50190000Y-81273000D02*
X50190000Y-85727000D01*
X50230000Y-81335000D02*
X50230000Y-85665000D01*
X50270000Y-81399000D02*
X50270000Y-85601000D01*
X50310000Y-81466000D02*
X50310000Y-85534000D01*
X50350000Y-81536000D02*
X50350000Y-85464000D01*
X50390000Y-81610000D02*
X50390000Y-85390000D01*
X50430000Y-81687000D02*
X50430000Y-85313000D01*
X50470000Y-81769000D02*
X50470000Y-85231000D01*
X50510000Y-81856000D02*
X50510000Y-85144000D01*
X50550000Y-81948000D02*
X50550000Y-85052000D01*
X50590000Y-82047000D02*
X50590000Y-84953000D01*
X50630000Y-82154000D02*
X50630000Y-84846000D01*
X50670000Y-82272000D02*
X50670000Y-84728000D01*
X50710000Y-82403000D02*
X50710000Y-84597000D01*
X50750000Y-82553000D02*
X50750000Y-84447000D01*
X50790000Y-82732000D02*
X50790000Y-84268000D01*
X50830000Y-82967000D02*
X50830000Y-84033000D01*
X50870000Y-83500000D02*
G75*
G02*
X42630000Y-83500000I-4120000J0D01*
G01*
X42630000Y-83500000D02*
G75*
G02*
X50870000Y-83500000I4120000J0D01*
G01*
%TO.C,J1*%
X40170000Y-35370000D02*
X40170000Y-55750000D01*
X40170000Y-35370000D02*
X42830000Y-35370000D01*
X40170000Y-55750000D02*
X42830000Y-55750000D01*
X41500000Y-32770000D02*
X42830000Y-32770000D01*
X42830000Y-32770000D02*
X42830000Y-34100000D01*
X42830000Y-35370000D02*
X42830000Y-55750000D01*
%TO.C,I2C*%
X63150000Y-85250000D02*
X63150000Y-86500000D01*
X63450000Y-87800000D02*
X64200000Y-87800000D01*
X64200000Y-87800000D02*
X64200000Y-90750000D01*
X64200000Y-90750000D02*
X69750000Y-90750000D01*
X64400000Y-85250000D02*
X63150000Y-85250000D01*
X75300000Y-87800000D02*
X75300000Y-90750000D01*
X75300000Y-90750000D02*
X69750000Y-90750000D01*
X76050000Y-87800000D02*
X75300000Y-87800000D01*
X63440000Y-85540000D02*
X76060000Y-85540000D01*
X76060000Y-91510000D01*
X63440000Y-91510000D01*
X63440000Y-85540000D01*
X63450000Y-85550000D02*
X65250000Y-85550000D01*
X65250000Y-86300000D01*
X63450000Y-86300000D01*
X63450000Y-85550000D01*
X66750000Y-85550000D02*
X72750000Y-85550000D01*
X72750000Y-86300000D01*
X66750000Y-86300000D01*
X66750000Y-85550000D01*
X74250000Y-85550000D02*
X76050000Y-85550000D01*
X76050000Y-86300000D01*
X74250000Y-86300000D01*
X74250000Y-85550000D01*
%TO.C,J2*%
X65170000Y-35370000D02*
X65170000Y-55750000D01*
X65170000Y-35370000D02*
X67830000Y-35370000D01*
X65170000Y-55750000D02*
X67830000Y-55750000D01*
X66500000Y-32770000D02*
X67830000Y-32770000D01*
X67830000Y-32770000D02*
X67830000Y-34100000D01*
X67830000Y-35370000D02*
X67830000Y-55750000D01*
%TO.C,USB-C*%
X31390000Y-67106667D02*
X31390000Y-68356667D01*
X31690000Y-68716667D02*
X32300000Y-68716667D01*
X31690000Y-70016667D02*
X32300000Y-70016667D01*
X32300000Y-68016667D02*
X32300000Y-71516667D01*
X32300000Y-71516667D02*
X37200000Y-71516667D01*
X32640000Y-67106667D02*
X31390000Y-67106667D01*
X33150000Y-67206667D02*
X33150000Y-67406667D01*
X33450000Y-67206667D02*
X33150000Y-67206667D01*
X33450000Y-67306667D02*
X33150000Y-67306667D01*
X33450000Y-67406667D02*
X33450000Y-67206667D01*
X34250000Y-67406667D02*
X34250000Y-68016667D01*
X34250000Y-68016667D02*
X32300000Y-68016667D01*
X34650000Y-71016667D02*
X34850000Y-71016667D01*
X34650000Y-71516667D02*
X34650000Y-71016667D01*
X34750000Y-71516667D02*
X34750000Y-71016667D01*
X34850000Y-71016667D02*
X34850000Y-71516667D01*
X35250000Y-68016667D02*
X35250000Y-67406667D01*
X37200000Y-68016667D02*
X35250000Y-68016667D01*
X37200000Y-71516667D02*
X37200000Y-68016667D01*
X37810000Y-68716667D02*
X37200000Y-68716667D01*
X37810000Y-70016667D02*
X37200000Y-70016667D01*
X31690000Y-67406667D02*
X37810000Y-67406667D01*
X37810000Y-72126667D01*
X31690000Y-72126667D01*
X31690000Y-67406667D01*
%TO.C,C2*%
X30437651Y-40401667D02*
X31237651Y-40401667D01*
X30837651Y-40001667D02*
X30837651Y-40801667D01*
X34847349Y-38636667D02*
X34847349Y-46796667D01*
X34887349Y-38636667D02*
X34887349Y-46796667D01*
X34927349Y-38637667D02*
X34927349Y-46795667D01*
X34967349Y-38638667D02*
X34967349Y-46794667D01*
X35007349Y-38639667D02*
X35007349Y-46793667D01*
X35047349Y-38641667D02*
X35047349Y-46791667D01*
X35087349Y-38643667D02*
X35087349Y-46789667D01*
X35127349Y-38646667D02*
X35127349Y-46786667D01*
X35167349Y-38648667D02*
X35167349Y-46784667D01*
X35207349Y-38652667D02*
X35207349Y-46780667D01*
X35247349Y-38655667D02*
X35247349Y-46777667D01*
X35287349Y-38660667D02*
X35287349Y-46772667D01*
X35327349Y-38664667D02*
X35327349Y-46768667D01*
X35367349Y-38669667D02*
X35367349Y-46763667D01*
X35407349Y-38674667D02*
X35407349Y-46758667D01*
X35447349Y-38680667D02*
X35447349Y-46752667D01*
X35487349Y-38686667D02*
X35487349Y-46746667D01*
X35527349Y-38693667D02*
X35527349Y-46739667D01*
X35567349Y-38699667D02*
X35567349Y-41676667D01*
X35567349Y-43756667D02*
X35567349Y-46733667D01*
X35607349Y-38707667D02*
X35607349Y-41676667D01*
X35607349Y-43756667D02*
X35607349Y-46725667D01*
X35647349Y-38714667D02*
X35647349Y-41676667D01*
X35647349Y-43756667D02*
X35647349Y-46718667D01*
X35687349Y-38723667D02*
X35687349Y-41676667D01*
X35687349Y-43756667D02*
X35687349Y-46709667D01*
X35727349Y-38731667D02*
X35727349Y-41676667D01*
X35727349Y-43756667D02*
X35727349Y-46701667D01*
X35767349Y-38740667D02*
X35767349Y-41676667D01*
X35767349Y-43756667D02*
X35767349Y-46692667D01*
X35807349Y-38749667D02*
X35807349Y-41676667D01*
X35807349Y-43756667D02*
X35807349Y-46683667D01*
X35847349Y-38759667D02*
X35847349Y-41676667D01*
X35847349Y-43756667D02*
X35847349Y-46673667D01*
X35887349Y-38769667D02*
X35887349Y-41676667D01*
X35887349Y-43756667D02*
X35887349Y-46663667D01*
X35927349Y-38780667D02*
X35927349Y-41676667D01*
X35927349Y-43756667D02*
X35927349Y-46652667D01*
X35967349Y-38791667D02*
X35967349Y-41676667D01*
X35967349Y-43756667D02*
X35967349Y-46641667D01*
X36007349Y-38803667D02*
X36007349Y-41676667D01*
X36007349Y-43756667D02*
X36007349Y-46629667D01*
X36047349Y-38815667D02*
X36047349Y-41676667D01*
X36047349Y-43756667D02*
X36047349Y-46617667D01*
X36087349Y-38827667D02*
X36087349Y-41676667D01*
X36087349Y-43756667D02*
X36087349Y-46605667D01*
X36127349Y-38840667D02*
X36127349Y-41676667D01*
X36127349Y-43756667D02*
X36127349Y-46592667D01*
X36167349Y-38853667D02*
X36167349Y-41676667D01*
X36167349Y-43756667D02*
X36167349Y-46579667D01*
X36207349Y-38867667D02*
X36207349Y-41676667D01*
X36207349Y-43756667D02*
X36207349Y-46565667D01*
X36247349Y-38881667D02*
X36247349Y-41676667D01*
X36247349Y-43756667D02*
X36247349Y-46551667D01*
X36287349Y-38896667D02*
X36287349Y-41676667D01*
X36287349Y-43756667D02*
X36287349Y-46536667D01*
X36327349Y-38911667D02*
X36327349Y-41676667D01*
X36327349Y-43756667D02*
X36327349Y-46521667D01*
X36367349Y-38927667D02*
X36367349Y-41676667D01*
X36367349Y-43756667D02*
X36367349Y-46505667D01*
X36407349Y-38943667D02*
X36407349Y-41676667D01*
X36407349Y-43756667D02*
X36407349Y-46489667D01*
X36447349Y-38959667D02*
X36447349Y-41676667D01*
X36447349Y-43756667D02*
X36447349Y-46473667D01*
X36487349Y-38976667D02*
X36487349Y-41676667D01*
X36487349Y-43756667D02*
X36487349Y-46456667D01*
X36527349Y-38994667D02*
X36527349Y-41676667D01*
X36527349Y-43756667D02*
X36527349Y-46438667D01*
X36567349Y-39012667D02*
X36567349Y-41676667D01*
X36567349Y-43756667D02*
X36567349Y-46420667D01*
X36607349Y-39031667D02*
X36607349Y-41676667D01*
X36607349Y-43756667D02*
X36607349Y-46401667D01*
X36647349Y-39050667D02*
X36647349Y-41676667D01*
X36647349Y-43756667D02*
X36647349Y-46382667D01*
X36687349Y-39070667D02*
X36687349Y-41676667D01*
X36687349Y-43756667D02*
X36687349Y-46362667D01*
X36727349Y-39090667D02*
X36727349Y-41676667D01*
X36727349Y-43756667D02*
X36727349Y-46342667D01*
X36767349Y-39111667D02*
X36767349Y-41676667D01*
X36767349Y-43756667D02*
X36767349Y-46321667D01*
X36807349Y-39132667D02*
X36807349Y-41676667D01*
X36807349Y-43756667D02*
X36807349Y-46300667D01*
X36847349Y-39154667D02*
X36847349Y-41676667D01*
X36847349Y-43756667D02*
X36847349Y-46278667D01*
X36887349Y-39177667D02*
X36887349Y-41676667D01*
X36887349Y-43756667D02*
X36887349Y-46255667D01*
X36927349Y-39200667D02*
X36927349Y-41676667D01*
X36927349Y-43756667D02*
X36927349Y-46232667D01*
X36967349Y-39223667D02*
X36967349Y-41676667D01*
X36967349Y-43756667D02*
X36967349Y-46209667D01*
X37007349Y-39248667D02*
X37007349Y-41676667D01*
X37007349Y-43756667D02*
X37007349Y-46184667D01*
X37047349Y-39273667D02*
X37047349Y-41676667D01*
X37047349Y-43756667D02*
X37047349Y-46159667D01*
X37087349Y-39298667D02*
X37087349Y-41676667D01*
X37087349Y-43756667D02*
X37087349Y-46134667D01*
X37127349Y-39324667D02*
X37127349Y-41676667D01*
X37127349Y-43756667D02*
X37127349Y-46108667D01*
X37167349Y-39351667D02*
X37167349Y-41676667D01*
X37167349Y-43756667D02*
X37167349Y-46081667D01*
X37207349Y-39379667D02*
X37207349Y-41676667D01*
X37207349Y-43756667D02*
X37207349Y-46053667D01*
X37247349Y-39407667D02*
X37247349Y-41676667D01*
X37247349Y-43756667D02*
X37247349Y-46025667D01*
X37287349Y-39436667D02*
X37287349Y-41676667D01*
X37287349Y-43756667D02*
X37287349Y-45996667D01*
X37327349Y-39466667D02*
X37327349Y-41676667D01*
X37327349Y-43756667D02*
X37327349Y-45966667D01*
X37367349Y-39497667D02*
X37367349Y-41676667D01*
X37367349Y-43756667D02*
X37367349Y-45935667D01*
X37407349Y-39528667D02*
X37407349Y-41676667D01*
X37407349Y-43756667D02*
X37407349Y-45904667D01*
X37447349Y-39560667D02*
X37447349Y-41676667D01*
X37447349Y-43756667D02*
X37447349Y-45872667D01*
X37487349Y-39593667D02*
X37487349Y-41676667D01*
X37487349Y-43756667D02*
X37487349Y-45839667D01*
X37527349Y-39627667D02*
X37527349Y-41676667D01*
X37527349Y-43756667D02*
X37527349Y-45805667D01*
X37567349Y-39661667D02*
X37567349Y-41676667D01*
X37567349Y-43756667D02*
X37567349Y-45771667D01*
X37607349Y-39697667D02*
X37607349Y-41676667D01*
X37607349Y-43756667D02*
X37607349Y-45735667D01*
X37647349Y-39734667D02*
X37647349Y-45698667D01*
X37687349Y-39771667D02*
X37687349Y-45661667D01*
X37727349Y-39810667D02*
X37727349Y-45622667D01*
X37767349Y-39849667D02*
X37767349Y-45583667D01*
X37807349Y-39890667D02*
X37807349Y-45542667D01*
X37847349Y-39932667D02*
X37847349Y-45500667D01*
X37887349Y-39975667D02*
X37887349Y-45457667D01*
X37927349Y-40020667D02*
X37927349Y-45412667D01*
X37967349Y-40065667D02*
X37967349Y-45367667D01*
X38007349Y-40112667D02*
X38007349Y-45320667D01*
X38047349Y-40161667D02*
X38047349Y-45271667D01*
X38087349Y-40211667D02*
X38087349Y-45221667D01*
X38127349Y-40263667D02*
X38127349Y-45169667D01*
X38167349Y-40316667D02*
X38167349Y-45116667D01*
X38207349Y-40372667D02*
X38207349Y-45060667D01*
X38247349Y-40429667D02*
X38247349Y-45003667D01*
X38287349Y-40489667D02*
X38287349Y-44943667D01*
X38327349Y-40551667D02*
X38327349Y-44881667D01*
X38367349Y-40615667D02*
X38367349Y-44817667D01*
X38407349Y-40682667D02*
X38407349Y-44750667D01*
X38447349Y-40752667D02*
X38447349Y-44680667D01*
X38487349Y-40826667D02*
X38487349Y-44606667D01*
X38527349Y-40903667D02*
X38527349Y-44529667D01*
X38567349Y-40985667D02*
X38567349Y-44447667D01*
X38607349Y-41072667D02*
X38607349Y-44360667D01*
X38647349Y-41164667D02*
X38647349Y-44268667D01*
X38687349Y-41263667D02*
X38687349Y-44169667D01*
X38727349Y-41370667D02*
X38727349Y-44062667D01*
X38767349Y-41488667D02*
X38767349Y-43944667D01*
X38807349Y-41619667D02*
X38807349Y-43813667D01*
X38847349Y-41769667D02*
X38847349Y-43663667D01*
X38887349Y-41948667D02*
X38887349Y-43484667D01*
X38927349Y-42183667D02*
X38927349Y-43249667D01*
X38967349Y-42716667D02*
G75*
G02*
X30727349Y-42716667I-4120000J0D01*
G01*
X30727349Y-42716667D02*
G75*
G02*
X38967349Y-42716667I4120000J0D01*
G01*
%TO.C,Moisture D1-powered*%
X70250000Y-52600000D02*
X70250000Y-53850000D01*
X70250000Y-53850000D02*
X71500000Y-53850000D01*
X72800000Y-43450000D02*
X72800000Y-44200000D01*
X72800000Y-44200000D02*
X75750000Y-44200000D01*
X72800000Y-52800000D02*
X75750000Y-52800000D01*
X72800000Y-53550000D02*
X72800000Y-52800000D01*
X75750000Y-44200000D02*
X75750000Y-48500000D01*
X75750000Y-52800000D02*
X75750000Y-48500000D01*
X70540000Y-53560000D02*
X76510000Y-53560000D01*
X76510000Y-43440000D01*
X70540000Y-43440000D01*
X70540000Y-53560000D01*
X70550000Y-45250000D02*
X71300000Y-45250000D01*
X71300000Y-43450000D01*
X70550000Y-43450000D01*
X70550000Y-45250000D01*
X70550000Y-50250000D02*
X71300000Y-50250000D01*
X71300000Y-46750000D01*
X70550000Y-46750000D01*
X70550000Y-50250000D01*
X70550000Y-53550000D02*
X71300000Y-53550000D01*
X71300000Y-51750000D01*
X70550000Y-51750000D01*
X70550000Y-53550000D01*
%TO.C,D2*%
X32530000Y-82620000D02*
X35470000Y-82620000D01*
X32530000Y-82740000D02*
X35470000Y-82740000D01*
X32530000Y-82860000D02*
X35470000Y-82860000D01*
X34000000Y-77180000D02*
X34000000Y-78200000D01*
X34000000Y-84660000D02*
X34000000Y-83640000D01*
X32530000Y-83640000D02*
X35470000Y-83640000D01*
X35470000Y-78200000D01*
X32530000Y-78200000D01*
X32530000Y-83640000D01*
%TO.C,R1*%
X55800000Y-38460000D02*
X55800000Y-39230000D01*
X55800000Y-46540000D02*
X55800000Y-45770000D01*
X57170000Y-39230000D02*
X54430000Y-39230000D01*
X54430000Y-45770000D01*
X57170000Y-45770000D01*
X57170000Y-39230000D01*
%TO.C,Switch*%
X30650000Y-58183334D02*
X30650000Y-59433334D01*
X30950000Y-60733334D02*
X31700000Y-60733334D01*
X31700000Y-60733334D02*
X31700000Y-63683334D01*
X31700000Y-63683334D02*
X34750000Y-63683334D01*
X31900000Y-58183334D02*
X30650000Y-58183334D01*
X37800000Y-60733334D02*
X37800000Y-63683334D01*
X37800000Y-63683334D02*
X34750000Y-63683334D01*
X38550000Y-60733334D02*
X37800000Y-60733334D01*
X30940000Y-58473334D02*
X38560000Y-58473334D01*
X38560000Y-64443334D01*
X30940000Y-64443334D01*
X30940000Y-58473334D01*
X30950000Y-58483334D02*
X32750000Y-58483334D01*
X32750000Y-59233334D01*
X30950000Y-59233334D01*
X30950000Y-58483334D01*
X34250000Y-58483334D02*
X35250000Y-58483334D01*
X35250000Y-59233334D01*
X34250000Y-59233334D01*
X34250000Y-58483334D01*
X36750000Y-58483334D02*
X38550000Y-58483334D01*
X38550000Y-59233334D01*
X36750000Y-59233334D01*
X36750000Y-58483334D01*
%TO.C,R4*%
X45880000Y-66500000D02*
X46650000Y-66500000D01*
X53960000Y-66500000D02*
X53190000Y-66500000D01*
X46650000Y-65130000D02*
X53190000Y-65130000D01*
X53190000Y-67870000D01*
X46650000Y-67870000D01*
X46650000Y-65130000D01*
%TO.C,Battery*%
X30650000Y-49250000D02*
X30650000Y-50500000D01*
X30950000Y-51800000D02*
X31700000Y-51800000D01*
X31700000Y-51800000D02*
X31700000Y-54750000D01*
X31700000Y-54750000D02*
X34750000Y-54750000D01*
X31900000Y-49250000D02*
X30650000Y-49250000D01*
X37800000Y-51800000D02*
X37800000Y-54750000D01*
X37800000Y-54750000D02*
X34750000Y-54750000D01*
X38550000Y-51800000D02*
X37800000Y-51800000D01*
X30940000Y-49540000D02*
X38560000Y-49540000D01*
X38560000Y-55510000D01*
X30940000Y-55510000D01*
X30940000Y-49540000D01*
X30950000Y-49550000D02*
X32750000Y-49550000D01*
X32750000Y-50300000D01*
X30950000Y-50300000D01*
X30950000Y-49550000D01*
X34250000Y-49550000D02*
X35250000Y-49550000D01*
X35250000Y-50300000D01*
X34250000Y-50300000D01*
X34250000Y-49550000D01*
X36750000Y-49550000D02*
X38550000Y-49550000D01*
X38550000Y-50300000D01*
X36750000Y-50300000D01*
X36750000Y-49550000D01*
%TO.C,R5*%
X45880000Y-63000000D02*
X46650000Y-63000000D01*
X53960000Y-63000000D02*
X53190000Y-63000000D01*
X46650000Y-61630000D02*
X53190000Y-61630000D01*
X53190000Y-64370000D01*
X46650000Y-64370000D01*
X46650000Y-61630000D01*
%TO.C,R2*%
X52500000Y-38460000D02*
X52500000Y-39230000D01*
X52500000Y-46540000D02*
X52500000Y-45770000D01*
X53870000Y-39230000D02*
X51130000Y-39230000D01*
X51130000Y-45770000D01*
X53870000Y-45770000D01*
X53870000Y-39230000D01*
%TO.C,I2C D3-powered*%
X63150000Y-68250000D02*
X63150000Y-69500000D01*
X63450000Y-70800000D02*
X64200000Y-70800000D01*
X64200000Y-70800000D02*
X64200000Y-73750000D01*
X64200000Y-73750000D02*
X69750000Y-73750000D01*
X64400000Y-68250000D02*
X63150000Y-68250000D01*
X75300000Y-70800000D02*
X75300000Y-73750000D01*
X75300000Y-73750000D02*
X69750000Y-73750000D01*
X76050000Y-70800000D02*
X75300000Y-70800000D01*
X63440000Y-68540000D02*
X76060000Y-68540000D01*
X76060000Y-74510000D01*
X63440000Y-74510000D01*
X63440000Y-68540000D01*
X63450000Y-68550000D02*
X65250000Y-68550000D01*
X65250000Y-69300000D01*
X63450000Y-69300000D01*
X63450000Y-68550000D01*
X66750000Y-68550000D02*
X72750000Y-68550000D01*
X72750000Y-69300000D01*
X66750000Y-69300000D01*
X66750000Y-68550000D01*
X74250000Y-68550000D02*
X76050000Y-68550000D01*
X76050000Y-69300000D01*
X74250000Y-69300000D01*
X74250000Y-68550000D01*
%TO.C,R6*%
X45880000Y-59500000D02*
X46650000Y-59500000D01*
X53960000Y-59500000D02*
X53190000Y-59500000D01*
X46650000Y-58130000D02*
X53190000Y-58130000D01*
X53190000Y-60870000D01*
X46650000Y-60870000D01*
X46650000Y-58130000D01*
%TO.C,D1*%
X37030000Y-82700000D02*
X39970000Y-82700000D01*
X37030000Y-82820000D02*
X39970000Y-82820000D01*
X37030000Y-82940000D02*
X39970000Y-82940000D01*
X38500000Y-77260000D02*
X38500000Y-78280000D01*
X38500000Y-84740000D02*
X38500000Y-83720000D01*
X37030000Y-83720000D02*
X39970000Y-83720000D01*
X39970000Y-78280000D01*
X37030000Y-78280000D01*
X37030000Y-83720000D01*
%TD*%
M02*
