M48
; DRILL file {KiCad 9.0.7} date 2026-04-07T10:22:04+0200
; FORMAT={-:-/ absolute / metric / decimal}
; #@! TF.CreationDate,2026-04-07T10:22:04+02:00
; #@! TF.GenerationSoftware,Kicad,Pcbnew,9.0.7
; #@! TF.FileFunction,Plated,1,2,PTH
FMAT,2
METRIC
; #@! TA.AperFunction,Plated,PTH,ViaDrill
T1C0.300
; #@! TA.AperFunction,Plated,PTH,ComponentDrill
T2C0.750
; #@! TA.AperFunction,Plated,PTH,ComponentDrill
T3C0.800
; #@! TA.AperFunction,Plated,PTH,ComponentDrill
T4C0.950
; #@! TA.AperFunction,Plated,PTH,ComponentDrill
T5C1.000
; #@! TA.AperFunction,Plated,PTH,ComponentDrill
T6C1.100
%
G90
G05
T1
X59.0Y-64.5
T2
X33.75Y-69.217
X35.75Y-69.217
T3
X33.097Y-42.717
X36.597Y-42.717
X44.84Y-59.5
X44.84Y-63.0
X44.84Y-66.5
X44.84Y-70.0
X45.0Y-83.5
X48.5Y-83.5
X52.5Y-37.42
X52.5Y-47.58
X55.0Y-59.5
X55.0Y-63.0
X55.0Y-66.5
X55.0Y-70.0
X55.8Y-37.42
X55.8Y-47.58
T4
X66.0Y-62.5
X66.0Y-71.0
X66.0Y-79.5
X66.0Y-88.0
X68.5Y-62.5
X68.5Y-71.0
X68.5Y-79.5
X68.5Y-88.0
X71.0Y-62.5
X71.0Y-71.0
X71.0Y-79.5
X71.0Y-88.0
X73.0Y-46.0
X73.0Y-48.5
X73.0Y-51.0
X73.5Y-62.5
X73.5Y-71.0
X73.5Y-79.5
X73.5Y-88.0
T5
X33.5Y-52.0
X33.5Y-60.933
X36.0Y-52.0
X36.0Y-60.933
X41.5Y-34.1
X41.5Y-36.64
X41.5Y-39.18
X41.5Y-41.72
X41.5Y-44.26
X41.5Y-46.8
X41.5Y-49.34
X41.5Y-51.88
X41.5Y-54.42
X46.515Y-34.09
X46.515Y-36.63
X46.515Y-39.17
X46.515Y-41.71
X46.515Y-44.25
X46.515Y-46.79
X46.515Y-49.33
X46.515Y-51.87
X46.515Y-54.41
X55.0Y-83.0
X57.5Y-83.0
X61.755Y-34.09
X61.755Y-36.63
X61.755Y-39.17
X61.755Y-41.71
X61.755Y-44.25
X61.755Y-46.79
X61.755Y-49.33
X61.755Y-51.87
X61.755Y-54.41
X66.5Y-34.1
X66.5Y-36.64
X66.5Y-39.18
X66.5Y-41.72
X66.5Y-44.26
X66.5Y-46.8
X66.5Y-49.34
X66.5Y-51.88
X66.5Y-54.42
T6
X34.0Y-75.84
X34.0Y-86.0
X38.5Y-75.92
X38.5Y-86.08
X47.46Y-76.45
X50.0Y-76.45
X52.54Y-76.45
M30
