M48
; DRILL file {KiCad 9.0.7} date 2026-05-18T21:46:33+0200
; FORMAT={-:-/ absolute / inch / decimal}
; #@! TF.CreationDate,2026-05-18T21:46:33+02:00
; #@! TF.GenerationSoftware,Kicad,Pcbnew,9.0.7
; #@! TF.FileFunction,Plated,1,2,PTH
FMAT,2
INCH
; #@! TA.AperFunction,Plated,PTH,ViaDrill
T1C0.0118
; #@! TA.AperFunction,Plated,PTH,ComponentDrill
T2C0.0295
; #@! TA.AperFunction,Plated,PTH,ComponentDrill
T3C0.0315
; #@! TA.AperFunction,Plated,PTH,ComponentDrill
T4C0.0374
; #@! TA.AperFunction,Plated,PTH,ComponentDrill
T5C0.0394
; #@! TA.AperFunction,Plated,PTH,ComponentDrill
T6C0.0433
%
G90
G05
T1
X2.3228Y-2.5394
T2
X1.3287Y-2.7251
X1.4075Y-2.7251
T3
X1.303Y-1.6818
X1.4408Y-1.6818
X1.7654Y-2.3425
X1.7654Y-2.4803
X1.7654Y-2.6181
X1.7654Y-2.7559
X1.7717Y-3.2874
X1.9094Y-3.2874
X2.0669Y-1.4732
X2.0669Y-1.8732
X2.1654Y-2.3425
X2.1654Y-2.4803
X2.1654Y-2.6181
X2.1654Y-2.7559
X2.1969Y-1.4732
X2.1969Y-1.8732
T4
X2.5984Y-2.4606
X2.5984Y-2.7953
X2.5984Y-3.1299
X2.5984Y-3.4646
X2.6969Y-2.4606
X2.6969Y-2.7953
X2.6969Y-3.1299
X2.6969Y-3.4646
X2.7953Y-2.4606
X2.7953Y-2.7953
X2.7953Y-3.1299
X2.7953Y-3.4646
X2.874Y-1.811
X2.874Y-1.9094
X2.874Y-2.0079
X2.8937Y-2.4606
X2.8937Y-2.7953
X2.8937Y-3.1299
X2.8937Y-3.4646
T5
X1.3189Y-2.0472
X1.3189Y-2.399
X1.4173Y-2.0472
X1.4173Y-2.399
X1.6339Y-1.3425
X1.6339Y-1.4425
X1.6339Y-1.5425
X1.6339Y-1.6425
X1.6339Y-1.7425
X1.6339Y-1.8425
X1.6339Y-1.9425
X1.6339Y-2.0425
X1.6339Y-2.1425
X1.8313Y-1.3421
X1.8313Y-1.4421
X1.8313Y-1.5421
X1.8313Y-1.6421
X1.8313Y-1.7421
X1.8313Y-1.8421
X1.8313Y-1.9421
X1.8313Y-2.0421
X1.8313Y-2.1421
X2.1654Y-3.2677
X2.2638Y-3.2677
X2.4313Y-1.3421
X2.4313Y-1.4421
X2.4313Y-1.5421
X2.4313Y-1.6421
X2.4313Y-1.7421
X2.4313Y-1.8421
X2.4313Y-1.9421
X2.4313Y-2.0421
X2.4313Y-2.1421
X2.6181Y-1.3425
X2.6181Y-1.4425
X2.6181Y-1.5425
X2.6181Y-1.6425
X2.6181Y-1.7425
X2.6181Y-1.8425
X2.6181Y-1.9425
X2.6181Y-2.0425
X2.6181Y-2.1425
T6
X1.3386Y-2.9858
X1.3386Y-3.3858
X1.5157Y-2.989
X1.5157Y-3.389
X1.8685Y-3.0098
X1.9685Y-3.0098
X2.0685Y-3.0098
M30
