%TF.GenerationSoftware,KiCad,Pcbnew,9.0.7*%
%TF.CreationDate,2026-05-18T21:46:29+02:00*%
%TF.ProjectId,smart_plants_breakout_ws-board_rev2,736d6172-745f-4706-9c61-6e74735f6272,rev?*%
%TF.SameCoordinates,Original*%
%TF.FileFunction,Legend,Bot*%
%TF.FilePolarity,Positive*%
%FSLAX46Y46*%
G04 Gerber Fmt 4.6, Leading zero omitted, Abs format (unit mm)*
G04 Created by KiCad (PCBNEW 9.0.7) date 2026-05-18 21:46:29*
%MOMM*%
%LPD*%
G01*
G04 APERTURE LIST*
%ADD10C,0.100000*%
G04 APERTURE END LIST*
D10*
X59578190Y-89639785D02*
X59673428Y-89735024D01*
X59673428Y-89735024D02*
X59959142Y-89830262D01*
X59959142Y-89830262D02*
X60149618Y-89830262D01*
X60149618Y-89830262D02*
X60435333Y-89735024D01*
X60435333Y-89735024D02*
X60625809Y-89544547D01*
X60625809Y-89544547D02*
X60721047Y-89354071D01*
X60721047Y-89354071D02*
X60816285Y-88973119D01*
X60816285Y-88973119D02*
X60816285Y-88687404D01*
X60816285Y-88687404D02*
X60721047Y-88306452D01*
X60721047Y-88306452D02*
X60625809Y-88115976D01*
X60625809Y-88115976D02*
X60435333Y-87925500D01*
X60435333Y-87925500D02*
X60149618Y-87830262D01*
X60149618Y-87830262D02*
X59959142Y-87830262D01*
X59959142Y-87830262D02*
X59673428Y-87925500D01*
X59673428Y-87925500D02*
X59578190Y-88020738D01*
X57959142Y-89735024D02*
X58149618Y-89830262D01*
X58149618Y-89830262D02*
X58530571Y-89830262D01*
X58530571Y-89830262D02*
X58721047Y-89735024D01*
X58721047Y-89735024D02*
X58816285Y-89544547D01*
X58816285Y-89544547D02*
X58816285Y-88782643D01*
X58816285Y-88782643D02*
X58721047Y-88592166D01*
X58721047Y-88592166D02*
X58530571Y-88496928D01*
X58530571Y-88496928D02*
X58149618Y-88496928D01*
X58149618Y-88496928D02*
X57959142Y-88592166D01*
X57959142Y-88592166D02*
X57863904Y-88782643D01*
X57863904Y-88782643D02*
X57863904Y-88973119D01*
X57863904Y-88973119D02*
X58816285Y-89163595D01*
X57006761Y-89830262D02*
X57006761Y-88496928D01*
X57006761Y-88877881D02*
X56911523Y-88687404D01*
X56911523Y-88687404D02*
X56816285Y-88592166D01*
X56816285Y-88592166D02*
X56625809Y-88496928D01*
X56625809Y-88496928D02*
X56435332Y-88496928D01*
X56054380Y-88496928D02*
X55292476Y-88496928D01*
X55768666Y-87830262D02*
X55768666Y-89544547D01*
X55768666Y-89544547D02*
X55673428Y-89735024D01*
X55673428Y-89735024D02*
X55482952Y-89830262D01*
X55482952Y-89830262D02*
X55292476Y-89830262D01*
X54625809Y-89830262D02*
X54625809Y-88496928D01*
X54625809Y-87830262D02*
X54721047Y-87925500D01*
X54721047Y-87925500D02*
X54625809Y-88020738D01*
X54625809Y-88020738D02*
X54530571Y-87925500D01*
X54530571Y-87925500D02*
X54625809Y-87830262D01*
X54625809Y-87830262D02*
X54625809Y-88020738D01*
X53959142Y-88496928D02*
X53197238Y-88496928D01*
X53673428Y-89830262D02*
X53673428Y-88115976D01*
X53673428Y-88115976D02*
X53578190Y-87925500D01*
X53578190Y-87925500D02*
X53387714Y-87830262D01*
X53387714Y-87830262D02*
X53197238Y-87830262D01*
X52530571Y-89830262D02*
X52530571Y-88496928D01*
X52530571Y-87830262D02*
X52625809Y-87925500D01*
X52625809Y-87925500D02*
X52530571Y-88020738D01*
X52530571Y-88020738D02*
X52435333Y-87925500D01*
X52435333Y-87925500D02*
X52530571Y-87830262D01*
X52530571Y-87830262D02*
X52530571Y-88020738D01*
X50816285Y-89735024D02*
X51006761Y-89830262D01*
X51006761Y-89830262D02*
X51387714Y-89830262D01*
X51387714Y-89830262D02*
X51578190Y-89735024D01*
X51578190Y-89735024D02*
X51673428Y-89544547D01*
X51673428Y-89544547D02*
X51673428Y-88782643D01*
X51673428Y-88782643D02*
X51578190Y-88592166D01*
X51578190Y-88592166D02*
X51387714Y-88496928D01*
X51387714Y-88496928D02*
X51006761Y-88496928D01*
X51006761Y-88496928D02*
X50816285Y-88592166D01*
X50816285Y-88592166D02*
X50721047Y-88782643D01*
X50721047Y-88782643D02*
X50721047Y-88973119D01*
X50721047Y-88973119D02*
X51673428Y-89163595D01*
X49006761Y-89830262D02*
X49006761Y-87830262D01*
X49006761Y-89735024D02*
X49197237Y-89830262D01*
X49197237Y-89830262D02*
X49578190Y-89830262D01*
X49578190Y-89830262D02*
X49768666Y-89735024D01*
X49768666Y-89735024D02*
X49863904Y-89639785D01*
X49863904Y-89639785D02*
X49959142Y-89449309D01*
X49959142Y-89449309D02*
X49959142Y-88877881D01*
X49959142Y-88877881D02*
X49863904Y-88687404D01*
X49863904Y-88687404D02*
X49768666Y-88592166D01*
X49768666Y-88592166D02*
X49578190Y-88496928D01*
X49578190Y-88496928D02*
X49197237Y-88496928D01*
X49197237Y-88496928D02*
X49006761Y-88592166D01*
X70482953Y-91050150D02*
X70102000Y-91050150D01*
X70102000Y-91050150D02*
X69911524Y-91145388D01*
X69911524Y-91145388D02*
X69721048Y-91335864D01*
X69721048Y-91335864D02*
X69625810Y-91716816D01*
X69625810Y-91716816D02*
X69625810Y-92383483D01*
X69625810Y-92383483D02*
X69721048Y-92764435D01*
X69721048Y-92764435D02*
X69911524Y-92954912D01*
X69911524Y-92954912D02*
X70102000Y-93050150D01*
X70102000Y-93050150D02*
X70482953Y-93050150D01*
X70482953Y-93050150D02*
X70673429Y-92954912D01*
X70673429Y-92954912D02*
X70863905Y-92764435D01*
X70863905Y-92764435D02*
X70959143Y-92383483D01*
X70959143Y-92383483D02*
X70959143Y-91716816D01*
X70959143Y-91716816D02*
X70863905Y-91335864D01*
X70863905Y-91335864D02*
X70673429Y-91145388D01*
X70673429Y-91145388D02*
X70482953Y-91050150D01*
X68768667Y-91716816D02*
X68768667Y-93716816D01*
X68768667Y-91812054D02*
X68578191Y-91716816D01*
X68578191Y-91716816D02*
X68197238Y-91716816D01*
X68197238Y-91716816D02*
X68006762Y-91812054D01*
X68006762Y-91812054D02*
X67911524Y-91907292D01*
X67911524Y-91907292D02*
X67816286Y-92097769D01*
X67816286Y-92097769D02*
X67816286Y-92669197D01*
X67816286Y-92669197D02*
X67911524Y-92859673D01*
X67911524Y-92859673D02*
X68006762Y-92954912D01*
X68006762Y-92954912D02*
X68197238Y-93050150D01*
X68197238Y-93050150D02*
X68578191Y-93050150D01*
X68578191Y-93050150D02*
X68768667Y-92954912D01*
X66197238Y-92954912D02*
X66387714Y-93050150D01*
X66387714Y-93050150D02*
X66768667Y-93050150D01*
X66768667Y-93050150D02*
X66959143Y-92954912D01*
X66959143Y-92954912D02*
X67054381Y-92764435D01*
X67054381Y-92764435D02*
X67054381Y-92002531D01*
X67054381Y-92002531D02*
X66959143Y-91812054D01*
X66959143Y-91812054D02*
X66768667Y-91716816D01*
X66768667Y-91716816D02*
X66387714Y-91716816D01*
X66387714Y-91716816D02*
X66197238Y-91812054D01*
X66197238Y-91812054D02*
X66102000Y-92002531D01*
X66102000Y-92002531D02*
X66102000Y-92193007D01*
X66102000Y-92193007D02*
X67054381Y-92383483D01*
X65244857Y-91716816D02*
X65244857Y-93050150D01*
X65244857Y-91907292D02*
X65149619Y-91812054D01*
X65149619Y-91812054D02*
X64959143Y-91716816D01*
X64959143Y-91716816D02*
X64673428Y-91716816D01*
X64673428Y-91716816D02*
X64482952Y-91812054D01*
X64482952Y-91812054D02*
X64387714Y-92002531D01*
X64387714Y-92002531D02*
X64387714Y-93050150D01*
X62006761Y-92954912D02*
X61721047Y-93050150D01*
X61721047Y-93050150D02*
X61244856Y-93050150D01*
X61244856Y-93050150D02*
X61054380Y-92954912D01*
X61054380Y-92954912D02*
X60959142Y-92859673D01*
X60959142Y-92859673D02*
X60863904Y-92669197D01*
X60863904Y-92669197D02*
X60863904Y-92478721D01*
X60863904Y-92478721D02*
X60959142Y-92288245D01*
X60959142Y-92288245D02*
X61054380Y-92193007D01*
X61054380Y-92193007D02*
X61244856Y-92097769D01*
X61244856Y-92097769D02*
X61625809Y-92002531D01*
X61625809Y-92002531D02*
X61816285Y-91907292D01*
X61816285Y-91907292D02*
X61911523Y-91812054D01*
X61911523Y-91812054D02*
X62006761Y-91621578D01*
X62006761Y-91621578D02*
X62006761Y-91431102D01*
X62006761Y-91431102D02*
X61911523Y-91240626D01*
X61911523Y-91240626D02*
X61816285Y-91145388D01*
X61816285Y-91145388D02*
X61625809Y-91050150D01*
X61625809Y-91050150D02*
X61149618Y-91050150D01*
X61149618Y-91050150D02*
X60863904Y-91145388D01*
X59721047Y-93050150D02*
X59911523Y-92954912D01*
X59911523Y-92954912D02*
X60006761Y-92859673D01*
X60006761Y-92859673D02*
X60101999Y-92669197D01*
X60101999Y-92669197D02*
X60101999Y-92097769D01*
X60101999Y-92097769D02*
X60006761Y-91907292D01*
X60006761Y-91907292D02*
X59911523Y-91812054D01*
X59911523Y-91812054D02*
X59721047Y-91716816D01*
X59721047Y-91716816D02*
X59435332Y-91716816D01*
X59435332Y-91716816D02*
X59244856Y-91812054D01*
X59244856Y-91812054D02*
X59149618Y-91907292D01*
X59149618Y-91907292D02*
X59054380Y-92097769D01*
X59054380Y-92097769D02*
X59054380Y-92669197D01*
X59054380Y-92669197D02*
X59149618Y-92859673D01*
X59149618Y-92859673D02*
X59244856Y-92954912D01*
X59244856Y-92954912D02*
X59435332Y-93050150D01*
X59435332Y-93050150D02*
X59721047Y-93050150D01*
X57340094Y-91716816D02*
X57340094Y-93050150D01*
X58197237Y-91716816D02*
X58197237Y-92764435D01*
X58197237Y-92764435D02*
X58101999Y-92954912D01*
X58101999Y-92954912D02*
X57911523Y-93050150D01*
X57911523Y-93050150D02*
X57625808Y-93050150D01*
X57625808Y-93050150D02*
X57435332Y-92954912D01*
X57435332Y-92954912D02*
X57340094Y-92859673D01*
X56387713Y-93050150D02*
X56387713Y-91716816D01*
X56387713Y-92097769D02*
X56292475Y-91907292D01*
X56292475Y-91907292D02*
X56197237Y-91812054D01*
X56197237Y-91812054D02*
X56006761Y-91716816D01*
X56006761Y-91716816D02*
X55816284Y-91716816D01*
X54292475Y-92954912D02*
X54482951Y-93050150D01*
X54482951Y-93050150D02*
X54863904Y-93050150D01*
X54863904Y-93050150D02*
X55054380Y-92954912D01*
X55054380Y-92954912D02*
X55149618Y-92859673D01*
X55149618Y-92859673D02*
X55244856Y-92669197D01*
X55244856Y-92669197D02*
X55244856Y-92097769D01*
X55244856Y-92097769D02*
X55149618Y-91907292D01*
X55149618Y-91907292D02*
X55054380Y-91812054D01*
X55054380Y-91812054D02*
X54863904Y-91716816D01*
X54863904Y-91716816D02*
X54482951Y-91716816D01*
X54482951Y-91716816D02*
X54292475Y-91812054D01*
X52673427Y-92954912D02*
X52863903Y-93050150D01*
X52863903Y-93050150D02*
X53244856Y-93050150D01*
X53244856Y-93050150D02*
X53435332Y-92954912D01*
X53435332Y-92954912D02*
X53530570Y-92764435D01*
X53530570Y-92764435D02*
X53530570Y-92002531D01*
X53530570Y-92002531D02*
X53435332Y-91812054D01*
X53435332Y-91812054D02*
X53244856Y-91716816D01*
X53244856Y-91716816D02*
X52863903Y-91716816D01*
X52863903Y-91716816D02*
X52673427Y-91812054D01*
X52673427Y-91812054D02*
X52578189Y-92002531D01*
X52578189Y-92002531D02*
X52578189Y-92193007D01*
X52578189Y-92193007D02*
X53530570Y-92383483D01*
X50197236Y-93050150D02*
X50197236Y-91050150D01*
X50197236Y-92002531D02*
X49054379Y-92002531D01*
X49054379Y-93050150D02*
X49054379Y-91050150D01*
X47244855Y-93050150D02*
X47244855Y-92002531D01*
X47244855Y-92002531D02*
X47340093Y-91812054D01*
X47340093Y-91812054D02*
X47530569Y-91716816D01*
X47530569Y-91716816D02*
X47911522Y-91716816D01*
X47911522Y-91716816D02*
X48101998Y-91812054D01*
X47244855Y-92954912D02*
X47435331Y-93050150D01*
X47435331Y-93050150D02*
X47911522Y-93050150D01*
X47911522Y-93050150D02*
X48101998Y-92954912D01*
X48101998Y-92954912D02*
X48197236Y-92764435D01*
X48197236Y-92764435D02*
X48197236Y-92573959D01*
X48197236Y-92573959D02*
X48101998Y-92383483D01*
X48101998Y-92383483D02*
X47911522Y-92288245D01*
X47911522Y-92288245D02*
X47435331Y-92288245D01*
X47435331Y-92288245D02*
X47244855Y-92193007D01*
X46292474Y-93050150D02*
X46292474Y-91716816D01*
X46292474Y-92097769D02*
X46197236Y-91907292D01*
X46197236Y-91907292D02*
X46101998Y-91812054D01*
X46101998Y-91812054D02*
X45911522Y-91716816D01*
X45911522Y-91716816D02*
X45721045Y-91716816D01*
X44197236Y-93050150D02*
X44197236Y-91050150D01*
X44197236Y-92954912D02*
X44387712Y-93050150D01*
X44387712Y-93050150D02*
X44768665Y-93050150D01*
X44768665Y-93050150D02*
X44959141Y-92954912D01*
X44959141Y-92954912D02*
X45054379Y-92859673D01*
X45054379Y-92859673D02*
X45149617Y-92669197D01*
X45149617Y-92669197D02*
X45149617Y-92097769D01*
X45149617Y-92097769D02*
X45054379Y-91907292D01*
X45054379Y-91907292D02*
X44959141Y-91812054D01*
X44959141Y-91812054D02*
X44768665Y-91716816D01*
X44768665Y-91716816D02*
X44387712Y-91716816D01*
X44387712Y-91716816D02*
X44197236Y-91812054D01*
X43435331Y-91716816D02*
X43054379Y-93050150D01*
X43054379Y-93050150D02*
X42673426Y-92097769D01*
X42673426Y-92097769D02*
X42292474Y-93050150D01*
X42292474Y-93050150D02*
X41911522Y-91716816D01*
X40292474Y-93050150D02*
X40292474Y-92002531D01*
X40292474Y-92002531D02*
X40387712Y-91812054D01*
X40387712Y-91812054D02*
X40578188Y-91716816D01*
X40578188Y-91716816D02*
X40959141Y-91716816D01*
X40959141Y-91716816D02*
X41149617Y-91812054D01*
X40292474Y-92954912D02*
X40482950Y-93050150D01*
X40482950Y-93050150D02*
X40959141Y-93050150D01*
X40959141Y-93050150D02*
X41149617Y-92954912D01*
X41149617Y-92954912D02*
X41244855Y-92764435D01*
X41244855Y-92764435D02*
X41244855Y-92573959D01*
X41244855Y-92573959D02*
X41149617Y-92383483D01*
X41149617Y-92383483D02*
X40959141Y-92288245D01*
X40959141Y-92288245D02*
X40482950Y-92288245D01*
X40482950Y-92288245D02*
X40292474Y-92193007D01*
X39340093Y-93050150D02*
X39340093Y-91716816D01*
X39340093Y-92097769D02*
X39244855Y-91907292D01*
X39244855Y-91907292D02*
X39149617Y-91812054D01*
X39149617Y-91812054D02*
X38959141Y-91716816D01*
X38959141Y-91716816D02*
X38768664Y-91716816D01*
X37340093Y-92954912D02*
X37530569Y-93050150D01*
X37530569Y-93050150D02*
X37911522Y-93050150D01*
X37911522Y-93050150D02*
X38101998Y-92954912D01*
X38101998Y-92954912D02*
X38197236Y-92764435D01*
X38197236Y-92764435D02*
X38197236Y-92002531D01*
X38197236Y-92002531D02*
X38101998Y-91812054D01*
X38101998Y-91812054D02*
X37911522Y-91716816D01*
X37911522Y-91716816D02*
X37530569Y-91716816D01*
X37530569Y-91716816D02*
X37340093Y-91812054D01*
X37340093Y-91812054D02*
X37244855Y-92002531D01*
X37244855Y-92002531D02*
X37244855Y-92193007D01*
X37244855Y-92193007D02*
X38197236Y-92383483D01*
X69387715Y-94270038D02*
X69006762Y-94270038D01*
X69006762Y-94270038D02*
X68816286Y-94365276D01*
X68816286Y-94365276D02*
X68625810Y-94555752D01*
X68625810Y-94555752D02*
X68530572Y-94936704D01*
X68530572Y-94936704D02*
X68530572Y-95603371D01*
X68530572Y-95603371D02*
X68625810Y-95984323D01*
X68625810Y-95984323D02*
X68816286Y-96174800D01*
X68816286Y-96174800D02*
X69006762Y-96270038D01*
X69006762Y-96270038D02*
X69387715Y-96270038D01*
X69387715Y-96270038D02*
X69578191Y-96174800D01*
X69578191Y-96174800D02*
X69768667Y-95984323D01*
X69768667Y-95984323D02*
X69863905Y-95603371D01*
X69863905Y-95603371D02*
X69863905Y-94936704D01*
X69863905Y-94936704D02*
X69768667Y-94555752D01*
X69768667Y-94555752D02*
X69578191Y-94365276D01*
X69578191Y-94365276D02*
X69387715Y-94270038D01*
X67768667Y-96174800D02*
X67482953Y-96270038D01*
X67482953Y-96270038D02*
X67006762Y-96270038D01*
X67006762Y-96270038D02*
X66816286Y-96174800D01*
X66816286Y-96174800D02*
X66721048Y-96079561D01*
X66721048Y-96079561D02*
X66625810Y-95889085D01*
X66625810Y-95889085D02*
X66625810Y-95698609D01*
X66625810Y-95698609D02*
X66721048Y-95508133D01*
X66721048Y-95508133D02*
X66816286Y-95412895D01*
X66816286Y-95412895D02*
X67006762Y-95317657D01*
X67006762Y-95317657D02*
X67387715Y-95222419D01*
X67387715Y-95222419D02*
X67578191Y-95127180D01*
X67578191Y-95127180D02*
X67673429Y-95031942D01*
X67673429Y-95031942D02*
X67768667Y-94841466D01*
X67768667Y-94841466D02*
X67768667Y-94650990D01*
X67768667Y-94650990D02*
X67673429Y-94460514D01*
X67673429Y-94460514D02*
X67578191Y-94365276D01*
X67578191Y-94365276D02*
X67387715Y-94270038D01*
X67387715Y-94270038D02*
X66911524Y-94270038D01*
X66911524Y-94270038D02*
X66625810Y-94365276D01*
X65768667Y-96270038D02*
X65768667Y-94270038D01*
X65768667Y-95222419D02*
X64625810Y-95222419D01*
X64625810Y-96270038D02*
X64625810Y-94270038D01*
X63863905Y-94270038D02*
X63387715Y-96270038D01*
X63387715Y-96270038D02*
X63006762Y-94841466D01*
X63006762Y-94841466D02*
X62625810Y-96270038D01*
X62625810Y-96270038D02*
X62149620Y-94270038D01*
X61482953Y-95698609D02*
X60530572Y-95698609D01*
X61673429Y-96270038D02*
X61006763Y-94270038D01*
X61006763Y-94270038D02*
X60340096Y-96270038D01*
X58149619Y-96270038D02*
X58149619Y-94270038D01*
X57197238Y-96270038D02*
X57197238Y-94270038D01*
X57197238Y-94270038D02*
X56721048Y-94270038D01*
X56721048Y-94270038D02*
X56435333Y-94365276D01*
X56435333Y-94365276D02*
X56244857Y-94555752D01*
X56244857Y-94555752D02*
X56149619Y-94746228D01*
X56149619Y-94746228D02*
X56054381Y-95127180D01*
X56054381Y-95127180D02*
X56054381Y-95412895D01*
X56054381Y-95412895D02*
X56149619Y-95793847D01*
X56149619Y-95793847D02*
X56244857Y-95984323D01*
X56244857Y-95984323D02*
X56435333Y-96174800D01*
X56435333Y-96174800D02*
X56721048Y-96270038D01*
X56721048Y-96270038D02*
X57197238Y-96270038D01*
X55197238Y-96079561D02*
X55102000Y-96174800D01*
X55102000Y-96174800D02*
X55197238Y-96270038D01*
X55197238Y-96270038D02*
X55292476Y-96174800D01*
X55292476Y-96174800D02*
X55197238Y-96079561D01*
X55197238Y-96079561D02*
X55197238Y-96270038D01*
X55197238Y-95031942D02*
X55102000Y-95127180D01*
X55102000Y-95127180D02*
X55197238Y-95222419D01*
X55197238Y-95222419D02*
X55292476Y-95127180D01*
X55292476Y-95127180D02*
X55197238Y-95031942D01*
X55197238Y-95031942D02*
X55197238Y-95222419D01*
X52721047Y-96270038D02*
X52721047Y-94270038D01*
X52721047Y-94270038D02*
X52244857Y-94270038D01*
X52244857Y-94270038D02*
X51959142Y-94365276D01*
X51959142Y-94365276D02*
X51768666Y-94555752D01*
X51768666Y-94555752D02*
X51673428Y-94746228D01*
X51673428Y-94746228D02*
X51578190Y-95127180D01*
X51578190Y-95127180D02*
X51578190Y-95412895D01*
X51578190Y-95412895D02*
X51673428Y-95793847D01*
X51673428Y-95793847D02*
X51768666Y-95984323D01*
X51768666Y-95984323D02*
X51959142Y-96174800D01*
X51959142Y-96174800D02*
X52244857Y-96270038D01*
X52244857Y-96270038D02*
X52721047Y-96270038D01*
X50721047Y-95222419D02*
X50054380Y-95222419D01*
X49768666Y-96270038D02*
X50721047Y-96270038D01*
X50721047Y-96270038D02*
X50721047Y-94270038D01*
X50721047Y-94270038D02*
X49768666Y-94270038D01*
X48530571Y-94270038D02*
X48340094Y-94270038D01*
X48340094Y-94270038D02*
X48149618Y-94365276D01*
X48149618Y-94365276D02*
X48054380Y-94460514D01*
X48054380Y-94460514D02*
X47959142Y-94650990D01*
X47959142Y-94650990D02*
X47863904Y-95031942D01*
X47863904Y-95031942D02*
X47863904Y-95508133D01*
X47863904Y-95508133D02*
X47959142Y-95889085D01*
X47959142Y-95889085D02*
X48054380Y-96079561D01*
X48054380Y-96079561D02*
X48149618Y-96174800D01*
X48149618Y-96174800D02*
X48340094Y-96270038D01*
X48340094Y-96270038D02*
X48530571Y-96270038D01*
X48530571Y-96270038D02*
X48721047Y-96174800D01*
X48721047Y-96174800D02*
X48816285Y-96079561D01*
X48816285Y-96079561D02*
X48911523Y-95889085D01*
X48911523Y-95889085D02*
X49006761Y-95508133D01*
X49006761Y-95508133D02*
X49006761Y-95031942D01*
X49006761Y-95031942D02*
X48911523Y-94650990D01*
X48911523Y-94650990D02*
X48816285Y-94460514D01*
X48816285Y-94460514D02*
X48721047Y-94365276D01*
X48721047Y-94365276D02*
X48530571Y-94270038D01*
X46625809Y-94270038D02*
X46435332Y-94270038D01*
X46435332Y-94270038D02*
X46244856Y-94365276D01*
X46244856Y-94365276D02*
X46149618Y-94460514D01*
X46149618Y-94460514D02*
X46054380Y-94650990D01*
X46054380Y-94650990D02*
X45959142Y-95031942D01*
X45959142Y-95031942D02*
X45959142Y-95508133D01*
X45959142Y-95508133D02*
X46054380Y-95889085D01*
X46054380Y-95889085D02*
X46149618Y-96079561D01*
X46149618Y-96079561D02*
X46244856Y-96174800D01*
X46244856Y-96174800D02*
X46435332Y-96270038D01*
X46435332Y-96270038D02*
X46625809Y-96270038D01*
X46625809Y-96270038D02*
X46816285Y-96174800D01*
X46816285Y-96174800D02*
X46911523Y-96079561D01*
X46911523Y-96079561D02*
X47006761Y-95889085D01*
X47006761Y-95889085D02*
X47101999Y-95508133D01*
X47101999Y-95508133D02*
X47101999Y-95031942D01*
X47101999Y-95031942D02*
X47006761Y-94650990D01*
X47006761Y-94650990D02*
X46911523Y-94460514D01*
X46911523Y-94460514D02*
X46816285Y-94365276D01*
X46816285Y-94365276D02*
X46625809Y-94270038D01*
X44721047Y-94270038D02*
X44530570Y-94270038D01*
X44530570Y-94270038D02*
X44340094Y-94365276D01*
X44340094Y-94365276D02*
X44244856Y-94460514D01*
X44244856Y-94460514D02*
X44149618Y-94650990D01*
X44149618Y-94650990D02*
X44054380Y-95031942D01*
X44054380Y-95031942D02*
X44054380Y-95508133D01*
X44054380Y-95508133D02*
X44149618Y-95889085D01*
X44149618Y-95889085D02*
X44244856Y-96079561D01*
X44244856Y-96079561D02*
X44340094Y-96174800D01*
X44340094Y-96174800D02*
X44530570Y-96270038D01*
X44530570Y-96270038D02*
X44721047Y-96270038D01*
X44721047Y-96270038D02*
X44911523Y-96174800D01*
X44911523Y-96174800D02*
X45006761Y-96079561D01*
X45006761Y-96079561D02*
X45101999Y-95889085D01*
X45101999Y-95889085D02*
X45197237Y-95508133D01*
X45197237Y-95508133D02*
X45197237Y-95031942D01*
X45197237Y-95031942D02*
X45101999Y-94650990D01*
X45101999Y-94650990D02*
X45006761Y-94460514D01*
X45006761Y-94460514D02*
X44911523Y-94365276D01*
X44911523Y-94365276D02*
X44721047Y-94270038D01*
X42149618Y-96270038D02*
X43292475Y-96270038D01*
X42721047Y-96270038D02*
X42721047Y-94270038D01*
X42721047Y-94270038D02*
X42911523Y-94555752D01*
X42911523Y-94555752D02*
X43101999Y-94746228D01*
X43101999Y-94746228D02*
X43292475Y-94841466D01*
X41482951Y-94270038D02*
X40149618Y-94270038D01*
X40149618Y-94270038D02*
X41006761Y-96270038D01*
X39578189Y-94270038D02*
X38340094Y-94270038D01*
X38340094Y-94270038D02*
X39006761Y-95031942D01*
X39006761Y-95031942D02*
X38721046Y-95031942D01*
X38721046Y-95031942D02*
X38530570Y-95127180D01*
X38530570Y-95127180D02*
X38435332Y-95222419D01*
X38435332Y-95222419D02*
X38340094Y-95412895D01*
X38340094Y-95412895D02*
X38340094Y-95889085D01*
X38340094Y-95889085D02*
X38435332Y-96079561D01*
X38435332Y-96079561D02*
X38530570Y-96174800D01*
X38530570Y-96174800D02*
X38721046Y-96270038D01*
X38721046Y-96270038D02*
X39292475Y-96270038D01*
X39292475Y-96270038D02*
X39482951Y-96174800D01*
X39482951Y-96174800D02*
X39578189Y-96079561D01*
M02*
