%TF.GenerationSoftware,KiCad,Pcbnew,9.0.4*%
%TF.CreationDate,2025-11-21T22:02:30+01:00*%
%TF.ProjectId,smart_plants_breakout_rev1,736d6172-745f-4706-9c61-6e74735f6272,rev?*%
%TF.SameCoordinates,Original*%
%TF.FileFunction,Legend,Top*%
%TF.FilePolarity,Positive*%
%FSLAX46Y46*%
G04 Gerber Fmt 4.6, Leading zero omitted, Abs format (unit mm)*
G04 Created by KiCad (PCBNEW 9.0.4) date 2025-11-21 22:02:30*
%MOMM*%
%LPD*%
G01*
G04 APERTURE LIST*
%ADD10C,0.150000*%
%ADD11C,0.120000*%
%ADD12C,0.127000*%
%ADD13C,0.100000*%
%ADD14C,0.504000*%
G04 APERTURE END LIST*
D10*
X157146666Y-43904819D02*
X157146666Y-44619104D01*
X157146666Y-44619104D02*
X157099047Y-44761961D01*
X157099047Y-44761961D02*
X157003809Y-44857200D01*
X157003809Y-44857200D02*
X156860952Y-44904819D01*
X156860952Y-44904819D02*
X156765714Y-44904819D01*
X158051428Y-44238152D02*
X158051428Y-44904819D01*
X157813333Y-43857200D02*
X157575238Y-44571485D01*
X157575238Y-44571485D02*
X158194285Y-44571485D01*
X140676666Y-60674819D02*
X140676666Y-61389104D01*
X140676666Y-61389104D02*
X140629047Y-61531961D01*
X140629047Y-61531961D02*
X140533809Y-61627200D01*
X140533809Y-61627200D02*
X140390952Y-61674819D01*
X140390952Y-61674819D02*
X140295714Y-61674819D01*
X141200476Y-61674819D02*
X141390952Y-61674819D01*
X141390952Y-61674819D02*
X141486190Y-61627200D01*
X141486190Y-61627200D02*
X141533809Y-61579580D01*
X141533809Y-61579580D02*
X141629047Y-61436723D01*
X141629047Y-61436723D02*
X141676666Y-61246247D01*
X141676666Y-61246247D02*
X141676666Y-60865295D01*
X141676666Y-60865295D02*
X141629047Y-60770057D01*
X141629047Y-60770057D02*
X141581428Y-60722438D01*
X141581428Y-60722438D02*
X141486190Y-60674819D01*
X141486190Y-60674819D02*
X141295714Y-60674819D01*
X141295714Y-60674819D02*
X141200476Y-60722438D01*
X141200476Y-60722438D02*
X141152857Y-60770057D01*
X141152857Y-60770057D02*
X141105238Y-60865295D01*
X141105238Y-60865295D02*
X141105238Y-61103390D01*
X141105238Y-61103390D02*
X141152857Y-61198628D01*
X141152857Y-61198628D02*
X141200476Y-61246247D01*
X141200476Y-61246247D02*
X141295714Y-61293866D01*
X141295714Y-61293866D02*
X141486190Y-61293866D01*
X141486190Y-61293866D02*
X141581428Y-61246247D01*
X141581428Y-61246247D02*
X141629047Y-61198628D01*
X141629047Y-61198628D02*
X141676666Y-61103390D01*
X156594819Y-79478094D02*
X155594819Y-79478094D01*
X155594819Y-79478094D02*
X155594819Y-79239999D01*
X155594819Y-79239999D02*
X155642438Y-79097142D01*
X155642438Y-79097142D02*
X155737676Y-79001904D01*
X155737676Y-79001904D02*
X155832914Y-78954285D01*
X155832914Y-78954285D02*
X156023390Y-78906666D01*
X156023390Y-78906666D02*
X156166247Y-78906666D01*
X156166247Y-78906666D02*
X156356723Y-78954285D01*
X156356723Y-78954285D02*
X156451961Y-79001904D01*
X156451961Y-79001904D02*
X156547200Y-79097142D01*
X156547200Y-79097142D02*
X156594819Y-79239999D01*
X156594819Y-79239999D02*
X156594819Y-79478094D01*
X156594819Y-77954285D02*
X156594819Y-78525713D01*
X156594819Y-78239999D02*
X155594819Y-78239999D01*
X155594819Y-78239999D02*
X155737676Y-78335237D01*
X155737676Y-78335237D02*
X155832914Y-78430475D01*
X155832914Y-78430475D02*
X155880533Y-78525713D01*
X156224819Y-73921904D02*
X155224819Y-73921904D01*
X156224819Y-73350476D02*
X155653390Y-73779047D01*
X155224819Y-73350476D02*
X155796247Y-73921904D01*
X125396666Y-38984819D02*
X125396666Y-39699104D01*
X125396666Y-39699104D02*
X125349047Y-39841961D01*
X125349047Y-39841961D02*
X125253809Y-39937200D01*
X125253809Y-39937200D02*
X125110952Y-39984819D01*
X125110952Y-39984819D02*
X125015714Y-39984819D01*
X126396666Y-39984819D02*
X125825238Y-39984819D01*
X126110952Y-39984819D02*
X126110952Y-38984819D01*
X126110952Y-38984819D02*
X126015714Y-39127676D01*
X126015714Y-39127676D02*
X125920476Y-39222914D01*
X125920476Y-39222914D02*
X125825238Y-39270533D01*
X118570476Y-64224819D02*
X118570476Y-64939104D01*
X118570476Y-64939104D02*
X118522857Y-65081961D01*
X118522857Y-65081961D02*
X118427619Y-65177200D01*
X118427619Y-65177200D02*
X118284762Y-65224819D01*
X118284762Y-65224819D02*
X118189524Y-65224819D01*
X119570476Y-65224819D02*
X118999048Y-65224819D01*
X119284762Y-65224819D02*
X119284762Y-64224819D01*
X119284762Y-64224819D02*
X119189524Y-64367676D01*
X119189524Y-64367676D02*
X119094286Y-64462914D01*
X119094286Y-64462914D02*
X118999048Y-64510533D01*
X120189524Y-64224819D02*
X120284762Y-64224819D01*
X120284762Y-64224819D02*
X120380000Y-64272438D01*
X120380000Y-64272438D02*
X120427619Y-64320057D01*
X120427619Y-64320057D02*
X120475238Y-64415295D01*
X120475238Y-64415295D02*
X120522857Y-64605771D01*
X120522857Y-64605771D02*
X120522857Y-64843866D01*
X120522857Y-64843866D02*
X120475238Y-65034342D01*
X120475238Y-65034342D02*
X120427619Y-65129580D01*
X120427619Y-65129580D02*
X120380000Y-65177200D01*
X120380000Y-65177200D02*
X120284762Y-65224819D01*
X120284762Y-65224819D02*
X120189524Y-65224819D01*
X120189524Y-65224819D02*
X120094286Y-65177200D01*
X120094286Y-65177200D02*
X120046667Y-65129580D01*
X120046667Y-65129580D02*
X119999048Y-65034342D01*
X119999048Y-65034342D02*
X119951429Y-64843866D01*
X119951429Y-64843866D02*
X119951429Y-64605771D01*
X119951429Y-64605771D02*
X119999048Y-64415295D01*
X119999048Y-64415295D02*
X120046667Y-64320057D01*
X120046667Y-64320057D02*
X120094286Y-64272438D01*
X120094286Y-64272438D02*
X120189524Y-64224819D01*
X141966666Y-77184819D02*
X141966666Y-77899104D01*
X141966666Y-77899104D02*
X141919047Y-78041961D01*
X141919047Y-78041961D02*
X141823809Y-78137200D01*
X141823809Y-78137200D02*
X141680952Y-78184819D01*
X141680952Y-78184819D02*
X141585714Y-78184819D01*
X142871428Y-77184819D02*
X142680952Y-77184819D01*
X142680952Y-77184819D02*
X142585714Y-77232438D01*
X142585714Y-77232438D02*
X142538095Y-77280057D01*
X142538095Y-77280057D02*
X142442857Y-77422914D01*
X142442857Y-77422914D02*
X142395238Y-77613390D01*
X142395238Y-77613390D02*
X142395238Y-77994342D01*
X142395238Y-77994342D02*
X142442857Y-78089580D01*
X142442857Y-78089580D02*
X142490476Y-78137200D01*
X142490476Y-78137200D02*
X142585714Y-78184819D01*
X142585714Y-78184819D02*
X142776190Y-78184819D01*
X142776190Y-78184819D02*
X142871428Y-78137200D01*
X142871428Y-78137200D02*
X142919047Y-78089580D01*
X142919047Y-78089580D02*
X142966666Y-77994342D01*
X142966666Y-77994342D02*
X142966666Y-77756247D01*
X142966666Y-77756247D02*
X142919047Y-77661009D01*
X142919047Y-77661009D02*
X142871428Y-77613390D01*
X142871428Y-77613390D02*
X142776190Y-77565771D01*
X142776190Y-77565771D02*
X142585714Y-77565771D01*
X142585714Y-77565771D02*
X142490476Y-77613390D01*
X142490476Y-77613390D02*
X142442857Y-77661009D01*
X142442857Y-77661009D02*
X142395238Y-77756247D01*
X119066666Y-56604819D02*
X119066666Y-57319104D01*
X119066666Y-57319104D02*
X119019047Y-57461961D01*
X119019047Y-57461961D02*
X118923809Y-57557200D01*
X118923809Y-57557200D02*
X118780952Y-57604819D01*
X118780952Y-57604819D02*
X118685714Y-57604819D01*
X119447619Y-56604819D02*
X120114285Y-56604819D01*
X120114285Y-56604819D02*
X119685714Y-57604819D01*
X118066667Y-45117200D02*
X118209524Y-45164819D01*
X118209524Y-45164819D02*
X118447619Y-45164819D01*
X118447619Y-45164819D02*
X118542857Y-45117200D01*
X118542857Y-45117200D02*
X118590476Y-45069580D01*
X118590476Y-45069580D02*
X118638095Y-44974342D01*
X118638095Y-44974342D02*
X118638095Y-44879104D01*
X118638095Y-44879104D02*
X118590476Y-44783866D01*
X118590476Y-44783866D02*
X118542857Y-44736247D01*
X118542857Y-44736247D02*
X118447619Y-44688628D01*
X118447619Y-44688628D02*
X118257143Y-44641009D01*
X118257143Y-44641009D02*
X118161905Y-44593390D01*
X118161905Y-44593390D02*
X118114286Y-44545771D01*
X118114286Y-44545771D02*
X118066667Y-44450533D01*
X118066667Y-44450533D02*
X118066667Y-44355295D01*
X118066667Y-44355295D02*
X118114286Y-44260057D01*
X118114286Y-44260057D02*
X118161905Y-44212438D01*
X118161905Y-44212438D02*
X118257143Y-44164819D01*
X118257143Y-44164819D02*
X118495238Y-44164819D01*
X118495238Y-44164819D02*
X118638095Y-44212438D01*
X118971429Y-44164819D02*
X119209524Y-45164819D01*
X119209524Y-45164819D02*
X119400000Y-44450533D01*
X119400000Y-44450533D02*
X119590476Y-45164819D01*
X119590476Y-45164819D02*
X119828572Y-44164819D01*
X120733333Y-45164819D02*
X120161905Y-45164819D01*
X120447619Y-45164819D02*
X120447619Y-44164819D01*
X120447619Y-44164819D02*
X120352381Y-44307676D01*
X120352381Y-44307676D02*
X120257143Y-44402914D01*
X120257143Y-44402914D02*
X120161905Y-44450533D01*
X127996666Y-69564819D02*
X127996666Y-70279104D01*
X127996666Y-70279104D02*
X127949047Y-70421961D01*
X127949047Y-70421961D02*
X127853809Y-70517200D01*
X127853809Y-70517200D02*
X127710952Y-70564819D01*
X127710952Y-70564819D02*
X127615714Y-70564819D01*
X128949047Y-69564819D02*
X128472857Y-69564819D01*
X128472857Y-69564819D02*
X128425238Y-70041009D01*
X128425238Y-70041009D02*
X128472857Y-69993390D01*
X128472857Y-69993390D02*
X128568095Y-69945771D01*
X128568095Y-69945771D02*
X128806190Y-69945771D01*
X128806190Y-69945771D02*
X128901428Y-69993390D01*
X128901428Y-69993390D02*
X128949047Y-70041009D01*
X128949047Y-70041009D02*
X128996666Y-70136247D01*
X128996666Y-70136247D02*
X128996666Y-70374342D01*
X128996666Y-70374342D02*
X128949047Y-70469580D01*
X128949047Y-70469580D02*
X128901428Y-70517200D01*
X128901428Y-70517200D02*
X128806190Y-70564819D01*
X128806190Y-70564819D02*
X128568095Y-70564819D01*
X128568095Y-70564819D02*
X128472857Y-70517200D01*
X128472857Y-70517200D02*
X128425238Y-70469580D01*
X127996666Y-77184819D02*
X127996666Y-77899104D01*
X127996666Y-77899104D02*
X127949047Y-78041961D01*
X127949047Y-78041961D02*
X127853809Y-78137200D01*
X127853809Y-78137200D02*
X127710952Y-78184819D01*
X127710952Y-78184819D02*
X127615714Y-78184819D01*
X128377619Y-77184819D02*
X128996666Y-77184819D01*
X128996666Y-77184819D02*
X128663333Y-77565771D01*
X128663333Y-77565771D02*
X128806190Y-77565771D01*
X128806190Y-77565771D02*
X128901428Y-77613390D01*
X128901428Y-77613390D02*
X128949047Y-77661009D01*
X128949047Y-77661009D02*
X128996666Y-77756247D01*
X128996666Y-77756247D02*
X128996666Y-77994342D01*
X128996666Y-77994342D02*
X128949047Y-78089580D01*
X128949047Y-78089580D02*
X128901428Y-78137200D01*
X128901428Y-78137200D02*
X128806190Y-78184819D01*
X128806190Y-78184819D02*
X128520476Y-78184819D01*
X128520476Y-78184819D02*
X128425238Y-78137200D01*
X128425238Y-78137200D02*
X128377619Y-78089580D01*
X126833333Y-67669580D02*
X126785714Y-67717200D01*
X126785714Y-67717200D02*
X126642857Y-67764819D01*
X126642857Y-67764819D02*
X126547619Y-67764819D01*
X126547619Y-67764819D02*
X126404762Y-67717200D01*
X126404762Y-67717200D02*
X126309524Y-67621961D01*
X126309524Y-67621961D02*
X126261905Y-67526723D01*
X126261905Y-67526723D02*
X126214286Y-67336247D01*
X126214286Y-67336247D02*
X126214286Y-67193390D01*
X126214286Y-67193390D02*
X126261905Y-67002914D01*
X126261905Y-67002914D02*
X126309524Y-66907676D01*
X126309524Y-66907676D02*
X126404762Y-66812438D01*
X126404762Y-66812438D02*
X126547619Y-66764819D01*
X126547619Y-66764819D02*
X126642857Y-66764819D01*
X126642857Y-66764819D02*
X126785714Y-66812438D01*
X126785714Y-66812438D02*
X126833333Y-66860057D01*
X127166667Y-66764819D02*
X127785714Y-66764819D01*
X127785714Y-66764819D02*
X127452381Y-67145771D01*
X127452381Y-67145771D02*
X127595238Y-67145771D01*
X127595238Y-67145771D02*
X127690476Y-67193390D01*
X127690476Y-67193390D02*
X127738095Y-67241009D01*
X127738095Y-67241009D02*
X127785714Y-67336247D01*
X127785714Y-67336247D02*
X127785714Y-67574342D01*
X127785714Y-67574342D02*
X127738095Y-67669580D01*
X127738095Y-67669580D02*
X127690476Y-67717200D01*
X127690476Y-67717200D02*
X127595238Y-67764819D01*
X127595238Y-67764819D02*
X127309524Y-67764819D01*
X127309524Y-67764819D02*
X127214286Y-67717200D01*
X127214286Y-67717200D02*
X127166667Y-67669580D01*
X157166666Y-56604819D02*
X157166666Y-57319104D01*
X157166666Y-57319104D02*
X157119047Y-57461961D01*
X157119047Y-57461961D02*
X157023809Y-57557200D01*
X157023809Y-57557200D02*
X156880952Y-57604819D01*
X156880952Y-57604819D02*
X156785714Y-57604819D01*
X157785714Y-57033390D02*
X157690476Y-56985771D01*
X157690476Y-56985771D02*
X157642857Y-56938152D01*
X157642857Y-56938152D02*
X157595238Y-56842914D01*
X157595238Y-56842914D02*
X157595238Y-56795295D01*
X157595238Y-56795295D02*
X157642857Y-56700057D01*
X157642857Y-56700057D02*
X157690476Y-56652438D01*
X157690476Y-56652438D02*
X157785714Y-56604819D01*
X157785714Y-56604819D02*
X157976190Y-56604819D01*
X157976190Y-56604819D02*
X158071428Y-56652438D01*
X158071428Y-56652438D02*
X158119047Y-56700057D01*
X158119047Y-56700057D02*
X158166666Y-56795295D01*
X158166666Y-56795295D02*
X158166666Y-56842914D01*
X158166666Y-56842914D02*
X158119047Y-56938152D01*
X158119047Y-56938152D02*
X158071428Y-56985771D01*
X158071428Y-56985771D02*
X157976190Y-57033390D01*
X157976190Y-57033390D02*
X157785714Y-57033390D01*
X157785714Y-57033390D02*
X157690476Y-57081009D01*
X157690476Y-57081009D02*
X157642857Y-57128628D01*
X157642857Y-57128628D02*
X157595238Y-57223866D01*
X157595238Y-57223866D02*
X157595238Y-57414342D01*
X157595238Y-57414342D02*
X157642857Y-57509580D01*
X157642857Y-57509580D02*
X157690476Y-57557200D01*
X157690476Y-57557200D02*
X157785714Y-57604819D01*
X157785714Y-57604819D02*
X157976190Y-57604819D01*
X157976190Y-57604819D02*
X158071428Y-57557200D01*
X158071428Y-57557200D02*
X158119047Y-57509580D01*
X158119047Y-57509580D02*
X158166666Y-57414342D01*
X158166666Y-57414342D02*
X158166666Y-57223866D01*
X158166666Y-57223866D02*
X158119047Y-57128628D01*
X158119047Y-57128628D02*
X158071428Y-57081009D01*
X158071428Y-57081009D02*
X157976190Y-57033390D01*
X156043333Y-67669580D02*
X155995714Y-67717200D01*
X155995714Y-67717200D02*
X155852857Y-67764819D01*
X155852857Y-67764819D02*
X155757619Y-67764819D01*
X155757619Y-67764819D02*
X155614762Y-67717200D01*
X155614762Y-67717200D02*
X155519524Y-67621961D01*
X155519524Y-67621961D02*
X155471905Y-67526723D01*
X155471905Y-67526723D02*
X155424286Y-67336247D01*
X155424286Y-67336247D02*
X155424286Y-67193390D01*
X155424286Y-67193390D02*
X155471905Y-67002914D01*
X155471905Y-67002914D02*
X155519524Y-66907676D01*
X155519524Y-66907676D02*
X155614762Y-66812438D01*
X155614762Y-66812438D02*
X155757619Y-66764819D01*
X155757619Y-66764819D02*
X155852857Y-66764819D01*
X155852857Y-66764819D02*
X155995714Y-66812438D01*
X155995714Y-66812438D02*
X156043333Y-66860057D01*
X156424286Y-66860057D02*
X156471905Y-66812438D01*
X156471905Y-66812438D02*
X156567143Y-66764819D01*
X156567143Y-66764819D02*
X156805238Y-66764819D01*
X156805238Y-66764819D02*
X156900476Y-66812438D01*
X156900476Y-66812438D02*
X156948095Y-66860057D01*
X156948095Y-66860057D02*
X156995714Y-66955295D01*
X156995714Y-66955295D02*
X156995714Y-67050533D01*
X156995714Y-67050533D02*
X156948095Y-67193390D01*
X156948095Y-67193390D02*
X156376667Y-67764819D01*
X156376667Y-67764819D02*
X156995714Y-67764819D01*
X141430476Y-69564819D02*
X141430476Y-70279104D01*
X141430476Y-70279104D02*
X141382857Y-70421961D01*
X141382857Y-70421961D02*
X141287619Y-70517200D01*
X141287619Y-70517200D02*
X141144762Y-70564819D01*
X141144762Y-70564819D02*
X141049524Y-70564819D01*
X142430476Y-70564819D02*
X141859048Y-70564819D01*
X142144762Y-70564819D02*
X142144762Y-69564819D01*
X142144762Y-69564819D02*
X142049524Y-69707676D01*
X142049524Y-69707676D02*
X141954286Y-69802914D01*
X141954286Y-69802914D02*
X141859048Y-69850533D01*
X143382857Y-70564819D02*
X142811429Y-70564819D01*
X143097143Y-70564819D02*
X143097143Y-69564819D01*
X143097143Y-69564819D02*
X143001905Y-69707676D01*
X143001905Y-69707676D02*
X142906667Y-69802914D01*
X142906667Y-69802914D02*
X142811429Y-69850533D01*
X150796666Y-38824819D02*
X150796666Y-39539104D01*
X150796666Y-39539104D02*
X150749047Y-39681961D01*
X150749047Y-39681961D02*
X150653809Y-39777200D01*
X150653809Y-39777200D02*
X150510952Y-39824819D01*
X150510952Y-39824819D02*
X150415714Y-39824819D01*
X151225238Y-38920057D02*
X151272857Y-38872438D01*
X151272857Y-38872438D02*
X151368095Y-38824819D01*
X151368095Y-38824819D02*
X151606190Y-38824819D01*
X151606190Y-38824819D02*
X151701428Y-38872438D01*
X151701428Y-38872438D02*
X151749047Y-38920057D01*
X151749047Y-38920057D02*
X151796666Y-39015295D01*
X151796666Y-39015295D02*
X151796666Y-39110533D01*
X151796666Y-39110533D02*
X151749047Y-39253390D01*
X151749047Y-39253390D02*
X151177619Y-39824819D01*
X151177619Y-39824819D02*
X151796666Y-39824819D01*
X162130057Y-75025238D02*
X162082438Y-75120476D01*
X162082438Y-75120476D02*
X161987200Y-75215714D01*
X161987200Y-75215714D02*
X161844342Y-75358571D01*
X161844342Y-75358571D02*
X161796723Y-75453809D01*
X161796723Y-75453809D02*
X161796723Y-75549047D01*
X162034819Y-75501428D02*
X161987200Y-75596666D01*
X161987200Y-75596666D02*
X161891961Y-75691904D01*
X161891961Y-75691904D02*
X161701485Y-75739523D01*
X161701485Y-75739523D02*
X161368152Y-75739523D01*
X161368152Y-75739523D02*
X161177676Y-75691904D01*
X161177676Y-75691904D02*
X161082438Y-75596666D01*
X161082438Y-75596666D02*
X161034819Y-75501428D01*
X161034819Y-75501428D02*
X161034819Y-75310952D01*
X161034819Y-75310952D02*
X161082438Y-75215714D01*
X161082438Y-75215714D02*
X161177676Y-75120476D01*
X161177676Y-75120476D02*
X161368152Y-75072857D01*
X161368152Y-75072857D02*
X161701485Y-75072857D01*
X161701485Y-75072857D02*
X161891961Y-75120476D01*
X161891961Y-75120476D02*
X161987200Y-75215714D01*
X161987200Y-75215714D02*
X162034819Y-75310952D01*
X162034819Y-75310952D02*
X162034819Y-75501428D01*
X162034819Y-74120476D02*
X162034819Y-74691904D01*
X162034819Y-74406190D02*
X161034819Y-74406190D01*
X161034819Y-74406190D02*
X161177676Y-74501428D01*
X161177676Y-74501428D02*
X161272914Y-74596666D01*
X161272914Y-74596666D02*
X161320533Y-74691904D01*
X149214819Y-66206666D02*
X148738628Y-66539999D01*
X149214819Y-66778094D02*
X148214819Y-66778094D01*
X148214819Y-66778094D02*
X148214819Y-66397142D01*
X148214819Y-66397142D02*
X148262438Y-66301904D01*
X148262438Y-66301904D02*
X148310057Y-66254285D01*
X148310057Y-66254285D02*
X148405295Y-66206666D01*
X148405295Y-66206666D02*
X148548152Y-66206666D01*
X148548152Y-66206666D02*
X148643390Y-66254285D01*
X148643390Y-66254285D02*
X148691009Y-66301904D01*
X148691009Y-66301904D02*
X148738628Y-66397142D01*
X148738628Y-66397142D02*
X148738628Y-66778094D01*
X148548152Y-65349523D02*
X149214819Y-65349523D01*
X148167200Y-65587618D02*
X148881485Y-65825713D01*
X148881485Y-65825713D02*
X148881485Y-65206666D01*
D11*
%TO.C,J4*%
X153400000Y-45510000D02*
X153400000Y-46760000D01*
X153690000Y-45800000D02*
X153690000Y-51770000D01*
X153690000Y-51770000D02*
X161310000Y-51770000D01*
X153700000Y-45810000D02*
X153700000Y-46560000D01*
X153700000Y-46560000D02*
X155500000Y-46560000D01*
X153700000Y-48060000D02*
X154450000Y-48060000D01*
X154450000Y-48060000D02*
X154450000Y-51010000D01*
X154450000Y-51010000D02*
X157500000Y-51010000D01*
X154650000Y-45510000D02*
X153400000Y-45510000D01*
X155500000Y-45810000D02*
X153700000Y-45810000D01*
X155500000Y-46560000D02*
X155500000Y-45810000D01*
X157000000Y-45810000D02*
X157000000Y-46560000D01*
X157000000Y-46560000D02*
X158000000Y-46560000D01*
X158000000Y-45810000D02*
X157000000Y-45810000D01*
X158000000Y-46560000D02*
X158000000Y-45810000D01*
X159500000Y-45810000D02*
X159500000Y-46560000D01*
X159500000Y-46560000D02*
X161300000Y-46560000D01*
X160550000Y-48060000D02*
X160550000Y-51010000D01*
X160550000Y-51010000D02*
X157500000Y-51010000D01*
X161300000Y-45810000D02*
X159500000Y-45810000D01*
X161300000Y-46560000D02*
X161300000Y-45810000D01*
X161300000Y-48060000D02*
X160550000Y-48060000D01*
X161310000Y-45800000D02*
X153690000Y-45800000D01*
X161310000Y-51770000D02*
X161310000Y-45800000D01*
%TO.C,J9*%
X135660000Y-62020000D02*
X135660000Y-63270000D01*
X135950000Y-62310000D02*
X135950000Y-68280000D01*
X135950000Y-68280000D02*
X146070000Y-68280000D01*
X135960000Y-62320000D02*
X135960000Y-63070000D01*
X135960000Y-63070000D02*
X137760000Y-63070000D01*
X135960000Y-64570000D02*
X136710000Y-64570000D01*
X136710000Y-64570000D02*
X136710000Y-67520000D01*
X136710000Y-67520000D02*
X141010000Y-67520000D01*
X136910000Y-62020000D02*
X135660000Y-62020000D01*
X137760000Y-62320000D02*
X135960000Y-62320000D01*
X137760000Y-63070000D02*
X137760000Y-62320000D01*
X139260000Y-62320000D02*
X139260000Y-63070000D01*
X139260000Y-63070000D02*
X142760000Y-63070000D01*
X142760000Y-62320000D02*
X139260000Y-62320000D01*
X142760000Y-63070000D02*
X142760000Y-62320000D01*
X144260000Y-62320000D02*
X144260000Y-63070000D01*
X144260000Y-63070000D02*
X146060000Y-63070000D01*
X145310000Y-64570000D02*
X145310000Y-67520000D01*
X145310000Y-67520000D02*
X141010000Y-67520000D01*
X146060000Y-62320000D02*
X144260000Y-62320000D01*
X146060000Y-63070000D02*
X146060000Y-62320000D01*
X146060000Y-64570000D02*
X145310000Y-64570000D01*
X146070000Y-62310000D02*
X135950000Y-62310000D01*
X146070000Y-68280000D02*
X146070000Y-62310000D01*
%TO.C,D1*%
X153670000Y-75000000D02*
X153670000Y-76020000D01*
X153670000Y-82480000D02*
X153670000Y-81460000D01*
X155140000Y-76800000D02*
X152200000Y-76800000D01*
X155140000Y-76920000D02*
X152200000Y-76920000D01*
X155140000Y-77040000D02*
X152200000Y-77040000D01*
X155140000Y-76020000D02*
X152200000Y-76020000D01*
X152200000Y-81460000D01*
X155140000Y-81460000D01*
X155140000Y-76020000D01*
%TO.C,J1*%
X124350000Y-40530000D02*
X125730000Y-40530000D01*
X124350000Y-41910000D02*
X124350000Y-40530000D01*
X124350000Y-43180000D02*
X124350000Y-58530000D01*
X124350000Y-43180000D02*
X127110000Y-43180000D01*
X124350000Y-58530000D02*
X127110000Y-58530000D01*
X127110000Y-43180000D02*
X127110000Y-58530000D01*
%TO.C,J10*%
X115300000Y-60750000D02*
X115300000Y-62000000D01*
X115590000Y-61040000D02*
X115590000Y-67010000D01*
X115590000Y-67010000D02*
X123210000Y-67010000D01*
X115600000Y-61050000D02*
X115600000Y-61800000D01*
X115600000Y-61800000D02*
X117400000Y-61800000D01*
X115600000Y-63300000D02*
X116350000Y-63300000D01*
X116350000Y-63300000D02*
X116350000Y-66250000D01*
X116350000Y-66250000D02*
X119400000Y-66250000D01*
X116550000Y-60750000D02*
X115300000Y-60750000D01*
X117400000Y-61050000D02*
X115600000Y-61050000D01*
X117400000Y-61800000D02*
X117400000Y-61050000D01*
X118900000Y-61050000D02*
X118900000Y-61800000D01*
X118900000Y-61800000D02*
X119900000Y-61800000D01*
X119900000Y-61050000D02*
X118900000Y-61050000D01*
X119900000Y-61800000D02*
X119900000Y-61050000D01*
X121400000Y-61050000D02*
X121400000Y-61800000D01*
X121400000Y-61800000D02*
X123200000Y-61800000D01*
X122450000Y-63300000D02*
X122450000Y-66250000D01*
X122450000Y-66250000D02*
X119400000Y-66250000D01*
X123200000Y-61050000D02*
X121400000Y-61050000D01*
X123200000Y-61800000D02*
X123200000Y-61050000D01*
X123200000Y-63300000D02*
X122450000Y-63300000D01*
X123210000Y-61040000D02*
X115590000Y-61040000D01*
X123210000Y-67010000D02*
X123210000Y-61040000D01*
%TO.C,J6*%
X135700000Y-78530000D02*
X135700000Y-79780000D01*
X135990000Y-78820000D02*
X135990000Y-84790000D01*
X135990000Y-84790000D02*
X148610000Y-84790000D01*
X136000000Y-78830000D02*
X136000000Y-79580000D01*
X136000000Y-79580000D02*
X137800000Y-79580000D01*
X136000000Y-81080000D02*
X136750000Y-81080000D01*
X136750000Y-81080000D02*
X136750000Y-84030000D01*
X136750000Y-84030000D02*
X142300000Y-84030000D01*
X136950000Y-78530000D02*
X135700000Y-78530000D01*
X137800000Y-78830000D02*
X136000000Y-78830000D01*
X137800000Y-79580000D02*
X137800000Y-78830000D01*
X139300000Y-78830000D02*
X139300000Y-79580000D01*
X139300000Y-79580000D02*
X145300000Y-79580000D01*
X145300000Y-78830000D02*
X139300000Y-78830000D01*
X145300000Y-79580000D02*
X145300000Y-78830000D01*
X146800000Y-78830000D02*
X146800000Y-79580000D01*
X146800000Y-79580000D02*
X148600000Y-79580000D01*
X147850000Y-81080000D02*
X147850000Y-84030000D01*
X147850000Y-84030000D02*
X142300000Y-84030000D01*
X148600000Y-78830000D02*
X146800000Y-78830000D01*
X148600000Y-79580000D02*
X148600000Y-78830000D01*
X148600000Y-81080000D02*
X147850000Y-81080000D01*
X148610000Y-78820000D02*
X135990000Y-78820000D01*
X148610000Y-84790000D02*
X148610000Y-78820000D01*
%TO.C,J7*%
X115300000Y-53130000D02*
X115300000Y-54380000D01*
X115590000Y-53420000D02*
X115590000Y-59390000D01*
X115590000Y-59390000D02*
X123210000Y-59390000D01*
X115600000Y-53430000D02*
X115600000Y-54180000D01*
X115600000Y-54180000D02*
X117400000Y-54180000D01*
X115600000Y-55680000D02*
X116350000Y-55680000D01*
X116350000Y-55680000D02*
X116350000Y-58630000D01*
X116350000Y-58630000D02*
X119400000Y-58630000D01*
X116550000Y-53130000D02*
X115300000Y-53130000D01*
X117400000Y-53430000D02*
X115600000Y-53430000D01*
X117400000Y-54180000D02*
X117400000Y-53430000D01*
X118900000Y-53430000D02*
X118900000Y-54180000D01*
X118900000Y-54180000D02*
X119900000Y-54180000D01*
X119900000Y-53430000D02*
X118900000Y-53430000D01*
X119900000Y-54180000D02*
X119900000Y-53430000D01*
X121400000Y-53430000D02*
X121400000Y-54180000D01*
X121400000Y-54180000D02*
X123200000Y-54180000D01*
X122450000Y-55680000D02*
X122450000Y-58630000D01*
X122450000Y-58630000D02*
X119400000Y-58630000D01*
X123200000Y-53430000D02*
X121400000Y-53430000D01*
X123200000Y-54180000D02*
X123200000Y-53430000D01*
X123200000Y-55680000D02*
X122450000Y-55680000D01*
X123210000Y-53420000D02*
X115590000Y-53420000D01*
X123210000Y-59390000D02*
X123210000Y-53420000D01*
D12*
%TO.C,U1*%
X129540000Y-58039000D02*
X129540000Y-40894000D01*
X131445000Y-59944000D02*
X145415000Y-59944000D01*
X133935000Y-38989000D02*
X133938728Y-37978728D01*
X134438728Y-37479000D02*
X142434000Y-37479000D01*
X142934000Y-37979000D02*
X142934000Y-38989000D01*
D13*
X145415000Y-38989000D02*
X131445000Y-38989000D01*
D12*
X145415000Y-38989000D02*
X131445000Y-38989000D01*
X147320000Y-58039000D02*
X147320000Y-40894000D01*
X129540000Y-40894000D02*
G75*
G02*
X131445000Y-38989000I1905001J-1D01*
G01*
X131445000Y-59944000D02*
G75*
G02*
X129540000Y-58039000I1J1905001D01*
G01*
X133938728Y-37978728D02*
G75*
G02*
X134438728Y-37479001I500018J-291D01*
G01*
X142434000Y-37479000D02*
G75*
G02*
X142934000Y-37979000I0J-500000D01*
G01*
X145415000Y-38989000D02*
G75*
G02*
X147320000Y-40894000I0J-1905000D01*
G01*
X147320000Y-58039000D02*
G75*
G02*
X145415000Y-59944000I-1905000J0D01*
G01*
D14*
X129732000Y-39230000D02*
G75*
G02*
X129228000Y-39230000I-252000J0D01*
G01*
X129228000Y-39230000D02*
G75*
G02*
X129732000Y-39230000I252000J0D01*
G01*
X130875000Y-40110000D02*
G75*
G02*
X130371000Y-40110000I-252000J0D01*
G01*
X130371000Y-40110000D02*
G75*
G02*
X130875000Y-40110000I252000J0D01*
G01*
D11*
%TO.C,SW1*%
X115300000Y-45510000D02*
X115300000Y-46760000D01*
X115590000Y-45800000D02*
X115590000Y-51770000D01*
X115590000Y-51770000D02*
X123210000Y-51770000D01*
X115600000Y-45810000D02*
X115600000Y-46560000D01*
X115600000Y-46560000D02*
X117400000Y-46560000D01*
X115600000Y-48060000D02*
X116350000Y-48060000D01*
X116350000Y-48060000D02*
X116350000Y-51010000D01*
X116350000Y-51010000D02*
X119400000Y-51010000D01*
X116550000Y-45510000D02*
X115300000Y-45510000D01*
X117400000Y-45810000D02*
X115600000Y-45810000D01*
X117400000Y-46560000D02*
X117400000Y-45810000D01*
X118900000Y-45810000D02*
X118900000Y-46560000D01*
X118900000Y-46560000D02*
X119900000Y-46560000D01*
X119900000Y-45810000D02*
X118900000Y-45810000D01*
X119900000Y-46560000D02*
X119900000Y-45810000D01*
X121400000Y-45810000D02*
X121400000Y-46560000D01*
X121400000Y-46560000D02*
X123200000Y-46560000D01*
X122450000Y-48060000D02*
X122450000Y-51010000D01*
X122450000Y-51010000D02*
X119400000Y-51010000D01*
X123200000Y-45810000D02*
X121400000Y-45810000D01*
X123200000Y-46560000D02*
X123200000Y-45810000D01*
X123200000Y-48060000D02*
X122450000Y-48060000D01*
X123210000Y-45800000D02*
X115590000Y-45800000D01*
X123210000Y-51770000D02*
X123210000Y-45800000D01*
%TO.C,J5*%
X121730000Y-70910000D02*
X121730000Y-72160000D01*
X122020000Y-71200000D02*
X122020000Y-77170000D01*
X122020000Y-77170000D02*
X134640000Y-77170000D01*
X122030000Y-71210000D02*
X122030000Y-71960000D01*
X122030000Y-71960000D02*
X123830000Y-71960000D01*
X122030000Y-73460000D02*
X122780000Y-73460000D01*
X122780000Y-73460000D02*
X122780000Y-76410000D01*
X122780000Y-76410000D02*
X128330000Y-76410000D01*
X122980000Y-70910000D02*
X121730000Y-70910000D01*
X123830000Y-71210000D02*
X122030000Y-71210000D01*
X123830000Y-71960000D02*
X123830000Y-71210000D01*
X125330000Y-71210000D02*
X125330000Y-71960000D01*
X125330000Y-71960000D02*
X131330000Y-71960000D01*
X131330000Y-71210000D02*
X125330000Y-71210000D01*
X131330000Y-71960000D02*
X131330000Y-71210000D01*
X132830000Y-71210000D02*
X132830000Y-71960000D01*
X132830000Y-71960000D02*
X134630000Y-71960000D01*
X133880000Y-73460000D02*
X133880000Y-76410000D01*
X133880000Y-76410000D02*
X128330000Y-76410000D01*
X134630000Y-71210000D02*
X132830000Y-71210000D01*
X134630000Y-71960000D02*
X134630000Y-71210000D01*
X134630000Y-73460000D02*
X133880000Y-73460000D01*
X134640000Y-71200000D02*
X122020000Y-71200000D01*
X134640000Y-77170000D02*
X134640000Y-71200000D01*
%TO.C,J3*%
X121730000Y-78530000D02*
X121730000Y-79780000D01*
X122020000Y-78820000D02*
X122020000Y-84790000D01*
X122020000Y-84790000D02*
X134640000Y-84790000D01*
X122030000Y-78830000D02*
X122030000Y-79580000D01*
X122030000Y-79580000D02*
X123830000Y-79580000D01*
X122030000Y-81080000D02*
X122780000Y-81080000D01*
X122780000Y-81080000D02*
X122780000Y-84030000D01*
X122780000Y-84030000D02*
X128330000Y-84030000D01*
X122980000Y-78530000D02*
X121730000Y-78530000D01*
X123830000Y-78830000D02*
X122030000Y-78830000D01*
X123830000Y-79580000D02*
X123830000Y-78830000D01*
X125330000Y-78830000D02*
X125330000Y-79580000D01*
X125330000Y-79580000D02*
X131330000Y-79580000D01*
X131330000Y-78830000D02*
X125330000Y-78830000D01*
X131330000Y-79580000D02*
X131330000Y-78830000D01*
X132830000Y-78830000D02*
X132830000Y-79580000D01*
X132830000Y-79580000D02*
X134630000Y-79580000D01*
X133880000Y-81080000D02*
X133880000Y-84030000D01*
X133880000Y-84030000D02*
X128330000Y-84030000D01*
X134630000Y-78830000D02*
X132830000Y-78830000D01*
X134630000Y-79580000D02*
X134630000Y-78830000D01*
X134630000Y-81080000D02*
X133880000Y-81080000D01*
X134640000Y-78820000D02*
X122020000Y-78820000D01*
X134640000Y-84790000D02*
X134640000Y-78820000D01*
%TO.C,C3*%
X124650302Y-62455000D02*
X125450302Y-62455000D01*
X125050302Y-62055000D02*
X125050302Y-62855000D01*
X129060000Y-60690000D02*
X129060000Y-68850000D01*
X129100000Y-60690000D02*
X129100000Y-68850000D01*
X129140000Y-60691000D02*
X129140000Y-68849000D01*
X129180000Y-60692000D02*
X129180000Y-68848000D01*
X129220000Y-60693000D02*
X129220000Y-68847000D01*
X129260000Y-60695000D02*
X129260000Y-68845000D01*
X129300000Y-60697000D02*
X129300000Y-68843000D01*
X129340000Y-60700000D02*
X129340000Y-68840000D01*
X129380000Y-60702000D02*
X129380000Y-68838000D01*
X129420000Y-60706000D02*
X129420000Y-68834000D01*
X129460000Y-60709000D02*
X129460000Y-68831000D01*
X129500000Y-60714000D02*
X129500000Y-68826000D01*
X129540000Y-60718000D02*
X129540000Y-68822000D01*
X129580000Y-60723000D02*
X129580000Y-68817000D01*
X129620000Y-60728000D02*
X129620000Y-68812000D01*
X129660000Y-60734000D02*
X129660000Y-68806000D01*
X129700000Y-60740000D02*
X129700000Y-68800000D01*
X129740000Y-60747000D02*
X129740000Y-68793000D01*
X129780000Y-60753000D02*
X129780000Y-63730000D01*
X129780000Y-65810000D02*
X129780000Y-68787000D01*
X129820000Y-60761000D02*
X129820000Y-63730000D01*
X129820000Y-65810000D02*
X129820000Y-68779000D01*
X129860000Y-60768000D02*
X129860000Y-63730000D01*
X129860000Y-65810000D02*
X129860000Y-68772000D01*
X129900000Y-60777000D02*
X129900000Y-63730000D01*
X129900000Y-65810000D02*
X129900000Y-68763000D01*
X129940000Y-60785000D02*
X129940000Y-63730000D01*
X129940000Y-65810000D02*
X129940000Y-68755000D01*
X129980000Y-60794000D02*
X129980000Y-63730000D01*
X129980000Y-65810000D02*
X129980000Y-68746000D01*
X130020000Y-60803000D02*
X130020000Y-63730000D01*
X130020000Y-65810000D02*
X130020000Y-68737000D01*
X130060000Y-60813000D02*
X130060000Y-63730000D01*
X130060000Y-65810000D02*
X130060000Y-68727000D01*
X130100000Y-60823000D02*
X130100000Y-63730000D01*
X130100000Y-65810000D02*
X130100000Y-68717000D01*
X130140000Y-60834000D02*
X130140000Y-63730000D01*
X130140000Y-65810000D02*
X130140000Y-68706000D01*
X130180000Y-60845000D02*
X130180000Y-63730000D01*
X130180000Y-65810000D02*
X130180000Y-68695000D01*
X130220000Y-60857000D02*
X130220000Y-63730000D01*
X130220000Y-65810000D02*
X130220000Y-68683000D01*
X130260000Y-60869000D02*
X130260000Y-63730000D01*
X130260000Y-65810000D02*
X130260000Y-68671000D01*
X130300000Y-60881000D02*
X130300000Y-63730000D01*
X130300000Y-65810000D02*
X130300000Y-68659000D01*
X130340000Y-60894000D02*
X130340000Y-63730000D01*
X130340000Y-65810000D02*
X130340000Y-68646000D01*
X130380000Y-60907000D02*
X130380000Y-63730000D01*
X130380000Y-65810000D02*
X130380000Y-68633000D01*
X130420000Y-60921000D02*
X130420000Y-63730000D01*
X130420000Y-65810000D02*
X130420000Y-68619000D01*
X130460000Y-60935000D02*
X130460000Y-63730000D01*
X130460000Y-65810000D02*
X130460000Y-68605000D01*
X130500000Y-60950000D02*
X130500000Y-63730000D01*
X130500000Y-65810000D02*
X130500000Y-68590000D01*
X130540000Y-60965000D02*
X130540000Y-63730000D01*
X130540000Y-65810000D02*
X130540000Y-68575000D01*
X130580000Y-60981000D02*
X130580000Y-63730000D01*
X130580000Y-65810000D02*
X130580000Y-68559000D01*
X130620000Y-60997000D02*
X130620000Y-63730000D01*
X130620000Y-65810000D02*
X130620000Y-68543000D01*
X130660000Y-61013000D02*
X130660000Y-63730000D01*
X130660000Y-65810000D02*
X130660000Y-68527000D01*
X130700000Y-61030000D02*
X130700000Y-63730000D01*
X130700000Y-65810000D02*
X130700000Y-68510000D01*
X130740000Y-61048000D02*
X130740000Y-63730000D01*
X130740000Y-65810000D02*
X130740000Y-68492000D01*
X130780000Y-61066000D02*
X130780000Y-63730000D01*
X130780000Y-65810000D02*
X130780000Y-68474000D01*
X130820000Y-61085000D02*
X130820000Y-63730000D01*
X130820000Y-65810000D02*
X130820000Y-68455000D01*
X130860000Y-61104000D02*
X130860000Y-63730000D01*
X130860000Y-65810000D02*
X130860000Y-68436000D01*
X130900000Y-61124000D02*
X130900000Y-63730000D01*
X130900000Y-65810000D02*
X130900000Y-68416000D01*
X130940000Y-61144000D02*
X130940000Y-63730000D01*
X130940000Y-65810000D02*
X130940000Y-68396000D01*
X130980000Y-61165000D02*
X130980000Y-63730000D01*
X130980000Y-65810000D02*
X130980000Y-68375000D01*
X131020000Y-61186000D02*
X131020000Y-63730000D01*
X131020000Y-65810000D02*
X131020000Y-68354000D01*
X131060000Y-61208000D02*
X131060000Y-63730000D01*
X131060000Y-65810000D02*
X131060000Y-68332000D01*
X131100000Y-61231000D02*
X131100000Y-63730000D01*
X131100000Y-65810000D02*
X131100000Y-68309000D01*
X131140000Y-61254000D02*
X131140000Y-63730000D01*
X131140000Y-65810000D02*
X131140000Y-68286000D01*
X131180000Y-61277000D02*
X131180000Y-63730000D01*
X131180000Y-65810000D02*
X131180000Y-68263000D01*
X131220000Y-61302000D02*
X131220000Y-63730000D01*
X131220000Y-65810000D02*
X131220000Y-68238000D01*
X131260000Y-61327000D02*
X131260000Y-63730000D01*
X131260000Y-65810000D02*
X131260000Y-68213000D01*
X131300000Y-61352000D02*
X131300000Y-63730000D01*
X131300000Y-65810000D02*
X131300000Y-68188000D01*
X131340000Y-61378000D02*
X131340000Y-63730000D01*
X131340000Y-65810000D02*
X131340000Y-68162000D01*
X131380000Y-61405000D02*
X131380000Y-63730000D01*
X131380000Y-65810000D02*
X131380000Y-68135000D01*
X131420000Y-61433000D02*
X131420000Y-63730000D01*
X131420000Y-65810000D02*
X131420000Y-68107000D01*
X131460000Y-61461000D02*
X131460000Y-63730000D01*
X131460000Y-65810000D02*
X131460000Y-68079000D01*
X131500000Y-61490000D02*
X131500000Y-63730000D01*
X131500000Y-65810000D02*
X131500000Y-68050000D01*
X131540000Y-61520000D02*
X131540000Y-63730000D01*
X131540000Y-65810000D02*
X131540000Y-68020000D01*
X131580000Y-61551000D02*
X131580000Y-63730000D01*
X131580000Y-65810000D02*
X131580000Y-67989000D01*
X131620000Y-61582000D02*
X131620000Y-63730000D01*
X131620000Y-65810000D02*
X131620000Y-67958000D01*
X131660000Y-61614000D02*
X131660000Y-63730000D01*
X131660000Y-65810000D02*
X131660000Y-67926000D01*
X131700000Y-61647000D02*
X131700000Y-63730000D01*
X131700000Y-65810000D02*
X131700000Y-67893000D01*
X131740000Y-61681000D02*
X131740000Y-63730000D01*
X131740000Y-65810000D02*
X131740000Y-67859000D01*
X131780000Y-61715000D02*
X131780000Y-63730000D01*
X131780000Y-65810000D02*
X131780000Y-67825000D01*
X131820000Y-61751000D02*
X131820000Y-63730000D01*
X131820000Y-65810000D02*
X131820000Y-67789000D01*
X131860000Y-61788000D02*
X131860000Y-67752000D01*
X131900000Y-61825000D02*
X131900000Y-67715000D01*
X131940000Y-61864000D02*
X131940000Y-67676000D01*
X131980000Y-61903000D02*
X131980000Y-67637000D01*
X132020000Y-61944000D02*
X132020000Y-67596000D01*
X132060000Y-61986000D02*
X132060000Y-67554000D01*
X132100000Y-62029000D02*
X132100000Y-67511000D01*
X132140000Y-62074000D02*
X132140000Y-67466000D01*
X132180000Y-62119000D02*
X132180000Y-67421000D01*
X132220000Y-62166000D02*
X132220000Y-67374000D01*
X132260000Y-62215000D02*
X132260000Y-67325000D01*
X132300000Y-62265000D02*
X132300000Y-67275000D01*
X132340000Y-62317000D02*
X132340000Y-67223000D01*
X132380000Y-62370000D02*
X132380000Y-67170000D01*
X132420000Y-62426000D02*
X132420000Y-67114000D01*
X132460000Y-62483000D02*
X132460000Y-67057000D01*
X132500000Y-62543000D02*
X132500000Y-66997000D01*
X132540000Y-62605000D02*
X132540000Y-66935000D01*
X132580000Y-62669000D02*
X132580000Y-66871000D01*
X132620000Y-62736000D02*
X132620000Y-66804000D01*
X132660000Y-62806000D02*
X132660000Y-66734000D01*
X132700000Y-62880000D02*
X132700000Y-66660000D01*
X132740000Y-62957000D02*
X132740000Y-66583000D01*
X132780000Y-63039000D02*
X132780000Y-66501000D01*
X132820000Y-63126000D02*
X132820000Y-66414000D01*
X132860000Y-63218000D02*
X132860000Y-66322000D01*
X132900000Y-63317000D02*
X132900000Y-66223000D01*
X132940000Y-63424000D02*
X132940000Y-66116000D01*
X132980000Y-63542000D02*
X132980000Y-65998000D01*
X133020000Y-63673000D02*
X133020000Y-65867000D01*
X133060000Y-63823000D02*
X133060000Y-65717000D01*
X133100000Y-64002000D02*
X133100000Y-65538000D01*
X133140000Y-64237000D02*
X133140000Y-65303000D01*
X133180000Y-64770000D02*
G75*
G02*
X124940000Y-64770000I-4120000J0D01*
G01*
X124940000Y-64770000D02*
G75*
G02*
X133180000Y-64770000I4120000J0D01*
G01*
%TO.C,J8*%
X153400000Y-53130000D02*
X153400000Y-54380000D01*
X153690000Y-53420000D02*
X153690000Y-59390000D01*
X153690000Y-59390000D02*
X161310000Y-59390000D01*
X153700000Y-53430000D02*
X153700000Y-54180000D01*
X153700000Y-54180000D02*
X155500000Y-54180000D01*
X153700000Y-55680000D02*
X154450000Y-55680000D01*
X154450000Y-55680000D02*
X154450000Y-58630000D01*
X154450000Y-58630000D02*
X157500000Y-58630000D01*
X154650000Y-53130000D02*
X153400000Y-53130000D01*
X155500000Y-53430000D02*
X153700000Y-53430000D01*
X155500000Y-54180000D02*
X155500000Y-53430000D01*
X157000000Y-53430000D02*
X157000000Y-54180000D01*
X157000000Y-54180000D02*
X158000000Y-54180000D01*
X158000000Y-53430000D02*
X157000000Y-53430000D01*
X158000000Y-54180000D02*
X158000000Y-53430000D01*
X159500000Y-53430000D02*
X159500000Y-54180000D01*
X159500000Y-54180000D02*
X161300000Y-54180000D01*
X160550000Y-55680000D02*
X160550000Y-58630000D01*
X160550000Y-58630000D02*
X157500000Y-58630000D01*
X161300000Y-53430000D02*
X159500000Y-53430000D01*
X161300000Y-54180000D02*
X161300000Y-53430000D01*
X161300000Y-55680000D02*
X160550000Y-55680000D01*
X161310000Y-53420000D02*
X153690000Y-53420000D01*
X161310000Y-59390000D02*
X161310000Y-53420000D01*
%TO.C,C2*%
X153530302Y-62610000D02*
X154330302Y-62610000D01*
X153930302Y-62210000D02*
X153930302Y-63010000D01*
X157940000Y-60845000D02*
X157940000Y-69005000D01*
X157980000Y-60845000D02*
X157980000Y-69005000D01*
X158020000Y-60846000D02*
X158020000Y-69004000D01*
X158060000Y-60847000D02*
X158060000Y-69003000D01*
X158100000Y-60848000D02*
X158100000Y-69002000D01*
X158140000Y-60850000D02*
X158140000Y-69000000D01*
X158180000Y-60852000D02*
X158180000Y-68998000D01*
X158220000Y-60855000D02*
X158220000Y-68995000D01*
X158260000Y-60857000D02*
X158260000Y-68993000D01*
X158300000Y-60861000D02*
X158300000Y-68989000D01*
X158340000Y-60864000D02*
X158340000Y-68986000D01*
X158380000Y-60869000D02*
X158380000Y-68981000D01*
X158420000Y-60873000D02*
X158420000Y-68977000D01*
X158460000Y-60878000D02*
X158460000Y-68972000D01*
X158500000Y-60883000D02*
X158500000Y-68967000D01*
X158540000Y-60889000D02*
X158540000Y-68961000D01*
X158580000Y-60895000D02*
X158580000Y-68955000D01*
X158620000Y-60902000D02*
X158620000Y-68948000D01*
X158660000Y-60908000D02*
X158660000Y-63885000D01*
X158660000Y-65965000D02*
X158660000Y-68942000D01*
X158700000Y-60916000D02*
X158700000Y-63885000D01*
X158700000Y-65965000D02*
X158700000Y-68934000D01*
X158740000Y-60923000D02*
X158740000Y-63885000D01*
X158740000Y-65965000D02*
X158740000Y-68927000D01*
X158780000Y-60932000D02*
X158780000Y-63885000D01*
X158780000Y-65965000D02*
X158780000Y-68918000D01*
X158820000Y-60940000D02*
X158820000Y-63885000D01*
X158820000Y-65965000D02*
X158820000Y-68910000D01*
X158860000Y-60949000D02*
X158860000Y-63885000D01*
X158860000Y-65965000D02*
X158860000Y-68901000D01*
X158900000Y-60958000D02*
X158900000Y-63885000D01*
X158900000Y-65965000D02*
X158900000Y-68892000D01*
X158940000Y-60968000D02*
X158940000Y-63885000D01*
X158940000Y-65965000D02*
X158940000Y-68882000D01*
X158980000Y-60978000D02*
X158980000Y-63885000D01*
X158980000Y-65965000D02*
X158980000Y-68872000D01*
X159020000Y-60989000D02*
X159020000Y-63885000D01*
X159020000Y-65965000D02*
X159020000Y-68861000D01*
X159060000Y-61000000D02*
X159060000Y-63885000D01*
X159060000Y-65965000D02*
X159060000Y-68850000D01*
X159100000Y-61012000D02*
X159100000Y-63885000D01*
X159100000Y-65965000D02*
X159100000Y-68838000D01*
X159140000Y-61024000D02*
X159140000Y-63885000D01*
X159140000Y-65965000D02*
X159140000Y-68826000D01*
X159180000Y-61036000D02*
X159180000Y-63885000D01*
X159180000Y-65965000D02*
X159180000Y-68814000D01*
X159220000Y-61049000D02*
X159220000Y-63885000D01*
X159220000Y-65965000D02*
X159220000Y-68801000D01*
X159260000Y-61062000D02*
X159260000Y-63885000D01*
X159260000Y-65965000D02*
X159260000Y-68788000D01*
X159300000Y-61076000D02*
X159300000Y-63885000D01*
X159300000Y-65965000D02*
X159300000Y-68774000D01*
X159340000Y-61090000D02*
X159340000Y-63885000D01*
X159340000Y-65965000D02*
X159340000Y-68760000D01*
X159380000Y-61105000D02*
X159380000Y-63885000D01*
X159380000Y-65965000D02*
X159380000Y-68745000D01*
X159420000Y-61120000D02*
X159420000Y-63885000D01*
X159420000Y-65965000D02*
X159420000Y-68730000D01*
X159460000Y-61136000D02*
X159460000Y-63885000D01*
X159460000Y-65965000D02*
X159460000Y-68714000D01*
X159500000Y-61152000D02*
X159500000Y-63885000D01*
X159500000Y-65965000D02*
X159500000Y-68698000D01*
X159540000Y-61168000D02*
X159540000Y-63885000D01*
X159540000Y-65965000D02*
X159540000Y-68682000D01*
X159580000Y-61185000D02*
X159580000Y-63885000D01*
X159580000Y-65965000D02*
X159580000Y-68665000D01*
X159620000Y-61203000D02*
X159620000Y-63885000D01*
X159620000Y-65965000D02*
X159620000Y-68647000D01*
X159660000Y-61221000D02*
X159660000Y-63885000D01*
X159660000Y-65965000D02*
X159660000Y-68629000D01*
X159700000Y-61240000D02*
X159700000Y-63885000D01*
X159700000Y-65965000D02*
X159700000Y-68610000D01*
X159740000Y-61259000D02*
X159740000Y-63885000D01*
X159740000Y-65965000D02*
X159740000Y-68591000D01*
X159780000Y-61279000D02*
X159780000Y-63885000D01*
X159780000Y-65965000D02*
X159780000Y-68571000D01*
X159820000Y-61299000D02*
X159820000Y-63885000D01*
X159820000Y-65965000D02*
X159820000Y-68551000D01*
X159860000Y-61320000D02*
X159860000Y-63885000D01*
X159860000Y-65965000D02*
X159860000Y-68530000D01*
X159900000Y-61341000D02*
X159900000Y-63885000D01*
X159900000Y-65965000D02*
X159900000Y-68509000D01*
X159940000Y-61363000D02*
X159940000Y-63885000D01*
X159940000Y-65965000D02*
X159940000Y-68487000D01*
X159980000Y-61386000D02*
X159980000Y-63885000D01*
X159980000Y-65965000D02*
X159980000Y-68464000D01*
X160020000Y-61409000D02*
X160020000Y-63885000D01*
X160020000Y-65965000D02*
X160020000Y-68441000D01*
X160060000Y-61432000D02*
X160060000Y-63885000D01*
X160060000Y-65965000D02*
X160060000Y-68418000D01*
X160100000Y-61457000D02*
X160100000Y-63885000D01*
X160100000Y-65965000D02*
X160100000Y-68393000D01*
X160140000Y-61482000D02*
X160140000Y-63885000D01*
X160140000Y-65965000D02*
X160140000Y-68368000D01*
X160180000Y-61507000D02*
X160180000Y-63885000D01*
X160180000Y-65965000D02*
X160180000Y-68343000D01*
X160220000Y-61533000D02*
X160220000Y-63885000D01*
X160220000Y-65965000D02*
X160220000Y-68317000D01*
X160260000Y-61560000D02*
X160260000Y-63885000D01*
X160260000Y-65965000D02*
X160260000Y-68290000D01*
X160300000Y-61588000D02*
X160300000Y-63885000D01*
X160300000Y-65965000D02*
X160300000Y-68262000D01*
X160340000Y-61616000D02*
X160340000Y-63885000D01*
X160340000Y-65965000D02*
X160340000Y-68234000D01*
X160380000Y-61645000D02*
X160380000Y-63885000D01*
X160380000Y-65965000D02*
X160380000Y-68205000D01*
X160420000Y-61675000D02*
X160420000Y-63885000D01*
X160420000Y-65965000D02*
X160420000Y-68175000D01*
X160460000Y-61706000D02*
X160460000Y-63885000D01*
X160460000Y-65965000D02*
X160460000Y-68144000D01*
X160500000Y-61737000D02*
X160500000Y-63885000D01*
X160500000Y-65965000D02*
X160500000Y-68113000D01*
X160540000Y-61769000D02*
X160540000Y-63885000D01*
X160540000Y-65965000D02*
X160540000Y-68081000D01*
X160580000Y-61802000D02*
X160580000Y-63885000D01*
X160580000Y-65965000D02*
X160580000Y-68048000D01*
X160620000Y-61836000D02*
X160620000Y-63885000D01*
X160620000Y-65965000D02*
X160620000Y-68014000D01*
X160660000Y-61870000D02*
X160660000Y-63885000D01*
X160660000Y-65965000D02*
X160660000Y-67980000D01*
X160700000Y-61906000D02*
X160700000Y-63885000D01*
X160700000Y-65965000D02*
X160700000Y-67944000D01*
X160740000Y-61943000D02*
X160740000Y-67907000D01*
X160780000Y-61980000D02*
X160780000Y-67870000D01*
X160820000Y-62019000D02*
X160820000Y-67831000D01*
X160860000Y-62058000D02*
X160860000Y-67792000D01*
X160900000Y-62099000D02*
X160900000Y-67751000D01*
X160940000Y-62141000D02*
X160940000Y-67709000D01*
X160980000Y-62184000D02*
X160980000Y-67666000D01*
X161020000Y-62229000D02*
X161020000Y-67621000D01*
X161060000Y-62274000D02*
X161060000Y-67576000D01*
X161100000Y-62321000D02*
X161100000Y-67529000D01*
X161140000Y-62370000D02*
X161140000Y-67480000D01*
X161180000Y-62420000D02*
X161180000Y-67430000D01*
X161220000Y-62472000D02*
X161220000Y-67378000D01*
X161260000Y-62525000D02*
X161260000Y-67325000D01*
X161300000Y-62581000D02*
X161300000Y-67269000D01*
X161340000Y-62638000D02*
X161340000Y-67212000D01*
X161380000Y-62698000D02*
X161380000Y-67152000D01*
X161420000Y-62760000D02*
X161420000Y-67090000D01*
X161460000Y-62824000D02*
X161460000Y-67026000D01*
X161500000Y-62891000D02*
X161500000Y-66959000D01*
X161540000Y-62961000D02*
X161540000Y-66889000D01*
X161580000Y-63035000D02*
X161580000Y-66815000D01*
X161620000Y-63112000D02*
X161620000Y-66738000D01*
X161660000Y-63194000D02*
X161660000Y-66656000D01*
X161700000Y-63281000D02*
X161700000Y-66569000D01*
X161740000Y-63373000D02*
X161740000Y-66477000D01*
X161780000Y-63472000D02*
X161780000Y-66378000D01*
X161820000Y-63579000D02*
X161820000Y-66271000D01*
X161860000Y-63697000D02*
X161860000Y-66153000D01*
X161900000Y-63828000D02*
X161900000Y-66022000D01*
X161940000Y-63978000D02*
X161940000Y-65872000D01*
X161980000Y-64157000D02*
X161980000Y-65693000D01*
X162020000Y-64392000D02*
X162020000Y-65458000D01*
X162060000Y-64925000D02*
G75*
G02*
X153820000Y-64925000I-4120000J0D01*
G01*
X153820000Y-64925000D02*
G75*
G02*
X162060000Y-64925000I4120000J0D01*
G01*
%TO.C,J11*%
X135640000Y-70910000D02*
X135640000Y-72160000D01*
X135930000Y-71200000D02*
X135930000Y-77170000D01*
X135930000Y-77170000D02*
X148550000Y-77170000D01*
X135940000Y-71210000D02*
X135940000Y-71960000D01*
X135940000Y-71960000D02*
X137740000Y-71960000D01*
X135940000Y-73460000D02*
X136690000Y-73460000D01*
X136690000Y-73460000D02*
X136690000Y-76410000D01*
X136690000Y-76410000D02*
X142240000Y-76410000D01*
X136890000Y-70910000D02*
X135640000Y-70910000D01*
X137740000Y-71210000D02*
X135940000Y-71210000D01*
X137740000Y-71960000D02*
X137740000Y-71210000D01*
X139240000Y-71210000D02*
X139240000Y-71960000D01*
X139240000Y-71960000D02*
X145240000Y-71960000D01*
X145240000Y-71210000D02*
X139240000Y-71210000D01*
X145240000Y-71960000D02*
X145240000Y-71210000D01*
X146740000Y-71210000D02*
X146740000Y-71960000D01*
X146740000Y-71960000D02*
X148540000Y-71960000D01*
X147790000Y-73460000D02*
X147790000Y-76410000D01*
X147790000Y-76410000D02*
X142240000Y-76410000D01*
X148540000Y-71210000D02*
X146740000Y-71210000D01*
X148540000Y-71960000D02*
X148540000Y-71210000D01*
X148540000Y-73460000D02*
X147790000Y-73460000D01*
X148550000Y-71200000D02*
X135930000Y-71200000D01*
X148550000Y-77170000D02*
X148550000Y-71200000D01*
%TO.C,J2*%
X149750000Y-55880000D02*
X149750000Y-40530000D01*
X152510000Y-40530000D02*
X149750000Y-40530000D01*
X152510000Y-55880000D02*
X149750000Y-55880000D01*
X152510000Y-55880000D02*
X152510000Y-40530000D01*
X152510000Y-57150000D02*
X152510000Y-58530000D01*
X152510000Y-58530000D02*
X151130000Y-58530000D01*
%TO.C,Q1*%
X156120000Y-69820000D02*
X160740000Y-69820000D01*
X156120000Y-80040000D02*
X156120000Y-69820000D01*
X159360000Y-69820000D02*
X159360000Y-80040000D01*
X160740000Y-69820000D02*
X160740000Y-80040000D01*
X160740000Y-73080000D02*
X159360000Y-73080000D01*
X160740000Y-76780000D02*
X159360000Y-76780000D01*
X160740000Y-80040000D02*
X156120000Y-80040000D01*
%TO.C,R4*%
X151130000Y-62000000D02*
X151130000Y-62770000D01*
X151130000Y-70080000D02*
X151130000Y-69310000D01*
X149760000Y-69310000D02*
X152500000Y-69310000D01*
X152500000Y-62770000D01*
X149760000Y-62770000D01*
X149760000Y-69310000D01*
%TD*%
M02*
