%TF.GenerationSoftware,KiCad,Pcbnew,9.0.4*%
%TF.CreationDate,2025-11-21T22:02:31+01:00*%
%TF.ProjectId,smart_plants_breakout_rev1,736d6172-745f-4706-9c61-6e74735f6272,rev?*%
%TF.SameCoordinates,Original*%
%TF.FileFunction,Soldermask,Bot*%
%TF.FilePolarity,Negative*%
%FSLAX46Y46*%
G04 Gerber Fmt 4.6, Leading zero omitted, Abs format (unit mm)*
G04 Created by KiCad (PCBNEW 9.0.4) date 2025-11-21 22:02:31*
%MOMM*%
%LPD*%
G01*
G04 APERTURE LIST*
G04 Aperture macros list*
%AMRoundRect*
0 Rectangle with rounded corners*
0 $1 Rounding radius*
0 $2 $3 $4 $5 $6 $7 $8 $9 X,Y pos of 4 corners*
0 Add a 4 corners polygon primitive as box body*
4,1,4,$2,$3,$4,$5,$6,$7,$8,$9,$2,$3,0*
0 Add four circle primitives for the rounded corners*
1,1,$1+$1,$2,$3*
1,1,$1+$1,$4,$5*
1,1,$1+$1,$6,$7*
1,1,$1+$1,$8,$9*
0 Add four rect primitives between the rounded corners*
20,1,$1+$1,$2,$3,$4,$5,0*
20,1,$1+$1,$4,$5,$6,$7,0*
20,1,$1+$1,$6,$7,$8,$9,0*
20,1,$1+$1,$8,$9,$2,$3,0*%
G04 Aperture macros list end*
%ADD10RoundRect,0.250000X-0.600000X-0.750000X0.600000X-0.750000X0.600000X0.750000X-0.600000X0.750000X0*%
%ADD11O,1.700000X2.000000*%
%ADD12RoundRect,0.250000X-0.600000X-0.725000X0.600000X-0.725000X0.600000X0.725000X-0.600000X0.725000X0*%
%ADD13O,1.700000X1.950000*%
%ADD14RoundRect,0.249999X-0.850001X0.850001X-0.850001X-0.850001X0.850001X-0.850001X0.850001X0.850001X0*%
%ADD15C,2.200000*%
%ADD16R,1.700000X1.700000*%
%ADD17C,1.700000*%
%ADD18C,2.700000*%
%ADD19C,1.524000*%
%ADD20RoundRect,0.250000X-0.550000X-0.550000X0.550000X-0.550000X0.550000X0.550000X-0.550000X0.550000X0*%
%ADD21C,1.600000*%
%ADD22R,2.000000X1.905000*%
%ADD23O,2.000000X1.905000*%
G04 APERTURE END LIST*
D10*
%TO.C,J4*%
X156250000Y-48260000D03*
D11*
X158750000Y-48260000D03*
%TD*%
D12*
%TO.C,J9*%
X138510000Y-64770000D03*
D13*
X141010000Y-64770000D03*
X143510000Y-64770000D03*
%TD*%
D14*
%TO.C,D1*%
X153670000Y-73660000D03*
D15*
X153670000Y-83820000D03*
%TD*%
D16*
%TO.C,J1*%
X125730000Y-41910000D03*
D17*
X125730000Y-44450000D03*
X125730000Y-46990000D03*
X125730000Y-49530000D03*
X125730000Y-52070000D03*
X125730000Y-54610000D03*
X125730000Y-57150000D03*
%TD*%
D10*
%TO.C,J10*%
X118150000Y-63500000D03*
D11*
X120650000Y-63500000D03*
%TD*%
D12*
%TO.C,J6*%
X138550000Y-81280000D03*
D13*
X141050000Y-81280000D03*
X143550000Y-81280000D03*
X146050000Y-81280000D03*
%TD*%
D10*
%TO.C,J7*%
X118150000Y-55880000D03*
D11*
X120650000Y-55880000D03*
%TD*%
D18*
%TO.C,H1*%
X117300000Y-41100000D03*
%TD*%
D19*
%TO.C,U1*%
X130810000Y-41910000D03*
X130810000Y-44450000D03*
X130810000Y-46990000D03*
X130810000Y-49530000D03*
X130810000Y-52070000D03*
X130810000Y-54610000D03*
X130810000Y-57150000D03*
X146050000Y-57150000D03*
X146050000Y-54610000D03*
X146050000Y-52070000D03*
X146050000Y-49530000D03*
X146050000Y-46990000D03*
X146050000Y-44450000D03*
X146050000Y-41910000D03*
%TD*%
D10*
%TO.C,SW1*%
X118150000Y-48260000D03*
D11*
X120650000Y-48260000D03*
%TD*%
D12*
%TO.C,J5*%
X124580000Y-73660000D03*
D13*
X127080000Y-73660000D03*
X129580000Y-73660000D03*
X132080000Y-73660000D03*
%TD*%
D12*
%TO.C,J3*%
X124580000Y-81280000D03*
D13*
X127080000Y-81280000D03*
X129580000Y-81280000D03*
X132080000Y-81280000D03*
%TD*%
D20*
%TO.C,C3*%
X127310000Y-64770000D03*
D21*
X130810000Y-64770000D03*
%TD*%
D18*
%TO.C,H2*%
X159560000Y-41100000D03*
%TD*%
D10*
%TO.C,J8*%
X156250000Y-55880000D03*
D11*
X158750000Y-55880000D03*
%TD*%
D20*
%TO.C,C2*%
X156190000Y-64925000D03*
D21*
X159690000Y-64925000D03*
%TD*%
D18*
%TO.C,H4*%
X159560000Y-83360000D03*
%TD*%
D12*
%TO.C,J11*%
X138490000Y-73660000D03*
D13*
X140990000Y-73660000D03*
X143490000Y-73660000D03*
X145990000Y-73660000D03*
%TD*%
D16*
%TO.C,J2*%
X151130000Y-57150000D03*
D17*
X151130000Y-54610000D03*
X151130000Y-52070000D03*
X151130000Y-49530000D03*
X151130000Y-46990000D03*
X151130000Y-44450000D03*
X151130000Y-41910000D03*
%TD*%
D18*
%TO.C,H3*%
X117300000Y-83360000D03*
%TD*%
D22*
%TO.C,Q1*%
X157480000Y-72390000D03*
D23*
X157480000Y-74930000D03*
X157480000Y-77470000D03*
%TD*%
D21*
%TO.C,R4*%
X151130000Y-71120000D03*
X151130000Y-60960000D03*
%TD*%
%TO.C,R3*%
X133350000Y-49290000D03*
X143510000Y-49290000D03*
%TD*%
%TO.C,R6*%
X133350000Y-41430000D03*
X143510000Y-41430000D03*
%TD*%
%TO.C,R2*%
X133350000Y-53340000D03*
X143510000Y-53340000D03*
%TD*%
%TO.C,R5*%
X133350000Y-45480000D03*
X143510000Y-45480000D03*
%TD*%
%TO.C,R1*%
X133350000Y-57390000D03*
X143510000Y-57390000D03*
%TD*%
M02*
