%TF.GenerationSoftware,KiCad,Pcbnew,9.0.4*%
%TF.CreationDate,2025-11-21T22:02:29+01:00*%
%TF.ProjectId,smart_plants_breakout_rev1,736d6172-745f-4706-9c61-6e74735f6272,rev?*%
%TF.SameCoordinates,Original*%
%TF.FileFunction,Copper,L2,Bot*%
%TF.FilePolarity,Positive*%
%FSLAX46Y46*%
G04 Gerber Fmt 4.6, Leading zero omitted, Abs format (unit mm)*
G04 Created by KiCad (PCBNEW 9.0.4) date 2025-11-21 22:02:29*
%MOMM*%
%LPD*%
G01*
G04 APERTURE LIST*
G04 Aperture macros list*
%AMRoundRect*
0 Rectangle with rounded corners*
0 $1 Rounding radius*
0 $2 $3 $4 $5 $6 $7 $8 $9 X,Y pos of 4 corners*
0 Add a 4 corners polygon primitive as box body*
4,1,4,$2,$3,$4,$5,$6,$7,$8,$9,$2,$3,0*
0 Add four circle primitives for the rounded corners*
1,1,$1+$1,$2,$3*
1,1,$1+$1,$4,$5*
1,1,$1+$1,$6,$7*
1,1,$1+$1,$8,$9*
0 Add four rect primitives between the rounded corners*
20,1,$1+$1,$2,$3,$4,$5,0*
20,1,$1+$1,$4,$5,$6,$7,0*
20,1,$1+$1,$6,$7,$8,$9,0*
20,1,$1+$1,$8,$9,$2,$3,0*%
G04 Aperture macros list end*
%TA.AperFunction,ComponentPad*%
%ADD10RoundRect,0.250000X-0.600000X-0.750000X0.600000X-0.750000X0.600000X0.750000X-0.600000X0.750000X0*%
%TD*%
%TA.AperFunction,ComponentPad*%
%ADD11O,1.700000X2.000000*%
%TD*%
%TA.AperFunction,ComponentPad*%
%ADD12RoundRect,0.250000X-0.600000X-0.725000X0.600000X-0.725000X0.600000X0.725000X-0.600000X0.725000X0*%
%TD*%
%TA.AperFunction,ComponentPad*%
%ADD13O,1.700000X1.950000*%
%TD*%
%TA.AperFunction,ComponentPad*%
%ADD14RoundRect,0.249999X-0.850001X0.850001X-0.850001X-0.850001X0.850001X-0.850001X0.850001X0.850001X0*%
%TD*%
%TA.AperFunction,ComponentPad*%
%ADD15C,2.200000*%
%TD*%
%TA.AperFunction,ComponentPad*%
%ADD16R,1.700000X1.700000*%
%TD*%
%TA.AperFunction,ComponentPad*%
%ADD17C,1.700000*%
%TD*%
%TA.AperFunction,ComponentPad*%
%ADD18C,1.524000*%
%TD*%
%TA.AperFunction,ComponentPad*%
%ADD19RoundRect,0.250000X-0.550000X-0.550000X0.550000X-0.550000X0.550000X0.550000X-0.550000X0.550000X0*%
%TD*%
%TA.AperFunction,ComponentPad*%
%ADD20C,1.600000*%
%TD*%
%TA.AperFunction,ComponentPad*%
%ADD21R,2.000000X1.905000*%
%TD*%
%TA.AperFunction,ComponentPad*%
%ADD22O,2.000000X1.905000*%
%TD*%
%TA.AperFunction,ViaPad*%
%ADD23C,0.700000*%
%TD*%
%TA.AperFunction,Conductor*%
%ADD24C,0.500000*%
%TD*%
G04 APERTURE END LIST*
D10*
%TO.P,J4,1,Pin_1*%
%TO.N,BAT-*%
X156250000Y-48260000D03*
D11*
%TO.P,J4,2,Pin_2*%
%TO.N,VBUS*%
X158750000Y-48260000D03*
%TD*%
D12*
%TO.P,J9,1,Pin_1*%
%TO.N,Net-(J1-Pin_2)*%
X138510000Y-64770000D03*
D13*
%TO.P,J9,2,Pin_2*%
%TO.N,VDC*%
X141010000Y-64770000D03*
%TO.P,J9,3,Pin_3*%
%TO.N,BAT-*%
X143510000Y-64770000D03*
%TD*%
D14*
%TO.P,D1,1,K*%
%TO.N,BAT+*%
X153670000Y-73660000D03*
D15*
%TO.P,D1,2,A*%
%TO.N,Net-(D1-A)*%
X153670000Y-83820000D03*
%TD*%
D16*
%TO.P,J1,1,Pin_1*%
%TO.N,Net-(J1-Pin_1)*%
X125730000Y-41910000D03*
D17*
%TO.P,J1,2,Pin_2*%
%TO.N,Net-(J1-Pin_2)*%
X125730000Y-44450000D03*
%TO.P,J1,3,Pin_3*%
%TO.N,Net-(J1-Pin_3)*%
X125730000Y-46990000D03*
%TO.P,J1,4,Pin_4*%
%TO.N,Net-(J1-Pin_4)*%
X125730000Y-49530000D03*
%TO.P,J1,5,Pin_5*%
%TO.N,Net-(J1-Pin_5)*%
X125730000Y-52070000D03*
%TO.P,J1,6,Pin_6*%
%TO.N,Net-(J1-Pin_6)*%
X125730000Y-54610000D03*
%TO.P,J1,7,Pin_7*%
%TO.N,Net-(J1-Pin_7)*%
X125730000Y-57150000D03*
%TD*%
D10*
%TO.P,J10,1,Pin_1*%
%TO.N,Net-(D1-A)*%
X118150000Y-63500000D03*
D11*
%TO.P,J10,2,Pin_2*%
%TO.N,BAT+*%
X120650000Y-63500000D03*
%TD*%
D12*
%TO.P,J6,1,Pin_1*%
%TO.N,VDC*%
X138550000Y-81280000D03*
D13*
%TO.P,J6,2,Pin_2*%
%TO.N,BAT-*%
X141050000Y-81280000D03*
%TO.P,J6,3,Pin_3*%
%TO.N,Net-(J1-Pin_5)*%
X143550000Y-81280000D03*
%TO.P,J6,4,Pin_4*%
%TO.N,Net-(J1-Pin_6)*%
X146050000Y-81280000D03*
%TD*%
D10*
%TO.P,J7,1,Pin_1*%
%TO.N,Net-(J7-Pin_1)*%
X118150000Y-55880000D03*
D11*
%TO.P,J7,2,Pin_2*%
%TO.N,BAT-*%
X120650000Y-55880000D03*
%TD*%
D18*
%TO.P,U1,1,GPIO0/A0/D0*%
%TO.N,Net-(J1-Pin_1)*%
X130810000Y-41910000D03*
%TO.P,U1,2,GPIO1/A1/D1*%
%TO.N,Net-(J1-Pin_2)*%
X130810000Y-44450000D03*
%TO.P,U1,3,GPIO2/A2/D2*%
%TO.N,Net-(J1-Pin_3)*%
X130810000Y-46990000D03*
%TO.P,U1,4,GPIO21/D3*%
%TO.N,Net-(J1-Pin_4)*%
X130810000Y-49530000D03*
%TO.P,U1,5,GPIO22/D4/SDA*%
%TO.N,Net-(J1-Pin_5)*%
X130810000Y-52070000D03*
%TO.P,U1,6,GPIO23/D5/SCL*%
%TO.N,Net-(J1-Pin_6)*%
X130810000Y-54610000D03*
%TO.P,U1,7,GPIO16/D6/TX*%
%TO.N,Net-(J1-Pin_7)*%
X130810000Y-57150000D03*
%TO.P,U1,8,GPIO17/D7/RX*%
%TO.N,Net-(J2-Pin_1)*%
X146050000Y-57150000D03*
%TO.P,U1,9,GPIO19/D8/SCK*%
%TO.N,Net-(J2-Pin_2)*%
X146050000Y-54610000D03*
%TO.P,U1,10,GPIO20/D9/MISO*%
%TO.N,Net-(J2-Pin_3)*%
X146050000Y-52070000D03*
%TO.P,U1,11,GPIO18/D10/MOSI*%
%TO.N,Net-(J2-Pin_4)*%
X146050000Y-49530000D03*
%TO.P,U1,12,3V3*%
%TO.N,VDC*%
X146050000Y-46990000D03*
%TO.P,U1,13,GND*%
%TO.N,BAT-*%
X146050000Y-44450000D03*
%TO.P,U1,14,VBUS*%
%TO.N,VBUS*%
X146050000Y-41910000D03*
%TD*%
D10*
%TO.P,SW1,1,A*%
%TO.N,Net-(J7-Pin_1)*%
X118150000Y-48260000D03*
D11*
%TO.P,SW1,2,B*%
%TO.N,BAT+*%
X120650000Y-48260000D03*
%TD*%
D12*
%TO.P,J5,1,Pin_1*%
%TO.N,Net-(J1-Pin_4)*%
X124580000Y-73660000D03*
D13*
%TO.P,J5,2,Pin_2*%
%TO.N,BAT-*%
X127080000Y-73660000D03*
%TO.P,J5,3,Pin_3*%
%TO.N,Net-(J1-Pin_5)*%
X129580000Y-73660000D03*
%TO.P,J5,4,Pin_4*%
%TO.N,Net-(J1-Pin_6)*%
X132080000Y-73660000D03*
%TD*%
D12*
%TO.P,J3,1,Pin_1*%
%TO.N,VDC*%
X124580000Y-81280000D03*
D13*
%TO.P,J3,2,Pin_2*%
%TO.N,BAT-*%
X127080000Y-81280000D03*
%TO.P,J3,3,Pin_3*%
%TO.N,Net-(J1-Pin_5)*%
X129580000Y-81280000D03*
%TO.P,J3,4,Pin_4*%
%TO.N,Net-(J1-Pin_6)*%
X132080000Y-81280000D03*
%TD*%
D19*
%TO.P,C3,1*%
%TO.N,BAT+*%
X127310000Y-64770000D03*
D20*
%TO.P,C3,2*%
%TO.N,Net-(D1-A)*%
X130810000Y-64770000D03*
%TD*%
D10*
%TO.P,J8,1,Pin_1*%
%TO.N,BAT+*%
X156250000Y-55880000D03*
D11*
%TO.P,J8,2,Pin_2*%
%TO.N,BAT-*%
X158750000Y-55880000D03*
%TD*%
D19*
%TO.P,C2,1*%
%TO.N,BAT+*%
X156190000Y-64925000D03*
D20*
%TO.P,C2,2*%
%TO.N,BAT-*%
X159690000Y-64925000D03*
%TD*%
D12*
%TO.P,J11,1,Pin_1*%
%TO.N,Net-(J1-Pin_7)*%
X138490000Y-73660000D03*
D13*
%TO.P,J11,2,Pin_2*%
%TO.N,BAT-*%
X140990000Y-73660000D03*
%TO.P,J11,3,Pin_3*%
%TO.N,Net-(J1-Pin_5)*%
X143490000Y-73660000D03*
%TO.P,J11,4,Pin_4*%
%TO.N,Net-(J1-Pin_6)*%
X145990000Y-73660000D03*
%TD*%
D16*
%TO.P,J2,1,Pin_1*%
%TO.N,Net-(J2-Pin_1)*%
X151130000Y-57150000D03*
D17*
%TO.P,J2,2,Pin_2*%
%TO.N,Net-(J2-Pin_2)*%
X151130000Y-54610000D03*
%TO.P,J2,3,Pin_3*%
%TO.N,Net-(J2-Pin_3)*%
X151130000Y-52070000D03*
%TO.P,J2,4,Pin_4*%
%TO.N,Net-(J2-Pin_4)*%
X151130000Y-49530000D03*
%TO.P,J2,5,Pin_5*%
%TO.N,VDC*%
X151130000Y-46990000D03*
%TO.P,J2,6,Pin_6*%
%TO.N,BAT-*%
X151130000Y-44450000D03*
%TO.P,J2,7,Pin_7*%
%TO.N,VBUS*%
X151130000Y-41910000D03*
%TD*%
D21*
%TO.P,Q1,1,G*%
%TO.N,Net-(Q1-G)*%
X157480000Y-72390000D03*
D22*
%TO.P,Q1,2,D*%
%TO.N,Net-(D1-A)*%
X157480000Y-74930000D03*
%TO.P,Q1,3,S*%
%TO.N,BAT-*%
X157480000Y-77470000D03*
%TD*%
D20*
%TO.P,R4,1*%
%TO.N,Net-(Q1-G)*%
X151130000Y-71120000D03*
%TO.P,R4,2*%
%TO.N,Net-(J2-Pin_1)*%
X151130000Y-60960000D03*
%TD*%
%TO.P,R3,1*%
%TO.N,BAT-*%
X133350000Y-49290000D03*
%TO.P,R3,2*%
%TO.N,Net-(Q1-G)*%
X143510000Y-49290000D03*
%TD*%
%TO.P,R6,1*%
%TO.N,Net-(J1-Pin_5)*%
X133350000Y-41430000D03*
%TO.P,R6,2*%
%TO.N,VDC*%
X143510000Y-41430000D03*
%TD*%
%TO.P,R2,1*%
%TO.N,BAT-*%
X133350000Y-53340000D03*
%TO.P,R2,2*%
%TO.N,Net-(J1-Pin_1)*%
X143510000Y-53340000D03*
%TD*%
%TO.P,R5,1*%
%TO.N,Net-(J1-Pin_6)*%
X133350000Y-45480000D03*
%TO.P,R5,2*%
%TO.N,VDC*%
X143510000Y-45480000D03*
%TD*%
%TO.P,R1,1*%
%TO.N,BAT+*%
X133350000Y-57390000D03*
%TO.P,R1,2*%
%TO.N,Net-(J1-Pin_1)*%
X143510000Y-57390000D03*
%TD*%
D23*
%TO.N,BAT+*%
X130810000Y-62230000D03*
X133350000Y-62230000D03*
%TO.N,Net-(J1-Pin_7)*%
X134620000Y-62230000D03*
%TO.N,Net-(Q1-G)*%
X148590000Y-59690000D03*
%TD*%
D24*
%TO.N,BAT+*%
X139940000Y-57390000D02*
X147475000Y-64925000D01*
X133350000Y-57390000D02*
X139940000Y-57390000D01*
X133350000Y-62230000D02*
X130810000Y-62230000D01*
X147475000Y-64925000D02*
X156190000Y-64925000D01*
%TO.N,Net-(D1-A)*%
X153670000Y-78740000D02*
X153670000Y-83820000D01*
X130810000Y-64770000D02*
X135890000Y-69850000D01*
X135890000Y-69850000D02*
X144780000Y-69850000D01*
X144780000Y-69850000D02*
X153670000Y-78740000D01*
%TO.N,Net-(J1-Pin_6)*%
X130810000Y-54610000D02*
X132099000Y-53321000D01*
X132099000Y-53321000D02*
X132099000Y-46731000D01*
X132099000Y-46731000D02*
X133350000Y-45480000D01*
%TO.N,Net-(J1-Pin_7)*%
X130810000Y-58420000D02*
X134620000Y-62230000D01*
X130810000Y-57150000D02*
X130810000Y-58420000D01*
%TO.N,Net-(J1-Pin_4)*%
X124580000Y-73660000D02*
X124429000Y-73509000D01*
X124429000Y-73509000D02*
X124429000Y-50831000D01*
X124429000Y-50831000D02*
X125730000Y-49530000D01*
%TO.N,Net-(J1-Pin_5)*%
X143490000Y-73660000D02*
X143490000Y-78740000D01*
X129559000Y-53321000D02*
X130810000Y-52070000D01*
X129580000Y-73660000D02*
X129580000Y-78740000D01*
X129559000Y-73639000D02*
X129559000Y-53321000D01*
X129580000Y-78740000D02*
X143490000Y-78740000D01*
X129580000Y-73660000D02*
X129559000Y-73639000D01*
X129580000Y-78740000D02*
X129580000Y-81280000D01*
X143490000Y-78740000D02*
X143490000Y-81220000D01*
X143490000Y-81220000D02*
X143550000Y-81280000D01*
%TO.N,Net-(J1-Pin_1)*%
X132851000Y-42681000D02*
X131581000Y-42681000D01*
X143510000Y-57390000D02*
X143510000Y-53340000D01*
X143510000Y-53340000D02*
X132851000Y-42681000D01*
X131581000Y-42681000D02*
X130810000Y-41910000D01*
%TO.N,Net-(Q1-G)*%
X143510000Y-49290000D02*
X145077000Y-50857000D01*
X147377000Y-50857000D02*
X148590000Y-52070000D01*
X145077000Y-50857000D02*
X147377000Y-50857000D01*
X151130000Y-71120000D02*
X156210000Y-71120000D01*
X156210000Y-71120000D02*
X157480000Y-72390000D01*
X148590000Y-52070000D02*
X148590000Y-59690000D01*
%TD*%
%TA.AperFunction,Conductor*%
%TO.N,BAT-*%
G36*
X130471820Y-66027545D02*
G01*
X130505458Y-66038475D01*
X130505461Y-66038475D01*
X130505466Y-66038477D01*
X130707648Y-66070500D01*
X130707649Y-66070500D01*
X130912350Y-66070500D01*
X130912352Y-66070500D01*
X130968026Y-66061681D01*
X131037318Y-66070635D01*
X131075105Y-66096473D01*
X135411586Y-70432954D01*
X135441058Y-70452645D01*
X135485270Y-70482186D01*
X135534505Y-70515084D01*
X135534506Y-70515084D01*
X135534507Y-70515085D01*
X135534509Y-70515086D01*
X135671082Y-70571656D01*
X135671087Y-70571658D01*
X135671091Y-70571658D01*
X135671092Y-70571659D01*
X135816079Y-70600500D01*
X135816082Y-70600500D01*
X135816083Y-70600500D01*
X135963917Y-70600500D01*
X144417770Y-70600500D01*
X144484809Y-70620185D01*
X144505451Y-70636819D01*
X145857883Y-71989251D01*
X145891368Y-72050574D01*
X145886384Y-72120266D01*
X145844512Y-72176199D01*
X145789601Y-72199405D01*
X145673759Y-72217753D01*
X145471585Y-72283444D01*
X145282179Y-72379951D01*
X145110213Y-72504890D01*
X144959894Y-72655209D01*
X144959890Y-72655214D01*
X144840318Y-72819793D01*
X144784989Y-72862459D01*
X144715375Y-72868438D01*
X144653580Y-72835833D01*
X144639682Y-72819793D01*
X144520109Y-72655214D01*
X144520105Y-72655209D01*
X144369786Y-72504890D01*
X144197820Y-72379951D01*
X144008414Y-72283444D01*
X144008413Y-72283443D01*
X144008412Y-72283443D01*
X143806243Y-72217754D01*
X143806241Y-72217753D01*
X143806240Y-72217753D01*
X143635558Y-72190720D01*
X143596287Y-72184500D01*
X143383713Y-72184500D01*
X143344442Y-72190720D01*
X143173760Y-72217753D01*
X142971585Y-72283444D01*
X142782179Y-72379951D01*
X142610213Y-72504890D01*
X142459894Y-72655209D01*
X142459890Y-72655214D01*
X142340008Y-72820218D01*
X142284678Y-72862884D01*
X142215065Y-72868863D01*
X142153270Y-72836257D01*
X142139372Y-72820218D01*
X142019727Y-72655540D01*
X142019723Y-72655535D01*
X141869464Y-72505276D01*
X141869459Y-72505272D01*
X141697557Y-72380379D01*
X141508215Y-72283903D01*
X141306124Y-72218241D01*
X141240000Y-72207768D01*
X141240000Y-73255854D01*
X141173343Y-73217370D01*
X141052535Y-73185000D01*
X140927465Y-73185000D01*
X140806657Y-73217370D01*
X140740000Y-73255854D01*
X140740000Y-72207768D01*
X140739999Y-72207768D01*
X140673875Y-72218241D01*
X140471784Y-72283903D01*
X140282442Y-72380379D01*
X140110541Y-72505271D01*
X139971668Y-72644144D01*
X139910345Y-72677628D01*
X139840653Y-72672644D01*
X139784720Y-72630772D01*
X139778448Y-72621558D01*
X139682712Y-72466344D01*
X139558657Y-72342289D01*
X139558656Y-72342288D01*
X139409334Y-72250186D01*
X139242797Y-72195001D01*
X139242795Y-72195000D01*
X139140010Y-72184500D01*
X137839998Y-72184500D01*
X137839981Y-72184501D01*
X137737203Y-72195000D01*
X137737200Y-72195001D01*
X137570668Y-72250185D01*
X137570663Y-72250187D01*
X137421342Y-72342289D01*
X137297289Y-72466342D01*
X137205187Y-72615663D01*
X137205185Y-72615668D01*
X137200180Y-72630772D01*
X137150001Y-72782203D01*
X137150001Y-72782204D01*
X137150000Y-72782204D01*
X137139500Y-72884983D01*
X137139500Y-74435001D01*
X137139501Y-74435018D01*
X137150000Y-74537796D01*
X137150001Y-74537799D01*
X137191422Y-74662798D01*
X137205186Y-74704334D01*
X137297288Y-74853656D01*
X137421344Y-74977712D01*
X137570666Y-75069814D01*
X137737203Y-75124999D01*
X137839991Y-75135500D01*
X139140008Y-75135499D01*
X139242797Y-75124999D01*
X139409334Y-75069814D01*
X139558656Y-74977712D01*
X139682712Y-74853656D01*
X139774814Y-74704334D01*
X139774814Y-74704331D01*
X139778448Y-74698441D01*
X139830395Y-74651716D01*
X139899358Y-74640493D01*
X139963440Y-74668336D01*
X139971668Y-74675856D01*
X140110535Y-74814723D01*
X140110540Y-74814727D01*
X140282442Y-74939620D01*
X140471782Y-75036095D01*
X140673871Y-75101757D01*
X140740000Y-75112231D01*
X140740000Y-74064145D01*
X140806657Y-74102630D01*
X140927465Y-74135000D01*
X141052535Y-74135000D01*
X141173343Y-74102630D01*
X141240000Y-74064145D01*
X141240000Y-75112230D01*
X141306126Y-75101757D01*
X141306129Y-75101757D01*
X141508217Y-75036095D01*
X141697557Y-74939620D01*
X141869459Y-74814727D01*
X141869464Y-74814723D01*
X142019721Y-74664466D01*
X142139371Y-74499781D01*
X142194701Y-74457115D01*
X142264314Y-74451136D01*
X142326110Y-74483741D01*
X142340008Y-74499781D01*
X142459890Y-74664785D01*
X142459894Y-74664790D01*
X142459896Y-74664792D01*
X142610208Y-74815104D01*
X142688384Y-74871902D01*
X142731051Y-74927231D01*
X142739500Y-74972220D01*
X142739500Y-77865500D01*
X142719815Y-77932539D01*
X142667011Y-77978294D01*
X142615500Y-77989500D01*
X130454500Y-77989500D01*
X130387461Y-77969815D01*
X130341706Y-77917011D01*
X130330500Y-77865500D01*
X130330500Y-74972220D01*
X130350185Y-74905181D01*
X130381614Y-74871902D01*
X130459792Y-74815104D01*
X130610104Y-74664792D01*
X130729683Y-74500204D01*
X130785011Y-74457540D01*
X130854624Y-74451561D01*
X130916420Y-74484166D01*
X130930313Y-74500199D01*
X130995379Y-74589755D01*
X131049896Y-74664792D01*
X131200213Y-74815109D01*
X131372179Y-74940048D01*
X131372181Y-74940049D01*
X131372184Y-74940051D01*
X131561588Y-75036557D01*
X131763757Y-75102246D01*
X131973713Y-75135500D01*
X131973714Y-75135500D01*
X132186286Y-75135500D01*
X132186287Y-75135500D01*
X132396243Y-75102246D01*
X132598412Y-75036557D01*
X132787816Y-74940051D01*
X132835811Y-74905181D01*
X132959786Y-74815109D01*
X132959788Y-74815106D01*
X132959792Y-74815104D01*
X133110104Y-74664792D01*
X133110106Y-74664788D01*
X133110109Y-74664786D01*
X133235048Y-74492820D01*
X133235047Y-74492820D01*
X133235051Y-74492816D01*
X133331557Y-74303412D01*
X133397246Y-74101243D01*
X133430500Y-73891287D01*
X133430500Y-73428713D01*
X133397246Y-73218757D01*
X133331557Y-73016588D01*
X133235051Y-72827184D01*
X133235049Y-72827181D01*
X133235048Y-72827179D01*
X133110109Y-72655213D01*
X132959786Y-72504890D01*
X132787820Y-72379951D01*
X132598414Y-72283444D01*
X132598413Y-72283443D01*
X132598412Y-72283443D01*
X132396243Y-72217754D01*
X132396241Y-72217753D01*
X132396240Y-72217753D01*
X132225558Y-72190720D01*
X132186287Y-72184500D01*
X131973713Y-72184500D01*
X131934442Y-72190720D01*
X131763760Y-72217753D01*
X131561585Y-72283444D01*
X131372179Y-72379951D01*
X131200213Y-72504890D01*
X131049894Y-72655209D01*
X131049890Y-72655214D01*
X130930318Y-72819793D01*
X130874989Y-72862459D01*
X130805375Y-72868438D01*
X130743580Y-72835833D01*
X130729682Y-72819793D01*
X130610109Y-72655214D01*
X130610105Y-72655209D01*
X130459790Y-72504894D01*
X130459785Y-72504890D01*
X130360615Y-72432839D01*
X130317949Y-72377509D01*
X130309500Y-72332521D01*
X130309500Y-66145475D01*
X130329185Y-66078436D01*
X130381989Y-66032681D01*
X130451147Y-66022737D01*
X130471820Y-66027545D01*
G37*
%TD.AperFunction*%
%TA.AperFunction,Conductor*%
G36*
X159563736Y-38600726D02*
G01*
X159853796Y-38618271D01*
X159868659Y-38620076D01*
X160150798Y-38671780D01*
X160165335Y-38675363D01*
X160439172Y-38760695D01*
X160453163Y-38766000D01*
X160714743Y-38883727D01*
X160727989Y-38890680D01*
X160973465Y-39039075D01*
X160985776Y-39047573D01*
X161211573Y-39224473D01*
X161222781Y-39234403D01*
X161425596Y-39437218D01*
X161435526Y-39448426D01*
X161567406Y-39616759D01*
X161612422Y-39674217D01*
X161620926Y-39686537D01*
X161737398Y-39879205D01*
X161769316Y-39932004D01*
X161776275Y-39945263D01*
X161893997Y-40206831D01*
X161899306Y-40220832D01*
X161984635Y-40494663D01*
X161988219Y-40509201D01*
X162039923Y-40791340D01*
X162041728Y-40806205D01*
X162059274Y-41096263D01*
X162059500Y-41103750D01*
X162059500Y-83356249D01*
X162059274Y-83363736D01*
X162041728Y-83653794D01*
X162039923Y-83668659D01*
X161988219Y-83950798D01*
X161984635Y-83965336D01*
X161899306Y-84239167D01*
X161893997Y-84253168D01*
X161776275Y-84514736D01*
X161769316Y-84527995D01*
X161620928Y-84773459D01*
X161612422Y-84785782D01*
X161435526Y-85011573D01*
X161425596Y-85022781D01*
X161222781Y-85225596D01*
X161211573Y-85235526D01*
X160985782Y-85412422D01*
X160973459Y-85420928D01*
X160727995Y-85569316D01*
X160714736Y-85576275D01*
X160453168Y-85693997D01*
X160439167Y-85699306D01*
X160165336Y-85784635D01*
X160150798Y-85788219D01*
X159868659Y-85839923D01*
X159853794Y-85841728D01*
X159563736Y-85859274D01*
X159556249Y-85859500D01*
X117303751Y-85859500D01*
X117296264Y-85859274D01*
X117006205Y-85841728D01*
X116991340Y-85839923D01*
X116709201Y-85788219D01*
X116694663Y-85784635D01*
X116420832Y-85699306D01*
X116406831Y-85693997D01*
X116145263Y-85576275D01*
X116132004Y-85569316D01*
X115886540Y-85420928D01*
X115874217Y-85412422D01*
X115834223Y-85381089D01*
X115648426Y-85235526D01*
X115637218Y-85225596D01*
X115434403Y-85022781D01*
X115424473Y-85011573D01*
X115353584Y-84921090D01*
X115247573Y-84785776D01*
X115239075Y-84773465D01*
X115090680Y-84527989D01*
X115083727Y-84514743D01*
X114966000Y-84253163D01*
X114960693Y-84239167D01*
X114875364Y-83965336D01*
X114871780Y-83950798D01*
X114820076Y-83668659D01*
X114818271Y-83653794D01*
X114805654Y-83445215D01*
X114800726Y-83363736D01*
X114800500Y-83356249D01*
X114800500Y-83234038D01*
X115699500Y-83234038D01*
X115699500Y-83485961D01*
X115738910Y-83734785D01*
X115816760Y-83974383D01*
X115895413Y-84128747D01*
X115929061Y-84194785D01*
X115931132Y-84198848D01*
X116079201Y-84402649D01*
X116079205Y-84402654D01*
X116257345Y-84580794D01*
X116257350Y-84580798D01*
X116435117Y-84709952D01*
X116461155Y-84728870D01*
X116604184Y-84801747D01*
X116685616Y-84843239D01*
X116685618Y-84843239D01*
X116685621Y-84843241D01*
X116925215Y-84921090D01*
X117174038Y-84960500D01*
X117174039Y-84960500D01*
X117425961Y-84960500D01*
X117425962Y-84960500D01*
X117674785Y-84921090D01*
X117914379Y-84843241D01*
X118138845Y-84728870D01*
X118342656Y-84580793D01*
X118520793Y-84402656D01*
X118668870Y-84198845D01*
X118783241Y-83974379D01*
X118861090Y-83734785D01*
X118900500Y-83485962D01*
X118900500Y-83234038D01*
X118861090Y-82985215D01*
X118783241Y-82745621D01*
X118783239Y-82745618D01*
X118783239Y-82745616D01*
X118708636Y-82599201D01*
X118668870Y-82521155D01*
X118606354Y-82435109D01*
X118520798Y-82317350D01*
X118520794Y-82317345D01*
X118342654Y-82139205D01*
X118342649Y-82139201D01*
X118138848Y-81991132D01*
X118138847Y-81991131D01*
X118138845Y-81991130D01*
X118011937Y-81926467D01*
X117914383Y-81876760D01*
X117674785Y-81798910D01*
X117425962Y-81759500D01*
X117174038Y-81759500D01*
X117049626Y-81779205D01*
X116925214Y-81798910D01*
X116685616Y-81876760D01*
X116461151Y-81991132D01*
X116257350Y-82139201D01*
X116257345Y-82139205D01*
X116079205Y-82317345D01*
X116079201Y-82317350D01*
X115931132Y-82521151D01*
X115816760Y-82745616D01*
X115738910Y-82985214D01*
X115699500Y-83234038D01*
X114800500Y-83234038D01*
X114800500Y-72884983D01*
X123229500Y-72884983D01*
X123229500Y-74435001D01*
X123229501Y-74435018D01*
X123240000Y-74537796D01*
X123240001Y-74537799D01*
X123281422Y-74662798D01*
X123295186Y-74704334D01*
X123387288Y-74853656D01*
X123511344Y-74977712D01*
X123660666Y-75069814D01*
X123827203Y-75124999D01*
X123929991Y-75135500D01*
X125230008Y-75135499D01*
X125332797Y-75124999D01*
X125499334Y-75069814D01*
X125648656Y-74977712D01*
X125772712Y-74853656D01*
X125864814Y-74704334D01*
X125864814Y-74704331D01*
X125868448Y-74698441D01*
X125920395Y-74651716D01*
X125989358Y-74640493D01*
X126053440Y-74668336D01*
X126061668Y-74675856D01*
X126200535Y-74814723D01*
X126200540Y-74814727D01*
X126372442Y-74939620D01*
X126561782Y-75036095D01*
X126763871Y-75101757D01*
X126830000Y-75112231D01*
X126830000Y-74064145D01*
X126896657Y-74102630D01*
X127017465Y-74135000D01*
X127142535Y-74135000D01*
X127263343Y-74102630D01*
X127330000Y-74064145D01*
X127330000Y-75112230D01*
X127396126Y-75101757D01*
X127396129Y-75101757D01*
X127598217Y-75036095D01*
X127787557Y-74939620D01*
X127959459Y-74814727D01*
X127959464Y-74814723D01*
X128109721Y-74664466D01*
X128229371Y-74499781D01*
X128284701Y-74457115D01*
X128354314Y-74451136D01*
X128416110Y-74483741D01*
X128430008Y-74499781D01*
X128549890Y-74664785D01*
X128549894Y-74664790D01*
X128549896Y-74664792D01*
X128700208Y-74815104D01*
X128778384Y-74871902D01*
X128821051Y-74927231D01*
X128829500Y-74972220D01*
X128829500Y-79967779D01*
X128809815Y-80034818D01*
X128778385Y-80068097D01*
X128700211Y-80124893D01*
X128700205Y-80124898D01*
X128549894Y-80275209D01*
X128549890Y-80275214D01*
X128430008Y-80440218D01*
X128374678Y-80482884D01*
X128305065Y-80488863D01*
X128243270Y-80456257D01*
X128229372Y-80440218D01*
X128109727Y-80275540D01*
X128109723Y-80275535D01*
X127959464Y-80125276D01*
X127959459Y-80125272D01*
X127787557Y-80000379D01*
X127598215Y-79903903D01*
X127396124Y-79838241D01*
X127330000Y-79827768D01*
X127330000Y-80875854D01*
X127263343Y-80837370D01*
X127142535Y-80805000D01*
X127017465Y-80805000D01*
X126896657Y-80837370D01*
X126830000Y-80875854D01*
X126830000Y-79827768D01*
X126829999Y-79827768D01*
X126763875Y-79838241D01*
X126561784Y-79903903D01*
X126372442Y-80000379D01*
X126200541Y-80125271D01*
X126061668Y-80264144D01*
X126000345Y-80297628D01*
X125930653Y-80292644D01*
X125874720Y-80250772D01*
X125868448Y-80241558D01*
X125772712Y-80086344D01*
X125648657Y-79962289D01*
X125648656Y-79962288D01*
X125499334Y-79870186D01*
X125332797Y-79815001D01*
X125332795Y-79815000D01*
X125230010Y-79804500D01*
X123929998Y-79804500D01*
X123929981Y-79804501D01*
X123827203Y-79815000D01*
X123827200Y-79815001D01*
X123660668Y-79870185D01*
X123660663Y-79870187D01*
X123511342Y-79962289D01*
X123387289Y-80086342D01*
X123295187Y-80235663D01*
X123295185Y-80235668D01*
X123290180Y-80250772D01*
X123240001Y-80402203D01*
X123240001Y-80402204D01*
X123240000Y-80402204D01*
X123229500Y-80504983D01*
X123229500Y-82055001D01*
X123229501Y-82055018D01*
X123240000Y-82157796D01*
X123240001Y-82157799D01*
X123274031Y-82260493D01*
X123295186Y-82324334D01*
X123387288Y-82473656D01*
X123511344Y-82597712D01*
X123660666Y-82689814D01*
X123827203Y-82744999D01*
X123929991Y-82755500D01*
X125230008Y-82755499D01*
X125332797Y-82744999D01*
X125499334Y-82689814D01*
X125648656Y-82597712D01*
X125772712Y-82473656D01*
X125864814Y-82324334D01*
X125864814Y-82324331D01*
X125868448Y-82318441D01*
X125920395Y-82271716D01*
X125989358Y-82260493D01*
X126053440Y-82288336D01*
X126061668Y-82295856D01*
X126200535Y-82434723D01*
X126200540Y-82434727D01*
X126372442Y-82559620D01*
X126561782Y-82656095D01*
X126763871Y-82721757D01*
X126830000Y-82732231D01*
X126830000Y-81684145D01*
X126896657Y-81722630D01*
X127017465Y-81755000D01*
X127142535Y-81755000D01*
X127263343Y-81722630D01*
X127330000Y-81684145D01*
X127330000Y-82732230D01*
X127396126Y-82721757D01*
X127396129Y-82721757D01*
X127598217Y-82656095D01*
X127787557Y-82559620D01*
X127959459Y-82434727D01*
X127959464Y-82434723D01*
X128109721Y-82284466D01*
X128229371Y-82119781D01*
X128284701Y-82077115D01*
X128354314Y-82071136D01*
X128416110Y-82103741D01*
X128430008Y-82119781D01*
X128549890Y-82284785D01*
X128549894Y-82284790D01*
X128700213Y-82435109D01*
X128872179Y-82560048D01*
X128872181Y-82560049D01*
X128872184Y-82560051D01*
X129061588Y-82656557D01*
X129263757Y-82722246D01*
X129473713Y-82755500D01*
X129473714Y-82755500D01*
X129686286Y-82755500D01*
X129686287Y-82755500D01*
X129896243Y-82722246D01*
X130098412Y-82656557D01*
X130287816Y-82560051D01*
X130341358Y-82521151D01*
X130459786Y-82435109D01*
X130459788Y-82435106D01*
X130459792Y-82435104D01*
X130610104Y-82284792D01*
X130729683Y-82120204D01*
X130785011Y-82077540D01*
X130854624Y-82071561D01*
X130916420Y-82104166D01*
X130930313Y-82120199D01*
X131032242Y-82260493D01*
X131049896Y-82284792D01*
X131200213Y-82435109D01*
X131372179Y-82560048D01*
X131372181Y-82560049D01*
X131372184Y-82560051D01*
X131561588Y-82656557D01*
X131763757Y-82722246D01*
X131973713Y-82755500D01*
X131973714Y-82755500D01*
X132186286Y-82755500D01*
X132186287Y-82755500D01*
X132396243Y-82722246D01*
X132598412Y-82656557D01*
X132787816Y-82560051D01*
X132841358Y-82521151D01*
X132959786Y-82435109D01*
X132959788Y-82435106D01*
X132959792Y-82435104D01*
X133110104Y-82284792D01*
X133110106Y-82284788D01*
X133110109Y-82284786D01*
X133235048Y-82112820D01*
X133235047Y-82112820D01*
X133235051Y-82112816D01*
X133331557Y-81923412D01*
X133397246Y-81721243D01*
X133430500Y-81511287D01*
X133430500Y-81048713D01*
X133397246Y-80838757D01*
X133331557Y-80636588D01*
X133235051Y-80447184D01*
X133235049Y-80447181D01*
X133235048Y-80447179D01*
X133110109Y-80275213D01*
X132959786Y-80124890D01*
X132787820Y-79999951D01*
X132598414Y-79903444D01*
X132598413Y-79903443D01*
X132598412Y-79903443D01*
X132396243Y-79837754D01*
X132396241Y-79837753D01*
X132396240Y-79837753D01*
X132234957Y-79812208D01*
X132186287Y-79804500D01*
X131973713Y-79804500D01*
X131925042Y-79812208D01*
X131763760Y-79837753D01*
X131561585Y-79903444D01*
X131372179Y-79999951D01*
X131200213Y-80124890D01*
X131049894Y-80275209D01*
X131049890Y-80275214D01*
X130930318Y-80439793D01*
X130874989Y-80482459D01*
X130805375Y-80488438D01*
X130743580Y-80455833D01*
X130729682Y-80439793D01*
X130610109Y-80275214D01*
X130610105Y-80275209D01*
X130459794Y-80124898D01*
X130459790Y-80124895D01*
X130406727Y-80086342D01*
X130381615Y-80068097D01*
X130338949Y-80012767D01*
X130330500Y-79967779D01*
X130330500Y-79614500D01*
X130350185Y-79547461D01*
X130402989Y-79501706D01*
X130454500Y-79490500D01*
X142615500Y-79490500D01*
X142682539Y-79510185D01*
X142728294Y-79562989D01*
X142739500Y-79614500D01*
X142739500Y-80011371D01*
X142719815Y-80078410D01*
X142688387Y-80111688D01*
X142670208Y-80124895D01*
X142519894Y-80275209D01*
X142519890Y-80275214D01*
X142400008Y-80440218D01*
X142344678Y-80482884D01*
X142275065Y-80488863D01*
X142213270Y-80456257D01*
X142199372Y-80440218D01*
X142079727Y-80275540D01*
X142079723Y-80275535D01*
X141929464Y-80125276D01*
X141929459Y-80125272D01*
X141757557Y-80000379D01*
X141568215Y-79903903D01*
X141366124Y-79838241D01*
X141300000Y-79827768D01*
X141300000Y-80875854D01*
X141233343Y-80837370D01*
X141112535Y-80805000D01*
X140987465Y-80805000D01*
X140866657Y-80837370D01*
X140800000Y-80875854D01*
X140800000Y-79827768D01*
X140799999Y-79827768D01*
X140733875Y-79838241D01*
X140531784Y-79903903D01*
X140342442Y-80000379D01*
X140170541Y-80125271D01*
X140031668Y-80264144D01*
X139970345Y-80297628D01*
X139900653Y-80292644D01*
X139844720Y-80250772D01*
X139838448Y-80241558D01*
X139742712Y-80086344D01*
X139618657Y-79962289D01*
X139618656Y-79962288D01*
X139469334Y-79870186D01*
X139302797Y-79815001D01*
X139302795Y-79815000D01*
X139200010Y-79804500D01*
X137899998Y-79804500D01*
X137899981Y-79804501D01*
X137797203Y-79815000D01*
X137797200Y-79815001D01*
X137630668Y-79870185D01*
X137630663Y-79870187D01*
X137481342Y-79962289D01*
X137357289Y-80086342D01*
X137265187Y-80235663D01*
X137265185Y-80235668D01*
X137260180Y-80250772D01*
X137210001Y-80402203D01*
X137210001Y-80402204D01*
X137210000Y-80402204D01*
X137199500Y-80504983D01*
X137199500Y-82055001D01*
X137199501Y-82055018D01*
X137210000Y-82157796D01*
X137210001Y-82157799D01*
X137244031Y-82260493D01*
X137265186Y-82324334D01*
X137357288Y-82473656D01*
X137481344Y-82597712D01*
X137630666Y-82689814D01*
X137797203Y-82744999D01*
X137899991Y-82755500D01*
X139200008Y-82755499D01*
X139302797Y-82744999D01*
X139469334Y-82689814D01*
X139618656Y-82597712D01*
X139742712Y-82473656D01*
X139834814Y-82324334D01*
X139834814Y-82324331D01*
X139838448Y-82318441D01*
X139890395Y-82271716D01*
X139959358Y-82260493D01*
X140023440Y-82288336D01*
X140031668Y-82295856D01*
X140170535Y-82434723D01*
X140170540Y-82434727D01*
X140342442Y-82559620D01*
X140531782Y-82656095D01*
X140733871Y-82721757D01*
X140800000Y-82732231D01*
X140800000Y-81684145D01*
X140866657Y-81722630D01*
X140987465Y-81755000D01*
X141112535Y-81755000D01*
X141233343Y-81722630D01*
X141300000Y-81684145D01*
X141300000Y-82732230D01*
X141366126Y-82721757D01*
X141366129Y-82721757D01*
X141568217Y-82656095D01*
X141757557Y-82559620D01*
X141929459Y-82434727D01*
X141929464Y-82434723D01*
X142079721Y-82284466D01*
X142199371Y-82119781D01*
X142254701Y-82077115D01*
X142324314Y-82071136D01*
X142386110Y-82103741D01*
X142400008Y-82119781D01*
X142519890Y-82284785D01*
X142519894Y-82284790D01*
X142670213Y-82435109D01*
X142842179Y-82560048D01*
X142842181Y-82560049D01*
X142842184Y-82560051D01*
X143031588Y-82656557D01*
X143233757Y-82722246D01*
X143443713Y-82755500D01*
X143443714Y-82755500D01*
X143656286Y-82755500D01*
X143656287Y-82755500D01*
X143866243Y-82722246D01*
X144068412Y-82656557D01*
X144257816Y-82560051D01*
X144311358Y-82521151D01*
X144429786Y-82435109D01*
X144429788Y-82435106D01*
X144429792Y-82435104D01*
X144580104Y-82284792D01*
X144699683Y-82120204D01*
X144755011Y-82077540D01*
X144824624Y-82071561D01*
X144886420Y-82104166D01*
X144900313Y-82120199D01*
X145002242Y-82260493D01*
X145019896Y-82284792D01*
X145170213Y-82435109D01*
X145342179Y-82560048D01*
X145342181Y-82560049D01*
X145342184Y-82560051D01*
X145531588Y-82656557D01*
X145733757Y-82722246D01*
X145943713Y-82755500D01*
X145943714Y-82755500D01*
X146156286Y-82755500D01*
X146156287Y-82755500D01*
X146366243Y-82722246D01*
X146568412Y-82656557D01*
X146757816Y-82560051D01*
X146811358Y-82521151D01*
X146929786Y-82435109D01*
X146929788Y-82435106D01*
X146929792Y-82435104D01*
X147080104Y-82284792D01*
X147080106Y-82284788D01*
X147080109Y-82284786D01*
X147205048Y-82112820D01*
X147205047Y-82112820D01*
X147205051Y-82112816D01*
X147301557Y-81923412D01*
X147367246Y-81721243D01*
X147400500Y-81511287D01*
X147400500Y-81048713D01*
X147367246Y-80838757D01*
X147301557Y-80636588D01*
X147205051Y-80447184D01*
X147205049Y-80447181D01*
X147205048Y-80447179D01*
X147080109Y-80275213D01*
X146929786Y-80124890D01*
X146757820Y-79999951D01*
X146568414Y-79903444D01*
X146568413Y-79903443D01*
X146568412Y-79903443D01*
X146366243Y-79837754D01*
X146366241Y-79837753D01*
X146366240Y-79837753D01*
X146204957Y-79812208D01*
X146156287Y-79804500D01*
X145943713Y-79804500D01*
X145895042Y-79812208D01*
X145733760Y-79837753D01*
X145531585Y-79903444D01*
X145342179Y-79999951D01*
X145170213Y-80124890D01*
X145019894Y-80275209D01*
X145019890Y-80275214D01*
X144900318Y-80439793D01*
X144844989Y-80482459D01*
X144775375Y-80488438D01*
X144713580Y-80455833D01*
X144699682Y-80439793D01*
X144580109Y-80275214D01*
X144580105Y-80275209D01*
X144429790Y-80124894D01*
X144429785Y-80124890D01*
X144291615Y-80024504D01*
X144248949Y-79969174D01*
X144240500Y-79924186D01*
X144240500Y-74972220D01*
X144260185Y-74905181D01*
X144291614Y-74871902D01*
X144369792Y-74815104D01*
X144520104Y-74664792D01*
X144639683Y-74500204D01*
X144695011Y-74457540D01*
X144764624Y-74451561D01*
X144826420Y-74484166D01*
X144840313Y-74500199D01*
X144905379Y-74589755D01*
X144959896Y-74664792D01*
X145110213Y-74815109D01*
X145282179Y-74940048D01*
X145282181Y-74940049D01*
X145282184Y-74940051D01*
X145471588Y-75036557D01*
X145673757Y-75102246D01*
X145883713Y-75135500D01*
X145883714Y-75135500D01*
X146096286Y-75135500D01*
X146096287Y-75135500D01*
X146306243Y-75102246D01*
X146508412Y-75036557D01*
X146697816Y-74940051D01*
X146745811Y-74905181D01*
X146869786Y-74815109D01*
X146869788Y-74815106D01*
X146869792Y-74815104D01*
X147020104Y-74664792D01*
X147020106Y-74664788D01*
X147020109Y-74664786D01*
X147145048Y-74492820D01*
X147145047Y-74492820D01*
X147145051Y-74492816D01*
X147241557Y-74303412D01*
X147307246Y-74101243D01*
X147340500Y-73891287D01*
X147340500Y-73771229D01*
X147360185Y-73704190D01*
X147412989Y-73658435D01*
X147482147Y-73648491D01*
X147545703Y-73677516D01*
X147552181Y-73683548D01*
X152883181Y-79014548D01*
X152916666Y-79075871D01*
X152919500Y-79102229D01*
X152919500Y-82330128D01*
X152899815Y-82397167D01*
X152851797Y-82440612D01*
X152831151Y-82451131D01*
X152627350Y-82599201D01*
X152627345Y-82599205D01*
X152449205Y-82777345D01*
X152449201Y-82777350D01*
X152301132Y-82981151D01*
X152186760Y-83205616D01*
X152136598Y-83360000D01*
X152108910Y-83445215D01*
X152069500Y-83694038D01*
X152069500Y-83945962D01*
X152108910Y-84194785D01*
X152186760Y-84434383D01*
X152301132Y-84658848D01*
X152449201Y-84862649D01*
X152449205Y-84862654D01*
X152627345Y-85040794D01*
X152627350Y-85040798D01*
X152793878Y-85161787D01*
X152831155Y-85188870D01*
X152913650Y-85230903D01*
X153055616Y-85303239D01*
X153055618Y-85303239D01*
X153055621Y-85303241D01*
X153295215Y-85381090D01*
X153544038Y-85420500D01*
X153544039Y-85420500D01*
X153795961Y-85420500D01*
X153795962Y-85420500D01*
X154044785Y-85381090D01*
X154284379Y-85303241D01*
X154508845Y-85188870D01*
X154712656Y-85040793D01*
X154890793Y-84862656D01*
X155038870Y-84658845D01*
X155153241Y-84434379D01*
X155231090Y-84194785D01*
X155270500Y-83945962D01*
X155270500Y-83694038D01*
X155231090Y-83445215D01*
X155162474Y-83234038D01*
X157959500Y-83234038D01*
X157959500Y-83485961D01*
X157998910Y-83734785D01*
X158076760Y-83974383D01*
X158155413Y-84128747D01*
X158189061Y-84194785D01*
X158191132Y-84198848D01*
X158339201Y-84402649D01*
X158339205Y-84402654D01*
X158517345Y-84580794D01*
X158517350Y-84580798D01*
X158695117Y-84709952D01*
X158721155Y-84728870D01*
X158864184Y-84801747D01*
X158945616Y-84843239D01*
X158945618Y-84843239D01*
X158945621Y-84843241D01*
X159185215Y-84921090D01*
X159434038Y-84960500D01*
X159434039Y-84960500D01*
X159685961Y-84960500D01*
X159685962Y-84960500D01*
X159934785Y-84921090D01*
X160174379Y-84843241D01*
X160398845Y-84728870D01*
X160602656Y-84580793D01*
X160780793Y-84402656D01*
X160928870Y-84198845D01*
X161043241Y-83974379D01*
X161121090Y-83734785D01*
X161160500Y-83485962D01*
X161160500Y-83234038D01*
X161121090Y-82985215D01*
X161043241Y-82745621D01*
X161043239Y-82745618D01*
X161043239Y-82745616D01*
X160968636Y-82599201D01*
X160928870Y-82521155D01*
X160866354Y-82435109D01*
X160780798Y-82317350D01*
X160780794Y-82317345D01*
X160602654Y-82139205D01*
X160602649Y-82139201D01*
X160398848Y-81991132D01*
X160398847Y-81991131D01*
X160398845Y-81991130D01*
X160271937Y-81926467D01*
X160174383Y-81876760D01*
X159934785Y-81798910D01*
X159685962Y-81759500D01*
X159434038Y-81759500D01*
X159309626Y-81779205D01*
X159185214Y-81798910D01*
X158945616Y-81876760D01*
X158721151Y-81991132D01*
X158517350Y-82139201D01*
X158517345Y-82139205D01*
X158339205Y-82317345D01*
X158339201Y-82317350D01*
X158191132Y-82521151D01*
X158076760Y-82745616D01*
X157998910Y-82985214D01*
X157959500Y-83234038D01*
X155162474Y-83234038D01*
X155153241Y-83205621D01*
X155038870Y-82981155D01*
X155019952Y-82955117D01*
X154890798Y-82777350D01*
X154890794Y-82777345D01*
X154712654Y-82599205D01*
X154712649Y-82599201D01*
X154508848Y-82451131D01*
X154488203Y-82440612D01*
X154437408Y-82392637D01*
X154420500Y-82330128D01*
X154420500Y-78666081D01*
X154414763Y-78637242D01*
X154414763Y-78637240D01*
X154391660Y-78521095D01*
X154391659Y-78521088D01*
X154337408Y-78390117D01*
X154335764Y-78385522D01*
X154252954Y-78261588D01*
X154252953Y-78261587D01*
X154252951Y-78261584D01*
X154148416Y-78157049D01*
X152105254Y-76113887D01*
X147091826Y-71100457D01*
X147009017Y-71017648D01*
X149829500Y-71017648D01*
X149829500Y-71222351D01*
X149861522Y-71424534D01*
X149924781Y-71619223D01*
X150017715Y-71801613D01*
X150138028Y-71967213D01*
X150282786Y-72111971D01*
X150428387Y-72217754D01*
X150448390Y-72232287D01*
X150533232Y-72275516D01*
X150630776Y-72325218D01*
X150630778Y-72325218D01*
X150630781Y-72325220D01*
X150735137Y-72359127D01*
X150825465Y-72388477D01*
X150871088Y-72395703D01*
X151027648Y-72420500D01*
X151027649Y-72420500D01*
X151232351Y-72420500D01*
X151232352Y-72420500D01*
X151434534Y-72388477D01*
X151629219Y-72325220D01*
X151811610Y-72232287D01*
X151959022Y-72125187D01*
X151977213Y-72111971D01*
X151977215Y-72111968D01*
X151977219Y-72111966D01*
X152121966Y-71967219D01*
X152142366Y-71939141D01*
X152155100Y-71921615D01*
X152159431Y-71918274D01*
X152161705Y-71913297D01*
X152186804Y-71897166D01*
X152210429Y-71878949D01*
X152217102Y-71877695D01*
X152220483Y-71875523D01*
X152255418Y-71870500D01*
X152500833Y-71870500D01*
X152567872Y-71890185D01*
X152613627Y-71942989D01*
X152623571Y-72012147D01*
X152594546Y-72075703D01*
X152539838Y-72112205D01*
X152520183Y-72118718D01*
X152500667Y-72125185D01*
X152500662Y-72125187D01*
X152351342Y-72217289D01*
X152227289Y-72341342D01*
X152135187Y-72490662D01*
X152135185Y-72490667D01*
X152130344Y-72505276D01*
X152080001Y-72657202D01*
X152080001Y-72657203D01*
X152080000Y-72657203D01*
X152069500Y-72759982D01*
X152069500Y-74560017D01*
X152080000Y-74662796D01*
X152093765Y-74704336D01*
X152135186Y-74829335D01*
X152227288Y-74978656D01*
X152351344Y-75102712D01*
X152500665Y-75194814D01*
X152667202Y-75249999D01*
X152769990Y-75260500D01*
X152769995Y-75260500D01*
X154570005Y-75260500D01*
X154570010Y-75260500D01*
X154672798Y-75249999D01*
X154839335Y-75194814D01*
X154988656Y-75102712D01*
X155112712Y-74978656D01*
X155204814Y-74829335D01*
X155259999Y-74662798D01*
X155270500Y-74560010D01*
X155270500Y-72759990D01*
X155259999Y-72657202D01*
X155204814Y-72490665D01*
X155112712Y-72341344D01*
X154988656Y-72217288D01*
X154839335Y-72125186D01*
X154800162Y-72112205D01*
X154742718Y-72072433D01*
X154715895Y-72007917D01*
X154728210Y-71939141D01*
X154775753Y-71887942D01*
X154839167Y-71870500D01*
X155847770Y-71870500D01*
X155877210Y-71879144D01*
X155907197Y-71885668D01*
X155912212Y-71889422D01*
X155914809Y-71890185D01*
X155935451Y-71906819D01*
X155943181Y-71914549D01*
X155976666Y-71975872D01*
X155979500Y-72002230D01*
X155979500Y-73390370D01*
X155979501Y-73390376D01*
X155985908Y-73449983D01*
X156036202Y-73584828D01*
X156036206Y-73584835D01*
X156122452Y-73700044D01*
X156122455Y-73700047D01*
X156237664Y-73786293D01*
X156237669Y-73786296D01*
X156265539Y-73796690D01*
X156321473Y-73838561D01*
X156345891Y-73904024D01*
X156331040Y-73972298D01*
X156322525Y-73985759D01*
X156189783Y-74168461D01*
X156085950Y-74372244D01*
X156015278Y-74589750D01*
X156015278Y-74589753D01*
X155979500Y-74815646D01*
X155979500Y-75044353D01*
X156015278Y-75270246D01*
X156015278Y-75270249D01*
X156085950Y-75487755D01*
X156085952Y-75487758D01*
X156189783Y-75691538D01*
X156324214Y-75876566D01*
X156485934Y-76038286D01*
X156570864Y-76099991D01*
X156613529Y-76155321D01*
X156619508Y-76224935D01*
X156586902Y-76286730D01*
X156570864Y-76300627D01*
X156486257Y-76362097D01*
X156324597Y-76523757D01*
X156190211Y-76708723D01*
X156086417Y-76912429D01*
X156015765Y-77129871D01*
X156001491Y-77220000D01*
X156989252Y-77220000D01*
X156967482Y-77257708D01*
X156930000Y-77397591D01*
X156930000Y-77542409D01*
X156967482Y-77682292D01*
X156989252Y-77720000D01*
X156001491Y-77720000D01*
X156015765Y-77810128D01*
X156086417Y-78027570D01*
X156190211Y-78231276D01*
X156324597Y-78416242D01*
X156486257Y-78577902D01*
X156671223Y-78712288D01*
X156874929Y-78816082D01*
X157092371Y-78886734D01*
X157230000Y-78908532D01*
X157230000Y-77960747D01*
X157267708Y-77982518D01*
X157407591Y-78020000D01*
X157552409Y-78020000D01*
X157692292Y-77982518D01*
X157730000Y-77960747D01*
X157730000Y-78908531D01*
X157867628Y-78886734D01*
X158085070Y-78816082D01*
X158288776Y-78712288D01*
X158473742Y-78577902D01*
X158635402Y-78416242D01*
X158769788Y-78231276D01*
X158873582Y-78027570D01*
X158944234Y-77810128D01*
X158958509Y-77720000D01*
X157970748Y-77720000D01*
X157992518Y-77682292D01*
X158030000Y-77542409D01*
X158030000Y-77397591D01*
X157992518Y-77257708D01*
X157970748Y-77220000D01*
X158958509Y-77220000D01*
X158944234Y-77129871D01*
X158873582Y-76912429D01*
X158769788Y-76708723D01*
X158635402Y-76523757D01*
X158473742Y-76362097D01*
X158389135Y-76300626D01*
X158346470Y-76245296D01*
X158340491Y-76175682D01*
X158373097Y-76113887D01*
X158389125Y-76099999D01*
X158474066Y-76038286D01*
X158635786Y-75876566D01*
X158770217Y-75691538D01*
X158874048Y-75487758D01*
X158944722Y-75270245D01*
X158980500Y-75044354D01*
X158980500Y-74815646D01*
X158944722Y-74589755D01*
X158944721Y-74589751D01*
X158944721Y-74589750D01*
X158874049Y-74372244D01*
X158770216Y-74168461D01*
X158721379Y-74101243D01*
X158637472Y-73985755D01*
X158613994Y-73919953D01*
X158629819Y-73851899D01*
X158679925Y-73803204D01*
X158694455Y-73796692D01*
X158722331Y-73786296D01*
X158837546Y-73700046D01*
X158923796Y-73584831D01*
X158974091Y-73449983D01*
X158980500Y-73390373D01*
X158980499Y-71389628D01*
X158974091Y-71330017D01*
X158923796Y-71195169D01*
X158923795Y-71195168D01*
X158923793Y-71195164D01*
X158837547Y-71079955D01*
X158837544Y-71079952D01*
X158722335Y-70993706D01*
X158722328Y-70993702D01*
X158587482Y-70943408D01*
X158587483Y-70943408D01*
X158527883Y-70937001D01*
X158527881Y-70937000D01*
X158527873Y-70937000D01*
X158527865Y-70937000D01*
X157139730Y-70937000D01*
X157072691Y-70917315D01*
X157052049Y-70900681D01*
X156688421Y-70537052D01*
X156688414Y-70537046D01*
X156614729Y-70487812D01*
X156614729Y-70487813D01*
X156565491Y-70454913D01*
X156428917Y-70398343D01*
X156428907Y-70398340D01*
X156283920Y-70369500D01*
X156283918Y-70369500D01*
X152255418Y-70369500D01*
X152188379Y-70349815D01*
X152155100Y-70318385D01*
X152121971Y-70272787D01*
X152121967Y-70272782D01*
X151977213Y-70128028D01*
X151811613Y-70007715D01*
X151811612Y-70007714D01*
X151811610Y-70007713D01*
X151754653Y-69978691D01*
X151629223Y-69914781D01*
X151434534Y-69851522D01*
X151259995Y-69823878D01*
X151232352Y-69819500D01*
X151027648Y-69819500D01*
X151003329Y-69823351D01*
X150825465Y-69851522D01*
X150630776Y-69914781D01*
X150448386Y-70007715D01*
X150282786Y-70128028D01*
X150138028Y-70272786D01*
X150017715Y-70438386D01*
X149924781Y-70620776D01*
X149861522Y-70815465D01*
X149829500Y-71017648D01*
X147009017Y-71017648D01*
X145258421Y-69267052D01*
X145258414Y-69267046D01*
X145184729Y-69217812D01*
X145184729Y-69217813D01*
X145135491Y-69184913D01*
X144998917Y-69128343D01*
X144998907Y-69128340D01*
X144853920Y-69099500D01*
X144853918Y-69099500D01*
X136252230Y-69099500D01*
X136185191Y-69079815D01*
X136164549Y-69063181D01*
X132136473Y-65035105D01*
X132102988Y-64973782D01*
X132101681Y-64928027D01*
X132110500Y-64872352D01*
X132110500Y-64667648D01*
X132089296Y-64533774D01*
X132078477Y-64465465D01*
X132034094Y-64328869D01*
X132015220Y-64270781D01*
X132015218Y-64270778D01*
X132015218Y-64270776D01*
X131922287Y-64088390D01*
X131905088Y-64064718D01*
X131905088Y-64064716D01*
X131854425Y-63994983D01*
X137159500Y-63994983D01*
X137159500Y-65545001D01*
X137159501Y-65545018D01*
X137170000Y-65647796D01*
X137170001Y-65647799D01*
X137215894Y-65786294D01*
X137225186Y-65814334D01*
X137317288Y-65963656D01*
X137441344Y-66087712D01*
X137590666Y-66179814D01*
X137757203Y-66234999D01*
X137859991Y-66245500D01*
X139160008Y-66245499D01*
X139262797Y-66234999D01*
X139429334Y-66179814D01*
X139578656Y-66087712D01*
X139702712Y-65963656D01*
X139794814Y-65814334D01*
X139794814Y-65814331D01*
X139798178Y-65808879D01*
X139850126Y-65762154D01*
X139919088Y-65750931D01*
X139983170Y-65778774D01*
X139991398Y-65786294D01*
X140130213Y-65925109D01*
X140302179Y-66050048D01*
X140302181Y-66050049D01*
X140302184Y-66050051D01*
X140491588Y-66146557D01*
X140693757Y-66212246D01*
X140903713Y-66245500D01*
X140903714Y-66245500D01*
X141116286Y-66245500D01*
X141116287Y-66245500D01*
X141326243Y-66212246D01*
X141528412Y-66146557D01*
X141717816Y-66050051D01*
X141821712Y-65974567D01*
X141889786Y-65925109D01*
X141889788Y-65925106D01*
X141889792Y-65925104D01*
X142040104Y-65774792D01*
X142159991Y-65609779D01*
X142215320Y-65567115D01*
X142284933Y-65561136D01*
X142346729Y-65593741D01*
X142360627Y-65609781D01*
X142480272Y-65774459D01*
X142480276Y-65774464D01*
X142630535Y-65924723D01*
X142630540Y-65924727D01*
X142802442Y-66049620D01*
X142991782Y-66146095D01*
X143193871Y-66211757D01*
X143260000Y-66222231D01*
X143260000Y-65174145D01*
X143326657Y-65212630D01*
X143447465Y-65245000D01*
X143572535Y-65245000D01*
X143693343Y-65212630D01*
X143760000Y-65174145D01*
X143760000Y-66222230D01*
X143826126Y-66211757D01*
X143826129Y-66211757D01*
X144028217Y-66146095D01*
X144217557Y-66049620D01*
X144389459Y-65924727D01*
X144389464Y-65924723D01*
X144539723Y-65774464D01*
X144539727Y-65774459D01*
X144664620Y-65602557D01*
X144761095Y-65413217D01*
X144826757Y-65211130D01*
X144826757Y-65211127D01*
X144857030Y-65020000D01*
X143914146Y-65020000D01*
X143952630Y-64953343D01*
X143985000Y-64832535D01*
X143985000Y-64707465D01*
X143952630Y-64586657D01*
X143914146Y-64520000D01*
X144857030Y-64520000D01*
X144826757Y-64328872D01*
X144826757Y-64328869D01*
X144761095Y-64126782D01*
X144664620Y-63937442D01*
X144539727Y-63765540D01*
X144539723Y-63765535D01*
X144389464Y-63615276D01*
X144389459Y-63615272D01*
X144217557Y-63490379D01*
X144028215Y-63393903D01*
X143826124Y-63328241D01*
X143760000Y-63317768D01*
X143760000Y-64365854D01*
X143693343Y-64327370D01*
X143572535Y-64295000D01*
X143447465Y-64295000D01*
X143326657Y-64327370D01*
X143260000Y-64365854D01*
X143260000Y-63317768D01*
X143259999Y-63317768D01*
X143193875Y-63328241D01*
X142991784Y-63393903D01*
X142802442Y-63490379D01*
X142630540Y-63615272D01*
X142630535Y-63615276D01*
X142480276Y-63765535D01*
X142480272Y-63765540D01*
X142360627Y-63930218D01*
X142305297Y-63972884D01*
X142235684Y-63978863D01*
X142173889Y-63946257D01*
X142159991Y-63930218D01*
X142040109Y-63765214D01*
X142040105Y-63765209D01*
X141889786Y-63614890D01*
X141717820Y-63489951D01*
X141528414Y-63393444D01*
X141528413Y-63393443D01*
X141528412Y-63393443D01*
X141326243Y-63327754D01*
X141326241Y-63327753D01*
X141326240Y-63327753D01*
X141164957Y-63302208D01*
X141116287Y-63294500D01*
X140903713Y-63294500D01*
X140855042Y-63302208D01*
X140693760Y-63327753D01*
X140491585Y-63393444D01*
X140302179Y-63489951D01*
X140130215Y-63614889D01*
X139991398Y-63753706D01*
X139930075Y-63787190D01*
X139860383Y-63782206D01*
X139804450Y-63740334D01*
X139798178Y-63731120D01*
X139772930Y-63690187D01*
X139702712Y-63576344D01*
X139578656Y-63452288D01*
X139429334Y-63360186D01*
X139262797Y-63305001D01*
X139262795Y-63305000D01*
X139160010Y-63294500D01*
X137859998Y-63294500D01*
X137859981Y-63294501D01*
X137757203Y-63305000D01*
X137757200Y-63305001D01*
X137590668Y-63360185D01*
X137590663Y-63360187D01*
X137441342Y-63452289D01*
X137317289Y-63576342D01*
X137225187Y-63725663D01*
X137225185Y-63725668D01*
X137215039Y-63756287D01*
X137170001Y-63892203D01*
X137170001Y-63892204D01*
X137170000Y-63892204D01*
X137159500Y-63994983D01*
X131854425Y-63994983D01*
X131801971Y-63922786D01*
X131657213Y-63778028D01*
X131491613Y-63657715D01*
X131491612Y-63657714D01*
X131491610Y-63657713D01*
X131407577Y-63614896D01*
X131309223Y-63564781D01*
X131114534Y-63501522D01*
X130939995Y-63473878D01*
X130912352Y-63469500D01*
X130707648Y-63469500D01*
X130651652Y-63478369D01*
X130505464Y-63501523D01*
X130505457Y-63501524D01*
X130471817Y-63512455D01*
X130401976Y-63514450D01*
X130342144Y-63478369D01*
X130311316Y-63415668D01*
X130309500Y-63394524D01*
X130309500Y-63128839D01*
X130329185Y-63061800D01*
X130381989Y-63016045D01*
X130451147Y-63006101D01*
X130480944Y-63014275D01*
X130561918Y-63047816D01*
X130726228Y-63080499D01*
X130726232Y-63080500D01*
X130726233Y-63080500D01*
X130893768Y-63080500D01*
X130893769Y-63080499D01*
X131058082Y-63047816D01*
X131197808Y-62989938D01*
X131245261Y-62980500D01*
X132914739Y-62980500D01*
X132962191Y-62989938D01*
X133101918Y-63047816D01*
X133266228Y-63080499D01*
X133266232Y-63080500D01*
X133266233Y-63080500D01*
X133433768Y-63080500D01*
X133433769Y-63080499D01*
X133598082Y-63047816D01*
X133752863Y-62983703D01*
X133892162Y-62890626D01*
X133897316Y-62885471D01*
X133958636Y-62851985D01*
X134028327Y-62856966D01*
X134072683Y-62885471D01*
X134077838Y-62890626D01*
X134217137Y-62983703D01*
X134371918Y-63047816D01*
X134536228Y-63080499D01*
X134536232Y-63080500D01*
X134536233Y-63080500D01*
X134703768Y-63080500D01*
X134703769Y-63080499D01*
X134868082Y-63047816D01*
X135022863Y-62983703D01*
X135162162Y-62890626D01*
X135280626Y-62772162D01*
X135373703Y-62632863D01*
X135437816Y-62478082D01*
X135470500Y-62313767D01*
X135470500Y-62146233D01*
X135437816Y-61981918D01*
X135373703Y-61827137D01*
X135342537Y-61780494D01*
X135280626Y-61687837D01*
X135162162Y-61569373D01*
X135022860Y-61476295D01*
X134883135Y-61418419D01*
X134842907Y-61391539D01*
X131686087Y-58234719D01*
X131652602Y-58173396D01*
X131657586Y-58103704D01*
X131686083Y-58059361D01*
X131772981Y-57972464D01*
X131889787Y-57811694D01*
X131894199Y-57803034D01*
X131942169Y-57752239D01*
X132009989Y-57735439D01*
X132076125Y-57757974D01*
X132119579Y-57812686D01*
X132122615Y-57821006D01*
X132144779Y-57889219D01*
X132207939Y-58013176D01*
X132231469Y-58059356D01*
X132237715Y-58071613D01*
X132358028Y-58237213D01*
X132502786Y-58381971D01*
X132657109Y-58494091D01*
X132668390Y-58502287D01*
X132784607Y-58561503D01*
X132850776Y-58595218D01*
X132850778Y-58595218D01*
X132850781Y-58595220D01*
X132955137Y-58629127D01*
X133045465Y-58658477D01*
X133146557Y-58674488D01*
X133247648Y-58690500D01*
X133247649Y-58690500D01*
X133452351Y-58690500D01*
X133452352Y-58690500D01*
X133654534Y-58658477D01*
X133849219Y-58595220D01*
X134031610Y-58502287D01*
X134124590Y-58434732D01*
X134197213Y-58381971D01*
X134197215Y-58381968D01*
X134197219Y-58381966D01*
X134341966Y-58237219D01*
X134347366Y-58229786D01*
X134375100Y-58191615D01*
X134430429Y-58148949D01*
X134475418Y-58140500D01*
X139577770Y-58140500D01*
X139644809Y-58160185D01*
X139665451Y-58176819D01*
X146892049Y-65403416D01*
X146961429Y-65472796D01*
X146996585Y-65507952D01*
X147119498Y-65590080D01*
X147119511Y-65590087D01*
X147210552Y-65627797D01*
X147256087Y-65646658D01*
X147256091Y-65646658D01*
X147256092Y-65646659D01*
X147401079Y-65675500D01*
X147401082Y-65675500D01*
X154826267Y-65675500D01*
X154893306Y-65695185D01*
X154939061Y-65747989D01*
X154943972Y-65760494D01*
X154948710Y-65774792D01*
X154955186Y-65794334D01*
X155047288Y-65943656D01*
X155171344Y-66067712D01*
X155320666Y-66159814D01*
X155487203Y-66214999D01*
X155589991Y-66225500D01*
X156790008Y-66225499D01*
X156892797Y-66214999D01*
X157059334Y-66159814D01*
X157208656Y-66067712D01*
X157332712Y-65943656D01*
X157424814Y-65794334D01*
X157479999Y-65627797D01*
X157490500Y-65525009D01*
X157490499Y-64822682D01*
X158390000Y-64822682D01*
X158390000Y-65027317D01*
X158422009Y-65229417D01*
X158485244Y-65424031D01*
X158578141Y-65606350D01*
X158578147Y-65606359D01*
X158610523Y-65650921D01*
X158610524Y-65650922D01*
X159290000Y-64971446D01*
X159290000Y-64977661D01*
X159317259Y-65079394D01*
X159369920Y-65170606D01*
X159444394Y-65245080D01*
X159535606Y-65297741D01*
X159637339Y-65325000D01*
X159643553Y-65325000D01*
X158964076Y-66004474D01*
X159008650Y-66036859D01*
X159190968Y-66129755D01*
X159385582Y-66192990D01*
X159587683Y-66225000D01*
X159792317Y-66225000D01*
X159994417Y-66192990D01*
X160189031Y-66129755D01*
X160371349Y-66036859D01*
X160415921Y-66004474D01*
X159736447Y-65325000D01*
X159742661Y-65325000D01*
X159844394Y-65297741D01*
X159935606Y-65245080D01*
X160010080Y-65170606D01*
X160062741Y-65079394D01*
X160090000Y-64977661D01*
X160090000Y-64971447D01*
X160769474Y-65650921D01*
X160801859Y-65606349D01*
X160894755Y-65424031D01*
X160957990Y-65229417D01*
X160990000Y-65027317D01*
X160990000Y-64822682D01*
X160957990Y-64620582D01*
X160894755Y-64425968D01*
X160801859Y-64243650D01*
X160769474Y-64199077D01*
X160769474Y-64199076D01*
X160090000Y-64878551D01*
X160090000Y-64872339D01*
X160062741Y-64770606D01*
X160010080Y-64679394D01*
X159935606Y-64604920D01*
X159844394Y-64552259D01*
X159742661Y-64525000D01*
X159736446Y-64525000D01*
X160415922Y-63845524D01*
X160415921Y-63845523D01*
X160371359Y-63813147D01*
X160371350Y-63813141D01*
X160189031Y-63720244D01*
X159994417Y-63657009D01*
X159792317Y-63625000D01*
X159587683Y-63625000D01*
X159385582Y-63657009D01*
X159190968Y-63720244D01*
X159008644Y-63813143D01*
X158964077Y-63845523D01*
X158964077Y-63845524D01*
X159643554Y-64525000D01*
X159637339Y-64525000D01*
X159535606Y-64552259D01*
X159444394Y-64604920D01*
X159369920Y-64679394D01*
X159317259Y-64770606D01*
X159290000Y-64872339D01*
X159290000Y-64878553D01*
X158610524Y-64199077D01*
X158610523Y-64199077D01*
X158578143Y-64243644D01*
X158485244Y-64425968D01*
X158422009Y-64620582D01*
X158390000Y-64822682D01*
X157490499Y-64822682D01*
X157490499Y-64324992D01*
X157479999Y-64222203D01*
X157424814Y-64055666D01*
X157403867Y-64021706D01*
X157364500Y-63957881D01*
X157364499Y-63957880D01*
X157357330Y-63946257D01*
X157332712Y-63906344D01*
X157208656Y-63782288D01*
X157059334Y-63690186D01*
X156892797Y-63635001D01*
X156892795Y-63635000D01*
X156790010Y-63624500D01*
X155589998Y-63624500D01*
X155589981Y-63624501D01*
X155487203Y-63635000D01*
X155487200Y-63635001D01*
X155320668Y-63690185D01*
X155320663Y-63690187D01*
X155171342Y-63782289D01*
X155047289Y-63906342D01*
X154955187Y-64055663D01*
X154955184Y-64055671D01*
X154943972Y-64089506D01*
X154904199Y-64146950D01*
X154839683Y-64173772D01*
X154826267Y-64174500D01*
X147837229Y-64174500D01*
X147770190Y-64154815D01*
X147749548Y-64138181D01*
X144551825Y-60940457D01*
X144469016Y-60857648D01*
X149829500Y-60857648D01*
X149829500Y-61062351D01*
X149861522Y-61264534D01*
X149924781Y-61459223D01*
X150017715Y-61641613D01*
X150138028Y-61807213D01*
X150282786Y-61951971D01*
X150393977Y-62032754D01*
X150448390Y-62072287D01*
X150564607Y-62131503D01*
X150630776Y-62165218D01*
X150630778Y-62165218D01*
X150630781Y-62165220D01*
X150722284Y-62194951D01*
X150825465Y-62228477D01*
X150926557Y-62244488D01*
X151027648Y-62260500D01*
X151027649Y-62260500D01*
X151232351Y-62260500D01*
X151232352Y-62260500D01*
X151434534Y-62228477D01*
X151629219Y-62165220D01*
X151811610Y-62072287D01*
X151935984Y-61981925D01*
X151977213Y-61951971D01*
X151977215Y-61951968D01*
X151977219Y-61951966D01*
X152121966Y-61807219D01*
X152121968Y-61807215D01*
X152121971Y-61807213D01*
X152174732Y-61734590D01*
X152242287Y-61641610D01*
X152335220Y-61459219D01*
X152398477Y-61264534D01*
X152430500Y-61062352D01*
X152430500Y-60857648D01*
X152398477Y-60655466D01*
X152335220Y-60460781D01*
X152335218Y-60460778D01*
X152335218Y-60460776D01*
X152279093Y-60350626D01*
X152242287Y-60278390D01*
X152208701Y-60232162D01*
X152121971Y-60112786D01*
X151977213Y-59968028D01*
X151811613Y-59847715D01*
X151811612Y-59847714D01*
X151811610Y-59847713D01*
X151754653Y-59818691D01*
X151629223Y-59754781D01*
X151434534Y-59691522D01*
X151259995Y-59663878D01*
X151232352Y-59659500D01*
X151027648Y-59659500D01*
X151003329Y-59663351D01*
X150825465Y-59691522D01*
X150630776Y-59754781D01*
X150448386Y-59847715D01*
X150282786Y-59968028D01*
X150138028Y-60112786D01*
X150017715Y-60278386D01*
X149924781Y-60460776D01*
X149861522Y-60655465D01*
X149829500Y-60857648D01*
X144469016Y-60857648D01*
X140418421Y-56807052D01*
X140418414Y-56807046D01*
X140344729Y-56757812D01*
X140344729Y-56757813D01*
X140295491Y-56724913D01*
X140158917Y-56668343D01*
X140158907Y-56668340D01*
X140013920Y-56639500D01*
X140013918Y-56639500D01*
X134475418Y-56639500D01*
X134408379Y-56619815D01*
X134375100Y-56588385D01*
X134341971Y-56542787D01*
X134341967Y-56542782D01*
X134197213Y-56398028D01*
X134031613Y-56277715D01*
X134031612Y-56277714D01*
X134031610Y-56277713D01*
X133974653Y-56248691D01*
X133849223Y-56184781D01*
X133654534Y-56121522D01*
X133479995Y-56093878D01*
X133452352Y-56089500D01*
X133247648Y-56089500D01*
X133223329Y-56093351D01*
X133045465Y-56121522D01*
X132850776Y-56184781D01*
X132668386Y-56277715D01*
X132502786Y-56398028D01*
X132358028Y-56542786D01*
X132237713Y-56708388D01*
X132224793Y-56733744D01*
X132176817Y-56784539D01*
X132108996Y-56801332D01*
X132042861Y-56778792D01*
X131999412Y-56724076D01*
X131996385Y-56715783D01*
X131980005Y-56665368D01*
X131889787Y-56488306D01*
X131772981Y-56327536D01*
X131632464Y-56187019D01*
X131471694Y-56070213D01*
X131315218Y-55990484D01*
X131264423Y-55942510D01*
X131247628Y-55874689D01*
X131270165Y-55808554D01*
X131315218Y-55769515D01*
X131471694Y-55689787D01*
X131632464Y-55572981D01*
X131772981Y-55432464D01*
X131889787Y-55271694D01*
X131980005Y-55094632D01*
X132041413Y-54905636D01*
X132072500Y-54709361D01*
X132072500Y-54510639D01*
X132068468Y-54485184D01*
X132069169Y-54479758D01*
X132067257Y-54474632D01*
X132073598Y-54445480D01*
X132077422Y-54415892D01*
X132081254Y-54410287D01*
X132082109Y-54406359D01*
X132103256Y-54378109D01*
X132681951Y-53799416D01*
X132764084Y-53676495D01*
X132820658Y-53539913D01*
X132820660Y-53539897D01*
X132822145Y-53535007D01*
X132853126Y-53483317D01*
X132950000Y-53386443D01*
X132950000Y-53392661D01*
X132977259Y-53494394D01*
X133029920Y-53585606D01*
X133104394Y-53660080D01*
X133195606Y-53712741D01*
X133297339Y-53740000D01*
X133303553Y-53740000D01*
X132624076Y-54419474D01*
X132668650Y-54451859D01*
X132850968Y-54544755D01*
X133045582Y-54607990D01*
X133247683Y-54640000D01*
X133452317Y-54640000D01*
X133654417Y-54607990D01*
X133849031Y-54544755D01*
X134031349Y-54451859D01*
X134075921Y-54419474D01*
X133396447Y-53740000D01*
X133402661Y-53740000D01*
X133504394Y-53712741D01*
X133595606Y-53660080D01*
X133670080Y-53585606D01*
X133722741Y-53494394D01*
X133750000Y-53392661D01*
X133750000Y-53386448D01*
X134429474Y-54065922D01*
X134429474Y-54065921D01*
X134461859Y-54021349D01*
X134554755Y-53839031D01*
X134617990Y-53644417D01*
X134650000Y-53442317D01*
X134650000Y-53237682D01*
X134617990Y-53035582D01*
X134554755Y-52840968D01*
X134461859Y-52658650D01*
X134429474Y-52614077D01*
X134429474Y-52614076D01*
X133750000Y-53293551D01*
X133750000Y-53287339D01*
X133722741Y-53185606D01*
X133670080Y-53094394D01*
X133595606Y-53019920D01*
X133504394Y-52967259D01*
X133402661Y-52940000D01*
X133396446Y-52940000D01*
X134075922Y-52260524D01*
X134075921Y-52260523D01*
X134031359Y-52228147D01*
X134031350Y-52228141D01*
X133849031Y-52135244D01*
X133654417Y-52072009D01*
X133452317Y-52040000D01*
X133247683Y-52040000D01*
X133045581Y-52072010D01*
X133045574Y-52072011D01*
X133011817Y-52082980D01*
X132941976Y-52084975D01*
X132882144Y-52048894D01*
X132851316Y-51986193D01*
X132849500Y-51965049D01*
X132849500Y-50664950D01*
X132869185Y-50597911D01*
X132921989Y-50552156D01*
X132991147Y-50542212D01*
X133011820Y-50547020D01*
X133045575Y-50557988D01*
X133045581Y-50557989D01*
X133247683Y-50590000D01*
X133452317Y-50590000D01*
X133654417Y-50557990D01*
X133849031Y-50494755D01*
X134031349Y-50401859D01*
X134075921Y-50369474D01*
X133396447Y-49690000D01*
X133402661Y-49690000D01*
X133504394Y-49662741D01*
X133595606Y-49610080D01*
X133670080Y-49535606D01*
X133722741Y-49444394D01*
X133750000Y-49342661D01*
X133750000Y-49336448D01*
X134429474Y-50015922D01*
X134429474Y-50015921D01*
X134461859Y-49971349D01*
X134554755Y-49789031D01*
X134617990Y-49594417D01*
X134650000Y-49392317D01*
X134650000Y-49187682D01*
X134617990Y-48985582D01*
X134554755Y-48790968D01*
X134461859Y-48608650D01*
X134429474Y-48564077D01*
X134429474Y-48564076D01*
X133750000Y-49243551D01*
X133750000Y-49237339D01*
X133722741Y-49135606D01*
X133670080Y-49044394D01*
X133595606Y-48969920D01*
X133504394Y-48917259D01*
X133402661Y-48890000D01*
X133396446Y-48890000D01*
X134075922Y-48210524D01*
X134075921Y-48210523D01*
X134031359Y-48178147D01*
X134031350Y-48178141D01*
X133849031Y-48085244D01*
X133654417Y-48022009D01*
X133452317Y-47990000D01*
X133247683Y-47990000D01*
X133045581Y-48022010D01*
X133045574Y-48022011D01*
X133011817Y-48032980D01*
X132941976Y-48034975D01*
X132882144Y-47998894D01*
X132851316Y-47936193D01*
X132849500Y-47915049D01*
X132849500Y-47093228D01*
X132869185Y-47026189D01*
X132885815Y-47005551D01*
X133084894Y-46806471D01*
X133146215Y-46772988D01*
X133191970Y-46771681D01*
X133247648Y-46780500D01*
X133247649Y-46780500D01*
X133452351Y-46780500D01*
X133452352Y-46780500D01*
X133654534Y-46748477D01*
X133849219Y-46685220D01*
X134031610Y-46592287D01*
X134151246Y-46505367D01*
X134197213Y-46471971D01*
X134197215Y-46471968D01*
X134197219Y-46471966D01*
X134341966Y-46327219D01*
X134341968Y-46327215D01*
X134341971Y-46327213D01*
X134394732Y-46254590D01*
X134462287Y-46161610D01*
X134555220Y-45979219D01*
X134618477Y-45784534D01*
X134619612Y-45779806D01*
X134621536Y-45780267D01*
X134647846Y-45724687D01*
X134707136Y-45687721D01*
X134776999Y-45688679D01*
X134828118Y-45719485D01*
X142183526Y-53074893D01*
X142217011Y-53136216D01*
X142218318Y-53181971D01*
X142209500Y-53237647D01*
X142209500Y-53442351D01*
X142241522Y-53644534D01*
X142304781Y-53839223D01*
X142397715Y-54021613D01*
X142518028Y-54187213D01*
X142518034Y-54187219D01*
X142662781Y-54331966D01*
X142708384Y-54365098D01*
X142751050Y-54420425D01*
X142759500Y-54465416D01*
X142759500Y-56264582D01*
X142739815Y-56331621D01*
X142708385Y-56364900D01*
X142662787Y-56398028D01*
X142662782Y-56398032D01*
X142518028Y-56542786D01*
X142397715Y-56708386D01*
X142304781Y-56890776D01*
X142241522Y-57085465D01*
X142209500Y-57287648D01*
X142209500Y-57492351D01*
X142241522Y-57694534D01*
X142304781Y-57889223D01*
X142368691Y-58014653D01*
X142391469Y-58059356D01*
X142397715Y-58071613D01*
X142518028Y-58237213D01*
X142662786Y-58381971D01*
X142817109Y-58494091D01*
X142828390Y-58502287D01*
X142944607Y-58561503D01*
X143010776Y-58595218D01*
X143010778Y-58595218D01*
X143010781Y-58595220D01*
X143115137Y-58629127D01*
X143205465Y-58658477D01*
X143306557Y-58674488D01*
X143407648Y-58690500D01*
X143407649Y-58690500D01*
X143612351Y-58690500D01*
X143612352Y-58690500D01*
X143814534Y-58658477D01*
X144009219Y-58595220D01*
X144191610Y-58502287D01*
X144284590Y-58434732D01*
X144357213Y-58381971D01*
X144357215Y-58381968D01*
X144357219Y-58381966D01*
X144501966Y-58237219D01*
X144501968Y-58237215D01*
X144501971Y-58237213D01*
X144592229Y-58112981D01*
X144622287Y-58071610D01*
X144715220Y-57889219D01*
X144737384Y-57821006D01*
X144776821Y-57763332D01*
X144841179Y-57736134D01*
X144910026Y-57748049D01*
X144961501Y-57795293D01*
X144965798Y-57803030D01*
X144970211Y-57811692D01*
X145003725Y-57857820D01*
X145087019Y-57972464D01*
X145227536Y-58112981D01*
X145388306Y-58229787D01*
X145412933Y-58242335D01*
X145565367Y-58320005D01*
X145565370Y-58320006D01*
X145659866Y-58350709D01*
X145754364Y-58381413D01*
X145950639Y-58412500D01*
X145950640Y-58412500D01*
X146149360Y-58412500D01*
X146149361Y-58412500D01*
X146345636Y-58381413D01*
X146534632Y-58320005D01*
X146711694Y-58229787D01*
X146872464Y-58112981D01*
X147012981Y-57972464D01*
X147129787Y-57811694D01*
X147220005Y-57634632D01*
X147281413Y-57445636D01*
X147312500Y-57249361D01*
X147312500Y-57050639D01*
X147281413Y-56854364D01*
X147244735Y-56741479D01*
X147220006Y-56665370D01*
X147220005Y-56665367D01*
X147160313Y-56548217D01*
X147129787Y-56488306D01*
X147012981Y-56327536D01*
X146872464Y-56187019D01*
X146711694Y-56070213D01*
X146555218Y-55990484D01*
X146504423Y-55942510D01*
X146487628Y-55874689D01*
X146510165Y-55808554D01*
X146555218Y-55769515D01*
X146711694Y-55689787D01*
X146872464Y-55572981D01*
X147012981Y-55432464D01*
X147129787Y-55271694D01*
X147220005Y-55094632D01*
X147281413Y-54905636D01*
X147312500Y-54709361D01*
X147312500Y-54510639D01*
X147281413Y-54314364D01*
X147250709Y-54219866D01*
X147220006Y-54125370D01*
X147220005Y-54125367D01*
X147129786Y-53948305D01*
X147096277Y-53902184D01*
X147012981Y-53787536D01*
X146872464Y-53647019D01*
X146711694Y-53530213D01*
X146555218Y-53450484D01*
X146504423Y-53402510D01*
X146487628Y-53334689D01*
X146510165Y-53268554D01*
X146555218Y-53229515D01*
X146711694Y-53149787D01*
X146872464Y-53032981D01*
X147012981Y-52892464D01*
X147129787Y-52731694D01*
X147220005Y-52554632D01*
X147281413Y-52365636D01*
X147312500Y-52169361D01*
X147312500Y-52153230D01*
X147332185Y-52086191D01*
X147384989Y-52040436D01*
X147454147Y-52030492D01*
X147517703Y-52059517D01*
X147524181Y-52065549D01*
X147803181Y-52344549D01*
X147836666Y-52405872D01*
X147839500Y-52432230D01*
X147839500Y-59254739D01*
X147830061Y-59302192D01*
X147772184Y-59441917D01*
X147772182Y-59441925D01*
X147739500Y-59606228D01*
X147739500Y-59773771D01*
X147772182Y-59938074D01*
X147772184Y-59938082D01*
X147836295Y-60092860D01*
X147929373Y-60232162D01*
X148047837Y-60350626D01*
X148140494Y-60412537D01*
X148187137Y-60443703D01*
X148341918Y-60507816D01*
X148506228Y-60540499D01*
X148506232Y-60540500D01*
X148506233Y-60540500D01*
X148673768Y-60540500D01*
X148673769Y-60540499D01*
X148838082Y-60507816D01*
X148992863Y-60443703D01*
X149132162Y-60350626D01*
X149250626Y-60232162D01*
X149343703Y-60092863D01*
X149407816Y-59938082D01*
X149440500Y-59773767D01*
X149440500Y-59606233D01*
X149407816Y-59441918D01*
X149349938Y-59302191D01*
X149340500Y-59254739D01*
X149340500Y-51996079D01*
X149311659Y-51851092D01*
X149311658Y-51851091D01*
X149311658Y-51851087D01*
X149255084Y-51714505D01*
X149183586Y-51607500D01*
X149172952Y-51591584D01*
X148571581Y-50990213D01*
X147855421Y-50274052D01*
X147855414Y-50274046D01*
X147781729Y-50224812D01*
X147781729Y-50224813D01*
X147732491Y-50191913D01*
X147595917Y-50135343D01*
X147595907Y-50135340D01*
X147450920Y-50106500D01*
X147450918Y-50106500D01*
X147360827Y-50106500D01*
X147293788Y-50086815D01*
X147248033Y-50034011D01*
X147238089Y-49964853D01*
X147242896Y-49944182D01*
X147274717Y-49846243D01*
X147281413Y-49825636D01*
X147312500Y-49629361D01*
X147312500Y-49430639D01*
X147281413Y-49234364D01*
X147243356Y-49117236D01*
X147220006Y-49045370D01*
X147220005Y-49045367D01*
X147160413Y-48928412D01*
X147129787Y-48868306D01*
X147012981Y-48707536D01*
X146872464Y-48567019D01*
X146711694Y-48450213D01*
X146555218Y-48370484D01*
X146504423Y-48322510D01*
X146487628Y-48254689D01*
X146510165Y-48188554D01*
X146555218Y-48149515D01*
X146711694Y-48069787D01*
X146872464Y-47952981D01*
X147012981Y-47812464D01*
X147129787Y-47651694D01*
X147220005Y-47474632D01*
X147281413Y-47285636D01*
X147312500Y-47089361D01*
X147312500Y-46890639D01*
X147281413Y-46694364D01*
X147248246Y-46592287D01*
X147220006Y-46505370D01*
X147220005Y-46505367D01*
X147129786Y-46328305D01*
X147096277Y-46282184D01*
X147012981Y-46167536D01*
X146872464Y-46027019D01*
X146711694Y-45910213D01*
X146554667Y-45830203D01*
X146503872Y-45782229D01*
X146487077Y-45714408D01*
X146509614Y-45648273D01*
X146554669Y-45609234D01*
X146711422Y-45529364D01*
X146748716Y-45502268D01*
X146134095Y-44887647D01*
X146221571Y-44864208D01*
X146322930Y-44805689D01*
X146405689Y-44722930D01*
X146464208Y-44621571D01*
X146487647Y-44534094D01*
X147102268Y-45148715D01*
X147129362Y-45111425D01*
X147219542Y-44934437D01*
X147280924Y-44745523D01*
X147280924Y-44745520D01*
X147312000Y-44549321D01*
X147312000Y-44350681D01*
X147311999Y-44350676D01*
X147280924Y-44154479D01*
X147280924Y-44154476D01*
X147219542Y-43965562D01*
X147129358Y-43788567D01*
X147102268Y-43751283D01*
X146487647Y-44365904D01*
X146464208Y-44278429D01*
X146405689Y-44177070D01*
X146322930Y-44094311D01*
X146221571Y-44035792D01*
X146134094Y-44012352D01*
X146748716Y-43397731D01*
X146748715Y-43397730D01*
X146711432Y-43370641D01*
X146554668Y-43290765D01*
X146503872Y-43242790D01*
X146487077Y-43174969D01*
X146509615Y-43108834D01*
X146554667Y-43069796D01*
X146711694Y-42989787D01*
X146872464Y-42872981D01*
X147012981Y-42732464D01*
X147129787Y-42571694D01*
X147220005Y-42394632D01*
X147281413Y-42205636D01*
X147312500Y-42009361D01*
X147312500Y-41810639D01*
X147311403Y-41803713D01*
X149779500Y-41803713D01*
X149779500Y-42016286D01*
X149800488Y-42148803D01*
X149812754Y-42226243D01*
X149876350Y-42421971D01*
X149878444Y-42428414D01*
X149974951Y-42617820D01*
X150099890Y-42789786D01*
X150250213Y-42940109D01*
X150422179Y-43065048D01*
X150422181Y-43065049D01*
X150422184Y-43065051D01*
X150431493Y-43069794D01*
X150482290Y-43117766D01*
X150499087Y-43185587D01*
X150476552Y-43251722D01*
X150431505Y-43290760D01*
X150422446Y-43295376D01*
X150422440Y-43295380D01*
X150368282Y-43334727D01*
X150368282Y-43334728D01*
X151000591Y-43967037D01*
X150937007Y-43984075D01*
X150822993Y-44049901D01*
X150729901Y-44142993D01*
X150664075Y-44257007D01*
X150647037Y-44320591D01*
X150014728Y-43688282D01*
X150014727Y-43688282D01*
X149975380Y-43742439D01*
X149878904Y-43931782D01*
X149813242Y-44133869D01*
X149813242Y-44133872D01*
X149780000Y-44343753D01*
X149780000Y-44556246D01*
X149813242Y-44766127D01*
X149813242Y-44766130D01*
X149878904Y-44968217D01*
X149975375Y-45157550D01*
X150014728Y-45211716D01*
X150647037Y-44579408D01*
X150664075Y-44642993D01*
X150729901Y-44757007D01*
X150822993Y-44850099D01*
X150937007Y-44915925D01*
X151000590Y-44932962D01*
X150368282Y-45565269D01*
X150368282Y-45565270D01*
X150422452Y-45604626D01*
X150422451Y-45604626D01*
X150431495Y-45609234D01*
X150482292Y-45657208D01*
X150499087Y-45725029D01*
X150476550Y-45791164D01*
X150431499Y-45830202D01*
X150422182Y-45834949D01*
X150250213Y-45959890D01*
X150099890Y-46110213D01*
X149974951Y-46282179D01*
X149878444Y-46471585D01*
X149878443Y-46471587D01*
X149878443Y-46471588D01*
X149867467Y-46505368D01*
X149812753Y-46673760D01*
X149791734Y-46806473D01*
X149779500Y-46883713D01*
X149779500Y-47096287D01*
X149812754Y-47306243D01*
X149867467Y-47474632D01*
X149878444Y-47508414D01*
X149974951Y-47697820D01*
X150099890Y-47869786D01*
X150250213Y-48020109D01*
X150422182Y-48145050D01*
X150430946Y-48149516D01*
X150481742Y-48197491D01*
X150498536Y-48265312D01*
X150475998Y-48331447D01*
X150430946Y-48370484D01*
X150422182Y-48374949D01*
X150250213Y-48499890D01*
X150099890Y-48650213D01*
X149974951Y-48822179D01*
X149878444Y-49011585D01*
X149878443Y-49011587D01*
X149878443Y-49011588D01*
X149867467Y-49045368D01*
X149812753Y-49213760D01*
X149779500Y-49423713D01*
X149779500Y-49636286D01*
X149799173Y-49760500D01*
X149812754Y-49846243D01*
X149867886Y-50015922D01*
X149878444Y-50048414D01*
X149974951Y-50237820D01*
X150099890Y-50409786D01*
X150250213Y-50560109D01*
X150422182Y-50685050D01*
X150430946Y-50689516D01*
X150481742Y-50737491D01*
X150498536Y-50805312D01*
X150475998Y-50871447D01*
X150430946Y-50910484D01*
X150422182Y-50914949D01*
X150250213Y-51039890D01*
X150099890Y-51190213D01*
X149974951Y-51362179D01*
X149878444Y-51551585D01*
X149878443Y-51551587D01*
X149878443Y-51551588D01*
X149867467Y-51585368D01*
X149812753Y-51753760D01*
X149779500Y-51963713D01*
X149779500Y-52176286D01*
X149811902Y-52380868D01*
X149812754Y-52386243D01*
X149867467Y-52554632D01*
X149878444Y-52588414D01*
X149974951Y-52777820D01*
X150099890Y-52949786D01*
X150250213Y-53100109D01*
X150422182Y-53225050D01*
X150430946Y-53229516D01*
X150481742Y-53277491D01*
X150498536Y-53345312D01*
X150475998Y-53411447D01*
X150430946Y-53450484D01*
X150422182Y-53454949D01*
X150250213Y-53579890D01*
X150099890Y-53730213D01*
X149974951Y-53902179D01*
X149878444Y-54091585D01*
X149878443Y-54091587D01*
X149878443Y-54091588D01*
X149867467Y-54125368D01*
X149812753Y-54293760D01*
X149779500Y-54503713D01*
X149779500Y-54716286D01*
X149812753Y-54926239D01*
X149812753Y-54926241D01*
X149812754Y-54926243D01*
X149867467Y-55094632D01*
X149878444Y-55128414D01*
X149974951Y-55317820D01*
X150099890Y-55489786D01*
X150213430Y-55603326D01*
X150246915Y-55664649D01*
X150241931Y-55734341D01*
X150200059Y-55790274D01*
X150169083Y-55807189D01*
X150037669Y-55856203D01*
X150037664Y-55856206D01*
X149922455Y-55942452D01*
X149922452Y-55942455D01*
X149836206Y-56057664D01*
X149836202Y-56057671D01*
X149785908Y-56192517D01*
X149779501Y-56252116D01*
X149779501Y-56252123D01*
X149779500Y-56252135D01*
X149779500Y-58047870D01*
X149779501Y-58047876D01*
X149785908Y-58107483D01*
X149836202Y-58242328D01*
X149836206Y-58242335D01*
X149922452Y-58357544D01*
X149922455Y-58357547D01*
X150037664Y-58443793D01*
X150037671Y-58443797D01*
X150172517Y-58494091D01*
X150172516Y-58494091D01*
X150178767Y-58494763D01*
X150232127Y-58500500D01*
X152027872Y-58500499D01*
X152087483Y-58494091D01*
X152222331Y-58443796D01*
X152337546Y-58357546D01*
X152423796Y-58242331D01*
X152474091Y-58107483D01*
X152480500Y-58047873D01*
X152480499Y-56252128D01*
X152474091Y-56192517D01*
X152472040Y-56187019D01*
X152423797Y-56057671D01*
X152423793Y-56057664D01*
X152337547Y-55942455D01*
X152337544Y-55942452D01*
X152222335Y-55856206D01*
X152222328Y-55856202D01*
X152090917Y-55807189D01*
X152034983Y-55765318D01*
X152010566Y-55699853D01*
X152025418Y-55631580D01*
X152046563Y-55603332D01*
X152160104Y-55489792D01*
X152201754Y-55432466D01*
X152285048Y-55317820D01*
X152285047Y-55317820D01*
X152285051Y-55317816D01*
X152381557Y-55128412D01*
X152397293Y-55079983D01*
X154899500Y-55079983D01*
X154899500Y-56680001D01*
X154899501Y-56680018D01*
X154910000Y-56782796D01*
X154910001Y-56782799D01*
X154926888Y-56833760D01*
X154965186Y-56949334D01*
X155057288Y-57098656D01*
X155181344Y-57222712D01*
X155330666Y-57314814D01*
X155497203Y-57369999D01*
X155599991Y-57380500D01*
X156900008Y-57380499D01*
X157002797Y-57369999D01*
X157169334Y-57314814D01*
X157318656Y-57222712D01*
X157442712Y-57098656D01*
X157534814Y-56949334D01*
X157534814Y-56949331D01*
X157538448Y-56943441D01*
X157590395Y-56896716D01*
X157659358Y-56885493D01*
X157723440Y-56913336D01*
X157731668Y-56920856D01*
X157870535Y-57059723D01*
X157870540Y-57059727D01*
X158042442Y-57184620D01*
X158231782Y-57281095D01*
X158433871Y-57346757D01*
X158500000Y-57357231D01*
X158500000Y-56313012D01*
X158557007Y-56345925D01*
X158684174Y-56380000D01*
X158815826Y-56380000D01*
X158942993Y-56345925D01*
X159000000Y-56313012D01*
X159000000Y-57357230D01*
X159066126Y-57346757D01*
X159066129Y-57346757D01*
X159268217Y-57281095D01*
X159457557Y-57184620D01*
X159629459Y-57059727D01*
X159629464Y-57059723D01*
X159779723Y-56909464D01*
X159779727Y-56909459D01*
X159904620Y-56737557D01*
X160001095Y-56548217D01*
X160066757Y-56346130D01*
X160066757Y-56346127D01*
X160100000Y-56136246D01*
X160100000Y-56130000D01*
X159183012Y-56130000D01*
X159215925Y-56072993D01*
X159250000Y-55945826D01*
X159250000Y-55814174D01*
X159215925Y-55687007D01*
X159183012Y-55630000D01*
X160100000Y-55630000D01*
X160100000Y-55623753D01*
X160066757Y-55413872D01*
X160066757Y-55413869D01*
X160001095Y-55211782D01*
X159904620Y-55022442D01*
X159779727Y-54850540D01*
X159779723Y-54850535D01*
X159629464Y-54700276D01*
X159629459Y-54700272D01*
X159457557Y-54575379D01*
X159268215Y-54478903D01*
X159066124Y-54413241D01*
X159000000Y-54402768D01*
X159000000Y-55446988D01*
X158942993Y-55414075D01*
X158815826Y-55380000D01*
X158684174Y-55380000D01*
X158557007Y-55414075D01*
X158500000Y-55446988D01*
X158500000Y-54402768D01*
X158499999Y-54402768D01*
X158433875Y-54413241D01*
X158231784Y-54478903D01*
X158042442Y-54575379D01*
X157870541Y-54700271D01*
X157731668Y-54839144D01*
X157670345Y-54872628D01*
X157600653Y-54867644D01*
X157544720Y-54825772D01*
X157538448Y-54816558D01*
X157442712Y-54661344D01*
X157318657Y-54537289D01*
X157318656Y-54537288D01*
X157169334Y-54445186D01*
X157002797Y-54390001D01*
X157002795Y-54390000D01*
X156900010Y-54379500D01*
X155599998Y-54379500D01*
X155599981Y-54379501D01*
X155497203Y-54390000D01*
X155497200Y-54390001D01*
X155330668Y-54445185D01*
X155330663Y-54445187D01*
X155181342Y-54537289D01*
X155057289Y-54661342D01*
X154965187Y-54810663D01*
X154965185Y-54810668D01*
X154960180Y-54825772D01*
X154910001Y-54977203D01*
X154910001Y-54977204D01*
X154910000Y-54977204D01*
X154899500Y-55079983D01*
X152397293Y-55079983D01*
X152447246Y-54926243D01*
X152480500Y-54716287D01*
X152480500Y-54503713D01*
X152447246Y-54293757D01*
X152381557Y-54091588D01*
X152285051Y-53902184D01*
X152285049Y-53902181D01*
X152285048Y-53902179D01*
X152160109Y-53730213D01*
X152009786Y-53579890D01*
X151837820Y-53454951D01*
X151837115Y-53454591D01*
X151829054Y-53450485D01*
X151778259Y-53402512D01*
X151761463Y-53334692D01*
X151783999Y-53268556D01*
X151829054Y-53229515D01*
X151837816Y-53225051D01*
X151941409Y-53149787D01*
X152009786Y-53100109D01*
X152009788Y-53100106D01*
X152009792Y-53100104D01*
X152160104Y-52949792D01*
X152160106Y-52949788D01*
X152160109Y-52949786D01*
X152285048Y-52777820D01*
X152285047Y-52777820D01*
X152285051Y-52777816D01*
X152381557Y-52588412D01*
X152447246Y-52386243D01*
X152480500Y-52176287D01*
X152480500Y-51963713D01*
X152447246Y-51753757D01*
X152381557Y-51551588D01*
X152285051Y-51362184D01*
X152285049Y-51362181D01*
X152285048Y-51362179D01*
X152160109Y-51190213D01*
X152009786Y-51039890D01*
X151837820Y-50914951D01*
X151837115Y-50914591D01*
X151829054Y-50910485D01*
X151778259Y-50862512D01*
X151761463Y-50794692D01*
X151783999Y-50728556D01*
X151829054Y-50689515D01*
X151837816Y-50685051D01*
X151865483Y-50664950D01*
X152009786Y-50560109D01*
X152009788Y-50560106D01*
X152009792Y-50560104D01*
X152160104Y-50409792D01*
X152160106Y-50409788D01*
X152160109Y-50409786D01*
X152285048Y-50237820D01*
X152285047Y-50237820D01*
X152285051Y-50237816D01*
X152381557Y-50048412D01*
X152447246Y-49846243D01*
X152480500Y-49636287D01*
X152480500Y-49423713D01*
X152447246Y-49213757D01*
X152381557Y-49011588D01*
X152285051Y-48822184D01*
X152285049Y-48822181D01*
X152285048Y-48822179D01*
X152160109Y-48650213D01*
X152009786Y-48499890D01*
X151837820Y-48374951D01*
X151837115Y-48374591D01*
X151829054Y-48370485D01*
X151778259Y-48322512D01*
X151761463Y-48254692D01*
X151783999Y-48188556D01*
X151829054Y-48149515D01*
X151837816Y-48145051D01*
X151920771Y-48084781D01*
X152009786Y-48020109D01*
X152009788Y-48020106D01*
X152009792Y-48020104D01*
X152160104Y-47869792D01*
X152160106Y-47869788D01*
X152160109Y-47869786D01*
X152285048Y-47697820D01*
X152285047Y-47697820D01*
X152285051Y-47697816D01*
X152381557Y-47508412D01*
X152397283Y-47460013D01*
X154900000Y-47460013D01*
X154900000Y-48010000D01*
X155816988Y-48010000D01*
X155784075Y-48067007D01*
X155750000Y-48194174D01*
X155750000Y-48325826D01*
X155784075Y-48452993D01*
X155816988Y-48510000D01*
X154900001Y-48510000D01*
X154900001Y-49059986D01*
X154910494Y-49162697D01*
X154965641Y-49329119D01*
X154965643Y-49329124D01*
X155057684Y-49478345D01*
X155181654Y-49602315D01*
X155330875Y-49694356D01*
X155330880Y-49694358D01*
X155497302Y-49749505D01*
X155497309Y-49749506D01*
X155600019Y-49759999D01*
X155999999Y-49759999D01*
X156000000Y-49759998D01*
X156000000Y-48693012D01*
X156057007Y-48725925D01*
X156184174Y-48760000D01*
X156315826Y-48760000D01*
X156442993Y-48725925D01*
X156500000Y-48693012D01*
X156500000Y-49759999D01*
X156899972Y-49759999D01*
X156899986Y-49759998D01*
X157002697Y-49749505D01*
X157169119Y-49694358D01*
X157169124Y-49694356D01*
X157318345Y-49602315D01*
X157442317Y-49478343D01*
X157537815Y-49323516D01*
X157589763Y-49276791D01*
X157658725Y-49265568D01*
X157722808Y-49293412D01*
X157731035Y-49300931D01*
X157870213Y-49440109D01*
X158042179Y-49565048D01*
X158042181Y-49565049D01*
X158042184Y-49565051D01*
X158231588Y-49661557D01*
X158433757Y-49727246D01*
X158643713Y-49760500D01*
X158643714Y-49760500D01*
X158856286Y-49760500D01*
X158856287Y-49760500D01*
X159066243Y-49727246D01*
X159268412Y-49661557D01*
X159457816Y-49565051D01*
X159556802Y-49493134D01*
X159629786Y-49440109D01*
X159629788Y-49440106D01*
X159629792Y-49440104D01*
X159780104Y-49289792D01*
X159780106Y-49289788D01*
X159780109Y-49289786D01*
X159905048Y-49117820D01*
X159905047Y-49117820D01*
X159905051Y-49117816D01*
X160001557Y-48928412D01*
X160067246Y-48726243D01*
X160100500Y-48516287D01*
X160100500Y-48003713D01*
X160067246Y-47793757D01*
X160001557Y-47591588D01*
X159905051Y-47402184D01*
X159905049Y-47402181D01*
X159905048Y-47402179D01*
X159780109Y-47230213D01*
X159629786Y-47079890D01*
X159457820Y-46954951D01*
X159268414Y-46858444D01*
X159268413Y-46858443D01*
X159268412Y-46858443D01*
X159066243Y-46792754D01*
X159066241Y-46792753D01*
X159066240Y-46792753D01*
X158904957Y-46767208D01*
X158856287Y-46759500D01*
X158643713Y-46759500D01*
X158595042Y-46767208D01*
X158433760Y-46792753D01*
X158231585Y-46858444D01*
X158042179Y-46954951D01*
X157870215Y-47079889D01*
X157731035Y-47219069D01*
X157669712Y-47252553D01*
X157600020Y-47247569D01*
X157544087Y-47205697D01*
X157537815Y-47196484D01*
X157442315Y-47041654D01*
X157318345Y-46917684D01*
X157169124Y-46825643D01*
X157169119Y-46825641D01*
X157002697Y-46770494D01*
X157002690Y-46770493D01*
X156899986Y-46760000D01*
X156500000Y-46760000D01*
X156500000Y-47826988D01*
X156442993Y-47794075D01*
X156315826Y-47760000D01*
X156184174Y-47760000D01*
X156057007Y-47794075D01*
X156000000Y-47826988D01*
X156000000Y-46760000D01*
X155600028Y-46760000D01*
X155600012Y-46760001D01*
X155497302Y-46770494D01*
X155330880Y-46825641D01*
X155330875Y-46825643D01*
X155181654Y-46917684D01*
X155057684Y-47041654D01*
X154965643Y-47190875D01*
X154965641Y-47190880D01*
X154910494Y-47357302D01*
X154910493Y-47357309D01*
X154900000Y-47460013D01*
X152397283Y-47460013D01*
X152447246Y-47306243D01*
X152480500Y-47096287D01*
X152480500Y-46883713D01*
X152447246Y-46673757D01*
X152381557Y-46471588D01*
X152285051Y-46282184D01*
X152285049Y-46282181D01*
X152285048Y-46282179D01*
X152160109Y-46110213D01*
X152009786Y-45959890D01*
X151837817Y-45834949D01*
X151828504Y-45830204D01*
X151777707Y-45782230D01*
X151760912Y-45714409D01*
X151783449Y-45648274D01*
X151828507Y-45609232D01*
X151837555Y-45604622D01*
X151891716Y-45565270D01*
X151891717Y-45565270D01*
X151259408Y-44932962D01*
X151322993Y-44915925D01*
X151437007Y-44850099D01*
X151530099Y-44757007D01*
X151595925Y-44642993D01*
X151612962Y-44579409D01*
X152245270Y-45211717D01*
X152245270Y-45211716D01*
X152284622Y-45157554D01*
X152381095Y-44968217D01*
X152446757Y-44766130D01*
X152446757Y-44766127D01*
X152480000Y-44556246D01*
X152480000Y-44343753D01*
X152446757Y-44133872D01*
X152446757Y-44133869D01*
X152381095Y-43931782D01*
X152284624Y-43742449D01*
X152245270Y-43688282D01*
X152245269Y-43688282D01*
X151612962Y-44320590D01*
X151595925Y-44257007D01*
X151530099Y-44142993D01*
X151437007Y-44049901D01*
X151322993Y-43984075D01*
X151259409Y-43967037D01*
X151891716Y-43334728D01*
X151837547Y-43295373D01*
X151837547Y-43295372D01*
X151828500Y-43290763D01*
X151777706Y-43242788D01*
X151760912Y-43174966D01*
X151783451Y-43108832D01*
X151828508Y-43069793D01*
X151837816Y-43065051D01*
X151924147Y-43002328D01*
X152009786Y-42940109D01*
X152009788Y-42940106D01*
X152009792Y-42940104D01*
X152160104Y-42789792D01*
X152160106Y-42789788D01*
X152160109Y-42789786D01*
X152285048Y-42617820D01*
X152285047Y-42617820D01*
X152285051Y-42617816D01*
X152381557Y-42428412D01*
X152447246Y-42226243D01*
X152480500Y-42016287D01*
X152480500Y-41803713D01*
X152447246Y-41593757D01*
X152381557Y-41391588D01*
X152285051Y-41202184D01*
X152229312Y-41125465D01*
X152168709Y-41042051D01*
X152168707Y-41042049D01*
X152160105Y-41030209D01*
X152103934Y-40974038D01*
X157959500Y-40974038D01*
X157959500Y-41225961D01*
X157998910Y-41474785D01*
X158076760Y-41714383D01*
X158155413Y-41868747D01*
X158186227Y-41929223D01*
X158191132Y-41938848D01*
X158339201Y-42142649D01*
X158339205Y-42142654D01*
X158517345Y-42320794D01*
X158517350Y-42320798D01*
X158618975Y-42394632D01*
X158721155Y-42468870D01*
X158864184Y-42541747D01*
X158945616Y-42583239D01*
X158945618Y-42583239D01*
X158945621Y-42583241D01*
X159185215Y-42661090D01*
X159434038Y-42700500D01*
X159434039Y-42700500D01*
X159685961Y-42700500D01*
X159685962Y-42700500D01*
X159934785Y-42661090D01*
X160174379Y-42583241D01*
X160398845Y-42468870D01*
X160602656Y-42320793D01*
X160780793Y-42142656D01*
X160928870Y-41938845D01*
X161043241Y-41714379D01*
X161121090Y-41474785D01*
X161160500Y-41225962D01*
X161160500Y-40974038D01*
X161121090Y-40725215D01*
X161043241Y-40485621D01*
X161043239Y-40485618D01*
X161043239Y-40485616D01*
X161001747Y-40404184D01*
X160928870Y-40261155D01*
X160894367Y-40213665D01*
X160780798Y-40057350D01*
X160780794Y-40057345D01*
X160602654Y-39879205D01*
X160602649Y-39879201D01*
X160398848Y-39731132D01*
X160398847Y-39731131D01*
X160398845Y-39731130D01*
X160287147Y-39674217D01*
X160174383Y-39616760D01*
X159934785Y-39538910D01*
X159685962Y-39499500D01*
X159434038Y-39499500D01*
X159309626Y-39519205D01*
X159185214Y-39538910D01*
X158945616Y-39616760D01*
X158721151Y-39731132D01*
X158517350Y-39879201D01*
X158517345Y-39879205D01*
X158339205Y-40057345D01*
X158339201Y-40057350D01*
X158191132Y-40261151D01*
X158076760Y-40485616D01*
X157998910Y-40725214D01*
X157959500Y-40974038D01*
X152103934Y-40974038D01*
X152009786Y-40879890D01*
X151837820Y-40754951D01*
X151648414Y-40658444D01*
X151648413Y-40658443D01*
X151648412Y-40658443D01*
X151446243Y-40592754D01*
X151446241Y-40592753D01*
X151446240Y-40592753D01*
X151284957Y-40567208D01*
X151236287Y-40559500D01*
X151023713Y-40559500D01*
X150975042Y-40567208D01*
X150813760Y-40592753D01*
X150611585Y-40658444D01*
X150422179Y-40754951D01*
X150250213Y-40879890D01*
X150099890Y-41030213D01*
X149974951Y-41202179D01*
X149878444Y-41391585D01*
X149878443Y-41391587D01*
X149878443Y-41391588D01*
X149867467Y-41425368D01*
X149812753Y-41593760D01*
X149779500Y-41803713D01*
X147311403Y-41803713D01*
X147281413Y-41614364D01*
X147250709Y-41519866D01*
X147220006Y-41425370D01*
X147220005Y-41425367D01*
X147170214Y-41327648D01*
X147129787Y-41248306D01*
X147012981Y-41087536D01*
X146872464Y-40947019D01*
X146711694Y-40830213D01*
X146687075Y-40817669D01*
X146534632Y-40739994D01*
X146534629Y-40739993D01*
X146345637Y-40678587D01*
X146218452Y-40658443D01*
X146149361Y-40647500D01*
X145950639Y-40647500D01*
X145885214Y-40657862D01*
X145754362Y-40678587D01*
X145565370Y-40739993D01*
X145565367Y-40739994D01*
X145388305Y-40830213D01*
X145227533Y-40947021D01*
X145087021Y-41087533D01*
X145087021Y-41087534D01*
X145087019Y-41087536D01*
X145043590Y-41147311D01*
X145004728Y-41200800D01*
X144949398Y-41243465D01*
X144879784Y-41249444D01*
X144817989Y-41216838D01*
X144783632Y-41155999D01*
X144781941Y-41147337D01*
X144778477Y-41125466D01*
X144768988Y-41096263D01*
X144747526Y-41030208D01*
X144715220Y-40930781D01*
X144715218Y-40930778D01*
X144715218Y-40930776D01*
X144651745Y-40806205D01*
X144622287Y-40748390D01*
X144588913Y-40702454D01*
X144501971Y-40582786D01*
X144357213Y-40438028D01*
X144191613Y-40317715D01*
X144191612Y-40317714D01*
X144191610Y-40317713D01*
X144134653Y-40288691D01*
X144009223Y-40224781D01*
X143814534Y-40161522D01*
X143639995Y-40133878D01*
X143612352Y-40129500D01*
X143407648Y-40129500D01*
X143383329Y-40133351D01*
X143205465Y-40161522D01*
X143010776Y-40224781D01*
X142828386Y-40317715D01*
X142662786Y-40438028D01*
X142518028Y-40582786D01*
X142397715Y-40748386D01*
X142304781Y-40930776D01*
X142241522Y-41125465D01*
X142209500Y-41327648D01*
X142209500Y-41532351D01*
X142241522Y-41734534D01*
X142304781Y-41929223D01*
X142397715Y-42111613D01*
X142518028Y-42277213D01*
X142662786Y-42421971D01*
X142817749Y-42534556D01*
X142828390Y-42542287D01*
X142908763Y-42583239D01*
X143010776Y-42635218D01*
X143010778Y-42635218D01*
X143010781Y-42635220D01*
X143090398Y-42661089D01*
X143205465Y-42698477D01*
X143306557Y-42714488D01*
X143407648Y-42730500D01*
X143407649Y-42730500D01*
X143612351Y-42730500D01*
X143612352Y-42730500D01*
X143814534Y-42698477D01*
X144009219Y-42635220D01*
X144191610Y-42542287D01*
X144292665Y-42468867D01*
X144357213Y-42421971D01*
X144357215Y-42421968D01*
X144357219Y-42421966D01*
X144501966Y-42277219D01*
X144595266Y-42148801D01*
X144650593Y-42106136D01*
X144720207Y-42100156D01*
X144782002Y-42132762D01*
X144816360Y-42193600D01*
X144818055Y-42202278D01*
X144818587Y-42205638D01*
X144879993Y-42394629D01*
X144879994Y-42394632D01*
X144917821Y-42468870D01*
X144970213Y-42571694D01*
X145087019Y-42732464D01*
X145227536Y-42872981D01*
X145388306Y-42989787D01*
X145545332Y-43069796D01*
X145596127Y-43117769D01*
X145612922Y-43185590D01*
X145590385Y-43251725D01*
X145545332Y-43290764D01*
X145388566Y-43370641D01*
X145351283Y-43397729D01*
X145351282Y-43397730D01*
X145965906Y-44012352D01*
X145878429Y-44035792D01*
X145777070Y-44094311D01*
X145694311Y-44177070D01*
X145635792Y-44278429D01*
X145612352Y-44365905D01*
X144997730Y-43751282D01*
X144997729Y-43751283D01*
X144970643Y-43788564D01*
X144880457Y-43965562D01*
X144819075Y-44154476D01*
X144819075Y-44154479D01*
X144788000Y-44350678D01*
X144788000Y-44549321D01*
X144803843Y-44649350D01*
X144794888Y-44718644D01*
X144749892Y-44772096D01*
X144683141Y-44792735D01*
X144615827Y-44774010D01*
X144581052Y-44741633D01*
X144501971Y-44632787D01*
X144501967Y-44632782D01*
X144357213Y-44488028D01*
X144191613Y-44367715D01*
X144191612Y-44367714D01*
X144191610Y-44367713D01*
X144134653Y-44338691D01*
X144009223Y-44274781D01*
X143814534Y-44211522D01*
X143639995Y-44183878D01*
X143612352Y-44179500D01*
X143407648Y-44179500D01*
X143383329Y-44183351D01*
X143205465Y-44211522D01*
X143010776Y-44274781D01*
X142828386Y-44367715D01*
X142662786Y-44488028D01*
X142518028Y-44632786D01*
X142397715Y-44798386D01*
X142304781Y-44980776D01*
X142241522Y-45175465D01*
X142209500Y-45377648D01*
X142209500Y-45582351D01*
X142241522Y-45784534D01*
X142304781Y-45979223D01*
X142397715Y-46161613D01*
X142518028Y-46327213D01*
X142662786Y-46471971D01*
X142817749Y-46584556D01*
X142828390Y-46592287D01*
X142944607Y-46651503D01*
X143010776Y-46685218D01*
X143010778Y-46685218D01*
X143010781Y-46685220D01*
X143115137Y-46719127D01*
X143205465Y-46748477D01*
X143278218Y-46760000D01*
X143407648Y-46780500D01*
X143407649Y-46780500D01*
X143612351Y-46780500D01*
X143612352Y-46780500D01*
X143814534Y-46748477D01*
X144009219Y-46685220D01*
X144191610Y-46592287D01*
X144311246Y-46505367D01*
X144357213Y-46471971D01*
X144357215Y-46471968D01*
X144357219Y-46471966D01*
X144501966Y-46327219D01*
X144501968Y-46327215D01*
X144501971Y-46327213D01*
X144554732Y-46254590D01*
X144622287Y-46161610D01*
X144715220Y-45979219D01*
X144778477Y-45784534D01*
X144810500Y-45582352D01*
X144810500Y-45377648D01*
X144792736Y-45265493D01*
X144801690Y-45196201D01*
X144846686Y-45142749D01*
X144913438Y-45122109D01*
X144980752Y-45140834D01*
X144988431Y-45147984D01*
X144997731Y-45148716D01*
X145612352Y-44534094D01*
X145635792Y-44621571D01*
X145694311Y-44722930D01*
X145777070Y-44805689D01*
X145878429Y-44864208D01*
X145965905Y-44887647D01*
X145351283Y-45502268D01*
X145351283Y-45502269D01*
X145388567Y-45529358D01*
X145545331Y-45609234D01*
X145596127Y-45657209D01*
X145612922Y-45725030D01*
X145590384Y-45791165D01*
X145545331Y-45830204D01*
X145388305Y-45910213D01*
X145227533Y-46027021D01*
X145087021Y-46167533D01*
X144970213Y-46328305D01*
X144879994Y-46505367D01*
X144879993Y-46505370D01*
X144818587Y-46694362D01*
X144797867Y-46825185D01*
X144787500Y-46890639D01*
X144787500Y-47089361D01*
X144788597Y-47096286D01*
X144818587Y-47285637D01*
X144879993Y-47474629D01*
X144879994Y-47474632D01*
X144939587Y-47591588D01*
X144970213Y-47651694D01*
X145087019Y-47812464D01*
X145227536Y-47952981D01*
X145388306Y-48069787D01*
X145506832Y-48130179D01*
X145544780Y-48149515D01*
X145595576Y-48197490D01*
X145612371Y-48265311D01*
X145589833Y-48331446D01*
X145544780Y-48370485D01*
X145388305Y-48450213D01*
X145227533Y-48567021D01*
X145087021Y-48707533D01*
X144970212Y-48868306D01*
X144965797Y-48876972D01*
X144917820Y-48927766D01*
X144849999Y-48944559D01*
X144783865Y-48922019D01*
X144740415Y-48867302D01*
X144737383Y-48858992D01*
X144725422Y-48822179D01*
X144715220Y-48790781D01*
X144715218Y-48790778D01*
X144715218Y-48790776D01*
X144648634Y-48660099D01*
X144622287Y-48608390D01*
X144592231Y-48567021D01*
X144501971Y-48442786D01*
X144357213Y-48298028D01*
X144191613Y-48177715D01*
X144191612Y-48177714D01*
X144191610Y-48177713D01*
X144127505Y-48145050D01*
X144009223Y-48084781D01*
X143814534Y-48021522D01*
X143639995Y-47993878D01*
X143612352Y-47989500D01*
X143407648Y-47989500D01*
X143383329Y-47993351D01*
X143205465Y-48021522D01*
X143010776Y-48084781D01*
X142828386Y-48177715D01*
X142662786Y-48298028D01*
X142518028Y-48442786D01*
X142397715Y-48608386D01*
X142304781Y-48790776D01*
X142241522Y-48985465D01*
X142209500Y-49187648D01*
X142209500Y-49392351D01*
X142241522Y-49594534D01*
X142304781Y-49789223D01*
X142333833Y-49846239D01*
X142394270Y-49964853D01*
X142397715Y-49971613D01*
X142518028Y-50137213D01*
X142662786Y-50281971D01*
X142783226Y-50369474D01*
X142828390Y-50402287D01*
X142944607Y-50461503D01*
X143010776Y-50495218D01*
X143010778Y-50495218D01*
X143010781Y-50495220D01*
X143115137Y-50529127D01*
X143205465Y-50558477D01*
X143289564Y-50571797D01*
X143407648Y-50590500D01*
X143407649Y-50590500D01*
X143612350Y-50590500D01*
X143612352Y-50590500D01*
X143668027Y-50581681D01*
X143737319Y-50590635D01*
X143775106Y-50616473D01*
X144494049Y-51335416D01*
X144598584Y-51439951D01*
X144598587Y-51439953D01*
X144598588Y-51439954D01*
X144721500Y-51522081D01*
X144721501Y-51522081D01*
X144721505Y-51522084D01*
X144773420Y-51543587D01*
X144827821Y-51587427D01*
X144849887Y-51653721D01*
X144843897Y-51696466D01*
X144818587Y-51774362D01*
X144787500Y-51970639D01*
X144787500Y-52169360D01*
X144818587Y-52365637D01*
X144879993Y-52554629D01*
X144879994Y-52554632D01*
X144932995Y-52658650D01*
X144970213Y-52731694D01*
X145087019Y-52892464D01*
X145227536Y-53032981D01*
X145388306Y-53149787D01*
X145506832Y-53210179D01*
X145544780Y-53229515D01*
X145595576Y-53277490D01*
X145612371Y-53345311D01*
X145589833Y-53411446D01*
X145544780Y-53450485D01*
X145388305Y-53530213D01*
X145227533Y-53647021D01*
X145087021Y-53787533D01*
X144970213Y-53948305D01*
X144879994Y-54125367D01*
X144879993Y-54125370D01*
X144818587Y-54314362D01*
X144787500Y-54510639D01*
X144787500Y-54709360D01*
X144818587Y-54905637D01*
X144879993Y-55094629D01*
X144879994Y-55094632D01*
X144939686Y-55211782D01*
X144970213Y-55271694D01*
X145087019Y-55432464D01*
X145227536Y-55572981D01*
X145388306Y-55689787D01*
X145408062Y-55699853D01*
X145544780Y-55769515D01*
X145595576Y-55817490D01*
X145612371Y-55885311D01*
X145589833Y-55951446D01*
X145544780Y-55990485D01*
X145388305Y-56070213D01*
X145227533Y-56187021D01*
X145087021Y-56327533D01*
X144970213Y-56488305D01*
X144879994Y-56665367D01*
X144879993Y-56665370D01*
X144863620Y-56715764D01*
X144824183Y-56773440D01*
X144759824Y-56800638D01*
X144690978Y-56788723D01*
X144639502Y-56741479D01*
X144635204Y-56733741D01*
X144626043Y-56715762D01*
X144622287Y-56708390D01*
X144601667Y-56680009D01*
X144501971Y-56542786D01*
X144357217Y-56398032D01*
X144357212Y-56398028D01*
X144311615Y-56364900D01*
X144268949Y-56309571D01*
X144260500Y-56264582D01*
X144260500Y-54465416D01*
X144280185Y-54398377D01*
X144311613Y-54365099D01*
X144357219Y-54331966D01*
X144501966Y-54187219D01*
X144501968Y-54187215D01*
X144501971Y-54187213D01*
X144571445Y-54091588D01*
X144622287Y-54021610D01*
X144715220Y-53839219D01*
X144778477Y-53644534D01*
X144810500Y-53442352D01*
X144810500Y-53237648D01*
X144802257Y-53185606D01*
X144778477Y-53035465D01*
X144732013Y-52892464D01*
X144715220Y-52840781D01*
X144715218Y-52840778D01*
X144715218Y-52840776D01*
X144622419Y-52658650D01*
X144622287Y-52658390D01*
X144590092Y-52614077D01*
X144501971Y-52492786D01*
X144357213Y-52348028D01*
X144191613Y-52227715D01*
X144191612Y-52227714D01*
X144191610Y-52227713D01*
X144127046Y-52194816D01*
X144009223Y-52134781D01*
X143814534Y-52071522D01*
X143639995Y-52043878D01*
X143612352Y-52039500D01*
X143407648Y-52039500D01*
X143351971Y-52048318D01*
X143282678Y-52039363D01*
X143244893Y-52013526D01*
X136691825Y-45460457D01*
X133981408Y-42750040D01*
X133947923Y-42688717D01*
X133952907Y-42619025D01*
X133994779Y-42563092D01*
X134012794Y-42551874D01*
X134031610Y-42542287D01*
X134132665Y-42468867D01*
X134197213Y-42421971D01*
X134197215Y-42421968D01*
X134197219Y-42421966D01*
X134341966Y-42277219D01*
X134341968Y-42277215D01*
X134341971Y-42277213D01*
X134402718Y-42193600D01*
X134462287Y-42111610D01*
X134555220Y-41929219D01*
X134618477Y-41734534D01*
X134650500Y-41532352D01*
X134650500Y-41327648D01*
X134618477Y-41125466D01*
X134608988Y-41096263D01*
X134587526Y-41030208D01*
X134555220Y-40930781D01*
X134555218Y-40930778D01*
X134555218Y-40930776D01*
X134491745Y-40806205D01*
X134462287Y-40748390D01*
X134428913Y-40702454D01*
X134341971Y-40582786D01*
X134197213Y-40438028D01*
X134031613Y-40317715D01*
X134031612Y-40317714D01*
X134031610Y-40317713D01*
X133974653Y-40288691D01*
X133849223Y-40224781D01*
X133654534Y-40161522D01*
X133479995Y-40133878D01*
X133452352Y-40129500D01*
X133247648Y-40129500D01*
X133223329Y-40133351D01*
X133045465Y-40161522D01*
X132850776Y-40224781D01*
X132668386Y-40317715D01*
X132502786Y-40438028D01*
X132358028Y-40582786D01*
X132237715Y-40748386D01*
X132144781Y-40930776D01*
X132081523Y-41125463D01*
X132078062Y-41147315D01*
X132048130Y-41210449D01*
X131988818Y-41247379D01*
X131918955Y-41246379D01*
X131860724Y-41207768D01*
X131855271Y-41200799D01*
X131800536Y-41125463D01*
X131772981Y-41087536D01*
X131632464Y-40947019D01*
X131471694Y-40830213D01*
X131447075Y-40817669D01*
X131294632Y-40739994D01*
X131294629Y-40739993D01*
X131105637Y-40678587D01*
X130978452Y-40658443D01*
X130909361Y-40647500D01*
X130710639Y-40647500D01*
X130645214Y-40657862D01*
X130514362Y-40678587D01*
X130325370Y-40739993D01*
X130325367Y-40739994D01*
X130148305Y-40830213D01*
X129987533Y-40947021D01*
X129847021Y-41087533D01*
X129730213Y-41248305D01*
X129639994Y-41425367D01*
X129639993Y-41425370D01*
X129578587Y-41614362D01*
X129547500Y-41810639D01*
X129547500Y-42009360D01*
X129578587Y-42205637D01*
X129639993Y-42394629D01*
X129639994Y-42394632D01*
X129677821Y-42468870D01*
X129730213Y-42571694D01*
X129847019Y-42732464D01*
X129987536Y-42872981D01*
X130148306Y-42989787D01*
X130172933Y-43002335D01*
X130304780Y-43069515D01*
X130355576Y-43117490D01*
X130372371Y-43185311D01*
X130349833Y-43251446D01*
X130304780Y-43290485D01*
X130148305Y-43370213D01*
X129987533Y-43487021D01*
X129847021Y-43627533D01*
X129730213Y-43788305D01*
X129639994Y-43965367D01*
X129639993Y-43965370D01*
X129578587Y-44154362D01*
X129569534Y-44211522D01*
X129547500Y-44350639D01*
X129547500Y-44549361D01*
X129548597Y-44556286D01*
X129578587Y-44745637D01*
X129639993Y-44934629D01*
X129639994Y-44934632D01*
X129730076Y-45111425D01*
X129730213Y-45111694D01*
X129847019Y-45272464D01*
X129987536Y-45412981D01*
X130148306Y-45529787D01*
X130217943Y-45565269D01*
X130304780Y-45609515D01*
X130355576Y-45657490D01*
X130372371Y-45725311D01*
X130349833Y-45791446D01*
X130304780Y-45830485D01*
X130148305Y-45910213D01*
X129987533Y-46027021D01*
X129847021Y-46167533D01*
X129730213Y-46328305D01*
X129639994Y-46505367D01*
X129639993Y-46505370D01*
X129578587Y-46694362D01*
X129557867Y-46825185D01*
X129547500Y-46890639D01*
X129547500Y-47089361D01*
X129548597Y-47096286D01*
X129578587Y-47285637D01*
X129639993Y-47474629D01*
X129639994Y-47474632D01*
X129699587Y-47591588D01*
X129730213Y-47651694D01*
X129847019Y-47812464D01*
X129987536Y-47952981D01*
X130148306Y-48069787D01*
X130266832Y-48130179D01*
X130304780Y-48149515D01*
X130355576Y-48197490D01*
X130372371Y-48265311D01*
X130349833Y-48331446D01*
X130304780Y-48370485D01*
X130148305Y-48450213D01*
X129987533Y-48567021D01*
X129847021Y-48707533D01*
X129730213Y-48868305D01*
X129639994Y-49045367D01*
X129639993Y-49045370D01*
X129578587Y-49234362D01*
X129563545Y-49329334D01*
X129547500Y-49430639D01*
X129547500Y-49629361D01*
X129557867Y-49694814D01*
X129578587Y-49825637D01*
X129639993Y-50014629D01*
X129639994Y-50014632D01*
X129702453Y-50137213D01*
X129730213Y-50191694D01*
X129847019Y-50352464D01*
X129987536Y-50492981D01*
X130148306Y-50609787D01*
X130256569Y-50664950D01*
X130304780Y-50689515D01*
X130355576Y-50737490D01*
X130372371Y-50805311D01*
X130349833Y-50871446D01*
X130304780Y-50910485D01*
X130148305Y-50990213D01*
X129987533Y-51107021D01*
X129847021Y-51247533D01*
X129730213Y-51408305D01*
X129639994Y-51585367D01*
X129639993Y-51585370D01*
X129578587Y-51774362D01*
X129547500Y-51970639D01*
X129547500Y-52169362D01*
X129551531Y-52194816D01*
X129542575Y-52264109D01*
X129516738Y-52301893D01*
X128976052Y-52842578D01*
X128976049Y-52842581D01*
X128942719Y-52892463D01*
X128942720Y-52892464D01*
X128893914Y-52965508D01*
X128837343Y-53102082D01*
X128837340Y-53102092D01*
X128808500Y-53247079D01*
X128808500Y-63927993D01*
X128788815Y-63995032D01*
X128736011Y-64040787D01*
X128666853Y-64050731D01*
X128603297Y-64021706D01*
X128566794Y-63966998D01*
X128566544Y-63966243D01*
X128544814Y-63900666D01*
X128452712Y-63751344D01*
X128328656Y-63627288D01*
X128179334Y-63535186D01*
X128012797Y-63480001D01*
X128012795Y-63480000D01*
X127910010Y-63469500D01*
X126709998Y-63469500D01*
X126709981Y-63469501D01*
X126607203Y-63480000D01*
X126607200Y-63480001D01*
X126440668Y-63535185D01*
X126440663Y-63535187D01*
X126291342Y-63627289D01*
X126167289Y-63751342D01*
X126075187Y-63900663D01*
X126075185Y-63900668D01*
X126056227Y-63957880D01*
X126020001Y-64067203D01*
X126020001Y-64067204D01*
X126020000Y-64067204D01*
X126009500Y-64169983D01*
X126009500Y-65370001D01*
X126009501Y-65370018D01*
X126020000Y-65472796D01*
X126020001Y-65472799D01*
X126051255Y-65567115D01*
X126075186Y-65639334D01*
X126167288Y-65788656D01*
X126291344Y-65912712D01*
X126440666Y-66004814D01*
X126607203Y-66059999D01*
X126709991Y-66070500D01*
X127910008Y-66070499D01*
X128012797Y-66059999D01*
X128179334Y-66004814D01*
X128328656Y-65912712D01*
X128452712Y-65788656D01*
X128544814Y-65639334D01*
X128566795Y-65572999D01*
X128606566Y-65515556D01*
X128671082Y-65488733D01*
X128739858Y-65501048D01*
X128791058Y-65548591D01*
X128808500Y-65612005D01*
X128808500Y-72363035D01*
X128788815Y-72430074D01*
X128757387Y-72463352D01*
X128700208Y-72504895D01*
X128549894Y-72655209D01*
X128549890Y-72655214D01*
X128430008Y-72820218D01*
X128374678Y-72862884D01*
X128305065Y-72868863D01*
X128243270Y-72836257D01*
X128229372Y-72820218D01*
X128109727Y-72655540D01*
X128109723Y-72655535D01*
X127959464Y-72505276D01*
X127959459Y-72505272D01*
X127787557Y-72380379D01*
X127598215Y-72283903D01*
X127396124Y-72218241D01*
X127330000Y-72207768D01*
X127330000Y-73255854D01*
X127263343Y-73217370D01*
X127142535Y-73185000D01*
X127017465Y-73185000D01*
X126896657Y-73217370D01*
X126830000Y-73255854D01*
X126830000Y-72207768D01*
X126829999Y-72207768D01*
X126763875Y-72218241D01*
X126561784Y-72283903D01*
X126372442Y-72380379D01*
X126200541Y-72505271D01*
X126061668Y-72644144D01*
X126000345Y-72677628D01*
X125930653Y-72672644D01*
X125874720Y-72630772D01*
X125868448Y-72621558D01*
X125772712Y-72466344D01*
X125648657Y-72342289D01*
X125648656Y-72342288D01*
X125499334Y-72250186D01*
X125332797Y-72195001D01*
X125332795Y-72195000D01*
X125290896Y-72190720D01*
X125226205Y-72164323D01*
X125186054Y-72107142D01*
X125179500Y-72067362D01*
X125179500Y-58561802D01*
X125199185Y-58494763D01*
X125251989Y-58449008D01*
X125321147Y-58439064D01*
X125341812Y-58443869D01*
X125413757Y-58467246D01*
X125623713Y-58500500D01*
X125623714Y-58500500D01*
X125836286Y-58500500D01*
X125836287Y-58500500D01*
X126046243Y-58467246D01*
X126248412Y-58401557D01*
X126437816Y-58305051D01*
X126524138Y-58242335D01*
X126609786Y-58180109D01*
X126609788Y-58180106D01*
X126609792Y-58180104D01*
X126760104Y-58029792D01*
X126760106Y-58029788D01*
X126760109Y-58029786D01*
X126885048Y-57857820D01*
X126885047Y-57857820D01*
X126885051Y-57857816D01*
X126981557Y-57668412D01*
X127047246Y-57466243D01*
X127080500Y-57256287D01*
X127080500Y-57043713D01*
X127047246Y-56833757D01*
X126981557Y-56631588D01*
X126885051Y-56442184D01*
X126885049Y-56442181D01*
X126885048Y-56442179D01*
X126760109Y-56270213D01*
X126609786Y-56119890D01*
X126437820Y-55994951D01*
X126437115Y-55994591D01*
X126429054Y-55990485D01*
X126378259Y-55942512D01*
X126361463Y-55874692D01*
X126383999Y-55808556D01*
X126429054Y-55769515D01*
X126437816Y-55765051D01*
X126541409Y-55689787D01*
X126609786Y-55640109D01*
X126609788Y-55640106D01*
X126609792Y-55640104D01*
X126760104Y-55489792D01*
X126760106Y-55489788D01*
X126760109Y-55489786D01*
X126885048Y-55317820D01*
X126885047Y-55317820D01*
X126885051Y-55317816D01*
X126981557Y-55128412D01*
X127047246Y-54926243D01*
X127080500Y-54716287D01*
X127080500Y-54503713D01*
X127047246Y-54293757D01*
X126981557Y-54091588D01*
X126885051Y-53902184D01*
X126885049Y-53902181D01*
X126885048Y-53902179D01*
X126760109Y-53730213D01*
X126609786Y-53579890D01*
X126437820Y-53454951D01*
X126437115Y-53454591D01*
X126429054Y-53450485D01*
X126378259Y-53402512D01*
X126361463Y-53334692D01*
X126383999Y-53268556D01*
X126429054Y-53229515D01*
X126437816Y-53225051D01*
X126541409Y-53149787D01*
X126609786Y-53100109D01*
X126609788Y-53100106D01*
X126609792Y-53100104D01*
X126760104Y-52949792D01*
X126760106Y-52949788D01*
X126760109Y-52949786D01*
X126885048Y-52777820D01*
X126885047Y-52777820D01*
X126885051Y-52777816D01*
X126981557Y-52588412D01*
X127047246Y-52386243D01*
X127080500Y-52176287D01*
X127080500Y-51963713D01*
X127047246Y-51753757D01*
X126981557Y-51551588D01*
X126885051Y-51362184D01*
X126885049Y-51362181D01*
X126885048Y-51362179D01*
X126760109Y-51190213D01*
X126609786Y-51039890D01*
X126437820Y-50914951D01*
X126437115Y-50914591D01*
X126429054Y-50910485D01*
X126378259Y-50862512D01*
X126361463Y-50794692D01*
X126383999Y-50728556D01*
X126429054Y-50689515D01*
X126437816Y-50685051D01*
X126465483Y-50664950D01*
X126609786Y-50560109D01*
X126609788Y-50560106D01*
X126609792Y-50560104D01*
X126760104Y-50409792D01*
X126760106Y-50409788D01*
X126760109Y-50409786D01*
X126885048Y-50237820D01*
X126885047Y-50237820D01*
X126885051Y-50237816D01*
X126981557Y-50048412D01*
X127047246Y-49846243D01*
X127080500Y-49636287D01*
X127080500Y-49423713D01*
X127047246Y-49213757D01*
X126981557Y-49011588D01*
X126885051Y-48822184D01*
X126885049Y-48822181D01*
X126885048Y-48822179D01*
X126760109Y-48650213D01*
X126609786Y-48499890D01*
X126437820Y-48374951D01*
X126437115Y-48374591D01*
X126429054Y-48370485D01*
X126378259Y-48322512D01*
X126361463Y-48254692D01*
X126383999Y-48188556D01*
X126429054Y-48149515D01*
X126437816Y-48145051D01*
X126520771Y-48084781D01*
X126609786Y-48020109D01*
X126609788Y-48020106D01*
X126609792Y-48020104D01*
X126760104Y-47869792D01*
X126760106Y-47869788D01*
X126760109Y-47869786D01*
X126885048Y-47697820D01*
X126885047Y-47697820D01*
X126885051Y-47697816D01*
X126981557Y-47508412D01*
X127047246Y-47306243D01*
X127080500Y-47096287D01*
X127080500Y-46883713D01*
X127047246Y-46673757D01*
X126981557Y-46471588D01*
X126885051Y-46282184D01*
X126885049Y-46282181D01*
X126885048Y-46282179D01*
X126760109Y-46110213D01*
X126609786Y-45959890D01*
X126437820Y-45834951D01*
X126437115Y-45834591D01*
X126429054Y-45830485D01*
X126378259Y-45782512D01*
X126361463Y-45714692D01*
X126383999Y-45648556D01*
X126429054Y-45609515D01*
X126437816Y-45605051D01*
X126541409Y-45529787D01*
X126609786Y-45480109D01*
X126609788Y-45480106D01*
X126609792Y-45480104D01*
X126760104Y-45329792D01*
X126760106Y-45329788D01*
X126760109Y-45329786D01*
X126885048Y-45157820D01*
X126885047Y-45157820D01*
X126885051Y-45157816D01*
X126981557Y-44968412D01*
X127047246Y-44766243D01*
X127080500Y-44556287D01*
X127080500Y-44343713D01*
X127047246Y-44133757D01*
X126981557Y-43931588D01*
X126885051Y-43742184D01*
X126885049Y-43742181D01*
X126885048Y-43742179D01*
X126760109Y-43570213D01*
X126646569Y-43456673D01*
X126613084Y-43395350D01*
X126618068Y-43325658D01*
X126659940Y-43269725D01*
X126690915Y-43252810D01*
X126822331Y-43203796D01*
X126937546Y-43117546D01*
X127023796Y-43002331D01*
X127074091Y-42867483D01*
X127080500Y-42807873D01*
X127080499Y-41012128D01*
X127074091Y-40952517D01*
X127072040Y-40947019D01*
X127023797Y-40817671D01*
X127023793Y-40817664D01*
X126937547Y-40702455D01*
X126937544Y-40702452D01*
X126822335Y-40616206D01*
X126822328Y-40616202D01*
X126687482Y-40565908D01*
X126687483Y-40565908D01*
X126627883Y-40559501D01*
X126627881Y-40559500D01*
X126627873Y-40559500D01*
X126627864Y-40559500D01*
X124832129Y-40559500D01*
X124832123Y-40559501D01*
X124772516Y-40565908D01*
X124637671Y-40616202D01*
X124637664Y-40616206D01*
X124522455Y-40702452D01*
X124522452Y-40702455D01*
X124436206Y-40817664D01*
X124436202Y-40817671D01*
X124385908Y-40952517D01*
X124379501Y-41012116D01*
X124379501Y-41012123D01*
X124379500Y-41012135D01*
X124379500Y-42807870D01*
X124379501Y-42807876D01*
X124385908Y-42867483D01*
X124436202Y-43002328D01*
X124436206Y-43002335D01*
X124522452Y-43117544D01*
X124522455Y-43117547D01*
X124637664Y-43203793D01*
X124637671Y-43203797D01*
X124769082Y-43252810D01*
X124825016Y-43294681D01*
X124849433Y-43360145D01*
X124834582Y-43428418D01*
X124813431Y-43456673D01*
X124699889Y-43570215D01*
X124574951Y-43742179D01*
X124478444Y-43931585D01*
X124478443Y-43931587D01*
X124478443Y-43931588D01*
X124467467Y-43965368D01*
X124412753Y-44133760D01*
X124379500Y-44343713D01*
X124379500Y-44556286D01*
X124412735Y-44766127D01*
X124412754Y-44766243D01*
X124467467Y-44934632D01*
X124478444Y-44968414D01*
X124574951Y-45157820D01*
X124699890Y-45329786D01*
X124850213Y-45480109D01*
X125022182Y-45605050D01*
X125030946Y-45609516D01*
X125081742Y-45657491D01*
X125098536Y-45725312D01*
X125075998Y-45791447D01*
X125030946Y-45830484D01*
X125022182Y-45834949D01*
X124850213Y-45959890D01*
X124699890Y-46110213D01*
X124574951Y-46282179D01*
X124478444Y-46471585D01*
X124478443Y-46471587D01*
X124478443Y-46471588D01*
X124467467Y-46505368D01*
X124412753Y-46673760D01*
X124391734Y-46806473D01*
X124379500Y-46883713D01*
X124379500Y-47096287D01*
X124412754Y-47306243D01*
X124467467Y-47474632D01*
X124478444Y-47508414D01*
X124574951Y-47697820D01*
X124699890Y-47869786D01*
X124850213Y-48020109D01*
X125022182Y-48145050D01*
X125030946Y-48149516D01*
X125081742Y-48197491D01*
X125098536Y-48265312D01*
X125075998Y-48331447D01*
X125030946Y-48370484D01*
X125022182Y-48374949D01*
X124850213Y-48499890D01*
X124699890Y-48650213D01*
X124574951Y-48822179D01*
X124478444Y-49011585D01*
X124478443Y-49011587D01*
X124478443Y-49011588D01*
X124467467Y-49045368D01*
X124412753Y-49213760D01*
X124379500Y-49423713D01*
X124379500Y-49636291D01*
X124394616Y-49731726D01*
X124385662Y-49801020D01*
X124359824Y-49838806D01*
X123846049Y-50352581D01*
X123796812Y-50426271D01*
X123763921Y-50475496D01*
X123763914Y-50475508D01*
X123707342Y-50612086D01*
X123707340Y-50612092D01*
X123678500Y-50757079D01*
X123678500Y-72169978D01*
X123658815Y-72237017D01*
X123619597Y-72275516D01*
X123511347Y-72342285D01*
X123511343Y-72342288D01*
X123387289Y-72466342D01*
X123295187Y-72615663D01*
X123295185Y-72615668D01*
X123290180Y-72630772D01*
X123240001Y-72782203D01*
X123240001Y-72782204D01*
X123240000Y-72782204D01*
X123229500Y-72884983D01*
X114800500Y-72884983D01*
X114800500Y-62699983D01*
X116799500Y-62699983D01*
X116799500Y-64300001D01*
X116799501Y-64300018D01*
X116810000Y-64402796D01*
X116810001Y-64402799D01*
X116865185Y-64569331D01*
X116865187Y-64569336D01*
X116875871Y-64586657D01*
X116957288Y-64718656D01*
X117081344Y-64842712D01*
X117230666Y-64934814D01*
X117397203Y-64989999D01*
X117499991Y-65000500D01*
X118800008Y-65000499D01*
X118902797Y-64989999D01*
X119069334Y-64934814D01*
X119218656Y-64842712D01*
X119342712Y-64718656D01*
X119434814Y-64569334D01*
X119434814Y-64569331D01*
X119438178Y-64563879D01*
X119490126Y-64517154D01*
X119559088Y-64505931D01*
X119623170Y-64533774D01*
X119631398Y-64541294D01*
X119770213Y-64680109D01*
X119942179Y-64805048D01*
X119942181Y-64805049D01*
X119942184Y-64805051D01*
X120131588Y-64901557D01*
X120333757Y-64967246D01*
X120543713Y-65000500D01*
X120543714Y-65000500D01*
X120756286Y-65000500D01*
X120756287Y-65000500D01*
X120966243Y-64967246D01*
X121168412Y-64901557D01*
X121357816Y-64805051D01*
X121405226Y-64770606D01*
X121529786Y-64680109D01*
X121529788Y-64680106D01*
X121529792Y-64680104D01*
X121680104Y-64529792D01*
X121680106Y-64529788D01*
X121680109Y-64529786D01*
X121805048Y-64357820D01*
X121805047Y-64357820D01*
X121805051Y-64357816D01*
X121901557Y-64168412D01*
X121967246Y-63966243D01*
X122000500Y-63756287D01*
X122000500Y-63243713D01*
X121967246Y-63033757D01*
X121901557Y-62831588D01*
X121805051Y-62642184D01*
X121805049Y-62642181D01*
X121805048Y-62642179D01*
X121680109Y-62470213D01*
X121529786Y-62319890D01*
X121357820Y-62194951D01*
X121168414Y-62098444D01*
X121168413Y-62098443D01*
X121168412Y-62098443D01*
X120966243Y-62032754D01*
X120966241Y-62032753D01*
X120966240Y-62032753D01*
X120804957Y-62007208D01*
X120756287Y-61999500D01*
X120543713Y-61999500D01*
X120495042Y-62007208D01*
X120333760Y-62032753D01*
X120131585Y-62098444D01*
X119942179Y-62194951D01*
X119770215Y-62319889D01*
X119631398Y-62458706D01*
X119570075Y-62492190D01*
X119500383Y-62487206D01*
X119444450Y-62445334D01*
X119438178Y-62436120D01*
X119342712Y-62281344D01*
X119218657Y-62157289D01*
X119218656Y-62157288D01*
X119069334Y-62065186D01*
X118902797Y-62010001D01*
X118902795Y-62010000D01*
X118800010Y-61999500D01*
X117499998Y-61999500D01*
X117499981Y-61999501D01*
X117397203Y-62010000D01*
X117397200Y-62010001D01*
X117230668Y-62065185D01*
X117230663Y-62065187D01*
X117081342Y-62157289D01*
X116957289Y-62281342D01*
X116865187Y-62430663D01*
X116865185Y-62430668D01*
X116849474Y-62478082D01*
X116810001Y-62597203D01*
X116810001Y-62597204D01*
X116810000Y-62597204D01*
X116799500Y-62699983D01*
X114800500Y-62699983D01*
X114800500Y-55079983D01*
X116799500Y-55079983D01*
X116799500Y-56680001D01*
X116799501Y-56680018D01*
X116810000Y-56782796D01*
X116810001Y-56782799D01*
X116826888Y-56833760D01*
X116865186Y-56949334D01*
X116957288Y-57098656D01*
X117081344Y-57222712D01*
X117230666Y-57314814D01*
X117397203Y-57369999D01*
X117499991Y-57380500D01*
X118800008Y-57380499D01*
X118902797Y-57369999D01*
X119069334Y-57314814D01*
X119218656Y-57222712D01*
X119342712Y-57098656D01*
X119434814Y-56949334D01*
X119434814Y-56949331D01*
X119438448Y-56943441D01*
X119490395Y-56896716D01*
X119559358Y-56885493D01*
X119623440Y-56913336D01*
X119631668Y-56920856D01*
X119770535Y-57059723D01*
X119770540Y-57059727D01*
X119942442Y-57184620D01*
X120131782Y-57281095D01*
X120333871Y-57346757D01*
X120400000Y-57357231D01*
X120400000Y-56313012D01*
X120457007Y-56345925D01*
X120584174Y-56380000D01*
X120715826Y-56380000D01*
X120842993Y-56345925D01*
X120900000Y-56313012D01*
X120900000Y-57357230D01*
X120966126Y-57346757D01*
X120966129Y-57346757D01*
X121168217Y-57281095D01*
X121357557Y-57184620D01*
X121529459Y-57059727D01*
X121529464Y-57059723D01*
X121679723Y-56909464D01*
X121679727Y-56909459D01*
X121804620Y-56737557D01*
X121901095Y-56548217D01*
X121966757Y-56346130D01*
X121966757Y-56346127D01*
X122000000Y-56136246D01*
X122000000Y-56130000D01*
X121083012Y-56130000D01*
X121115925Y-56072993D01*
X121150000Y-55945826D01*
X121150000Y-55814174D01*
X121115925Y-55687007D01*
X121083012Y-55630000D01*
X122000000Y-55630000D01*
X122000000Y-55623753D01*
X121966757Y-55413872D01*
X121966757Y-55413869D01*
X121901095Y-55211782D01*
X121804620Y-55022442D01*
X121679727Y-54850540D01*
X121679723Y-54850535D01*
X121529464Y-54700276D01*
X121529459Y-54700272D01*
X121357557Y-54575379D01*
X121168215Y-54478903D01*
X120966124Y-54413241D01*
X120900000Y-54402768D01*
X120900000Y-55446988D01*
X120842993Y-55414075D01*
X120715826Y-55380000D01*
X120584174Y-55380000D01*
X120457007Y-55414075D01*
X120400000Y-55446988D01*
X120400000Y-54402768D01*
X120399999Y-54402768D01*
X120333875Y-54413241D01*
X120131784Y-54478903D01*
X119942442Y-54575379D01*
X119770541Y-54700271D01*
X119631668Y-54839144D01*
X119570345Y-54872628D01*
X119500653Y-54867644D01*
X119444720Y-54825772D01*
X119438448Y-54816558D01*
X119342712Y-54661344D01*
X119218657Y-54537289D01*
X119218656Y-54537288D01*
X119069334Y-54445186D01*
X118902797Y-54390001D01*
X118902795Y-54390000D01*
X118800010Y-54379500D01*
X117499998Y-54379500D01*
X117499981Y-54379501D01*
X117397203Y-54390000D01*
X117397200Y-54390001D01*
X117230668Y-54445185D01*
X117230663Y-54445187D01*
X117081342Y-54537289D01*
X116957289Y-54661342D01*
X116865187Y-54810663D01*
X116865185Y-54810668D01*
X116860180Y-54825772D01*
X116810001Y-54977203D01*
X116810001Y-54977204D01*
X116810000Y-54977204D01*
X116799500Y-55079983D01*
X114800500Y-55079983D01*
X114800500Y-47459983D01*
X116799500Y-47459983D01*
X116799500Y-49060001D01*
X116799501Y-49060018D01*
X116810000Y-49162796D01*
X116810001Y-49162799D01*
X116855774Y-49300931D01*
X116865186Y-49329334D01*
X116957288Y-49478656D01*
X117081344Y-49602712D01*
X117230666Y-49694814D01*
X117397203Y-49749999D01*
X117499991Y-49760500D01*
X118800008Y-49760499D01*
X118902797Y-49749999D01*
X119069334Y-49694814D01*
X119218656Y-49602712D01*
X119342712Y-49478656D01*
X119434814Y-49329334D01*
X119434814Y-49329331D01*
X119438178Y-49323879D01*
X119490126Y-49277154D01*
X119559088Y-49265931D01*
X119623170Y-49293774D01*
X119631398Y-49301294D01*
X119770213Y-49440109D01*
X119942179Y-49565048D01*
X119942181Y-49565049D01*
X119942184Y-49565051D01*
X120131588Y-49661557D01*
X120333757Y-49727246D01*
X120543713Y-49760500D01*
X120543714Y-49760500D01*
X120756286Y-49760500D01*
X120756287Y-49760500D01*
X120966243Y-49727246D01*
X121168412Y-49661557D01*
X121357816Y-49565051D01*
X121456802Y-49493134D01*
X121529786Y-49440109D01*
X121529788Y-49440106D01*
X121529792Y-49440104D01*
X121680104Y-49289792D01*
X121680106Y-49289788D01*
X121680109Y-49289786D01*
X121805048Y-49117820D01*
X121805047Y-49117820D01*
X121805051Y-49117816D01*
X121901557Y-48928412D01*
X121967246Y-48726243D01*
X122000500Y-48516287D01*
X122000500Y-48003713D01*
X121967246Y-47793757D01*
X121901557Y-47591588D01*
X121805051Y-47402184D01*
X121805049Y-47402181D01*
X121805048Y-47402179D01*
X121680109Y-47230213D01*
X121529786Y-47079890D01*
X121357820Y-46954951D01*
X121168414Y-46858444D01*
X121168413Y-46858443D01*
X121168412Y-46858443D01*
X120966243Y-46792754D01*
X120966241Y-46792753D01*
X120966240Y-46792753D01*
X120804957Y-46767208D01*
X120756287Y-46759500D01*
X120543713Y-46759500D01*
X120495042Y-46767208D01*
X120333760Y-46792753D01*
X120131585Y-46858444D01*
X119942179Y-46954951D01*
X119770215Y-47079889D01*
X119631398Y-47218706D01*
X119570075Y-47252190D01*
X119500383Y-47247206D01*
X119444450Y-47205334D01*
X119438178Y-47196120D01*
X119342712Y-47041344D01*
X119218657Y-46917289D01*
X119218656Y-46917288D01*
X119069334Y-46825186D01*
X118902797Y-46770001D01*
X118902795Y-46770000D01*
X118800010Y-46759500D01*
X117499998Y-46759500D01*
X117499981Y-46759501D01*
X117397203Y-46770000D01*
X117397200Y-46770001D01*
X117230668Y-46825185D01*
X117230663Y-46825187D01*
X117081342Y-46917289D01*
X116957289Y-47041342D01*
X116865187Y-47190663D01*
X116865185Y-47190668D01*
X116863258Y-47196484D01*
X116810001Y-47357203D01*
X116810001Y-47357204D01*
X116810000Y-47357204D01*
X116799500Y-47459983D01*
X114800500Y-47459983D01*
X114800500Y-41103750D01*
X114800726Y-41096263D01*
X114808119Y-40974038D01*
X115699500Y-40974038D01*
X115699500Y-41225961D01*
X115738910Y-41474785D01*
X115816760Y-41714383D01*
X115895413Y-41868747D01*
X115926227Y-41929223D01*
X115931132Y-41938848D01*
X116079201Y-42142649D01*
X116079205Y-42142654D01*
X116257345Y-42320794D01*
X116257350Y-42320798D01*
X116358975Y-42394632D01*
X116461155Y-42468870D01*
X116604184Y-42541747D01*
X116685616Y-42583239D01*
X116685618Y-42583239D01*
X116685621Y-42583241D01*
X116925215Y-42661090D01*
X117174038Y-42700500D01*
X117174039Y-42700500D01*
X117425961Y-42700500D01*
X117425962Y-42700500D01*
X117674785Y-42661090D01*
X117914379Y-42583241D01*
X118138845Y-42468870D01*
X118342656Y-42320793D01*
X118520793Y-42142656D01*
X118668870Y-41938845D01*
X118783241Y-41714379D01*
X118861090Y-41474785D01*
X118900500Y-41225962D01*
X118900500Y-40974038D01*
X118861090Y-40725215D01*
X118783241Y-40485621D01*
X118783239Y-40485618D01*
X118783239Y-40485616D01*
X118741747Y-40404184D01*
X118668870Y-40261155D01*
X118634367Y-40213665D01*
X118520798Y-40057350D01*
X118520794Y-40057345D01*
X118342654Y-39879205D01*
X118342649Y-39879201D01*
X118138848Y-39731132D01*
X118138847Y-39731131D01*
X118138845Y-39731130D01*
X118027147Y-39674217D01*
X117914383Y-39616760D01*
X117674785Y-39538910D01*
X117425962Y-39499500D01*
X117174038Y-39499500D01*
X117049626Y-39519205D01*
X116925214Y-39538910D01*
X116685616Y-39616760D01*
X116461151Y-39731132D01*
X116257350Y-39879201D01*
X116257345Y-39879205D01*
X116079205Y-40057345D01*
X116079201Y-40057350D01*
X115931132Y-40261151D01*
X115816760Y-40485616D01*
X115738910Y-40725214D01*
X115699500Y-40974038D01*
X114808119Y-40974038D01*
X114808867Y-40961679D01*
X114816819Y-40830213D01*
X114818271Y-40806201D01*
X114820076Y-40791340D01*
X114829486Y-40739995D01*
X114871780Y-40509197D01*
X114875364Y-40494663D01*
X114878183Y-40485616D01*
X114960696Y-40220822D01*
X114965998Y-40206841D01*
X115083731Y-39945249D01*
X115090676Y-39932016D01*
X115239080Y-39686526D01*
X115247567Y-39674230D01*
X115424480Y-39448417D01*
X115434395Y-39437226D01*
X115637226Y-39234395D01*
X115648417Y-39224480D01*
X115874230Y-39047567D01*
X115886526Y-39039080D01*
X116132016Y-38890676D01*
X116145249Y-38883731D01*
X116406841Y-38765998D01*
X116420822Y-38760696D01*
X116694668Y-38675362D01*
X116709197Y-38671780D01*
X116991344Y-38620075D01*
X117006201Y-38618271D01*
X117296264Y-38600726D01*
X117303751Y-38600500D01*
X117365892Y-38600500D01*
X159494108Y-38600500D01*
X159556249Y-38600500D01*
X159563736Y-38600726D01*
G37*
%TD.AperFunction*%
%TD*%
M02*
