%TF.GenerationSoftware,KiCad,Pcbnew,9.0.4*%
%TF.CreationDate,2025-11-21T22:02:31+01:00*%
%TF.ProjectId,smart_plants_breakout_rev1,736d6172-745f-4706-9c61-6e74735f6272,rev?*%
%TF.SameCoordinates,Original*%
%TF.FileFunction,Legend,Bot*%
%TF.FilePolarity,Positive*%
%FSLAX46Y46*%
G04 Gerber Fmt 4.6, Leading zero omitted, Abs format (unit mm)*
G04 Created by KiCad (PCBNEW 9.0.4) date 2025-11-21 22:02:31*
%MOMM*%
%LPD*%
G01*
G04 APERTURE LIST*
%ADD10C,0.150000*%
%ADD11C,0.120000*%
G04 APERTURE END LIST*
D10*
X138596666Y-49504819D02*
X138929999Y-49028628D01*
X139168094Y-49504819D02*
X139168094Y-48504819D01*
X139168094Y-48504819D02*
X138787142Y-48504819D01*
X138787142Y-48504819D02*
X138691904Y-48552438D01*
X138691904Y-48552438D02*
X138644285Y-48600057D01*
X138644285Y-48600057D02*
X138596666Y-48695295D01*
X138596666Y-48695295D02*
X138596666Y-48838152D01*
X138596666Y-48838152D02*
X138644285Y-48933390D01*
X138644285Y-48933390D02*
X138691904Y-48981009D01*
X138691904Y-48981009D02*
X138787142Y-49028628D01*
X138787142Y-49028628D02*
X139168094Y-49028628D01*
X138263332Y-48504819D02*
X137644285Y-48504819D01*
X137644285Y-48504819D02*
X137977618Y-48885771D01*
X137977618Y-48885771D02*
X137834761Y-48885771D01*
X137834761Y-48885771D02*
X137739523Y-48933390D01*
X137739523Y-48933390D02*
X137691904Y-48981009D01*
X137691904Y-48981009D02*
X137644285Y-49076247D01*
X137644285Y-49076247D02*
X137644285Y-49314342D01*
X137644285Y-49314342D02*
X137691904Y-49409580D01*
X137691904Y-49409580D02*
X137739523Y-49457200D01*
X137739523Y-49457200D02*
X137834761Y-49504819D01*
X137834761Y-49504819D02*
X138120475Y-49504819D01*
X138120475Y-49504819D02*
X138215713Y-49457200D01*
X138215713Y-49457200D02*
X138263332Y-49409580D01*
X138596666Y-41884819D02*
X138929999Y-41408628D01*
X139168094Y-41884819D02*
X139168094Y-40884819D01*
X139168094Y-40884819D02*
X138787142Y-40884819D01*
X138787142Y-40884819D02*
X138691904Y-40932438D01*
X138691904Y-40932438D02*
X138644285Y-40980057D01*
X138644285Y-40980057D02*
X138596666Y-41075295D01*
X138596666Y-41075295D02*
X138596666Y-41218152D01*
X138596666Y-41218152D02*
X138644285Y-41313390D01*
X138644285Y-41313390D02*
X138691904Y-41361009D01*
X138691904Y-41361009D02*
X138787142Y-41408628D01*
X138787142Y-41408628D02*
X139168094Y-41408628D01*
X137739523Y-40884819D02*
X137929999Y-40884819D01*
X137929999Y-40884819D02*
X138025237Y-40932438D01*
X138025237Y-40932438D02*
X138072856Y-40980057D01*
X138072856Y-40980057D02*
X138168094Y-41122914D01*
X138168094Y-41122914D02*
X138215713Y-41313390D01*
X138215713Y-41313390D02*
X138215713Y-41694342D01*
X138215713Y-41694342D02*
X138168094Y-41789580D01*
X138168094Y-41789580D02*
X138120475Y-41837200D01*
X138120475Y-41837200D02*
X138025237Y-41884819D01*
X138025237Y-41884819D02*
X137834761Y-41884819D01*
X137834761Y-41884819D02*
X137739523Y-41837200D01*
X137739523Y-41837200D02*
X137691904Y-41789580D01*
X137691904Y-41789580D02*
X137644285Y-41694342D01*
X137644285Y-41694342D02*
X137644285Y-41456247D01*
X137644285Y-41456247D02*
X137691904Y-41361009D01*
X137691904Y-41361009D02*
X137739523Y-41313390D01*
X137739523Y-41313390D02*
X137834761Y-41265771D01*
X137834761Y-41265771D02*
X138025237Y-41265771D01*
X138025237Y-41265771D02*
X138120475Y-41313390D01*
X138120475Y-41313390D02*
X138168094Y-41361009D01*
X138168094Y-41361009D02*
X138215713Y-41456247D01*
X138596666Y-53314819D02*
X138929999Y-52838628D01*
X139168094Y-53314819D02*
X139168094Y-52314819D01*
X139168094Y-52314819D02*
X138787142Y-52314819D01*
X138787142Y-52314819D02*
X138691904Y-52362438D01*
X138691904Y-52362438D02*
X138644285Y-52410057D01*
X138644285Y-52410057D02*
X138596666Y-52505295D01*
X138596666Y-52505295D02*
X138596666Y-52648152D01*
X138596666Y-52648152D02*
X138644285Y-52743390D01*
X138644285Y-52743390D02*
X138691904Y-52791009D01*
X138691904Y-52791009D02*
X138787142Y-52838628D01*
X138787142Y-52838628D02*
X139168094Y-52838628D01*
X138215713Y-52410057D02*
X138168094Y-52362438D01*
X138168094Y-52362438D02*
X138072856Y-52314819D01*
X138072856Y-52314819D02*
X137834761Y-52314819D01*
X137834761Y-52314819D02*
X137739523Y-52362438D01*
X137739523Y-52362438D02*
X137691904Y-52410057D01*
X137691904Y-52410057D02*
X137644285Y-52505295D01*
X137644285Y-52505295D02*
X137644285Y-52600533D01*
X137644285Y-52600533D02*
X137691904Y-52743390D01*
X137691904Y-52743390D02*
X138263332Y-53314819D01*
X138263332Y-53314819D02*
X137644285Y-53314819D01*
X138596666Y-45694819D02*
X138929999Y-45218628D01*
X139168094Y-45694819D02*
X139168094Y-44694819D01*
X139168094Y-44694819D02*
X138787142Y-44694819D01*
X138787142Y-44694819D02*
X138691904Y-44742438D01*
X138691904Y-44742438D02*
X138644285Y-44790057D01*
X138644285Y-44790057D02*
X138596666Y-44885295D01*
X138596666Y-44885295D02*
X138596666Y-45028152D01*
X138596666Y-45028152D02*
X138644285Y-45123390D01*
X138644285Y-45123390D02*
X138691904Y-45171009D01*
X138691904Y-45171009D02*
X138787142Y-45218628D01*
X138787142Y-45218628D02*
X139168094Y-45218628D01*
X137691904Y-44694819D02*
X138168094Y-44694819D01*
X138168094Y-44694819D02*
X138215713Y-45171009D01*
X138215713Y-45171009D02*
X138168094Y-45123390D01*
X138168094Y-45123390D02*
X138072856Y-45075771D01*
X138072856Y-45075771D02*
X137834761Y-45075771D01*
X137834761Y-45075771D02*
X137739523Y-45123390D01*
X137739523Y-45123390D02*
X137691904Y-45171009D01*
X137691904Y-45171009D02*
X137644285Y-45266247D01*
X137644285Y-45266247D02*
X137644285Y-45504342D01*
X137644285Y-45504342D02*
X137691904Y-45599580D01*
X137691904Y-45599580D02*
X137739523Y-45647200D01*
X137739523Y-45647200D02*
X137834761Y-45694819D01*
X137834761Y-45694819D02*
X138072856Y-45694819D01*
X138072856Y-45694819D02*
X138168094Y-45647200D01*
X138168094Y-45647200D02*
X138215713Y-45599580D01*
X138596666Y-58394819D02*
X138929999Y-57918628D01*
X139168094Y-58394819D02*
X139168094Y-57394819D01*
X139168094Y-57394819D02*
X138787142Y-57394819D01*
X138787142Y-57394819D02*
X138691904Y-57442438D01*
X138691904Y-57442438D02*
X138644285Y-57490057D01*
X138644285Y-57490057D02*
X138596666Y-57585295D01*
X138596666Y-57585295D02*
X138596666Y-57728152D01*
X138596666Y-57728152D02*
X138644285Y-57823390D01*
X138644285Y-57823390D02*
X138691904Y-57871009D01*
X138691904Y-57871009D02*
X138787142Y-57918628D01*
X138787142Y-57918628D02*
X139168094Y-57918628D01*
X137644285Y-58394819D02*
X138215713Y-58394819D01*
X137929999Y-58394819D02*
X137929999Y-57394819D01*
X137929999Y-57394819D02*
X138025237Y-57537676D01*
X138025237Y-57537676D02*
X138120475Y-57632914D01*
X138120475Y-57632914D02*
X138215713Y-57680533D01*
D11*
%TO.C,R3*%
X134390000Y-49290000D02*
X135160000Y-49290000D01*
X142470000Y-49290000D02*
X141700000Y-49290000D01*
X135160000Y-50660000D02*
X141700000Y-50660000D01*
X141700000Y-47920000D01*
X135160000Y-47920000D01*
X135160000Y-50660000D01*
%TO.C,R6*%
X134390000Y-41430000D02*
X135160000Y-41430000D01*
X142470000Y-41430000D02*
X141700000Y-41430000D01*
X135160000Y-42800000D02*
X141700000Y-42800000D01*
X141700000Y-40060000D01*
X135160000Y-40060000D01*
X135160000Y-42800000D01*
%TO.C,R2*%
X134390000Y-53340000D02*
X135160000Y-53340000D01*
X142470000Y-53340000D02*
X141700000Y-53340000D01*
X135160000Y-54710000D02*
X141700000Y-54710000D01*
X141700000Y-51970000D01*
X135160000Y-51970000D01*
X135160000Y-54710000D01*
%TO.C,R5*%
X134390000Y-45480000D02*
X135160000Y-45480000D01*
X142470000Y-45480000D02*
X141700000Y-45480000D01*
X135160000Y-46850000D02*
X141700000Y-46850000D01*
X141700000Y-44110000D01*
X135160000Y-44110000D01*
X135160000Y-46850000D01*
%TO.C,R1*%
X134390000Y-57390000D02*
X135160000Y-57390000D01*
X142470000Y-57390000D02*
X141700000Y-57390000D01*
X135160000Y-58760000D02*
X141700000Y-58760000D01*
X141700000Y-56020000D01*
X135160000Y-56020000D01*
X135160000Y-58760000D01*
%TD*%
M02*
