M48
; DRILL file {KiCad 9.0.4} date 2025-11-21T22:02:45+0100
; FORMAT={-:-/ absolute / inch / decimal}
; #@! TF.CreationDate,2025-11-21T22:02:45+01:00
; #@! TF.GenerationSoftware,Kicad,Pcbnew,9.0.4
; #@! TF.FileFunction,Plated,1,2,PTH
FMAT,2
INCH
; #@! TA.AperFunction,Plated,PTH,ViaDrill
T1C0.0118
; #@! TA.AperFunction,Plated,PTH,ComponentDrill
T2C0.0315
; #@! TA.AperFunction,Plated,PTH,ComponentDrill
T3C0.0350
; #@! TA.AperFunction,Plated,PTH,ComponentDrill
T4C0.0374
; #@! TA.AperFunction,Plated,PTH,ComponentDrill
T5C0.0394
; #@! TA.AperFunction,Plated,PTH,ComponentDrill
T6C0.0433
%
G90
G05
T1
X5.15Y-2.45
X5.25Y-2.45
X5.3Y-2.45
X5.85Y-2.35
T2
X5.0122Y-2.55
X5.15Y-2.55
X5.25Y-1.6311
X5.25Y-1.7906
X5.25Y-1.9406
X5.25Y-2.1
X5.25Y-2.2594
X5.65Y-1.6311
X5.65Y-1.7906
X5.65Y-1.9406
X5.65Y-2.1
X5.65Y-2.2594
X5.95Y-2.4
X5.95Y-2.8
X6.1492Y-2.5561
X6.287Y-2.5561
T3
X5.15Y-1.65
X5.15Y-1.75
X5.15Y-1.85
X5.15Y-1.95
X5.15Y-2.05
X5.15Y-2.15
X5.15Y-2.25
X5.75Y-1.65
X5.75Y-1.75
X5.75Y-1.85
X5.75Y-1.95
X5.75Y-2.05
X5.75Y-2.15
X5.75Y-2.25
T4
X4.9047Y-2.9
X4.9047Y-3.2
X5.0031Y-2.9
X5.0031Y-3.2
X5.1016Y-2.9
X5.1016Y-3.2
X5.2Y-2.9
X5.2Y-3.2
X5.4524Y-2.9
X5.4531Y-2.55
X5.4547Y-3.2
X5.5508Y-2.9
X5.5516Y-2.55
X5.5531Y-3.2
X5.6492Y-2.9
X5.65Y-2.55
X5.6516Y-3.2
X5.7476Y-2.9
X5.75Y-3.2
T5
X4.6516Y-1.9
X4.6516Y-2.2
X4.6516Y-2.5
X4.75Y-1.9
X4.75Y-2.2
X4.75Y-2.5
X4.95Y-1.65
X4.95Y-1.75
X4.95Y-1.85
X4.95Y-1.95
X4.95Y-2.05
X4.95Y-2.15
X4.95Y-2.25
X5.95Y-1.65
X5.95Y-1.75
X5.95Y-1.85
X5.95Y-1.95
X5.95Y-2.05
X5.95Y-2.15
X5.95Y-2.25
X6.1516Y-1.9
X6.1516Y-2.2
X6.25Y-1.9
X6.25Y-2.2
T6
X6.05Y-2.9
X6.05Y-3.3
X6.2Y-2.85
X6.2Y-2.95
X6.2Y-3.05
M30
