# Created by FreeCAD <https://www.freecad.org>
v -4.000000 3.000000 0.000000
v -5.918168 3.000000 0.987568
v -6.000000 3.000000 0.000000
v -3.923141 3.000000 0.780361
v -5.674903 3.000000 1.948197
v -3.695518 3.000000 1.530734
v -5.276843 3.000000 2.855684
v -3.325878 3.000000 2.222281
v -4.734843 3.000000 3.685276
v -2.828427 3.000000 2.828427
v -4.063689 3.000000 4.414343
v -2.222281 3.000000 3.325878
v -3.281689 3.000000 5.022999
v -2.410172 3.000000 5.494640
v -1.530734 3.000000 3.695518
v -1.472913 3.000000 5.816401
v -0.780361 3.000000 3.923141
v -0.495476 3.000000 5.979507
v -0.000000 3.000000 4.000000
v 0.495476 3.000000 5.979507
v 0.780361 3.000000 3.923141
v 5.918168 3.000000 0.987568
v 3.923141 3.000000 0.780361
v 4.000000 3.000000 0.000000
v 6.000000 3.000000 0.000000
v 1.472913 3.000000 5.816401
v 1.530734 3.000000 3.695518
v 5.674903 3.000000 1.948197
v 3.695518 3.000000 1.530734
v 2.410172 3.000000 5.494640
v 2.222281 3.000000 3.325878
v 5.276843 3.000000 2.855684
v 3.325878 3.000000 2.222281
v 3.281689 3.000000 5.022999
v 4.734843 3.000000 3.685276
v 2.828427 3.000000 2.828427
v 4.063689 3.000000 4.414343
v -4.000000 -0.500000 0.000000
v -3.928229 -0.500000 0.754334
v -3.715490 -0.500000 1.481599
v -3.369418 -0.500000 2.155695
v -2.902433 2.500000 2.752433
v -2.902433 -0.500000 2.752433
v -2.752433 2.500000 2.902433
v -2.752433 -0.500000 2.902433
v -2.155695 -0.500000 3.369418
v -2.853319 2.500000 2.803314
v -2.803314 2.500000 2.853319
v -1.481599 -0.500000 3.715490
v -0.754334 -0.500000 3.928229
v -0.000000 -0.500000 4.000000
v 0.754334 -0.500000 3.928229
v 1.481599 -0.500000 3.715490
v 2.155695 -0.500000 3.369418
v 2.752433 2.500000 2.902433
v 2.752433 -0.500000 2.902433
v 2.902433 2.500000 2.752433
v 2.902433 -0.500000 2.752433
v 3.369418 -0.500000 2.155695
v 2.803314 2.500000 2.853319
v 2.853319 2.500000 2.803314
v 3.715490 -0.500000 1.481599
v 3.928229 -0.500000 0.754334
v 4.000000 -0.500000 0.000000
v -5.918168 4.000000 0.987568
v -6.000000 4.000000 0.000000
v -5.674903 4.000000 1.948197
v -5.276843 4.000000 2.855684
v -4.734843 4.000000 3.685276
v -4.063689 4.000000 4.414343
v -3.281689 4.000000 5.022999
v -2.410172 4.000000 5.494640
v -1.472913 4.000000 5.816401
v -0.495476 4.000000 5.979507
v 0.495476 4.000000 5.979507
v 1.472913 4.000000 5.816401
v 2.410172 4.000000 5.494640
v 3.281689 4.000000 5.022999
v 4.063689 4.000000 4.414343
v 4.734843 4.000000 3.685276
v 5.276843 4.000000 2.855684
v 5.674903 4.000000 1.948197
v 5.918168 4.000000 0.987568
v 6.000000 4.000000 0.000000
v -4.300000 -0.500000 0.000000
v -2.800000 -3.500000 0.000000
v -2.400000 -3.500000 0.000000
v -2.400000 0.600000 0.000000
v -2.400000 1.000000 0.000000
v -2.200000 0.800000 0.000000
v -2.400000 4.000000 0.000000
v 4.300000 -0.500000 0.000000
v 2.800000 -3.500000 0.000000
v 2.400000 -3.500000 0.000000
v 2.400000 0.600000 0.000000
v 2.400000 1.000000 0.000000
v 2.200000 0.800000 0.000000
v 2.400000 4.000000 0.000000
v 4.222470 -0.500000 0.812863
v 3.992676 -0.500000 1.596414
v 3.618905 -0.500000 2.322397
v 3.114634 -0.500000 2.964634
v 1.770398 1.000000 1.620398
v 1.770398 2.500000 1.620398
v 1.770398 0.600000 1.620398
v 1.733842 0.948353 1.583842
v 1.698073 0.702180 1.548072
v 1.698073 0.897820 1.548072
v 1.663073 0.751623 1.513073
v 1.628826 0.800000 1.478826
v 2.805269 -1.374720 2.655269
v 2.527369 -2.160411 2.377369
v 1.770398 -3.500000 1.620398
v 2.053478 -3.500000 1.903478
v 1.671865 2.500000 1.721879
v 1.620398 2.500000 1.770398
v 1.721879 2.500000 1.671865
v 1.620398 1.000000 1.770398
v 1.548072 0.702180 1.698073
v 1.478826 0.800000 1.628826
v 1.513073 0.848377 1.663073
v 1.548072 0.897820 1.698073
v 1.583842 0.651647 1.733842
v 1.620398 0.600000 1.770398
v 2.377369 -2.160411 2.527369
v 2.964634 -0.500000 3.114634
v 1.620398 -3.500000 1.770398
v 2.127731 -2.866127 2.277731
v 1.903478 -3.500000 2.053478
v 2.322397 -0.500000 3.618905
v 1.596414 -0.500000 3.992676
v 0.812863 -0.500000 4.222470
v -0.000000 -0.500000 4.300000
v -0.812863 -0.500000 4.222470
v -1.596414 -0.500000 3.992676
v -2.322397 -0.500000 3.618905
v -2.964634 -0.500000 3.114634
v -1.620398 1.000000 1.770398
v -1.620398 2.500000 1.770398
v -1.620398 0.600000 1.770398
v -1.583842 0.948353 1.733842
v -1.548072 0.702180 1.698073
v -1.548072 0.897820 1.698073
v -1.513073 0.751623 1.663073
v -1.478826 0.800000 1.628826
v -2.655269 -1.374720 2.805269
v -2.377369 -2.160411 2.527369
v -1.620398 -3.500000 1.770398
v -1.903478 -3.500000 2.053478
v -1.770398 2.500000 1.620398
v -1.721879 2.500000 1.671865
v -1.671865 2.500000 1.721879
v -1.770398 1.000000 1.620398
v -1.770398 0.600000 1.620398
v -1.733842 0.948353 1.583842
v -1.698073 0.702180 1.548072
v -1.698073 0.897820 1.548072
v -1.663073 0.751623 1.513073
v -1.628826 0.800000 1.478826
v -3.114634 -0.500000 2.964634
v -2.805269 -1.374720 2.655269
v -2.527369 -2.160411 2.377369
v -2.053478 -3.500000 1.903478
v -1.770398 -3.500000 1.620398
v -4.222470 -0.500000 0.812863
v -3.992676 -0.500000 1.596414
v -3.618905 -0.500000 2.322397
v 2.330260 4.000000 0.574358
v 2.125094 4.000000 1.115336
v 1.796426 4.000000 1.591494
v 1.363355 4.000000 1.975161
v 0.851052 4.000000 2.244039
v 0.289288 4.000000 2.382501
v -0.289288 4.000000 2.382501
v -2.330260 4.000000 0.574358
v -0.851052 4.000000 2.244039
v -2.125094 4.000000 1.115336
v -1.363355 4.000000 1.975161
v -1.796426 4.000000 1.591494
v -2.327124 1.000000 0.586938
v -2.112920 1.000000 1.138231
v -1.138231 1.000000 2.112920
v -0.586938 1.000000 2.327124
v -0.000000 1.000000 2.400000
v 0.586938 1.000000 2.327124
v 1.138231 1.000000 2.112920
v 2.112920 1.000000 1.138231
v 2.327124 1.000000 0.586938
v -2.133916 0.800000 0.535166
v -1.939634 0.800000 1.038181
v -2.327124 0.600000 0.586938
v -2.112920 0.600000 1.138231
v -2.327124 -3.500000 0.586938
v -2.112920 -3.500000 1.138231
v -2.751250 -3.500000 0.520216
v -2.606697 -3.500000 1.022316
v -2.371375 -3.500000 1.488819
v -3.194471 -2.500000 0.827863
v -2.884632 -2.500000 1.602778
v -3.678481 -1.500000 0.953297
v -3.321697 -1.500000 1.845623
v 1.939634 0.800000 1.038181
v 2.133916 0.800000 0.535166
v 2.112920 0.600000 1.138231
v 2.327124 0.600000 0.586938
v 2.112920 -3.500000 1.138231
v 2.327124 -3.500000 0.586938
v 2.751250 -3.500000 0.520216
v 2.606697 -3.500000 1.022316
v 2.371375 -3.500000 1.488819
v 2.884632 -2.500000 1.602778
v 3.194471 -2.500000 0.827863
v 3.321697 -1.500000 1.845623
v 3.678481 -1.500000 0.953297
v -1.424988 -3.500000 2.410272
v -1.138231 -3.500000 2.112920
v -0.881745 -3.500000 2.657541
v -0.586938 -3.500000 2.327124
v -0.298435 -3.500000 2.784050
v -0.000000 -3.500000 2.400000
v 0.298435 -3.500000 2.784050
v 0.586938 -3.500000 2.327124
v 0.881745 -3.500000 2.657541
v 1.138231 -3.500000 2.112920
v 1.424988 -3.500000 2.410272
v -1.602778 -2.500000 2.884632
v -0.827863 -2.500000 3.194471
v -1.845623 -1.500000 3.321697
v -0.000000 -2.500000 3.300000
v -0.953297 -1.500000 3.678481
v 0.827863 -2.500000 3.194471
v -0.000000 -1.500000 3.800000
v 1.602778 -2.500000 2.884632
v 0.953297 -1.500000 3.678481
v 1.845623 -1.500000 3.321697
v -1.038181 0.800000 1.939634
v -0.535166 0.800000 2.133916
v -0.000000 0.800000 2.200000
v 0.535166 0.800000 2.133916
v 1.038181 0.800000 1.939634
v -1.138231 0.600000 2.112920
v -0.586938 0.600000 2.327124
v -0.000000 0.600000 2.400000
v 0.586938 0.600000 2.327124
v 1.138231 0.600000 2.112920
vn 0.000000 -1.000000 0.000000
vn 0.000000 -1.000000 0.000000
vn -0.000000 -1.000000 0.000000
vn 0.000000 -1.000000 0.000000
vn -0.000000 -1.000000 0.000000
vn -0.000000 -1.000000 0.000000
vn 0.000000 -1.000000 -0.000000
vn -0.000000 -1.000000 0.000000
vn 0.000000 -1.000000 -0.000000
vn -0.000000 -1.000000 0.000000
vn 0.000000 -1.000000 -0.000000
vn 0.000000 -1.000000 0.000000
vn 0.000000 -1.000000 -0.000000
vn 0.000000 -1.000000 -0.000000
vn 0.000000 -1.000000 0.000000
vn 0.000000 -1.000000 -0.000000
vn 0.000000 -1.000000 0.000000
vn 0.000000 -1.000000 -0.000000
vn -0.000000 -1.000000 0.000000
vn 0.000000 -1.000000 0.000000
vn 0.000000 -1.000000 -0.000000
vn 0.000000 -1.000000 -0.000000
vn -0.000000 -1.000000 0.000000
vn 0.000000 -1.000000 0.000000
vn 0.000000 -1.000000 -0.000000
vn 0.000000 -1.000000 0.000000
vn -0.000000 -1.000000 0.000000
vn 0.000000 -1.000000 0.000000
vn 0.000000 -1.000000 -0.000000
vn -0.000000 -1.000000 0.000000
vn 0.000000 -1.000000 -0.000000
vn 0.000000 -1.000000 0.000000
vn -0.000000 -1.000000 0.000000
vn 0.000000 -1.000000 0.000000
vn 0.000000 -1.000000 -0.000000
vn -0.995504 0.000000 0.094718
vn -0.959780 -0.000693 0.280754
vn -0.995184 0.000718 0.098017
vn -0.889612 -0.001335 0.456715
vn -0.956939 0.001385 0.290284
vn -0.881920 0.002003 0.471396
vn -0.787522 0.000000 0.616286
vn -0.782326 -0.002118 0.622866
vn -0.616286 0.000000 0.787522
vn -0.719495 0.000938 0.694497
vn -0.707107 -0.000313 0.707107
vn -0.694497 0.000938 0.719495
vn -0.772885 0.017990 0.634291
vn -0.634291 0.017990 0.772885
vn -0.622866 -0.002118 0.782326
vn -0.456715 -0.001335 0.889612
vn -0.471396 0.002003 0.881920
vn -0.280754 -0.000693 0.959780
vn -0.290284 0.001385 0.956939
vn -0.094718 0.000000 0.995504
vn 0.094718 -0.000000 0.995504
vn -0.098017 0.000718 0.995184
vn 0.280754 -0.000693 0.959780
vn 0.098017 0.000718 0.995184
vn 0.456715 -0.001335 0.889612
vn 0.290284 0.001385 0.956939
vn 0.471396 0.002003 0.881920
vn 0.622866 -0.002118 0.782326
vn 0.616286 0.000000 0.787522
vn 0.787522 0.000000 0.616286
vn 0.634291 0.017990 0.772885
vn 0.694497 0.000938 0.719495
vn 0.707107 -0.000313 0.707107
vn 0.719495 0.000938 0.694497
vn 0.772885 0.017990 0.634291
vn 0.782326 -0.002118 0.622866
vn 0.881920 0.002003 0.471396
vn 0.889612 -0.001335 0.456715
vn 0.959780 -0.000693 0.280754
vn 0.956939 0.001385 0.290284
vn 0.995504 0.000000 0.094718
vn 0.995184 0.000718 0.098017
vn -0.996585 0.000000 0.082580
vn -0.996585 0.000000 0.082580
vn -0.969400 0.000000 0.245485
vn -0.969400 0.000000 0.245485
vn -0.915773 0.000000 0.401695
vn -0.915773 0.000000 0.401695
vn -0.837167 0.000000 0.546948
vn -0.837167 0.000000 0.546948
vn -0.735724 0.000000 0.677282
vn -0.735724 0.000000 0.677282
vn -0.614213 0.000000 0.789140
vn -0.614213 0.000000 0.789140
vn -0.475947 0.000000 0.879474
vn -0.475947 0.000000 0.879474
vn -0.324699 0.000000 0.945817
vn -0.324699 0.000000 0.945817
vn -0.164595 0.000000 0.986361
vn -0.164595 0.000000 0.986361
vn 0.000000 0.000000 1.000000
vn 0.000000 0.000000 1.000000
vn 0.164595 0.000000 0.986361
vn 0.164595 0.000000 0.986361
vn 0.324699 0.000000 0.945817
vn 0.324699 0.000000 0.945817
vn 0.475947 0.000000 0.879474
vn 0.614213 0.000000 0.789140
vn 0.475947 0.000000 0.879474
vn 0.735724 0.000000 0.677282
vn 0.614213 0.000000 0.789140
vn 0.735724 0.000000 0.677282
vn 0.837167 0.000000 0.546948
vn 0.837167 0.000000 0.546948
vn 0.915773 0.000000 0.401695
vn 0.915773 0.000000 0.401695
vn 0.969400 0.000000 0.245485
vn 0.969400 0.000000 0.245485
vn 0.996585 0.000000 0.082580
vn 0.996585 0.000000 0.082580
vn 0.000000 0.000000 -1.000000
vn 0.000000 0.000000 -1.000000
vn 0.000000 0.000000 -1.000000
vn 0.000000 0.000000 -1.000000
vn 0.000000 0.000000 -1.000000
vn 0.000000 0.000000 -1.000000
vn 0.000000 0.000000 -1.000000
vn 0.000000 0.000000 -1.000000
vn 0.000000 0.000000 -1.000000
vn 0.000000 0.000000 -1.000000
vn 0.000000 0.000000 -1.000000
vn 0.000000 0.000000 -1.000000
vn 0.000000 0.000000 -1.000000
vn 0.000000 0.000000 -1.000000
vn 0.000000 0.000000 -1.000000
vn 0.000000 0.000000 -1.000000
vn 0.000000 -0.000000 -1.000000
vn 0.000000 0.000000 -1.000000
vn -0.000000 1.000000 0.000000
vn 0.000000 1.000000 0.000000
vn -0.000000 1.000000 0.000000
vn 0.000000 1.000000 0.000000
vn -0.000000 1.000000 0.000000
vn 0.000000 1.000000 0.000000
vn 0.000000 1.000000 0.000000
vn 0.000000 1.000000 0.000000
vn -0.707107 0.000000 0.707107
vn -0.707107 0.000000 0.707107
vn -0.707107 0.000000 0.707107
vn -0.707107 0.000000 0.707107
vn -0.707108 0.000000 0.707106
vn -0.707107 -0.000000 0.707106
vn -0.707107 0.000000 0.707107
vn -0.707106 -0.000000 0.707108
vn -0.707107 0.000000 0.707107
vn -0.707107 0.000000 0.707107
vn -0.707107 0.000000 0.707107
vn -0.707107 -0.000000 0.707107
vn -0.707107 0.000000 0.707107
vn 0.000000 -1.000000 0.000000
vn 0.000000 -1.000000 0.000000
vn -0.000000 -1.000000 0.000000
vn 0.000000 -1.000000 0.000000
vn 0.000000 -1.000000 0.000000
vn -0.000000 -1.000000 0.000000
vn 0.707107 0.000000 -0.707107
vn 0.707108 0.000000 -0.707106
vn 0.707107 0.000000 -0.707107
vn 0.707106 0.000000 -0.707107
vn 0.707106 0.000000 -0.707108
vn 0.707107 0.000000 -0.707107
vn 0.707107 0.000000 -0.707107
vn 0.707107 0.000000 -0.707107
vn 0.707107 0.000000 -0.707107
vn 0.707107 0.000000 -0.707107
vn 0.707107 0.000000 -0.707107
vn 0.707107 -0.000001 -0.707106
vn 0.707107 -0.000000 -0.707107
vn 0.000000 1.000000 0.000000
vn 0.000000 1.000000 0.000000
vn 0.000000 1.000000 0.000000
vn 0.000000 1.000000 0.000000
vn 0.000000 1.000000 0.000000
vn 0.000000 1.000000 0.000000
vn 0.000000 1.000000 0.000000
vn 0.000000 1.000000 0.000000
vn 0.000000 1.000000 0.000000
vn -0.000000 1.000000 0.000000
vn 0.000000 1.000000 0.000000
vn 0.000000 1.000000 0.000000
vn -0.000000 1.000000 0.000000
vn 0.000000 1.000000 0.000000
vn -0.000000 1.000000 0.000000
vn -0.000000 1.000000 0.000000
vn -0.707107 0.000000 -0.707107
vn -0.707107 0.000000 -0.707107
vn -0.707107 0.000000 -0.707107
vn -0.707107 0.000000 -0.707107
vn -0.707106 0.000000 -0.707108
vn -0.707106 -0.000000 -0.707107
vn -0.707107 0.000000 -0.707107
vn -0.707108 -0.000000 -0.707106
vn -0.707107 0.000000 -0.707107
vn -0.707107 0.000000 -0.707107
vn -0.707107 0.000000 -0.707107
vn -0.707107 -0.000000 -0.707107
vn -0.707107 0.000000 -0.707107
vn 0.000000 -1.000000 0.000000
vn 0.000000 -1.000000 0.000000
vn 0.000000 -1.000000 0.000000
vn 0.000000 -1.000000 0.000000
vn 0.000000 -1.000000 0.000000
vn 0.000000 -1.000000 0.000000
vn 0.707107 -0.000000 0.707107
vn 0.707107 0.000000 0.707107
vn 0.707107 0.000000 0.707107
vn 0.707107 0.000000 0.707107
vn 0.707108 0.000000 0.707106
vn 0.707107 -0.000000 0.707106
vn 0.707107 -0.000000 0.707107
vn 0.707106 -0.000000 0.707108
vn 0.707107 0.000000 0.707107
vn 0.707107 0.000000 0.707107
vn 0.707107 0.000000 0.707107
vn 0.707107 -0.000000 0.707107
vn 0.707107 0.000000 0.707107
vn 0.000000 1.000000 0.000000
vn 0.000000 1.000000 0.000000
vn 0.000000 1.000000 0.000000
vn -0.000000 1.000000 0.000000
vn 0.000000 1.000000 0.000000
vn -0.000000 1.000000 0.000000
vn 0.000000 1.000000 0.000000
vn 0.000000 1.000000 0.000000
vn 0.000000 1.000000 0.000000
vn 0.000000 1.000000 0.000000
vn -0.000000 1.000000 0.000000
vn 0.000000 1.000000 0.000000
vn 0.000000 1.000000 0.000000
vn -0.000000 1.000000 0.000000
vn -0.000000 1.000000 0.000000
vn 0.000000 1.000000 0.000000
vn -0.000000 1.000000 0.000000
vn 0.000000 1.000000 0.000000
vn 0.000000 1.000000 0.000000
vn 0.000000 1.000000 0.000000
vn 0.000000 1.000000 0.000000
vn 0.000000 1.000000 0.000000
vn 0.000000 1.000000 0.000000
vn 0.000000 1.000000 0.000000
vn -0.000000 1.000000 0.000000
vn 0.000000 1.000000 0.000000
vn 0.000000 1.000000 0.000000
vn 0.000000 1.000000 0.000000
vn -0.000000 1.000000 0.000000
vn 0.000000 1.000000 0.000000
vn 0.000000 1.000000 0.000000
vn 0.000000 1.000000 0.000000
vn -0.000000 1.000000 0.000000
vn 0.000000 1.000000 0.000000
vn -0.000000 1.000000 0.000000
vn 0.000000 1.000000 0.000000
vn 0.000000 1.000000 0.000000
vn 0.000000 1.000000 0.000000
vn 0.000000 1.000000 0.000000
vn -0.000000 1.000000 0.000000
vn 0.992709 0.000000 -0.120537
vn 0.935016 -0.000509 -0.354605
vn 0.992379 0.000521 -0.123218
vn 0.932112 0.001019 -0.362170
vn 0.822979 0.003334 -0.568062
vn 0.816831 -0.001088 -0.576876
vn 0.727637 -0.000592 -0.685962
vn 0.707104 -0.002745 -0.707104
vn 0.663079 -0.011455 -0.748462
vn 0.685949 -0.006286 -0.727623
vn 0.815237 0.000000 -0.579128
vn 0.464715 -0.005786 -0.885441
vn 0.579128 0.000000 -0.815237
vn 0.595014 0.007746 -0.803678
vn 0.239312 -0.005821 -0.970925
vn 0.362163 0.006070 -0.932095
vn 0.000000 -0.005833 -0.999983
vn 0.123215 0.006093 -0.992361
vn -0.239312 -0.005821 -0.970925
vn -0.123215 0.006093 -0.992361
vn -0.464715 -0.005786 -0.885441
vn -0.362163 0.006070 -0.932095
vn -0.663079 -0.011455 -0.748462
vn -0.595014 0.007746 -0.803678
vn -0.685949 -0.006286 -0.727623
vn -0.707104 -0.002745 -0.707104
vn -0.727637 -0.000592 -0.685962
vn -0.822979 0.003334 -0.568062
vn -0.579128 0.000000 -0.815237
vn -0.816831 -0.001088 -0.576876
vn -0.815237 0.000000 -0.579128
vn -0.935016 -0.000509 -0.354605
vn -0.932112 0.001019 -0.362170
vn -0.992379 0.000521 -0.123218
vn -0.992709 0.000000 -0.120537
vn 0.704427 0.704427 -0.086985
vn 0.705034 0.703750 -0.087540
vn 0.662809 0.703108 -0.257533
vn 0.661458 0.705127 -0.255478
vn 0.580233 0.702447 -0.412186
vn 0.578227 0.705762 -0.409333
vn 0.580222 0.702463 -0.412175
vn 0.581743 0.702285 -0.410331
vn 0.704427 -0.704427 -0.086985
vn 0.705034 -0.703750 -0.087540
vn 0.661458 -0.705127 -0.255478
vn 0.662809 -0.703108 -0.257533
vn 0.581736 -0.702293 -0.410326
vn 0.578227 -0.705762 -0.409333
vn 0.581752 -0.702276 -0.410334
vn 0.580227 -0.702455 -0.412181
vn 0.992380 0.000000 -0.123218
vn 0.932112 0.000000 -0.362170
vn 0.992380 0.000000 -0.123218
vn 0.815237 0.000000 -0.579128
vn 0.932112 0.000000 -0.362170
vn 0.815237 0.000000 -0.579128
vn 0.000000 -1.000000 -0.000000
vn 0.000000 -1.000000 0.000000
vn 0.000000 -1.000000 -0.000000
vn 0.000000 -1.000000 0.000000
vn 0.000000 -1.000000 -0.000000
vn -0.000000 -1.000000 0.000000
vn 0.000000 -1.000000 0.000000
vn -0.704446 -0.444766 0.553117
vn -0.901079 -0.425355 0.084441
vn -0.855706 -0.455057 0.246354
vn -0.795505 -0.454029 0.401284
vn -0.716391 -0.430282 0.549219
vn -0.724256 -0.443105 0.528310
vn -0.839183 -0.428004 0.335535
vn -0.888670 -0.444335 0.113281
vn -0.880237 -0.467049 0.083956
vn -0.864249 -0.434547 0.253461
vn -0.888670 -0.444335 0.113280
vn -0.723121 -0.443165 0.529812
vn -0.800753 -0.434547 0.412266
vn -0.723305 -0.444467 0.528468
vn -0.831833 -0.444335 0.332596
vn -0.831833 -0.444335 0.332596
vn -0.820253 -0.468640 0.327966
vn -0.713093 -0.462947 0.526477
vn -0.580233 0.702447 -0.412186
vn -0.580222 0.702463 -0.412175
vn -0.581743 0.702285 -0.410331
vn -0.578227 0.705762 -0.409333
vn -0.662809 0.703108 -0.257533
vn -0.661458 0.705127 -0.255478
vn -0.705034 0.703750 -0.087540
vn -0.704427 0.704427 -0.086985
vn -0.581736 -0.702293 -0.410326
vn -0.581752 -0.702276 -0.410334
vn -0.580227 -0.702455 -0.412181
vn -0.578227 -0.705762 -0.409333
vn -0.661458 -0.705127 -0.255478
vn -0.662809 -0.703108 -0.257533
vn -0.704427 -0.704427 -0.086985
vn -0.705034 -0.703750 -0.087540
vn -0.815237 0.000000 -0.579128
vn -0.815237 0.000000 -0.579128
vn -0.932112 0.000000 -0.362170
vn -0.932112 0.000000 -0.362170
vn -0.992380 0.000000 -0.123218
vn -0.992380 0.000000 -0.123218
vn -0.000000 -1.000000 0.000000
vn 0.000000 -1.000000 -0.000000
vn -0.000000 -1.000000 0.000000
vn 0.000000 -1.000000 -0.000000
vn -0.000000 -1.000000 0.000000
vn 0.000000 -1.000000 -0.000000
vn 0.000000 -1.000000 -0.000000
vn 0.704446 -0.444766 0.553117
vn 0.724256 -0.443105 0.528310
vn 0.716391 -0.430282 0.549219
vn 0.795505 -0.454029 0.401284
vn 0.855706 -0.455057 0.246354
vn 0.901079 -0.425355 0.084441
vn 0.839183 -0.428004 0.335535
vn 0.723121 -0.443165 0.529812
vn 0.800753 -0.434547 0.412266
vn 0.723305 -0.444467 0.528468
vn 0.831833 -0.444335 0.332596
vn 0.713093 -0.462947 0.526477
vn 0.888670 -0.444335 0.113281
vn 0.864249 -0.434547 0.253461
vn 0.880237 -0.467049 0.083956
vn 0.888670 -0.444335 0.113280
vn 0.831833 -0.444335 0.332596
vn 0.820253 -0.468640 0.327966
vn 0.000000 -1.000000 0.000000
vn 0.000000 -1.000000 -0.000000
vn 0.000000 -1.000000 -0.000000
vn 0.000000 -1.000000 0.000000
vn 0.000000 -1.000000 -0.000000
vn 0.000000 -1.000000 0.000000
vn 0.000000 -1.000000 -0.000000
vn -0.000000 -1.000000 0.000000
vn 0.000000 -1.000000 -0.000000
vn -0.000000 -1.000000 0.000000
vn 0.000000 -1.000000 -0.000000
vn -0.000000 -1.000000 0.000000
vn -0.000000 -1.000000 0.000000
vn -0.553117 -0.444766 0.704446
vn 0.535712 -0.443694 0.718435
vn -0.528310 -0.443105 0.724256
vn -0.537525 -0.437517 0.720865
vn -0.369739 -0.451061 0.812304
vn -0.188563 -0.456661 0.869428
vn -0.334888 -0.431668 0.837564
vn -0.529812 -0.443165 0.723121
vn -0.412266 -0.434547 0.800753
vn -0.528468 -0.444467 0.723305
vn -0.526477 -0.462947 0.713093
vn 0.000000 -0.458517 0.888686
vn -0.114259 -0.428372 0.896349
vn -0.253461 -0.434547 0.864249
vn -0.327966 -0.468640 0.820253
vn -0.332596 -0.444335 0.831833
vn -0.332596 -0.444335 0.831833
vn 0.188563 -0.456661 0.869428
vn 0.114259 -0.428372 0.896349
vn -0.085001 -0.445595 0.891190
vn 0.085001 -0.445595 0.891190
vn -0.113280 -0.444335 0.888670
vn -0.113280 -0.444335 0.888670
vn -0.112102 -0.462654 0.879423
vn 0.369739 -0.451061 0.812304
vn 0.528307 -0.443084 0.724271
vn 0.334888 -0.431668 0.837564
vn 0.531964 -0.438265 0.724526
vn 0.253461 -0.434547 0.864249
vn 0.112102 -0.462653 0.879423
vn 0.113280 -0.444335 0.888670
vn 0.113280 -0.444335 0.888670
vn 0.529827 -0.443150 0.723119
vn 0.412266 -0.434547 0.800753
vn 0.546067 -0.467049 0.695468
vn 0.332596 -0.444335 0.831833
vn 0.332596 -0.444335 0.831833
vn 0.528468 -0.444467 0.723305
vn 0.327966 -0.468640 0.820253
vn 0.412186 0.702447 -0.580233
vn 0.412175 0.702463 -0.580222
vn 0.410331 0.702285 -0.581743
vn 0.409333 0.705762 -0.578227
vn 0.257533 0.703108 -0.662809
vn 0.255478 0.705127 -0.661458
vn 0.087540 0.703750 -0.705034
vn 0.086985 0.704427 -0.704427
vn -0.087540 0.703750 -0.705034
vn -0.086985 0.704427 -0.704427
vn -0.257533 0.703108 -0.662809
vn -0.255478 0.705127 -0.661458
vn -0.412181 0.702455 -0.580227
vn -0.409333 0.705762 -0.578228
vn -0.410334 0.702276 -0.581752
vn -0.410326 0.702293 -0.581736
vn 0.410326 -0.702293 -0.581736
vn 0.410334 -0.702276 -0.581752
vn 0.412181 -0.702455 -0.580227
vn 0.409333 -0.705762 -0.578228
vn 0.255478 -0.705127 -0.661458
vn 0.257533 -0.703108 -0.662809
vn 0.086985 -0.704427 -0.704427
vn 0.087540 -0.703750 -0.705034
vn -0.086985 -0.704427 -0.704427
vn -0.087540 -0.703750 -0.705034
vn -0.255478 -0.705127 -0.661458
vn -0.257533 -0.703108 -0.662809
vn -0.410331 -0.702285 -0.581743
vn -0.409333 -0.705762 -0.578228
vn -0.412175 -0.702463 -0.580222
vn -0.412186 -0.702447 -0.580233
vn 0.579128 0.000000 -0.815237
vn 0.579128 0.000000 -0.815237
vn 0.362170 0.000000 -0.932112
vn 0.362170 0.000000 -0.932112
vn 0.123218 -0.000000 -0.992380
vn -0.123218 0.000000 -0.992380
vn 0.123218 0.000000 -0.992380
vn -0.362170 0.000000 -0.932112
vn -0.123218 0.000000 -0.992380
vn -0.579128 0.000000 -0.815237
vn -0.362170 0.000000 -0.932112
vn -0.579128 0.000000 -0.815237
f 1//1 2//1 3//1
f 4//2 5//2 2//2
f 4//3 2//3 1//3
f 6//4 7//4 5//4
f 6//5 5//5 4//5
f 8//6 7//6 6//6
f 9//7 7//7 8//7
f 10//8 9//8 8//8
f 11//9 9//9 10//9
f 12//10 11//10 10//10
f 13//11 11//11 12//11
f 14//12 12//12 15//12
f 14//13 13//13 12//13
f 16//14 15//14 17//14
f 16//15 14//15 15//15
f 18//16 17//16 19//16
f 18//17 16//17 17//17
f 20//18 19//18 21//18
f 20//19 18//19 19//19
f 22//20 23//20 24//20
f 22//21 24//21 25//21
f 26//22 21//22 27//22
f 26//23 20//23 21//23
f 28//24 29//24 23//24
f 28//25 23//25 22//25
f 30//26 27//26 31//26
f 30//27 26//27 27//27
f 32//28 33//28 29//28
f 32//29 29//29 28//29
f 34//30 30//30 31//30
f 35//31 33//31 32//31
f 35//32 36//32 33//32
f 37//33 34//33 31//33
f 37//34 31//34 36//34
f 37//35 36//35 35//35
f 1//36 38//36 39//36
f 4//37 39//37 40//37
f 4//38 1//38 39//38
f 6//39 40//39 41//39
f 6//40 4//40 40//40
f 8//41 6//41 41//41
f 42//42 41//42 43//42
f 42//43 8//43 41//43
f 44//44 45//44 46//44
f 10//45 42//45 47//45
f 10//46 47//46 48//46
f 10//47 48//47 44//47
f 10//48 8//48 42//48
f 12//49 10//49 44//49
f 12//50 44//50 46//50
f 15//51 46//51 49//51
f 15//52 12//52 46//52
f 17//53 49//53 50//53
f 17//54 15//54 49//54
f 19//55 50//55 51//55
f 19//56 51//56 52//56
f 19//57 17//57 50//57
f 21//58 52//58 53//58
f 21//59 19//59 52//59
f 27//60 53//60 54//60
f 27//61 21//61 53//61
f 31//62 27//62 54//62
f 55//63 31//63 54//63
f 55//64 54//64 56//64
f 57//65 58//65 59//65
f 36//66 31//66 55//66
f 36//67 55//67 60//67
f 36//68 60//68 61//68
f 36//69 61//69 57//69
f 33//70 36//70 57//70
f 33//71 57//71 59//71
f 29//72 33//72 59//72
f 29//73 59//73 62//73
f 23//74 62//74 63//74
f 23//75 29//75 62//75
f 24//76 63//76 64//76
f 24//77 23//77 63//77
f 65//78 3//78 2//78
f 65//79 66//79 3//79
f 67//80 2//80 5//80
f 67//81 65//81 2//81
f 68//82 5//82 7//82
f 68//83 67//83 5//83
f 69//84 7//84 9//84
f 69//85 68//85 7//85
f 70//86 9//86 11//86
f 70//87 69//87 9//87
f 71//88 11//88 13//88
f 71//89 70//89 11//89
f 72//90 13//90 14//90
f 72//91 71//91 13//91
f 73//92 14//92 16//92
f 73//93 72//93 14//93
f 74//94 16//94 18//94
f 74//95 73//95 16//95
f 75//96 18//96 20//96
f 75//97 74//97 18//97
f 76//98 20//98 26//98
f 76//99 75//99 20//99
f 77//100 26//100 30//100
f 77//101 76//101 26//101
f 78//102 30//102 34//102
f 78//103 34//103 37//103
f 78//104 77//104 30//104
f 79//105 37//105 35//105
f 79//106 78//106 37//106
f 80//107 79//107 35//107
f 80//108 35//108 32//108
f 81//109 80//109 32//109
f 81//110 32//110 28//110
f 82//111 81//111 28//111
f 82//112 28//112 22//112
f 83//113 82//113 22//113
f 84//114 83//114 22//114
f 84//115 22//115 25//115
f 85//116 38//116 86//116
f 86//117 38//117 87//117
f 38//118 88//118 87//118
f 38//119 89//119 88//119
f 89//120 90//120 88//120
f 66//121 1//121 3//121
f 38//122 1//122 89//122
f 66//123 91//123 1//123
f 1//124 91//124 89//124
f 64//125 92//125 93//125
f 64//126 93//126 94//126
f 95//127 64//127 94//127
f 96//128 64//128 95//128
f 97//129 96//129 95//129
f 24//130 84//130 25//130
f 24//131 64//131 96//131
f 98//132 84//132 24//132
f 98//133 24//133 96//133
f 63//134 99//134 92//134
f 63//135 92//135 64//135
f 62//136 100//136 99//136
f 62//137 99//137 63//137
f 59//138 101//138 100//138
f 59//139 100//139 62//139
f 58//140 101//140 59//140
f 102//141 101//141 58//141
f 103//142 58//142 57//142
f 103//143 57//143 104//143
f 105//144 103//144 106//144
f 105//145 58//145 103//145
f 107//146 106//146 108//146
f 107//147 105//147 106//147
f 109//148 107//148 108//148
f 110//149 109//149 108//149
f 111//150 102//150 58//150
f 111//151 58//151 105//151
f 112//152 111//152 105//152
f 113//153 114//153 112//153
f 113//154 112//154 105//154
f 115//155 55//155 116//155
f 104//156 57//156 117//156
f 57//157 61//157 117//157
f 117//158 60//158 115//158
f 115//159 60//159 55//159
f 61//160 60//160 117//160
f 55//161 118//161 116//161
f 119//162 120//162 121//162
f 119//163 121//163 122//163
f 123//164 122//164 118//164
f 123//165 119//165 122//165
f 124//166 123//166 118//166
f 56//167 118//167 55//167
f 56//168 124//168 118//168
f 125//169 56//169 126//169
f 125//170 124//170 56//170
f 127//171 124//171 125//171
f 128//172 127//172 125//172
f 129//173 127//173 128//173
f 130//174 126//174 56//174
f 130//175 56//175 54//175
f 131//176 54//176 53//176
f 131//177 130//177 54//177
f 132//178 53//178 52//178
f 132//179 131//179 53//179
f 133//180 52//180 51//180
f 133//181 132//181 52//181
f 50//182 133//182 51//182
f 134//183 133//183 50//183
f 49//184 134//184 50//184
f 135//185 49//185 46//185
f 135//186 134//186 49//186
f 136//187 46//187 45//187
f 136//188 135//188 46//188
f 137//189 136//189 45//189
f 138//190 45//190 44//190
f 138//191 44//191 139//191
f 140//192 138//192 141//192
f 140//193 45//193 138//193
f 142//194 141//194 143//194
f 142//195 140//195 141//195
f 144//196 142//196 143//196
f 145//197 144//197 143//197
f 146//198 137//198 45//198
f 146//199 45//199 140//199
f 147//200 146//200 140//200
f 148//201 149//201 147//201
f 148//202 147//202 140//202
f 150//203 151//203 42//203
f 151//204 47//204 42//204
f 47//205 152//205 48//205
f 151//206 152//206 47//206
f 152//207 44//207 48//207
f 152//208 139//208 44//208
f 43//209 153//209 42//209
f 42//210 153//210 150//210
f 153//211 154//211 155//211
f 43//212 154//212 153//212
f 155//213 156//213 157//213
f 154//214 156//214 155//214
f 156//215 158//215 157//215
f 158//216 159//216 157//216
f 160//217 161//217 43//217
f 43//218 161//218 154//218
f 161//219 162//219 154//219
f 163//220 164//220 162//220
f 162//221 164//221 154//221
f 39//222 38//222 85//222
f 165//223 39//223 85//223
f 40//224 39//224 165//224
f 166//225 41//225 40//225
f 166//226 40//226 165//226
f 167//227 43//227 41//227
f 167//228 41//228 166//228
f 160//229 43//229 167//229
f 98//230 83//230 84//230
f 168//231 82//231 83//231
f 168//232 83//232 98//232
f 169//233 80//233 81//233
f 169//234 81//234 82//234
f 169//235 82//235 168//235
f 170//236 80//236 169//236
f 79//237 80//237 170//237
f 171//238 79//238 170//238
f 78//239 79//239 171//239
f 77//240 171//240 172//240
f 77//241 78//241 171//241
f 76//242 172//242 173//242
f 76//243 77//243 172//243
f 75//244 76//244 173//244
f 74//245 173//245 174//245
f 74//246 75//246 173//246
f 65//247 175//247 91//247
f 65//248 91//248 66//248
f 73//249 174//249 176//249
f 73//250 74//250 174//250
f 67//251 177//251 175//251
f 67//252 175//252 65//252
f 72//253 176//253 178//253
f 72//254 73//254 176//254
f 68//255 177//255 67//255
f 71//256 72//256 178//256
f 69//257 179//257 177//257
f 69//258 177//258 68//258
f 70//259 178//259 179//259
f 70//260 179//260 69//260
f 70//261 71//261 178//261
f 89//262 91//262 175//262
f 180//263 175//263 177//263
f 180//264 89//264 175//264
f 181//265 180//265 177//265
f 150//266 177//266 179//266
f 150//267 181//267 177//267
f 151//268 150//268 179//268
f 152//269 151//269 179//269
f 139//270 179//270 178//270
f 139//271 152//271 179//271
f 153//272 181//272 150//272
f 182//273 178//273 176//273
f 182//274 138//274 139//274
f 182//275 139//275 178//275
f 183//276 176//276 174//276
f 183//277 182//277 176//277
f 184//278 174//278 173//278
f 184//279 183//279 174//279
f 185//280 173//280 172//280
f 185//281 184//281 173//281
f 186//282 172//282 171//282
f 186//283 185//283 172//283
f 116//284 171//284 170//284
f 116//285 186//285 171//285
f 115//286 116//286 170//286
f 117//287 115//287 170//287
f 104//288 117//288 170//288
f 169//289 104//289 170//289
f 118//290 186//290 116//290
f 187//291 104//291 169//291
f 187//292 103//292 104//292
f 188//293 169//293 168//293
f 188//294 187//294 169//294
f 96//295 188//295 168//295
f 96//296 168//296 98//296
f 189//297 90//297 89//297
f 189//298 89//298 180//298
f 190//299 180//299 181//299
f 190//300 189//300 180//300
f 155//301 181//301 153//301
f 157//302 190//302 181//302
f 157//303 181//303 155//303
f 159//304 190//304 157//304
f 189//305 88//305 90//305
f 191//306 88//306 189//306
f 190//307 191//307 189//307
f 192//308 191//308 190//308
f 158//309 190//309 159//309
f 156//310 192//310 190//310
f 156//311 190//311 158//311
f 154//312 192//312 156//312
f 87//313 88//313 191//313
f 193//314 191//314 192//314
f 193//315 87//315 191//315
f 194//316 192//316 154//316
f 194//317 193//317 192//317
f 164//318 194//318 154//318
f 195//319 86//319 87//319
f 193//320 195//320 87//320
f 196//321 195//321 193//321
f 194//322 196//322 193//322
f 197//323 196//323 194//323
f 164//324 163//324 197//324
f 164//325 197//325 194//325
f 160//326 167//326 161//326
f 198//327 86//327 195//327
f 198//328 195//328 196//328
f 199//329 196//329 197//329
f 199//330 197//330 163//330
f 199//331 163//331 162//331
f 199//332 198//332 196//332
f 200//333 85//333 86//333
f 200//334 165//334 85//334
f 200//335 166//335 165//335
f 200//336 86//336 198//336
f 201//337 162//337 161//337
f 201//338 167//338 166//338
f 201//339 199//339 162//339
f 201//340 198//340 199//340
f 201//341 200//341 198//341
f 201//342 166//342 200//342
f 201//343 161//343 167//343
f 187//344 106//344 103//344
f 187//345 108//345 106//345
f 202//346 110//346 108//346
f 202//347 108//347 187//347
f 188//348 202//348 187//348
f 203//349 202//349 188//349
f 96//350 203//350 188//350
f 97//351 203//351 96//351
f 202//352 109//352 110//352
f 202//353 107//353 109//353
f 204//354 105//354 107//354
f 204//355 107//355 202//355
f 205//356 202//356 203//356
f 205//357 204//357 202//357
f 95//358 203//358 97//358
f 95//359 205//359 203//359
f 206//360 113//360 105//360
f 206//361 105//361 204//361
f 207//362 204//362 205//362
f 207//363 206//363 204//363
f 94//364 205//364 95//364
f 94//365 207//365 205//365
f 208//366 207//366 94//366
f 208//367 94//367 93//367
f 209//368 206//368 207//368
f 209//369 207//369 208//369
f 210//370 113//370 206//370
f 210//371 206//371 209//371
f 114//372 113//372 210//372
f 101//373 102//373 111//373
f 211//374 112//374 114//374
f 211//375 114//375 210//375
f 211//376 210//376 209//376
f 212//377 209//377 208//377
f 212//378 208//378 93//378
f 212//379 211//379 209//379
f 213//380 111//380 112//380
f 213//381 100//381 101//381
f 213//382 112//382 211//382
f 213//383 211//383 212//383
f 213//384 101//384 111//384
f 214//385 93//385 92//385
f 214//386 99//386 100//386
f 214//387 92//387 99//387
f 214//388 212//388 93//388
f 214//389 213//389 212//389
f 214//390 100//390 213//390
f 215//391 149//391 148//391
f 215//392 148//392 216//392
f 217//393 216//393 218//393
f 217//394 215//394 216//394
f 219//395 218//395 220//395
f 219//396 217//396 218//396
f 221//397 220//397 222//397
f 221//398 219//398 220//398
f 223//399 222//399 224//399
f 223//400 221//400 222//400
f 225//401 224//401 127//401
f 225//402 223//402 224//402
f 129//403 225//403 127//403
f 136//404 137//404 146//404
f 128//405 225//405 129//405
f 226//406 147//406 149//406
f 226//407 149//407 215//407
f 226//408 215//408 217//408
f 227//409 217//409 219//409
f 227//410 226//410 217//410
f 228//411 146//411 147//411
f 228//412 135//412 136//412
f 228//413 147//413 226//413
f 228//414 136//414 146//414
f 229//415 219//415 221//415
f 229//416 227//416 219//416
f 230//417 134//417 135//417
f 230//418 135//418 228//418
f 230//419 228//419 226//419
f 230//420 226//420 227//420
f 231//421 221//421 223//421
f 231//422 229//422 221//422
f 232//423 133//423 134//423
f 232//424 132//424 133//424
f 232//425 227//425 229//425
f 232//426 230//426 227//426
f 232//427 134//427 230//427
f 233//428 223//428 225//428
f 233//429 128//429 125//429
f 233//430 231//430 223//430
f 233//431 225//431 128//431
f 234//432 131//432 132//432
f 234//433 132//433 232//433
f 234//434 232//434 229//434
f 234//435 229//435 231//435
f 235//436 125//436 126//436
f 235//437 130//437 131//437
f 235//438 126//438 130//438
f 235//439 231//439 233//439
f 235//440 234//440 231//440
f 235//441 233//441 125//441
f 235//442 131//442 234//442
f 182//443 141//443 138//443
f 182//444 143//444 141//444
f 236//445 145//445 143//445
f 236//446 143//446 182//446
f 183//447 236//447 182//447
f 237//448 236//448 183//448
f 184//449 237//449 183//449
f 238//450 237//450 184//450
f 239//451 184//451 185//451
f 239//452 238//452 184//452
f 240//453 185//453 186//453
f 240//454 239//454 185//454
f 122//455 186//455 118//455
f 122//456 240//456 186//456
f 121//457 240//457 122//457
f 120//458 240//458 121//458
f 236//459 144//459 145//459
f 236//460 142//460 144//460
f 241//461 140//461 142//461
f 241//462 142//462 236//462
f 242//463 236//463 237//463
f 242//464 241//464 236//464
f 243//465 237//465 238//465
f 243//466 242//466 237//466
f 239//467 243//467 238//467
f 244//468 243//468 239//468
f 240//469 244//469 239//469
f 245//470 244//470 240//470
f 119//471 240//471 120//471
f 119//472 245//472 240//472
f 123//473 245//473 119//473
f 124//474 245//474 123//474
f 216//475 148//475 140//475
f 216//476 140//476 241//476
f 218//477 241//477 242//477
f 218//478 216//478 241//478
f 220//479 242//479 243//479
f 220//480 243//480 244//480
f 220//481 218//481 242//481
f 222//482 244//482 245//482
f 222//483 220//483 244//483
f 224//484 245//484 124//484
f 224//485 222//485 245//485
f 127//486 224//486 124//486
