# Created by FreeCAD <https://www.freecad.org>
v -4.000000 4.000000 0.000000
v -5.918168 4.000000 0.987568
v -6.000000 4.000000 0.000000
v -3.912591 4.000000 0.831647
v -5.674903 4.000000 1.948197
v -3.654182 4.000000 1.626947
v -5.276843 4.000000 2.855684
v -3.236068 4.000000 2.351141
v -4.734843 4.000000 3.685276
v -2.676522 4.000000 2.972579
v -4.063689 4.000000 4.414343
v -3.281689 4.000000 5.022999
v -2.000000 4.000000 3.464102
v -2.410172 4.000000 5.494640
v -1.236068 4.000000 3.804226
v -1.472913 4.000000 5.816401
v -0.418114 4.000000 3.978088
v -0.495476 4.000000 5.979507
v 0.495476 4.000000 5.979507
v 0.418114 4.000000 3.978088
v 5.918168 4.000000 0.987568
v 3.912591 4.000000 0.831647
v 4.000000 4.000000 0.000000
v 6.000000 4.000000 0.000000
v 1.472913 4.000000 5.816401
v 1.236068 4.000000 3.804226
v 5.674903 4.000000 1.948197
v 3.654182 4.000000 1.626947
v 2.410172 4.000000 5.494640
v 2.000000 4.000000 3.464102
v 5.276843 4.000000 2.855684
v 3.236068 4.000000 2.351141
v 3.281689 4.000000 5.022999
v 2.676522 4.000000 2.972579
v 4.734843 4.000000 3.685276
v 4.063689 4.000000 4.414343
v -4.000000 -0.500000 0.000000
v -3.928229 -0.500000 0.754334
v -3.715490 -0.500000 1.481599
v -3.369418 -0.500000 2.155695
v -2.902433 2.500000 2.752433
v -2.902433 -0.500000 2.752433
v -2.752433 2.500000 2.902433
v -2.752433 -0.500000 2.902433
v -2.155695 -0.500000 3.369418
v -2.853319 2.500000 2.803314
v -2.803314 2.500000 2.853319
v -1.481599 -0.500000 3.715490
v -0.754334 -0.500000 3.928229
v -0.000000 -0.500000 4.000000
v 0.754334 -0.500000 3.928229
v 1.481599 -0.500000 3.715490
v 2.155695 -0.500000 3.369418
v 2.752433 2.500000 2.902433
v 2.752433 -0.500000 2.902433
v 2.902433 2.500000 2.752433
v 2.902433 -0.500000 2.752433
v 3.369418 -0.500000 2.155695
v 2.803314 2.500000 2.853319
v 2.853319 2.500000 2.803314
v 3.715490 -0.500000 1.481599
v 3.928229 -0.500000 0.754334
v 4.000000 -0.500000 0.000000
v -5.918168 5.000000 0.987568
v -6.000000 5.000000 0.000000
v -5.674903 5.000000 1.948197
v -5.276843 5.000000 2.855684
v -4.734843 5.000000 3.685276
v -4.063689 5.000000 4.414343
v -3.281689 5.000000 5.022999
v -2.410172 5.000000 5.494640
v -1.472913 5.000000 5.816401
v -0.495476 5.000000 5.979507
v 0.495476 5.000000 5.979507
v 1.472913 5.000000 5.816401
v 2.410172 5.000000 5.494640
v 3.281689 5.000000 5.022999
v 4.063689 5.000000 4.414343
v 4.734843 5.000000 3.685276
v 5.276843 5.000000 2.855684
v 5.674903 5.000000 1.948197
v 5.918168 5.000000 0.987568
v 6.000000 5.000000 0.000000
v -4.300000 -0.500000 0.000000
v -2.800000 -3.500000 0.000000
v -2.400000 -3.500000 0.000000
v -2.400000 1.600000 0.000000
v -2.400000 2.000000 0.000000
v -2.200000 1.800000 0.000000
v -2.400000 5.000000 0.000000
v 4.300000 -0.500000 0.000000
v 2.800000 -3.500000 0.000000
v 2.400000 -3.500000 0.000000
v 2.400000 1.600000 0.000000
v 2.400000 2.000000 0.000000
v 2.200000 1.800000 0.000000
v 2.400000 5.000000 0.000000
v 4.222470 -0.500000 0.812863
v 3.992676 -0.500000 1.596414
v 3.618905 -0.500000 2.322397
v 3.114634 -0.500000 2.964634
v 1.770398 2.000000 1.620398
v 1.770398 2.500000 1.620398
v 1.770398 1.600000 1.620398
v 1.733842 1.948353 1.583842
v 1.698073 1.702180 1.548072
v 1.698073 1.897820 1.548072
v 1.663073 1.751623 1.513073
v 1.628826 1.800000 1.478826
v 2.805269 -1.374720 2.655269
v 2.527369 -2.160411 2.377369
v 1.770398 -3.500000 1.620398
v 2.053478 -3.500000 1.903478
v 1.721879 2.500000 1.671865
v 1.671865 2.500000 1.721879
v 1.620398 2.500000 1.770398
v 1.548072 1.702180 1.698073
v 1.478826 1.800000 1.628826
v 1.513073 1.848377 1.663073
v 1.548072 1.897820 1.698073
v 1.583842 1.651647 1.733842
v 1.620398 2.000000 1.770398
v 1.620398 1.600000 1.770398
v 2.377369 -2.160411 2.527369
v 2.964634 -0.500000 3.114634
v 1.620398 -3.500000 1.770398
v 2.127731 -2.866127 2.277731
v 1.903478 -3.500000 2.053478
v 2.322397 -0.500000 3.618905
v 1.596414 -0.500000 3.992676
v 0.812863 -0.500000 4.222470
v -0.000000 -0.500000 4.300000
v -0.812863 -0.500000 4.222470
v -1.596414 -0.500000 3.992676
v -2.322397 -0.500000 3.618905
v -2.964634 -0.500000 3.114634
v -1.620398 2.000000 1.770398
v -1.620398 2.500000 1.770398
v -1.620398 1.600000 1.770398
v -1.583842 1.948353 1.733842
v -1.548072 1.702180 1.698073
v -1.548072 1.897820 1.698073
v -1.513073 1.751623 1.663073
v -1.478826 1.800000 1.628826
v -2.655269 -1.374720 2.805269
v -2.377369 -2.160411 2.527369
v -1.620398 -3.500000 1.770398
v -1.903478 -3.500000 2.053478
v -1.770398 2.500000 1.620398
v -1.721879 2.500000 1.671865
v -1.671865 2.500000 1.721879
v -1.770398 2.000000 1.620398
v -1.770398 1.600000 1.620398
v -1.733842 1.948353 1.583842
v -1.698073 1.702180 1.548072
v -1.698073 1.897820 1.548072
v -1.663073 1.751623 1.513073
v -1.628826 1.800000 1.478826
v -3.114634 -0.500000 2.964634
v -2.805269 -1.374720 2.655269
v -2.527369 -2.160411 2.377369
v -2.053478 -3.500000 1.903478
v -1.770398 -3.500000 1.620398
v -4.222470 -0.500000 0.812863
v -3.992676 -0.500000 1.596414
v -3.618905 -0.500000 2.322397
v 2.330260 5.000000 0.574358
v 2.125094 5.000000 1.115336
v 1.796426 5.000000 1.591494
v 1.363355 5.000000 1.975161
v 0.851052 5.000000 2.244039
v 0.289288 5.000000 2.382501
v -0.289288 5.000000 2.382501
v -2.330260 5.000000 0.574358
v -0.851052 5.000000 2.244039
v -2.125094 5.000000 1.115336
v -1.363355 5.000000 1.975161
v -1.796426 5.000000 1.591494
v -2.327124 2.000000 0.586938
v -2.112920 2.000000 1.138231
v -1.138231 2.000000 2.112920
v -0.586938 2.000000 2.327124
v -0.000000 2.000000 2.400000
v 0.586938 2.000000 2.327124
v 1.138231 2.000000 2.112920
v 2.112920 2.000000 1.138231
v 2.327124 2.000000 0.586938
v -2.133916 1.800000 0.535166
v -1.939634 1.800000 1.038181
v -2.327124 1.600000 0.586938
v -2.112920 1.600000 1.138231
v -2.327124 -3.500000 0.586938
v -2.112920 -3.500000 1.138231
v -2.751250 -3.500000 0.520216
v -2.606697 -3.500000 1.022316
v -2.371375 -3.500000 1.488819
v -3.194471 -2.500000 0.827863
v -2.884632 -2.500000 1.602778
v -3.678481 -1.500000 0.953297
v -3.321697 -1.500000 1.845623
v 1.939634 1.800000 1.038181
v 2.133916 1.800000 0.535166
v 2.112920 1.600000 1.138231
v 2.327124 1.600000 0.586938
v 2.112920 -3.500000 1.138231
v 2.327124 -3.500000 0.586938
v 2.751250 -3.500000 0.520216
v 2.606697 -3.500000 1.022316
v 2.371375 -3.500000 1.488819
v 2.884632 -2.500000 1.602778
v 3.194471 -2.500000 0.827863
v 3.321697 -1.500000 1.845623
v 3.678481 -1.500000 0.953297
v -1.424988 -3.500000 2.410272
v -1.138231 -3.500000 2.112920
v -0.881745 -3.500000 2.657541
v -0.586938 -3.500000 2.327124
v -0.298435 -3.500000 2.784050
v -0.000000 -3.500000 2.400000
v 0.298435 -3.500000 2.784050
v 0.586938 -3.500000 2.327124
v 0.881745 -3.500000 2.657541
v 1.138231 -3.500000 2.112920
v 1.424988 -3.500000 2.410272
v -1.602778 -2.500000 2.884632
v -0.827863 -2.500000 3.194471
v -1.845623 -1.500000 3.321697
v -0.000000 -2.500000 3.300000
v -0.953297 -1.500000 3.678481
v 0.827863 -2.500000 3.194471
v -0.000000 -1.500000 3.800000
v 1.602778 -2.500000 2.884632
v 0.953297 -1.500000 3.678481
v 1.845623 -1.500000 3.321697
v -1.038181 1.800000 1.939634
v -0.535166 1.800000 2.133916
v -0.000000 1.800000 2.200000
v 0.535166 1.800000 2.133916
v 1.038181 1.800000 1.939634
v -1.138231 1.600000 2.112920
v -0.586938 1.600000 2.327124
v -0.000000 1.600000 2.400000
v 0.586938 1.600000 2.327124
v 1.138231 1.600000 2.112920
vn 0.000000 -1.000000 0.000000
vn 0.000000 -1.000000 0.000000
vn -0.000000 -1.000000 0.000000
vn 0.000000 -1.000000 0.000000
vn -0.000000 -1.000000 0.000000
vn 0.000000 -1.000000 0.000000
vn -0.000000 -1.000000 0.000000
vn -0.000000 -1.000000 0.000000
vn 0.000000 -1.000000 -0.000000
vn 0.000000 -1.000000 0.000000
vn 0.000000 -1.000000 -0.000000
vn 0.000000 -1.000000 0.000000
vn 0.000000 -1.000000 -0.000000
vn 0.000000 -1.000000 0.000000
vn 0.000000 -1.000000 -0.000000
vn 0.000000 -1.000000 -0.000000
vn 0.000000 -1.000000 0.000000
vn -0.000000 -1.000000 0.000000
vn 0.000000 -1.000000 0.000000
vn 0.000000 -1.000000 -0.000000
vn 0.000000 -1.000000 0.000000
vn -0.000000 -1.000000 0.000000
vn 0.000000 -1.000000 0.000000
vn 0.000000 -1.000000 -0.000000
vn 0.000000 -1.000000 0.000000
vn -0.000000 -1.000000 0.000000
vn 0.000000 -1.000000 0.000000
vn 0.000000 -1.000000 -0.000000
vn -0.000000 -1.000000 0.000000
vn 0.000000 -1.000000 0.000000
vn 0.000000 -1.000000 0.000000
vn 0.000000 -1.000000 -0.000000
vn -0.000000 -1.000000 0.000000
vn 0.000000 -1.000000 -0.000000
vn -0.995504 0.000000 0.094718
vn -0.959779 -0.001488 0.280754
vn -0.994521 0.001660 0.104528
vn -0.889610 -0.002632 0.456713
vn -0.951052 0.002976 0.309016
vn -0.866019 0.003947 0.499996
vn -0.787522 0.000000 0.616286
vn -0.776838 -0.004328 0.629686
vn -0.616286 0.000000 0.787522
vn -0.719481 0.006433 0.694482
vn -0.707102 0.003550 0.707102
vn -0.694496 0.001499 0.719495
vn -0.743075 0.013717 0.669068
vn -0.456713 -0.002916 0.889609
vn -0.587766 -0.008087 0.808991
vn -0.603419 0.004099 0.797414
vn -0.280752 -0.003607 0.959774
vn -0.406733 0.004178 0.913537
vn -0.094717 -0.003953 0.995496
vn -0.207909 0.004697 0.978137
vn 0.094717 -0.003953 0.995496
vn 0.000000 0.004869 0.999988
vn 0.280752 -0.003607 0.959774
vn 0.207909 0.004697 0.978137
vn 0.456713 -0.002916 0.889609
vn 0.406733 0.004178 0.913537
vn 0.603419 0.004099 0.797414
vn 0.616286 0.000000 0.787522
vn 0.787522 0.000000 0.616286
vn 0.587766 -0.008087 0.808991
vn 0.694496 0.001499 0.719495
vn 0.707102 0.003550 0.707102
vn 0.719481 0.006433 0.694482
vn 0.776838 -0.004328 0.629686
vn 0.743075 0.013717 0.669068
vn 0.866019 0.003947 0.499996
vn 0.889610 -0.002632 0.456713
vn 0.959779 -0.001488 0.280754
vn 0.951052 0.002976 0.309016
vn 0.994521 0.001660 0.104528
vn 0.995504 0.000000 0.094718
vn -0.996585 0.000000 0.082580
vn -0.996585 0.000000 0.082580
vn -0.969400 0.000000 0.245485
vn -0.969400 0.000000 0.245485
vn -0.915773 0.000000 0.401695
vn -0.915773 0.000000 0.401695
vn -0.837167 0.000000 0.546948
vn -0.735724 0.000000 0.677282
vn -0.837167 0.000000 0.546948
vn -0.735724 0.000000 0.677282
vn -0.614213 0.000000 0.789140
vn -0.614213 0.000000 0.789140
vn -0.475947 0.000000 0.879474
vn -0.475947 0.000000 0.879474
vn -0.324699 0.000000 0.945817
vn -0.324699 0.000000 0.945817
vn -0.164595 0.000000 0.986361
vn -0.164595 0.000000 0.986361
vn 0.000000 0.000000 1.000000
vn 0.164595 0.000000 0.986361
vn 0.000000 0.000000 1.000000
vn 0.164595 0.000000 0.986361
vn 0.324699 0.000000 0.945817
vn 0.324699 0.000000 0.945817
vn 0.475947 0.000000 0.879474
vn 0.614213 0.000000 0.789140
vn 0.475947 0.000000 0.879474
vn 0.614213 0.000000 0.789140
vn 0.735724 0.000000 0.677282
vn 0.735724 0.000000 0.677282
vn 0.837167 0.000000 0.546948
vn 0.837167 0.000000 0.546948
vn 0.915773 0.000000 0.401695
vn 0.915773 0.000000 0.401695
vn 0.969400 0.000000 0.245485
vn 0.969400 0.000000 0.245485
vn 0.996585 0.000000 0.082580
vn 0.996585 0.000000 0.082580
vn 0.000000 0.000000 -1.000000
vn 0.000000 0.000000 -1.000000
vn 0.000000 0.000000 -1.000000
vn 0.000000 0.000000 -1.000000
vn 0.000000 0.000000 -1.000000
vn 0.000000 0.000000 -1.000000
vn 0.000000 0.000000 -1.000000
vn 0.000000 0.000000 -1.000000
vn 0.000000 0.000000 -1.000000
vn 0.000000 0.000000 -1.000000
vn 0.000000 0.000000 -1.000000
vn 0.000000 0.000000 -1.000000
vn 0.000000 0.000000 -1.000000
vn 0.000000 0.000000 -1.000000
vn 0.000000 0.000000 -1.000000
vn 0.000000 -0.000000 -1.000000
vn 0.000000 0.000000 -1.000000
vn 0.000000 0.000000 -1.000000
vn -0.000000 1.000000 0.000000
vn 0.000000 1.000000 0.000000
vn -0.000000 1.000000 0.000000
vn 0.000000 1.000000 0.000000
vn -0.000000 1.000000 0.000000
vn 0.000000 1.000000 0.000000
vn 0.000000 1.000000 0.000000
vn 0.000000 1.000000 0.000000
vn -0.707107 0.000000 0.707107
vn -0.707107 0.000000 0.707107
vn -0.707107 0.000000 0.707107
vn -0.707108 0.000000 0.707106
vn -0.707107 -0.000000 0.707106
vn -0.707107 0.000000 0.707107
vn -0.707106 -0.000000 0.707108
vn -0.707107 0.000000 0.707107
vn -0.707107 0.000000 0.707107
vn -0.707107 0.000000 0.707107
vn -0.707107 0.000000 0.707107
vn -0.707107 -0.000000 0.707107
vn -0.707107 0.000000 0.707107
vn 0.000000 -1.000000 0.000000
vn 0.000000 -1.000000 0.000000
vn 0.000000 -1.000000 0.000000
vn 0.000000 -1.000000 0.000000
vn -0.000000 -1.000000 0.000000
vn 0.000000 -1.000000 0.000000
vn 0.707108 0.000000 -0.707106
vn 0.707107 0.000000 -0.707107
vn 0.707106 0.000000 -0.707107
vn 0.707106 0.000000 -0.707108
vn 0.707107 0.000000 -0.707107
vn 0.707107 0.000000 -0.707107
vn 0.707107 0.000000 -0.707107
vn 0.707107 0.000000 -0.707107
vn 0.707107 0.000000 -0.707107
vn 0.707107 0.000000 -0.707107
vn 0.707107 0.000000 -0.707107
vn 0.707107 -0.000001 -0.707106
vn 0.707107 -0.000000 -0.707107
vn 0.000000 1.000000 0.000000
vn 0.000000 1.000000 0.000000
vn 0.000000 1.000000 0.000000
vn 0.000000 1.000000 0.000000
vn 0.000000 1.000000 0.000000
vn 0.000000 1.000000 0.000000
vn 0.000000 1.000000 0.000000
vn 0.000000 1.000000 0.000000
vn 0.000000 1.000000 0.000000
vn -0.000000 1.000000 0.000000
vn 0.000000 1.000000 0.000000
vn 0.000000 1.000000 0.000000
vn -0.000000 1.000000 0.000000
vn 0.000000 1.000000 0.000000
vn -0.000000 1.000000 0.000000
vn -0.000000 1.000000 0.000000
vn -0.707107 0.000000 -0.707107
vn -0.707107 0.000000 -0.707107
vn -0.707107 0.000000 -0.707107
vn -0.707106 0.000000 -0.707108
vn -0.707106 -0.000000 -0.707107
vn -0.707107 0.000000 -0.707107
vn -0.707108 -0.000000 -0.707106
vn -0.707107 0.000000 -0.707107
vn -0.707107 0.000000 -0.707107
vn -0.707107 0.000000 -0.707107
vn -0.707107 0.000000 -0.707107
vn -0.707107 -0.000000 -0.707107
vn -0.707107 0.000000 -0.707107
vn 0.000000 -1.000000 0.000000
vn 0.000000 -1.000000 0.000000
vn 0.000000 -1.000000 0.000000
vn 0.000000 -1.000000 0.000000
vn 0.000000 -1.000000 0.000000
vn 0.000000 -1.000000 0.000000
vn 0.707107 0.000000 0.707107
vn 0.707107 0.000000 0.707107
vn 0.707107 0.000000 0.707107
vn 0.707108 0.000000 0.707106
vn 0.707107 -0.000000 0.707106
vn 0.707107 -0.000000 0.707107
vn 0.707106 -0.000000 0.707108
vn 0.707107 0.000000 0.707107
vn 0.707107 0.000000 0.707107
vn 0.707107 0.000000 0.707107
vn 0.707107 0.000000 0.707107
vn 0.707107 -0.000000 0.707107
vn 0.707107 0.000000 0.707107
vn 0.000000 1.000000 0.000000
vn 0.000000 1.000000 0.000000
vn 0.000000 1.000000 0.000000
vn -0.000000 1.000000 0.000000
vn 0.000000 1.000000 0.000000
vn -0.000000 1.000000 0.000000
vn 0.000000 1.000000 0.000000
vn 0.000000 1.000000 0.000000
vn 0.000000 1.000000 0.000000
vn 0.000000 1.000000 0.000000
vn -0.000000 1.000000 0.000000
vn 0.000000 1.000000 0.000000
vn 0.000000 1.000000 0.000000
vn -0.000000 1.000000 0.000000
vn -0.000000 1.000000 0.000000
vn 0.000000 1.000000 0.000000
vn -0.000000 1.000000 0.000000
vn 0.000000 1.000000 0.000000
vn 0.000000 1.000000 0.000000
vn 0.000000 1.000000 0.000000
vn 0.000000 1.000000 0.000000
vn 0.000000 1.000000 0.000000
vn 0.000000 1.000000 0.000000
vn 0.000000 1.000000 0.000000
vn -0.000000 1.000000 0.000000
vn 0.000000 1.000000 0.000000
vn 0.000000 1.000000 0.000000
vn 0.000000 1.000000 0.000000
vn -0.000000 1.000000 0.000000
vn 0.000000 1.000000 0.000000
vn 0.000000 1.000000 0.000000
vn 0.000000 1.000000 0.000000
vn -0.000000 1.000000 0.000000
vn 0.000000 1.000000 0.000000
vn -0.000000 1.000000 0.000000
vn 0.000000 1.000000 0.000000
vn 0.000000 1.000000 0.000000
vn 0.000000 1.000000 0.000000
vn 0.000000 1.000000 0.000000
vn -0.000000 1.000000 0.000000
vn 0.992709 0.000000 -0.120537
vn 0.935016 -0.000509 -0.354605
vn 0.992379 0.000521 -0.123218
vn 0.932112 0.001019 -0.362170
vn 0.822982 0.002000 -0.568064
vn 0.815776 -0.001103 -0.578366
vn 0.727637 -0.000355 -0.685962
vn 0.707106 -0.001647 -0.707106
vn 0.815237 0.000000 -0.579127
vn 0.663107 -0.006873 -0.748493
vn 0.685958 -0.003771 -0.727632
vn 0.464715 -0.005786 -0.885441
vn 0.579127 0.000000 -0.815237
vn 0.583590 0.006506 -0.812022
vn 0.239312 -0.005821 -0.970925
vn 0.362163 0.006070 -0.932095
vn 0.000000 -0.005833 -0.999983
vn 0.123215 0.006093 -0.992361
vn -0.239312 -0.005821 -0.970925
vn -0.123215 0.006093 -0.992361
vn -0.464715 -0.005786 -0.885441
vn -0.362163 0.006070 -0.932095
vn -0.663107 -0.006873 -0.748493
vn -0.583590 0.006506 -0.812022
vn -0.685958 -0.003771 -0.727632
vn -0.707106 -0.001647 -0.707106
vn -0.579127 0.000000 -0.815237
vn -0.822982 0.002000 -0.568064
vn -0.727637 -0.000355 -0.685962
vn -0.815776 -0.001103 -0.578366
vn -0.815237 0.000000 -0.579127
vn -0.932112 0.001019 -0.362170
vn -0.935016 -0.000509 -0.354605
vn -0.992379 0.000521 -0.123218
vn -0.992709 0.000000 -0.120537
vn 0.704427 0.704427 -0.086985
vn 0.705034 0.703750 -0.087540
vn 0.662809 0.703108 -0.257533
vn 0.661458 0.705127 -0.255478
vn 0.580233 0.702447 -0.412186
vn 0.578228 0.705761 -0.409333
vn 0.580223 0.702462 -0.412175
vn 0.581743 0.702285 -0.410331
vn 0.704426 -0.704427 -0.086985
vn 0.705034 -0.703750 -0.087540
vn 0.661458 -0.705127 -0.255478
vn 0.662809 -0.703108 -0.257533
vn 0.581735 -0.702294 -0.410326
vn 0.578227 -0.705762 -0.409333
vn 0.581752 -0.702275 -0.410334
vn 0.580227 -0.702455 -0.412181
vn 0.992380 0.000000 -0.123218
vn 0.932112 0.000000 -0.362170
vn 0.992380 0.000000 -0.123218
vn 0.815237 0.000000 -0.579128
vn 0.932112 0.000000 -0.362170
vn 0.815237 0.000000 -0.579128
vn 0.000000 -1.000000 -0.000000
vn 0.000000 -1.000000 0.000000
vn 0.000000 -1.000000 -0.000000
vn 0.000000 -1.000000 0.000000
vn 0.000000 -1.000000 -0.000000
vn -0.000000 -1.000000 0.000000
vn 0.000000 -1.000000 0.000000
vn -0.704446 -0.444766 0.553117
vn -0.901079 -0.425355 0.084441
vn -0.855706 -0.455057 0.246354
vn -0.795505 -0.454029 0.401284
vn -0.716391 -0.430282 0.549219
vn -0.724256 -0.443105 0.528310
vn -0.839183 -0.428004 0.335535
vn -0.888670 -0.444335 0.113281
vn -0.880237 -0.467049 0.083956
vn -0.864249 -0.434547 0.253461
vn -0.888670 -0.444335 0.113280
vn -0.723121 -0.443165 0.529812
vn -0.800753 -0.434547 0.412266
vn -0.723305 -0.444467 0.528468
vn -0.831833 -0.444335 0.332596
vn -0.831833 -0.444335 0.332596
vn -0.820253 -0.468640 0.327966
vn -0.713093 -0.462947 0.526477
vn -0.580233 0.702447 -0.412186
vn -0.580223 0.702463 -0.412175
vn -0.581743 0.702285 -0.410331
vn -0.578228 0.705761 -0.409333
vn -0.662809 0.703108 -0.257533
vn -0.661458 0.705127 -0.255478
vn -0.705034 0.703750 -0.087540
vn -0.704427 0.704427 -0.086985
vn -0.581735 -0.702294 -0.410326
vn -0.581752 -0.702275 -0.410334
vn -0.580227 -0.702455 -0.412181
vn -0.578227 -0.705762 -0.409333
vn -0.661458 -0.705127 -0.255478
vn -0.662809 -0.703108 -0.257533
vn -0.704426 -0.704427 -0.086985
vn -0.705034 -0.703750 -0.087540
vn -0.815237 0.000000 -0.579128
vn -0.815237 0.000000 -0.579128
vn -0.932112 0.000000 -0.362170
vn -0.932112 0.000000 -0.362170
vn -0.992380 0.000000 -0.123218
vn -0.992380 0.000000 -0.123218
vn -0.000000 -1.000000 0.000000
vn 0.000000 -1.000000 -0.000000
vn -0.000000 -1.000000 0.000000
vn 0.000000 -1.000000 -0.000000
vn -0.000000 -1.000000 0.000000
vn 0.000000 -1.000000 -0.000000
vn 0.000000 -1.000000 -0.000000
vn 0.704446 -0.444766 0.553117
vn 0.724256 -0.443105 0.528310
vn 0.716391 -0.430282 0.549219
vn 0.795505 -0.454029 0.401284
vn 0.855706 -0.455057 0.246354
vn 0.901079 -0.425355 0.084441
vn 0.839183 -0.428004 0.335535
vn 0.723121 -0.443165 0.529812
vn 0.800753 -0.434547 0.412266
vn 0.723305 -0.444467 0.528468
vn 0.831833 -0.444335 0.332596
vn 0.713093 -0.462947 0.526477
vn 0.888670 -0.444335 0.113281
vn 0.864249 -0.434547 0.253461
vn 0.880237 -0.467049 0.083956
vn 0.888670 -0.444335 0.113280
vn 0.831833 -0.444335 0.332596
vn 0.820253 -0.468640 0.327966
vn 0.000000 -1.000000 0.000000
vn 0.000000 -1.000000 -0.000000
vn 0.000000 -1.000000 -0.000000
vn 0.000000 -1.000000 0.000000
vn 0.000000 -1.000000 -0.000000
vn 0.000000 -1.000000 0.000000
vn 0.000000 -1.000000 -0.000000
vn -0.000000 -1.000000 0.000000
vn 0.000000 -1.000000 -0.000000
vn -0.000000 -1.000000 0.000000
vn 0.000000 -1.000000 -0.000000
vn -0.000000 -1.000000 0.000000
vn -0.000000 -1.000000 0.000000
vn -0.553117 -0.444766 0.704446
vn 0.535712 -0.443694 0.718435
vn -0.528310 -0.443105 0.724256
vn -0.537525 -0.437517 0.720865
vn -0.369739 -0.451061 0.812304
vn -0.188563 -0.456661 0.869428
vn -0.334888 -0.431668 0.837564
vn -0.529812 -0.443165 0.723121
vn -0.412266 -0.434547 0.800753
vn -0.528468 -0.444467 0.723305
vn -0.526477 -0.462947 0.713093
vn 0.000000 -0.458517 0.888686
vn -0.114259 -0.428372 0.896349
vn -0.253461 -0.434547 0.864249
vn -0.327966 -0.468640 0.820253
vn -0.332596 -0.444335 0.831833
vn -0.332596 -0.444335 0.831833
vn 0.188563 -0.456661 0.869428
vn 0.114259 -0.428372 0.896349
vn -0.085001 -0.445595 0.891190
vn 0.085001 -0.445595 0.891190
vn -0.113280 -0.444335 0.888670
vn -0.113280 -0.444335 0.888670
vn -0.112102 -0.462654 0.879423
vn 0.369739 -0.451061 0.812304
vn 0.528307 -0.443084 0.724271
vn 0.334888 -0.431668 0.837564
vn 0.531964 -0.438265 0.724526
vn 0.253461 -0.434547 0.864249
vn 0.112102 -0.462653 0.879423
vn 0.113280 -0.444335 0.888670
vn 0.113280 -0.444335 0.888670
vn 0.529827 -0.443150 0.723119
vn 0.412266 -0.434547 0.800753
vn 0.546067 -0.467049 0.695468
vn 0.332596 -0.444335 0.831833
vn 0.332596 -0.444335 0.831833
vn 0.528468 -0.444467 0.723305
vn 0.327966 -0.468640 0.820253
vn 0.412186 0.702447 -0.580233
vn 0.412175 0.702463 -0.580223
vn 0.410331 0.702285 -0.581743
vn 0.409333 0.705762 -0.578228
vn 0.257533 0.703108 -0.662809
vn 0.255478 0.705127 -0.661458
vn 0.087540 0.703750 -0.705034
vn 0.086985 0.704427 -0.704427
vn -0.087540 0.703750 -0.705034
vn -0.086985 0.704427 -0.704427
vn -0.257533 0.703108 -0.662809
vn -0.255478 0.705127 -0.661458
vn -0.412181 0.702455 -0.580227
vn -0.409333 0.705761 -0.578228
vn -0.410334 0.702276 -0.581751
vn -0.410327 0.702293 -0.581736
vn 0.410326 -0.702294 -0.581735
vn 0.410334 -0.702275 -0.581752
vn 0.412181 -0.702455 -0.580227
vn 0.409333 -0.705762 -0.578227
vn 0.255478 -0.705127 -0.661458
vn 0.257533 -0.703108 -0.662809
vn 0.086985 -0.704427 -0.704426
vn 0.087540 -0.703750 -0.705034
vn -0.086985 -0.704427 -0.704426
vn -0.087540 -0.703750 -0.705034
vn -0.255478 -0.705127 -0.661458
vn -0.257533 -0.703108 -0.662809
vn -0.410331 -0.702285 -0.581743
vn -0.409333 -0.705762 -0.578227
vn -0.412174 -0.702463 -0.580222
vn -0.412186 -0.702447 -0.580233
vn 0.579128 0.000000 -0.815237
vn 0.579128 0.000000 -0.815237
vn 0.362170 0.000000 -0.932112
vn 0.362170 0.000000 -0.932112
vn 0.123218 0.000000 -0.992380
vn -0.123218 -0.000000 -0.992380
vn 0.123218 0.000000 -0.992380
vn -0.362170 0.000000 -0.932112
vn -0.123218 0.000000 -0.992380
vn -0.579128 0.000000 -0.815237
vn -0.362170 0.000000 -0.932112
vn -0.579128 0.000000 -0.815237
f 1//1 2//1 3//1
f 4//2 5//2 2//2
f 4//3 2//3 1//3
f 6//4 7//4 5//4
f 6//5 5//5 4//5
f 8//6 9//6 7//6
f 8//7 7//7 6//7
f 10//8 9//8 8//8
f 11//9 9//9 10//9
f 12//10 10//10 13//10
f 12//11 11//11 10//11
f 14//12 13//12 15//12
f 14//13 12//13 13//13
f 16//14 15//14 17//14
f 16//15 14//15 15//15
f 18//16 16//16 17//16
f 19//17 17//17 20//17
f 19//18 18//18 17//18
f 21//19 22//19 23//19
f 21//20 23//20 24//20
f 25//21 20//21 26//21
f 25//22 19//22 20//22
f 27//23 28//23 22//23
f 27//24 22//24 21//24
f 29//25 26//25 30//25
f 29//26 25//26 26//26
f 31//27 32//27 28//27
f 31//28 28//28 27//28
f 33//29 29//29 30//29
f 33//30 30//30 34//30
f 35//31 34//31 32//31
f 35//32 32//32 31//32
f 36//33 33//33 34//33
f 36//34 34//34 35//34
f 1//35 37//35 38//35
f 4//36 38//36 39//36
f 4//37 1//37 38//37
f 6//38 39//38 40//38
f 6//39 4//39 39//39
f 8//40 6//40 40//40
f 41//41 40//41 42//41
f 41//42 8//42 40//42
f 43//43 44//43 45//43
f 10//44 41//44 46//44
f 10//45 46//45 47//45
f 10//46 47//46 43//46
f 10//47 8//47 41//47
f 13//48 45//48 48//48
f 13//49 10//49 43//49
f 13//50 43//50 45//50
f 15//51 48//51 49//51
f 15//52 13//52 48//52
f 17//53 49//53 50//53
f 17//54 15//54 49//54
f 20//55 50//55 51//55
f 20//56 17//56 50//56
f 26//57 51//57 52//57
f 26//58 20//58 51//58
f 30//59 52//59 53//59
f 30//60 26//60 52//60
f 54//61 30//61 53//61
f 54//62 53//62 55//62
f 56//63 57//63 58//63
f 34//64 30//64 54//64
f 34//65 54//65 59//65
f 34//66 59//66 60//66
f 34//67 60//67 56//67
f 32//68 56//68 58//68
f 32//69 34//69 56//69
f 28//70 32//70 58//70
f 28//71 58//71 61//71
f 22//72 61//72 62//72
f 22//73 28//73 61//73
f 23//74 22//74 62//74
f 23//75 62//75 63//75
f 64//76 3//76 2//76
f 64//77 65//77 3//77
f 66//78 2//78 5//78
f 66//79 64//79 2//79
f 67//80 5//80 7//80
f 67//81 66//81 5//81
f 68//82 7//82 9//82
f 68//83 9//83 11//83
f 68//84 67//84 7//84
f 69//85 68//85 11//85
f 70//86 11//86 12//86
f 70//87 69//87 11//87
f 71//88 12//88 14//88
f 71//89 70//89 12//89
f 72//90 14//90 16//90
f 72//91 71//91 14//91
f 73//92 16//92 18//92
f 73//93 72//93 16//93
f 74//94 18//94 19//94
f 74//95 19//95 25//95
f 74//96 73//96 18//96
f 75//97 74//97 25//97
f 76//98 25//98 29//98
f 76//99 75//99 25//99
f 77//100 29//100 33//100
f 77//101 33//101 36//101
f 77//102 76//102 29//102
f 78//103 77//103 36//103
f 79//104 78//104 36//104
f 79//105 36//105 35//105
f 80//106 79//106 35//106
f 80//107 35//107 31//107
f 81//108 80//108 31//108
f 81//109 31//109 27//109
f 82//110 81//110 27//110
f 82//111 27//111 21//111
f 83//112 82//112 21//112
f 83//113 21//113 24//113
f 84//114 37//114 85//114
f 85//115 37//115 86//115
f 37//116 87//116 86//116
f 87//117 88//117 89//117
f 65//118 1//118 3//118
f 87//119 1//119 88//119
f 65//120 90//120 1//120
f 1//121 90//121 88//121
f 37//122 1//122 87//122
f 63//123 91//123 92//123
f 63//124 92//124 93//124
f 94//125 63//125 93//125
f 95//126 94//126 96//126
f 23//127 83//127 24//127
f 23//128 94//128 95//128
f 97//129 83//129 23//129
f 97//130 23//130 95//130
f 23//131 63//131 94//131
f 62//132 98//132 91//132
f 62//133 91//133 63//133
f 61//134 99//134 98//134
f 61//135 98//135 62//135
f 58//136 100//136 99//136
f 58//137 99//137 61//137
f 57//138 100//138 58//138
f 101//139 100//139 57//139
f 102//140 56//140 103//140
f 104//141 102//141 105//141
f 104//142 56//142 102//142
f 106//143 105//143 107//143
f 106//144 104//144 105//144
f 108//145 106//145 107//145
f 109//146 108//146 107//146
f 57//147 56//147 104//147
f 110//148 101//148 57//148
f 110//149 57//149 104//149
f 111//150 110//150 104//150
f 112//151 113//151 111//151
f 112//152 111//152 104//152
f 103//153 56//153 114//153
f 115//154 54//154 116//154
f 115//155 59//155 54//155
f 114//156 60//156 115//156
f 56//157 60//157 114//157
f 115//158 60//158 59//158
f 117//159 118//159 119//159
f 117//160 119//160 120//160
f 121//161 120//161 122//161
f 121//162 117//162 120//162
f 123//163 121//163 122//163
f 54//164 122//164 116//164
f 54//165 123//165 122//165
f 55//166 123//166 54//166
f 124//167 55//167 125//167
f 124//168 123//168 55//168
f 126//169 123//169 124//169
f 127//170 126//170 124//170
f 128//171 126//171 127//171
f 129//172 125//172 55//172
f 129//173 55//173 53//173
f 130//174 53//174 52//174
f 130//175 129//175 53//175
f 131//176 52//176 51//176
f 131//177 130//177 52//177
f 132//178 51//178 50//178
f 132//179 131//179 51//179
f 49//180 132//180 50//180
f 133//181 132//181 49//181
f 48//182 133//182 49//182
f 134//183 48//183 45//183
f 134//184 133//184 48//184
f 135//185 45//185 44//185
f 135//186 134//186 45//186
f 136//187 135//187 44//187
f 137//188 43//188 138//188
f 139//189 137//189 140//189
f 139//190 43//190 137//190
f 141//191 140//191 142//191
f 141//192 139//192 140//192
f 143//193 141//193 142//193
f 144//194 143//194 142//194
f 44//195 43//195 139//195
f 145//196 136//196 44//196
f 145//197 44//197 139//197
f 146//198 145//198 139//198
f 147//199 148//199 146//199
f 147//200 146//200 139//200
f 149//201 150//201 41//201
f 150//202 46//202 41//202
f 46//203 151//203 47//203
f 150//204 151//204 46//204
f 151//205 43//205 47//205
f 151//206 138//206 43//206
f 41//207 152//207 149//207
f 152//208 153//208 154//208
f 41//209 153//209 152//209
f 154//210 155//210 156//210
f 153//211 155//211 154//211
f 155//212 157//212 156//212
f 157//213 158//213 156//213
f 41//214 42//214 153//214
f 159//215 160//215 42//215
f 42//216 160//216 153//216
f 160//217 161//217 153//217
f 162//218 163//218 161//218
f 161//219 163//219 153//219
f 38//220 37//220 84//220
f 164//221 38//221 84//221
f 39//222 38//222 164//222
f 165//223 40//223 39//223
f 165//224 39//224 164//224
f 166//225 42//225 40//225
f 166//226 40//226 165//226
f 159//227 42//227 166//227
f 97//228 82//228 83//228
f 167//229 81//229 82//229
f 167//230 82//230 97//230
f 168//231 79//231 80//231
f 168//232 80//232 81//232
f 168//233 81//233 167//233
f 169//234 79//234 168//234
f 78//235 79//235 169//235
f 170//236 78//236 169//236
f 77//237 78//237 170//237
f 76//238 170//238 171//238
f 76//239 77//239 170//239
f 75//240 171//240 172//240
f 75//241 76//241 171//241
f 74//242 75//242 172//242
f 73//243 172//243 173//243
f 73//244 74//244 172//244
f 64//245 174//245 90//245
f 64//246 90//246 65//246
f 72//247 173//247 175//247
f 72//248 73//248 173//248
f 66//249 176//249 174//249
f 66//250 174//250 64//250
f 71//251 175//251 177//251
f 71//252 72//252 175//252
f 67//253 176//253 66//253
f 70//254 71//254 177//254
f 68//255 178//255 176//255
f 68//256 176//256 67//256
f 69//257 177//257 178//257
f 69//258 178//258 68//258
f 69//259 70//259 177//259
f 88//260 90//260 174//260
f 179//261 174//261 176//261
f 179//262 88//262 174//262
f 180//263 179//263 176//263
f 149//264 176//264 178//264
f 149//265 180//265 176//265
f 150//266 149//266 178//266
f 151//267 150//267 178//267
f 152//268 180//268 149//268
f 138//269 178//269 177//269
f 138//270 151//270 178//270
f 181//271 177//271 175//271
f 181//272 137//272 138//272
f 181//273 138//273 177//273
f 182//274 175//274 173//274
f 182//275 181//275 175//275
f 183//276 173//276 172//276
f 183//277 182//277 173//277
f 184//278 172//278 171//278
f 184//279 183//279 172//279
f 185//280 171//280 170//280
f 185//281 184//281 171//281
f 116//282 170//282 169//282
f 116//283 185//283 170//283
f 115//284 116//284 169//284
f 114//285 115//285 169//285
f 122//286 185//286 116//286
f 103//287 169//287 168//287
f 103//288 114//288 169//288
f 186//289 103//289 168//289
f 186//290 102//290 103//290
f 187//291 186//291 168//291
f 187//292 168//292 167//292
f 95//293 187//293 167//293
f 95//294 167//294 97//294
f 188//295 89//295 88//295
f 188//296 88//296 179//296
f 189//297 179//297 180//297
f 189//298 188//298 179//298
f 154//299 180//299 152//299
f 156//300 189//300 180//300
f 156//301 180//301 154//301
f 158//302 189//302 156//302
f 188//303 87//303 89//303
f 190//304 87//304 188//304
f 189//305 190//305 188//305
f 191//306 190//306 189//306
f 157//307 189//307 158//307
f 155//308 191//308 189//308
f 155//309 189//309 157//309
f 153//310 191//310 155//310
f 86//311 87//311 190//311
f 192//312 190//312 191//312
f 192//313 86//313 190//313
f 193//314 191//314 153//314
f 193//315 192//315 191//315
f 163//316 193//316 153//316
f 194//317 85//317 86//317
f 192//318 194//318 86//318
f 195//319 194//319 192//319
f 193//320 195//320 192//320
f 196//321 195//321 193//321
f 163//322 162//322 196//322
f 163//323 196//323 193//323
f 159//324 166//324 160//324
f 197//325 85//325 194//325
f 197//326 194//326 195//326
f 198//327 195//327 196//327
f 198//328 196//328 162//328
f 198//329 162//329 161//329
f 198//330 197//330 195//330
f 199//331 84//331 85//331
f 199//332 164//332 84//332
f 199//333 165//333 164//333
f 199//334 85//334 197//334
f 200//335 161//335 160//335
f 200//336 166//336 165//336
f 200//337 198//337 161//337
f 200//338 197//338 198//338
f 200//339 199//339 197//339
f 200//340 165//340 199//340
f 200//341 160//341 166//341
f 186//342 105//342 102//342
f 186//343 107//343 105//343
f 201//344 109//344 107//344
f 201//345 107//345 186//345
f 187//346 201//346 186//346
f 202//347 201//347 187//347
f 95//348 202//348 187//348
f 96//349 202//349 95//349
f 201//350 108//350 109//350
f 201//351 106//351 108//351
f 203//352 104//352 106//352
f 203//353 106//353 201//353
f 204//354 201//354 202//354
f 204//355 203//355 201//355
f 94//356 202//356 96//356
f 94//357 204//357 202//357
f 205//358 112//358 104//358
f 205//359 104//359 203//359
f 206//360 203//360 204//360
f 206//361 205//361 203//361
f 93//362 204//362 94//362
f 93//363 206//363 204//363
f 207//364 206//364 93//364
f 207//365 93//365 92//365
f 208//366 205//366 206//366
f 208//367 206//367 207//367
f 209//368 112//368 205//368
f 209//369 205//369 208//369
f 113//370 112//370 209//370
f 100//371 101//371 110//371
f 210//372 111//372 113//372
f 210//373 113//373 209//373
f 210//374 209//374 208//374
f 211//375 208//375 207//375
f 211//376 207//376 92//376
f 211//377 210//377 208//377
f 212//378 110//378 111//378
f 212//379 99//379 100//379
f 212//380 111//380 210//380
f 212//381 210//381 211//381
f 212//382 100//382 110//382
f 213//383 92//383 91//383
f 213//384 98//384 99//384
f 213//385 91//385 98//385
f 213//386 211//386 92//386
f 213//387 212//387 211//387
f 213//388 99//388 212//388
f 214//389 148//389 147//389
f 214//390 147//390 215//390
f 216//391 215//391 217//391
f 216//392 214//392 215//392
f 218//393 217//393 219//393
f 218//394 216//394 217//394
f 220//395 219//395 221//395
f 220//396 218//396 219//396
f 222//397 221//397 223//397
f 222//398 220//398 221//398
f 224//399 223//399 126//399
f 224//400 222//400 223//400
f 128//401 224//401 126//401
f 135//402 136//402 145//402
f 127//403 224//403 128//403
f 225//404 146//404 148//404
f 225//405 148//405 214//405
f 225//406 214//406 216//406
f 226//407 216//407 218//407
f 226//408 225//408 216//408
f 227//409 145//409 146//409
f 227//410 134//410 135//410
f 227//411 146//411 225//411
f 227//412 135//412 145//412
f 228//413 218//413 220//413
f 228//414 226//414 218//414
f 229//415 133//415 134//415
f 229//416 134//416 227//416
f 229//417 227//417 225//417
f 229//418 225//418 226//418
f 230//419 220//419 222//419
f 230//420 228//420 220//420
f 231//421 132//421 133//421
f 231//422 131//422 132//422
f 231//423 226//423 228//423
f 231//424 229//424 226//424
f 231//425 133//425 229//425
f 232//426 222//426 224//426
f 232//427 127//427 124//427
f 232//428 230//428 222//428
f 232//429 224//429 127//429
f 233//430 130//430 131//430
f 233//431 131//431 231//431
f 233//432 231//432 228//432
f 233//433 228//433 230//433
f 234//434 124//434 125//434
f 234//435 129//435 130//435
f 234//436 125//436 129//436
f 234//437 230//437 232//437
f 234//438 233//438 230//438
f 234//439 232//439 124//439
f 234//440 130//440 233//440
f 181//441 140//441 137//441
f 181//442 142//442 140//442
f 235//443 144//443 142//443
f 235//444 142//444 181//444
f 182//445 235//445 181//445
f 236//446 235//446 182//446
f 183//447 236//447 182//447
f 237//448 236//448 183//448
f 238//449 183//449 184//449
f 238//450 237//450 183//450
f 239//451 184//451 185//451
f 239//452 238//452 184//452
f 120//453 185//453 122//453
f 120//454 239//454 185//454
f 119//455 239//455 120//455
f 118//456 239//456 119//456
f 235//457 143//457 144//457
f 235//458 141//458 143//458
f 240//459 139//459 141//459
f 240//460 141//460 235//460
f 241//461 235//461 236//461
f 241//462 240//462 235//462
f 242//463 236//463 237//463
f 242//464 241//464 236//464
f 238//465 242//465 237//465
f 243//466 242//466 238//466
f 239//467 243//467 238//467
f 244//468 243//468 239//468
f 117//469 239//469 118//469
f 117//470 244//470 239//470
f 121//471 244//471 117//471
f 123//472 244//472 121//472
f 215//473 147//473 139//473
f 215//474 139//474 240//474
f 217//475 240//475 241//475
f 217//476 215//476 240//476
f 219//477 241//477 242//477
f 219//478 242//478 243//478
f 219//479 217//479 241//479
f 221//480 243//480 244//480
f 221//481 219//481 243//481
f 223//482 244//482 123//482
f 223//483 221//483 244//483
f 126//484 223//484 123//484
