%TF.GenerationSoftware,KiCad,Pcbnew,9.0.4*%
%TF.CreationDate,2025-11-26T21:09:44+01:00*%
%TF.ProjectId,smart_plants_breakout_ws-board_rev1,736d6172-745f-4706-9c61-6e74735f6272,rev?*%
%TF.SameCoordinates,Original*%
%TF.FileFunction,Copper,L2,Bot*%
%TF.FilePolarity,Positive*%
%FSLAX46Y46*%
G04 Gerber Fmt 4.6, Leading zero omitted, Abs format (unit mm)*
G04 Created by KiCad (PCBNEW 9.0.4) date 2025-11-26 21:09:44*
%MOMM*%
%LPD*%
G01*
G04 APERTURE LIST*
G04 Aperture macros list*
%AMRoundRect*
0 Rectangle with rounded corners*
0 $1 Rounding radius*
0 $2 $3 $4 $5 $6 $7 $8 $9 X,Y pos of 4 corners*
0 Add a 4 corners polygon primitive as box body*
4,1,4,$2,$3,$4,$5,$6,$7,$8,$9,$2,$3,0*
0 Add four circle primitives for the rounded corners*
1,1,$1+$1,$2,$3*
1,1,$1+$1,$4,$5*
1,1,$1+$1,$6,$7*
1,1,$1+$1,$8,$9*
0 Add four rect primitives between the rounded corners*
20,1,$1+$1,$2,$3,$4,$5,0*
20,1,$1+$1,$4,$5,$6,$7,0*
20,1,$1+$1,$6,$7,$8,$9,0*
20,1,$1+$1,$8,$9,$2,$3,0*%
G04 Aperture macros list end*
%TA.AperFunction,ComponentPad*%
%ADD10RoundRect,0.249999X0.850001X-0.850001X0.850001X0.850001X-0.850001X0.850001X-0.850001X-0.850001X0*%
%TD*%
%TA.AperFunction,ComponentPad*%
%ADD11C,2.200000*%
%TD*%
%TA.AperFunction,ComponentPad*%
%ADD12R,2.900000X1.500000*%
%TD*%
%TA.AperFunction,ComponentPad*%
%ADD13R,3.000000X1.500000*%
%TD*%
%TA.AperFunction,ComponentPad*%
%ADD14RoundRect,0.249999X-0.850001X0.850001X-0.850001X-0.850001X0.850001X-0.850001X0.850001X0.850001X0*%
%TD*%
%TA.AperFunction,ComponentPad*%
%ADD15C,1.600000*%
%TD*%
%TA.AperFunction,ComponentPad*%
%ADD16R,1.905000X2.000000*%
%TD*%
%TA.AperFunction,ComponentPad*%
%ADD17O,1.905000X2.000000*%
%TD*%
%TA.AperFunction,ComponentPad*%
%ADD18RoundRect,0.250000X-0.550000X-0.550000X0.550000X-0.550000X0.550000X0.550000X-0.550000X0.550000X0*%
%TD*%
%TA.AperFunction,ComponentPad*%
%ADD19RoundRect,0.250000X0.600000X0.750000X-0.600000X0.750000X-0.600000X-0.750000X0.600000X-0.750000X0*%
%TD*%
%TA.AperFunction,ComponentPad*%
%ADD20O,1.700000X2.000000*%
%TD*%
%TA.AperFunction,ComponentPad*%
%ADD21RoundRect,0.250000X0.600000X0.725000X-0.600000X0.725000X-0.600000X-0.725000X0.600000X-0.725000X0*%
%TD*%
%TA.AperFunction,ComponentPad*%
%ADD22O,1.700000X1.950000*%
%TD*%
%TA.AperFunction,ComponentPad*%
%ADD23R,1.700000X1.700000*%
%TD*%
%TA.AperFunction,ComponentPad*%
%ADD24C,1.700000*%
%TD*%
%TA.AperFunction,ComponentPad*%
%ADD25RoundRect,0.250000X-0.750000X0.600000X-0.750000X-0.600000X0.750000X-0.600000X0.750000X0.600000X0*%
%TD*%
%TA.AperFunction,ComponentPad*%
%ADD26O,2.000000X1.700000*%
%TD*%
%TA.AperFunction,ViaPad*%
%ADD27C,0.700000*%
%TD*%
%TA.AperFunction,Conductor*%
%ADD28C,0.500000*%
%TD*%
G04 APERTURE END LIST*
D10*
%TO.P,D1,1,K*%
%TO.N,Net-(D1-K)*%
X167386000Y-86614000D03*
D11*
%TO.P,D1,2,A*%
%TO.N,Net-(D1-A)*%
X167386000Y-76454000D03*
%TD*%
D12*
%TO.P,U1,1,VCC*%
%TO.N,Net-(D1-K)*%
X138430000Y-60960000D03*
D13*
%TO.P,U1,2,GND*%
%TO.N,GND*%
X138430000Y-63500000D03*
%TO.P,U1,3,V3V*%
%TO.N,VDC*%
X138430000Y-66040000D03*
%TO.P,U1,4,IO0*%
%TO.N,Net-(J1-Pin_4)*%
X138430000Y-68580000D03*
%TO.P,U1,5,IO1*%
%TO.N,Net-(J1-Pin_5)*%
X138430000Y-71120000D03*
%TO.P,U1,6,IO2*%
%TO.N,Net-(J1-Pin_6)*%
X138430000Y-73660000D03*
%TO.P,U1,7,IO3*%
%TO.N,Net-(J1-Pin_7)*%
X138430000Y-76200000D03*
%TO.P,U1,8,IO4*%
%TO.N,Net-(J1-Pin_8)*%
X138430000Y-78740000D03*
%TO.P,U1,9,IO5*%
%TO.N,Net-(J1-Pin_9)*%
X138430000Y-81280000D03*
%TO.P,U1,10,IO22*%
%TO.N,Net-(J2-Pin_9)*%
X153670000Y-81280000D03*
%TO.P,U1,11,IO21*%
%TO.N,Net-(J2-Pin_8)*%
X153670000Y-78740000D03*
%TO.P,U1,12,IO20*%
%TO.N,Net-(J2-Pin_7)*%
X153670000Y-76200000D03*
%TO.P,U1,13,IO19*%
%TO.N,Net-(J2-Pin_6)*%
X153670000Y-73660000D03*
%TO.P,U1,14,IO18*%
%TO.N,Net-(J2-Pin_5)*%
X153670000Y-71120000D03*
%TO.P,U1,15,IO15*%
%TO.N,Net-(J2-Pin_4)*%
X153670000Y-68580000D03*
%TO.P,U1,16,IO14*%
%TO.N,Net-(J2-Pin_3)*%
X153670000Y-66040000D03*
%TO.P,U1,17,RX*%
%TO.N,Net-(J2-Pin_2)*%
X153670000Y-63500000D03*
%TO.P,U1,18,TX*%
%TO.N,Net-(J2-Pin_1)*%
X153670000Y-60960000D03*
%TD*%
D14*
%TO.P,D2,1,K*%
%TO.N,Net-(D1-K)*%
X123698000Y-74422000D03*
D11*
%TO.P,D2,2,A*%
%TO.N,Net-(D2-A)*%
X123698000Y-84582000D03*
%TD*%
D15*
%TO.P,R2,1*%
%TO.N,Net-(D2-A)*%
X130302000Y-84582000D03*
%TO.P,R2,2*%
%TO.N,Net-(J1-Pin_4)*%
X130302000Y-74422000D03*
%TD*%
D16*
%TO.P,Q1,1,G*%
%TO.N,Net-(Q1-G)*%
X147574000Y-89154000D03*
D17*
%TO.P,Q1,2,D*%
%TO.N,Net-(D1-A)*%
X150114000Y-89154000D03*
%TO.P,Q1,3,S*%
%TO.N,GND*%
X152654000Y-89154000D03*
%TD*%
D18*
%TO.P,C2,1*%
%TO.N,Net-(D1-K)*%
X125405000Y-68580000D03*
D15*
%TO.P,C2,2*%
%TO.N,GND*%
X128905000Y-68580000D03*
%TD*%
D19*
%TO.P,J7,1,Pin_1*%
%TO.N,Net-(J7-Pin_1)*%
X128524000Y-97282000D03*
D20*
%TO.P,J7,2,Pin_2*%
%TO.N,GND*%
X126024000Y-97282000D03*
%TD*%
D21*
%TO.P,J9,1,Pin_1*%
%TO.N,Net-(J1-Pin_5)*%
X140970000Y-88900000D03*
D22*
%TO.P,J9,2,Pin_2*%
%TO.N,VDC*%
X138470000Y-88900000D03*
%TO.P,J9,3,Pin_3*%
%TO.N,GND*%
X135970000Y-88900000D03*
%TD*%
D23*
%TO.P,J1,1,Pin_1*%
%TO.N,Net-(D1-K)*%
X133985000Y-60960000D03*
D24*
%TO.P,J1,2,Pin_2*%
%TO.N,GND*%
X133985000Y-63500000D03*
%TO.P,J1,3,Pin_3*%
%TO.N,VDC*%
X133985000Y-66040000D03*
%TO.P,J1,4,Pin_4*%
%TO.N,Net-(J1-Pin_4)*%
X133985000Y-68580000D03*
%TO.P,J1,5,Pin_5*%
%TO.N,Net-(J1-Pin_5)*%
X133985000Y-71120000D03*
%TO.P,J1,6,Pin_6*%
%TO.N,Net-(J1-Pin_6)*%
X133985000Y-73660000D03*
%TO.P,J1,7,Pin_7*%
%TO.N,Net-(J1-Pin_7)*%
X133985000Y-76200000D03*
%TO.P,J1,8,Pin_8*%
%TO.N,Net-(J1-Pin_8)*%
X133985000Y-78740000D03*
%TO.P,J1,9,Pin_9*%
%TO.N,Net-(J1-Pin_9)*%
X133985000Y-81280000D03*
%TD*%
D21*
%TO.P,J5,1,Pin_1*%
%TO.N,Net-(J1-Pin_6)*%
X157166000Y-103395000D03*
D22*
%TO.P,J5,2,Pin_2*%
%TO.N,GND*%
X154666000Y-103395000D03*
%TO.P,J5,3,Pin_3*%
%TO.N,Net-(J1-Pin_8)*%
X152166000Y-103395000D03*
%TO.P,J5,4,Pin_4*%
%TO.N,Net-(J1-Pin_9)*%
X149666000Y-103395000D03*
%TD*%
D18*
%TO.P,C3,1*%
%TO.N,Net-(D1-K)*%
X159060000Y-87630000D03*
D15*
%TO.P,C3,2*%
%TO.N,Net-(D1-A)*%
X162560000Y-87630000D03*
%TD*%
%TO.P,R1,1*%
%TO.N,GND*%
X127000000Y-84582000D03*
%TO.P,R1,2*%
%TO.N,Net-(J1-Pin_4)*%
X127000000Y-74422000D03*
%TD*%
D21*
%TO.P,J3,1,Pin_1*%
%TO.N,VDC*%
X143450000Y-96283000D03*
D22*
%TO.P,J3,2,Pin_2*%
%TO.N,GND*%
X140950000Y-96283000D03*
%TO.P,J3,3,Pin_3*%
%TO.N,Net-(J1-Pin_8)*%
X138450000Y-96283000D03*
%TO.P,J3,4,Pin_4*%
%TO.N,Net-(J1-Pin_9)*%
X135950000Y-96283000D03*
%TD*%
D15*
%TO.P,R6,1*%
%TO.N,Net-(J1-Pin_8)*%
X161544000Y-76454000D03*
%TO.P,R6,2*%
%TO.N,VDC*%
X161544000Y-66294000D03*
%TD*%
D21*
%TO.P,J6,1,Pin_1*%
%TO.N,VDC*%
X157166000Y-96283000D03*
D22*
%TO.P,J6,2,Pin_2*%
%TO.N,GND*%
X154666000Y-96283000D03*
%TO.P,J6,3,Pin_3*%
%TO.N,Net-(J1-Pin_8)*%
X152166000Y-96283000D03*
%TO.P,J6,4,Pin_4*%
%TO.N,Net-(J1-Pin_9)*%
X149666000Y-96283000D03*
%TD*%
D19*
%TO.P,SW1,1,A*%
%TO.N,Net-(J7-Pin_1)*%
X128524000Y-90170000D03*
D20*
%TO.P,SW1,2,B*%
%TO.N,Net-(D2-A)*%
X126024000Y-90170000D03*
%TD*%
D23*
%TO.P,J2,1,Pin_1*%
%TO.N,Net-(J2-Pin_1)*%
X158115000Y-60960000D03*
D24*
%TO.P,J2,2,Pin_2*%
%TO.N,Net-(J2-Pin_2)*%
X158115000Y-63500000D03*
%TO.P,J2,3,Pin_3*%
%TO.N,Net-(J2-Pin_3)*%
X158115000Y-66040000D03*
%TO.P,J2,4,Pin_4*%
%TO.N,Net-(J2-Pin_4)*%
X158115000Y-68580000D03*
%TO.P,J2,5,Pin_5*%
%TO.N,Net-(J2-Pin_5)*%
X158115000Y-71120000D03*
%TO.P,J2,6,Pin_6*%
%TO.N,Net-(J2-Pin_6)*%
X158115000Y-73660000D03*
%TO.P,J2,7,Pin_7*%
%TO.N,Net-(J2-Pin_7)*%
X158115000Y-76200000D03*
%TO.P,J2,8,Pin_8*%
%TO.N,Net-(J2-Pin_8)*%
X158115000Y-78740000D03*
%TO.P,J2,9,Pin_9*%
%TO.N,Net-(J2-Pin_9)*%
X158115000Y-81280000D03*
%TD*%
D25*
%TO.P,J4,1,Pin_1*%
%TO.N,Net-(D1-K)*%
X167132000Y-68112000D03*
D26*
%TO.P,J4,2,Pin_2*%
%TO.N,GND*%
X167132000Y-70612000D03*
%TD*%
D19*
%TO.P,J10,1,Pin_1*%
%TO.N,Net-(D1-A)*%
X166624000Y-97028000D03*
D20*
%TO.P,J10,2,Pin_2*%
%TO.N,Net-(D1-K)*%
X164124000Y-97028000D03*
%TD*%
D21*
%TO.P,J11,1,Pin_1*%
%TO.N,Net-(J1-Pin_7)*%
X143450000Y-103395000D03*
D22*
%TO.P,J11,2,Pin_2*%
%TO.N,GND*%
X140950000Y-103395000D03*
%TO.P,J11,3,Pin_3*%
%TO.N,Net-(J1-Pin_8)*%
X138450000Y-103395000D03*
%TO.P,J11,4,Pin_4*%
%TO.N,Net-(J1-Pin_9)*%
X135950000Y-103395000D03*
%TD*%
D15*
%TO.P,R3,1*%
%TO.N,GND*%
X149860000Y-60706000D03*
%TO.P,R3,2*%
%TO.N,Net-(Q1-G)*%
X149860000Y-70866000D03*
%TD*%
%TO.P,R5,1*%
%TO.N,Net-(J1-Pin_9)*%
X142240000Y-60706000D03*
%TO.P,R5,2*%
%TO.N,VDC*%
X142240000Y-70866000D03*
%TD*%
%TO.P,R4,1*%
%TO.N,Net-(Q1-G)*%
X146050000Y-60706000D03*
%TO.P,R4,2*%
%TO.N,Net-(J2-Pin_9)*%
X146050000Y-70866000D03*
%TD*%
D27*
%TO.N,GND*%
X145034000Y-65278000D03*
%TO.N,Net-(D1-A)*%
X163322000Y-83312000D03*
%TO.N,Net-(J1-Pin_6)*%
X142494000Y-84582000D03*
%TO.N,Net-(J1-Pin_7)*%
X139954000Y-87122000D03*
%TD*%
D28*
%TO.N,GND*%
X145034000Y-65278000D02*
X147574000Y-65278000D01*
X149860000Y-62992000D02*
X149860000Y-60706000D01*
X147574000Y-65278000D02*
X149860000Y-62992000D01*
%TO.N,Net-(D1-A)*%
X162560000Y-84074000D02*
X163322000Y-83312000D01*
X162560000Y-87630000D02*
X162560000Y-84074000D01*
%TO.N,Net-(J1-Pin_6)*%
X139954000Y-73660000D02*
X138430000Y-73660000D01*
X140381000Y-74087000D02*
X139954000Y-73660000D01*
X140381000Y-82690968D02*
X140381000Y-74087000D01*
X142494000Y-84582000D02*
X142272032Y-84582000D01*
X142272032Y-84582000D02*
X140381000Y-82690968D01*
%TO.N,Net-(J1-Pin_5)*%
X150622000Y-84836000D02*
X145034000Y-84836000D01*
X145034000Y-84836000D02*
X140970000Y-88900000D01*
X147574000Y-74676000D02*
X150622000Y-77724000D01*
X150622000Y-77724000D02*
X150622000Y-84836000D01*
X142736000Y-74676000D02*
X147574000Y-74676000D01*
X138430000Y-71120000D02*
X139180000Y-71120000D01*
X139180000Y-71120000D02*
X142736000Y-74676000D01*
%TO.N,Net-(J1-Pin_9)*%
X148590000Y-105410000D02*
X149666000Y-104334000D01*
X135286000Y-79979000D02*
X135286000Y-61002000D01*
X135950000Y-96283000D02*
X133985000Y-94318000D01*
X133985000Y-81280000D02*
X135286000Y-79979000D01*
X133985000Y-94318000D02*
X133985000Y-81280000D01*
X136852000Y-59436000D02*
X140970000Y-59436000D01*
X135286000Y-61002000D02*
X136852000Y-59436000D01*
X137965000Y-105410000D02*
X148590000Y-105410000D01*
X149666000Y-104334000D02*
X149666000Y-103395000D01*
X135950000Y-103395000D02*
X137965000Y-105410000D01*
X140970000Y-59436000D02*
X142240000Y-60706000D01*
%TO.N,Net-(J1-Pin_8)*%
X161544000Y-83047708D02*
X152166000Y-92425708D01*
X152166000Y-92425708D02*
X152166000Y-96283000D01*
X161544000Y-76454000D02*
X161544000Y-83047708D01*
%TO.N,Net-(J1-Pin_7)*%
X139954000Y-87122000D02*
X136479000Y-83647000D01*
X136479000Y-77539000D02*
X137818000Y-76200000D01*
X137818000Y-76200000D02*
X138430000Y-76200000D01*
X136479000Y-83647000D02*
X136479000Y-77539000D01*
%TO.N,VDC*%
X142485182Y-66040000D02*
X138430000Y-66040000D01*
X155740000Y-97709000D02*
X144876000Y-97709000D01*
X161544000Y-61787000D02*
X159212000Y-59455000D01*
X161544000Y-66294000D02*
X161544000Y-61787000D01*
X157166000Y-96283000D02*
X155740000Y-97709000D01*
X159212000Y-59455000D02*
X149070182Y-59455000D01*
X149070182Y-59455000D02*
X142485182Y-66040000D01*
X144876000Y-97709000D02*
X143450000Y-96283000D01*
%TO.N,Net-(J2-Pin_9)*%
X153058000Y-81280000D02*
X153670000Y-81280000D01*
X151638000Y-74930000D02*
X151638000Y-79860000D01*
X146050000Y-70866000D02*
X147574000Y-70866000D01*
X151638000Y-79860000D02*
X153058000Y-81280000D01*
X147574000Y-70866000D02*
X151638000Y-74930000D01*
%TO.N,Net-(J7-Pin_1)*%
X128524000Y-90170000D02*
X128524000Y-97282000D01*
%TO.N,Net-(D2-A)*%
X126024000Y-90170000D02*
X126024000Y-86908000D01*
X126024000Y-86908000D02*
X127976000Y-86908000D01*
X126024000Y-86908000D02*
X123698000Y-84582000D01*
X127976000Y-86908000D02*
X130302000Y-84582000D01*
%TD*%
%TA.AperFunction,Conductor*%
%TO.N,GND*%
G36*
X136073810Y-58940185D02*
G01*
X136119565Y-58992989D01*
X136129509Y-59062147D01*
X136100484Y-59125703D01*
X136094457Y-59132174D01*
X135894392Y-59332240D01*
X135414305Y-59812326D01*
X135352982Y-59845811D01*
X135283290Y-59840827D01*
X135227358Y-59798956D01*
X135192547Y-59752455D01*
X135192544Y-59752452D01*
X135077335Y-59666206D01*
X135077328Y-59666202D01*
X134942482Y-59615908D01*
X134942483Y-59615908D01*
X134882883Y-59609501D01*
X134882881Y-59609500D01*
X134882873Y-59609500D01*
X134882864Y-59609500D01*
X133087129Y-59609500D01*
X133087123Y-59609501D01*
X133027516Y-59615908D01*
X132892671Y-59666202D01*
X132892664Y-59666206D01*
X132777455Y-59752452D01*
X132777452Y-59752455D01*
X132691206Y-59867664D01*
X132691202Y-59867671D01*
X132640908Y-60002517D01*
X132634501Y-60062116D01*
X132634500Y-60062135D01*
X132634500Y-61857870D01*
X132634501Y-61857876D01*
X132640908Y-61917483D01*
X132691202Y-62052328D01*
X132691206Y-62052335D01*
X132777452Y-62167544D01*
X132777455Y-62167547D01*
X132892664Y-62253793D01*
X132892671Y-62253797D01*
X132906206Y-62258845D01*
X133027517Y-62304091D01*
X133087127Y-62310500D01*
X133097685Y-62310499D01*
X133164723Y-62330179D01*
X133185372Y-62346818D01*
X133855591Y-63017037D01*
X133792007Y-63034075D01*
X133677993Y-63099901D01*
X133584901Y-63192993D01*
X133519075Y-63307007D01*
X133502037Y-63370591D01*
X132869728Y-62738282D01*
X132869727Y-62738282D01*
X132830380Y-62792439D01*
X132733904Y-62981782D01*
X132668242Y-63183869D01*
X132668242Y-63183872D01*
X132635000Y-63393753D01*
X132635000Y-63606246D01*
X132668242Y-63816127D01*
X132668242Y-63816130D01*
X132733904Y-64018217D01*
X132830375Y-64207550D01*
X132869728Y-64261716D01*
X133502037Y-63629408D01*
X133519075Y-63692993D01*
X133584901Y-63807007D01*
X133677993Y-63900099D01*
X133792007Y-63965925D01*
X133855589Y-63982962D01*
X133223282Y-64615269D01*
X133223282Y-64615270D01*
X133277452Y-64654626D01*
X133277451Y-64654626D01*
X133286495Y-64659234D01*
X133337292Y-64707208D01*
X133354087Y-64775029D01*
X133331550Y-64841164D01*
X133286499Y-64880202D01*
X133277182Y-64884949D01*
X133105213Y-65009890D01*
X132954890Y-65160213D01*
X132829951Y-65332179D01*
X132733444Y-65521585D01*
X132667753Y-65723760D01*
X132634500Y-65933713D01*
X132634500Y-66146287D01*
X132667754Y-66356243D01*
X132680786Y-66396352D01*
X132733444Y-66558414D01*
X132829951Y-66747820D01*
X132954890Y-66919786D01*
X133105213Y-67070109D01*
X133277182Y-67195050D01*
X133285946Y-67199516D01*
X133336742Y-67247491D01*
X133353536Y-67315312D01*
X133330998Y-67381447D01*
X133285946Y-67420484D01*
X133277182Y-67424949D01*
X133105213Y-67549890D01*
X132954890Y-67700213D01*
X132829951Y-67872179D01*
X132733444Y-68061585D01*
X132667753Y-68263760D01*
X132634500Y-68473713D01*
X132634500Y-68686286D01*
X132662773Y-68864799D01*
X132667754Y-68896243D01*
X132694968Y-68980000D01*
X132733444Y-69098414D01*
X132829951Y-69287820D01*
X132954890Y-69459786D01*
X133105213Y-69610109D01*
X133277182Y-69735050D01*
X133285946Y-69739516D01*
X133336742Y-69787491D01*
X133353536Y-69855312D01*
X133330998Y-69921447D01*
X133285946Y-69960484D01*
X133277182Y-69964949D01*
X133105213Y-70089890D01*
X132954890Y-70240213D01*
X132829951Y-70412179D01*
X132733444Y-70601585D01*
X132667753Y-70803760D01*
X132634756Y-71012099D01*
X132634500Y-71013713D01*
X132634500Y-71226287D01*
X132667754Y-71436243D01*
X132732719Y-71636185D01*
X132733444Y-71638414D01*
X132829951Y-71827820D01*
X132954890Y-71999786D01*
X133105213Y-72150109D01*
X133277182Y-72275050D01*
X133285946Y-72279516D01*
X133336742Y-72327491D01*
X133353536Y-72395312D01*
X133330998Y-72461447D01*
X133285946Y-72500484D01*
X133277182Y-72504949D01*
X133105213Y-72629890D01*
X132954890Y-72780213D01*
X132829951Y-72952179D01*
X132733444Y-73141585D01*
X132667753Y-73343760D01*
X132634500Y-73553713D01*
X132634500Y-73766286D01*
X132659285Y-73922776D01*
X132667754Y-73976243D01*
X132718644Y-74132867D01*
X132733444Y-74178414D01*
X132829951Y-74367820D01*
X132954890Y-74539786D01*
X133105213Y-74690109D01*
X133277182Y-74815050D01*
X133285946Y-74819516D01*
X133336742Y-74867491D01*
X133353536Y-74935312D01*
X133330998Y-75001447D01*
X133285946Y-75040484D01*
X133277182Y-75044949D01*
X133105213Y-75169890D01*
X132954890Y-75320213D01*
X132829951Y-75492179D01*
X132733444Y-75681585D01*
X132667753Y-75883760D01*
X132634500Y-76093713D01*
X132634500Y-76306286D01*
X132661343Y-76475769D01*
X132667754Y-76516243D01*
X132726098Y-76695808D01*
X132733444Y-76718414D01*
X132829951Y-76907820D01*
X132954890Y-77079786D01*
X133105213Y-77230109D01*
X133277182Y-77355050D01*
X133285946Y-77359516D01*
X133336742Y-77407491D01*
X133353536Y-77475312D01*
X133330998Y-77541447D01*
X133285946Y-77580484D01*
X133277182Y-77584949D01*
X133105213Y-77709890D01*
X132954890Y-77860213D01*
X132829951Y-78032179D01*
X132733444Y-78221585D01*
X132667753Y-78423760D01*
X132634500Y-78633713D01*
X132634500Y-78846286D01*
X132667753Y-79056239D01*
X132733444Y-79258414D01*
X132829951Y-79447820D01*
X132954890Y-79619786D01*
X133105213Y-79770109D01*
X133277182Y-79895050D01*
X133285946Y-79899516D01*
X133336742Y-79947491D01*
X133353536Y-80015312D01*
X133330998Y-80081447D01*
X133285946Y-80120484D01*
X133277182Y-80124949D01*
X133105213Y-80249890D01*
X132954890Y-80400213D01*
X132829951Y-80572179D01*
X132733444Y-80761585D01*
X132667753Y-80963760D01*
X132634500Y-81173713D01*
X132634500Y-81386286D01*
X132667753Y-81596239D01*
X132733444Y-81798414D01*
X132829951Y-81987820D01*
X132954890Y-82159786D01*
X132954896Y-82159792D01*
X133105208Y-82310104D01*
X133183384Y-82366902D01*
X133226051Y-82422231D01*
X133234500Y-82467220D01*
X133234500Y-94391918D01*
X133234500Y-94391920D01*
X133234499Y-94391920D01*
X133263340Y-94536907D01*
X133263343Y-94536917D01*
X133319914Y-94673492D01*
X133352812Y-94722727D01*
X133352813Y-94722730D01*
X133402046Y-94796414D01*
X133402052Y-94796421D01*
X134563298Y-95957665D01*
X134596783Y-96018988D01*
X134598681Y-96046841D01*
X134599500Y-96046841D01*
X134599500Y-96514286D01*
X134615258Y-96613782D01*
X134632754Y-96724243D01*
X134698262Y-96925856D01*
X134698444Y-96926414D01*
X134794951Y-97115820D01*
X134919890Y-97287786D01*
X135070213Y-97438109D01*
X135242179Y-97563048D01*
X135242181Y-97563049D01*
X135242184Y-97563051D01*
X135431588Y-97659557D01*
X135633757Y-97725246D01*
X135843713Y-97758500D01*
X135843714Y-97758500D01*
X136056286Y-97758500D01*
X136056287Y-97758500D01*
X136266243Y-97725246D01*
X136468412Y-97659557D01*
X136657816Y-97563051D01*
X136752523Y-97494243D01*
X136829786Y-97438109D01*
X136829788Y-97438106D01*
X136829792Y-97438104D01*
X136980104Y-97287792D01*
X137099683Y-97123204D01*
X137155011Y-97080540D01*
X137224624Y-97074561D01*
X137286420Y-97107166D01*
X137300313Y-97123199D01*
X137419654Y-97287459D01*
X137419896Y-97287792D01*
X137570213Y-97438109D01*
X137742179Y-97563048D01*
X137742181Y-97563049D01*
X137742184Y-97563051D01*
X137931588Y-97659557D01*
X138133757Y-97725246D01*
X138343713Y-97758500D01*
X138343714Y-97758500D01*
X138556286Y-97758500D01*
X138556287Y-97758500D01*
X138766243Y-97725246D01*
X138968412Y-97659557D01*
X139157816Y-97563051D01*
X139252523Y-97494243D01*
X139329786Y-97438109D01*
X139329788Y-97438106D01*
X139329792Y-97438104D01*
X139480104Y-97287792D01*
X139599991Y-97122779D01*
X139655320Y-97080115D01*
X139724933Y-97074136D01*
X139786729Y-97106741D01*
X139800627Y-97122781D01*
X139920272Y-97287459D01*
X139920276Y-97287464D01*
X140070535Y-97437723D01*
X140070540Y-97437727D01*
X140242442Y-97562620D01*
X140431782Y-97659095D01*
X140633871Y-97724757D01*
X140700000Y-97735231D01*
X140700000Y-96687145D01*
X140766657Y-96725630D01*
X140887465Y-96758000D01*
X141012535Y-96758000D01*
X141133343Y-96725630D01*
X141200000Y-96687145D01*
X141200000Y-97735230D01*
X141266126Y-97724757D01*
X141266129Y-97724757D01*
X141468217Y-97659095D01*
X141657557Y-97562620D01*
X141829458Y-97437728D01*
X141968330Y-97298856D01*
X142029653Y-97265371D01*
X142099345Y-97270355D01*
X142155279Y-97312226D01*
X142161551Y-97321440D01*
X142165185Y-97327331D01*
X142165186Y-97327334D01*
X142257288Y-97476656D01*
X142381344Y-97600712D01*
X142530666Y-97692814D01*
X142697203Y-97747999D01*
X142799991Y-97758500D01*
X143812769Y-97758499D01*
X143879808Y-97778183D01*
X143900450Y-97794818D01*
X144293049Y-98187416D01*
X144397584Y-98291951D01*
X144397587Y-98291953D01*
X144397588Y-98291954D01*
X144520503Y-98374083D01*
X144520506Y-98374085D01*
X144570665Y-98394861D01*
X144577080Y-98397518D01*
X144657088Y-98430659D01*
X144773241Y-98453763D01*
X144796380Y-98458365D01*
X144802081Y-98459500D01*
X144802082Y-98459500D01*
X155813920Y-98459500D01*
X155911462Y-98440096D01*
X155958913Y-98430658D01*
X156095495Y-98374084D01*
X156144729Y-98341186D01*
X156152153Y-98336226D01*
X156189220Y-98311459D01*
X156218416Y-98291952D01*
X156715548Y-97794817D01*
X156776871Y-97761333D01*
X156803229Y-97758499D01*
X157816002Y-97758499D01*
X157816008Y-97758499D01*
X157918797Y-97747999D01*
X158085334Y-97692814D01*
X158234656Y-97600712D01*
X158358712Y-97476656D01*
X158450814Y-97327334D01*
X158505999Y-97160797D01*
X158516500Y-97058009D01*
X158516500Y-96771713D01*
X162773500Y-96771713D01*
X162773500Y-97284287D01*
X162780318Y-97327331D01*
X162803968Y-97476657D01*
X162806754Y-97494243D01*
X162871273Y-97692812D01*
X162872444Y-97696414D01*
X162968951Y-97885820D01*
X163093890Y-98057786D01*
X163244213Y-98208109D01*
X163416179Y-98333048D01*
X163416181Y-98333049D01*
X163416184Y-98333051D01*
X163605588Y-98429557D01*
X163807757Y-98495246D01*
X164017713Y-98528500D01*
X164017714Y-98528500D01*
X164230286Y-98528500D01*
X164230287Y-98528500D01*
X164440243Y-98495246D01*
X164642412Y-98429557D01*
X164831816Y-98333051D01*
X165003792Y-98208104D01*
X165142604Y-98069291D01*
X165203923Y-98035809D01*
X165273615Y-98040793D01*
X165329549Y-98082664D01*
X165335821Y-98091878D01*
X165339185Y-98097333D01*
X165339186Y-98097334D01*
X165431288Y-98246656D01*
X165555344Y-98370712D01*
X165704666Y-98462814D01*
X165871203Y-98517999D01*
X165973991Y-98528500D01*
X167274008Y-98528499D01*
X167376797Y-98517999D01*
X167543334Y-98462814D01*
X167692656Y-98370712D01*
X167816712Y-98246656D01*
X167908814Y-98097334D01*
X167963999Y-97930797D01*
X167974500Y-97828009D01*
X167974499Y-96227992D01*
X167974299Y-96226039D01*
X167963999Y-96125203D01*
X167963998Y-96125200D01*
X167943500Y-96063342D01*
X167908814Y-95958666D01*
X167816712Y-95809344D01*
X167692656Y-95685288D01*
X167543334Y-95593186D01*
X167376797Y-95538001D01*
X167376795Y-95538000D01*
X167274010Y-95527500D01*
X165973998Y-95527500D01*
X165973981Y-95527501D01*
X165871203Y-95538000D01*
X165871200Y-95538001D01*
X165704668Y-95593185D01*
X165704663Y-95593187D01*
X165555342Y-95685289D01*
X165431289Y-95809342D01*
X165335821Y-95964121D01*
X165283873Y-96010845D01*
X165214910Y-96022068D01*
X165150828Y-95994224D01*
X165142601Y-95986705D01*
X165003786Y-95847890D01*
X164831820Y-95722951D01*
X164642414Y-95626444D01*
X164642413Y-95626443D01*
X164642412Y-95626443D01*
X164440243Y-95560754D01*
X164440241Y-95560753D01*
X164440240Y-95560753D01*
X164278957Y-95535208D01*
X164230287Y-95527500D01*
X164017713Y-95527500D01*
X163969042Y-95535208D01*
X163807760Y-95560753D01*
X163605585Y-95626444D01*
X163416179Y-95722951D01*
X163244213Y-95847890D01*
X163093890Y-95998213D01*
X162968951Y-96170179D01*
X162872444Y-96359585D01*
X162806753Y-96561760D01*
X162780799Y-96725630D01*
X162773500Y-96771713D01*
X158516500Y-96771713D01*
X158516499Y-96283000D01*
X158516499Y-95507998D01*
X158516498Y-95507981D01*
X158505999Y-95405203D01*
X158505998Y-95405200D01*
X158450814Y-95238666D01*
X158358712Y-95089344D01*
X158234656Y-94965288D01*
X158085334Y-94873186D01*
X157918797Y-94818001D01*
X157918795Y-94818000D01*
X157816010Y-94807500D01*
X156515998Y-94807500D01*
X156515981Y-94807501D01*
X156413203Y-94818000D01*
X156413200Y-94818001D01*
X156246668Y-94873185D01*
X156246663Y-94873187D01*
X156097342Y-94965289D01*
X155973289Y-95089342D01*
X155877551Y-95244559D01*
X155825603Y-95291283D01*
X155756640Y-95302506D01*
X155692558Y-95274662D01*
X155684331Y-95267143D01*
X155545464Y-95128276D01*
X155545459Y-95128272D01*
X155373557Y-95003379D01*
X155184215Y-94906903D01*
X154982124Y-94841241D01*
X154916000Y-94830768D01*
X154916000Y-95878854D01*
X154849343Y-95840370D01*
X154728535Y-95808000D01*
X154603465Y-95808000D01*
X154482657Y-95840370D01*
X154416000Y-95878854D01*
X154416000Y-94830768D01*
X154415999Y-94830768D01*
X154349875Y-94841241D01*
X154147784Y-94906903D01*
X153958442Y-95003379D01*
X153786540Y-95128272D01*
X153786535Y-95128276D01*
X153636276Y-95278535D01*
X153636272Y-95278540D01*
X153516627Y-95443218D01*
X153461297Y-95485884D01*
X153391684Y-95491863D01*
X153329889Y-95459257D01*
X153315991Y-95443218D01*
X153196109Y-95278214D01*
X153196105Y-95278209D01*
X153045794Y-95127898D01*
X153045788Y-95127893D01*
X152967615Y-95071097D01*
X152924949Y-95015767D01*
X152916500Y-94970779D01*
X152916500Y-92787937D01*
X152936185Y-92720898D01*
X152952814Y-92700261D01*
X157547821Y-88105253D01*
X157609142Y-88071770D01*
X157678834Y-88076754D01*
X157734767Y-88118626D01*
X157759184Y-88184090D01*
X157759500Y-88192933D01*
X157759500Y-88229999D01*
X157759501Y-88230019D01*
X157770000Y-88332796D01*
X157770001Y-88332799D01*
X157800554Y-88425000D01*
X157825186Y-88499334D01*
X157917288Y-88648656D01*
X158041344Y-88772712D01*
X158190666Y-88864814D01*
X158357203Y-88919999D01*
X158459991Y-88930500D01*
X159660008Y-88930499D01*
X159762797Y-88919999D01*
X159929334Y-88864814D01*
X160078656Y-88772712D01*
X160202712Y-88648656D01*
X160294814Y-88499334D01*
X160349999Y-88332797D01*
X160360500Y-88230009D01*
X160360499Y-87029992D01*
X160349999Y-86927203D01*
X160294814Y-86760666D01*
X160202712Y-86611344D01*
X160078656Y-86487288D01*
X159929334Y-86395186D01*
X159762797Y-86340001D01*
X159762795Y-86340000D01*
X159660016Y-86329500D01*
X159660009Y-86329500D01*
X159622937Y-86329500D01*
X159555898Y-86309815D01*
X159510143Y-86257011D01*
X159500199Y-86187853D01*
X159529224Y-86124297D01*
X159535256Y-86117819D01*
X161597819Y-84055256D01*
X161659142Y-84021771D01*
X161728834Y-84026755D01*
X161784767Y-84068627D01*
X161809184Y-84134091D01*
X161809500Y-84142937D01*
X161809500Y-86504582D01*
X161789815Y-86571621D01*
X161758385Y-86604900D01*
X161712787Y-86638028D01*
X161712782Y-86638032D01*
X161568028Y-86782786D01*
X161447715Y-86948386D01*
X161354781Y-87130776D01*
X161291522Y-87325465D01*
X161259500Y-87527648D01*
X161259500Y-87732351D01*
X161291522Y-87934534D01*
X161354781Y-88129223D01*
X161447715Y-88311613D01*
X161568028Y-88477213D01*
X161712786Y-88621971D01*
X161843113Y-88716657D01*
X161878390Y-88742287D01*
X161994607Y-88801503D01*
X162060776Y-88835218D01*
X162060778Y-88835218D01*
X162060781Y-88835220D01*
X162151856Y-88864812D01*
X162255465Y-88898477D01*
X162290336Y-88904000D01*
X162457648Y-88930500D01*
X162457649Y-88930500D01*
X162662351Y-88930500D01*
X162662352Y-88930500D01*
X162864534Y-88898477D01*
X163059219Y-88835220D01*
X163241610Y-88742287D01*
X163370482Y-88648657D01*
X163407213Y-88621971D01*
X163407215Y-88621968D01*
X163407219Y-88621966D01*
X163551966Y-88477219D01*
X163551968Y-88477215D01*
X163551971Y-88477213D01*
X163604732Y-88404590D01*
X163672287Y-88311610D01*
X163765220Y-88129219D01*
X163828477Y-87934534D01*
X163860500Y-87732352D01*
X163860500Y-87527648D01*
X163835544Y-87370082D01*
X163828477Y-87325465D01*
X163765218Y-87130776D01*
X163713865Y-87029992D01*
X163672287Y-86948390D01*
X163656892Y-86927200D01*
X163551971Y-86782786D01*
X163407217Y-86638032D01*
X163407212Y-86638028D01*
X163361615Y-86604900D01*
X163318949Y-86549571D01*
X163310500Y-86504582D01*
X163310500Y-85713982D01*
X165785500Y-85713982D01*
X165785500Y-87514010D01*
X165796000Y-87616796D01*
X165851185Y-87783332D01*
X165851187Y-87783337D01*
X165859278Y-87796454D01*
X165943288Y-87932656D01*
X166067344Y-88056712D01*
X166216665Y-88148814D01*
X166383202Y-88203999D01*
X166485990Y-88214500D01*
X166485995Y-88214500D01*
X168286005Y-88214500D01*
X168286010Y-88214500D01*
X168388798Y-88203999D01*
X168555335Y-88148814D01*
X168704656Y-88056712D01*
X168828712Y-87932656D01*
X168920814Y-87783335D01*
X168975999Y-87616798D01*
X168986500Y-87514010D01*
X168986500Y-85713990D01*
X168975999Y-85611202D01*
X168920814Y-85444665D01*
X168828712Y-85295344D01*
X168704656Y-85171288D01*
X168558631Y-85081219D01*
X168555337Y-85079187D01*
X168555332Y-85079185D01*
X168553863Y-85078698D01*
X168388798Y-85024001D01*
X168388796Y-85024000D01*
X168286017Y-85013500D01*
X168286010Y-85013500D01*
X166485990Y-85013500D01*
X166485982Y-85013500D01*
X166383203Y-85024000D01*
X166383202Y-85024001D01*
X166324388Y-85043490D01*
X166216667Y-85079185D01*
X166216662Y-85079187D01*
X166067342Y-85171289D01*
X165943289Y-85295342D01*
X165851187Y-85444662D01*
X165851185Y-85444667D01*
X165823349Y-85528669D01*
X165796001Y-85611202D01*
X165796001Y-85611203D01*
X165796000Y-85611203D01*
X165785500Y-85713982D01*
X163310500Y-85713982D01*
X163310500Y-84436229D01*
X163330185Y-84369190D01*
X163346815Y-84348552D01*
X163544908Y-84150458D01*
X163585130Y-84123582D01*
X163724863Y-84065703D01*
X163864162Y-83972626D01*
X163982626Y-83854162D01*
X164075703Y-83714863D01*
X164139816Y-83560082D01*
X164172500Y-83395767D01*
X164172500Y-83228233D01*
X164139816Y-83063918D01*
X164132583Y-83046457D01*
X164075704Y-82909139D01*
X163982626Y-82769837D01*
X163864162Y-82651373D01*
X163724860Y-82558295D01*
X163570082Y-82494184D01*
X163570074Y-82494182D01*
X163405771Y-82461500D01*
X163405767Y-82461500D01*
X163238233Y-82461500D01*
X163238228Y-82461500D01*
X163073925Y-82494182D01*
X163073917Y-82494184D01*
X162919139Y-82558295D01*
X162779837Y-82651373D01*
X162661373Y-82769837D01*
X162568295Y-82909139D01*
X162533061Y-82994203D01*
X162489220Y-83048606D01*
X162422925Y-83070671D01*
X162355226Y-83053392D01*
X162307616Y-83002254D01*
X162294500Y-82946750D01*
X162294500Y-77579416D01*
X162314185Y-77512377D01*
X162345613Y-77479099D01*
X162391219Y-77445966D01*
X162535966Y-77301219D01*
X162535968Y-77301215D01*
X162535971Y-77301213D01*
X162615079Y-77192328D01*
X162656287Y-77135610D01*
X162749220Y-76953219D01*
X162812477Y-76758534D01*
X162844500Y-76556352D01*
X162844500Y-76351648D01*
X162840760Y-76328038D01*
X165785500Y-76328038D01*
X165785500Y-76579962D01*
X165807429Y-76718414D01*
X165824910Y-76828785D01*
X165902760Y-77068383D01*
X166017132Y-77292848D01*
X166165201Y-77496649D01*
X166165205Y-77496654D01*
X166343345Y-77674794D01*
X166343350Y-77674798D01*
X166443649Y-77747669D01*
X166547155Y-77822870D01*
X166664217Y-77882516D01*
X166771616Y-77937239D01*
X166771618Y-77937239D01*
X166771621Y-77937241D01*
X167011215Y-78015090D01*
X167260038Y-78054500D01*
X167260039Y-78054500D01*
X167511961Y-78054500D01*
X167511962Y-78054500D01*
X167760785Y-78015090D01*
X168000379Y-77937241D01*
X168224845Y-77822870D01*
X168428656Y-77674793D01*
X168606793Y-77496656D01*
X168754870Y-77292845D01*
X168869241Y-77068379D01*
X168947090Y-76828785D01*
X168986500Y-76579962D01*
X168986500Y-76328038D01*
X168947090Y-76079215D01*
X168869241Y-75839621D01*
X168869239Y-75839618D01*
X168869239Y-75839616D01*
X168788719Y-75681588D01*
X168754870Y-75615155D01*
X168644192Y-75462819D01*
X168606798Y-75411350D01*
X168606794Y-75411345D01*
X168428654Y-75233205D01*
X168428649Y-75233201D01*
X168224848Y-75085132D01*
X168224847Y-75085131D01*
X168224845Y-75085130D01*
X168115206Y-75029266D01*
X168000383Y-74970760D01*
X167760785Y-74892910D01*
X167721375Y-74886668D01*
X167511962Y-74853500D01*
X167260038Y-74853500D01*
X167171703Y-74867491D01*
X167011214Y-74892910D01*
X166771616Y-74970760D01*
X166547151Y-75085132D01*
X166343350Y-75233201D01*
X166343345Y-75233205D01*
X166165205Y-75411345D01*
X166165201Y-75411350D01*
X166017132Y-75615151D01*
X165902760Y-75839616D01*
X165824910Y-76079214D01*
X165822614Y-76093713D01*
X165785500Y-76328038D01*
X162840760Y-76328038D01*
X162812477Y-76149466D01*
X162749220Y-75954781D01*
X162749218Y-75954778D01*
X162749218Y-75954776D01*
X162690540Y-75839616D01*
X162656287Y-75772390D01*
X162620040Y-75722500D01*
X162535971Y-75606786D01*
X162391213Y-75462028D01*
X162225613Y-75341715D01*
X162225612Y-75341714D01*
X162225610Y-75341713D01*
X162168653Y-75312691D01*
X162043223Y-75248781D01*
X161848534Y-75185522D01*
X161673995Y-75157878D01*
X161646352Y-75153500D01*
X161441648Y-75153500D01*
X161417329Y-75157351D01*
X161239465Y-75185522D01*
X161044776Y-75248781D01*
X160862386Y-75341715D01*
X160696786Y-75462028D01*
X160552028Y-75606786D01*
X160431715Y-75772386D01*
X160338781Y-75954776D01*
X160275522Y-76149465D01*
X160243500Y-76351648D01*
X160243500Y-76556351D01*
X160275522Y-76758534D01*
X160338781Y-76953223D01*
X160431715Y-77135613D01*
X160552028Y-77301213D01*
X160552034Y-77301219D01*
X160696781Y-77445966D01*
X160742384Y-77479098D01*
X160785050Y-77534425D01*
X160793500Y-77579416D01*
X160793500Y-82685477D01*
X160773815Y-82752516D01*
X160757181Y-82773158D01*
X154162658Y-89367681D01*
X154101335Y-89401166D01*
X154074977Y-89404000D01*
X153144748Y-89404000D01*
X153166518Y-89366292D01*
X153204000Y-89226409D01*
X153204000Y-89081591D01*
X153166518Y-88941708D01*
X153144748Y-88904000D01*
X154092532Y-88904000D01*
X154070734Y-88766371D01*
X154000082Y-88548929D01*
X153896288Y-88345223D01*
X153761902Y-88160257D01*
X153600242Y-87998597D01*
X153415276Y-87864211D01*
X153211568Y-87760417D01*
X152994124Y-87689765D01*
X152904000Y-87675490D01*
X152904000Y-88663252D01*
X152866292Y-88641482D01*
X152726409Y-88604000D01*
X152581591Y-88604000D01*
X152441708Y-88641482D01*
X152404000Y-88663252D01*
X152404000Y-87675490D01*
X152403999Y-87675490D01*
X152313875Y-87689765D01*
X152096431Y-87760417D01*
X151892723Y-87864211D01*
X151707757Y-87998597D01*
X151546097Y-88160257D01*
X151484627Y-88244864D01*
X151429297Y-88287529D01*
X151359684Y-88293508D01*
X151297889Y-88260902D01*
X151283991Y-88244864D01*
X151222286Y-88159934D01*
X151060566Y-87998214D01*
X150875538Y-87863783D01*
X150671755Y-87759950D01*
X150454248Y-87689278D01*
X150259922Y-87658500D01*
X150228354Y-87653500D01*
X149999646Y-87653500D01*
X149924349Y-87665426D01*
X149773753Y-87689278D01*
X149773750Y-87689278D01*
X149556244Y-87759950D01*
X149352461Y-87863783D01*
X149169759Y-87996525D01*
X149103952Y-88020005D01*
X149035898Y-88004180D01*
X148987203Y-87954074D01*
X148980690Y-87939538D01*
X148978123Y-87932656D01*
X148970296Y-87911669D01*
X148970293Y-87911664D01*
X148884047Y-87796455D01*
X148884044Y-87796452D01*
X148768835Y-87710206D01*
X148768828Y-87710202D01*
X148633982Y-87659908D01*
X148633983Y-87659908D01*
X148574383Y-87653501D01*
X148574381Y-87653500D01*
X148574373Y-87653500D01*
X148574364Y-87653500D01*
X146573629Y-87653500D01*
X146573623Y-87653501D01*
X146514016Y-87659908D01*
X146379171Y-87710202D01*
X146379164Y-87710206D01*
X146263955Y-87796452D01*
X146263952Y-87796455D01*
X146177706Y-87911664D01*
X146177702Y-87911671D01*
X146127408Y-88046517D01*
X146121001Y-88106116D01*
X146121000Y-88106135D01*
X146121000Y-90201870D01*
X146121001Y-90201876D01*
X146127408Y-90261483D01*
X146177702Y-90396328D01*
X146177706Y-90396335D01*
X146263952Y-90511544D01*
X146263955Y-90511547D01*
X146379164Y-90597793D01*
X146379171Y-90597797D01*
X146514017Y-90648091D01*
X146514016Y-90648091D01*
X146520944Y-90648835D01*
X146573627Y-90654500D01*
X148574372Y-90654499D01*
X148633983Y-90648091D01*
X148768831Y-90597796D01*
X148884046Y-90511546D01*
X148970296Y-90396331D01*
X148980690Y-90368460D01*
X149022560Y-90312527D01*
X149088023Y-90288108D01*
X149156297Y-90302958D01*
X149169746Y-90311465D01*
X149352462Y-90444217D01*
X149484599Y-90511544D01*
X149556244Y-90548049D01*
X149773751Y-90618721D01*
X149773752Y-90618721D01*
X149773755Y-90618722D01*
X149999646Y-90654500D01*
X149999647Y-90654500D01*
X150228353Y-90654500D01*
X150228354Y-90654500D01*
X150454245Y-90618722D01*
X150454248Y-90618721D01*
X150454249Y-90618721D01*
X150671755Y-90548049D01*
X150671755Y-90548048D01*
X150671758Y-90548048D01*
X150875538Y-90444217D01*
X151060566Y-90309786D01*
X151222286Y-90148066D01*
X151283992Y-90063134D01*
X151339319Y-90020470D01*
X151408932Y-90014491D01*
X151470727Y-90047096D01*
X151484626Y-90063135D01*
X151546097Y-90147741D01*
X151546097Y-90147742D01*
X151707757Y-90309402D01*
X151892723Y-90443788D01*
X152096429Y-90547582D01*
X152313871Y-90618234D01*
X152404000Y-90632509D01*
X152404000Y-89644747D01*
X152441708Y-89666518D01*
X152581591Y-89704000D01*
X152726409Y-89704000D01*
X152866292Y-89666518D01*
X152904000Y-89644747D01*
X152904000Y-90574977D01*
X152884315Y-90642016D01*
X152867681Y-90662658D01*
X151583050Y-91947288D01*
X151583044Y-91947296D01*
X151533812Y-92020976D01*
X151533813Y-92020977D01*
X151500921Y-92070204D01*
X151500914Y-92070216D01*
X151444342Y-92206794D01*
X151444340Y-92206800D01*
X151415500Y-92351787D01*
X151415500Y-94970779D01*
X151395815Y-95037818D01*
X151364385Y-95071097D01*
X151286211Y-95127893D01*
X151286205Y-95127898D01*
X151135894Y-95278209D01*
X151135890Y-95278214D01*
X151016318Y-95442793D01*
X150960989Y-95485459D01*
X150891375Y-95491438D01*
X150829580Y-95458833D01*
X150815682Y-95442793D01*
X150696109Y-95278214D01*
X150696105Y-95278209D01*
X150545786Y-95127890D01*
X150373820Y-95002951D01*
X150184414Y-94906444D01*
X150184413Y-94906443D01*
X150184412Y-94906443D01*
X149982243Y-94840754D01*
X149982241Y-94840753D01*
X149982240Y-94840753D01*
X149820957Y-94815208D01*
X149772287Y-94807500D01*
X149559713Y-94807500D01*
X149511042Y-94815208D01*
X149349760Y-94840753D01*
X149147585Y-94906444D01*
X148958179Y-95002951D01*
X148786213Y-95127890D01*
X148635890Y-95278213D01*
X148510951Y-95450179D01*
X148414444Y-95639585D01*
X148348753Y-95841760D01*
X148315500Y-96051713D01*
X148315500Y-96514286D01*
X148331258Y-96613782D01*
X148348754Y-96724243D01*
X148367520Y-96782000D01*
X148372129Y-96796182D01*
X148374124Y-96866023D01*
X148338044Y-96925856D01*
X148275343Y-96956684D01*
X148254198Y-96958500D01*
X145238229Y-96958500D01*
X145171190Y-96938815D01*
X145150548Y-96922181D01*
X144836818Y-96608451D01*
X144803333Y-96547128D01*
X144800499Y-96520770D01*
X144800499Y-95507998D01*
X144800498Y-95507981D01*
X144789999Y-95405203D01*
X144789998Y-95405200D01*
X144734814Y-95238666D01*
X144642712Y-95089344D01*
X144518656Y-94965288D01*
X144369334Y-94873186D01*
X144202797Y-94818001D01*
X144202795Y-94818000D01*
X144100010Y-94807500D01*
X142799998Y-94807500D01*
X142799981Y-94807501D01*
X142697203Y-94818000D01*
X142697200Y-94818001D01*
X142530668Y-94873185D01*
X142530663Y-94873187D01*
X142381342Y-94965289D01*
X142257289Y-95089342D01*
X142161551Y-95244559D01*
X142109603Y-95291283D01*
X142040640Y-95302506D01*
X141976558Y-95274662D01*
X141968331Y-95267143D01*
X141829464Y-95128276D01*
X141829459Y-95128272D01*
X141657557Y-95003379D01*
X141468215Y-94906903D01*
X141266124Y-94841241D01*
X141200000Y-94830768D01*
X141200000Y-95878854D01*
X141133343Y-95840370D01*
X141012535Y-95808000D01*
X140887465Y-95808000D01*
X140766657Y-95840370D01*
X140700000Y-95878854D01*
X140700000Y-94830768D01*
X140699999Y-94830768D01*
X140633875Y-94841241D01*
X140431784Y-94906903D01*
X140242442Y-95003379D01*
X140070540Y-95128272D01*
X140070535Y-95128276D01*
X139920276Y-95278535D01*
X139920272Y-95278540D01*
X139800627Y-95443218D01*
X139745297Y-95485884D01*
X139675684Y-95491863D01*
X139613889Y-95459257D01*
X139599991Y-95443218D01*
X139480109Y-95278214D01*
X139480105Y-95278209D01*
X139329786Y-95127890D01*
X139157820Y-95002951D01*
X138968414Y-94906444D01*
X138968413Y-94906443D01*
X138968412Y-94906443D01*
X138766243Y-94840754D01*
X138766241Y-94840753D01*
X138766240Y-94840753D01*
X138604957Y-94815208D01*
X138556287Y-94807500D01*
X138343713Y-94807500D01*
X138295042Y-94815208D01*
X138133760Y-94840753D01*
X137931585Y-94906444D01*
X137742179Y-95002951D01*
X137570213Y-95127890D01*
X137419894Y-95278209D01*
X137419890Y-95278214D01*
X137300318Y-95442793D01*
X137244989Y-95485459D01*
X137175375Y-95491438D01*
X137113580Y-95458833D01*
X137099682Y-95442793D01*
X136980109Y-95278214D01*
X136980105Y-95278209D01*
X136829786Y-95127890D01*
X136657820Y-95002951D01*
X136468414Y-94906444D01*
X136468413Y-94906443D01*
X136468412Y-94906443D01*
X136266243Y-94840754D01*
X136266241Y-94840753D01*
X136266240Y-94840753D01*
X136104957Y-94815208D01*
X136056287Y-94807500D01*
X135843713Y-94807500D01*
X135640360Y-94839707D01*
X135571067Y-94830752D01*
X135533282Y-94804915D01*
X134771819Y-94043451D01*
X134738334Y-93982128D01*
X134735500Y-93955770D01*
X134735500Y-89999050D01*
X134755185Y-89932011D01*
X134807989Y-89886256D01*
X134877147Y-89876312D01*
X134940703Y-89905337D01*
X134947181Y-89911369D01*
X135090535Y-90054723D01*
X135090540Y-90054727D01*
X135262442Y-90179620D01*
X135451782Y-90276095D01*
X135653871Y-90341757D01*
X135720000Y-90352231D01*
X135720000Y-89304145D01*
X135786657Y-89342630D01*
X135907465Y-89375000D01*
X136032535Y-89375000D01*
X136153343Y-89342630D01*
X136220000Y-89304145D01*
X136220000Y-90352230D01*
X136286126Y-90341757D01*
X136286129Y-90341757D01*
X136488217Y-90276095D01*
X136677557Y-90179620D01*
X136849459Y-90054727D01*
X136849464Y-90054723D01*
X136999721Y-89904466D01*
X137119371Y-89739781D01*
X137174701Y-89697115D01*
X137244314Y-89691136D01*
X137306110Y-89723741D01*
X137320008Y-89739781D01*
X137439890Y-89904785D01*
X137439894Y-89904790D01*
X137590213Y-90055109D01*
X137762179Y-90180048D01*
X137762181Y-90180049D01*
X137762184Y-90180051D01*
X137951588Y-90276557D01*
X138153757Y-90342246D01*
X138363713Y-90375500D01*
X138363714Y-90375500D01*
X138576286Y-90375500D01*
X138576287Y-90375500D01*
X138786243Y-90342246D01*
X138988412Y-90276557D01*
X139177816Y-90180051D01*
X139296729Y-90093656D01*
X139349784Y-90055110D01*
X139349784Y-90055109D01*
X139349792Y-90055104D01*
X139488604Y-89916291D01*
X139549923Y-89882809D01*
X139619615Y-89887793D01*
X139675549Y-89929664D01*
X139681821Y-89938878D01*
X139685185Y-89944333D01*
X139685186Y-89944334D01*
X139777288Y-90093656D01*
X139901344Y-90217712D01*
X140050666Y-90309814D01*
X140217203Y-90364999D01*
X140319991Y-90375500D01*
X141620008Y-90375499D01*
X141722797Y-90364999D01*
X141889334Y-90309814D01*
X142038656Y-90217712D01*
X142162712Y-90093656D01*
X142254814Y-89944334D01*
X142309999Y-89777797D01*
X142320500Y-89675009D01*
X142320499Y-88662228D01*
X142340183Y-88595190D01*
X142356813Y-88574553D01*
X145308549Y-85622819D01*
X145369872Y-85589334D01*
X145396230Y-85586500D01*
X150695920Y-85586500D01*
X150793462Y-85567096D01*
X150840913Y-85557658D01*
X150977495Y-85501084D01*
X151100416Y-85418951D01*
X151204951Y-85314416D01*
X151287084Y-85191495D01*
X151343658Y-85054913D01*
X151358162Y-84982000D01*
X151372500Y-84909920D01*
X151372500Y-80955229D01*
X151378738Y-80933983D01*
X151380318Y-80911895D01*
X151388390Y-80901111D01*
X151392185Y-80888190D01*
X151408918Y-80873690D01*
X151422190Y-80855962D01*
X151434810Y-80851254D01*
X151444989Y-80842435D01*
X151466906Y-80839283D01*
X151487654Y-80831545D01*
X151500814Y-80834407D01*
X151514147Y-80832491D01*
X151534290Y-80841690D01*
X151555927Y-80846397D01*
X151573652Y-80859665D01*
X151577703Y-80861516D01*
X151584181Y-80867548D01*
X151633181Y-80916548D01*
X151666666Y-80977871D01*
X151669500Y-81004229D01*
X151669500Y-82077870D01*
X151669501Y-82077876D01*
X151675908Y-82137483D01*
X151726202Y-82272328D01*
X151726206Y-82272335D01*
X151812452Y-82387544D01*
X151812455Y-82387547D01*
X151927664Y-82473793D01*
X151927671Y-82473797D01*
X152062517Y-82524091D01*
X152062516Y-82524091D01*
X152069444Y-82524835D01*
X152122127Y-82530500D01*
X155217872Y-82530499D01*
X155277483Y-82524091D01*
X155412331Y-82473796D01*
X155527546Y-82387546D01*
X155613796Y-82272331D01*
X155664091Y-82137483D01*
X155670500Y-82077873D01*
X155670499Y-80482128D01*
X155664091Y-80422517D01*
X155655772Y-80400213D01*
X155613797Y-80287671D01*
X155613793Y-80287664D01*
X155527547Y-80172456D01*
X155527548Y-80172456D01*
X155527546Y-80172454D01*
X155443136Y-80109265D01*
X155401267Y-80053333D01*
X155396283Y-79983641D01*
X155429768Y-79922318D01*
X155443130Y-79910739D01*
X155527546Y-79847546D01*
X155613796Y-79732331D01*
X155664091Y-79597483D01*
X155670500Y-79537873D01*
X155670499Y-77942128D01*
X155664091Y-77882517D01*
X155655772Y-77860213D01*
X155613797Y-77747671D01*
X155613793Y-77747664D01*
X155527547Y-77632456D01*
X155527548Y-77632456D01*
X155527546Y-77632454D01*
X155443136Y-77569265D01*
X155401267Y-77513333D01*
X155396283Y-77443641D01*
X155429768Y-77382318D01*
X155443130Y-77370739D01*
X155527546Y-77307546D01*
X155613796Y-77192331D01*
X155664091Y-77057483D01*
X155670500Y-76997873D01*
X155670499Y-75402128D01*
X155664091Y-75342517D01*
X155656442Y-75322010D01*
X155613797Y-75207671D01*
X155613793Y-75207664D01*
X155562123Y-75138643D01*
X155527546Y-75092454D01*
X155443136Y-75029265D01*
X155401267Y-74973333D01*
X155396283Y-74903641D01*
X155429768Y-74842318D01*
X155443130Y-74830739D01*
X155527546Y-74767546D01*
X155613796Y-74652331D01*
X155664091Y-74517483D01*
X155670500Y-74457873D01*
X155670499Y-72862128D01*
X155664091Y-72802517D01*
X155655772Y-72780213D01*
X155613797Y-72667671D01*
X155613793Y-72667664D01*
X155527547Y-72552456D01*
X155527548Y-72552456D01*
X155527546Y-72552454D01*
X155443136Y-72489265D01*
X155401267Y-72433333D01*
X155396283Y-72363641D01*
X155429768Y-72302318D01*
X155443130Y-72290739D01*
X155527546Y-72227546D01*
X155613796Y-72112331D01*
X155664091Y-71977483D01*
X155670500Y-71917873D01*
X155670499Y-70322128D01*
X155664091Y-70262517D01*
X155655772Y-70240213D01*
X155613797Y-70127671D01*
X155613793Y-70127664D01*
X155562123Y-70058643D01*
X155527546Y-70012454D01*
X155443136Y-69949265D01*
X155401267Y-69893333D01*
X155396283Y-69823641D01*
X155429768Y-69762318D01*
X155443130Y-69750739D01*
X155527546Y-69687546D01*
X155613796Y-69572331D01*
X155664091Y-69437483D01*
X155670500Y-69377873D01*
X155670499Y-67782128D01*
X155664091Y-67722517D01*
X155659668Y-67710659D01*
X155613797Y-67587671D01*
X155613793Y-67587664D01*
X155547583Y-67499220D01*
X155527546Y-67472454D01*
X155443136Y-67409265D01*
X155401267Y-67353333D01*
X155396283Y-67283641D01*
X155429768Y-67222318D01*
X155443130Y-67210739D01*
X155527546Y-67147546D01*
X155613796Y-67032331D01*
X155664091Y-66897483D01*
X155670500Y-66837873D01*
X155670499Y-65242128D01*
X155664091Y-65182517D01*
X155655772Y-65160213D01*
X155613797Y-65047671D01*
X155613793Y-65047664D01*
X155527547Y-64932456D01*
X155527548Y-64932456D01*
X155527546Y-64932454D01*
X155443136Y-64869265D01*
X155401267Y-64813333D01*
X155396283Y-64743641D01*
X155429768Y-64682318D01*
X155443130Y-64670739D01*
X155527546Y-64607546D01*
X155613796Y-64492331D01*
X155664091Y-64357483D01*
X155670500Y-64297873D01*
X155670499Y-62702128D01*
X155664091Y-62642517D01*
X155663448Y-62640794D01*
X155613797Y-62507671D01*
X155613793Y-62507664D01*
X155527547Y-62392456D01*
X155527548Y-62392456D01*
X155527546Y-62392454D01*
X155443136Y-62329265D01*
X155401267Y-62273333D01*
X155396283Y-62203641D01*
X155429768Y-62142318D01*
X155443130Y-62130739D01*
X155527546Y-62067546D01*
X155613796Y-61952331D01*
X155664091Y-61817483D01*
X155670500Y-61757873D01*
X155670499Y-60329499D01*
X155690184Y-60262461D01*
X155742987Y-60216706D01*
X155794499Y-60205500D01*
X156640500Y-60205500D01*
X156707539Y-60225185D01*
X156753294Y-60277989D01*
X156764500Y-60329500D01*
X156764500Y-61857870D01*
X156764501Y-61857876D01*
X156770908Y-61917483D01*
X156821202Y-62052328D01*
X156821206Y-62052335D01*
X156907452Y-62167544D01*
X156907455Y-62167547D01*
X157022664Y-62253793D01*
X157022671Y-62253797D01*
X157154082Y-62302810D01*
X157210016Y-62344681D01*
X157234433Y-62410145D01*
X157219582Y-62478418D01*
X157198431Y-62506673D01*
X157084889Y-62620215D01*
X156959951Y-62792179D01*
X156863444Y-62981585D01*
X156797753Y-63183760D01*
X156764500Y-63393713D01*
X156764500Y-63606286D01*
X156797753Y-63816239D01*
X156863444Y-64018414D01*
X156959951Y-64207820D01*
X157084890Y-64379786D01*
X157235213Y-64530109D01*
X157407182Y-64655050D01*
X157415946Y-64659516D01*
X157466742Y-64707491D01*
X157483536Y-64775312D01*
X157460998Y-64841447D01*
X157415946Y-64880484D01*
X157407182Y-64884949D01*
X157235213Y-65009890D01*
X157084890Y-65160213D01*
X156959951Y-65332179D01*
X156863444Y-65521585D01*
X156797753Y-65723760D01*
X156764500Y-65933713D01*
X156764500Y-66146287D01*
X156797754Y-66356243D01*
X156810786Y-66396352D01*
X156863444Y-66558414D01*
X156959951Y-66747820D01*
X157084890Y-66919786D01*
X157235213Y-67070109D01*
X157407182Y-67195050D01*
X157415946Y-67199516D01*
X157466742Y-67247491D01*
X157483536Y-67315312D01*
X157460998Y-67381447D01*
X157415946Y-67420484D01*
X157407182Y-67424949D01*
X157235213Y-67549890D01*
X157084890Y-67700213D01*
X156959951Y-67872179D01*
X156863444Y-68061585D01*
X156797753Y-68263760D01*
X156764500Y-68473713D01*
X156764500Y-68686286D01*
X156792773Y-68864799D01*
X156797754Y-68896243D01*
X156824968Y-68980000D01*
X156863444Y-69098414D01*
X156959951Y-69287820D01*
X157084890Y-69459786D01*
X157235213Y-69610109D01*
X157407182Y-69735050D01*
X157415946Y-69739516D01*
X157466742Y-69787491D01*
X157483536Y-69855312D01*
X157460998Y-69921447D01*
X157415946Y-69960484D01*
X157407182Y-69964949D01*
X157235213Y-70089890D01*
X157084890Y-70240213D01*
X156959951Y-70412179D01*
X156863444Y-70601585D01*
X156797753Y-70803760D01*
X156764756Y-71012099D01*
X156764500Y-71013713D01*
X156764500Y-71226287D01*
X156797754Y-71436243D01*
X156862719Y-71636185D01*
X156863444Y-71638414D01*
X156959951Y-71827820D01*
X157084890Y-71999786D01*
X157235213Y-72150109D01*
X157407182Y-72275050D01*
X157415946Y-72279516D01*
X157466742Y-72327491D01*
X157483536Y-72395312D01*
X157460998Y-72461447D01*
X157415946Y-72500484D01*
X157407182Y-72504949D01*
X157235213Y-72629890D01*
X157084890Y-72780213D01*
X156959951Y-72952179D01*
X156863444Y-73141585D01*
X156797753Y-73343760D01*
X156764500Y-73553713D01*
X156764500Y-73766286D01*
X156789285Y-73922776D01*
X156797754Y-73976243D01*
X156848644Y-74132867D01*
X156863444Y-74178414D01*
X156959951Y-74367820D01*
X157084890Y-74539786D01*
X157235213Y-74690109D01*
X157407182Y-74815050D01*
X157415946Y-74819516D01*
X157466742Y-74867491D01*
X157483536Y-74935312D01*
X157460998Y-75001447D01*
X157415946Y-75040484D01*
X157407182Y-75044949D01*
X157235213Y-75169890D01*
X157084890Y-75320213D01*
X156959951Y-75492179D01*
X156863444Y-75681585D01*
X156797753Y-75883760D01*
X156764500Y-76093713D01*
X156764500Y-76306286D01*
X156791343Y-76475769D01*
X156797754Y-76516243D01*
X156856098Y-76695808D01*
X156863444Y-76718414D01*
X156959951Y-76907820D01*
X157084890Y-77079786D01*
X157235213Y-77230109D01*
X157407182Y-77355050D01*
X157415946Y-77359516D01*
X157466742Y-77407491D01*
X157483536Y-77475312D01*
X157460998Y-77541447D01*
X157415946Y-77580484D01*
X157407182Y-77584949D01*
X157235213Y-77709890D01*
X157084890Y-77860213D01*
X156959951Y-78032179D01*
X156863444Y-78221585D01*
X156797753Y-78423760D01*
X156764500Y-78633713D01*
X156764500Y-78846286D01*
X156797753Y-79056239D01*
X156863444Y-79258414D01*
X156959951Y-79447820D01*
X157084890Y-79619786D01*
X157235213Y-79770109D01*
X157407182Y-79895050D01*
X157415946Y-79899516D01*
X157466742Y-79947491D01*
X157483536Y-80015312D01*
X157460998Y-80081447D01*
X157415946Y-80120484D01*
X157407182Y-80124949D01*
X157235213Y-80249890D01*
X157084890Y-80400213D01*
X156959951Y-80572179D01*
X156863444Y-80761585D01*
X156797753Y-80963760D01*
X156764500Y-81173713D01*
X156764500Y-81386286D01*
X156797753Y-81596239D01*
X156863444Y-81798414D01*
X156959951Y-81987820D01*
X157084890Y-82159786D01*
X157235213Y-82310109D01*
X157407179Y-82435048D01*
X157407181Y-82435049D01*
X157407184Y-82435051D01*
X157596588Y-82531557D01*
X157798757Y-82597246D01*
X158008713Y-82630500D01*
X158008714Y-82630500D01*
X158221286Y-82630500D01*
X158221287Y-82630500D01*
X158431243Y-82597246D01*
X158633412Y-82531557D01*
X158822816Y-82435051D01*
X158888200Y-82387547D01*
X158994786Y-82310109D01*
X158994788Y-82310106D01*
X158994792Y-82310104D01*
X159145104Y-82159792D01*
X159145106Y-82159788D01*
X159145109Y-82159786D01*
X159270048Y-81987820D01*
X159270047Y-81987820D01*
X159270051Y-81987816D01*
X159366557Y-81798412D01*
X159432246Y-81596243D01*
X159465500Y-81386287D01*
X159465500Y-81173713D01*
X159432246Y-80963757D01*
X159366557Y-80761588D01*
X159270051Y-80572184D01*
X159270049Y-80572181D01*
X159270048Y-80572179D01*
X159145109Y-80400213D01*
X158994786Y-80249890D01*
X158822820Y-80124951D01*
X158822115Y-80124591D01*
X158814054Y-80120485D01*
X158763259Y-80072512D01*
X158746463Y-80004692D01*
X158768999Y-79938556D01*
X158814054Y-79899515D01*
X158822816Y-79895051D01*
X158844789Y-79879086D01*
X158994786Y-79770109D01*
X158994788Y-79770106D01*
X158994792Y-79770104D01*
X159145104Y-79619792D01*
X159145106Y-79619788D01*
X159145109Y-79619786D01*
X159270048Y-79447820D01*
X159270047Y-79447820D01*
X159270051Y-79447816D01*
X159366557Y-79258412D01*
X159432246Y-79056243D01*
X159465500Y-78846287D01*
X159465500Y-78633713D01*
X159432246Y-78423757D01*
X159366557Y-78221588D01*
X159270051Y-78032184D01*
X159270049Y-78032181D01*
X159270048Y-78032179D01*
X159145109Y-77860213D01*
X158994786Y-77709890D01*
X158822820Y-77584951D01*
X158822115Y-77584591D01*
X158814054Y-77580485D01*
X158763259Y-77532512D01*
X158746463Y-77464692D01*
X158768999Y-77398556D01*
X158814054Y-77359515D01*
X158822816Y-77355051D01*
X158844789Y-77339086D01*
X158994786Y-77230109D01*
X158994788Y-77230106D01*
X158994792Y-77230104D01*
X159145104Y-77079792D01*
X159145106Y-77079788D01*
X159145109Y-77079786D01*
X159270048Y-76907820D01*
X159270047Y-76907820D01*
X159270051Y-76907816D01*
X159366557Y-76718412D01*
X159432246Y-76516243D01*
X159465500Y-76306287D01*
X159465500Y-76093713D01*
X159432246Y-75883757D01*
X159366557Y-75681588D01*
X159270051Y-75492184D01*
X159270049Y-75492181D01*
X159270048Y-75492179D01*
X159145109Y-75320213D01*
X158994786Y-75169890D01*
X158822820Y-75044951D01*
X158822115Y-75044591D01*
X158814054Y-75040485D01*
X158763259Y-74992512D01*
X158746463Y-74924692D01*
X158768999Y-74858556D01*
X158814054Y-74819515D01*
X158822816Y-74815051D01*
X158888200Y-74767547D01*
X158994786Y-74690109D01*
X158994788Y-74690106D01*
X158994792Y-74690104D01*
X159145104Y-74539792D01*
X159145106Y-74539788D01*
X159145109Y-74539786D01*
X159270048Y-74367820D01*
X159270047Y-74367820D01*
X159270051Y-74367816D01*
X159366557Y-74178412D01*
X159432246Y-73976243D01*
X159465500Y-73766287D01*
X159465500Y-73553713D01*
X159432246Y-73343757D01*
X159366557Y-73141588D01*
X159270051Y-72952184D01*
X159270049Y-72952181D01*
X159270048Y-72952179D01*
X159145109Y-72780213D01*
X158994786Y-72629890D01*
X158822820Y-72504951D01*
X158822115Y-72504591D01*
X158814054Y-72500485D01*
X158763259Y-72452512D01*
X158746463Y-72384692D01*
X158768999Y-72318556D01*
X158814054Y-72279515D01*
X158822816Y-72275051D01*
X158888200Y-72227547D01*
X158994786Y-72150109D01*
X158994788Y-72150106D01*
X158994792Y-72150104D01*
X159145104Y-71999792D01*
X159145106Y-71999788D01*
X159145109Y-71999786D01*
X159270048Y-71827820D01*
X159270047Y-71827820D01*
X159270051Y-71827816D01*
X159366557Y-71638412D01*
X159432246Y-71436243D01*
X159465500Y-71226287D01*
X159465500Y-71013713D01*
X159465244Y-71012099D01*
X159438673Y-70844334D01*
X159436844Y-70832793D01*
X159432246Y-70803757D01*
X159366557Y-70601588D01*
X159270051Y-70412184D01*
X159270049Y-70412181D01*
X159270048Y-70412179D01*
X159145109Y-70240213D01*
X158994786Y-70089890D01*
X158822820Y-69964951D01*
X158822115Y-69964591D01*
X158814054Y-69960485D01*
X158763259Y-69912512D01*
X158746463Y-69844692D01*
X158768999Y-69778556D01*
X158814054Y-69739515D01*
X158822816Y-69735051D01*
X158888200Y-69687547D01*
X158994786Y-69610109D01*
X158994788Y-69610106D01*
X158994792Y-69610104D01*
X159145104Y-69459792D01*
X159145106Y-69459788D01*
X159145109Y-69459786D01*
X159270048Y-69287820D01*
X159270047Y-69287820D01*
X159270051Y-69287816D01*
X159366557Y-69098412D01*
X159432246Y-68896243D01*
X159465500Y-68686287D01*
X159465500Y-68473713D01*
X159432246Y-68263757D01*
X159366557Y-68061588D01*
X159270051Y-67872184D01*
X159270049Y-67872181D01*
X159270048Y-67872179D01*
X159145109Y-67700213D01*
X158994786Y-67549890D01*
X158822820Y-67424951D01*
X158822115Y-67424591D01*
X158814054Y-67420485D01*
X158763259Y-67372512D01*
X158746463Y-67304692D01*
X158768999Y-67238556D01*
X158814054Y-67199515D01*
X158822816Y-67195051D01*
X158888200Y-67147547D01*
X158994786Y-67070109D01*
X158994788Y-67070106D01*
X158994792Y-67070104D01*
X159145104Y-66919792D01*
X159145106Y-66919788D01*
X159145109Y-66919786D01*
X159270048Y-66747820D01*
X159270047Y-66747820D01*
X159270051Y-66747816D01*
X159366557Y-66558412D01*
X159432246Y-66356243D01*
X159465500Y-66146287D01*
X159465500Y-65933713D01*
X159432246Y-65723757D01*
X159366557Y-65521588D01*
X159270051Y-65332184D01*
X159270049Y-65332181D01*
X159270048Y-65332179D01*
X159145109Y-65160213D01*
X158994786Y-65009890D01*
X158822820Y-64884951D01*
X158822115Y-64884591D01*
X158814054Y-64880485D01*
X158763259Y-64832512D01*
X158746463Y-64764692D01*
X158768999Y-64698556D01*
X158814054Y-64659515D01*
X158822816Y-64655051D01*
X158888200Y-64607547D01*
X158994786Y-64530109D01*
X158994788Y-64530106D01*
X158994792Y-64530104D01*
X159145104Y-64379792D01*
X159145106Y-64379788D01*
X159145109Y-64379786D01*
X159270048Y-64207820D01*
X159270047Y-64207820D01*
X159270051Y-64207816D01*
X159366557Y-64018412D01*
X159432246Y-63816243D01*
X159465500Y-63606287D01*
X159465500Y-63393713D01*
X159432246Y-63183757D01*
X159366557Y-62981588D01*
X159270051Y-62792184D01*
X159270049Y-62792181D01*
X159270048Y-62792179D01*
X159145109Y-62620213D01*
X159031569Y-62506673D01*
X158998084Y-62445350D01*
X159003068Y-62375658D01*
X159044940Y-62319725D01*
X159075915Y-62302810D01*
X159207331Y-62253796D01*
X159322546Y-62167546D01*
X159408796Y-62052331D01*
X159459091Y-61917483D01*
X159465500Y-61857873D01*
X159465499Y-61069228D01*
X159485183Y-61002190D01*
X159537987Y-60956435D01*
X159607146Y-60946491D01*
X159670702Y-60975516D01*
X159677180Y-60981548D01*
X160757181Y-62061549D01*
X160790666Y-62122872D01*
X160793500Y-62149230D01*
X160793500Y-65168582D01*
X160773815Y-65235621D01*
X160742385Y-65268900D01*
X160696787Y-65302028D01*
X160696782Y-65302032D01*
X160552028Y-65446786D01*
X160431715Y-65612386D01*
X160338781Y-65794776D01*
X160275522Y-65989465D01*
X160243500Y-66191648D01*
X160243500Y-66396351D01*
X160275522Y-66598534D01*
X160338781Y-66793223D01*
X160431715Y-66975613D01*
X160552028Y-67141213D01*
X160696786Y-67285971D01*
X160828200Y-67381447D01*
X160862390Y-67406287D01*
X160971699Y-67461983D01*
X161044776Y-67499218D01*
X161044778Y-67499218D01*
X161044781Y-67499220D01*
X161149137Y-67533127D01*
X161239465Y-67562477D01*
X161340557Y-67578488D01*
X161441648Y-67594500D01*
X161441649Y-67594500D01*
X161646351Y-67594500D01*
X161646352Y-67594500D01*
X161848534Y-67562477D01*
X162043219Y-67499220D01*
X162116301Y-67461983D01*
X165631500Y-67461983D01*
X165631500Y-68762001D01*
X165631501Y-68762018D01*
X165642000Y-68864796D01*
X165642001Y-68864799D01*
X165697185Y-69031331D01*
X165697186Y-69031334D01*
X165789288Y-69180656D01*
X165913344Y-69304712D01*
X166031962Y-69377876D01*
X166068558Y-69400448D01*
X166115283Y-69452396D01*
X166126506Y-69521358D01*
X166098663Y-69585441D01*
X166091144Y-69593668D01*
X165952271Y-69732541D01*
X165827379Y-69904442D01*
X165730904Y-70093782D01*
X165665242Y-70295870D01*
X165665242Y-70295873D01*
X165654769Y-70362000D01*
X166698988Y-70362000D01*
X166666075Y-70419007D01*
X166632000Y-70546174D01*
X166632000Y-70677826D01*
X166666075Y-70804993D01*
X166698988Y-70862000D01*
X165654769Y-70862000D01*
X165665242Y-70928126D01*
X165665242Y-70928129D01*
X165730904Y-71130217D01*
X165827379Y-71319557D01*
X165952272Y-71491459D01*
X165952276Y-71491464D01*
X166102535Y-71641723D01*
X166102540Y-71641727D01*
X166274442Y-71766620D01*
X166463782Y-71863095D01*
X166665870Y-71928757D01*
X166875754Y-71962000D01*
X166882000Y-71962000D01*
X166882000Y-71045012D01*
X166939007Y-71077925D01*
X167066174Y-71112000D01*
X167197826Y-71112000D01*
X167324993Y-71077925D01*
X167382000Y-71045012D01*
X167382000Y-71962000D01*
X167388246Y-71962000D01*
X167598127Y-71928757D01*
X167598130Y-71928757D01*
X167800217Y-71863095D01*
X167989557Y-71766620D01*
X168161459Y-71641727D01*
X168161464Y-71641723D01*
X168311723Y-71491464D01*
X168311727Y-71491459D01*
X168436620Y-71319557D01*
X168533095Y-71130217D01*
X168598757Y-70928129D01*
X168598757Y-70928126D01*
X168609231Y-70862000D01*
X167565012Y-70862000D01*
X167597925Y-70804993D01*
X167632000Y-70677826D01*
X167632000Y-70546174D01*
X167597925Y-70419007D01*
X167565012Y-70362000D01*
X168609231Y-70362000D01*
X168598757Y-70295873D01*
X168598757Y-70295870D01*
X168533095Y-70093782D01*
X168436620Y-69904442D01*
X168311727Y-69732540D01*
X168311723Y-69732535D01*
X168172856Y-69593668D01*
X168139371Y-69532345D01*
X168144355Y-69462653D01*
X168186227Y-69406720D01*
X168195441Y-69400448D01*
X168201331Y-69396814D01*
X168201334Y-69396814D01*
X168350656Y-69304712D01*
X168474712Y-69180656D01*
X168566814Y-69031334D01*
X168621999Y-68864797D01*
X168632500Y-68762009D01*
X168632499Y-67461992D01*
X168629975Y-67437288D01*
X168621999Y-67359203D01*
X168621998Y-67359200D01*
X168620054Y-67353333D01*
X168566814Y-67192666D01*
X168474712Y-67043344D01*
X168350656Y-66919288D01*
X168218677Y-66837883D01*
X168201336Y-66827187D01*
X168201331Y-66827185D01*
X168199862Y-66826698D01*
X168034797Y-66772001D01*
X168034795Y-66772000D01*
X167932010Y-66761500D01*
X166331998Y-66761500D01*
X166331981Y-66761501D01*
X166229203Y-66772000D01*
X166229200Y-66772001D01*
X166062668Y-66827185D01*
X166062663Y-66827187D01*
X165913342Y-66919289D01*
X165789289Y-67043342D01*
X165697187Y-67192663D01*
X165697185Y-67192668D01*
X165679019Y-67247491D01*
X165642001Y-67359203D01*
X165642001Y-67359204D01*
X165642000Y-67359204D01*
X165631500Y-67461983D01*
X162116301Y-67461983D01*
X162225610Y-67406287D01*
X162291363Y-67358514D01*
X162291365Y-67358514D01*
X162391212Y-67285971D01*
X162391210Y-67285971D01*
X162391219Y-67285966D01*
X162535966Y-67141219D01*
X162535968Y-67141215D01*
X162535971Y-67141213D01*
X162615079Y-67032328D01*
X162656287Y-66975610D01*
X162749220Y-66793219D01*
X162812477Y-66598534D01*
X162844500Y-66396352D01*
X162844500Y-66191648D01*
X162812477Y-65989466D01*
X162749220Y-65794781D01*
X162749218Y-65794778D01*
X162749218Y-65794776D01*
X162713031Y-65723757D01*
X162656287Y-65612390D01*
X162648556Y-65601749D01*
X162535971Y-65446786D01*
X162391217Y-65302032D01*
X162391212Y-65302028D01*
X162345615Y-65268900D01*
X162302949Y-65213571D01*
X162294500Y-65168582D01*
X162294500Y-61713079D01*
X162265659Y-61568092D01*
X162265658Y-61568091D01*
X162265658Y-61568087D01*
X162265656Y-61568082D01*
X162209087Y-61431511D01*
X162209080Y-61431498D01*
X162160012Y-61358063D01*
X162157373Y-61354114D01*
X162157368Y-61354106D01*
X162126954Y-61308586D01*
X162112406Y-61294038D01*
X165579500Y-61294038D01*
X165579500Y-61545962D01*
X165583004Y-61568087D01*
X165618910Y-61794785D01*
X165696760Y-62034383D01*
X165755278Y-62149230D01*
X165809863Y-62256359D01*
X165811132Y-62258848D01*
X165959201Y-62462649D01*
X165959205Y-62462654D01*
X166137345Y-62640794D01*
X166137350Y-62640798D01*
X166221825Y-62702172D01*
X166341155Y-62788870D01*
X166484184Y-62861747D01*
X166565616Y-62903239D01*
X166565618Y-62903239D01*
X166565621Y-62903241D01*
X166805215Y-62981090D01*
X167054038Y-63020500D01*
X167054039Y-63020500D01*
X167305961Y-63020500D01*
X167305962Y-63020500D01*
X167554785Y-62981090D01*
X167794379Y-62903241D01*
X168018845Y-62788870D01*
X168222656Y-62640793D01*
X168400793Y-62462656D01*
X168548870Y-62258845D01*
X168663241Y-62034379D01*
X168741090Y-61794785D01*
X168780500Y-61545962D01*
X168780500Y-61294038D01*
X168741090Y-61045215D01*
X168663241Y-60805621D01*
X168663239Y-60805618D01*
X168663239Y-60805616D01*
X168612481Y-60705999D01*
X168548870Y-60581155D01*
X168514367Y-60533665D01*
X168400798Y-60377350D01*
X168400794Y-60377345D01*
X168222654Y-60199205D01*
X168222649Y-60199201D01*
X168018848Y-60051132D01*
X168018847Y-60051131D01*
X168018845Y-60051130D01*
X167931332Y-60006540D01*
X167794383Y-59936760D01*
X167554785Y-59858910D01*
X167553971Y-59858781D01*
X167305962Y-59819500D01*
X167054038Y-59819500D01*
X166929626Y-59839205D01*
X166805214Y-59858910D01*
X166565616Y-59936760D01*
X166341151Y-60051132D01*
X166137350Y-60199201D01*
X166137345Y-60199205D01*
X165959205Y-60377345D01*
X165959201Y-60377350D01*
X165811132Y-60581151D01*
X165696760Y-60805616D01*
X165618910Y-61045214D01*
X165607268Y-61118719D01*
X165579500Y-61294038D01*
X162112406Y-61294038D01*
X159950549Y-59132181D01*
X159917064Y-59070858D01*
X159922048Y-59001166D01*
X159963920Y-58945233D01*
X160029384Y-58920816D01*
X160038230Y-58920500D01*
X167114108Y-58920500D01*
X167176249Y-58920500D01*
X167183736Y-58920726D01*
X167473796Y-58938271D01*
X167488657Y-58940075D01*
X167770798Y-58991780D01*
X167785335Y-58995363D01*
X168059172Y-59080695D01*
X168073163Y-59086000D01*
X168334743Y-59203727D01*
X168347989Y-59210680D01*
X168593465Y-59359075D01*
X168605776Y-59367573D01*
X168654012Y-59405363D01*
X168831573Y-59544473D01*
X168842781Y-59554403D01*
X169045596Y-59757218D01*
X169055526Y-59768426D01*
X169095540Y-59819500D01*
X169187406Y-59936759D01*
X169232422Y-59994217D01*
X169240926Y-60006537D01*
X169357398Y-60199205D01*
X169389316Y-60252004D01*
X169396275Y-60265263D01*
X169513997Y-60526831D01*
X169519306Y-60540832D01*
X169604635Y-60814663D01*
X169608219Y-60829201D01*
X169659923Y-61111340D01*
X169661728Y-61126205D01*
X169679274Y-61416263D01*
X169679500Y-61423750D01*
X169679500Y-103676249D01*
X169679274Y-103683736D01*
X169661728Y-103973794D01*
X169659923Y-103988659D01*
X169608219Y-104270798D01*
X169604635Y-104285336D01*
X169519306Y-104559167D01*
X169513997Y-104573168D01*
X169396275Y-104834736D01*
X169389316Y-104847995D01*
X169240928Y-105093459D01*
X169232422Y-105105782D01*
X169055526Y-105331573D01*
X169045596Y-105342781D01*
X168842781Y-105545596D01*
X168831573Y-105555526D01*
X168605782Y-105732422D01*
X168593459Y-105740928D01*
X168347995Y-105889316D01*
X168334736Y-105896275D01*
X168073168Y-106013997D01*
X168059167Y-106019306D01*
X167785336Y-106104635D01*
X167770798Y-106108219D01*
X167488659Y-106159923D01*
X167473794Y-106161728D01*
X167183736Y-106179274D01*
X167176249Y-106179500D01*
X149181230Y-106179500D01*
X149114191Y-106159815D01*
X149068436Y-106107011D01*
X149058492Y-106037853D01*
X149087517Y-105974297D01*
X149093549Y-105967819D01*
X149579581Y-105481787D01*
X150248952Y-104812416D01*
X150298186Y-104738729D01*
X150305684Y-104727506D01*
X150352487Y-104685918D01*
X150373816Y-104675051D01*
X150545792Y-104550104D01*
X150696104Y-104399792D01*
X150815683Y-104235204D01*
X150871011Y-104192540D01*
X150940624Y-104186561D01*
X151002420Y-104219166D01*
X151016313Y-104235199D01*
X151080614Y-104323702D01*
X151135896Y-104399792D01*
X151286213Y-104550109D01*
X151458179Y-104675048D01*
X151458181Y-104675049D01*
X151458184Y-104675051D01*
X151647588Y-104771557D01*
X151849757Y-104837246D01*
X152059713Y-104870500D01*
X152059714Y-104870500D01*
X152272286Y-104870500D01*
X152272287Y-104870500D01*
X152482243Y-104837246D01*
X152684412Y-104771557D01*
X152873816Y-104675051D01*
X152929263Y-104634767D01*
X153045786Y-104550109D01*
X153045788Y-104550106D01*
X153045792Y-104550104D01*
X153196104Y-104399792D01*
X153315991Y-104234779D01*
X153371320Y-104192115D01*
X153440933Y-104186136D01*
X153502729Y-104218741D01*
X153516627Y-104234781D01*
X153636272Y-104399459D01*
X153636276Y-104399464D01*
X153786535Y-104549723D01*
X153786540Y-104549727D01*
X153958442Y-104674620D01*
X154147782Y-104771095D01*
X154349871Y-104836757D01*
X154416000Y-104847231D01*
X154416000Y-103799145D01*
X154482657Y-103837630D01*
X154603465Y-103870000D01*
X154728535Y-103870000D01*
X154849343Y-103837630D01*
X154916000Y-103799145D01*
X154916000Y-104847230D01*
X154982126Y-104836757D01*
X154982129Y-104836757D01*
X155184217Y-104771095D01*
X155373557Y-104674620D01*
X155545458Y-104549728D01*
X155684330Y-104410856D01*
X155745653Y-104377371D01*
X155815345Y-104382355D01*
X155871279Y-104424226D01*
X155877551Y-104433440D01*
X155881185Y-104439331D01*
X155881186Y-104439334D01*
X155973288Y-104588656D01*
X156097344Y-104712712D01*
X156246666Y-104804814D01*
X156413203Y-104859999D01*
X156515991Y-104870500D01*
X157816008Y-104870499D01*
X157918797Y-104859999D01*
X158085334Y-104804814D01*
X158234656Y-104712712D01*
X158358712Y-104588656D01*
X158450814Y-104439334D01*
X158505999Y-104272797D01*
X158516500Y-104170009D01*
X158516499Y-103554038D01*
X165579500Y-103554038D01*
X165579500Y-103805962D01*
X165584296Y-103836243D01*
X165618910Y-104054785D01*
X165696760Y-104294383D01*
X165811132Y-104518848D01*
X165959201Y-104722649D01*
X165959205Y-104722654D01*
X166137345Y-104900794D01*
X166137350Y-104900798D01*
X166315117Y-105029952D01*
X166341155Y-105048870D01*
X166484184Y-105121747D01*
X166565616Y-105163239D01*
X166565618Y-105163239D01*
X166565621Y-105163241D01*
X166805215Y-105241090D01*
X167054038Y-105280500D01*
X167054039Y-105280500D01*
X167305961Y-105280500D01*
X167305962Y-105280500D01*
X167554785Y-105241090D01*
X167794379Y-105163241D01*
X168018845Y-105048870D01*
X168222656Y-104900793D01*
X168400793Y-104722656D01*
X168548870Y-104518845D01*
X168663241Y-104294379D01*
X168741090Y-104054785D01*
X168780500Y-103805962D01*
X168780500Y-103554038D01*
X168741090Y-103305215D01*
X168663241Y-103065621D01*
X168663239Y-103065618D01*
X168663239Y-103065616D01*
X168606245Y-102953760D01*
X168548870Y-102841155D01*
X168481576Y-102748532D01*
X168400798Y-102637350D01*
X168400794Y-102637345D01*
X168222654Y-102459205D01*
X168222649Y-102459201D01*
X168018848Y-102311132D01*
X168018847Y-102311131D01*
X168018845Y-102311130D01*
X167948747Y-102275413D01*
X167794383Y-102196760D01*
X167554785Y-102118910D01*
X167529776Y-102114949D01*
X167305962Y-102079500D01*
X167054038Y-102079500D01*
X166929626Y-102099205D01*
X166805214Y-102118910D01*
X166565616Y-102196760D01*
X166341151Y-102311132D01*
X166137350Y-102459201D01*
X166137345Y-102459205D01*
X165959205Y-102637345D01*
X165959201Y-102637350D01*
X165811132Y-102841151D01*
X165696760Y-103065616D01*
X165618910Y-103305214D01*
X165614594Y-103332465D01*
X165579500Y-103554038D01*
X158516499Y-103554038D01*
X158516499Y-103395000D01*
X158516499Y-102619998D01*
X158516498Y-102619981D01*
X158505999Y-102517203D01*
X158505998Y-102517200D01*
X158486779Y-102459201D01*
X158450814Y-102350666D01*
X158358712Y-102201344D01*
X158234656Y-102077288D01*
X158085334Y-101985186D01*
X157918797Y-101930001D01*
X157918795Y-101930000D01*
X157816010Y-101919500D01*
X156515998Y-101919500D01*
X156515981Y-101919501D01*
X156413203Y-101930000D01*
X156413200Y-101930001D01*
X156246668Y-101985185D01*
X156246663Y-101985187D01*
X156097342Y-102077289D01*
X155973289Y-102201342D01*
X155877551Y-102356559D01*
X155825603Y-102403283D01*
X155756640Y-102414506D01*
X155692558Y-102386662D01*
X155684331Y-102379143D01*
X155545464Y-102240276D01*
X155545459Y-102240272D01*
X155373557Y-102115379D01*
X155184215Y-102018903D01*
X154982124Y-101953241D01*
X154916000Y-101942768D01*
X154916000Y-102990854D01*
X154849343Y-102952370D01*
X154728535Y-102920000D01*
X154603465Y-102920000D01*
X154482657Y-102952370D01*
X154416000Y-102990854D01*
X154416000Y-101942768D01*
X154415999Y-101942768D01*
X154349875Y-101953241D01*
X154147784Y-102018903D01*
X153958442Y-102115379D01*
X153786540Y-102240272D01*
X153786535Y-102240276D01*
X153636276Y-102390535D01*
X153636272Y-102390540D01*
X153516627Y-102555218D01*
X153461297Y-102597884D01*
X153391684Y-102603863D01*
X153329889Y-102571257D01*
X153315991Y-102555218D01*
X153196109Y-102390214D01*
X153196105Y-102390209D01*
X153045786Y-102239890D01*
X152873820Y-102114951D01*
X152684414Y-102018444D01*
X152684413Y-102018443D01*
X152684412Y-102018443D01*
X152482243Y-101952754D01*
X152482241Y-101952753D01*
X152482240Y-101952753D01*
X152320957Y-101927208D01*
X152272287Y-101919500D01*
X152059713Y-101919500D01*
X152011042Y-101927208D01*
X151849760Y-101952753D01*
X151647585Y-102018444D01*
X151458179Y-102114951D01*
X151286213Y-102239890D01*
X151135894Y-102390209D01*
X151135890Y-102390214D01*
X151016318Y-102554793D01*
X150960989Y-102597459D01*
X150891375Y-102603438D01*
X150829580Y-102570833D01*
X150815682Y-102554793D01*
X150696109Y-102390214D01*
X150696105Y-102390209D01*
X150545786Y-102239890D01*
X150373820Y-102114951D01*
X150184414Y-102018444D01*
X150184413Y-102018443D01*
X150184412Y-102018443D01*
X149982243Y-101952754D01*
X149982241Y-101952753D01*
X149982240Y-101952753D01*
X149820957Y-101927208D01*
X149772287Y-101919500D01*
X149559713Y-101919500D01*
X149511042Y-101927208D01*
X149349760Y-101952753D01*
X149147585Y-102018444D01*
X148958179Y-102114951D01*
X148786213Y-102239890D01*
X148635890Y-102390213D01*
X148510951Y-102562179D01*
X148414444Y-102751585D01*
X148348753Y-102953760D01*
X148315500Y-103163713D01*
X148315500Y-103626286D01*
X148343957Y-103805961D01*
X148348754Y-103836243D01*
X148398277Y-103988659D01*
X148414444Y-104038414D01*
X148510951Y-104227820D01*
X148532803Y-104257896D01*
X148556284Y-104323702D01*
X148540459Y-104391756D01*
X148520167Y-104418463D01*
X148315449Y-104623182D01*
X148254129Y-104656666D01*
X148227770Y-104659500D01*
X144821189Y-104659500D01*
X144754150Y-104639815D01*
X144708395Y-104587011D01*
X144698451Y-104517853D01*
X144715649Y-104470405D01*
X144734814Y-104439334D01*
X144789999Y-104272797D01*
X144800500Y-104170009D01*
X144800499Y-102619992D01*
X144798851Y-102603863D01*
X144789999Y-102517203D01*
X144789998Y-102517200D01*
X144770779Y-102459201D01*
X144734814Y-102350666D01*
X144642712Y-102201344D01*
X144518656Y-102077288D01*
X144369334Y-101985186D01*
X144202797Y-101930001D01*
X144202795Y-101930000D01*
X144100010Y-101919500D01*
X142799998Y-101919500D01*
X142799981Y-101919501D01*
X142697203Y-101930000D01*
X142697200Y-101930001D01*
X142530668Y-101985185D01*
X142530663Y-101985187D01*
X142381342Y-102077289D01*
X142257289Y-102201342D01*
X142161551Y-102356559D01*
X142109603Y-102403283D01*
X142040640Y-102414506D01*
X141976558Y-102386662D01*
X141968331Y-102379143D01*
X141829464Y-102240276D01*
X141829459Y-102240272D01*
X141657557Y-102115379D01*
X141468215Y-102018903D01*
X141266124Y-101953241D01*
X141200000Y-101942768D01*
X141200000Y-102990854D01*
X141133343Y-102952370D01*
X141012535Y-102920000D01*
X140887465Y-102920000D01*
X140766657Y-102952370D01*
X140700000Y-102990854D01*
X140700000Y-101942768D01*
X140699999Y-101942768D01*
X140633875Y-101953241D01*
X140431784Y-102018903D01*
X140242442Y-102115379D01*
X140070540Y-102240272D01*
X140070535Y-102240276D01*
X139920276Y-102390535D01*
X139920272Y-102390540D01*
X139800627Y-102555218D01*
X139745297Y-102597884D01*
X139675684Y-102603863D01*
X139613889Y-102571257D01*
X139599991Y-102555218D01*
X139480109Y-102390214D01*
X139480105Y-102390209D01*
X139329786Y-102239890D01*
X139157820Y-102114951D01*
X138968414Y-102018444D01*
X138968413Y-102018443D01*
X138968412Y-102018443D01*
X138766243Y-101952754D01*
X138766241Y-101952753D01*
X138766240Y-101952753D01*
X138604957Y-101927208D01*
X138556287Y-101919500D01*
X138343713Y-101919500D01*
X138295042Y-101927208D01*
X138133760Y-101952753D01*
X137931585Y-102018444D01*
X137742179Y-102114951D01*
X137570213Y-102239890D01*
X137419894Y-102390209D01*
X137419890Y-102390214D01*
X137300318Y-102554793D01*
X137244989Y-102597459D01*
X137175375Y-102603438D01*
X137113580Y-102570833D01*
X137099682Y-102554793D01*
X136980109Y-102390214D01*
X136980105Y-102390209D01*
X136829786Y-102239890D01*
X136657820Y-102114951D01*
X136468414Y-102018444D01*
X136468413Y-102018443D01*
X136468412Y-102018443D01*
X136266243Y-101952754D01*
X136266241Y-101952753D01*
X136266240Y-101952753D01*
X136104957Y-101927208D01*
X136056287Y-101919500D01*
X135843713Y-101919500D01*
X135795042Y-101927208D01*
X135633760Y-101952753D01*
X135431585Y-102018444D01*
X135242179Y-102114951D01*
X135070213Y-102239890D01*
X134919890Y-102390213D01*
X134794951Y-102562179D01*
X134698444Y-102751585D01*
X134632753Y-102953760D01*
X134599500Y-103163713D01*
X134599500Y-103626286D01*
X134627957Y-103805961D01*
X134632754Y-103836243D01*
X134682277Y-103988659D01*
X134698444Y-104038414D01*
X134794951Y-104227820D01*
X134919890Y-104399786D01*
X135070213Y-104550109D01*
X135242179Y-104675048D01*
X135242181Y-104675049D01*
X135242184Y-104675051D01*
X135431588Y-104771557D01*
X135633757Y-104837246D01*
X135843713Y-104870500D01*
X135843714Y-104870500D01*
X136056286Y-104870500D01*
X136056287Y-104870500D01*
X136259638Y-104838292D01*
X136328931Y-104847247D01*
X136366717Y-104873084D01*
X137461451Y-105967819D01*
X137494936Y-106029142D01*
X137489952Y-106098834D01*
X137448080Y-106154767D01*
X137382616Y-106179184D01*
X137373770Y-106179500D01*
X124923751Y-106179500D01*
X124916264Y-106179274D01*
X124626205Y-106161728D01*
X124611340Y-106159923D01*
X124329201Y-106108219D01*
X124314663Y-106104635D01*
X124040832Y-106019306D01*
X124026831Y-106013997D01*
X123765263Y-105896275D01*
X123752004Y-105889316D01*
X123506540Y-105740928D01*
X123494217Y-105732422D01*
X123268426Y-105555526D01*
X123257218Y-105545596D01*
X123054403Y-105342781D01*
X123044473Y-105331573D01*
X122973584Y-105241090D01*
X122867573Y-105105776D01*
X122859075Y-105093465D01*
X122710680Y-104847989D01*
X122703727Y-104834743D01*
X122586000Y-104573163D01*
X122580693Y-104559167D01*
X122577870Y-104550109D01*
X122495363Y-104285335D01*
X122491780Y-104270798D01*
X122452194Y-104054785D01*
X122440075Y-103988657D01*
X122438271Y-103973794D01*
X122420726Y-103683736D01*
X122420500Y-103676249D01*
X122420500Y-103554038D01*
X123319500Y-103554038D01*
X123319500Y-103805962D01*
X123324296Y-103836243D01*
X123358910Y-104054785D01*
X123436760Y-104294383D01*
X123551132Y-104518848D01*
X123699201Y-104722649D01*
X123699205Y-104722654D01*
X123877345Y-104900794D01*
X123877350Y-104900798D01*
X124055117Y-105029952D01*
X124081155Y-105048870D01*
X124224184Y-105121747D01*
X124305616Y-105163239D01*
X124305618Y-105163239D01*
X124305621Y-105163241D01*
X124545215Y-105241090D01*
X124794038Y-105280500D01*
X124794039Y-105280500D01*
X125045961Y-105280500D01*
X125045962Y-105280500D01*
X125294785Y-105241090D01*
X125534379Y-105163241D01*
X125758845Y-105048870D01*
X125962656Y-104900793D01*
X126140793Y-104722656D01*
X126288870Y-104518845D01*
X126403241Y-104294379D01*
X126481090Y-104054785D01*
X126520500Y-103805962D01*
X126520500Y-103554038D01*
X126481090Y-103305215D01*
X126403241Y-103065621D01*
X126403239Y-103065618D01*
X126403239Y-103065616D01*
X126346245Y-102953760D01*
X126288870Y-102841155D01*
X126221576Y-102748532D01*
X126140798Y-102637350D01*
X126140794Y-102637345D01*
X125962654Y-102459205D01*
X125962649Y-102459201D01*
X125758848Y-102311132D01*
X125758847Y-102311131D01*
X125758845Y-102311130D01*
X125688747Y-102275413D01*
X125534383Y-102196760D01*
X125294785Y-102118910D01*
X125269776Y-102114949D01*
X125045962Y-102079500D01*
X124794038Y-102079500D01*
X124669626Y-102099205D01*
X124545214Y-102118910D01*
X124305616Y-102196760D01*
X124081151Y-102311132D01*
X123877350Y-102459201D01*
X123877345Y-102459205D01*
X123699205Y-102637345D01*
X123699201Y-102637350D01*
X123551132Y-102841151D01*
X123436760Y-103065616D01*
X123358910Y-103305214D01*
X123354594Y-103332465D01*
X123319500Y-103554038D01*
X122420500Y-103554038D01*
X122420500Y-85867311D01*
X122440185Y-85800272D01*
X122492989Y-85754517D01*
X122562147Y-85744573D01*
X122625703Y-85773598D01*
X122632181Y-85779630D01*
X122655345Y-85802794D01*
X122655350Y-85802798D01*
X122800800Y-85908473D01*
X122859155Y-85950870D01*
X123002184Y-86023747D01*
X123083616Y-86065239D01*
X123083618Y-86065239D01*
X123083621Y-86065241D01*
X123323215Y-86143090D01*
X123572038Y-86182500D01*
X123572039Y-86182500D01*
X123823961Y-86182500D01*
X123823962Y-86182500D01*
X124072785Y-86143090D01*
X124094811Y-86135932D01*
X124164650Y-86133934D01*
X124220813Y-86166181D01*
X125237181Y-87182549D01*
X125270666Y-87243872D01*
X125273500Y-87270230D01*
X125273500Y-88832779D01*
X125253815Y-88899818D01*
X125222385Y-88933097D01*
X125144211Y-88989893D01*
X125144205Y-88989898D01*
X124993890Y-89140213D01*
X124868951Y-89312179D01*
X124772444Y-89501585D01*
X124772443Y-89501587D01*
X124772443Y-89501588D01*
X124742381Y-89594110D01*
X124706753Y-89703760D01*
X124673500Y-89913713D01*
X124673500Y-90426286D01*
X124706162Y-90632509D01*
X124706754Y-90636243D01*
X124712685Y-90654498D01*
X124772444Y-90838414D01*
X124868951Y-91027820D01*
X124993890Y-91199786D01*
X125144213Y-91350109D01*
X125316179Y-91475048D01*
X125316181Y-91475049D01*
X125316184Y-91475051D01*
X125505588Y-91571557D01*
X125707757Y-91637246D01*
X125917713Y-91670500D01*
X125917714Y-91670500D01*
X126130286Y-91670500D01*
X126130287Y-91670500D01*
X126340243Y-91637246D01*
X126542412Y-91571557D01*
X126731816Y-91475051D01*
X126903792Y-91350104D01*
X127042604Y-91211291D01*
X127103923Y-91177809D01*
X127173615Y-91182793D01*
X127229549Y-91224664D01*
X127235821Y-91233878D01*
X127239185Y-91239333D01*
X127239186Y-91239334D01*
X127331288Y-91388656D01*
X127455344Y-91512712D01*
X127604666Y-91604814D01*
X127688505Y-91632595D01*
X127745948Y-91672366D01*
X127772772Y-91736882D01*
X127773500Y-91750300D01*
X127773500Y-95701699D01*
X127753815Y-95768738D01*
X127701011Y-95814493D01*
X127688507Y-95819403D01*
X127655962Y-95830188D01*
X127604668Y-95847185D01*
X127604663Y-95847187D01*
X127455342Y-95939289D01*
X127331289Y-96063342D01*
X127235551Y-96218559D01*
X127183603Y-96265283D01*
X127114640Y-96276506D01*
X127050558Y-96248662D01*
X127042331Y-96241143D01*
X126903464Y-96102276D01*
X126903459Y-96102272D01*
X126731557Y-95977379D01*
X126542215Y-95880903D01*
X126340124Y-95815241D01*
X126274000Y-95804768D01*
X126274000Y-96848988D01*
X126216993Y-96816075D01*
X126089826Y-96782000D01*
X125958174Y-96782000D01*
X125831007Y-96816075D01*
X125774000Y-96848988D01*
X125774000Y-95804768D01*
X125773999Y-95804768D01*
X125707875Y-95815241D01*
X125505784Y-95880903D01*
X125316442Y-95977379D01*
X125144540Y-96102272D01*
X125144535Y-96102276D01*
X124994276Y-96252535D01*
X124994272Y-96252540D01*
X124869379Y-96424442D01*
X124772904Y-96613782D01*
X124707242Y-96815869D01*
X124707242Y-96815872D01*
X124674000Y-97025753D01*
X124674000Y-97032000D01*
X125590988Y-97032000D01*
X125558075Y-97089007D01*
X125524000Y-97216174D01*
X125524000Y-97347826D01*
X125558075Y-97474993D01*
X125590988Y-97532000D01*
X124674000Y-97532000D01*
X124674000Y-97538246D01*
X124707242Y-97748127D01*
X124707242Y-97748130D01*
X124772904Y-97950217D01*
X124869379Y-98139557D01*
X124994272Y-98311459D01*
X124994276Y-98311464D01*
X125144535Y-98461723D01*
X125144540Y-98461727D01*
X125316442Y-98586620D01*
X125505782Y-98683095D01*
X125707871Y-98748757D01*
X125774000Y-98759231D01*
X125774000Y-97715012D01*
X125831007Y-97747925D01*
X125958174Y-97782000D01*
X126089826Y-97782000D01*
X126216993Y-97747925D01*
X126274000Y-97715012D01*
X126274000Y-98759230D01*
X126340126Y-98748757D01*
X126340129Y-98748757D01*
X126542217Y-98683095D01*
X126731557Y-98586620D01*
X126903458Y-98461728D01*
X127042330Y-98322856D01*
X127103653Y-98289371D01*
X127173345Y-98294355D01*
X127229279Y-98336226D01*
X127235551Y-98345440D01*
X127239185Y-98351331D01*
X127239186Y-98351334D01*
X127331288Y-98500656D01*
X127455344Y-98624712D01*
X127604666Y-98716814D01*
X127771203Y-98771999D01*
X127873991Y-98782500D01*
X129174008Y-98782499D01*
X129276797Y-98771999D01*
X129443334Y-98716814D01*
X129592656Y-98624712D01*
X129716712Y-98500656D01*
X129808814Y-98351334D01*
X129863999Y-98184797D01*
X129874500Y-98082009D01*
X129874499Y-96481992D01*
X129872900Y-96466343D01*
X129863999Y-96379203D01*
X129863998Y-96379200D01*
X129857498Y-96359585D01*
X129808814Y-96212666D01*
X129716712Y-96063344D01*
X129592656Y-95939288D01*
X129444485Y-95847896D01*
X129443336Y-95847187D01*
X129443331Y-95847185D01*
X129422765Y-95840370D01*
X129359495Y-95819404D01*
X129302051Y-95779632D01*
X129275228Y-95715116D01*
X129274500Y-95701699D01*
X129274500Y-91750300D01*
X129294185Y-91683261D01*
X129346989Y-91637506D01*
X129359482Y-91632599D01*
X129443334Y-91604814D01*
X129592656Y-91512712D01*
X129716712Y-91388656D01*
X129808814Y-91239334D01*
X129863999Y-91072797D01*
X129874500Y-90970009D01*
X129874499Y-89369992D01*
X129863999Y-89267203D01*
X129808814Y-89100666D01*
X129716712Y-88951344D01*
X129592656Y-88827288D01*
X129443334Y-88735186D01*
X129276797Y-88680001D01*
X129276795Y-88680000D01*
X129174010Y-88669500D01*
X127873998Y-88669500D01*
X127873981Y-88669501D01*
X127771203Y-88680000D01*
X127771200Y-88680001D01*
X127604668Y-88735185D01*
X127604663Y-88735187D01*
X127455342Y-88827289D01*
X127331289Y-88951342D01*
X127235821Y-89106121D01*
X127183873Y-89152845D01*
X127114910Y-89164068D01*
X127050828Y-89136224D01*
X127042601Y-89128705D01*
X126903794Y-88989898D01*
X126903788Y-88989893D01*
X126825615Y-88933097D01*
X126782949Y-88877767D01*
X126774500Y-88832779D01*
X126774500Y-87782500D01*
X126794185Y-87715461D01*
X126846989Y-87669706D01*
X126898500Y-87658500D01*
X128049920Y-87658500D01*
X128147462Y-87639096D01*
X128194913Y-87629658D01*
X128331495Y-87573084D01*
X128403663Y-87524863D01*
X128454416Y-87490952D01*
X130036895Y-85908471D01*
X130098216Y-85874988D01*
X130143971Y-85873681D01*
X130199648Y-85882500D01*
X130199649Y-85882500D01*
X130404351Y-85882500D01*
X130404352Y-85882500D01*
X130606534Y-85850477D01*
X130801219Y-85787220D01*
X130983610Y-85694287D01*
X131081978Y-85622819D01*
X131149213Y-85573971D01*
X131149215Y-85573968D01*
X131149219Y-85573966D01*
X131293966Y-85429219D01*
X131293968Y-85429215D01*
X131293971Y-85429213D01*
X131377372Y-85314419D01*
X131414287Y-85263610D01*
X131507220Y-85081219D01*
X131570477Y-84886534D01*
X131602500Y-84684352D01*
X131602500Y-84479648D01*
X131570477Y-84277465D01*
X131535856Y-84170914D01*
X131507220Y-84082781D01*
X131507218Y-84082778D01*
X131507218Y-84082776D01*
X131448540Y-83967616D01*
X131414287Y-83900390D01*
X131382092Y-83856077D01*
X131293971Y-83734786D01*
X131149213Y-83590028D01*
X130983613Y-83469715D01*
X130983612Y-83469714D01*
X130983610Y-83469713D01*
X130926653Y-83440691D01*
X130801223Y-83376781D01*
X130606534Y-83313522D01*
X130431995Y-83285878D01*
X130404352Y-83281500D01*
X130199648Y-83281500D01*
X130175329Y-83285351D01*
X129997465Y-83313522D01*
X129802776Y-83376781D01*
X129620386Y-83469715D01*
X129454786Y-83590028D01*
X129310028Y-83734786D01*
X129189715Y-83900386D01*
X129096781Y-84082776D01*
X129033522Y-84277465D01*
X129001500Y-84479648D01*
X129001500Y-84684352D01*
X129005240Y-84707962D01*
X129010318Y-84740025D01*
X129001364Y-84809318D01*
X128975526Y-84847104D01*
X127701451Y-86121181D01*
X127640128Y-86154666D01*
X127613770Y-86157500D01*
X126386230Y-86157500D01*
X126319191Y-86137815D01*
X126298549Y-86121181D01*
X125282181Y-85104813D01*
X125248696Y-85043490D01*
X125251932Y-84978811D01*
X125259090Y-84956785D01*
X125298500Y-84707962D01*
X125298500Y-84479682D01*
X125700000Y-84479682D01*
X125700000Y-84684317D01*
X125732009Y-84886417D01*
X125795244Y-85081031D01*
X125888141Y-85263350D01*
X125888147Y-85263359D01*
X125920523Y-85307921D01*
X125920524Y-85307922D01*
X126600000Y-84628446D01*
X126600000Y-84634661D01*
X126627259Y-84736394D01*
X126679920Y-84827606D01*
X126754394Y-84902080D01*
X126845606Y-84954741D01*
X126947339Y-84982000D01*
X126953553Y-84982000D01*
X126274076Y-85661474D01*
X126318650Y-85693859D01*
X126500968Y-85786755D01*
X126695582Y-85849990D01*
X126897683Y-85882000D01*
X127102317Y-85882000D01*
X127304417Y-85849990D01*
X127499031Y-85786755D01*
X127681349Y-85693859D01*
X127725921Y-85661474D01*
X127046447Y-84982000D01*
X127052661Y-84982000D01*
X127154394Y-84954741D01*
X127245606Y-84902080D01*
X127320080Y-84827606D01*
X127372741Y-84736394D01*
X127400000Y-84634661D01*
X127400000Y-84628448D01*
X128079474Y-85307922D01*
X128079474Y-85307921D01*
X128111859Y-85263349D01*
X128204755Y-85081031D01*
X128267990Y-84886417D01*
X128300000Y-84684317D01*
X128300000Y-84479682D01*
X128267990Y-84277582D01*
X128204755Y-84082968D01*
X128111859Y-83900650D01*
X128079474Y-83856077D01*
X128079474Y-83856076D01*
X127400000Y-84535551D01*
X127400000Y-84529339D01*
X127372741Y-84427606D01*
X127320080Y-84336394D01*
X127245606Y-84261920D01*
X127154394Y-84209259D01*
X127052661Y-84182000D01*
X127046446Y-84182000D01*
X127725922Y-83502524D01*
X127725921Y-83502523D01*
X127681359Y-83470147D01*
X127681350Y-83470141D01*
X127499031Y-83377244D01*
X127304417Y-83314009D01*
X127102317Y-83282000D01*
X126897683Y-83282000D01*
X126695582Y-83314009D01*
X126500968Y-83377244D01*
X126318644Y-83470143D01*
X126274077Y-83502523D01*
X126274077Y-83502524D01*
X126953554Y-84182000D01*
X126947339Y-84182000D01*
X126845606Y-84209259D01*
X126754394Y-84261920D01*
X126679920Y-84336394D01*
X126627259Y-84427606D01*
X126600000Y-84529339D01*
X126600000Y-84535553D01*
X125920524Y-83856077D01*
X125920523Y-83856077D01*
X125888143Y-83900644D01*
X125795244Y-84082968D01*
X125732009Y-84277582D01*
X125700000Y-84479682D01*
X125298500Y-84479682D01*
X125298500Y-84456038D01*
X125259090Y-84207215D01*
X125181241Y-83967621D01*
X125181239Y-83967618D01*
X125181239Y-83967616D01*
X125129415Y-83865907D01*
X125066870Y-83743155D01*
X125046313Y-83714860D01*
X124979332Y-83622668D01*
X124918798Y-83539350D01*
X124918794Y-83539345D01*
X124740654Y-83361205D01*
X124740649Y-83361201D01*
X124536848Y-83213132D01*
X124536847Y-83213131D01*
X124536845Y-83213130D01*
X124466747Y-83177413D01*
X124312383Y-83098760D01*
X124072785Y-83020910D01*
X123823962Y-82981500D01*
X123572038Y-82981500D01*
X123491835Y-82994203D01*
X123323214Y-83020910D01*
X123083616Y-83098760D01*
X122859151Y-83213132D01*
X122655350Y-83361201D01*
X122655345Y-83361205D01*
X122632181Y-83384370D01*
X122570858Y-83417855D01*
X122501166Y-83412871D01*
X122445233Y-83370999D01*
X122420816Y-83305535D01*
X122420500Y-83296689D01*
X122420500Y-76092691D01*
X122440185Y-76025652D01*
X122492989Y-75979897D01*
X122562147Y-75969953D01*
X122583494Y-75974982D01*
X122695202Y-76011999D01*
X122797990Y-76022500D01*
X122797995Y-76022500D01*
X124598005Y-76022500D01*
X124598010Y-76022500D01*
X124700798Y-76011999D01*
X124867335Y-75956814D01*
X125016656Y-75864712D01*
X125140712Y-75740656D01*
X125232814Y-75591335D01*
X125287999Y-75424798D01*
X125298500Y-75322010D01*
X125298500Y-74319648D01*
X125699500Y-74319648D01*
X125699500Y-74524352D01*
X125703878Y-74551995D01*
X125731522Y-74726534D01*
X125794781Y-74921223D01*
X125835658Y-75001447D01*
X125882029Y-75092455D01*
X125887715Y-75103613D01*
X126008028Y-75269213D01*
X126152786Y-75413971D01*
X126307749Y-75526556D01*
X126318390Y-75534287D01*
X126430347Y-75591332D01*
X126500776Y-75627218D01*
X126500778Y-75627218D01*
X126500781Y-75627220D01*
X126605137Y-75661127D01*
X126695465Y-75690477D01*
X126796557Y-75706488D01*
X126897648Y-75722500D01*
X126897649Y-75722500D01*
X127102351Y-75722500D01*
X127102352Y-75722500D01*
X127304534Y-75690477D01*
X127499219Y-75627220D01*
X127681610Y-75534287D01*
X127802873Y-75446185D01*
X127847213Y-75413971D01*
X127847215Y-75413968D01*
X127847219Y-75413966D01*
X127991966Y-75269219D01*
X127991968Y-75269215D01*
X127991971Y-75269213D01*
X128076040Y-75153500D01*
X128112287Y-75103610D01*
X128205220Y-74921219D01*
X128268477Y-74726534D01*
X128300500Y-74524352D01*
X128300500Y-74319648D01*
X129001500Y-74319648D01*
X129001500Y-74524352D01*
X129005878Y-74551995D01*
X129033522Y-74726534D01*
X129096781Y-74921223D01*
X129137658Y-75001447D01*
X129184029Y-75092455D01*
X129189715Y-75103613D01*
X129310028Y-75269213D01*
X129454786Y-75413971D01*
X129609749Y-75526556D01*
X129620390Y-75534287D01*
X129732347Y-75591332D01*
X129802776Y-75627218D01*
X129802778Y-75627218D01*
X129802781Y-75627220D01*
X129907137Y-75661127D01*
X129997465Y-75690477D01*
X130098557Y-75706488D01*
X130199648Y-75722500D01*
X130199649Y-75722500D01*
X130404351Y-75722500D01*
X130404352Y-75722500D01*
X130606534Y-75690477D01*
X130801219Y-75627220D01*
X130983610Y-75534287D01*
X131104873Y-75446185D01*
X131149213Y-75413971D01*
X131149215Y-75413968D01*
X131149219Y-75413966D01*
X131293966Y-75269219D01*
X131293968Y-75269215D01*
X131293971Y-75269213D01*
X131378040Y-75153500D01*
X131414287Y-75103610D01*
X131507220Y-74921219D01*
X131570477Y-74726534D01*
X131602500Y-74524352D01*
X131602500Y-74319648D01*
X131570477Y-74117466D01*
X131562544Y-74093052D01*
X131524591Y-73976243D01*
X131507220Y-73922781D01*
X131507218Y-73922778D01*
X131507218Y-73922776D01*
X131473503Y-73856607D01*
X131414287Y-73740390D01*
X131380934Y-73694483D01*
X131293971Y-73574786D01*
X131149213Y-73430028D01*
X130983613Y-73309715D01*
X130983612Y-73309714D01*
X130983610Y-73309713D01*
X130926653Y-73280691D01*
X130801223Y-73216781D01*
X130606534Y-73153522D01*
X130431995Y-73125878D01*
X130404352Y-73121500D01*
X130199648Y-73121500D01*
X130175329Y-73125351D01*
X129997465Y-73153522D01*
X129802776Y-73216781D01*
X129620386Y-73309715D01*
X129454786Y-73430028D01*
X129310028Y-73574786D01*
X129189715Y-73740386D01*
X129096781Y-73922776D01*
X129033522Y-74117465D01*
X129003109Y-74309491D01*
X129001500Y-74319648D01*
X128300500Y-74319648D01*
X128268477Y-74117466D01*
X128260544Y-74093052D01*
X128222591Y-73976243D01*
X128205220Y-73922781D01*
X128205218Y-73922778D01*
X128205218Y-73922776D01*
X128171503Y-73856607D01*
X128112287Y-73740390D01*
X128078934Y-73694483D01*
X127991971Y-73574786D01*
X127847213Y-73430028D01*
X127681613Y-73309715D01*
X127681612Y-73309714D01*
X127681610Y-73309713D01*
X127624653Y-73280691D01*
X127499223Y-73216781D01*
X127304534Y-73153522D01*
X127129995Y-73125878D01*
X127102352Y-73121500D01*
X126897648Y-73121500D01*
X126873329Y-73125351D01*
X126695465Y-73153522D01*
X126500776Y-73216781D01*
X126318386Y-73309715D01*
X126152786Y-73430028D01*
X126008028Y-73574786D01*
X125887715Y-73740386D01*
X125794781Y-73922776D01*
X125731522Y-74117465D01*
X125701109Y-74309491D01*
X125699500Y-74319648D01*
X125298500Y-74319648D01*
X125298500Y-73521990D01*
X125287999Y-73419202D01*
X125232814Y-73252665D01*
X125140712Y-73103344D01*
X125016656Y-72979288D01*
X124867335Y-72887186D01*
X124700798Y-72832001D01*
X124700796Y-72832000D01*
X124598017Y-72821500D01*
X124598010Y-72821500D01*
X122797990Y-72821500D01*
X122797982Y-72821500D01*
X122695203Y-72832000D01*
X122695202Y-72832001D01*
X122583504Y-72869014D01*
X122513675Y-72871416D01*
X122453633Y-72835684D01*
X122422441Y-72773163D01*
X122420500Y-72751308D01*
X122420500Y-67979983D01*
X124104500Y-67979983D01*
X124104500Y-69180001D01*
X124104501Y-69180018D01*
X124115000Y-69282796D01*
X124115001Y-69282799D01*
X124170185Y-69449331D01*
X124170187Y-69449336D01*
X124178306Y-69462499D01*
X124262288Y-69598656D01*
X124386344Y-69722712D01*
X124535666Y-69814814D01*
X124702203Y-69869999D01*
X124804991Y-69880500D01*
X126005008Y-69880499D01*
X126107797Y-69869999D01*
X126274334Y-69814814D01*
X126423656Y-69722712D01*
X126547712Y-69598656D01*
X126639814Y-69449334D01*
X126694999Y-69282797D01*
X126705500Y-69180009D01*
X126705499Y-68477682D01*
X127605000Y-68477682D01*
X127605000Y-68682317D01*
X127637009Y-68884417D01*
X127700244Y-69079031D01*
X127793141Y-69261350D01*
X127793147Y-69261359D01*
X127825523Y-69305921D01*
X127825524Y-69305922D01*
X128505000Y-68626446D01*
X128505000Y-68632661D01*
X128532259Y-68734394D01*
X128584920Y-68825606D01*
X128659394Y-68900080D01*
X128750606Y-68952741D01*
X128852339Y-68980000D01*
X128858553Y-68980000D01*
X128179076Y-69659474D01*
X128223650Y-69691859D01*
X128405968Y-69784755D01*
X128600582Y-69847990D01*
X128802683Y-69880000D01*
X129007317Y-69880000D01*
X129209417Y-69847990D01*
X129404031Y-69784755D01*
X129586349Y-69691859D01*
X129630922Y-69659474D01*
X128951447Y-68980000D01*
X128957661Y-68980000D01*
X129059394Y-68952741D01*
X129150606Y-68900080D01*
X129225080Y-68825606D01*
X129277741Y-68734394D01*
X129305000Y-68632661D01*
X129305000Y-68626448D01*
X129984474Y-69305922D01*
X129984474Y-69305921D01*
X130016859Y-69261349D01*
X130109755Y-69079031D01*
X130172990Y-68884417D01*
X130205000Y-68682317D01*
X130205000Y-68477682D01*
X130172990Y-68275582D01*
X130109755Y-68080968D01*
X130016859Y-67898650D01*
X129984474Y-67854077D01*
X129984474Y-67854076D01*
X129305000Y-68533551D01*
X129305000Y-68527339D01*
X129277741Y-68425606D01*
X129225080Y-68334394D01*
X129150606Y-68259920D01*
X129059394Y-68207259D01*
X128957661Y-68180000D01*
X128951446Y-68180000D01*
X129630922Y-67500524D01*
X129630921Y-67500523D01*
X129586359Y-67468147D01*
X129586350Y-67468141D01*
X129404031Y-67375244D01*
X129209417Y-67312009D01*
X129007317Y-67280000D01*
X128802683Y-67280000D01*
X128600582Y-67312009D01*
X128405968Y-67375244D01*
X128223644Y-67468143D01*
X128179077Y-67500523D01*
X128179077Y-67500524D01*
X128858554Y-68180000D01*
X128852339Y-68180000D01*
X128750606Y-68207259D01*
X128659394Y-68259920D01*
X128584920Y-68334394D01*
X128532259Y-68425606D01*
X128505000Y-68527339D01*
X128505000Y-68533553D01*
X127825524Y-67854077D01*
X127825523Y-67854077D01*
X127793143Y-67898644D01*
X127700244Y-68080968D01*
X127637009Y-68275582D01*
X127605000Y-68477682D01*
X126705499Y-68477682D01*
X126705499Y-67979992D01*
X126694999Y-67877203D01*
X126639814Y-67710666D01*
X126633363Y-67700208D01*
X126579500Y-67612881D01*
X126579499Y-67612880D01*
X126547712Y-67561344D01*
X126423656Y-67437288D01*
X126297061Y-67359204D01*
X126274336Y-67345187D01*
X126274331Y-67345185D01*
X126246338Y-67335909D01*
X126107797Y-67290001D01*
X126107795Y-67290000D01*
X126005010Y-67279500D01*
X124804998Y-67279500D01*
X124804981Y-67279501D01*
X124702203Y-67290000D01*
X124702200Y-67290001D01*
X124535668Y-67345185D01*
X124535663Y-67345187D01*
X124386342Y-67437289D01*
X124262289Y-67561342D01*
X124170187Y-67710663D01*
X124170186Y-67710666D01*
X124115001Y-67877203D01*
X124115001Y-67877204D01*
X124115000Y-67877204D01*
X124104500Y-67979983D01*
X122420500Y-67979983D01*
X122420500Y-61423750D01*
X122420726Y-61416263D01*
X122428119Y-61294038D01*
X123319500Y-61294038D01*
X123319500Y-61545962D01*
X123323004Y-61568087D01*
X123358910Y-61794785D01*
X123436760Y-62034383D01*
X123495278Y-62149230D01*
X123549863Y-62256359D01*
X123551132Y-62258848D01*
X123699201Y-62462649D01*
X123699205Y-62462654D01*
X123877345Y-62640794D01*
X123877350Y-62640798D01*
X123961825Y-62702172D01*
X124081155Y-62788870D01*
X124224184Y-62861747D01*
X124305616Y-62903239D01*
X124305618Y-62903239D01*
X124305621Y-62903241D01*
X124545215Y-62981090D01*
X124794038Y-63020500D01*
X124794039Y-63020500D01*
X125045961Y-63020500D01*
X125045962Y-63020500D01*
X125294785Y-62981090D01*
X125534379Y-62903241D01*
X125758845Y-62788870D01*
X125962656Y-62640793D01*
X126140793Y-62462656D01*
X126288870Y-62258845D01*
X126403241Y-62034379D01*
X126481090Y-61794785D01*
X126520500Y-61545962D01*
X126520500Y-61294038D01*
X126481090Y-61045215D01*
X126403241Y-60805621D01*
X126403239Y-60805618D01*
X126403239Y-60805616D01*
X126352481Y-60705999D01*
X126288870Y-60581155D01*
X126254367Y-60533665D01*
X126140798Y-60377350D01*
X126140794Y-60377345D01*
X125962654Y-60199205D01*
X125962649Y-60199201D01*
X125758848Y-60051132D01*
X125758847Y-60051131D01*
X125758845Y-60051130D01*
X125671332Y-60006540D01*
X125534383Y-59936760D01*
X125294785Y-59858910D01*
X125293971Y-59858781D01*
X125045962Y-59819500D01*
X124794038Y-59819500D01*
X124669626Y-59839205D01*
X124545214Y-59858910D01*
X124305616Y-59936760D01*
X124081151Y-60051132D01*
X123877350Y-60199201D01*
X123877345Y-60199205D01*
X123699205Y-60377345D01*
X123699201Y-60377350D01*
X123551132Y-60581151D01*
X123436760Y-60805616D01*
X123358910Y-61045214D01*
X123347268Y-61118719D01*
X123319500Y-61294038D01*
X122428119Y-61294038D01*
X122428867Y-61281679D01*
X122438271Y-61126205D01*
X122440076Y-61111340D01*
X122449567Y-61059553D01*
X122491780Y-60829197D01*
X122495364Y-60814663D01*
X122497331Y-60808351D01*
X122580696Y-60540822D01*
X122585998Y-60526841D01*
X122703731Y-60265249D01*
X122710676Y-60252016D01*
X122859080Y-60006526D01*
X122867567Y-59994230D01*
X123044480Y-59768417D01*
X123054395Y-59757226D01*
X123257226Y-59554395D01*
X123268417Y-59544480D01*
X123494230Y-59367567D01*
X123506526Y-59359080D01*
X123752016Y-59210676D01*
X123765249Y-59203731D01*
X124026841Y-59085998D01*
X124040822Y-59080696D01*
X124314668Y-58995362D01*
X124329197Y-58991780D01*
X124611344Y-58940075D01*
X124626201Y-58938271D01*
X124916264Y-58920726D01*
X124923751Y-58920500D01*
X124985892Y-58920500D01*
X136006771Y-58920500D01*
X136073810Y-58940185D01*
G37*
%TD.AperFunction*%
%TA.AperFunction,Conductor*%
G36*
X135647834Y-80781047D02*
G01*
X135703767Y-80822919D01*
X135728184Y-80888383D01*
X135728500Y-80897229D01*
X135728500Y-83720918D01*
X135728500Y-83720920D01*
X135728499Y-83720920D01*
X135757340Y-83865907D01*
X135757343Y-83865917D01*
X135813913Y-84002490D01*
X135813914Y-84002491D01*
X135813916Y-84002495D01*
X135838868Y-84039838D01*
X135888649Y-84114343D01*
X135896049Y-84125417D01*
X139075974Y-87305342D01*
X139109459Y-87366665D01*
X139104475Y-87436357D01*
X139062603Y-87492290D01*
X138997139Y-87516707D01*
X138949975Y-87510954D01*
X138786240Y-87457753D01*
X138624957Y-87432208D01*
X138576287Y-87424500D01*
X138363713Y-87424500D01*
X138315042Y-87432208D01*
X138153760Y-87457753D01*
X137951585Y-87523444D01*
X137762179Y-87619951D01*
X137590213Y-87744890D01*
X137439894Y-87895209D01*
X137439890Y-87895214D01*
X137320008Y-88060218D01*
X137264678Y-88102884D01*
X137195065Y-88108863D01*
X137133270Y-88076257D01*
X137119372Y-88060218D01*
X136999727Y-87895540D01*
X136999723Y-87895535D01*
X136849464Y-87745276D01*
X136849459Y-87745272D01*
X136677557Y-87620379D01*
X136488215Y-87523903D01*
X136286124Y-87458241D01*
X136220000Y-87447768D01*
X136220000Y-88495854D01*
X136153343Y-88457370D01*
X136032535Y-88425000D01*
X135907465Y-88425000D01*
X135786657Y-88457370D01*
X135720000Y-88495854D01*
X135720000Y-87447768D01*
X135719999Y-87447768D01*
X135653875Y-87458241D01*
X135451784Y-87523903D01*
X135262442Y-87620379D01*
X135090540Y-87745272D01*
X135090535Y-87745276D01*
X134947181Y-87888631D01*
X134885858Y-87922116D01*
X134816166Y-87917132D01*
X134760233Y-87875260D01*
X134735816Y-87809796D01*
X134735500Y-87800950D01*
X134735500Y-82467220D01*
X134755185Y-82400181D01*
X134786614Y-82366902D01*
X134864792Y-82310104D01*
X135015104Y-82159792D01*
X135015106Y-82159788D01*
X135015109Y-82159786D01*
X135140048Y-81987820D01*
X135140047Y-81987820D01*
X135140051Y-81987816D01*
X135236557Y-81798412D01*
X135302246Y-81596243D01*
X135335500Y-81386287D01*
X135335500Y-81173713D01*
X135320382Y-81078268D01*
X135329336Y-81008979D01*
X135355169Y-80971197D01*
X135516822Y-80809545D01*
X135578142Y-80776063D01*
X135647834Y-80781047D01*
G37*
%TD.AperFunction*%
%TA.AperFunction,Conductor*%
G36*
X151612539Y-60225185D02*
G01*
X151658294Y-60277989D01*
X151669500Y-60329500D01*
X151669500Y-61757870D01*
X151669501Y-61757876D01*
X151675908Y-61817483D01*
X151726202Y-61952328D01*
X151726206Y-61952335D01*
X151812452Y-62067544D01*
X151812455Y-62067547D01*
X151896861Y-62130734D01*
X151938732Y-62186668D01*
X151943716Y-62256359D01*
X151910230Y-62317682D01*
X151896861Y-62329266D01*
X151812455Y-62392452D01*
X151812452Y-62392455D01*
X151726206Y-62507664D01*
X151726202Y-62507671D01*
X151675908Y-62642517D01*
X151669501Y-62702116D01*
X151669501Y-62702123D01*
X151669500Y-62702135D01*
X151669500Y-64297870D01*
X151669501Y-64297876D01*
X151675908Y-64357483D01*
X151726202Y-64492328D01*
X151726206Y-64492335D01*
X151812452Y-64607544D01*
X151812455Y-64607547D01*
X151896861Y-64670734D01*
X151938732Y-64726668D01*
X151943716Y-64796359D01*
X151910230Y-64857682D01*
X151896861Y-64869266D01*
X151812455Y-64932452D01*
X151812452Y-64932455D01*
X151726206Y-65047664D01*
X151726202Y-65047671D01*
X151675908Y-65182517D01*
X151672570Y-65213571D01*
X151669501Y-65242123D01*
X151669500Y-65242135D01*
X151669500Y-66837870D01*
X151669501Y-66837876D01*
X151675908Y-66897483D01*
X151726202Y-67032328D01*
X151726206Y-67032335D01*
X151812452Y-67147544D01*
X151812455Y-67147547D01*
X151896861Y-67210734D01*
X151938732Y-67266668D01*
X151943716Y-67336359D01*
X151910230Y-67397682D01*
X151896861Y-67409266D01*
X151812455Y-67472452D01*
X151812452Y-67472455D01*
X151726206Y-67587664D01*
X151726202Y-67587671D01*
X151675908Y-67722517D01*
X151669501Y-67782116D01*
X151669501Y-67782123D01*
X151669500Y-67782135D01*
X151669500Y-69377870D01*
X151669501Y-69377876D01*
X151675908Y-69437483D01*
X151726202Y-69572328D01*
X151726206Y-69572335D01*
X151812452Y-69687544D01*
X151812455Y-69687547D01*
X151896861Y-69750734D01*
X151938732Y-69806668D01*
X151943716Y-69876359D01*
X151910230Y-69937682D01*
X151896861Y-69949266D01*
X151812455Y-70012452D01*
X151812452Y-70012455D01*
X151726206Y-70127664D01*
X151726202Y-70127671D01*
X151675908Y-70262517D01*
X151671342Y-70304993D01*
X151669501Y-70322123D01*
X151669500Y-70322135D01*
X151669500Y-71917870D01*
X151669501Y-71917876D01*
X151675908Y-71977483D01*
X151726202Y-72112328D01*
X151726206Y-72112335D01*
X151812452Y-72227544D01*
X151812455Y-72227547D01*
X151896861Y-72290734D01*
X151938732Y-72346668D01*
X151943716Y-72416359D01*
X151910230Y-72477682D01*
X151896861Y-72489266D01*
X151812455Y-72552452D01*
X151812452Y-72552455D01*
X151726206Y-72667664D01*
X151726202Y-72667671D01*
X151675908Y-72802517D01*
X151669501Y-72862116D01*
X151669501Y-72862123D01*
X151669500Y-72862135D01*
X151669500Y-73600770D01*
X151649815Y-73667809D01*
X151597011Y-73713564D01*
X151527853Y-73723508D01*
X151464297Y-73694483D01*
X151457819Y-73688451D01*
X150110858Y-72341490D01*
X150077373Y-72280167D01*
X150082357Y-72210475D01*
X150124229Y-72154542D01*
X150160221Y-72135878D01*
X150164531Y-72134477D01*
X150164534Y-72134477D01*
X150359219Y-72071220D01*
X150541610Y-71978287D01*
X150634590Y-71910732D01*
X150707213Y-71857971D01*
X150707215Y-71857968D01*
X150707219Y-71857966D01*
X150851966Y-71713219D01*
X150851968Y-71713215D01*
X150851971Y-71713213D01*
X150917008Y-71623695D01*
X150972287Y-71547610D01*
X151065220Y-71365219D01*
X151128477Y-71170534D01*
X151160500Y-70968352D01*
X151160500Y-70763648D01*
X151128477Y-70561466D01*
X151123508Y-70546174D01*
X151079972Y-70412184D01*
X151065220Y-70366781D01*
X151065218Y-70366778D01*
X151065218Y-70366776D01*
X151031503Y-70300607D01*
X150972287Y-70184390D01*
X150944450Y-70146075D01*
X150851971Y-70018786D01*
X150707213Y-69874028D01*
X150541613Y-69753715D01*
X150541612Y-69753714D01*
X150541610Y-69753713D01*
X150480763Y-69722710D01*
X150359223Y-69660781D01*
X150164534Y-69597522D01*
X149989995Y-69569878D01*
X149962352Y-69565500D01*
X149757648Y-69565500D01*
X149733329Y-69569351D01*
X149555465Y-69597522D01*
X149360776Y-69660781D01*
X149178386Y-69753715D01*
X149012786Y-69874028D01*
X148868028Y-70018786D01*
X148747715Y-70184386D01*
X148654781Y-70366776D01*
X148590121Y-70565778D01*
X148550683Y-70623453D01*
X148486324Y-70650651D01*
X148417478Y-70638736D01*
X148384509Y-70615140D01*
X148052421Y-70283052D01*
X148052414Y-70283046D01*
X147978063Y-70233367D01*
X147978063Y-70233368D01*
X147929491Y-70200913D01*
X147792917Y-70144343D01*
X147792907Y-70144340D01*
X147647920Y-70115500D01*
X147647918Y-70115500D01*
X147175418Y-70115500D01*
X147108379Y-70095815D01*
X147075100Y-70064385D01*
X147041971Y-70018787D01*
X147041967Y-70018782D01*
X146897213Y-69874028D01*
X146731613Y-69753715D01*
X146731612Y-69753714D01*
X146731610Y-69753713D01*
X146670763Y-69722710D01*
X146549223Y-69660781D01*
X146354534Y-69597522D01*
X146179995Y-69569878D01*
X146152352Y-69565500D01*
X145947648Y-69565500D01*
X145923329Y-69569351D01*
X145745465Y-69597522D01*
X145550776Y-69660781D01*
X145368386Y-69753715D01*
X145202786Y-69874028D01*
X145058028Y-70018786D01*
X144937715Y-70184386D01*
X144844781Y-70366776D01*
X144781522Y-70561465D01*
X144749500Y-70763648D01*
X144749500Y-70968351D01*
X144781522Y-71170534D01*
X144844781Y-71365223D01*
X144937715Y-71547613D01*
X145058028Y-71713213D01*
X145202786Y-71857971D01*
X145300217Y-71928757D01*
X145368390Y-71978287D01*
X145484607Y-72037503D01*
X145550776Y-72071218D01*
X145550778Y-72071218D01*
X145550781Y-72071220D01*
X145655137Y-72105127D01*
X145745465Y-72134477D01*
X145754311Y-72135878D01*
X145947648Y-72166500D01*
X145947649Y-72166500D01*
X146152351Y-72166500D01*
X146152352Y-72166500D01*
X146354534Y-72134477D01*
X146549219Y-72071220D01*
X146731610Y-71978287D01*
X146824590Y-71910732D01*
X146897213Y-71857971D01*
X146897215Y-71857968D01*
X146897219Y-71857966D01*
X147041966Y-71713219D01*
X147044650Y-71709524D01*
X147075100Y-71667615D01*
X147079431Y-71664274D01*
X147081705Y-71659297D01*
X147106804Y-71643166D01*
X147130429Y-71624949D01*
X147137102Y-71623695D01*
X147140483Y-71621523D01*
X147175418Y-71616500D01*
X147211770Y-71616500D01*
X147278809Y-71636185D01*
X147299451Y-71652819D01*
X150851181Y-75204549D01*
X150884666Y-75265872D01*
X150887500Y-75292230D01*
X150887500Y-76628769D01*
X150867815Y-76695808D01*
X150815011Y-76741563D01*
X150745853Y-76751507D01*
X150682297Y-76722482D01*
X150675819Y-76716450D01*
X148052421Y-74093052D01*
X148052414Y-74093046D01*
X147978729Y-74043812D01*
X147978729Y-74043813D01*
X147929491Y-74010913D01*
X147792917Y-73954343D01*
X147792907Y-73954340D01*
X147647920Y-73925500D01*
X147647918Y-73925500D01*
X143098229Y-73925500D01*
X143031190Y-73905815D01*
X143010548Y-73889181D01*
X140466818Y-71345450D01*
X140433333Y-71284127D01*
X140430499Y-71257769D01*
X140430499Y-70763648D01*
X140939500Y-70763648D01*
X140939500Y-70968351D01*
X140971522Y-71170534D01*
X141034781Y-71365223D01*
X141127715Y-71547613D01*
X141248028Y-71713213D01*
X141392786Y-71857971D01*
X141490217Y-71928757D01*
X141558390Y-71978287D01*
X141674607Y-72037503D01*
X141740776Y-72071218D01*
X141740778Y-72071218D01*
X141740781Y-72071220D01*
X141845137Y-72105127D01*
X141935465Y-72134477D01*
X141944311Y-72135878D01*
X142137648Y-72166500D01*
X142137649Y-72166500D01*
X142342351Y-72166500D01*
X142342352Y-72166500D01*
X142544534Y-72134477D01*
X142739219Y-72071220D01*
X142921610Y-71978287D01*
X143014590Y-71910732D01*
X143087213Y-71857971D01*
X143087215Y-71857968D01*
X143087219Y-71857966D01*
X143231966Y-71713219D01*
X143231968Y-71713215D01*
X143231971Y-71713213D01*
X143297008Y-71623695D01*
X143352287Y-71547610D01*
X143445220Y-71365219D01*
X143508477Y-71170534D01*
X143540500Y-70968352D01*
X143540500Y-70763648D01*
X143508477Y-70561466D01*
X143503508Y-70546174D01*
X143459972Y-70412184D01*
X143445220Y-70366781D01*
X143445218Y-70366778D01*
X143445218Y-70366776D01*
X143411503Y-70300607D01*
X143352287Y-70184390D01*
X143324450Y-70146075D01*
X143231971Y-70018786D01*
X143087213Y-69874028D01*
X142921613Y-69753715D01*
X142921612Y-69753714D01*
X142921610Y-69753713D01*
X142860763Y-69722710D01*
X142739223Y-69660781D01*
X142544534Y-69597522D01*
X142369995Y-69569878D01*
X142342352Y-69565500D01*
X142137648Y-69565500D01*
X142113329Y-69569351D01*
X141935465Y-69597522D01*
X141740776Y-69660781D01*
X141558386Y-69753715D01*
X141392786Y-69874028D01*
X141248028Y-70018786D01*
X141127715Y-70184386D01*
X141034781Y-70366776D01*
X140971522Y-70561465D01*
X140939500Y-70763648D01*
X140430499Y-70763648D01*
X140430499Y-70322129D01*
X140430498Y-70322123D01*
X140430497Y-70322116D01*
X140424091Y-70262517D01*
X140415772Y-70240213D01*
X140373797Y-70127671D01*
X140373793Y-70127664D01*
X140322123Y-70058643D01*
X140287546Y-70012454D01*
X140203136Y-69949265D01*
X140161267Y-69893333D01*
X140156283Y-69823641D01*
X140189768Y-69762318D01*
X140203130Y-69750739D01*
X140287546Y-69687546D01*
X140373796Y-69572331D01*
X140424091Y-69437483D01*
X140430500Y-69377873D01*
X140430499Y-67782128D01*
X140424091Y-67722517D01*
X140419668Y-67710659D01*
X140373797Y-67587671D01*
X140373793Y-67587664D01*
X140307583Y-67499220D01*
X140287546Y-67472454D01*
X140203136Y-67409265D01*
X140161267Y-67353333D01*
X140156283Y-67283641D01*
X140189768Y-67222318D01*
X140203130Y-67210739D01*
X140287546Y-67147546D01*
X140373796Y-67032331D01*
X140424091Y-66897483D01*
X140424091Y-66897481D01*
X140425874Y-66889938D01*
X140428146Y-66890474D01*
X140450429Y-66836688D01*
X140507823Y-66796843D01*
X140546976Y-66790500D01*
X142559102Y-66790500D01*
X142656644Y-66771096D01*
X142704095Y-66761658D01*
X142840677Y-66705084D01*
X142889911Y-66672186D01*
X142963598Y-66622952D01*
X148445034Y-61141514D01*
X148506357Y-61108030D01*
X148576049Y-61113014D01*
X148631982Y-61154886D01*
X148650646Y-61190878D01*
X148655244Y-61205029D01*
X148748141Y-61387350D01*
X148748147Y-61387359D01*
X148780523Y-61431921D01*
X148780524Y-61431922D01*
X149460000Y-60752446D01*
X149460000Y-60758661D01*
X149487259Y-60860394D01*
X149539920Y-60951606D01*
X149614394Y-61026080D01*
X149705606Y-61078741D01*
X149807339Y-61106000D01*
X149813553Y-61106000D01*
X149134076Y-61785474D01*
X149178650Y-61817859D01*
X149360968Y-61910755D01*
X149555582Y-61973990D01*
X149757683Y-62006000D01*
X149962317Y-62006000D01*
X150164417Y-61973990D01*
X150359031Y-61910755D01*
X150541349Y-61817859D01*
X150585921Y-61785474D01*
X149906447Y-61106000D01*
X149912661Y-61106000D01*
X150014394Y-61078741D01*
X150105606Y-61026080D01*
X150180080Y-60951606D01*
X150232741Y-60860394D01*
X150260000Y-60758661D01*
X150260000Y-60752447D01*
X150939474Y-61431921D01*
X150971859Y-61387349D01*
X151064755Y-61205031D01*
X151127990Y-61010417D01*
X151160000Y-60808317D01*
X151160000Y-60603682D01*
X151127989Y-60401581D01*
X151127988Y-60401574D01*
X151117020Y-60367817D01*
X151115025Y-60297976D01*
X151151106Y-60238144D01*
X151213807Y-60207316D01*
X151234951Y-60205500D01*
X151545500Y-60205500D01*
X151612539Y-60225185D01*
G37*
%TD.AperFunction*%
%TD*%
M02*
