M48
; DRILL file {KiCad 9.0.7} date 2026-04-07T08:38:27+0200
; FORMAT={-:-/ absolute / metric / decimal}
; #@! TF.CreationDate,2026-04-07T08:38:27+02:00
; #@! TF.GenerationSoftware,Kicad,Pcbnew,9.0.7
; #@! TF.FileFunction,Plated,1,2,PTH
FMAT,2
METRIC
; #@! TA.AperFunction,Plated,PTH,ViaDrill
T1C0.300
; #@! TA.AperFunction,Plated,PTH,ComponentDrill
T2C0.750
; #@! TA.AperFunction,Plated,PTH,ComponentDrill
T3C0.800
; #@! TA.AperFunction,Plated,PTH,ComponentDrill
T4C0.950
; #@! TA.AperFunction,Plated,PTH,ComponentDrill
T5C1.000
; #@! TA.AperFunction,Plated,PTH,ComponentDrill
T6C1.100
%
G90
G05
T1
X139.954Y-87.122
X142.494Y-84.582
X145.034Y-65.278
X163.322Y-83.312
T2
X167.132Y-68.112
X167.132Y-70.112
T3
X125.405Y-68.58
X127.0Y-74.422
X127.0Y-84.582
X128.905Y-68.58
X130.302Y-74.422
X130.302Y-84.582
X142.24Y-60.706
X142.24Y-70.866
X146.05Y-60.706
X146.05Y-70.866
X149.86Y-60.706
X149.86Y-70.866
X159.06Y-87.63
X161.544Y-66.294
X161.544Y-76.454
X162.56Y-87.63
T4
X135.95Y-96.283
X135.95Y-103.395
X135.97Y-88.9
X138.45Y-96.283
X138.45Y-103.395
X138.47Y-88.9
X140.95Y-96.283
X140.95Y-103.395
X140.97Y-88.9
X143.45Y-96.283
X143.45Y-103.395
X149.666Y-96.283
X149.666Y-103.395
X152.166Y-96.283
X152.166Y-103.395
X154.666Y-96.283
X154.666Y-103.395
X157.166Y-96.283
X157.166Y-103.395
T5
X126.024Y-90.17
X126.024Y-97.282
X128.524Y-90.17
X128.524Y-97.282
X133.985Y-60.96
X133.985Y-63.5
X133.985Y-66.04
X133.985Y-68.58
X133.985Y-71.12
X133.985Y-73.66
X133.985Y-76.2
X133.985Y-78.74
X133.985Y-81.28
X138.43Y-60.96
X138.43Y-63.5
X138.43Y-66.04
X138.43Y-68.58
X138.43Y-71.12
X138.43Y-73.66
X138.43Y-76.2
X138.43Y-78.74
X138.43Y-81.28
X153.67Y-60.96
X153.67Y-63.5
X153.67Y-66.04
X153.67Y-68.58
X153.67Y-71.12
X153.67Y-73.66
X153.67Y-76.2
X153.67Y-78.74
X153.67Y-81.28
X158.115Y-60.96
X158.115Y-63.5
X158.115Y-66.04
X158.115Y-68.58
X158.115Y-71.12
X158.115Y-73.66
X158.115Y-76.2
X158.115Y-78.74
X158.115Y-81.28
X164.124Y-97.028
X166.624Y-97.028
T6
X123.698Y-74.422
X123.698Y-84.582
X147.574Y-89.154
X150.114Y-89.154
X152.654Y-89.154
X167.386Y-76.454
X167.386Y-86.614
M30
