M48
; DRILL file {KiCad 9.0.4} date 2025-11-26T21:09:51+0100
; FORMAT={-:-/ absolute / inch / decimal}
; #@! TF.CreationDate,2025-11-26T21:09:51+01:00
; #@! TF.GenerationSoftware,Kicad,Pcbnew,9.0.4
; #@! TF.FileFunction,Plated,1,2,PTH
FMAT,2
INCH
; #@! TA.AperFunction,Plated,PTH,ViaDrill
T1C0.0118
; #@! TA.AperFunction,Plated,PTH,ComponentDrill
T2C0.0315
; #@! TA.AperFunction,Plated,PTH,ComponentDrill
T3C0.0374
; #@! TA.AperFunction,Plated,PTH,ComponentDrill
T4C0.0394
; #@! TA.AperFunction,Plated,PTH,ComponentDrill
T5C0.0433
%
G90
G05
T1
X5.51Y-3.43
X5.61Y-3.33
X5.71Y-2.57
X6.43Y-3.28
T2
X4.9372Y-2.7
X5.0Y-2.93
X5.0Y-3.33
X5.075Y-2.7
X5.13Y-2.93
X5.13Y-3.33
X5.6Y-2.39
X5.6Y-2.79
X5.75Y-2.39
X5.75Y-2.79
X5.9Y-2.39
X5.9Y-2.79
X6.2622Y-3.45
X6.36Y-2.61
X6.36Y-3.01
X6.4Y-3.45
T3
X5.3524Y-3.7907
X5.3524Y-4.0707
X5.3531Y-3.5
X5.4508Y-3.7907
X5.4508Y-4.0707
X5.4516Y-3.5
X5.5492Y-3.7907
X5.5492Y-4.0707
X5.55Y-3.5
X5.6476Y-3.7907
X5.6476Y-4.0707
X5.8924Y-3.7907
X5.8924Y-4.0707
X5.9908Y-3.7907
X5.9908Y-4.0707
X6.0892Y-3.7907
X6.0892Y-4.0707
X6.1876Y-3.7907
X6.1876Y-4.0707
T4
X4.9616Y-3.55
X4.9616Y-3.83
X5.06Y-3.55
X5.06Y-3.83
X5.275Y-2.4
X5.275Y-2.5
X5.275Y-2.6
X5.275Y-2.7
X5.275Y-2.8
X5.275Y-2.9
X5.275Y-3.0
X5.275Y-3.1
X5.275Y-3.2
X5.45Y-2.4
X5.45Y-2.5
X5.45Y-2.6
X5.45Y-2.7
X5.45Y-2.8
X5.45Y-2.9
X5.45Y-3.0
X5.45Y-3.1
X5.45Y-3.2
X6.05Y-2.4
X6.05Y-2.5
X6.05Y-2.6
X6.05Y-2.7
X6.05Y-2.8
X6.05Y-2.9
X6.05Y-3.0
X6.05Y-3.1
X6.05Y-3.2
X6.225Y-2.4
X6.225Y-2.5
X6.225Y-2.6
X6.225Y-2.7
X6.225Y-2.8
X6.225Y-2.9
X6.225Y-3.0
X6.225Y-3.1
X6.225Y-3.2
X6.4616Y-3.82
X6.56Y-3.82
X6.58Y-2.6816
X6.58Y-2.78
T5
X4.87Y-2.93
X4.87Y-3.33
X5.81Y-3.51
X5.91Y-3.51
X6.01Y-3.51
X6.59Y-3.01
X6.59Y-3.41
M30
