%TF.GenerationSoftware,KiCad,Pcbnew,9.0.7*%
%TF.CreationDate,2026-04-07T08:38:22+02:00*%
%TF.ProjectId,smart_plants_breakout_ws-board_rev1,736d6172-745f-4706-9c61-6e74735f6272,rev?*%
%TF.SameCoordinates,Original*%
%TF.FileFunction,Copper,L1,Top*%
%TF.FilePolarity,Positive*%
%FSLAX46Y46*%
G04 Gerber Fmt 4.6, Leading zero omitted, Abs format (unit mm)*
G04 Created by KiCad (PCBNEW 9.0.7) date 2026-04-07 08:38:22*
%MOMM*%
%LPD*%
G01*
G04 APERTURE LIST*
G04 Aperture macros list*
%AMRoundRect*
0 Rectangle with rounded corners*
0 $1 Rounding radius*
0 $2 $3 $4 $5 $6 $7 $8 $9 X,Y pos of 4 corners*
0 Add a 4 corners polygon primitive as box body*
4,1,4,$2,$3,$4,$5,$6,$7,$8,$9,$2,$3,0*
0 Add four circle primitives for the rounded corners*
1,1,$1+$1,$2,$3*
1,1,$1+$1,$4,$5*
1,1,$1+$1,$6,$7*
1,1,$1+$1,$8,$9*
0 Add four rect primitives between the rounded corners*
20,1,$1+$1,$2,$3,$4,$5,0*
20,1,$1+$1,$4,$5,$6,$7,0*
20,1,$1+$1,$6,$7,$8,$9,0*
20,1,$1+$1,$8,$9,$2,$3,0*%
G04 Aperture macros list end*
%TA.AperFunction,ComponentPad*%
%ADD10RoundRect,0.249999X0.850001X-0.850001X0.850001X0.850001X-0.850001X0.850001X-0.850001X-0.850001X0*%
%TD*%
%TA.AperFunction,ComponentPad*%
%ADD11C,2.200000*%
%TD*%
%TA.AperFunction,ComponentPad*%
%ADD12R,2.900000X1.500000*%
%TD*%
%TA.AperFunction,ComponentPad*%
%ADD13R,3.000000X1.500000*%
%TD*%
%TA.AperFunction,ComponentPad*%
%ADD14RoundRect,0.249999X-0.850001X0.850001X-0.850001X-0.850001X0.850001X-0.850001X0.850001X0.850001X0*%
%TD*%
%TA.AperFunction,ComponentPad*%
%ADD15C,1.600000*%
%TD*%
%TA.AperFunction,ComponentPad*%
%ADD16R,1.905000X2.000000*%
%TD*%
%TA.AperFunction,ComponentPad*%
%ADD17O,1.905000X2.000000*%
%TD*%
%TA.AperFunction,ComponentPad*%
%ADD18RoundRect,0.250000X-0.550000X-0.550000X0.550000X-0.550000X0.550000X0.550000X-0.550000X0.550000X0*%
%TD*%
%TA.AperFunction,ComponentPad*%
%ADD19RoundRect,0.250000X0.600000X0.750000X-0.600000X0.750000X-0.600000X-0.750000X0.600000X-0.750000X0*%
%TD*%
%TA.AperFunction,ComponentPad*%
%ADD20O,1.700000X2.000000*%
%TD*%
%TA.AperFunction,ComponentPad*%
%ADD21RoundRect,0.250000X0.600000X0.725000X-0.600000X0.725000X-0.600000X-0.725000X0.600000X-0.725000X0*%
%TD*%
%TA.AperFunction,ComponentPad*%
%ADD22O,1.700000X1.950000*%
%TD*%
%TA.AperFunction,ComponentPad*%
%ADD23R,1.700000X1.700000*%
%TD*%
%TA.AperFunction,ComponentPad*%
%ADD24C,1.700000*%
%TD*%
%TA.AperFunction,ComponentPad*%
%ADD25RoundRect,0.250000X-0.625000X0.350000X-0.625000X-0.350000X0.625000X-0.350000X0.625000X0.350000X0*%
%TD*%
%TA.AperFunction,ComponentPad*%
%ADD26O,1.750000X1.200000*%
%TD*%
%TA.AperFunction,ViaPad*%
%ADD27C,0.700000*%
%TD*%
%TA.AperFunction,Conductor*%
%ADD28C,0.500000*%
%TD*%
G04 APERTURE END LIST*
D10*
%TO.P,D1,1,K*%
%TO.N,Net-(D1-K)*%
X167386000Y-86614000D03*
D11*
%TO.P,D1,2,A*%
%TO.N,Net-(D1-A)*%
X167386000Y-76454000D03*
%TD*%
D12*
%TO.P,U1,1,VCC*%
%TO.N,Net-(D1-K)*%
X138430000Y-60960000D03*
D13*
%TO.P,U1,2,GND*%
%TO.N,GND*%
X138430000Y-63500000D03*
%TO.P,U1,3,V3V*%
%TO.N,VDC*%
X138430000Y-66040000D03*
%TO.P,U1,4,IO0*%
%TO.N,Net-(J1-Pin_4)*%
X138430000Y-68580000D03*
%TO.P,U1,5,IO1*%
%TO.N,Net-(J1-Pin_5)*%
X138430000Y-71120000D03*
%TO.P,U1,6,IO2*%
%TO.N,Net-(J1-Pin_6)*%
X138430000Y-73660000D03*
%TO.P,U1,7,IO3*%
%TO.N,Net-(J1-Pin_7)*%
X138430000Y-76200000D03*
%TO.P,U1,8,IO4*%
%TO.N,Net-(J1-Pin_8)*%
X138430000Y-78740000D03*
%TO.P,U1,9,IO5*%
%TO.N,Net-(J1-Pin_9)*%
X138430000Y-81280000D03*
%TO.P,U1,10,IO22*%
%TO.N,Net-(J2-Pin_9)*%
X153670000Y-81280000D03*
%TO.P,U1,11,IO21*%
%TO.N,Net-(J2-Pin_8)*%
X153670000Y-78740000D03*
%TO.P,U1,12,IO20*%
%TO.N,Net-(J2-Pin_7)*%
X153670000Y-76200000D03*
%TO.P,U1,13,IO19*%
%TO.N,Net-(J2-Pin_6)*%
X153670000Y-73660000D03*
%TO.P,U1,14,IO18*%
%TO.N,Net-(J2-Pin_5)*%
X153670000Y-71120000D03*
%TO.P,U1,15,IO15*%
%TO.N,Net-(J2-Pin_4)*%
X153670000Y-68580000D03*
%TO.P,U1,16,IO14*%
%TO.N,Net-(J2-Pin_3)*%
X153670000Y-66040000D03*
%TO.P,U1,17,RX*%
%TO.N,Net-(J2-Pin_2)*%
X153670000Y-63500000D03*
%TO.P,U1,18,TX*%
%TO.N,Net-(J2-Pin_1)*%
X153670000Y-60960000D03*
%TD*%
D14*
%TO.P,D2,1,K*%
%TO.N,Net-(D1-K)*%
X123698000Y-74422000D03*
D11*
%TO.P,D2,2,A*%
%TO.N,Net-(D2-A)*%
X123698000Y-84582000D03*
%TD*%
D15*
%TO.P,R2,1*%
%TO.N,Net-(D2-A)*%
X130302000Y-84582000D03*
%TO.P,R2,2*%
%TO.N,Net-(J1-Pin_4)*%
X130302000Y-74422000D03*
%TD*%
D16*
%TO.P,Q1,1,G*%
%TO.N,Net-(Q1-G)*%
X147574000Y-89154000D03*
D17*
%TO.P,Q1,2,D*%
%TO.N,Net-(D1-A)*%
X150114000Y-89154000D03*
%TO.P,Q1,3,S*%
%TO.N,GND*%
X152654000Y-89154000D03*
%TD*%
D18*
%TO.P,C2,1*%
%TO.N,Net-(D1-K)*%
X125405000Y-68580000D03*
D15*
%TO.P,C2,2*%
%TO.N,GND*%
X128905000Y-68580000D03*
%TD*%
D19*
%TO.P,J7,1,Pin_1*%
%TO.N,Net-(J7-Pin_1)*%
X128524000Y-97282000D03*
D20*
%TO.P,J7,2,Pin_2*%
%TO.N,GND*%
X126024000Y-97282000D03*
%TD*%
D21*
%TO.P,J9,1,Pin_1*%
%TO.N,Net-(J1-Pin_5)*%
X140970000Y-88900000D03*
D22*
%TO.P,J9,2,Pin_2*%
%TO.N,Net-(J2-Pin_8)*%
X138470000Y-88900000D03*
%TO.P,J9,3,Pin_3*%
%TO.N,GND*%
X135970000Y-88900000D03*
%TD*%
D23*
%TO.P,J1,1,Pin_1*%
%TO.N,Net-(D1-K)*%
X133985000Y-60960000D03*
D24*
%TO.P,J1,2,Pin_2*%
%TO.N,GND*%
X133985000Y-63500000D03*
%TO.P,J1,3,Pin_3*%
%TO.N,VDC*%
X133985000Y-66040000D03*
%TO.P,J1,4,Pin_4*%
%TO.N,Net-(J1-Pin_4)*%
X133985000Y-68580000D03*
%TO.P,J1,5,Pin_5*%
%TO.N,Net-(J1-Pin_5)*%
X133985000Y-71120000D03*
%TO.P,J1,6,Pin_6*%
%TO.N,Net-(J1-Pin_6)*%
X133985000Y-73660000D03*
%TO.P,J1,7,Pin_7*%
%TO.N,Net-(J1-Pin_7)*%
X133985000Y-76200000D03*
%TO.P,J1,8,Pin_8*%
%TO.N,Net-(J1-Pin_8)*%
X133985000Y-78740000D03*
%TO.P,J1,9,Pin_9*%
%TO.N,Net-(J1-Pin_9)*%
X133985000Y-81280000D03*
%TD*%
D21*
%TO.P,J5,1,Pin_1*%
%TO.N,Net-(J1-Pin_6)*%
X157166000Y-103395000D03*
D22*
%TO.P,J5,2,Pin_2*%
%TO.N,GND*%
X154666000Y-103395000D03*
%TO.P,J5,3,Pin_3*%
%TO.N,Net-(J1-Pin_8)*%
X152166000Y-103395000D03*
%TO.P,J5,4,Pin_4*%
%TO.N,Net-(J1-Pin_9)*%
X149666000Y-103395000D03*
%TD*%
D18*
%TO.P,C3,1*%
%TO.N,Net-(D1-K)*%
X159060000Y-87630000D03*
D15*
%TO.P,C3,2*%
%TO.N,Net-(D1-A)*%
X162560000Y-87630000D03*
%TD*%
%TO.P,R1,1*%
%TO.N,GND*%
X127000000Y-84582000D03*
%TO.P,R1,2*%
%TO.N,Net-(J1-Pin_4)*%
X127000000Y-74422000D03*
%TD*%
D21*
%TO.P,J3,1,Pin_1*%
%TO.N,VDC*%
X143450000Y-96283000D03*
D22*
%TO.P,J3,2,Pin_2*%
%TO.N,GND*%
X140950000Y-96283000D03*
%TO.P,J3,3,Pin_3*%
%TO.N,Net-(J1-Pin_8)*%
X138450000Y-96283000D03*
%TO.P,J3,4,Pin_4*%
%TO.N,Net-(J1-Pin_9)*%
X135950000Y-96283000D03*
%TD*%
D15*
%TO.P,R6,1*%
%TO.N,Net-(J1-Pin_8)*%
X161544000Y-76454000D03*
%TO.P,R6,2*%
%TO.N,VDC*%
X161544000Y-66294000D03*
%TD*%
D21*
%TO.P,J6,1,Pin_1*%
%TO.N,VDC*%
X157166000Y-96283000D03*
D22*
%TO.P,J6,2,Pin_2*%
%TO.N,GND*%
X154666000Y-96283000D03*
%TO.P,J6,3,Pin_3*%
%TO.N,Net-(J1-Pin_8)*%
X152166000Y-96283000D03*
%TO.P,J6,4,Pin_4*%
%TO.N,Net-(J1-Pin_9)*%
X149666000Y-96283000D03*
%TD*%
D19*
%TO.P,SW1,1,A*%
%TO.N,Net-(J7-Pin_1)*%
X128524000Y-90170000D03*
D20*
%TO.P,SW1,2,B*%
%TO.N,Net-(D2-A)*%
X126024000Y-90170000D03*
%TD*%
D23*
%TO.P,J2,1,Pin_1*%
%TO.N,Net-(J2-Pin_1)*%
X158115000Y-60960000D03*
D24*
%TO.P,J2,2,Pin_2*%
%TO.N,Net-(J2-Pin_2)*%
X158115000Y-63500000D03*
%TO.P,J2,3,Pin_3*%
%TO.N,Net-(J2-Pin_3)*%
X158115000Y-66040000D03*
%TO.P,J2,4,Pin_4*%
%TO.N,Net-(J2-Pin_4)*%
X158115000Y-68580000D03*
%TO.P,J2,5,Pin_5*%
%TO.N,Net-(J2-Pin_5)*%
X158115000Y-71120000D03*
%TO.P,J2,6,Pin_6*%
%TO.N,Net-(J2-Pin_6)*%
X158115000Y-73660000D03*
%TO.P,J2,7,Pin_7*%
%TO.N,Net-(J2-Pin_7)*%
X158115000Y-76200000D03*
%TO.P,J2,8,Pin_8*%
%TO.N,Net-(J2-Pin_8)*%
X158115000Y-78740000D03*
%TO.P,J2,9,Pin_9*%
%TO.N,Net-(J2-Pin_9)*%
X158115000Y-81280000D03*
%TD*%
D25*
%TO.P,J4,1,Pin_1*%
%TO.N,Net-(D1-K)*%
X167132000Y-68112000D03*
D26*
%TO.P,J4,2,Pin_2*%
%TO.N,GND*%
X167132000Y-70112000D03*
%TD*%
D19*
%TO.P,J10,1,Pin_1*%
%TO.N,Net-(D1-K)*%
X166624000Y-97028000D03*
D20*
%TO.P,J10,2,Pin_2*%
%TO.N,Net-(D1-A)*%
X164124000Y-97028000D03*
%TD*%
D21*
%TO.P,J11,1,Pin_1*%
%TO.N,Net-(J1-Pin_7)*%
X143450000Y-103395000D03*
D22*
%TO.P,J11,2,Pin_2*%
%TO.N,GND*%
X140950000Y-103395000D03*
%TO.P,J11,3,Pin_3*%
%TO.N,Net-(J1-Pin_8)*%
X138450000Y-103395000D03*
%TO.P,J11,4,Pin_4*%
%TO.N,Net-(J1-Pin_9)*%
X135950000Y-103395000D03*
%TD*%
D15*
%TO.P,R3,1*%
%TO.N,GND*%
X149860000Y-60706000D03*
%TO.P,R3,2*%
%TO.N,Net-(Q1-G)*%
X149860000Y-70866000D03*
%TD*%
%TO.P,R5,1*%
%TO.N,Net-(J1-Pin_9)*%
X142240000Y-60706000D03*
%TO.P,R5,2*%
%TO.N,VDC*%
X142240000Y-70866000D03*
%TD*%
%TO.P,R4,1*%
%TO.N,Net-(Q1-G)*%
X146050000Y-60706000D03*
%TO.P,R4,2*%
%TO.N,Net-(J2-Pin_9)*%
X146050000Y-70866000D03*
%TD*%
D27*
%TO.N,GND*%
X145034000Y-65278000D03*
%TO.N,Net-(D1-A)*%
X163322000Y-83312000D03*
%TO.N,Net-(J1-Pin_6)*%
X142494000Y-84582000D03*
%TO.N,Net-(J1-Pin_7)*%
X139954000Y-87122000D03*
%TD*%
D28*
%TO.N,GND*%
X138430000Y-63500000D02*
X143256000Y-63500000D01*
X133985000Y-63500000D02*
X138430000Y-63500000D01*
X143256000Y-63500000D02*
X145034000Y-65278000D01*
%TO.N,Net-(D1-K)*%
X139935000Y-59455000D02*
X138430000Y-60960000D01*
X167132000Y-68112000D02*
X168937000Y-69917000D01*
X167132000Y-66802000D02*
X159785000Y-59455000D01*
X167894000Y-86614000D02*
X167659000Y-86379000D01*
X125405000Y-68143000D02*
X132588000Y-60960000D01*
X167386000Y-86614000D02*
X167151000Y-86379000D01*
X159060000Y-87630000D02*
X159060000Y-89464000D01*
X133985000Y-60960000D02*
X138430000Y-60960000D01*
X167132000Y-68112000D02*
X167132000Y-66802000D01*
X159060000Y-89464000D02*
X166624000Y-97028000D01*
X125405000Y-68580000D02*
X125405000Y-68143000D01*
X168937000Y-85063000D02*
X167386000Y-86614000D01*
X160311000Y-86379000D02*
X159060000Y-87630000D01*
X132588000Y-60960000D02*
X133985000Y-60960000D01*
X168937000Y-69917000D02*
X168937000Y-85063000D01*
X167151000Y-86379000D02*
X160311000Y-86379000D01*
X159785000Y-59455000D02*
X139935000Y-59455000D01*
X123698000Y-74422000D02*
X123698000Y-70287000D01*
X123698000Y-70287000D02*
X125405000Y-68580000D01*
%TO.N,Net-(D1-A)*%
X163322000Y-83312000D02*
X163006000Y-83312000D01*
X162560000Y-87630000D02*
X168500000Y-93570000D01*
X168000000Y-98500000D02*
X165596000Y-98500000D01*
X167386000Y-76454000D02*
X167386000Y-77470000D01*
X167386000Y-77470000D02*
X162275000Y-82581000D01*
X168500000Y-98000000D02*
X168000000Y-98500000D01*
X163006000Y-83312000D02*
X162275000Y-82581000D01*
X168500000Y-93570000D02*
X168500000Y-98000000D01*
X162275000Y-82581000D02*
X156687000Y-82581000D01*
X165596000Y-98500000D02*
X164124000Y-97028000D01*
X156687000Y-82581000D02*
X150114000Y-89154000D01*
%TO.N,Net-(J1-Pin_6)*%
X133985000Y-73660000D02*
X138430000Y-73660000D01*
X142494000Y-86928500D02*
X142494000Y-84582000D01*
X158467000Y-95260708D02*
X153811292Y-90605000D01*
X146170500Y-90605000D02*
X142494000Y-86928500D01*
X153811292Y-90605000D02*
X146170500Y-90605000D01*
X157166000Y-103395000D02*
X158467000Y-102094000D01*
X158467000Y-102094000D02*
X158467000Y-95260708D01*
%TO.N,Net-(J1-Pin_5)*%
X133985000Y-71120000D02*
X138430000Y-71120000D01*
%TO.N,Net-(J1-Pin_9)*%
X133985000Y-81280000D02*
X138430000Y-81280000D01*
X149666000Y-103395000D02*
X149666000Y-96283000D01*
X135950000Y-103395000D02*
X135950000Y-96283000D01*
%TO.N,Net-(J1-Pin_8)*%
X152166000Y-104374000D02*
X152166000Y-103395000D01*
X132684000Y-90517000D02*
X132684000Y-80041000D01*
X133985000Y-78740000D02*
X138430000Y-78740000D01*
X151130000Y-105410000D02*
X152166000Y-104374000D01*
X138450000Y-104922000D02*
X138938000Y-105410000D01*
X138450000Y-103395000D02*
X138450000Y-104922000D01*
X138450000Y-96283000D02*
X132684000Y-90517000D01*
X138938000Y-105410000D02*
X151130000Y-105410000D01*
X132684000Y-80041000D02*
X133985000Y-78740000D01*
X138450000Y-103395000D02*
X138450000Y-96283000D01*
X152166000Y-103395000D02*
X152166000Y-96283000D01*
%TO.N,Net-(J1-Pin_7)*%
X143450000Y-103395000D02*
X144751000Y-102094000D01*
X133985000Y-76200000D02*
X138430000Y-76200000D01*
X141515292Y-87122000D02*
X139954000Y-87122000D01*
X144751000Y-90357708D02*
X141515292Y-87122000D01*
X144751000Y-102094000D02*
X144751000Y-90357708D01*
%TO.N,VDC*%
X133985000Y-66040000D02*
X138430000Y-66040000D01*
X142240000Y-69342000D02*
X142240000Y-70866000D01*
X138430000Y-66040000D02*
X138938000Y-66040000D01*
X138938000Y-66040000D02*
X142240000Y-69342000D01*
%TO.N,Net-(J1-Pin_4)*%
X130302000Y-74422000D02*
X130302000Y-72263000D01*
X127000000Y-74422000D02*
X130302000Y-74422000D01*
X133985000Y-68580000D02*
X138430000Y-68580000D01*
X130302000Y-72263000D02*
X133985000Y-68580000D01*
%TO.N,Net-(J2-Pin_4)*%
X153670000Y-68580000D02*
X158115000Y-68580000D01*
%TO.N,Net-(J2-Pin_3)*%
X153670000Y-66040000D02*
X158115000Y-66040000D01*
%TO.N,Net-(J2-Pin_6)*%
X153670000Y-73660000D02*
X158115000Y-73660000D01*
%TO.N,Net-(J2-Pin_2)*%
X153670000Y-63500000D02*
X158115000Y-63500000D01*
%TO.N,Net-(J2-Pin_9)*%
X153670000Y-81280000D02*
X158115000Y-81280000D01*
%TO.N,Net-(J2-Pin_1)*%
X153670000Y-60960000D02*
X158115000Y-60960000D01*
%TO.N,Net-(J2-Pin_7)*%
X153670000Y-76200000D02*
X158115000Y-76200000D01*
%TO.N,Net-(J2-Pin_8)*%
X153670000Y-78740000D02*
X158115000Y-78740000D01*
%TO.N,Net-(J2-Pin_5)*%
X153670000Y-71120000D02*
X158115000Y-71120000D01*
%TO.N,Net-(Q1-G)*%
X149860000Y-70866000D02*
X150659999Y-71665999D01*
X146050000Y-60706000D02*
X146050000Y-67056000D01*
X150659999Y-71665999D02*
X150659999Y-86068001D01*
X146050000Y-67056000D02*
X149860000Y-70866000D01*
X150659999Y-86068001D02*
X147574000Y-89154000D01*
%TD*%
%TA.AperFunction,Conductor*%
%TO.N,GND*%
G36*
X132663590Y-62048290D02*
G01*
X132719522Y-62090160D01*
X132777455Y-62167547D01*
X132892664Y-62253793D01*
X132892671Y-62253797D01*
X132906206Y-62258845D01*
X133027517Y-62304091D01*
X133087127Y-62310500D01*
X133097685Y-62310499D01*
X133164723Y-62330179D01*
X133185372Y-62346818D01*
X133855591Y-63017037D01*
X133792007Y-63034075D01*
X133677993Y-63099901D01*
X133584901Y-63192993D01*
X133519075Y-63307007D01*
X133502037Y-63370591D01*
X132869728Y-62738282D01*
X132869727Y-62738282D01*
X132830380Y-62792439D01*
X132733904Y-62981782D01*
X132668242Y-63183869D01*
X132668242Y-63183872D01*
X132635000Y-63393753D01*
X132635000Y-63606246D01*
X132668242Y-63816127D01*
X132668242Y-63816130D01*
X132733904Y-64018217D01*
X132830375Y-64207550D01*
X132869728Y-64261716D01*
X133502037Y-63629408D01*
X133519075Y-63692993D01*
X133584901Y-63807007D01*
X133677993Y-63900099D01*
X133792007Y-63965925D01*
X133855590Y-63982962D01*
X133223282Y-64615269D01*
X133223282Y-64615270D01*
X133277452Y-64654626D01*
X133277451Y-64654626D01*
X133286495Y-64659234D01*
X133337292Y-64707208D01*
X133354087Y-64775029D01*
X133331550Y-64841164D01*
X133286499Y-64880202D01*
X133277182Y-64884949D01*
X133105213Y-65009890D01*
X132954890Y-65160213D01*
X132829951Y-65332179D01*
X132733444Y-65521585D01*
X132667753Y-65723760D01*
X132634500Y-65933713D01*
X132634500Y-66146286D01*
X132667753Y-66356239D01*
X132667753Y-66356241D01*
X132667754Y-66356243D01*
X132688395Y-66419770D01*
X132733444Y-66558414D01*
X132829951Y-66747820D01*
X132954890Y-66919786D01*
X133105213Y-67070109D01*
X133277182Y-67195050D01*
X133285946Y-67199516D01*
X133336742Y-67247491D01*
X133353536Y-67315312D01*
X133330998Y-67381447D01*
X133285946Y-67420484D01*
X133277182Y-67424949D01*
X133105213Y-67549890D01*
X132954890Y-67700213D01*
X132829951Y-67872179D01*
X132733444Y-68061585D01*
X132667753Y-68263760D01*
X132634500Y-68473713D01*
X132634500Y-68686292D01*
X132649616Y-68781728D01*
X132640662Y-68851021D01*
X132614824Y-68888807D01*
X129719050Y-71784581D01*
X129719047Y-71784585D01*
X129690161Y-71827815D01*
X129690162Y-71827816D01*
X129636913Y-71907508D01*
X129580343Y-72044082D01*
X129580340Y-72044092D01*
X129551500Y-72189079D01*
X129551500Y-73296582D01*
X129531815Y-73363621D01*
X129500385Y-73396900D01*
X129454787Y-73430028D01*
X129454782Y-73430032D01*
X129310032Y-73574782D01*
X129310028Y-73574787D01*
X129276900Y-73620385D01*
X129221571Y-73663051D01*
X129176582Y-73671500D01*
X128125418Y-73671500D01*
X128058379Y-73651815D01*
X128025100Y-73620385D01*
X127991971Y-73574787D01*
X127991967Y-73574782D01*
X127847213Y-73430028D01*
X127681613Y-73309715D01*
X127681612Y-73309714D01*
X127681610Y-73309713D01*
X127624653Y-73280691D01*
X127499223Y-73216781D01*
X127304534Y-73153522D01*
X127129995Y-73125878D01*
X127102352Y-73121500D01*
X126897648Y-73121500D01*
X126873329Y-73125351D01*
X126695465Y-73153522D01*
X126500776Y-73216781D01*
X126318386Y-73309715D01*
X126152786Y-73430028D01*
X126008028Y-73574786D01*
X125887715Y-73740386D01*
X125794781Y-73922776D01*
X125731522Y-74117465D01*
X125699500Y-74319648D01*
X125699500Y-74524352D01*
X125703878Y-74551995D01*
X125731522Y-74726534D01*
X125794781Y-74921223D01*
X125835658Y-75001447D01*
X125882029Y-75092455D01*
X125887715Y-75103613D01*
X126008028Y-75269213D01*
X126152786Y-75413971D01*
X126307749Y-75526556D01*
X126318390Y-75534287D01*
X126430347Y-75591332D01*
X126500776Y-75627218D01*
X126500778Y-75627218D01*
X126500781Y-75627220D01*
X126605137Y-75661127D01*
X126695465Y-75690477D01*
X126796557Y-75706488D01*
X126897648Y-75722500D01*
X126897649Y-75722500D01*
X127102351Y-75722500D01*
X127102352Y-75722500D01*
X127304534Y-75690477D01*
X127499219Y-75627220D01*
X127681610Y-75534287D01*
X127781067Y-75462028D01*
X127847213Y-75413971D01*
X127847215Y-75413968D01*
X127847219Y-75413966D01*
X127991966Y-75269219D01*
X128006816Y-75248780D01*
X128025100Y-75223615D01*
X128080429Y-75180949D01*
X128125418Y-75172500D01*
X129176582Y-75172500D01*
X129243621Y-75192185D01*
X129276900Y-75223615D01*
X129310028Y-75269212D01*
X129310032Y-75269217D01*
X129454786Y-75413971D01*
X129609749Y-75526556D01*
X129620390Y-75534287D01*
X129732347Y-75591332D01*
X129802776Y-75627218D01*
X129802778Y-75627218D01*
X129802781Y-75627220D01*
X129907137Y-75661127D01*
X129997465Y-75690477D01*
X130098557Y-75706488D01*
X130199648Y-75722500D01*
X130199649Y-75722500D01*
X130404351Y-75722500D01*
X130404352Y-75722500D01*
X130606534Y-75690477D01*
X130801219Y-75627220D01*
X130983610Y-75534287D01*
X131083067Y-75462028D01*
X131149213Y-75413971D01*
X131149215Y-75413968D01*
X131149219Y-75413966D01*
X131293966Y-75269219D01*
X131293968Y-75269215D01*
X131293971Y-75269213D01*
X131378040Y-75153500D01*
X131414287Y-75103610D01*
X131507220Y-74921219D01*
X131570477Y-74726534D01*
X131602500Y-74524352D01*
X131602500Y-74319648D01*
X131570477Y-74117466D01*
X131507220Y-73922781D01*
X131507218Y-73922778D01*
X131507218Y-73922776D01*
X131473503Y-73856607D01*
X131414287Y-73740390D01*
X131364236Y-73671500D01*
X131293971Y-73574786D01*
X131149217Y-73430032D01*
X131149212Y-73430028D01*
X131103615Y-73396900D01*
X131060949Y-73341571D01*
X131052500Y-73296582D01*
X131052500Y-72625229D01*
X131072185Y-72558190D01*
X131088819Y-72537548D01*
X131755867Y-71870500D01*
X132430366Y-71196000D01*
X132491687Y-71162517D01*
X132561379Y-71167501D01*
X132617312Y-71209373D01*
X132640518Y-71264285D01*
X132656504Y-71365219D01*
X132667754Y-71436243D01*
X132703940Y-71547613D01*
X132733444Y-71638414D01*
X132829951Y-71827820D01*
X132954890Y-71999786D01*
X133105213Y-72150109D01*
X133277182Y-72275050D01*
X133285946Y-72279516D01*
X133336742Y-72327491D01*
X133353536Y-72395312D01*
X133330998Y-72461447D01*
X133285946Y-72500484D01*
X133277182Y-72504949D01*
X133105213Y-72629890D01*
X132954890Y-72780213D01*
X132829951Y-72952179D01*
X132733444Y-73141585D01*
X132667753Y-73343760D01*
X132634500Y-73553713D01*
X132634500Y-73766286D01*
X132659285Y-73922776D01*
X132667754Y-73976243D01*
X132713640Y-74117466D01*
X132733444Y-74178414D01*
X132829951Y-74367820D01*
X132954890Y-74539786D01*
X133105213Y-74690109D01*
X133277182Y-74815050D01*
X133285946Y-74819516D01*
X133336742Y-74867491D01*
X133353536Y-74935312D01*
X133330998Y-75001447D01*
X133285946Y-75040484D01*
X133277182Y-75044949D01*
X133105213Y-75169890D01*
X132954890Y-75320213D01*
X132829951Y-75492179D01*
X132733444Y-75681585D01*
X132667753Y-75883760D01*
X132634500Y-76093713D01*
X132634500Y-76306286D01*
X132667753Y-76516239D01*
X132667753Y-76516241D01*
X132667754Y-76516243D01*
X132688457Y-76579961D01*
X132733444Y-76718414D01*
X132829951Y-76907820D01*
X132954890Y-77079786D01*
X133105213Y-77230109D01*
X133277182Y-77355050D01*
X133285946Y-77359516D01*
X133336742Y-77407491D01*
X133353536Y-77475312D01*
X133330998Y-77541447D01*
X133285946Y-77580484D01*
X133277182Y-77584949D01*
X133105213Y-77709890D01*
X132954890Y-77860213D01*
X132829951Y-78032179D01*
X132733444Y-78221585D01*
X132667753Y-78423760D01*
X132634500Y-78633713D01*
X132634500Y-78846291D01*
X132649616Y-78941726D01*
X132640662Y-79011020D01*
X132614824Y-79048806D01*
X132101049Y-79562581D01*
X132051812Y-79636271D01*
X132018921Y-79685496D01*
X132018914Y-79685508D01*
X131962342Y-79822086D01*
X131962340Y-79822092D01*
X131933500Y-79967079D01*
X131933500Y-79967082D01*
X131933500Y-90590918D01*
X131933500Y-90590920D01*
X131933499Y-90590920D01*
X131962340Y-90735907D01*
X131962343Y-90735917D01*
X132018914Y-90872492D01*
X132051812Y-90921727D01*
X132051813Y-90921730D01*
X132101046Y-90995414D01*
X132101052Y-90995421D01*
X135731557Y-94625924D01*
X135765042Y-94687247D01*
X135760058Y-94756939D01*
X135718186Y-94812872D01*
X135663277Y-94836078D01*
X135633757Y-94840754D01*
X135431585Y-94906444D01*
X135242179Y-95002951D01*
X135070213Y-95127890D01*
X134919890Y-95278213D01*
X134794951Y-95450179D01*
X134698444Y-95639585D01*
X134632753Y-95841760D01*
X134599500Y-96051713D01*
X134599500Y-96514286D01*
X134615258Y-96613782D01*
X134632754Y-96724243D01*
X134683980Y-96881901D01*
X134698444Y-96926414D01*
X134794951Y-97115820D01*
X134919890Y-97287786D01*
X134919896Y-97287792D01*
X135070208Y-97438104D01*
X135148384Y-97494902D01*
X135191051Y-97550231D01*
X135199500Y-97595220D01*
X135199500Y-102082779D01*
X135179815Y-102149818D01*
X135148385Y-102183097D01*
X135070211Y-102239893D01*
X135070205Y-102239898D01*
X134919890Y-102390213D01*
X134794951Y-102562179D01*
X134698444Y-102751585D01*
X134632753Y-102953760D01*
X134599500Y-103163713D01*
X134599500Y-103626286D01*
X134627957Y-103805961D01*
X134632754Y-103836243D01*
X134682277Y-103988659D01*
X134698444Y-104038414D01*
X134794951Y-104227820D01*
X134919890Y-104399786D01*
X135070213Y-104550109D01*
X135242179Y-104675048D01*
X135242181Y-104675049D01*
X135242184Y-104675051D01*
X135431588Y-104771557D01*
X135633757Y-104837246D01*
X135843713Y-104870500D01*
X135843714Y-104870500D01*
X136056286Y-104870500D01*
X136056287Y-104870500D01*
X136266243Y-104837246D01*
X136468412Y-104771557D01*
X136657816Y-104675051D01*
X136719560Y-104630192D01*
X136829786Y-104550109D01*
X136829788Y-104550106D01*
X136829792Y-104550104D01*
X136980104Y-104399792D01*
X137099683Y-104235204D01*
X137155011Y-104192540D01*
X137224624Y-104186561D01*
X137286420Y-104219166D01*
X137300313Y-104235199D01*
X137419896Y-104399792D01*
X137570208Y-104550104D01*
X137648384Y-104606902D01*
X137691051Y-104662231D01*
X137699500Y-104707220D01*
X137699500Y-104995918D01*
X137699500Y-104995920D01*
X137699499Y-104995920D01*
X137728340Y-105140907D01*
X137728343Y-105140917D01*
X137784913Y-105277491D01*
X137786920Y-105280494D01*
X137786922Y-105280500D01*
X137786923Y-105280500D01*
X137867046Y-105400414D01*
X137867052Y-105400421D01*
X138234393Y-105767760D01*
X138355049Y-105888416D01*
X138434452Y-105967819D01*
X138467936Y-106029143D01*
X138462951Y-106098834D01*
X138421080Y-106154768D01*
X138355615Y-106179184D01*
X138346770Y-106179500D01*
X124923751Y-106179500D01*
X124916264Y-106179274D01*
X124626205Y-106161728D01*
X124611340Y-106159923D01*
X124329201Y-106108219D01*
X124314663Y-106104635D01*
X124040832Y-106019306D01*
X124026831Y-106013997D01*
X123765263Y-105896275D01*
X123752004Y-105889316D01*
X123506540Y-105740928D01*
X123494217Y-105732422D01*
X123268426Y-105555526D01*
X123257218Y-105545596D01*
X123054403Y-105342781D01*
X123044473Y-105331573D01*
X123002106Y-105277495D01*
X122867573Y-105105776D01*
X122859075Y-105093465D01*
X122710680Y-104847989D01*
X122703727Y-104834743D01*
X122586000Y-104573163D01*
X122580693Y-104559167D01*
X122577870Y-104550109D01*
X122495363Y-104285335D01*
X122491780Y-104270798D01*
X122452194Y-104054785D01*
X122440075Y-103988657D01*
X122438271Y-103973794D01*
X122420726Y-103683736D01*
X122420500Y-103676249D01*
X122420500Y-103554038D01*
X123319500Y-103554038D01*
X123319500Y-103805962D01*
X123324296Y-103836243D01*
X123358910Y-104054785D01*
X123436760Y-104294383D01*
X123551132Y-104518848D01*
X123699201Y-104722649D01*
X123699205Y-104722654D01*
X123877345Y-104900794D01*
X123877350Y-104900798D01*
X124008275Y-104995920D01*
X124081155Y-105048870D01*
X124224184Y-105121747D01*
X124305616Y-105163239D01*
X124305618Y-105163239D01*
X124305621Y-105163241D01*
X124545215Y-105241090D01*
X124794038Y-105280500D01*
X124794039Y-105280500D01*
X125045961Y-105280500D01*
X125045962Y-105280500D01*
X125294785Y-105241090D01*
X125534379Y-105163241D01*
X125758845Y-105048870D01*
X125962656Y-104900793D01*
X126140793Y-104722656D01*
X126288870Y-104518845D01*
X126403241Y-104294379D01*
X126481090Y-104054785D01*
X126520500Y-103805962D01*
X126520500Y-103554038D01*
X126481090Y-103305215D01*
X126403241Y-103065621D01*
X126403239Y-103065618D01*
X126403239Y-103065616D01*
X126346245Y-102953760D01*
X126288870Y-102841155D01*
X126221576Y-102748532D01*
X126140798Y-102637350D01*
X126140794Y-102637345D01*
X125962654Y-102459205D01*
X125962649Y-102459201D01*
X125758848Y-102311132D01*
X125758847Y-102311131D01*
X125758845Y-102311130D01*
X125688747Y-102275413D01*
X125534383Y-102196760D01*
X125294785Y-102118910D01*
X125272491Y-102115379D01*
X125045962Y-102079500D01*
X124794038Y-102079500D01*
X124669626Y-102099205D01*
X124545214Y-102118910D01*
X124305616Y-102196760D01*
X124081151Y-102311132D01*
X123877350Y-102459201D01*
X123877345Y-102459205D01*
X123699205Y-102637345D01*
X123699201Y-102637350D01*
X123551132Y-102841151D01*
X123436760Y-103065616D01*
X123358910Y-103305214D01*
X123354594Y-103332465D01*
X123319500Y-103554038D01*
X122420500Y-103554038D01*
X122420500Y-97025753D01*
X124674000Y-97025753D01*
X124674000Y-97032000D01*
X125590988Y-97032000D01*
X125558075Y-97089007D01*
X125524000Y-97216174D01*
X125524000Y-97347826D01*
X125558075Y-97474993D01*
X125590988Y-97532000D01*
X124674000Y-97532000D01*
X124674000Y-97538246D01*
X124707242Y-97748127D01*
X124707242Y-97748130D01*
X124772904Y-97950217D01*
X124869379Y-98139557D01*
X124994272Y-98311459D01*
X124994276Y-98311464D01*
X125144535Y-98461723D01*
X125144540Y-98461727D01*
X125316442Y-98586620D01*
X125505782Y-98683095D01*
X125707871Y-98748757D01*
X125774000Y-98759231D01*
X125774000Y-97715012D01*
X125831007Y-97747925D01*
X125958174Y-97782000D01*
X126089826Y-97782000D01*
X126216993Y-97747925D01*
X126274000Y-97715012D01*
X126274000Y-98759230D01*
X126340126Y-98748757D01*
X126340129Y-98748757D01*
X126542217Y-98683095D01*
X126731557Y-98586620D01*
X126903458Y-98461728D01*
X127042330Y-98322856D01*
X127103653Y-98289371D01*
X127173345Y-98294355D01*
X127229279Y-98336226D01*
X127235551Y-98345440D01*
X127239185Y-98351331D01*
X127239186Y-98351334D01*
X127331288Y-98500656D01*
X127455344Y-98624712D01*
X127604666Y-98716814D01*
X127771203Y-98771999D01*
X127873991Y-98782500D01*
X129174008Y-98782499D01*
X129276797Y-98771999D01*
X129443334Y-98716814D01*
X129592656Y-98624712D01*
X129716712Y-98500656D01*
X129808814Y-98351334D01*
X129863999Y-98184797D01*
X129874500Y-98082009D01*
X129874499Y-96481992D01*
X129872900Y-96466343D01*
X129863999Y-96379203D01*
X129863998Y-96379200D01*
X129857498Y-96359585D01*
X129808814Y-96212666D01*
X129716712Y-96063344D01*
X129592656Y-95939288D01*
X129444485Y-95847896D01*
X129443336Y-95847187D01*
X129443331Y-95847185D01*
X129426950Y-95841757D01*
X129276797Y-95792001D01*
X129276795Y-95792000D01*
X129174010Y-95781500D01*
X127873998Y-95781500D01*
X127873981Y-95781501D01*
X127771203Y-95792000D01*
X127771200Y-95792001D01*
X127604668Y-95847185D01*
X127604663Y-95847187D01*
X127455342Y-95939289D01*
X127331289Y-96063342D01*
X127235551Y-96218559D01*
X127183603Y-96265283D01*
X127114640Y-96276506D01*
X127050558Y-96248662D01*
X127042331Y-96241143D01*
X126903464Y-96102276D01*
X126903459Y-96102272D01*
X126731557Y-95977379D01*
X126542215Y-95880903D01*
X126340124Y-95815241D01*
X126274000Y-95804768D01*
X126274000Y-96848988D01*
X126216993Y-96816075D01*
X126089826Y-96782000D01*
X125958174Y-96782000D01*
X125831007Y-96816075D01*
X125774000Y-96848988D01*
X125774000Y-95804768D01*
X125773999Y-95804768D01*
X125707875Y-95815241D01*
X125505784Y-95880903D01*
X125316442Y-95977379D01*
X125144540Y-96102272D01*
X125144535Y-96102276D01*
X124994276Y-96252535D01*
X124994272Y-96252540D01*
X124869379Y-96424442D01*
X124772904Y-96613782D01*
X124707242Y-96815869D01*
X124707242Y-96815872D01*
X124674000Y-97025753D01*
X122420500Y-97025753D01*
X122420500Y-89913713D01*
X124673500Y-89913713D01*
X124673500Y-90426286D01*
X124706122Y-90632256D01*
X124706754Y-90636243D01*
X124739140Y-90735917D01*
X124772444Y-90838414D01*
X124868951Y-91027820D01*
X124993890Y-91199786D01*
X125144213Y-91350109D01*
X125316179Y-91475048D01*
X125316181Y-91475049D01*
X125316184Y-91475051D01*
X125505588Y-91571557D01*
X125707757Y-91637246D01*
X125917713Y-91670500D01*
X125917714Y-91670500D01*
X126130286Y-91670500D01*
X126130287Y-91670500D01*
X126340243Y-91637246D01*
X126542412Y-91571557D01*
X126731816Y-91475051D01*
X126903792Y-91350104D01*
X127042604Y-91211291D01*
X127103923Y-91177809D01*
X127173615Y-91182793D01*
X127229549Y-91224664D01*
X127235821Y-91233878D01*
X127239185Y-91239333D01*
X127239186Y-91239334D01*
X127331288Y-91388656D01*
X127455344Y-91512712D01*
X127604666Y-91604814D01*
X127771203Y-91659999D01*
X127873991Y-91670500D01*
X129174008Y-91670499D01*
X129276797Y-91659999D01*
X129443334Y-91604814D01*
X129592656Y-91512712D01*
X129716712Y-91388656D01*
X129808814Y-91239334D01*
X129863999Y-91072797D01*
X129874500Y-90970009D01*
X129874499Y-89369992D01*
X129871550Y-89341127D01*
X129863999Y-89267203D01*
X129863998Y-89267200D01*
X129829311Y-89162523D01*
X129808814Y-89100666D01*
X129716712Y-88951344D01*
X129592656Y-88827288D01*
X129443334Y-88735186D01*
X129276797Y-88680001D01*
X129276795Y-88680000D01*
X129174010Y-88669500D01*
X127873998Y-88669500D01*
X127873981Y-88669501D01*
X127771203Y-88680000D01*
X127771200Y-88680001D01*
X127604668Y-88735185D01*
X127604663Y-88735187D01*
X127455342Y-88827289D01*
X127331289Y-88951342D01*
X127235821Y-89106121D01*
X127183873Y-89152845D01*
X127114910Y-89164068D01*
X127050828Y-89136224D01*
X127042601Y-89128705D01*
X126903786Y-88989890D01*
X126731820Y-88864951D01*
X126542414Y-88768444D01*
X126542413Y-88768443D01*
X126542412Y-88768443D01*
X126340243Y-88702754D01*
X126340241Y-88702753D01*
X126340240Y-88702753D01*
X126178957Y-88677208D01*
X126130287Y-88669500D01*
X125917713Y-88669500D01*
X125869042Y-88677208D01*
X125707760Y-88702753D01*
X125505585Y-88768444D01*
X125316179Y-88864951D01*
X125144213Y-88989890D01*
X124993890Y-89140213D01*
X124868951Y-89312179D01*
X124772444Y-89501585D01*
X124772443Y-89501587D01*
X124772443Y-89501588D01*
X124742381Y-89594110D01*
X124706753Y-89703760D01*
X124673500Y-89913713D01*
X122420500Y-89913713D01*
X122420500Y-85867311D01*
X122440185Y-85800272D01*
X122492989Y-85754517D01*
X122562147Y-85744573D01*
X122625703Y-85773598D01*
X122632181Y-85779630D01*
X122655345Y-85802794D01*
X122655350Y-85802798D01*
X122833117Y-85931952D01*
X122859155Y-85950870D01*
X123002184Y-86023747D01*
X123083616Y-86065239D01*
X123083618Y-86065239D01*
X123083621Y-86065241D01*
X123323215Y-86143090D01*
X123572038Y-86182500D01*
X123572039Y-86182500D01*
X123823961Y-86182500D01*
X123823962Y-86182500D01*
X124072785Y-86143090D01*
X124312379Y-86065241D01*
X124536845Y-85950870D01*
X124740656Y-85802793D01*
X124918793Y-85624656D01*
X124936017Y-85600949D01*
X124979334Y-85541330D01*
X125049562Y-85444667D01*
X125066870Y-85420845D01*
X125181241Y-85196379D01*
X125259090Y-84956785D01*
X125298500Y-84707962D01*
X125298500Y-84479682D01*
X125700000Y-84479682D01*
X125700000Y-84684317D01*
X125732009Y-84886417D01*
X125795244Y-85081031D01*
X125888141Y-85263350D01*
X125888147Y-85263359D01*
X125920523Y-85307921D01*
X125920524Y-85307922D01*
X126600000Y-84628446D01*
X126600000Y-84634661D01*
X126627259Y-84736394D01*
X126679920Y-84827606D01*
X126754394Y-84902080D01*
X126845606Y-84954741D01*
X126947339Y-84982000D01*
X126953553Y-84982000D01*
X126274076Y-85661474D01*
X126318650Y-85693859D01*
X126500968Y-85786755D01*
X126695582Y-85849990D01*
X126897683Y-85882000D01*
X127102317Y-85882000D01*
X127304417Y-85849990D01*
X127499031Y-85786755D01*
X127681349Y-85693859D01*
X127725921Y-85661474D01*
X127046447Y-84982000D01*
X127052661Y-84982000D01*
X127154394Y-84954741D01*
X127245606Y-84902080D01*
X127320080Y-84827606D01*
X127372741Y-84736394D01*
X127400000Y-84634661D01*
X127400000Y-84628448D01*
X128079474Y-85307922D01*
X128079474Y-85307921D01*
X128111859Y-85263349D01*
X128204755Y-85081031D01*
X128267990Y-84886417D01*
X128300000Y-84684317D01*
X128300000Y-84479682D01*
X128299995Y-84479648D01*
X129001500Y-84479648D01*
X129001500Y-84684351D01*
X129033522Y-84886534D01*
X129096781Y-85081223D01*
X129155457Y-85196379D01*
X129189585Y-85263359D01*
X129189715Y-85263613D01*
X129310028Y-85429213D01*
X129454786Y-85573971D01*
X129575226Y-85661474D01*
X129620390Y-85694287D01*
X129719082Y-85744573D01*
X129802776Y-85787218D01*
X129802778Y-85787218D01*
X129802781Y-85787220D01*
X129907137Y-85821127D01*
X129997465Y-85850477D01*
X130098557Y-85866488D01*
X130199648Y-85882500D01*
X130199649Y-85882500D01*
X130404351Y-85882500D01*
X130404352Y-85882500D01*
X130606534Y-85850477D01*
X130801219Y-85787220D01*
X130983610Y-85694287D01*
X131112080Y-85600949D01*
X131149213Y-85573971D01*
X131149215Y-85573968D01*
X131149219Y-85573966D01*
X131293966Y-85429219D01*
X131293968Y-85429215D01*
X131293971Y-85429213D01*
X131346732Y-85356590D01*
X131414287Y-85263610D01*
X131507220Y-85081219D01*
X131570477Y-84886534D01*
X131602500Y-84684352D01*
X131602500Y-84479648D01*
X131570477Y-84277465D01*
X131522503Y-84129817D01*
X131507220Y-84082781D01*
X131507218Y-84082778D01*
X131507218Y-84082776D01*
X131453366Y-83977087D01*
X131414287Y-83900390D01*
X131382092Y-83856077D01*
X131293971Y-83734786D01*
X131149213Y-83590028D01*
X130983613Y-83469715D01*
X130983612Y-83469714D01*
X130983610Y-83469713D01*
X130926653Y-83440691D01*
X130801223Y-83376781D01*
X130606534Y-83313522D01*
X130431995Y-83285878D01*
X130404352Y-83281500D01*
X130199648Y-83281500D01*
X130175329Y-83285351D01*
X129997465Y-83313522D01*
X129802776Y-83376781D01*
X129620386Y-83469715D01*
X129454786Y-83590028D01*
X129310028Y-83734786D01*
X129189715Y-83900386D01*
X129096781Y-84082776D01*
X129033522Y-84277465D01*
X129001500Y-84479648D01*
X128299995Y-84479648D01*
X128267990Y-84277582D01*
X128204755Y-84082968D01*
X128111859Y-83900650D01*
X128079474Y-83856077D01*
X128079474Y-83856076D01*
X127400000Y-84535551D01*
X127400000Y-84529339D01*
X127372741Y-84427606D01*
X127320080Y-84336394D01*
X127245606Y-84261920D01*
X127154394Y-84209259D01*
X127052661Y-84182000D01*
X127046446Y-84182000D01*
X127725922Y-83502524D01*
X127725921Y-83502523D01*
X127681359Y-83470147D01*
X127681350Y-83470141D01*
X127499031Y-83377244D01*
X127304417Y-83314009D01*
X127102317Y-83282000D01*
X126897683Y-83282000D01*
X126695582Y-83314009D01*
X126500968Y-83377244D01*
X126318644Y-83470143D01*
X126274077Y-83502523D01*
X126274077Y-83502524D01*
X126953554Y-84182000D01*
X126947339Y-84182000D01*
X126845606Y-84209259D01*
X126754394Y-84261920D01*
X126679920Y-84336394D01*
X126627259Y-84427606D01*
X126600000Y-84529339D01*
X126600000Y-84535553D01*
X125920524Y-83856077D01*
X125920523Y-83856077D01*
X125888143Y-83900644D01*
X125795244Y-84082968D01*
X125732009Y-84277582D01*
X125700000Y-84479682D01*
X125298500Y-84479682D01*
X125298500Y-84456038D01*
X125259090Y-84207215D01*
X125181241Y-83967621D01*
X125181239Y-83967618D01*
X125181239Y-83967616D01*
X125131501Y-83870000D01*
X125066870Y-83743155D01*
X125046313Y-83714860D01*
X124979332Y-83622668D01*
X124918798Y-83539350D01*
X124918794Y-83539345D01*
X124740654Y-83361205D01*
X124740649Y-83361201D01*
X124536848Y-83213132D01*
X124536847Y-83213131D01*
X124536845Y-83213130D01*
X124466747Y-83177413D01*
X124312383Y-83098760D01*
X124072785Y-83020910D01*
X123823962Y-82981500D01*
X123572038Y-82981500D01*
X123447626Y-83001205D01*
X123323214Y-83020910D01*
X123083616Y-83098760D01*
X122859151Y-83213132D01*
X122655350Y-83361201D01*
X122655345Y-83361205D01*
X122632181Y-83384370D01*
X122570858Y-83417855D01*
X122501166Y-83412871D01*
X122445233Y-83370999D01*
X122420816Y-83305535D01*
X122420500Y-83296689D01*
X122420500Y-76092691D01*
X122440185Y-76025652D01*
X122492989Y-75979897D01*
X122562147Y-75969953D01*
X122583494Y-75974982D01*
X122695202Y-76011999D01*
X122797990Y-76022500D01*
X122797995Y-76022500D01*
X124598005Y-76022500D01*
X124598010Y-76022500D01*
X124700798Y-76011999D01*
X124867335Y-75956814D01*
X125016656Y-75864712D01*
X125140712Y-75740656D01*
X125232814Y-75591335D01*
X125287999Y-75424798D01*
X125298500Y-75322010D01*
X125298500Y-73521990D01*
X125287999Y-73419202D01*
X125232814Y-73252665D01*
X125140712Y-73103344D01*
X125016656Y-72979288D01*
X124889814Y-72901051D01*
X124867337Y-72887187D01*
X124867332Y-72887185D01*
X124819744Y-72871416D01*
X124700798Y-72832001D01*
X124700796Y-72832000D01*
X124598017Y-72821500D01*
X124598010Y-72821500D01*
X124572500Y-72821500D01*
X124505461Y-72801815D01*
X124459706Y-72749011D01*
X124448500Y-72697500D01*
X124448500Y-70649228D01*
X124468185Y-70582189D01*
X124484815Y-70561551D01*
X125129548Y-69916817D01*
X125190871Y-69883333D01*
X125217229Y-69880499D01*
X126005002Y-69880499D01*
X126005008Y-69880499D01*
X126107797Y-69869999D01*
X126274334Y-69814814D01*
X126423656Y-69722712D01*
X126547712Y-69598656D01*
X126639814Y-69449334D01*
X126694999Y-69282797D01*
X126705500Y-69180009D01*
X126705499Y-68477682D01*
X127605000Y-68477682D01*
X127605000Y-68682317D01*
X127637009Y-68884417D01*
X127700244Y-69079031D01*
X127793141Y-69261350D01*
X127793147Y-69261359D01*
X127825523Y-69305921D01*
X127825524Y-69305922D01*
X128505000Y-68626446D01*
X128505000Y-68632661D01*
X128532259Y-68734394D01*
X128584920Y-68825606D01*
X128659394Y-68900080D01*
X128750606Y-68952741D01*
X128852339Y-68980000D01*
X128858553Y-68980000D01*
X128179076Y-69659474D01*
X128223650Y-69691859D01*
X128405968Y-69784755D01*
X128600582Y-69847990D01*
X128802683Y-69880000D01*
X129007317Y-69880000D01*
X129209417Y-69847990D01*
X129404031Y-69784755D01*
X129586349Y-69691859D01*
X129630921Y-69659474D01*
X128951447Y-68980000D01*
X128957661Y-68980000D01*
X129059394Y-68952741D01*
X129150606Y-68900080D01*
X129225080Y-68825606D01*
X129277741Y-68734394D01*
X129305000Y-68632661D01*
X129305000Y-68626448D01*
X129984474Y-69305922D01*
X129984474Y-69305921D01*
X130016859Y-69261349D01*
X130109755Y-69079031D01*
X130172990Y-68884417D01*
X130205000Y-68682317D01*
X130205000Y-68477682D01*
X130172990Y-68275582D01*
X130109755Y-68080968D01*
X130016859Y-67898650D01*
X129984474Y-67854077D01*
X129984474Y-67854076D01*
X129305000Y-68533551D01*
X129305000Y-68527339D01*
X129277741Y-68425606D01*
X129225080Y-68334394D01*
X129150606Y-68259920D01*
X129059394Y-68207259D01*
X128957661Y-68180000D01*
X128951446Y-68180000D01*
X129630922Y-67500524D01*
X129630921Y-67500523D01*
X129586359Y-67468147D01*
X129586350Y-67468141D01*
X129404031Y-67375244D01*
X129209417Y-67312009D01*
X129007317Y-67280000D01*
X128802683Y-67280000D01*
X128600582Y-67312009D01*
X128405968Y-67375244D01*
X128223644Y-67468143D01*
X128179077Y-67500523D01*
X128179077Y-67500524D01*
X128858554Y-68180000D01*
X128852339Y-68180000D01*
X128750606Y-68207259D01*
X128659394Y-68259920D01*
X128584920Y-68334394D01*
X128532259Y-68425606D01*
X128505000Y-68527339D01*
X128505000Y-68533553D01*
X127825524Y-67854077D01*
X127825523Y-67854077D01*
X127793143Y-67898644D01*
X127700244Y-68080968D01*
X127637009Y-68275582D01*
X127605000Y-68477682D01*
X126705499Y-68477682D01*
X126705499Y-67979992D01*
X126704432Y-67969546D01*
X126717198Y-67900853D01*
X126740105Y-67869261D01*
X132532577Y-62076789D01*
X132593898Y-62043306D01*
X132663590Y-62048290D01*
G37*
%TD.AperFunction*%
%TA.AperFunction,Conductor*%
G36*
X168078733Y-77922943D02*
G01*
X168082874Y-77922442D01*
X168110829Y-77935968D01*
X168139610Y-77947648D01*
X168142013Y-77951057D01*
X168145768Y-77952874D01*
X168161973Y-77979368D01*
X168179870Y-78004753D01*
X168180750Y-78010067D01*
X168182225Y-78012478D01*
X168182097Y-78018194D01*
X168186500Y-78044757D01*
X168186500Y-84700770D01*
X168166815Y-84767809D01*
X168150181Y-84788451D01*
X167961452Y-84977181D01*
X167900129Y-85010666D01*
X167873771Y-85013500D01*
X166485982Y-85013500D01*
X166383203Y-85024000D01*
X166383202Y-85024001D01*
X166300669Y-85051349D01*
X166216667Y-85079185D01*
X166216662Y-85079187D01*
X166067342Y-85171289D01*
X165943289Y-85295342D01*
X165851187Y-85444662D01*
X165851185Y-85444667D01*
X165818434Y-85543504D01*
X165778661Y-85600949D01*
X165714145Y-85627772D01*
X165700728Y-85628500D01*
X160237080Y-85628500D01*
X160092092Y-85657340D01*
X160092082Y-85657343D01*
X159955511Y-85713912D01*
X159955498Y-85713919D01*
X159832584Y-85796048D01*
X159832580Y-85796051D01*
X159335450Y-86293181D01*
X159274127Y-86326666D01*
X159247769Y-86329500D01*
X158459998Y-86329500D01*
X158459980Y-86329501D01*
X158357203Y-86340000D01*
X158357200Y-86340001D01*
X158190668Y-86395185D01*
X158190663Y-86395187D01*
X158041342Y-86487289D01*
X157917289Y-86611342D01*
X157825187Y-86760663D01*
X157825186Y-86760666D01*
X157770001Y-86927203D01*
X157770001Y-86927204D01*
X157770000Y-86927204D01*
X157759500Y-87029983D01*
X157759500Y-88230001D01*
X157759501Y-88230018D01*
X157770000Y-88332796D01*
X157770001Y-88332799D01*
X157800554Y-88425000D01*
X157825186Y-88499334D01*
X157917288Y-88648656D01*
X158041344Y-88772712D01*
X158190666Y-88864814D01*
X158224500Y-88876025D01*
X158281947Y-88915796D01*
X158308772Y-88980311D01*
X158309500Y-88993732D01*
X158309500Y-89537918D01*
X158309500Y-89537920D01*
X158309499Y-89537920D01*
X158338340Y-89682907D01*
X158338342Y-89682913D01*
X158394916Y-89819495D01*
X158394916Y-89819497D01*
X158397686Y-89823640D01*
X158397691Y-89823657D01*
X158397696Y-89823655D01*
X158451686Y-89904459D01*
X158477051Y-89942420D01*
X158477052Y-89942421D01*
X163883975Y-95349342D01*
X163917460Y-95410665D01*
X163912476Y-95480357D01*
X163870604Y-95536290D01*
X163815702Y-95559495D01*
X163807758Y-95560753D01*
X163605585Y-95626444D01*
X163416179Y-95722951D01*
X163244213Y-95847890D01*
X163093890Y-95998213D01*
X162968951Y-96170179D01*
X162872444Y-96359585D01*
X162806753Y-96561760D01*
X162780799Y-96725630D01*
X162773500Y-96771713D01*
X162773500Y-97284287D01*
X162780318Y-97327334D01*
X162803968Y-97476657D01*
X162806754Y-97494243D01*
X162871273Y-97692812D01*
X162872444Y-97696414D01*
X162968951Y-97885820D01*
X163093890Y-98057786D01*
X163244213Y-98208109D01*
X163416179Y-98333048D01*
X163416181Y-98333049D01*
X163416184Y-98333051D01*
X163605588Y-98429557D01*
X163807757Y-98495246D01*
X164017713Y-98528500D01*
X164017714Y-98528500D01*
X164230286Y-98528500D01*
X164230287Y-98528500D01*
X164440243Y-98495246D01*
X164440257Y-98495241D01*
X164444982Y-98494108D01*
X164445591Y-98496646D01*
X164504559Y-98494514D01*
X164561628Y-98526995D01*
X165117580Y-99082948D01*
X165117584Y-99082951D01*
X165240498Y-99165080D01*
X165240511Y-99165087D01*
X165377082Y-99221656D01*
X165377087Y-99221658D01*
X165377091Y-99221658D01*
X165377092Y-99221659D01*
X165522079Y-99250500D01*
X165522082Y-99250500D01*
X168073920Y-99250500D01*
X168171462Y-99231096D01*
X168218913Y-99221658D01*
X168355495Y-99165084D01*
X168404729Y-99132186D01*
X168478416Y-99082952D01*
X169082952Y-98478416D01*
X169154916Y-98370712D01*
X169165084Y-98355495D01*
X169221658Y-98218913D01*
X169237443Y-98139557D01*
X169250500Y-98073920D01*
X169250500Y-93496081D01*
X169244763Y-93467242D01*
X169244763Y-93467240D01*
X169221660Y-93351095D01*
X169221659Y-93351088D01*
X169167408Y-93220117D01*
X169165764Y-93215522D01*
X169082954Y-93091588D01*
X169082953Y-93091587D01*
X169082951Y-93091584D01*
X168978416Y-92987049D01*
X163886473Y-87895106D01*
X163852988Y-87833783D01*
X163851681Y-87788028D01*
X163860500Y-87732352D01*
X163860500Y-87527648D01*
X163828477Y-87325466D01*
X163828475Y-87325462D01*
X163828475Y-87325457D01*
X163817545Y-87291817D01*
X163815550Y-87221976D01*
X163851631Y-87162144D01*
X163914332Y-87131316D01*
X163935476Y-87129500D01*
X165661500Y-87129500D01*
X165728539Y-87149185D01*
X165774294Y-87201989D01*
X165785500Y-87253500D01*
X165785500Y-87514017D01*
X165796000Y-87616796D01*
X165851185Y-87783332D01*
X165851187Y-87783337D01*
X165859278Y-87796454D01*
X165943288Y-87932656D01*
X166067344Y-88056712D01*
X166216665Y-88148814D01*
X166383202Y-88203999D01*
X166485990Y-88214500D01*
X166485995Y-88214500D01*
X168286005Y-88214500D01*
X168286010Y-88214500D01*
X168388798Y-88203999D01*
X168555335Y-88148814D01*
X168704656Y-88056712D01*
X168828712Y-87932656D01*
X168920814Y-87783335D01*
X168975999Y-87616798D01*
X168986500Y-87514010D01*
X168986500Y-86126229D01*
X169006185Y-86059190D01*
X169022819Y-86038548D01*
X169467819Y-85593548D01*
X169529142Y-85560063D01*
X169598834Y-85565047D01*
X169654767Y-85606919D01*
X169679184Y-85672383D01*
X169679500Y-85681229D01*
X169679500Y-103676249D01*
X169679274Y-103683736D01*
X169661728Y-103973794D01*
X169659923Y-103988659D01*
X169608219Y-104270798D01*
X169604635Y-104285336D01*
X169519306Y-104559167D01*
X169513997Y-104573168D01*
X169396275Y-104834736D01*
X169389316Y-104847995D01*
X169240928Y-105093459D01*
X169232422Y-105105782D01*
X169055526Y-105331573D01*
X169045596Y-105342781D01*
X168842781Y-105545596D01*
X168831573Y-105555526D01*
X168605782Y-105732422D01*
X168593459Y-105740928D01*
X168347995Y-105889316D01*
X168334736Y-105896275D01*
X168073168Y-106013997D01*
X168059167Y-106019306D01*
X167785336Y-106104635D01*
X167770798Y-106108219D01*
X167488659Y-106159923D01*
X167473794Y-106161728D01*
X167183736Y-106179274D01*
X167176249Y-106179500D01*
X151721231Y-106179500D01*
X151654192Y-106159815D01*
X151608437Y-106107011D01*
X151598493Y-106037853D01*
X151627518Y-105974297D01*
X151633550Y-105967819D01*
X152748948Y-104852419D01*
X152748947Y-104852419D01*
X152748951Y-104852416D01*
X152831084Y-104729495D01*
X152831561Y-104728342D01*
X152831991Y-104727796D01*
X152833957Y-104724120D01*
X152834613Y-104724470D01*
X152873242Y-104675467D01*
X152873811Y-104675053D01*
X152873816Y-104675051D01*
X153045792Y-104550104D01*
X153196104Y-104399792D01*
X153315991Y-104234779D01*
X153371320Y-104192115D01*
X153440933Y-104186136D01*
X153502729Y-104218741D01*
X153516627Y-104234781D01*
X153636272Y-104399459D01*
X153636276Y-104399464D01*
X153786535Y-104549723D01*
X153786540Y-104549727D01*
X153958442Y-104674620D01*
X154147782Y-104771095D01*
X154349871Y-104836757D01*
X154416000Y-104847231D01*
X154416000Y-103799145D01*
X154482657Y-103837630D01*
X154603465Y-103870000D01*
X154728535Y-103870000D01*
X154849343Y-103837630D01*
X154916000Y-103799145D01*
X154916000Y-104847230D01*
X154982126Y-104836757D01*
X154982129Y-104836757D01*
X155184217Y-104771095D01*
X155373557Y-104674620D01*
X155545458Y-104549728D01*
X155684330Y-104410856D01*
X155745653Y-104377371D01*
X155815345Y-104382355D01*
X155871279Y-104424226D01*
X155877551Y-104433440D01*
X155881185Y-104439331D01*
X155881186Y-104439334D01*
X155973288Y-104588656D01*
X156097344Y-104712712D01*
X156246666Y-104804814D01*
X156413203Y-104859999D01*
X156515991Y-104870500D01*
X157816008Y-104870499D01*
X157918797Y-104859999D01*
X158085334Y-104804814D01*
X158234656Y-104712712D01*
X158358712Y-104588656D01*
X158450814Y-104439334D01*
X158505999Y-104272797D01*
X158516500Y-104170009D01*
X158516499Y-103554038D01*
X165579500Y-103554038D01*
X165579500Y-103805962D01*
X165584296Y-103836243D01*
X165618910Y-104054785D01*
X165696760Y-104294383D01*
X165811132Y-104518848D01*
X165959201Y-104722649D01*
X165959205Y-104722654D01*
X166137345Y-104900794D01*
X166137350Y-104900798D01*
X166268275Y-104995920D01*
X166341155Y-105048870D01*
X166484184Y-105121747D01*
X166565616Y-105163239D01*
X166565618Y-105163239D01*
X166565621Y-105163241D01*
X166805215Y-105241090D01*
X167054038Y-105280500D01*
X167054039Y-105280500D01*
X167305961Y-105280500D01*
X167305962Y-105280500D01*
X167554785Y-105241090D01*
X167794379Y-105163241D01*
X168018845Y-105048870D01*
X168222656Y-104900793D01*
X168400793Y-104722656D01*
X168548870Y-104518845D01*
X168663241Y-104294379D01*
X168741090Y-104054785D01*
X168780500Y-103805962D01*
X168780500Y-103554038D01*
X168741090Y-103305215D01*
X168663241Y-103065621D01*
X168663239Y-103065618D01*
X168663239Y-103065616D01*
X168606245Y-102953760D01*
X168548870Y-102841155D01*
X168481576Y-102748532D01*
X168400798Y-102637350D01*
X168400794Y-102637345D01*
X168222654Y-102459205D01*
X168222649Y-102459201D01*
X168018848Y-102311132D01*
X168018847Y-102311131D01*
X168018845Y-102311130D01*
X167948747Y-102275413D01*
X167794383Y-102196760D01*
X167554785Y-102118910D01*
X167532491Y-102115379D01*
X167305962Y-102079500D01*
X167054038Y-102079500D01*
X166929626Y-102099205D01*
X166805214Y-102118910D01*
X166565616Y-102196760D01*
X166341151Y-102311132D01*
X166137350Y-102459201D01*
X166137345Y-102459205D01*
X165959205Y-102637345D01*
X165959201Y-102637350D01*
X165811132Y-102841151D01*
X165696760Y-103065616D01*
X165618910Y-103305214D01*
X165614594Y-103332465D01*
X165579500Y-103554038D01*
X158516499Y-103554038D01*
X158516499Y-103157229D01*
X158536184Y-103090191D01*
X158552818Y-103069549D01*
X158781216Y-102841151D01*
X159049952Y-102572416D01*
X159099186Y-102498729D01*
X159132084Y-102449495D01*
X159188658Y-102312913D01*
X159210851Y-102201344D01*
X159217500Y-102167920D01*
X159217500Y-95186787D01*
X159188659Y-95041800D01*
X159188658Y-95041799D01*
X159188658Y-95041795D01*
X159172746Y-95003379D01*
X159132087Y-94905219D01*
X159132080Y-94905206D01*
X159049952Y-94782293D01*
X159018198Y-94750539D01*
X158945416Y-94677757D01*
X158112207Y-93844548D01*
X154289713Y-90022052D01*
X154289706Y-90022046D01*
X154216021Y-89972812D01*
X154216021Y-89972813D01*
X154166783Y-89939913D01*
X154073966Y-89901468D01*
X154019562Y-89857627D01*
X153997497Y-89791333D01*
X154003487Y-89748588D01*
X154070734Y-89541628D01*
X154092532Y-89404000D01*
X153144748Y-89404000D01*
X153166518Y-89366292D01*
X153204000Y-89226409D01*
X153204000Y-89081591D01*
X153166518Y-88941708D01*
X153144748Y-88904000D01*
X154092532Y-88904000D01*
X154070734Y-88766371D01*
X154000082Y-88548929D01*
X153896288Y-88345223D01*
X153761902Y-88160257D01*
X153600242Y-87998597D01*
X153415276Y-87864211D01*
X153211568Y-87760417D01*
X152994124Y-87689765D01*
X152928441Y-87679362D01*
X152865306Y-87649433D01*
X152828375Y-87590121D01*
X152829373Y-87520259D01*
X152860156Y-87469211D01*
X156961549Y-83367819D01*
X157022872Y-83334334D01*
X157049230Y-83331500D01*
X161912770Y-83331500D01*
X161979809Y-83351185D01*
X162000451Y-83367819D01*
X162423049Y-83790416D01*
X162486795Y-83854162D01*
X162527585Y-83894952D01*
X162650498Y-83977080D01*
X162650511Y-83977087D01*
X162787082Y-84033656D01*
X162787087Y-84033658D01*
X162883882Y-84052911D01*
X162913456Y-84063494D01*
X162913508Y-84063371D01*
X162916017Y-84064410D01*
X162918140Y-84065170D01*
X162919134Y-84065701D01*
X162919137Y-84065703D01*
X163073918Y-84129816D01*
X163238228Y-84162499D01*
X163238232Y-84162500D01*
X163238233Y-84162500D01*
X163405768Y-84162500D01*
X163405769Y-84162499D01*
X163570082Y-84129816D01*
X163724863Y-84065703D01*
X163864162Y-83972626D01*
X163982626Y-83854162D01*
X164075703Y-83714863D01*
X164139816Y-83560082D01*
X164172500Y-83395767D01*
X164172500Y-83228233D01*
X164139816Y-83063918D01*
X164075703Y-82909137D01*
X164044537Y-82862494D01*
X163982626Y-82769837D01*
X163864162Y-82651373D01*
X163724860Y-82558295D01*
X163637660Y-82522176D01*
X163583257Y-82478335D01*
X163561192Y-82412041D01*
X163578471Y-82344341D01*
X163597428Y-82319938D01*
X167949330Y-77968036D01*
X167955429Y-77963901D01*
X167957911Y-77960223D01*
X167973516Y-77951639D01*
X167988019Y-77941807D01*
X167993251Y-77939556D01*
X168000379Y-77937241D01*
X168009809Y-77932435D01*
X168013511Y-77930844D01*
X168044345Y-77927109D01*
X168074868Y-77921375D01*
X168078733Y-77922943D01*
G37*
%TD.AperFunction*%
%TA.AperFunction,Conductor*%
G36*
X145694389Y-91189491D02*
G01*
X145815005Y-91270084D01*
X145815007Y-91270085D01*
X145815011Y-91270087D01*
X145951582Y-91326656D01*
X145951587Y-91326658D01*
X145951591Y-91326658D01*
X145951592Y-91326659D01*
X146096579Y-91355500D01*
X146096582Y-91355500D01*
X153449062Y-91355500D01*
X153516101Y-91375185D01*
X153536743Y-91391819D01*
X156740744Y-94595819D01*
X156774229Y-94657142D01*
X156769245Y-94726834D01*
X156727373Y-94782767D01*
X156661909Y-94807184D01*
X156653064Y-94807500D01*
X156515999Y-94807500D01*
X156515980Y-94807501D01*
X156413203Y-94818000D01*
X156413200Y-94818001D01*
X156246668Y-94873185D01*
X156246663Y-94873187D01*
X156097342Y-94965289D01*
X155973289Y-95089342D01*
X155877551Y-95244559D01*
X155825603Y-95291283D01*
X155756640Y-95302506D01*
X155692558Y-95274662D01*
X155684331Y-95267143D01*
X155545464Y-95128276D01*
X155545459Y-95128272D01*
X155373557Y-95003379D01*
X155184215Y-94906903D01*
X154982124Y-94841241D01*
X154916000Y-94830768D01*
X154916000Y-95878854D01*
X154849343Y-95840370D01*
X154728535Y-95808000D01*
X154603465Y-95808000D01*
X154482657Y-95840370D01*
X154416000Y-95878854D01*
X154416000Y-94830768D01*
X154415999Y-94830768D01*
X154349875Y-94841241D01*
X154147784Y-94906903D01*
X153958442Y-95003379D01*
X153786540Y-95128272D01*
X153786535Y-95128276D01*
X153636276Y-95278535D01*
X153636272Y-95278540D01*
X153516627Y-95443218D01*
X153461297Y-95485884D01*
X153391684Y-95491863D01*
X153329889Y-95459257D01*
X153315991Y-95443218D01*
X153196109Y-95278214D01*
X153196105Y-95278209D01*
X153045786Y-95127890D01*
X152873820Y-95002951D01*
X152684414Y-94906444D01*
X152684413Y-94906443D01*
X152684412Y-94906443D01*
X152482243Y-94840754D01*
X152482241Y-94840753D01*
X152482240Y-94840753D01*
X152306204Y-94812872D01*
X152272287Y-94807500D01*
X152059713Y-94807500D01*
X152025796Y-94812872D01*
X151849760Y-94840753D01*
X151647585Y-94906444D01*
X151458179Y-95002951D01*
X151286213Y-95127890D01*
X151135894Y-95278209D01*
X151135890Y-95278214D01*
X151016318Y-95442793D01*
X150960989Y-95485459D01*
X150891375Y-95491438D01*
X150829580Y-95458833D01*
X150815682Y-95442793D01*
X150696109Y-95278214D01*
X150696105Y-95278209D01*
X150545786Y-95127890D01*
X150373820Y-95002951D01*
X150184414Y-94906444D01*
X150184413Y-94906443D01*
X150184412Y-94906443D01*
X149982243Y-94840754D01*
X149982241Y-94840753D01*
X149982240Y-94840753D01*
X149806204Y-94812872D01*
X149772287Y-94807500D01*
X149559713Y-94807500D01*
X149525796Y-94812872D01*
X149349760Y-94840753D01*
X149147585Y-94906444D01*
X148958179Y-95002951D01*
X148786213Y-95127890D01*
X148635890Y-95278213D01*
X148510951Y-95450179D01*
X148414444Y-95639585D01*
X148348753Y-95841760D01*
X148315500Y-96051713D01*
X148315500Y-96514286D01*
X148331258Y-96613782D01*
X148348754Y-96724243D01*
X148399980Y-96881901D01*
X148414444Y-96926414D01*
X148510951Y-97115820D01*
X148635890Y-97287786D01*
X148635896Y-97287792D01*
X148786208Y-97438104D01*
X148864384Y-97494902D01*
X148907051Y-97550231D01*
X148915500Y-97595220D01*
X148915500Y-102082779D01*
X148895815Y-102149818D01*
X148864385Y-102183097D01*
X148786211Y-102239893D01*
X148786205Y-102239898D01*
X148635890Y-102390213D01*
X148510951Y-102562179D01*
X148414444Y-102751585D01*
X148348753Y-102953760D01*
X148315500Y-103163713D01*
X148315500Y-103626286D01*
X148343957Y-103805961D01*
X148348754Y-103836243D01*
X148398277Y-103988659D01*
X148414444Y-104038414D01*
X148510951Y-104227820D01*
X148635890Y-104399786D01*
X148683923Y-104447819D01*
X148717408Y-104509142D01*
X148712424Y-104578834D01*
X148670552Y-104634767D01*
X148605088Y-104659184D01*
X148596242Y-104659500D01*
X144821189Y-104659500D01*
X144754150Y-104639815D01*
X144708395Y-104587011D01*
X144698451Y-104517853D01*
X144715649Y-104470405D01*
X144734814Y-104439334D01*
X144789999Y-104272797D01*
X144800500Y-104170009D01*
X144800499Y-103157229D01*
X144820183Y-103090191D01*
X144836818Y-103069549D01*
X145065216Y-102841151D01*
X145333952Y-102572416D01*
X145383186Y-102498729D01*
X145416084Y-102449495D01*
X145472658Y-102312913D01*
X145494851Y-102201344D01*
X145501500Y-102167920D01*
X145501500Y-91292594D01*
X145521185Y-91225555D01*
X145573989Y-91179800D01*
X145643147Y-91169856D01*
X145694389Y-91189491D01*
G37*
%TD.AperFunction*%
%TA.AperFunction,Conductor*%
G36*
X141200000Y-97735230D02*
G01*
X141266126Y-97724757D01*
X141266129Y-97724757D01*
X141468217Y-97659095D01*
X141657557Y-97562620D01*
X141829458Y-97437728D01*
X141968330Y-97298856D01*
X142029653Y-97265371D01*
X142099345Y-97270355D01*
X142155279Y-97312226D01*
X142161551Y-97321440D01*
X142165185Y-97327332D01*
X142165186Y-97327334D01*
X142257288Y-97476656D01*
X142381344Y-97600712D01*
X142530666Y-97692814D01*
X142697203Y-97747999D01*
X142799991Y-97758500D01*
X143876500Y-97758499D01*
X143943539Y-97778183D01*
X143989294Y-97830987D01*
X144000500Y-97882499D01*
X144000500Y-101731768D01*
X143991855Y-101761208D01*
X143985332Y-101791195D01*
X143981577Y-101796210D01*
X143980815Y-101798807D01*
X143964181Y-101819449D01*
X143900449Y-101883181D01*
X143839126Y-101916666D01*
X143812768Y-101919500D01*
X142799998Y-101919500D01*
X142799980Y-101919501D01*
X142697203Y-101930000D01*
X142697200Y-101930001D01*
X142530668Y-101985185D01*
X142530663Y-101985187D01*
X142381342Y-102077289D01*
X142257289Y-102201342D01*
X142161551Y-102356559D01*
X142109603Y-102403283D01*
X142040640Y-102414506D01*
X141976558Y-102386662D01*
X141968331Y-102379143D01*
X141829464Y-102240276D01*
X141829459Y-102240272D01*
X141657557Y-102115379D01*
X141468215Y-102018903D01*
X141266124Y-101953241D01*
X141200000Y-101942768D01*
X141200000Y-102990854D01*
X141133343Y-102952370D01*
X141012535Y-102920000D01*
X140887465Y-102920000D01*
X140766657Y-102952370D01*
X140700000Y-102990854D01*
X140700000Y-101942768D01*
X140699999Y-101942768D01*
X140633875Y-101953241D01*
X140431784Y-102018903D01*
X140242442Y-102115379D01*
X140070540Y-102240272D01*
X140070535Y-102240276D01*
X139920276Y-102390535D01*
X139920272Y-102390540D01*
X139800627Y-102555218D01*
X139745297Y-102597884D01*
X139675684Y-102603863D01*
X139613889Y-102571257D01*
X139599991Y-102555218D01*
X139480109Y-102390214D01*
X139480105Y-102390209D01*
X139329794Y-102239898D01*
X139329788Y-102239893D01*
X139251615Y-102183097D01*
X139208949Y-102127767D01*
X139200500Y-102082779D01*
X139200500Y-97595220D01*
X139220185Y-97528181D01*
X139251614Y-97494902D01*
X139329792Y-97438104D01*
X139480104Y-97287792D01*
X139599991Y-97122779D01*
X139655320Y-97080115D01*
X139724933Y-97074136D01*
X139786729Y-97106741D01*
X139800627Y-97122781D01*
X139920272Y-97287459D01*
X139920276Y-97287464D01*
X140070535Y-97437723D01*
X140070540Y-97437727D01*
X140242442Y-97562620D01*
X140431782Y-97659095D01*
X140633871Y-97724757D01*
X140700000Y-97735231D01*
X140700000Y-96687145D01*
X140766657Y-96725630D01*
X140887465Y-96758000D01*
X141012535Y-96758000D01*
X141133343Y-96725630D01*
X141200000Y-96687145D01*
X141200000Y-97735230D01*
G37*
%TD.AperFunction*%
%TA.AperFunction,Conductor*%
G36*
X154916000Y-97735230D02*
G01*
X154982126Y-97724757D01*
X154982129Y-97724757D01*
X155184217Y-97659095D01*
X155373557Y-97562620D01*
X155545458Y-97437728D01*
X155684330Y-97298856D01*
X155745653Y-97265371D01*
X155815345Y-97270355D01*
X155871279Y-97312226D01*
X155877551Y-97321440D01*
X155881185Y-97327332D01*
X155881186Y-97327334D01*
X155973288Y-97476656D01*
X156097344Y-97600712D01*
X156246666Y-97692814D01*
X156413203Y-97747999D01*
X156515991Y-97758500D01*
X157592500Y-97758499D01*
X157659539Y-97778183D01*
X157705294Y-97830987D01*
X157716500Y-97882499D01*
X157716500Y-101731768D01*
X157707855Y-101761208D01*
X157701332Y-101791195D01*
X157697577Y-101796210D01*
X157696815Y-101798807D01*
X157680181Y-101819449D01*
X157616449Y-101883181D01*
X157555126Y-101916666D01*
X157528768Y-101919500D01*
X156515998Y-101919500D01*
X156515980Y-101919501D01*
X156413203Y-101930000D01*
X156413200Y-101930001D01*
X156246668Y-101985185D01*
X156246663Y-101985187D01*
X156097342Y-102077289D01*
X155973289Y-102201342D01*
X155877551Y-102356559D01*
X155825603Y-102403283D01*
X155756640Y-102414506D01*
X155692558Y-102386662D01*
X155684331Y-102379143D01*
X155545464Y-102240276D01*
X155545459Y-102240272D01*
X155373557Y-102115379D01*
X155184215Y-102018903D01*
X154982124Y-101953241D01*
X154916000Y-101942768D01*
X154916000Y-102990854D01*
X154849343Y-102952370D01*
X154728535Y-102920000D01*
X154603465Y-102920000D01*
X154482657Y-102952370D01*
X154416000Y-102990854D01*
X154416000Y-101942768D01*
X154415999Y-101942768D01*
X154349875Y-101953241D01*
X154147784Y-102018903D01*
X153958442Y-102115379D01*
X153786540Y-102240272D01*
X153786535Y-102240276D01*
X153636276Y-102390535D01*
X153636272Y-102390540D01*
X153516627Y-102555218D01*
X153461297Y-102597884D01*
X153391684Y-102603863D01*
X153329889Y-102571257D01*
X153315991Y-102555218D01*
X153196109Y-102390214D01*
X153196105Y-102390209D01*
X153045794Y-102239898D01*
X153045788Y-102239893D01*
X152967615Y-102183097D01*
X152924949Y-102127767D01*
X152916500Y-102082779D01*
X152916500Y-97595220D01*
X152936185Y-97528181D01*
X152967614Y-97494902D01*
X153045792Y-97438104D01*
X153196104Y-97287792D01*
X153315991Y-97122779D01*
X153371320Y-97080115D01*
X153440933Y-97074136D01*
X153502729Y-97106741D01*
X153516627Y-97122781D01*
X153636272Y-97287459D01*
X153636276Y-97287464D01*
X153786535Y-97437723D01*
X153786540Y-97437727D01*
X153958442Y-97562620D01*
X154147782Y-97659095D01*
X154349871Y-97724757D01*
X154416000Y-97735231D01*
X154416000Y-96687145D01*
X154482657Y-96725630D01*
X154603465Y-96758000D01*
X154728535Y-96758000D01*
X154849343Y-96725630D01*
X154916000Y-96687145D01*
X154916000Y-97735230D01*
G37*
%TD.AperFunction*%
%TA.AperFunction,Conductor*%
G36*
X140931563Y-60225185D02*
G01*
X140977318Y-60277989D01*
X140987262Y-60347147D01*
X140982455Y-60367817D01*
X140971524Y-60401457D01*
X140971523Y-60401464D01*
X140939500Y-60603648D01*
X140939500Y-60808351D01*
X140971522Y-61010534D01*
X141034781Y-61205223D01*
X141098691Y-61330653D01*
X141127585Y-61387359D01*
X141127715Y-61387613D01*
X141248028Y-61553213D01*
X141392786Y-61697971D01*
X141509806Y-61782989D01*
X141558390Y-61818287D01*
X141674607Y-61877503D01*
X141740776Y-61911218D01*
X141740778Y-61911218D01*
X141740781Y-61911220D01*
X141760057Y-61917483D01*
X141935465Y-61974477D01*
X142036557Y-61990488D01*
X142137648Y-62006500D01*
X142137649Y-62006500D01*
X142342351Y-62006500D01*
X142342352Y-62006500D01*
X142544534Y-61974477D01*
X142739219Y-61911220D01*
X142921610Y-61818287D01*
X143014590Y-61750732D01*
X143087213Y-61697971D01*
X143087215Y-61697968D01*
X143087219Y-61697966D01*
X143231966Y-61553219D01*
X143231968Y-61553215D01*
X143231971Y-61553213D01*
X143284732Y-61480590D01*
X143352287Y-61387610D01*
X143445220Y-61205219D01*
X143508477Y-61010534D01*
X143540500Y-60808352D01*
X143540500Y-60603648D01*
X143508477Y-60401466D01*
X143508475Y-60401462D01*
X143508475Y-60401457D01*
X143497545Y-60367817D01*
X143495550Y-60297976D01*
X143531631Y-60238144D01*
X143594332Y-60207316D01*
X143615476Y-60205500D01*
X144674524Y-60205500D01*
X144741563Y-60225185D01*
X144787318Y-60277989D01*
X144797262Y-60347147D01*
X144792455Y-60367817D01*
X144781524Y-60401457D01*
X144781523Y-60401464D01*
X144749500Y-60603648D01*
X144749500Y-60808351D01*
X144781522Y-61010534D01*
X144844781Y-61205223D01*
X144908691Y-61330653D01*
X144937585Y-61387359D01*
X144937715Y-61387613D01*
X145058028Y-61553213D01*
X145058034Y-61553219D01*
X145202781Y-61697966D01*
X145248384Y-61731098D01*
X145291050Y-61786425D01*
X145299500Y-61831416D01*
X145299500Y-67129918D01*
X145299500Y-67129920D01*
X145299499Y-67129920D01*
X145328340Y-67274907D01*
X145328343Y-67274917D01*
X145384913Y-67411490D01*
X145384914Y-67411491D01*
X145384916Y-67411495D01*
X145405744Y-67442666D01*
X145443531Y-67499220D01*
X145467051Y-67534420D01*
X145467052Y-67534421D01*
X148533526Y-70600893D01*
X148567011Y-70662216D01*
X148568318Y-70707971D01*
X148559500Y-70763647D01*
X148559500Y-70968351D01*
X148591522Y-71170534D01*
X148654781Y-71365223D01*
X148747715Y-71547613D01*
X148868028Y-71713213D01*
X149012786Y-71857971D01*
X149129806Y-71942989D01*
X149178390Y-71978287D01*
X149294607Y-72037503D01*
X149360776Y-72071218D01*
X149360778Y-72071218D01*
X149360781Y-72071220D01*
X149465137Y-72105127D01*
X149555465Y-72134477D01*
X149654129Y-72150104D01*
X149757648Y-72166500D01*
X149785499Y-72166500D01*
X149852538Y-72186185D01*
X149898293Y-72238989D01*
X149909499Y-72290500D01*
X149909499Y-79246000D01*
X149889814Y-79313039D01*
X149837010Y-79358794D01*
X149785499Y-79370000D01*
X141915000Y-79370000D01*
X141915000Y-83906849D01*
X141895315Y-83973888D01*
X141878681Y-83994530D01*
X141833376Y-84039834D01*
X141833373Y-84039837D01*
X141740295Y-84179139D01*
X141676184Y-84333917D01*
X141676182Y-84333925D01*
X141643500Y-84498228D01*
X141643500Y-84665771D01*
X141676182Y-84830074D01*
X141676184Y-84830082D01*
X141734061Y-84969808D01*
X141743500Y-85017261D01*
X141743500Y-86251095D01*
X141723815Y-86318134D01*
X141671011Y-86363889D01*
X141601853Y-86373833D01*
X141595313Y-86372713D01*
X141589214Y-86371500D01*
X141589210Y-86371500D01*
X140389261Y-86371500D01*
X140341808Y-86362061D01*
X140202082Y-86304184D01*
X140202074Y-86304182D01*
X140037771Y-86271500D01*
X140037767Y-86271500D01*
X139870233Y-86271500D01*
X139870228Y-86271500D01*
X139705925Y-86304182D01*
X139705917Y-86304184D01*
X139551139Y-86368295D01*
X139411837Y-86461373D01*
X139293373Y-86579837D01*
X139200295Y-86719139D01*
X139136184Y-86873917D01*
X139136182Y-86873925D01*
X139103500Y-87038228D01*
X139103500Y-87205771D01*
X139137372Y-87376057D01*
X139135084Y-87376511D01*
X139135602Y-87436033D01*
X139098339Y-87495137D01*
X139035038Y-87524712D01*
X138978009Y-87520063D01*
X138786243Y-87457754D01*
X138786241Y-87457753D01*
X138786240Y-87457753D01*
X138624957Y-87432208D01*
X138576287Y-87424500D01*
X138363713Y-87424500D01*
X138315042Y-87432208D01*
X138153760Y-87457753D01*
X138153757Y-87457754D01*
X138038705Y-87495137D01*
X137951585Y-87523444D01*
X137762179Y-87619951D01*
X137590213Y-87744890D01*
X137439894Y-87895209D01*
X137439890Y-87895214D01*
X137320008Y-88060218D01*
X137264678Y-88102884D01*
X137195065Y-88108863D01*
X137133270Y-88076257D01*
X137119372Y-88060218D01*
X136999727Y-87895540D01*
X136999723Y-87895535D01*
X136849464Y-87745276D01*
X136849459Y-87745272D01*
X136677557Y-87620379D01*
X136488215Y-87523903D01*
X136286124Y-87458241D01*
X136220000Y-87447768D01*
X136220000Y-88495854D01*
X136153343Y-88457370D01*
X136032535Y-88425000D01*
X135907465Y-88425000D01*
X135786657Y-88457370D01*
X135720000Y-88495854D01*
X135720000Y-87447768D01*
X135719999Y-87447768D01*
X135653875Y-87458241D01*
X135451784Y-87523903D01*
X135262442Y-87620379D01*
X135090540Y-87745272D01*
X135090535Y-87745276D01*
X134940276Y-87895535D01*
X134940272Y-87895540D01*
X134815379Y-88067442D01*
X134718904Y-88256782D01*
X134653242Y-88458869D01*
X134653242Y-88458872D01*
X134622970Y-88650000D01*
X135565854Y-88650000D01*
X135527370Y-88716657D01*
X135495000Y-88837465D01*
X135495000Y-88962535D01*
X135527370Y-89083343D01*
X135565854Y-89150000D01*
X134622970Y-89150000D01*
X134653242Y-89341127D01*
X134653242Y-89341130D01*
X134718904Y-89543217D01*
X134815379Y-89732557D01*
X134940272Y-89904459D01*
X134940276Y-89904464D01*
X135090535Y-90054723D01*
X135090540Y-90054727D01*
X135262442Y-90179620D01*
X135451782Y-90276095D01*
X135653871Y-90341757D01*
X135720000Y-90352231D01*
X135720000Y-89304145D01*
X135786657Y-89342630D01*
X135907465Y-89375000D01*
X136032535Y-89375000D01*
X136153343Y-89342630D01*
X136220000Y-89304145D01*
X136220000Y-90352230D01*
X136286126Y-90341757D01*
X136286129Y-90341757D01*
X136488217Y-90276095D01*
X136677557Y-90179620D01*
X136849459Y-90054727D01*
X136849464Y-90054723D01*
X136999721Y-89904466D01*
X137119371Y-89739781D01*
X137174701Y-89697115D01*
X137244314Y-89691136D01*
X137306110Y-89723741D01*
X137320008Y-89739781D01*
X137439890Y-89904785D01*
X137439894Y-89904790D01*
X137590213Y-90055109D01*
X137762179Y-90180048D01*
X137762181Y-90180049D01*
X137762184Y-90180051D01*
X137951588Y-90276557D01*
X138153757Y-90342246D01*
X138363713Y-90375500D01*
X138363714Y-90375500D01*
X138576286Y-90375500D01*
X138576287Y-90375500D01*
X138786243Y-90342246D01*
X138988412Y-90276557D01*
X139177816Y-90180051D01*
X139349792Y-90055104D01*
X139488604Y-89916291D01*
X139549923Y-89882809D01*
X139619615Y-89887793D01*
X139675549Y-89929664D01*
X139681821Y-89938878D01*
X139685185Y-89944333D01*
X139685186Y-89944334D01*
X139777288Y-90093656D01*
X139901344Y-90217712D01*
X140050666Y-90309814D01*
X140217203Y-90364999D01*
X140319991Y-90375500D01*
X141620008Y-90375499D01*
X141722797Y-90364999D01*
X141889334Y-90309814D01*
X142038656Y-90217712D01*
X142162712Y-90093656D01*
X142254814Y-89944334D01*
X142309999Y-89777797D01*
X142320500Y-89675009D01*
X142320499Y-89287935D01*
X142340183Y-89220898D01*
X142392987Y-89175143D01*
X142462146Y-89165199D01*
X142525701Y-89194224D01*
X142532180Y-89200256D01*
X143964181Y-90632256D01*
X143997666Y-90693579D01*
X144000500Y-90719937D01*
X144000500Y-94683500D01*
X143980815Y-94750539D01*
X143928011Y-94796294D01*
X143876500Y-94807500D01*
X142799998Y-94807500D01*
X142799981Y-94807501D01*
X142697203Y-94818000D01*
X142697200Y-94818001D01*
X142530668Y-94873185D01*
X142530663Y-94873187D01*
X142381342Y-94965289D01*
X142257289Y-95089342D01*
X142161551Y-95244559D01*
X142109603Y-95291283D01*
X142040640Y-95302506D01*
X141976558Y-95274662D01*
X141968331Y-95267143D01*
X141829464Y-95128276D01*
X141829459Y-95128272D01*
X141657557Y-95003379D01*
X141468215Y-94906903D01*
X141266124Y-94841241D01*
X141200000Y-94830768D01*
X141200000Y-95878854D01*
X141133343Y-95840370D01*
X141012535Y-95808000D01*
X140887465Y-95808000D01*
X140766657Y-95840370D01*
X140700000Y-95878854D01*
X140700000Y-94830768D01*
X140699999Y-94830768D01*
X140633875Y-94841241D01*
X140431784Y-94906903D01*
X140242442Y-95003379D01*
X140070540Y-95128272D01*
X140070535Y-95128276D01*
X139920276Y-95278535D01*
X139920272Y-95278540D01*
X139800627Y-95443218D01*
X139745297Y-95485884D01*
X139675684Y-95491863D01*
X139613889Y-95459257D01*
X139599991Y-95443218D01*
X139480109Y-95278214D01*
X139480105Y-95278209D01*
X139329786Y-95127890D01*
X139157820Y-95002951D01*
X138968414Y-94906444D01*
X138968413Y-94906443D01*
X138968412Y-94906443D01*
X138766243Y-94840754D01*
X138766241Y-94840753D01*
X138766240Y-94840753D01*
X138590204Y-94812872D01*
X138556287Y-94807500D01*
X138343713Y-94807500D01*
X138140360Y-94839707D01*
X138071067Y-94830752D01*
X138033282Y-94804915D01*
X133470819Y-90242451D01*
X133437334Y-90181128D01*
X133434500Y-90154770D01*
X133434500Y-82691802D01*
X133454185Y-82624763D01*
X133506989Y-82579008D01*
X133576147Y-82569064D01*
X133596812Y-82573869D01*
X133668757Y-82597246D01*
X133878713Y-82630500D01*
X133878714Y-82630500D01*
X134091286Y-82630500D01*
X134091287Y-82630500D01*
X134301243Y-82597246D01*
X134503412Y-82531557D01*
X134692816Y-82435051D01*
X134758200Y-82387547D01*
X134864786Y-82310109D01*
X134864788Y-82310106D01*
X134864792Y-82310104D01*
X135015104Y-82159792D01*
X135015107Y-82159788D01*
X135071903Y-82081615D01*
X135127233Y-82038949D01*
X135172221Y-82030500D01*
X136313023Y-82030500D01*
X136380062Y-82050185D01*
X136425817Y-82102989D01*
X136433266Y-82130134D01*
X136434124Y-82129932D01*
X136435907Y-82137479D01*
X136486202Y-82272328D01*
X136486206Y-82272335D01*
X136572452Y-82387544D01*
X136572455Y-82387547D01*
X136687664Y-82473793D01*
X136687671Y-82473797D01*
X136822517Y-82524091D01*
X136822516Y-82524091D01*
X136829444Y-82524835D01*
X136882127Y-82530500D01*
X139977872Y-82530499D01*
X140037483Y-82524091D01*
X140172331Y-82473796D01*
X140287546Y-82387546D01*
X140373796Y-82272331D01*
X140424091Y-82137483D01*
X140430500Y-82077873D01*
X140430499Y-80482128D01*
X140424091Y-80422517D01*
X140415772Y-80400213D01*
X140373797Y-80287671D01*
X140373793Y-80287664D01*
X140287547Y-80172456D01*
X140287548Y-80172456D01*
X140287546Y-80172454D01*
X140203136Y-80109265D01*
X140161267Y-80053333D01*
X140156283Y-79983641D01*
X140189768Y-79922318D01*
X140203130Y-79910739D01*
X140287546Y-79847546D01*
X140373796Y-79732331D01*
X140424091Y-79597483D01*
X140430500Y-79537873D01*
X140430499Y-77942128D01*
X140424091Y-77882517D01*
X140415772Y-77860213D01*
X140373797Y-77747671D01*
X140373793Y-77747664D01*
X140307583Y-77659220D01*
X140287546Y-77632454D01*
X140203136Y-77569265D01*
X140161267Y-77513333D01*
X140156283Y-77443641D01*
X140189768Y-77382318D01*
X140203130Y-77370739D01*
X140287546Y-77307546D01*
X140373796Y-77192331D01*
X140424091Y-77057483D01*
X140430500Y-76997873D01*
X140430499Y-75402128D01*
X140424091Y-75342517D01*
X140416442Y-75322010D01*
X140373797Y-75207671D01*
X140373793Y-75207664D01*
X140322123Y-75138643D01*
X140287546Y-75092454D01*
X140203136Y-75029265D01*
X140161267Y-74973333D01*
X140156283Y-74903641D01*
X140189768Y-74842318D01*
X140203130Y-74830739D01*
X140287546Y-74767546D01*
X140373796Y-74652331D01*
X140424091Y-74517483D01*
X140430500Y-74457873D01*
X140430499Y-72862128D01*
X140424091Y-72802517D01*
X140423829Y-72801815D01*
X140373797Y-72667671D01*
X140373793Y-72667664D01*
X140287547Y-72552456D01*
X140287548Y-72552456D01*
X140287546Y-72552454D01*
X140203136Y-72489265D01*
X140161267Y-72433333D01*
X140156283Y-72363641D01*
X140189768Y-72302318D01*
X140203130Y-72290739D01*
X140287546Y-72227546D01*
X140373796Y-72112331D01*
X140424091Y-71977483D01*
X140430500Y-71917873D01*
X140430499Y-70322128D01*
X140424091Y-70262517D01*
X140421938Y-70256745D01*
X140373797Y-70127671D01*
X140373793Y-70127664D01*
X140287547Y-70012456D01*
X140287548Y-70012456D01*
X140287546Y-70012454D01*
X140203136Y-69949265D01*
X140161267Y-69893333D01*
X140156283Y-69823641D01*
X140189768Y-69762318D01*
X140203130Y-69750739D01*
X140287546Y-69687546D01*
X140373796Y-69572331D01*
X140424091Y-69437483D01*
X140430500Y-69377873D01*
X140430499Y-68893226D01*
X140450183Y-68826189D01*
X140502987Y-68780434D01*
X140572146Y-68770490D01*
X140635702Y-68799515D01*
X140642180Y-68805547D01*
X141453181Y-69616548D01*
X141467884Y-69643475D01*
X141484477Y-69669294D01*
X141485368Y-69675494D01*
X141486666Y-69677871D01*
X141489500Y-69704229D01*
X141489500Y-69740582D01*
X141469815Y-69807621D01*
X141438385Y-69840900D01*
X141392787Y-69874028D01*
X141392782Y-69874032D01*
X141248028Y-70018786D01*
X141127715Y-70184386D01*
X141034781Y-70366776D01*
X140971522Y-70561465D01*
X140939500Y-70763648D01*
X140939500Y-70968351D01*
X140971522Y-71170534D01*
X141034781Y-71365223D01*
X141127715Y-71547613D01*
X141248028Y-71713213D01*
X141392786Y-71857971D01*
X141509806Y-71942989D01*
X141558390Y-71978287D01*
X141674607Y-72037503D01*
X141740776Y-72071218D01*
X141740778Y-72071218D01*
X141740781Y-72071220D01*
X141845137Y-72105127D01*
X141935465Y-72134477D01*
X142034129Y-72150104D01*
X142137648Y-72166500D01*
X142137649Y-72166500D01*
X142342351Y-72166500D01*
X142342352Y-72166500D01*
X142544534Y-72134477D01*
X142739219Y-72071220D01*
X142921610Y-71978287D01*
X143034451Y-71896304D01*
X143087213Y-71857971D01*
X143087215Y-71857968D01*
X143087219Y-71857966D01*
X143231966Y-71713219D01*
X143231968Y-71713215D01*
X143231971Y-71713213D01*
X143319979Y-71592078D01*
X143352287Y-71547610D01*
X143445220Y-71365219D01*
X143508477Y-71170534D01*
X143540500Y-70968352D01*
X143540500Y-70763648D01*
X144749500Y-70763648D01*
X144749500Y-70968351D01*
X144781522Y-71170534D01*
X144844781Y-71365223D01*
X144937715Y-71547613D01*
X145058028Y-71713213D01*
X145202786Y-71857971D01*
X145319806Y-71942989D01*
X145368390Y-71978287D01*
X145484607Y-72037503D01*
X145550776Y-72071218D01*
X145550778Y-72071218D01*
X145550781Y-72071220D01*
X145655137Y-72105127D01*
X145745465Y-72134477D01*
X145844129Y-72150104D01*
X145947648Y-72166500D01*
X145947649Y-72166500D01*
X146152351Y-72166500D01*
X146152352Y-72166500D01*
X146354534Y-72134477D01*
X146549219Y-72071220D01*
X146731610Y-71978287D01*
X146844451Y-71896304D01*
X146897213Y-71857971D01*
X146897215Y-71857968D01*
X146897219Y-71857966D01*
X147041966Y-71713219D01*
X147041968Y-71713215D01*
X147041971Y-71713213D01*
X147129979Y-71592078D01*
X147162287Y-71547610D01*
X147255220Y-71365219D01*
X147318477Y-71170534D01*
X147350500Y-70968352D01*
X147350500Y-70763648D01*
X147350500Y-70763647D01*
X147318477Y-70561465D01*
X147265305Y-70397819D01*
X147255220Y-70366781D01*
X147255218Y-70366778D01*
X147255218Y-70366776D01*
X147205839Y-70269865D01*
X147162287Y-70184390D01*
X147121079Y-70127671D01*
X147041971Y-70018786D01*
X146897213Y-69874028D01*
X146731613Y-69753715D01*
X146731612Y-69753714D01*
X146731610Y-69753713D01*
X146670763Y-69722710D01*
X146549223Y-69660781D01*
X146354534Y-69597522D01*
X146179995Y-69569878D01*
X146152352Y-69565500D01*
X145947648Y-69565500D01*
X145923329Y-69569351D01*
X145745465Y-69597522D01*
X145550776Y-69660781D01*
X145368386Y-69753715D01*
X145202786Y-69874028D01*
X145058028Y-70018786D01*
X144937715Y-70184386D01*
X144844781Y-70366776D01*
X144781522Y-70561465D01*
X144749500Y-70763648D01*
X143540500Y-70763648D01*
X143540500Y-70763647D01*
X143508477Y-70561465D01*
X143455305Y-70397819D01*
X143445220Y-70366781D01*
X143445218Y-70366778D01*
X143445218Y-70366776D01*
X143395839Y-70269865D01*
X143352287Y-70184390D01*
X143311079Y-70127671D01*
X143231971Y-70018786D01*
X143087217Y-69874032D01*
X143087212Y-69874028D01*
X143041615Y-69840900D01*
X142998949Y-69785571D01*
X142990500Y-69740582D01*
X142990500Y-69268079D01*
X142961659Y-69123092D01*
X142961658Y-69123091D01*
X142961658Y-69123087D01*
X142949850Y-69094579D01*
X142905087Y-68986511D01*
X142905080Y-68986498D01*
X142822952Y-68863585D01*
X142778498Y-68819131D01*
X142718416Y-68759049D01*
X140466818Y-66507451D01*
X140433333Y-66446128D01*
X140430499Y-66419770D01*
X140430499Y-65242129D01*
X140430498Y-65242123D01*
X140430497Y-65242116D01*
X140424091Y-65182517D01*
X140415772Y-65160213D01*
X140373797Y-65047671D01*
X140373793Y-65047664D01*
X140287547Y-64932455D01*
X140202720Y-64868953D01*
X140160850Y-64813019D01*
X140155866Y-64743328D01*
X140189352Y-64682005D01*
X140202722Y-64670420D01*
X140287189Y-64607188D01*
X140287190Y-64607187D01*
X140373350Y-64492093D01*
X140373354Y-64492086D01*
X140423596Y-64357379D01*
X140423598Y-64357372D01*
X140429999Y-64297844D01*
X140430000Y-64297827D01*
X140430000Y-62702172D01*
X140429999Y-62702155D01*
X140423598Y-62642627D01*
X140423596Y-62642620D01*
X140373354Y-62507913D01*
X140373350Y-62507906D01*
X140287190Y-62392812D01*
X140177720Y-62310862D01*
X140135850Y-62254928D01*
X140130866Y-62185237D01*
X140164352Y-62123914D01*
X140177702Y-62112344D01*
X140237546Y-62067546D01*
X140323796Y-61952331D01*
X140374091Y-61817483D01*
X140380500Y-61757873D01*
X140380499Y-60329499D01*
X140400184Y-60262461D01*
X140452987Y-60216706D01*
X140504499Y-60205500D01*
X140864524Y-60205500D01*
X140931563Y-60225185D01*
G37*
%TD.AperFunction*%
%TA.AperFunction,Conductor*%
G36*
X148552088Y-60225185D02*
G01*
X148597843Y-60277989D01*
X148607787Y-60347147D01*
X148602980Y-60367817D01*
X148592011Y-60401574D01*
X148592010Y-60401581D01*
X148560000Y-60603682D01*
X148560000Y-60808317D01*
X148592009Y-61010417D01*
X148655244Y-61205031D01*
X148748141Y-61387350D01*
X148748147Y-61387359D01*
X148780523Y-61431921D01*
X148780524Y-61431922D01*
X149460000Y-60752446D01*
X149460000Y-60758661D01*
X149487259Y-60860394D01*
X149539920Y-60951606D01*
X149614394Y-61026080D01*
X149705606Y-61078741D01*
X149807339Y-61106000D01*
X149813553Y-61106000D01*
X149134076Y-61785474D01*
X149178650Y-61817859D01*
X149360968Y-61910755D01*
X149555582Y-61973990D01*
X149757683Y-62006000D01*
X149962317Y-62006000D01*
X150164417Y-61973990D01*
X150359031Y-61910755D01*
X150541349Y-61817859D01*
X150585921Y-61785474D01*
X149906447Y-61106000D01*
X149912661Y-61106000D01*
X150014394Y-61078741D01*
X150105606Y-61026080D01*
X150180080Y-60951606D01*
X150232741Y-60860394D01*
X150260000Y-60758661D01*
X150260000Y-60752447D01*
X150939474Y-61431921D01*
X150971859Y-61387349D01*
X151064755Y-61205031D01*
X151127990Y-61010417D01*
X151160000Y-60808317D01*
X151160000Y-60603682D01*
X151127989Y-60401581D01*
X151127988Y-60401574D01*
X151117020Y-60367817D01*
X151115025Y-60297976D01*
X151151106Y-60238144D01*
X151213807Y-60207316D01*
X151234951Y-60205500D01*
X151545500Y-60205500D01*
X151612539Y-60225185D01*
X151658294Y-60277989D01*
X151669500Y-60329500D01*
X151669500Y-61757870D01*
X151669501Y-61757876D01*
X151675908Y-61817483D01*
X151726202Y-61952328D01*
X151726206Y-61952335D01*
X151812452Y-62067544D01*
X151812455Y-62067547D01*
X151896861Y-62130734D01*
X151938732Y-62186668D01*
X151943716Y-62256359D01*
X151910230Y-62317682D01*
X151896861Y-62329266D01*
X151812455Y-62392452D01*
X151812452Y-62392455D01*
X151726206Y-62507664D01*
X151726202Y-62507671D01*
X151675908Y-62642517D01*
X151669501Y-62702116D01*
X151669500Y-62702135D01*
X151669500Y-64297870D01*
X151669501Y-64297876D01*
X151675908Y-64357483D01*
X151726202Y-64492328D01*
X151726206Y-64492335D01*
X151812452Y-64607544D01*
X151812455Y-64607547D01*
X151896861Y-64670734D01*
X151938732Y-64726668D01*
X151943716Y-64796359D01*
X151910230Y-64857682D01*
X151896861Y-64869266D01*
X151812455Y-64932452D01*
X151812452Y-64932455D01*
X151726206Y-65047664D01*
X151726202Y-65047671D01*
X151675908Y-65182517D01*
X151672200Y-65217011D01*
X151669501Y-65242123D01*
X151669500Y-65242135D01*
X151669500Y-66837870D01*
X151669501Y-66837876D01*
X151675908Y-66897483D01*
X151726202Y-67032328D01*
X151726206Y-67032335D01*
X151812452Y-67147544D01*
X151812455Y-67147547D01*
X151896861Y-67210734D01*
X151938732Y-67266668D01*
X151943716Y-67336359D01*
X151910230Y-67397682D01*
X151896861Y-67409266D01*
X151812455Y-67472452D01*
X151812452Y-67472455D01*
X151726206Y-67587664D01*
X151726202Y-67587671D01*
X151675908Y-67722517D01*
X151669501Y-67782116D01*
X151669500Y-67782135D01*
X151669500Y-69377870D01*
X151669501Y-69377876D01*
X151675908Y-69437483D01*
X151726202Y-69572328D01*
X151726206Y-69572335D01*
X151812452Y-69687544D01*
X151812455Y-69687547D01*
X151896861Y-69750734D01*
X151938732Y-69806668D01*
X151943716Y-69876359D01*
X151910230Y-69937682D01*
X151896861Y-69949266D01*
X151812455Y-70012452D01*
X151812452Y-70012455D01*
X151726206Y-70127664D01*
X151726202Y-70127671D01*
X151675908Y-70262517D01*
X151672200Y-70297011D01*
X151669501Y-70322123D01*
X151669500Y-70322135D01*
X151669500Y-71917870D01*
X151669501Y-71917876D01*
X151675908Y-71977483D01*
X151726202Y-72112328D01*
X151726206Y-72112335D01*
X151812452Y-72227544D01*
X151812455Y-72227547D01*
X151896861Y-72290734D01*
X151938732Y-72346668D01*
X151943716Y-72416359D01*
X151910230Y-72477682D01*
X151896861Y-72489266D01*
X151812455Y-72552452D01*
X151812452Y-72552455D01*
X151726206Y-72667664D01*
X151726202Y-72667671D01*
X151675908Y-72802517D01*
X151672200Y-72837011D01*
X151669501Y-72862123D01*
X151669500Y-72862135D01*
X151669500Y-74457870D01*
X151669501Y-74457876D01*
X151675908Y-74517483D01*
X151726202Y-74652328D01*
X151726206Y-74652335D01*
X151812452Y-74767544D01*
X151812455Y-74767547D01*
X151896861Y-74830734D01*
X151938732Y-74886668D01*
X151943716Y-74956359D01*
X151910230Y-75017682D01*
X151896861Y-75029266D01*
X151812455Y-75092452D01*
X151812452Y-75092455D01*
X151726206Y-75207664D01*
X151726202Y-75207671D01*
X151675908Y-75342517D01*
X151672200Y-75377011D01*
X151669501Y-75402123D01*
X151669500Y-75402135D01*
X151669500Y-76997870D01*
X151669501Y-76997876D01*
X151675908Y-77057483D01*
X151726202Y-77192328D01*
X151726206Y-77192335D01*
X151812452Y-77307544D01*
X151812455Y-77307547D01*
X151896861Y-77370734D01*
X151938732Y-77426668D01*
X151943716Y-77496359D01*
X151910230Y-77557682D01*
X151896861Y-77569266D01*
X151812455Y-77632452D01*
X151812452Y-77632455D01*
X151726206Y-77747664D01*
X151726202Y-77747671D01*
X151675908Y-77882517D01*
X151670713Y-77930844D01*
X151669501Y-77942123D01*
X151669500Y-77942135D01*
X151669500Y-79537870D01*
X151669501Y-79537876D01*
X151675908Y-79597483D01*
X151726202Y-79732328D01*
X151726206Y-79732335D01*
X151812452Y-79847544D01*
X151812455Y-79847547D01*
X151896861Y-79910734D01*
X151938732Y-79966668D01*
X151943716Y-80036359D01*
X151910230Y-80097682D01*
X151896861Y-80109266D01*
X151812455Y-80172452D01*
X151812452Y-80172455D01*
X151726206Y-80287664D01*
X151726202Y-80287671D01*
X151675908Y-80422517D01*
X151672200Y-80457011D01*
X151669501Y-80482123D01*
X151669500Y-80482135D01*
X151669500Y-82077870D01*
X151669501Y-82077876D01*
X151675908Y-82137483D01*
X151726202Y-82272328D01*
X151726206Y-82272335D01*
X151812452Y-82387544D01*
X151812455Y-82387547D01*
X151927664Y-82473793D01*
X151927671Y-82473797D01*
X152062517Y-82524091D01*
X152062516Y-82524091D01*
X152069444Y-82524835D01*
X152122127Y-82530500D01*
X155217872Y-82530499D01*
X155277483Y-82524091D01*
X155389410Y-82482344D01*
X155459100Y-82477361D01*
X155520423Y-82510846D01*
X155553908Y-82572169D01*
X155548924Y-82641861D01*
X155520423Y-82686208D01*
X150553400Y-87653230D01*
X150548598Y-87655851D01*
X150545575Y-87660412D01*
X150518262Y-87672416D01*
X150492077Y-87686715D01*
X150485290Y-87686908D01*
X150481611Y-87688526D01*
X150446321Y-87688022D01*
X150388879Y-87678924D01*
X150325744Y-87648995D01*
X150288813Y-87589683D01*
X150289811Y-87519821D01*
X150320594Y-87468772D01*
X151242951Y-86546416D01*
X151276304Y-86496499D01*
X151325083Y-86423496D01*
X151364017Y-86329501D01*
X151381658Y-86286913D01*
X151410499Y-86141918D01*
X151410499Y-85994083D01*
X151410499Y-71592081D01*
X151410499Y-71592078D01*
X151381658Y-71447091D01*
X151381657Y-71447090D01*
X151381657Y-71447086D01*
X151377164Y-71436239D01*
X151325086Y-71310510D01*
X151325079Y-71310497D01*
X151242950Y-71187583D01*
X151242947Y-71187579D01*
X151186473Y-71131105D01*
X151152988Y-71069782D01*
X151151681Y-71024028D01*
X151160500Y-70968352D01*
X151160500Y-70763648D01*
X151160500Y-70763647D01*
X151128477Y-70561465D01*
X151075305Y-70397819D01*
X151065220Y-70366781D01*
X151065218Y-70366778D01*
X151065218Y-70366776D01*
X151015839Y-70269865D01*
X150972287Y-70184390D01*
X150931079Y-70127671D01*
X150851971Y-70018786D01*
X150707213Y-69874028D01*
X150541613Y-69753715D01*
X150541612Y-69753714D01*
X150541610Y-69753713D01*
X150480763Y-69722710D01*
X150359223Y-69660781D01*
X150164534Y-69597522D01*
X149989995Y-69569878D01*
X149962352Y-69565500D01*
X149757648Y-69565500D01*
X149701971Y-69574318D01*
X149632678Y-69565363D01*
X149594893Y-69539526D01*
X146836819Y-66781451D01*
X146803334Y-66720128D01*
X146800500Y-66693770D01*
X146800500Y-61831416D01*
X146800522Y-61831338D01*
X146800500Y-61831261D01*
X146810382Y-61797760D01*
X146820185Y-61764377D01*
X146820253Y-61764297D01*
X146820269Y-61764246D01*
X146820628Y-61763865D01*
X146843415Y-61737602D01*
X146847376Y-61734177D01*
X146897219Y-61697966D01*
X147041966Y-61553219D01*
X147041968Y-61553215D01*
X147041971Y-61553213D01*
X147094732Y-61480590D01*
X147162287Y-61387610D01*
X147255220Y-61205219D01*
X147318477Y-61010534D01*
X147350500Y-60808352D01*
X147350500Y-60603648D01*
X147318477Y-60401466D01*
X147318475Y-60401462D01*
X147318475Y-60401457D01*
X147307545Y-60367817D01*
X147305550Y-60297976D01*
X147341631Y-60238144D01*
X147404332Y-60207316D01*
X147425476Y-60205500D01*
X148485049Y-60205500D01*
X148552088Y-60225185D01*
G37*
%TD.AperFunction*%
%TA.AperFunction,Conductor*%
G36*
X159670702Y-60402516D02*
G01*
X159677180Y-60408548D01*
X166174592Y-66905960D01*
X166208077Y-66967283D01*
X166203093Y-67036975D01*
X166161221Y-67092908D01*
X166152008Y-67099180D01*
X166038342Y-67169289D01*
X165914289Y-67293342D01*
X165822187Y-67442663D01*
X165822185Y-67442668D01*
X165803446Y-67499218D01*
X165767001Y-67609203D01*
X165767001Y-67609204D01*
X165767000Y-67609204D01*
X165756500Y-67711983D01*
X165756500Y-68512001D01*
X165756501Y-68512019D01*
X165767000Y-68614796D01*
X165767001Y-68614799D01*
X165822185Y-68781331D01*
X165822187Y-68781336D01*
X165845499Y-68819131D01*
X165914288Y-68930656D01*
X166038344Y-69054712D01*
X166102981Y-69094580D01*
X166149705Y-69146526D01*
X166160928Y-69215489D01*
X166133085Y-69279571D01*
X166125566Y-69287799D01*
X166017964Y-69395401D01*
X165916195Y-69535475D01*
X165837591Y-69689744D01*
X165784085Y-69854415D01*
X165782884Y-69861999D01*
X165782885Y-69862000D01*
X166851670Y-69862000D01*
X166831925Y-69881745D01*
X166782556Y-69967255D01*
X166757000Y-70062630D01*
X166757000Y-70161370D01*
X166782556Y-70256745D01*
X166831925Y-70342255D01*
X166851670Y-70362000D01*
X165782885Y-70362000D01*
X165784085Y-70369584D01*
X165837591Y-70534255D01*
X165916195Y-70688524D01*
X166017967Y-70828602D01*
X166140397Y-70951032D01*
X166280475Y-71052804D01*
X166434742Y-71131408D01*
X166599415Y-71184914D01*
X166770429Y-71212000D01*
X166882000Y-71212000D01*
X166882000Y-70392330D01*
X166901745Y-70412075D01*
X166987255Y-70461444D01*
X167082630Y-70487000D01*
X167181370Y-70487000D01*
X167276745Y-70461444D01*
X167362255Y-70412075D01*
X167382000Y-70392330D01*
X167382000Y-71212000D01*
X167493571Y-71212000D01*
X167664584Y-71184914D01*
X167829257Y-71131408D01*
X167983525Y-71052803D01*
X167989614Y-71048380D01*
X168055421Y-71024900D01*
X168123475Y-71040725D01*
X168172169Y-71090831D01*
X168186500Y-71148698D01*
X168186500Y-74863242D01*
X168166815Y-74930281D01*
X168114011Y-74976036D01*
X168044853Y-74985980D01*
X168006208Y-74973728D01*
X168000386Y-74970762D01*
X168000382Y-74970761D01*
X168000379Y-74970759D01*
X167760785Y-74892910D01*
X167511962Y-74853500D01*
X167260038Y-74853500D01*
X167198530Y-74863242D01*
X167011214Y-74892910D01*
X166771616Y-74970760D01*
X166547151Y-75085132D01*
X166343350Y-75233201D01*
X166343345Y-75233205D01*
X166165205Y-75411345D01*
X166165201Y-75411350D01*
X166017132Y-75615151D01*
X165902760Y-75839616D01*
X165824910Y-76079214D01*
X165822614Y-76093713D01*
X165785500Y-76328038D01*
X165785500Y-76579962D01*
X165807429Y-76718414D01*
X165824910Y-76828785D01*
X165902760Y-77068383D01*
X166017132Y-77292848D01*
X166158826Y-77487875D01*
X166182306Y-77553681D01*
X166166480Y-77621735D01*
X166146189Y-77648441D01*
X162000451Y-81794181D01*
X161939128Y-81827666D01*
X161912770Y-81830500D01*
X159526802Y-81830500D01*
X159459763Y-81810815D01*
X159414008Y-81758011D01*
X159404064Y-81688853D01*
X159408871Y-81668182D01*
X159432246Y-81596243D01*
X159465500Y-81386287D01*
X159465500Y-81173713D01*
X159432246Y-80963757D01*
X159366557Y-80761588D01*
X159270051Y-80572184D01*
X159270049Y-80572181D01*
X159270048Y-80572179D01*
X159145109Y-80400213D01*
X158994786Y-80249890D01*
X158822820Y-80124951D01*
X158822115Y-80124591D01*
X158814054Y-80120485D01*
X158763259Y-80072512D01*
X158746463Y-80004692D01*
X158768999Y-79938556D01*
X158814054Y-79899515D01*
X158822816Y-79895051D01*
X158888200Y-79847547D01*
X158994786Y-79770109D01*
X158994788Y-79770106D01*
X158994792Y-79770104D01*
X159145104Y-79619792D01*
X159145106Y-79619788D01*
X159145109Y-79619786D01*
X159270048Y-79447820D01*
X159270047Y-79447820D01*
X159270051Y-79447816D01*
X159366557Y-79258412D01*
X159432246Y-79056243D01*
X159465500Y-78846287D01*
X159465500Y-78633713D01*
X159432246Y-78423757D01*
X159366557Y-78221588D01*
X159270051Y-78032184D01*
X159270049Y-78032181D01*
X159270048Y-78032179D01*
X159145109Y-77860213D01*
X158994786Y-77709890D01*
X158822820Y-77584951D01*
X158822115Y-77584591D01*
X158814054Y-77580485D01*
X158763259Y-77532512D01*
X158746463Y-77464692D01*
X158768999Y-77398556D01*
X158814054Y-77359515D01*
X158822816Y-77355051D01*
X158888200Y-77307547D01*
X158994786Y-77230109D01*
X158994788Y-77230106D01*
X158994792Y-77230104D01*
X159145104Y-77079792D01*
X159145106Y-77079788D01*
X159145109Y-77079786D01*
X159270048Y-76907820D01*
X159270047Y-76907820D01*
X159270051Y-76907816D01*
X159366557Y-76718412D01*
X159432246Y-76516243D01*
X159458315Y-76351648D01*
X160243500Y-76351648D01*
X160243500Y-76556351D01*
X160275522Y-76758534D01*
X160338781Y-76953223D01*
X160431715Y-77135613D01*
X160552028Y-77301213D01*
X160696786Y-77445971D01*
X160789504Y-77513333D01*
X160862390Y-77566287D01*
X160971213Y-77621735D01*
X161044776Y-77659218D01*
X161044778Y-77659218D01*
X161044781Y-77659220D01*
X161149137Y-77693127D01*
X161239465Y-77722477D01*
X161340557Y-77738488D01*
X161441648Y-77754500D01*
X161441649Y-77754500D01*
X161646351Y-77754500D01*
X161646352Y-77754500D01*
X161848534Y-77722477D01*
X162043219Y-77659220D01*
X162225610Y-77566287D01*
X162333536Y-77487875D01*
X162391213Y-77445971D01*
X162391215Y-77445968D01*
X162391219Y-77445966D01*
X162535966Y-77301219D01*
X162535968Y-77301215D01*
X162535971Y-77301213D01*
X162615079Y-77192328D01*
X162656287Y-77135610D01*
X162749220Y-76953219D01*
X162812477Y-76758534D01*
X162844500Y-76556352D01*
X162844500Y-76351648D01*
X162812477Y-76149465D01*
X162767811Y-76011998D01*
X162749220Y-75954781D01*
X162749218Y-75954778D01*
X162749218Y-75954776D01*
X162690540Y-75839616D01*
X162656287Y-75772390D01*
X162620040Y-75722500D01*
X162535971Y-75606786D01*
X162391213Y-75462028D01*
X162225613Y-75341715D01*
X162225612Y-75341714D01*
X162225610Y-75341713D01*
X162168653Y-75312691D01*
X162043223Y-75248781D01*
X161848534Y-75185522D01*
X161673995Y-75157878D01*
X161646352Y-75153500D01*
X161441648Y-75153500D01*
X161417329Y-75157351D01*
X161239465Y-75185522D01*
X161044776Y-75248781D01*
X160862386Y-75341715D01*
X160696786Y-75462028D01*
X160552028Y-75606786D01*
X160431715Y-75772386D01*
X160338781Y-75954776D01*
X160275522Y-76149465D01*
X160243500Y-76351648D01*
X159458315Y-76351648D01*
X159465500Y-76306287D01*
X159465500Y-76093713D01*
X159432246Y-75883757D01*
X159366557Y-75681588D01*
X159270051Y-75492184D01*
X159270049Y-75492181D01*
X159270048Y-75492179D01*
X159145109Y-75320213D01*
X158994786Y-75169890D01*
X158822820Y-75044951D01*
X158822115Y-75044591D01*
X158814054Y-75040485D01*
X158763259Y-74992512D01*
X158746463Y-74924692D01*
X158768999Y-74858556D01*
X158814054Y-74819515D01*
X158822816Y-74815051D01*
X158888200Y-74767547D01*
X158994786Y-74690109D01*
X158994788Y-74690106D01*
X158994792Y-74690104D01*
X159145104Y-74539792D01*
X159145106Y-74539788D01*
X159145109Y-74539786D01*
X159270048Y-74367820D01*
X159270047Y-74367820D01*
X159270051Y-74367816D01*
X159366557Y-74178412D01*
X159432246Y-73976243D01*
X159465500Y-73766287D01*
X159465500Y-73553713D01*
X159432246Y-73343757D01*
X159366557Y-73141588D01*
X159270051Y-72952184D01*
X159270049Y-72952181D01*
X159270048Y-72952179D01*
X159145109Y-72780213D01*
X158994786Y-72629890D01*
X158822820Y-72504951D01*
X158822115Y-72504591D01*
X158814054Y-72500485D01*
X158763259Y-72452512D01*
X158746463Y-72384692D01*
X158768999Y-72318556D01*
X158814054Y-72279515D01*
X158822816Y-72275051D01*
X158844789Y-72259086D01*
X158994786Y-72150109D01*
X158994788Y-72150106D01*
X158994792Y-72150104D01*
X159145104Y-71999792D01*
X159145106Y-71999788D01*
X159145109Y-71999786D01*
X159270048Y-71827820D01*
X159270047Y-71827820D01*
X159270051Y-71827816D01*
X159366557Y-71638412D01*
X159432246Y-71436243D01*
X159465500Y-71226287D01*
X159465500Y-71013713D01*
X159432246Y-70803757D01*
X159366557Y-70601588D01*
X159270051Y-70412184D01*
X159269972Y-70412075D01*
X159259615Y-70397819D01*
X159259614Y-70397818D01*
X159145109Y-70240214D01*
X159145105Y-70240209D01*
X158994786Y-70089890D01*
X158822820Y-69964951D01*
X158822115Y-69964591D01*
X158814054Y-69960485D01*
X158763259Y-69912512D01*
X158746463Y-69844692D01*
X158768999Y-69778556D01*
X158814054Y-69739515D01*
X158822816Y-69735051D01*
X158888200Y-69687547D01*
X158994786Y-69610109D01*
X158994788Y-69610106D01*
X158994792Y-69610104D01*
X159145104Y-69459792D01*
X159145106Y-69459788D01*
X159145109Y-69459786D01*
X159256897Y-69305921D01*
X159270051Y-69287816D01*
X159366557Y-69098412D01*
X159432246Y-68896243D01*
X159465500Y-68686287D01*
X159465500Y-68473713D01*
X159432246Y-68263757D01*
X159366557Y-68061588D01*
X159270051Y-67872184D01*
X159270049Y-67872181D01*
X159270048Y-67872179D01*
X159145109Y-67700213D01*
X158994786Y-67549890D01*
X158822820Y-67424951D01*
X158822115Y-67424591D01*
X158814054Y-67420485D01*
X158763259Y-67372512D01*
X158746463Y-67304692D01*
X158768999Y-67238556D01*
X158814054Y-67199515D01*
X158822816Y-67195051D01*
X158888200Y-67147547D01*
X158994786Y-67070109D01*
X158994788Y-67070106D01*
X158994792Y-67070104D01*
X159145104Y-66919792D01*
X159145106Y-66919788D01*
X159145109Y-66919786D01*
X159270048Y-66747820D01*
X159270047Y-66747820D01*
X159270051Y-66747816D01*
X159366557Y-66558412D01*
X159432246Y-66356243D01*
X159458315Y-66191648D01*
X160243500Y-66191648D01*
X160243500Y-66396351D01*
X160275522Y-66598534D01*
X160338781Y-66793223D01*
X160388334Y-66890474D01*
X160427470Y-66967283D01*
X160431715Y-66975613D01*
X160552028Y-67141213D01*
X160696786Y-67285971D01*
X160828200Y-67381447D01*
X160862390Y-67406287D01*
X160933788Y-67442666D01*
X161044776Y-67499218D01*
X161044778Y-67499218D01*
X161044781Y-67499220D01*
X161149137Y-67533127D01*
X161239465Y-67562477D01*
X161340557Y-67578488D01*
X161441648Y-67594500D01*
X161441649Y-67594500D01*
X161646351Y-67594500D01*
X161646352Y-67594500D01*
X161848534Y-67562477D01*
X162043219Y-67499220D01*
X162225610Y-67406287D01*
X162332754Y-67328443D01*
X162391213Y-67285971D01*
X162391215Y-67285968D01*
X162391219Y-67285966D01*
X162535966Y-67141219D01*
X162535968Y-67141215D01*
X162535971Y-67141213D01*
X162588732Y-67068590D01*
X162656287Y-66975610D01*
X162749220Y-66793219D01*
X162812477Y-66598534D01*
X162844500Y-66396352D01*
X162844500Y-66191648D01*
X162812477Y-65989466D01*
X162749220Y-65794781D01*
X162749218Y-65794778D01*
X162749218Y-65794776D01*
X162713031Y-65723757D01*
X162656287Y-65612390D01*
X162648556Y-65601749D01*
X162535971Y-65446786D01*
X162391213Y-65302028D01*
X162225613Y-65181715D01*
X162225612Y-65181714D01*
X162225610Y-65181713D01*
X162168653Y-65152691D01*
X162043223Y-65088781D01*
X161848534Y-65025522D01*
X161673995Y-64997878D01*
X161646352Y-64993500D01*
X161441648Y-64993500D01*
X161417329Y-64997351D01*
X161239465Y-65025522D01*
X161044776Y-65088781D01*
X160862386Y-65181715D01*
X160696786Y-65302028D01*
X160552028Y-65446786D01*
X160431715Y-65612386D01*
X160338781Y-65794776D01*
X160275522Y-65989465D01*
X160243500Y-66191648D01*
X159458315Y-66191648D01*
X159465500Y-66146287D01*
X159465500Y-65933713D01*
X159432246Y-65723757D01*
X159366557Y-65521588D01*
X159270051Y-65332184D01*
X159270049Y-65332181D01*
X159270048Y-65332179D01*
X159145109Y-65160213D01*
X158994786Y-65009890D01*
X158822820Y-64884951D01*
X158822115Y-64884591D01*
X158814054Y-64880485D01*
X158763259Y-64832512D01*
X158746463Y-64764692D01*
X158768999Y-64698556D01*
X158814054Y-64659515D01*
X158822816Y-64655051D01*
X158888200Y-64607547D01*
X158994786Y-64530109D01*
X158994788Y-64530106D01*
X158994792Y-64530104D01*
X159145104Y-64379792D01*
X159145106Y-64379788D01*
X159145109Y-64379786D01*
X159270048Y-64207820D01*
X159270047Y-64207820D01*
X159270051Y-64207816D01*
X159366557Y-64018412D01*
X159432246Y-63816243D01*
X159465500Y-63606287D01*
X159465500Y-63393713D01*
X159432246Y-63183757D01*
X159366557Y-62981588D01*
X159270051Y-62792184D01*
X159270049Y-62792181D01*
X159270048Y-62792179D01*
X159145109Y-62620213D01*
X159031569Y-62506673D01*
X158998084Y-62445350D01*
X159003068Y-62375658D01*
X159044940Y-62319725D01*
X159075915Y-62302810D01*
X159207331Y-62253796D01*
X159322546Y-62167546D01*
X159408796Y-62052331D01*
X159459091Y-61917483D01*
X159465500Y-61857873D01*
X159465499Y-60496228D01*
X159485184Y-60429190D01*
X159537987Y-60383435D01*
X159607146Y-60373491D01*
X159670702Y-60402516D01*
G37*
%TD.AperFunction*%
%TA.AperFunction,Conductor*%
G36*
X136430062Y-61730185D02*
G01*
X136475817Y-61782989D01*
X136483266Y-61810134D01*
X136484124Y-61809932D01*
X136485907Y-61817479D01*
X136536202Y-61952328D01*
X136536206Y-61952335D01*
X136622452Y-62067544D01*
X136622454Y-62067546D01*
X136682277Y-62112330D01*
X136724149Y-62168263D01*
X136729133Y-62237954D01*
X136695648Y-62299277D01*
X136682279Y-62310862D01*
X136572809Y-62392812D01*
X136486649Y-62507906D01*
X136486645Y-62507913D01*
X136436403Y-62642620D01*
X136436401Y-62642627D01*
X136430000Y-62702155D01*
X136430000Y-64297844D01*
X136436401Y-64357372D01*
X136436403Y-64357379D01*
X136486645Y-64492086D01*
X136486649Y-64492093D01*
X136572808Y-64607186D01*
X136657278Y-64670420D01*
X136699149Y-64726354D01*
X136704133Y-64796046D01*
X136670648Y-64857369D01*
X136657279Y-64868953D01*
X136572452Y-64932455D01*
X136486206Y-65047664D01*
X136486202Y-65047671D01*
X136435908Y-65182517D01*
X136434126Y-65190062D01*
X136431853Y-65189525D01*
X136409571Y-65243312D01*
X136352177Y-65283157D01*
X136313024Y-65289500D01*
X135172221Y-65289500D01*
X135105182Y-65269815D01*
X135071903Y-65238385D01*
X135015107Y-65160211D01*
X134864786Y-65009890D01*
X134692817Y-64884949D01*
X134683504Y-64880204D01*
X134632707Y-64832230D01*
X134615912Y-64764409D01*
X134638449Y-64698274D01*
X134683507Y-64659232D01*
X134692555Y-64654622D01*
X134746716Y-64615270D01*
X134746717Y-64615270D01*
X134114408Y-63982962D01*
X134177993Y-63965925D01*
X134292007Y-63900099D01*
X134385099Y-63807007D01*
X134450925Y-63692993D01*
X134467962Y-63629409D01*
X135100270Y-64261717D01*
X135100270Y-64261716D01*
X135139622Y-64207554D01*
X135236095Y-64018217D01*
X135301757Y-63816130D01*
X135301757Y-63816127D01*
X135335000Y-63606246D01*
X135335000Y-63393753D01*
X135301757Y-63183872D01*
X135301757Y-63183869D01*
X135236095Y-62981782D01*
X135139624Y-62792449D01*
X135100270Y-62738282D01*
X135100269Y-62738282D01*
X134467962Y-63370590D01*
X134450925Y-63307007D01*
X134385099Y-63192993D01*
X134292007Y-63099901D01*
X134177993Y-63034075D01*
X134114409Y-63017037D01*
X134784627Y-62346818D01*
X134845950Y-62313333D01*
X134872307Y-62310499D01*
X134882872Y-62310499D01*
X134942483Y-62304091D01*
X135077331Y-62253796D01*
X135192546Y-62167546D01*
X135278796Y-62052331D01*
X135329091Y-61917483D01*
X135335500Y-61857873D01*
X135335500Y-61834500D01*
X135355185Y-61767461D01*
X135407989Y-61721706D01*
X135459500Y-61710500D01*
X136363023Y-61710500D01*
X136430062Y-61730185D01*
G37*
%TD.AperFunction*%
%TD*%
M02*
