%TF.GenerationSoftware,KiCad,Pcbnew,9.0.7*%
%TF.CreationDate,2026-04-07T08:38:22+02:00*%
%TF.ProjectId,smart_plants_breakout_ws-board_rev1,736d6172-745f-4706-9c61-6e74735f6272,rev?*%
%TF.SameCoordinates,Original*%
%TF.FileFunction,Legend,Top*%
%TF.FilePolarity,Positive*%
%FSLAX46Y46*%
G04 Gerber Fmt 4.6, Leading zero omitted, Abs format (unit mm)*
G04 Created by KiCad (PCBNEW 9.0.7) date 2026-04-07 08:38:22*
%MOMM*%
%LPD*%
G01*
G04 APERTURE LIST*
%ADD10C,0.150000*%
%ADD11C,0.100000*%
%ADD12C,0.120000*%
G04 APERTURE END LIST*
D10*
X167840819Y-81764094D02*
X166840819Y-81764094D01*
X166840819Y-81764094D02*
X166840819Y-81525999D01*
X166840819Y-81525999D02*
X166888438Y-81383142D01*
X166888438Y-81383142D02*
X166983676Y-81287904D01*
X166983676Y-81287904D02*
X167078914Y-81240285D01*
X167078914Y-81240285D02*
X167269390Y-81192666D01*
X167269390Y-81192666D02*
X167412247Y-81192666D01*
X167412247Y-81192666D02*
X167602723Y-81240285D01*
X167602723Y-81240285D02*
X167697961Y-81287904D01*
X167697961Y-81287904D02*
X167793200Y-81383142D01*
X167793200Y-81383142D02*
X167840819Y-81525999D01*
X167840819Y-81525999D02*
X167840819Y-81764094D01*
X167840819Y-80240285D02*
X167840819Y-80811713D01*
X167840819Y-80525999D02*
X166840819Y-80525999D01*
X166840819Y-80525999D02*
X166983676Y-80621237D01*
X166983676Y-80621237D02*
X167078914Y-80716475D01*
X167078914Y-80716475D02*
X167126533Y-80811713D01*
X167840819Y-88907904D02*
X166840819Y-88907904D01*
X167840819Y-88336476D02*
X167269390Y-88765047D01*
X166840819Y-88336476D02*
X167412247Y-88907904D01*
D11*
X134372419Y-82631904D02*
X135181942Y-82631904D01*
X135181942Y-82631904D02*
X135277180Y-82584285D01*
X135277180Y-82584285D02*
X135324800Y-82536666D01*
X135324800Y-82536666D02*
X135372419Y-82441428D01*
X135372419Y-82441428D02*
X135372419Y-82250952D01*
X135372419Y-82250952D02*
X135324800Y-82155714D01*
X135324800Y-82155714D02*
X135277180Y-82108095D01*
X135277180Y-82108095D02*
X135181942Y-82060476D01*
X135181942Y-82060476D02*
X134372419Y-82060476D01*
X135372419Y-81060476D02*
X135372419Y-81631904D01*
X135372419Y-81346190D02*
X134372419Y-81346190D01*
X134372419Y-81346190D02*
X134515276Y-81441428D01*
X134515276Y-81441428D02*
X134610514Y-81536666D01*
X134610514Y-81536666D02*
X134658133Y-81631904D01*
D10*
X124152819Y-80875094D02*
X123152819Y-80875094D01*
X123152819Y-80875094D02*
X123152819Y-80636999D01*
X123152819Y-80636999D02*
X123200438Y-80494142D01*
X123200438Y-80494142D02*
X123295676Y-80398904D01*
X123295676Y-80398904D02*
X123390914Y-80351285D01*
X123390914Y-80351285D02*
X123581390Y-80303666D01*
X123581390Y-80303666D02*
X123724247Y-80303666D01*
X123724247Y-80303666D02*
X123914723Y-80351285D01*
X123914723Y-80351285D02*
X124009961Y-80398904D01*
X124009961Y-80398904D02*
X124105200Y-80494142D01*
X124105200Y-80494142D02*
X124152819Y-80636999D01*
X124152819Y-80636999D02*
X124152819Y-80875094D01*
X123248057Y-79922713D02*
X123200438Y-79875094D01*
X123200438Y-79875094D02*
X123152819Y-79779856D01*
X123152819Y-79779856D02*
X123152819Y-79541761D01*
X123152819Y-79541761D02*
X123200438Y-79446523D01*
X123200438Y-79446523D02*
X123248057Y-79398904D01*
X123248057Y-79398904D02*
X123343295Y-79351285D01*
X123343295Y-79351285D02*
X123438533Y-79351285D01*
X123438533Y-79351285D02*
X123581390Y-79398904D01*
X123581390Y-79398904D02*
X124152819Y-79970332D01*
X124152819Y-79970332D02*
X124152819Y-79351285D01*
X123517819Y-72778904D02*
X122517819Y-72778904D01*
X123517819Y-72207476D02*
X122946390Y-72636047D01*
X122517819Y-72207476D02*
X123089247Y-72778904D01*
X130756819Y-79668666D02*
X130280628Y-80001999D01*
X130756819Y-80240094D02*
X129756819Y-80240094D01*
X129756819Y-80240094D02*
X129756819Y-79859142D01*
X129756819Y-79859142D02*
X129804438Y-79763904D01*
X129804438Y-79763904D02*
X129852057Y-79716285D01*
X129852057Y-79716285D02*
X129947295Y-79668666D01*
X129947295Y-79668666D02*
X130090152Y-79668666D01*
X130090152Y-79668666D02*
X130185390Y-79716285D01*
X130185390Y-79716285D02*
X130233009Y-79763904D01*
X130233009Y-79763904D02*
X130280628Y-79859142D01*
X130280628Y-79859142D02*
X130280628Y-80240094D01*
X129852057Y-79287713D02*
X129804438Y-79240094D01*
X129804438Y-79240094D02*
X129756819Y-79144856D01*
X129756819Y-79144856D02*
X129756819Y-78906761D01*
X129756819Y-78906761D02*
X129804438Y-78811523D01*
X129804438Y-78811523D02*
X129852057Y-78763904D01*
X129852057Y-78763904D02*
X129947295Y-78716285D01*
X129947295Y-78716285D02*
X130042533Y-78716285D01*
X130042533Y-78716285D02*
X130185390Y-78763904D01*
X130185390Y-78763904D02*
X130756819Y-79335332D01*
X130756819Y-79335332D02*
X130756819Y-78716285D01*
X150018761Y-85386057D02*
X149923523Y-85338438D01*
X149923523Y-85338438D02*
X149828285Y-85243200D01*
X149828285Y-85243200D02*
X149685428Y-85100342D01*
X149685428Y-85100342D02*
X149590190Y-85052723D01*
X149590190Y-85052723D02*
X149494952Y-85052723D01*
X149542571Y-85290819D02*
X149447333Y-85243200D01*
X149447333Y-85243200D02*
X149352095Y-85147961D01*
X149352095Y-85147961D02*
X149304476Y-84957485D01*
X149304476Y-84957485D02*
X149304476Y-84624152D01*
X149304476Y-84624152D02*
X149352095Y-84433676D01*
X149352095Y-84433676D02*
X149447333Y-84338438D01*
X149447333Y-84338438D02*
X149542571Y-84290819D01*
X149542571Y-84290819D02*
X149733047Y-84290819D01*
X149733047Y-84290819D02*
X149828285Y-84338438D01*
X149828285Y-84338438D02*
X149923523Y-84433676D01*
X149923523Y-84433676D02*
X149971142Y-84624152D01*
X149971142Y-84624152D02*
X149971142Y-84957485D01*
X149971142Y-84957485D02*
X149923523Y-85147961D01*
X149923523Y-85147961D02*
X149828285Y-85243200D01*
X149828285Y-85243200D02*
X149733047Y-85290819D01*
X149733047Y-85290819D02*
X149542571Y-85290819D01*
X150923523Y-85290819D02*
X150352095Y-85290819D01*
X150637809Y-85290819D02*
X150637809Y-84290819D01*
X150637809Y-84290819D02*
X150542571Y-84433676D01*
X150542571Y-84433676D02*
X150447333Y-84528914D01*
X150447333Y-84528914D02*
X150352095Y-84576533D01*
X125563333Y-66907580D02*
X125515714Y-66955200D01*
X125515714Y-66955200D02*
X125372857Y-67002819D01*
X125372857Y-67002819D02*
X125277619Y-67002819D01*
X125277619Y-67002819D02*
X125134762Y-66955200D01*
X125134762Y-66955200D02*
X125039524Y-66859961D01*
X125039524Y-66859961D02*
X124991905Y-66764723D01*
X124991905Y-66764723D02*
X124944286Y-66574247D01*
X124944286Y-66574247D02*
X124944286Y-66431390D01*
X124944286Y-66431390D02*
X124991905Y-66240914D01*
X124991905Y-66240914D02*
X125039524Y-66145676D01*
X125039524Y-66145676D02*
X125134762Y-66050438D01*
X125134762Y-66050438D02*
X125277619Y-66002819D01*
X125277619Y-66002819D02*
X125372857Y-66002819D01*
X125372857Y-66002819D02*
X125515714Y-66050438D01*
X125515714Y-66050438D02*
X125563333Y-66098057D01*
X125944286Y-66098057D02*
X125991905Y-66050438D01*
X125991905Y-66050438D02*
X126087143Y-66002819D01*
X126087143Y-66002819D02*
X126325238Y-66002819D01*
X126325238Y-66002819D02*
X126420476Y-66050438D01*
X126420476Y-66050438D02*
X126468095Y-66098057D01*
X126468095Y-66098057D02*
X126515714Y-66193295D01*
X126515714Y-66193295D02*
X126515714Y-66288533D01*
X126515714Y-66288533D02*
X126468095Y-66431390D01*
X126468095Y-66431390D02*
X125896667Y-67002819D01*
X125896667Y-67002819D02*
X126515714Y-67002819D01*
X126920666Y-94831819D02*
X126920666Y-95546104D01*
X126920666Y-95546104D02*
X126873047Y-95688961D01*
X126873047Y-95688961D02*
X126777809Y-95784200D01*
X126777809Y-95784200D02*
X126634952Y-95831819D01*
X126634952Y-95831819D02*
X126539714Y-95831819D01*
X127301619Y-94831819D02*
X127968285Y-94831819D01*
X127968285Y-94831819D02*
X127539714Y-95831819D01*
X138136666Y-86576819D02*
X138136666Y-87291104D01*
X138136666Y-87291104D02*
X138089047Y-87433961D01*
X138089047Y-87433961D02*
X137993809Y-87529200D01*
X137993809Y-87529200D02*
X137850952Y-87576819D01*
X137850952Y-87576819D02*
X137755714Y-87576819D01*
X138660476Y-87576819D02*
X138850952Y-87576819D01*
X138850952Y-87576819D02*
X138946190Y-87529200D01*
X138946190Y-87529200D02*
X138993809Y-87481580D01*
X138993809Y-87481580D02*
X139089047Y-87338723D01*
X139089047Y-87338723D02*
X139136666Y-87148247D01*
X139136666Y-87148247D02*
X139136666Y-86767295D01*
X139136666Y-86767295D02*
X139089047Y-86672057D01*
X139089047Y-86672057D02*
X139041428Y-86624438D01*
X139041428Y-86624438D02*
X138946190Y-86576819D01*
X138946190Y-86576819D02*
X138755714Y-86576819D01*
X138755714Y-86576819D02*
X138660476Y-86624438D01*
X138660476Y-86624438D02*
X138612857Y-86672057D01*
X138612857Y-86672057D02*
X138565238Y-86767295D01*
X138565238Y-86767295D02*
X138565238Y-87005390D01*
X138565238Y-87005390D02*
X138612857Y-87100628D01*
X138612857Y-87100628D02*
X138660476Y-87148247D01*
X138660476Y-87148247D02*
X138755714Y-87195866D01*
X138755714Y-87195866D02*
X138946190Y-87195866D01*
X138946190Y-87195866D02*
X139041428Y-87148247D01*
X139041428Y-87148247D02*
X139089047Y-87100628D01*
X139089047Y-87100628D02*
X139136666Y-87005390D01*
X153082666Y-101054819D02*
X153082666Y-101769104D01*
X153082666Y-101769104D02*
X153035047Y-101911961D01*
X153035047Y-101911961D02*
X152939809Y-102007200D01*
X152939809Y-102007200D02*
X152796952Y-102054819D01*
X152796952Y-102054819D02*
X152701714Y-102054819D01*
X154035047Y-101054819D02*
X153558857Y-101054819D01*
X153558857Y-101054819D02*
X153511238Y-101531009D01*
X153511238Y-101531009D02*
X153558857Y-101483390D01*
X153558857Y-101483390D02*
X153654095Y-101435771D01*
X153654095Y-101435771D02*
X153892190Y-101435771D01*
X153892190Y-101435771D02*
X153987428Y-101483390D01*
X153987428Y-101483390D02*
X154035047Y-101531009D01*
X154035047Y-101531009D02*
X154082666Y-101626247D01*
X154082666Y-101626247D02*
X154082666Y-101864342D01*
X154082666Y-101864342D02*
X154035047Y-101959580D01*
X154035047Y-101959580D02*
X153987428Y-102007200D01*
X153987428Y-102007200D02*
X153892190Y-102054819D01*
X153892190Y-102054819D02*
X153654095Y-102054819D01*
X153654095Y-102054819D02*
X153558857Y-102007200D01*
X153558857Y-102007200D02*
X153511238Y-101959580D01*
X159401333Y-85957580D02*
X159353714Y-86005200D01*
X159353714Y-86005200D02*
X159210857Y-86052819D01*
X159210857Y-86052819D02*
X159115619Y-86052819D01*
X159115619Y-86052819D02*
X158972762Y-86005200D01*
X158972762Y-86005200D02*
X158877524Y-85909961D01*
X158877524Y-85909961D02*
X158829905Y-85814723D01*
X158829905Y-85814723D02*
X158782286Y-85624247D01*
X158782286Y-85624247D02*
X158782286Y-85481390D01*
X158782286Y-85481390D02*
X158829905Y-85290914D01*
X158829905Y-85290914D02*
X158877524Y-85195676D01*
X158877524Y-85195676D02*
X158972762Y-85100438D01*
X158972762Y-85100438D02*
X159115619Y-85052819D01*
X159115619Y-85052819D02*
X159210857Y-85052819D01*
X159210857Y-85052819D02*
X159353714Y-85100438D01*
X159353714Y-85100438D02*
X159401333Y-85148057D01*
X159734667Y-85052819D02*
X160353714Y-85052819D01*
X160353714Y-85052819D02*
X160020381Y-85433771D01*
X160020381Y-85433771D02*
X160163238Y-85433771D01*
X160163238Y-85433771D02*
X160258476Y-85481390D01*
X160258476Y-85481390D02*
X160306095Y-85529009D01*
X160306095Y-85529009D02*
X160353714Y-85624247D01*
X160353714Y-85624247D02*
X160353714Y-85862342D01*
X160353714Y-85862342D02*
X160306095Y-85957580D01*
X160306095Y-85957580D02*
X160258476Y-86005200D01*
X160258476Y-86005200D02*
X160163238Y-86052819D01*
X160163238Y-86052819D02*
X159877524Y-86052819D01*
X159877524Y-86052819D02*
X159782286Y-86005200D01*
X159782286Y-86005200D02*
X159734667Y-85957580D01*
X127454819Y-79668666D02*
X126978628Y-80001999D01*
X127454819Y-80240094D02*
X126454819Y-80240094D01*
X126454819Y-80240094D02*
X126454819Y-79859142D01*
X126454819Y-79859142D02*
X126502438Y-79763904D01*
X126502438Y-79763904D02*
X126550057Y-79716285D01*
X126550057Y-79716285D02*
X126645295Y-79668666D01*
X126645295Y-79668666D02*
X126788152Y-79668666D01*
X126788152Y-79668666D02*
X126883390Y-79716285D01*
X126883390Y-79716285D02*
X126931009Y-79763904D01*
X126931009Y-79763904D02*
X126978628Y-79859142D01*
X126978628Y-79859142D02*
X126978628Y-80240094D01*
X127454819Y-78716285D02*
X127454819Y-79287713D01*
X127454819Y-79001999D02*
X126454819Y-79001999D01*
X126454819Y-79001999D02*
X126597676Y-79097237D01*
X126597676Y-79097237D02*
X126692914Y-79192475D01*
X126692914Y-79192475D02*
X126740533Y-79287713D01*
X139620666Y-93942819D02*
X139620666Y-94657104D01*
X139620666Y-94657104D02*
X139573047Y-94799961D01*
X139573047Y-94799961D02*
X139477809Y-94895200D01*
X139477809Y-94895200D02*
X139334952Y-94942819D01*
X139334952Y-94942819D02*
X139239714Y-94942819D01*
X140001619Y-93942819D02*
X140620666Y-93942819D01*
X140620666Y-93942819D02*
X140287333Y-94323771D01*
X140287333Y-94323771D02*
X140430190Y-94323771D01*
X140430190Y-94323771D02*
X140525428Y-94371390D01*
X140525428Y-94371390D02*
X140573047Y-94419009D01*
X140573047Y-94419009D02*
X140620666Y-94514247D01*
X140620666Y-94514247D02*
X140620666Y-94752342D01*
X140620666Y-94752342D02*
X140573047Y-94847580D01*
X140573047Y-94847580D02*
X140525428Y-94895200D01*
X140525428Y-94895200D02*
X140430190Y-94942819D01*
X140430190Y-94942819D02*
X140144476Y-94942819D01*
X140144476Y-94942819D02*
X140049238Y-94895200D01*
X140049238Y-94895200D02*
X140001619Y-94847580D01*
X161744819Y-71286666D02*
X161268628Y-71619999D01*
X161744819Y-71858094D02*
X160744819Y-71858094D01*
X160744819Y-71858094D02*
X160744819Y-71477142D01*
X160744819Y-71477142D02*
X160792438Y-71381904D01*
X160792438Y-71381904D02*
X160840057Y-71334285D01*
X160840057Y-71334285D02*
X160935295Y-71286666D01*
X160935295Y-71286666D02*
X161078152Y-71286666D01*
X161078152Y-71286666D02*
X161173390Y-71334285D01*
X161173390Y-71334285D02*
X161221009Y-71381904D01*
X161221009Y-71381904D02*
X161268628Y-71477142D01*
X161268628Y-71477142D02*
X161268628Y-71858094D01*
X160744819Y-70429523D02*
X160744819Y-70619999D01*
X160744819Y-70619999D02*
X160792438Y-70715237D01*
X160792438Y-70715237D02*
X160840057Y-70762856D01*
X160840057Y-70762856D02*
X160982914Y-70858094D01*
X160982914Y-70858094D02*
X161173390Y-70905713D01*
X161173390Y-70905713D02*
X161554342Y-70905713D01*
X161554342Y-70905713D02*
X161649580Y-70858094D01*
X161649580Y-70858094D02*
X161697200Y-70810475D01*
X161697200Y-70810475D02*
X161744819Y-70715237D01*
X161744819Y-70715237D02*
X161744819Y-70524761D01*
X161744819Y-70524761D02*
X161697200Y-70429523D01*
X161697200Y-70429523D02*
X161649580Y-70381904D01*
X161649580Y-70381904D02*
X161554342Y-70334285D01*
X161554342Y-70334285D02*
X161316247Y-70334285D01*
X161316247Y-70334285D02*
X161221009Y-70381904D01*
X161221009Y-70381904D02*
X161173390Y-70429523D01*
X161173390Y-70429523D02*
X161125771Y-70524761D01*
X161125771Y-70524761D02*
X161125771Y-70715237D01*
X161125771Y-70715237D02*
X161173390Y-70810475D01*
X161173390Y-70810475D02*
X161221009Y-70858094D01*
X161221009Y-70858094D02*
X161316247Y-70905713D01*
X153082666Y-93942819D02*
X153082666Y-94657104D01*
X153082666Y-94657104D02*
X153035047Y-94799961D01*
X153035047Y-94799961D02*
X152939809Y-94895200D01*
X152939809Y-94895200D02*
X152796952Y-94942819D01*
X152796952Y-94942819D02*
X152701714Y-94942819D01*
X153987428Y-93942819D02*
X153796952Y-93942819D01*
X153796952Y-93942819D02*
X153701714Y-93990438D01*
X153701714Y-93990438D02*
X153654095Y-94038057D01*
X153654095Y-94038057D02*
X153558857Y-94180914D01*
X153558857Y-94180914D02*
X153511238Y-94371390D01*
X153511238Y-94371390D02*
X153511238Y-94752342D01*
X153511238Y-94752342D02*
X153558857Y-94847580D01*
X153558857Y-94847580D02*
X153606476Y-94895200D01*
X153606476Y-94895200D02*
X153701714Y-94942819D01*
X153701714Y-94942819D02*
X153892190Y-94942819D01*
X153892190Y-94942819D02*
X153987428Y-94895200D01*
X153987428Y-94895200D02*
X154035047Y-94847580D01*
X154035047Y-94847580D02*
X154082666Y-94752342D01*
X154082666Y-94752342D02*
X154082666Y-94514247D01*
X154082666Y-94514247D02*
X154035047Y-94419009D01*
X154035047Y-94419009D02*
X153987428Y-94371390D01*
X153987428Y-94371390D02*
X153892190Y-94323771D01*
X153892190Y-94323771D02*
X153701714Y-94323771D01*
X153701714Y-94323771D02*
X153606476Y-94371390D01*
X153606476Y-94371390D02*
X153558857Y-94419009D01*
X153558857Y-94419009D02*
X153511238Y-94514247D01*
X125920667Y-88672200D02*
X126063524Y-88719819D01*
X126063524Y-88719819D02*
X126301619Y-88719819D01*
X126301619Y-88719819D02*
X126396857Y-88672200D01*
X126396857Y-88672200D02*
X126444476Y-88624580D01*
X126444476Y-88624580D02*
X126492095Y-88529342D01*
X126492095Y-88529342D02*
X126492095Y-88434104D01*
X126492095Y-88434104D02*
X126444476Y-88338866D01*
X126444476Y-88338866D02*
X126396857Y-88291247D01*
X126396857Y-88291247D02*
X126301619Y-88243628D01*
X126301619Y-88243628D02*
X126111143Y-88196009D01*
X126111143Y-88196009D02*
X126015905Y-88148390D01*
X126015905Y-88148390D02*
X125968286Y-88100771D01*
X125968286Y-88100771D02*
X125920667Y-88005533D01*
X125920667Y-88005533D02*
X125920667Y-87910295D01*
X125920667Y-87910295D02*
X125968286Y-87815057D01*
X125968286Y-87815057D02*
X126015905Y-87767438D01*
X126015905Y-87767438D02*
X126111143Y-87719819D01*
X126111143Y-87719819D02*
X126349238Y-87719819D01*
X126349238Y-87719819D02*
X126492095Y-87767438D01*
X126825429Y-87719819D02*
X127063524Y-88719819D01*
X127063524Y-88719819D02*
X127254000Y-88005533D01*
X127254000Y-88005533D02*
X127444476Y-88719819D01*
X127444476Y-88719819D02*
X127682572Y-87719819D01*
X128587333Y-88719819D02*
X128015905Y-88719819D01*
X128301619Y-88719819D02*
X128301619Y-87719819D01*
X128301619Y-87719819D02*
X128206381Y-87862676D01*
X128206381Y-87862676D02*
X128111143Y-87957914D01*
X128111143Y-87957914D02*
X128015905Y-88005533D01*
X165454819Y-73833333D02*
X166169104Y-73833333D01*
X166169104Y-73833333D02*
X166311961Y-73880952D01*
X166311961Y-73880952D02*
X166407200Y-73976190D01*
X166407200Y-73976190D02*
X166454819Y-74119047D01*
X166454819Y-74119047D02*
X166454819Y-74214285D01*
X165788152Y-72928571D02*
X166454819Y-72928571D01*
X165407200Y-73166666D02*
X166121485Y-73404761D01*
X166121485Y-73404761D02*
X166121485Y-72785714D01*
X164564476Y-94450819D02*
X164564476Y-95165104D01*
X164564476Y-95165104D02*
X164516857Y-95307961D01*
X164516857Y-95307961D02*
X164421619Y-95403200D01*
X164421619Y-95403200D02*
X164278762Y-95450819D01*
X164278762Y-95450819D02*
X164183524Y-95450819D01*
X165564476Y-95450819D02*
X164993048Y-95450819D01*
X165278762Y-95450819D02*
X165278762Y-94450819D01*
X165278762Y-94450819D02*
X165183524Y-94593676D01*
X165183524Y-94593676D02*
X165088286Y-94688914D01*
X165088286Y-94688914D02*
X164993048Y-94736533D01*
X166183524Y-94450819D02*
X166278762Y-94450819D01*
X166278762Y-94450819D02*
X166374000Y-94498438D01*
X166374000Y-94498438D02*
X166421619Y-94546057D01*
X166421619Y-94546057D02*
X166469238Y-94641295D01*
X166469238Y-94641295D02*
X166516857Y-94831771D01*
X166516857Y-94831771D02*
X166516857Y-95069866D01*
X166516857Y-95069866D02*
X166469238Y-95260342D01*
X166469238Y-95260342D02*
X166421619Y-95355580D01*
X166421619Y-95355580D02*
X166374000Y-95403200D01*
X166374000Y-95403200D02*
X166278762Y-95450819D01*
X166278762Y-95450819D02*
X166183524Y-95450819D01*
X166183524Y-95450819D02*
X166088286Y-95403200D01*
X166088286Y-95403200D02*
X166040667Y-95355580D01*
X166040667Y-95355580D02*
X165993048Y-95260342D01*
X165993048Y-95260342D02*
X165945429Y-95069866D01*
X165945429Y-95069866D02*
X165945429Y-94831771D01*
X165945429Y-94831771D02*
X165993048Y-94641295D01*
X165993048Y-94641295D02*
X166040667Y-94546057D01*
X166040667Y-94546057D02*
X166088286Y-94498438D01*
X166088286Y-94498438D02*
X166183524Y-94450819D01*
X138890476Y-101054819D02*
X138890476Y-101769104D01*
X138890476Y-101769104D02*
X138842857Y-101911961D01*
X138842857Y-101911961D02*
X138747619Y-102007200D01*
X138747619Y-102007200D02*
X138604762Y-102054819D01*
X138604762Y-102054819D02*
X138509524Y-102054819D01*
X139890476Y-102054819D02*
X139319048Y-102054819D01*
X139604762Y-102054819D02*
X139604762Y-101054819D01*
X139604762Y-101054819D02*
X139509524Y-101197676D01*
X139509524Y-101197676D02*
X139414286Y-101292914D01*
X139414286Y-101292914D02*
X139319048Y-101340533D01*
X140842857Y-102054819D02*
X140271429Y-102054819D01*
X140557143Y-102054819D02*
X140557143Y-101054819D01*
X140557143Y-101054819D02*
X140461905Y-101197676D01*
X140461905Y-101197676D02*
X140366667Y-101292914D01*
X140366667Y-101292914D02*
X140271429Y-101340533D01*
D12*
%TO.C,D1*%
X165916000Y-83234000D02*
X168856000Y-83234000D01*
X165916000Y-83354000D02*
X168856000Y-83354000D01*
X165916000Y-83474000D02*
X168856000Y-83474000D01*
X167386000Y-77794000D02*
X167386000Y-78814000D01*
X167386000Y-85274000D02*
X167386000Y-84254000D01*
X165916000Y-84254000D02*
X168856000Y-84254000D01*
X168856000Y-78814000D01*
X165916000Y-78814000D01*
X165916000Y-84254000D01*
%TO.C,U1*%
X136800000Y-59313000D02*
X155300000Y-59313000D01*
X155300000Y-82813000D01*
X136800000Y-82813000D01*
X136800000Y-59313000D01*
%TO.C,D2*%
X123698000Y-75762000D02*
X123698000Y-76782000D01*
X123698000Y-83242000D02*
X123698000Y-82222000D01*
X125168000Y-77562000D02*
X122228000Y-77562000D01*
X125168000Y-77682000D02*
X122228000Y-77682000D01*
X125168000Y-77802000D02*
X122228000Y-77802000D01*
X125168000Y-76782000D02*
X122228000Y-76782000D01*
X122228000Y-82222000D01*
X125168000Y-82222000D01*
X125168000Y-76782000D01*
%TO.C,R2*%
X130302000Y-75462000D02*
X130302000Y-76232000D01*
X130302000Y-83542000D02*
X130302000Y-82772000D01*
X128932000Y-82772000D02*
X131672000Y-82772000D01*
X131672000Y-76232000D01*
X128932000Y-76232000D01*
X128932000Y-82772000D01*
%TO.C,Q1*%
X145004000Y-85894000D02*
X155224000Y-85894000D01*
X145004000Y-87274000D02*
X155224000Y-87274000D01*
X145004000Y-90514000D02*
X145004000Y-85894000D01*
X148264000Y-85894000D02*
X148264000Y-87274000D01*
X151964000Y-85894000D02*
X151964000Y-87274000D01*
X155224000Y-85894000D02*
X155224000Y-90514000D01*
X155224000Y-90514000D02*
X145004000Y-90514000D01*
%TO.C,C2*%
X122745302Y-66265000D02*
X123545302Y-66265000D01*
X123145302Y-65865000D02*
X123145302Y-66665000D01*
X127155000Y-64500000D02*
X127155000Y-72660000D01*
X127195000Y-64500000D02*
X127195000Y-72660000D01*
X127235000Y-64501000D02*
X127235000Y-72659000D01*
X127275000Y-64502000D02*
X127275000Y-72658000D01*
X127315000Y-64503000D02*
X127315000Y-72657000D01*
X127355000Y-64505000D02*
X127355000Y-72655000D01*
X127395000Y-64507000D02*
X127395000Y-72653000D01*
X127435000Y-64510000D02*
X127435000Y-72650000D01*
X127475000Y-64512000D02*
X127475000Y-72648000D01*
X127515000Y-64516000D02*
X127515000Y-72644000D01*
X127555000Y-64519000D02*
X127555000Y-72641000D01*
X127595000Y-64524000D02*
X127595000Y-72636000D01*
X127635000Y-64528000D02*
X127635000Y-72632000D01*
X127675000Y-64533000D02*
X127675000Y-72627000D01*
X127715000Y-64538000D02*
X127715000Y-72622000D01*
X127755000Y-64544000D02*
X127755000Y-72616000D01*
X127795000Y-64550000D02*
X127795000Y-72610000D01*
X127835000Y-64557000D02*
X127835000Y-72603000D01*
X127875000Y-64563000D02*
X127875000Y-67540000D01*
X127875000Y-69620000D02*
X127875000Y-72597000D01*
X127915000Y-64571000D02*
X127915000Y-67540000D01*
X127915000Y-69620000D02*
X127915000Y-72589000D01*
X127955000Y-64578000D02*
X127955000Y-67540000D01*
X127955000Y-69620000D02*
X127955000Y-72582000D01*
X127995000Y-64587000D02*
X127995000Y-67540000D01*
X127995000Y-69620000D02*
X127995000Y-72573000D01*
X128035000Y-64595000D02*
X128035000Y-67540000D01*
X128035000Y-69620000D02*
X128035000Y-72565000D01*
X128075000Y-64604000D02*
X128075000Y-67540000D01*
X128075000Y-69620000D02*
X128075000Y-72556000D01*
X128115000Y-64613000D02*
X128115000Y-67540000D01*
X128115000Y-69620000D02*
X128115000Y-72547000D01*
X128155000Y-64623000D02*
X128155000Y-67540000D01*
X128155000Y-69620000D02*
X128155000Y-72537000D01*
X128195000Y-64633000D02*
X128195000Y-67540000D01*
X128195000Y-69620000D02*
X128195000Y-72527000D01*
X128235000Y-64644000D02*
X128235000Y-67540000D01*
X128235000Y-69620000D02*
X128235000Y-72516000D01*
X128275000Y-64655000D02*
X128275000Y-67540000D01*
X128275000Y-69620000D02*
X128275000Y-72505000D01*
X128315000Y-64667000D02*
X128315000Y-67540000D01*
X128315000Y-69620000D02*
X128315000Y-72493000D01*
X128355000Y-64679000D02*
X128355000Y-67540000D01*
X128355000Y-69620000D02*
X128355000Y-72481000D01*
X128395000Y-64691000D02*
X128395000Y-67540000D01*
X128395000Y-69620000D02*
X128395000Y-72469000D01*
X128435000Y-64704000D02*
X128435000Y-67540000D01*
X128435000Y-69620000D02*
X128435000Y-72456000D01*
X128475000Y-64717000D02*
X128475000Y-67540000D01*
X128475000Y-69620000D02*
X128475000Y-72443000D01*
X128515000Y-64731000D02*
X128515000Y-67540000D01*
X128515000Y-69620000D02*
X128515000Y-72429000D01*
X128555000Y-64745000D02*
X128555000Y-67540000D01*
X128555000Y-69620000D02*
X128555000Y-72415000D01*
X128595000Y-64760000D02*
X128595000Y-67540000D01*
X128595000Y-69620000D02*
X128595000Y-72400000D01*
X128635000Y-64775000D02*
X128635000Y-67540000D01*
X128635000Y-69620000D02*
X128635000Y-72385000D01*
X128675000Y-64791000D02*
X128675000Y-67540000D01*
X128675000Y-69620000D02*
X128675000Y-72369000D01*
X128715000Y-64807000D02*
X128715000Y-67540000D01*
X128715000Y-69620000D02*
X128715000Y-72353000D01*
X128755000Y-64823000D02*
X128755000Y-67540000D01*
X128755000Y-69620000D02*
X128755000Y-72337000D01*
X128795000Y-64840000D02*
X128795000Y-67540000D01*
X128795000Y-69620000D02*
X128795000Y-72320000D01*
X128835000Y-64858000D02*
X128835000Y-67540000D01*
X128835000Y-69620000D02*
X128835000Y-72302000D01*
X128875000Y-64876000D02*
X128875000Y-67540000D01*
X128875000Y-69620000D02*
X128875000Y-72284000D01*
X128915000Y-64895000D02*
X128915000Y-67540000D01*
X128915000Y-69620000D02*
X128915000Y-72265000D01*
X128955000Y-64914000D02*
X128955000Y-67540000D01*
X128955000Y-69620000D02*
X128955000Y-72246000D01*
X128995000Y-64934000D02*
X128995000Y-67540000D01*
X128995000Y-69620000D02*
X128995000Y-72226000D01*
X129035000Y-64954000D02*
X129035000Y-67540000D01*
X129035000Y-69620000D02*
X129035000Y-72206000D01*
X129075000Y-64975000D02*
X129075000Y-67540000D01*
X129075000Y-69620000D02*
X129075000Y-72185000D01*
X129115000Y-64996000D02*
X129115000Y-67540000D01*
X129115000Y-69620000D02*
X129115000Y-72164000D01*
X129155000Y-65018000D02*
X129155000Y-67540000D01*
X129155000Y-69620000D02*
X129155000Y-72142000D01*
X129195000Y-65041000D02*
X129195000Y-67540000D01*
X129195000Y-69620000D02*
X129195000Y-72119000D01*
X129235000Y-65064000D02*
X129235000Y-67540000D01*
X129235000Y-69620000D02*
X129235000Y-72096000D01*
X129275000Y-65087000D02*
X129275000Y-67540000D01*
X129275000Y-69620000D02*
X129275000Y-72073000D01*
X129315000Y-65112000D02*
X129315000Y-67540000D01*
X129315000Y-69620000D02*
X129315000Y-72048000D01*
X129355000Y-65137000D02*
X129355000Y-67540000D01*
X129355000Y-69620000D02*
X129355000Y-72023000D01*
X129395000Y-65162000D02*
X129395000Y-67540000D01*
X129395000Y-69620000D02*
X129395000Y-71998000D01*
X129435000Y-65188000D02*
X129435000Y-67540000D01*
X129435000Y-69620000D02*
X129435000Y-71972000D01*
X129475000Y-65215000D02*
X129475000Y-67540000D01*
X129475000Y-69620000D02*
X129475000Y-71945000D01*
X129515000Y-65243000D02*
X129515000Y-67540000D01*
X129515000Y-69620000D02*
X129515000Y-71917000D01*
X129555000Y-65271000D02*
X129555000Y-67540000D01*
X129555000Y-69620000D02*
X129555000Y-71889000D01*
X129595000Y-65300000D02*
X129595000Y-67540000D01*
X129595000Y-69620000D02*
X129595000Y-71860000D01*
X129635000Y-65330000D02*
X129635000Y-67540000D01*
X129635000Y-69620000D02*
X129635000Y-71830000D01*
X129675000Y-65361000D02*
X129675000Y-67540000D01*
X129675000Y-69620000D02*
X129675000Y-71799000D01*
X129715000Y-65392000D02*
X129715000Y-67540000D01*
X129715000Y-69620000D02*
X129715000Y-71768000D01*
X129755000Y-65424000D02*
X129755000Y-67540000D01*
X129755000Y-69620000D02*
X129755000Y-71736000D01*
X129795000Y-65457000D02*
X129795000Y-67540000D01*
X129795000Y-69620000D02*
X129795000Y-71703000D01*
X129835000Y-65491000D02*
X129835000Y-67540000D01*
X129835000Y-69620000D02*
X129835000Y-71669000D01*
X129875000Y-65525000D02*
X129875000Y-67540000D01*
X129875000Y-69620000D02*
X129875000Y-71635000D01*
X129915000Y-65561000D02*
X129915000Y-67540000D01*
X129915000Y-69620000D02*
X129915000Y-71599000D01*
X129955000Y-65598000D02*
X129955000Y-71562000D01*
X129995000Y-65635000D02*
X129995000Y-71525000D01*
X130035000Y-65674000D02*
X130035000Y-71486000D01*
X130075000Y-65713000D02*
X130075000Y-71447000D01*
X130115000Y-65754000D02*
X130115000Y-71406000D01*
X130155000Y-65796000D02*
X130155000Y-71364000D01*
X130195000Y-65839000D02*
X130195000Y-71321000D01*
X130235000Y-65884000D02*
X130235000Y-71276000D01*
X130275000Y-65929000D02*
X130275000Y-71231000D01*
X130315000Y-65976000D02*
X130315000Y-71184000D01*
X130355000Y-66025000D02*
X130355000Y-71135000D01*
X130395000Y-66075000D02*
X130395000Y-71085000D01*
X130435000Y-66127000D02*
X130435000Y-71033000D01*
X130475000Y-66180000D02*
X130475000Y-70980000D01*
X130515000Y-66236000D02*
X130515000Y-70924000D01*
X130555000Y-66293000D02*
X130555000Y-70867000D01*
X130595000Y-66353000D02*
X130595000Y-70807000D01*
X130635000Y-66415000D02*
X130635000Y-70745000D01*
X130675000Y-66479000D02*
X130675000Y-70681000D01*
X130715000Y-66546000D02*
X130715000Y-70614000D01*
X130755000Y-66616000D02*
X130755000Y-70544000D01*
X130795000Y-66690000D02*
X130795000Y-70470000D01*
X130835000Y-66767000D02*
X130835000Y-70393000D01*
X130875000Y-66849000D02*
X130875000Y-70311000D01*
X130915000Y-66936000D02*
X130915000Y-70224000D01*
X130955000Y-67028000D02*
X130955000Y-70132000D01*
X130995000Y-67127000D02*
X130995000Y-70033000D01*
X131035000Y-67234000D02*
X131035000Y-69926000D01*
X131075000Y-67352000D02*
X131075000Y-69808000D01*
X131115000Y-67483000D02*
X131115000Y-69677000D01*
X131155000Y-67633000D02*
X131155000Y-69527000D01*
X131195000Y-67812000D02*
X131195000Y-69348000D01*
X131235000Y-68047000D02*
X131235000Y-69113000D01*
X131275000Y-68580000D02*
G75*
G02*
X123035000Y-68580000I-4120000J0D01*
G01*
X123035000Y-68580000D02*
G75*
G02*
X131275000Y-68580000I4120000J0D01*
G01*
%TO.C,J7*%
X123464000Y-93772000D02*
X123464000Y-99742000D01*
X123464000Y-99742000D02*
X131084000Y-99742000D01*
X123474000Y-97482000D02*
X124224000Y-97482000D01*
X123474000Y-98982000D02*
X123474000Y-99732000D01*
X123474000Y-99732000D02*
X125274000Y-99732000D01*
X124224000Y-94532000D02*
X127274000Y-94532000D01*
X124224000Y-97482000D02*
X124224000Y-94532000D01*
X125274000Y-98982000D02*
X123474000Y-98982000D01*
X125274000Y-99732000D02*
X125274000Y-98982000D01*
X126774000Y-98982000D02*
X126774000Y-99732000D01*
X126774000Y-99732000D02*
X127774000Y-99732000D01*
X127774000Y-98982000D02*
X126774000Y-98982000D01*
X127774000Y-99732000D02*
X127774000Y-98982000D01*
X129274000Y-98982000D02*
X129274000Y-99732000D01*
X129274000Y-99732000D02*
X131074000Y-99732000D01*
X130124000Y-100032000D02*
X131374000Y-100032000D01*
X130324000Y-94532000D02*
X127274000Y-94532000D01*
X130324000Y-97482000D02*
X130324000Y-94532000D01*
X131074000Y-97482000D02*
X130324000Y-97482000D01*
X131074000Y-98982000D02*
X129274000Y-98982000D01*
X131074000Y-99732000D02*
X131074000Y-98982000D01*
X131084000Y-93772000D02*
X123464000Y-93772000D01*
X131084000Y-99742000D02*
X131084000Y-93772000D01*
X131374000Y-100032000D02*
X131374000Y-98782000D01*
%TO.C,J9*%
X133410000Y-85390000D02*
X133410000Y-91360000D01*
X133410000Y-91360000D02*
X143530000Y-91360000D01*
X133420000Y-89100000D02*
X134170000Y-89100000D01*
X133420000Y-90600000D02*
X133420000Y-91350000D01*
X133420000Y-91350000D02*
X135220000Y-91350000D01*
X134170000Y-86150000D02*
X138470000Y-86150000D01*
X134170000Y-89100000D02*
X134170000Y-86150000D01*
X135220000Y-90600000D02*
X133420000Y-90600000D01*
X135220000Y-91350000D02*
X135220000Y-90600000D01*
X136720000Y-90600000D02*
X136720000Y-91350000D01*
X136720000Y-91350000D02*
X140220000Y-91350000D01*
X140220000Y-90600000D02*
X136720000Y-90600000D01*
X140220000Y-91350000D02*
X140220000Y-90600000D01*
X141720000Y-90600000D02*
X141720000Y-91350000D01*
X141720000Y-91350000D02*
X143520000Y-91350000D01*
X142570000Y-91650000D02*
X143820000Y-91650000D01*
X142770000Y-86150000D02*
X138470000Y-86150000D01*
X142770000Y-89100000D02*
X142770000Y-86150000D01*
X143520000Y-89100000D02*
X142770000Y-89100000D01*
X143520000Y-90600000D02*
X141720000Y-90600000D01*
X143520000Y-91350000D02*
X143520000Y-90600000D01*
X143530000Y-85390000D02*
X133410000Y-85390000D01*
X143530000Y-91360000D02*
X143530000Y-85390000D01*
X143820000Y-91650000D02*
X143820000Y-90400000D01*
%TO.C,J1*%
X132655000Y-62230000D02*
X132655000Y-82610000D01*
X132655000Y-62230000D02*
X135315000Y-62230000D01*
X132655000Y-82610000D02*
X135315000Y-82610000D01*
X133985000Y-59630000D02*
X135315000Y-59630000D01*
X135315000Y-59630000D02*
X135315000Y-60960000D01*
X135315000Y-62230000D02*
X135315000Y-82610000D01*
%TO.C,J5*%
X147106000Y-99885000D02*
X147106000Y-105855000D01*
X147106000Y-105855000D02*
X159726000Y-105855000D01*
X147116000Y-103595000D02*
X147866000Y-103595000D01*
X147116000Y-105095000D02*
X147116000Y-105845000D01*
X147116000Y-105845000D02*
X148916000Y-105845000D01*
X147866000Y-100645000D02*
X153416000Y-100645000D01*
X147866000Y-103595000D02*
X147866000Y-100645000D01*
X148916000Y-105095000D02*
X147116000Y-105095000D01*
X148916000Y-105845000D02*
X148916000Y-105095000D01*
X150416000Y-105095000D02*
X150416000Y-105845000D01*
X150416000Y-105845000D02*
X156416000Y-105845000D01*
X156416000Y-105095000D02*
X150416000Y-105095000D01*
X156416000Y-105845000D02*
X156416000Y-105095000D01*
X157916000Y-105095000D02*
X157916000Y-105845000D01*
X157916000Y-105845000D02*
X159716000Y-105845000D01*
X158766000Y-106145000D02*
X160016000Y-106145000D01*
X158966000Y-100645000D02*
X153416000Y-100645000D01*
X158966000Y-103595000D02*
X158966000Y-100645000D01*
X159716000Y-103595000D02*
X158966000Y-103595000D01*
X159716000Y-105095000D02*
X157916000Y-105095000D01*
X159716000Y-105845000D02*
X159716000Y-105095000D01*
X159726000Y-99885000D02*
X147106000Y-99885000D01*
X159726000Y-105855000D02*
X159726000Y-99885000D01*
X160016000Y-106145000D02*
X160016000Y-104895000D01*
%TO.C,C3*%
X156400302Y-85315000D02*
X157200302Y-85315000D01*
X156800302Y-84915000D02*
X156800302Y-85715000D01*
X160810000Y-83550000D02*
X160810000Y-91710000D01*
X160850000Y-83550000D02*
X160850000Y-91710000D01*
X160890000Y-83551000D02*
X160890000Y-91709000D01*
X160930000Y-83552000D02*
X160930000Y-91708000D01*
X160970000Y-83553000D02*
X160970000Y-91707000D01*
X161010000Y-83555000D02*
X161010000Y-91705000D01*
X161050000Y-83557000D02*
X161050000Y-91703000D01*
X161090000Y-83560000D02*
X161090000Y-91700000D01*
X161130000Y-83562000D02*
X161130000Y-91698000D01*
X161170000Y-83566000D02*
X161170000Y-91694000D01*
X161210000Y-83569000D02*
X161210000Y-91691000D01*
X161250000Y-83574000D02*
X161250000Y-91686000D01*
X161290000Y-83578000D02*
X161290000Y-91682000D01*
X161330000Y-83583000D02*
X161330000Y-91677000D01*
X161370000Y-83588000D02*
X161370000Y-91672000D01*
X161410000Y-83594000D02*
X161410000Y-91666000D01*
X161450000Y-83600000D02*
X161450000Y-91660000D01*
X161490000Y-83607000D02*
X161490000Y-91653000D01*
X161530000Y-83613000D02*
X161530000Y-86590000D01*
X161530000Y-88670000D02*
X161530000Y-91647000D01*
X161570000Y-83621000D02*
X161570000Y-86590000D01*
X161570000Y-88670000D02*
X161570000Y-91639000D01*
X161610000Y-83628000D02*
X161610000Y-86590000D01*
X161610000Y-88670000D02*
X161610000Y-91632000D01*
X161650000Y-83637000D02*
X161650000Y-86590000D01*
X161650000Y-88670000D02*
X161650000Y-91623000D01*
X161690000Y-83645000D02*
X161690000Y-86590000D01*
X161690000Y-88670000D02*
X161690000Y-91615000D01*
X161730000Y-83654000D02*
X161730000Y-86590000D01*
X161730000Y-88670000D02*
X161730000Y-91606000D01*
X161770000Y-83663000D02*
X161770000Y-86590000D01*
X161770000Y-88670000D02*
X161770000Y-91597000D01*
X161810000Y-83673000D02*
X161810000Y-86590000D01*
X161810000Y-88670000D02*
X161810000Y-91587000D01*
X161850000Y-83683000D02*
X161850000Y-86590000D01*
X161850000Y-88670000D02*
X161850000Y-91577000D01*
X161890000Y-83694000D02*
X161890000Y-86590000D01*
X161890000Y-88670000D02*
X161890000Y-91566000D01*
X161930000Y-83705000D02*
X161930000Y-86590000D01*
X161930000Y-88670000D02*
X161930000Y-91555000D01*
X161970000Y-83717000D02*
X161970000Y-86590000D01*
X161970000Y-88670000D02*
X161970000Y-91543000D01*
X162010000Y-83729000D02*
X162010000Y-86590000D01*
X162010000Y-88670000D02*
X162010000Y-91531000D01*
X162050000Y-83741000D02*
X162050000Y-86590000D01*
X162050000Y-88670000D02*
X162050000Y-91519000D01*
X162090000Y-83754000D02*
X162090000Y-86590000D01*
X162090000Y-88670000D02*
X162090000Y-91506000D01*
X162130000Y-83767000D02*
X162130000Y-86590000D01*
X162130000Y-88670000D02*
X162130000Y-91493000D01*
X162170000Y-83781000D02*
X162170000Y-86590000D01*
X162170000Y-88670000D02*
X162170000Y-91479000D01*
X162210000Y-83795000D02*
X162210000Y-86590000D01*
X162210000Y-88670000D02*
X162210000Y-91465000D01*
X162250000Y-83810000D02*
X162250000Y-86590000D01*
X162250000Y-88670000D02*
X162250000Y-91450000D01*
X162290000Y-83825000D02*
X162290000Y-86590000D01*
X162290000Y-88670000D02*
X162290000Y-91435000D01*
X162330000Y-83841000D02*
X162330000Y-86590000D01*
X162330000Y-88670000D02*
X162330000Y-91419000D01*
X162370000Y-83857000D02*
X162370000Y-86590000D01*
X162370000Y-88670000D02*
X162370000Y-91403000D01*
X162410000Y-83873000D02*
X162410000Y-86590000D01*
X162410000Y-88670000D02*
X162410000Y-91387000D01*
X162450000Y-83890000D02*
X162450000Y-86590000D01*
X162450000Y-88670000D02*
X162450000Y-91370000D01*
X162490000Y-83908000D02*
X162490000Y-86590000D01*
X162490000Y-88670000D02*
X162490000Y-91352000D01*
X162530000Y-83926000D02*
X162530000Y-86590000D01*
X162530000Y-88670000D02*
X162530000Y-91334000D01*
X162570000Y-83945000D02*
X162570000Y-86590000D01*
X162570000Y-88670000D02*
X162570000Y-91315000D01*
X162610000Y-83964000D02*
X162610000Y-86590000D01*
X162610000Y-88670000D02*
X162610000Y-91296000D01*
X162650000Y-83984000D02*
X162650000Y-86590000D01*
X162650000Y-88670000D02*
X162650000Y-91276000D01*
X162690000Y-84004000D02*
X162690000Y-86590000D01*
X162690000Y-88670000D02*
X162690000Y-91256000D01*
X162730000Y-84025000D02*
X162730000Y-86590000D01*
X162730000Y-88670000D02*
X162730000Y-91235000D01*
X162770000Y-84046000D02*
X162770000Y-86590000D01*
X162770000Y-88670000D02*
X162770000Y-91214000D01*
X162810000Y-84068000D02*
X162810000Y-86590000D01*
X162810000Y-88670000D02*
X162810000Y-91192000D01*
X162850000Y-84091000D02*
X162850000Y-86590000D01*
X162850000Y-88670000D02*
X162850000Y-91169000D01*
X162890000Y-84114000D02*
X162890000Y-86590000D01*
X162890000Y-88670000D02*
X162890000Y-91146000D01*
X162930000Y-84137000D02*
X162930000Y-86590000D01*
X162930000Y-88670000D02*
X162930000Y-91123000D01*
X162970000Y-84162000D02*
X162970000Y-86590000D01*
X162970000Y-88670000D02*
X162970000Y-91098000D01*
X163010000Y-84187000D02*
X163010000Y-86590000D01*
X163010000Y-88670000D02*
X163010000Y-91073000D01*
X163050000Y-84212000D02*
X163050000Y-86590000D01*
X163050000Y-88670000D02*
X163050000Y-91048000D01*
X163090000Y-84238000D02*
X163090000Y-86590000D01*
X163090000Y-88670000D02*
X163090000Y-91022000D01*
X163130000Y-84265000D02*
X163130000Y-86590000D01*
X163130000Y-88670000D02*
X163130000Y-90995000D01*
X163170000Y-84293000D02*
X163170000Y-86590000D01*
X163170000Y-88670000D02*
X163170000Y-90967000D01*
X163210000Y-84321000D02*
X163210000Y-86590000D01*
X163210000Y-88670000D02*
X163210000Y-90939000D01*
X163250000Y-84350000D02*
X163250000Y-86590000D01*
X163250000Y-88670000D02*
X163250000Y-90910000D01*
X163290000Y-84380000D02*
X163290000Y-86590000D01*
X163290000Y-88670000D02*
X163290000Y-90880000D01*
X163330000Y-84411000D02*
X163330000Y-86590000D01*
X163330000Y-88670000D02*
X163330000Y-90849000D01*
X163370000Y-84442000D02*
X163370000Y-86590000D01*
X163370000Y-88670000D02*
X163370000Y-90818000D01*
X163410000Y-84474000D02*
X163410000Y-86590000D01*
X163410000Y-88670000D02*
X163410000Y-90786000D01*
X163450000Y-84507000D02*
X163450000Y-86590000D01*
X163450000Y-88670000D02*
X163450000Y-90753000D01*
X163490000Y-84541000D02*
X163490000Y-86590000D01*
X163490000Y-88670000D02*
X163490000Y-90719000D01*
X163530000Y-84575000D02*
X163530000Y-86590000D01*
X163530000Y-88670000D02*
X163530000Y-90685000D01*
X163570000Y-84611000D02*
X163570000Y-86590000D01*
X163570000Y-88670000D02*
X163570000Y-90649000D01*
X163610000Y-84648000D02*
X163610000Y-90612000D01*
X163650000Y-84685000D02*
X163650000Y-90575000D01*
X163690000Y-84724000D02*
X163690000Y-90536000D01*
X163730000Y-84763000D02*
X163730000Y-90497000D01*
X163770000Y-84804000D02*
X163770000Y-90456000D01*
X163810000Y-84846000D02*
X163810000Y-90414000D01*
X163850000Y-84889000D02*
X163850000Y-90371000D01*
X163890000Y-84934000D02*
X163890000Y-90326000D01*
X163930000Y-84979000D02*
X163930000Y-90281000D01*
X163970000Y-85026000D02*
X163970000Y-90234000D01*
X164010000Y-85075000D02*
X164010000Y-90185000D01*
X164050000Y-85125000D02*
X164050000Y-90135000D01*
X164090000Y-85177000D02*
X164090000Y-90083000D01*
X164130000Y-85230000D02*
X164130000Y-90030000D01*
X164170000Y-85286000D02*
X164170000Y-89974000D01*
X164210000Y-85343000D02*
X164210000Y-89917000D01*
X164250000Y-85403000D02*
X164250000Y-89857000D01*
X164290000Y-85465000D02*
X164290000Y-89795000D01*
X164330000Y-85529000D02*
X164330000Y-89731000D01*
X164370000Y-85596000D02*
X164370000Y-89664000D01*
X164410000Y-85666000D02*
X164410000Y-89594000D01*
X164450000Y-85740000D02*
X164450000Y-89520000D01*
X164490000Y-85817000D02*
X164490000Y-89443000D01*
X164530000Y-85899000D02*
X164530000Y-89361000D01*
X164570000Y-85986000D02*
X164570000Y-89274000D01*
X164610000Y-86078000D02*
X164610000Y-89182000D01*
X164650000Y-86177000D02*
X164650000Y-89083000D01*
X164690000Y-86284000D02*
X164690000Y-88976000D01*
X164730000Y-86402000D02*
X164730000Y-88858000D01*
X164770000Y-86533000D02*
X164770000Y-88727000D01*
X164810000Y-86683000D02*
X164810000Y-88577000D01*
X164850000Y-86862000D02*
X164850000Y-88398000D01*
X164890000Y-87097000D02*
X164890000Y-88163000D01*
X164930000Y-87630000D02*
G75*
G02*
X156690000Y-87630000I-4120000J0D01*
G01*
X156690000Y-87630000D02*
G75*
G02*
X164930000Y-87630000I4120000J0D01*
G01*
%TO.C,R1*%
X127000000Y-75462000D02*
X127000000Y-76232000D01*
X127000000Y-83542000D02*
X127000000Y-82772000D01*
X125630000Y-82772000D02*
X128370000Y-82772000D01*
X128370000Y-76232000D01*
X125630000Y-76232000D01*
X125630000Y-82772000D01*
%TO.C,J3*%
X133390000Y-92773000D02*
X133390000Y-98743000D01*
X133390000Y-98743000D02*
X146010000Y-98743000D01*
X133400000Y-96483000D02*
X134150000Y-96483000D01*
X133400000Y-97983000D02*
X133400000Y-98733000D01*
X133400000Y-98733000D02*
X135200000Y-98733000D01*
X134150000Y-93533000D02*
X139700000Y-93533000D01*
X134150000Y-96483000D02*
X134150000Y-93533000D01*
X135200000Y-97983000D02*
X133400000Y-97983000D01*
X135200000Y-98733000D02*
X135200000Y-97983000D01*
X136700000Y-97983000D02*
X136700000Y-98733000D01*
X136700000Y-98733000D02*
X142700000Y-98733000D01*
X142700000Y-97983000D02*
X136700000Y-97983000D01*
X142700000Y-98733000D02*
X142700000Y-97983000D01*
X144200000Y-97983000D02*
X144200000Y-98733000D01*
X144200000Y-98733000D02*
X146000000Y-98733000D01*
X145050000Y-99033000D02*
X146300000Y-99033000D01*
X145250000Y-93533000D02*
X139700000Y-93533000D01*
X145250000Y-96483000D02*
X145250000Y-93533000D01*
X146000000Y-96483000D02*
X145250000Y-96483000D01*
X146000000Y-97983000D02*
X144200000Y-97983000D01*
X146000000Y-98733000D02*
X146000000Y-97983000D01*
X146010000Y-92773000D02*
X133390000Y-92773000D01*
X146010000Y-98743000D02*
X146010000Y-92773000D01*
X146300000Y-99033000D02*
X146300000Y-97783000D01*
%TO.C,R6*%
X161544000Y-67334000D02*
X161544000Y-68104000D01*
X161544000Y-75414000D02*
X161544000Y-74644000D01*
X160174000Y-74644000D02*
X162914000Y-74644000D01*
X162914000Y-68104000D01*
X160174000Y-68104000D01*
X160174000Y-74644000D01*
%TO.C,J6*%
X147106000Y-92773000D02*
X147106000Y-98743000D01*
X147106000Y-98743000D02*
X159726000Y-98743000D01*
X147116000Y-96483000D02*
X147866000Y-96483000D01*
X147116000Y-97983000D02*
X147116000Y-98733000D01*
X147116000Y-98733000D02*
X148916000Y-98733000D01*
X147866000Y-93533000D02*
X153416000Y-93533000D01*
X147866000Y-96483000D02*
X147866000Y-93533000D01*
X148916000Y-97983000D02*
X147116000Y-97983000D01*
X148916000Y-98733000D02*
X148916000Y-97983000D01*
X150416000Y-97983000D02*
X150416000Y-98733000D01*
X150416000Y-98733000D02*
X156416000Y-98733000D01*
X156416000Y-97983000D02*
X150416000Y-97983000D01*
X156416000Y-98733000D02*
X156416000Y-97983000D01*
X157916000Y-97983000D02*
X157916000Y-98733000D01*
X157916000Y-98733000D02*
X159716000Y-98733000D01*
X158766000Y-99033000D02*
X160016000Y-99033000D01*
X158966000Y-93533000D02*
X153416000Y-93533000D01*
X158966000Y-96483000D02*
X158966000Y-93533000D01*
X159716000Y-96483000D02*
X158966000Y-96483000D01*
X159716000Y-97983000D02*
X157916000Y-97983000D01*
X159716000Y-98733000D02*
X159716000Y-97983000D01*
X159726000Y-92773000D02*
X147106000Y-92773000D01*
X159726000Y-98743000D02*
X159726000Y-92773000D01*
X160016000Y-99033000D02*
X160016000Y-97783000D01*
%TO.C,SW1*%
X123464000Y-86660000D02*
X123464000Y-92630000D01*
X123464000Y-92630000D02*
X131084000Y-92630000D01*
X123474000Y-90370000D02*
X124224000Y-90370000D01*
X123474000Y-91870000D02*
X123474000Y-92620000D01*
X123474000Y-92620000D02*
X125274000Y-92620000D01*
X124224000Y-87420000D02*
X127274000Y-87420000D01*
X124224000Y-90370000D02*
X124224000Y-87420000D01*
X125274000Y-91870000D02*
X123474000Y-91870000D01*
X125274000Y-92620000D02*
X125274000Y-91870000D01*
X126774000Y-91870000D02*
X126774000Y-92620000D01*
X126774000Y-92620000D02*
X127774000Y-92620000D01*
X127774000Y-91870000D02*
X126774000Y-91870000D01*
X127774000Y-92620000D02*
X127774000Y-91870000D01*
X129274000Y-91870000D02*
X129274000Y-92620000D01*
X129274000Y-92620000D02*
X131074000Y-92620000D01*
X130124000Y-92920000D02*
X131374000Y-92920000D01*
X130324000Y-87420000D02*
X127274000Y-87420000D01*
X130324000Y-90370000D02*
X130324000Y-87420000D01*
X131074000Y-90370000D02*
X130324000Y-90370000D01*
X131074000Y-91870000D02*
X129274000Y-91870000D01*
X131074000Y-92620000D02*
X131074000Y-91870000D01*
X131084000Y-86660000D02*
X123464000Y-86660000D01*
X131084000Y-92630000D02*
X131084000Y-86660000D01*
X131374000Y-92920000D02*
X131374000Y-91670000D01*
%TO.C,J2*%
X156785000Y-62230000D02*
X156785000Y-82610000D01*
X156785000Y-62230000D02*
X159445000Y-62230000D01*
X156785000Y-82610000D02*
X159445000Y-82610000D01*
X158115000Y-59630000D02*
X159445000Y-59630000D01*
X159445000Y-59630000D02*
X159445000Y-60960000D01*
X159445000Y-62230000D02*
X159445000Y-82610000D01*
%TO.C,J4*%
X164832000Y-66662000D02*
X164832000Y-71562000D01*
X164832000Y-69012000D02*
X165332000Y-69012000D01*
X164832000Y-69112000D02*
X165332000Y-69112000D01*
X164832000Y-71562000D02*
X168332000Y-71562000D01*
X165332000Y-69012000D02*
X165332000Y-69212000D01*
X165332000Y-69212000D02*
X164832000Y-69212000D01*
X166332000Y-66052000D02*
X166332000Y-66662000D01*
X166332000Y-72172000D02*
X166332000Y-71562000D01*
X167632000Y-66052000D02*
X167632000Y-66662000D01*
X167632000Y-72172000D02*
X167632000Y-71562000D01*
X168332000Y-66662000D02*
X164832000Y-66662000D01*
X168332000Y-68612000D02*
X168332000Y-66662000D01*
X168332000Y-69612000D02*
X168942000Y-69612000D01*
X168332000Y-71562000D02*
X168332000Y-69612000D01*
X168942000Y-67812000D02*
X169142000Y-67812000D01*
X168942000Y-68612000D02*
X168332000Y-68612000D01*
X169042000Y-67812000D02*
X169042000Y-67512000D01*
X169142000Y-67512000D02*
X168942000Y-67512000D01*
X169142000Y-67812000D02*
X169142000Y-67512000D01*
X169242000Y-65752000D02*
X167992000Y-65752000D01*
X169242000Y-67002000D02*
X169242000Y-65752000D01*
X168942000Y-66052000D02*
X164222000Y-66052000D01*
X164222000Y-72172000D01*
X168942000Y-72172000D01*
X168942000Y-66052000D01*
%TO.C,J10*%
X161564000Y-93518000D02*
X161564000Y-99488000D01*
X161564000Y-99488000D02*
X169184000Y-99488000D01*
X161574000Y-97228000D02*
X162324000Y-97228000D01*
X161574000Y-98728000D02*
X161574000Y-99478000D01*
X161574000Y-99478000D02*
X163374000Y-99478000D01*
X162324000Y-94278000D02*
X165374000Y-94278000D01*
X162324000Y-97228000D02*
X162324000Y-94278000D01*
X163374000Y-98728000D02*
X161574000Y-98728000D01*
X163374000Y-99478000D02*
X163374000Y-98728000D01*
X164874000Y-98728000D02*
X164874000Y-99478000D01*
X164874000Y-99478000D02*
X165874000Y-99478000D01*
X165874000Y-98728000D02*
X164874000Y-98728000D01*
X165874000Y-99478000D02*
X165874000Y-98728000D01*
X167374000Y-98728000D02*
X167374000Y-99478000D01*
X167374000Y-99478000D02*
X169174000Y-99478000D01*
X168224000Y-99778000D02*
X169474000Y-99778000D01*
X168424000Y-94278000D02*
X165374000Y-94278000D01*
X168424000Y-97228000D02*
X168424000Y-94278000D01*
X169174000Y-97228000D02*
X168424000Y-97228000D01*
X169174000Y-98728000D02*
X167374000Y-98728000D01*
X169174000Y-99478000D02*
X169174000Y-98728000D01*
X169184000Y-93518000D02*
X161564000Y-93518000D01*
X169184000Y-99488000D02*
X169184000Y-93518000D01*
X169474000Y-99778000D02*
X169474000Y-98528000D01*
%TO.C,J11*%
X133390000Y-99885000D02*
X133390000Y-105855000D01*
X133390000Y-105855000D02*
X146010000Y-105855000D01*
X133400000Y-103595000D02*
X134150000Y-103595000D01*
X133400000Y-105095000D02*
X133400000Y-105845000D01*
X133400000Y-105845000D02*
X135200000Y-105845000D01*
X134150000Y-100645000D02*
X139700000Y-100645000D01*
X134150000Y-103595000D02*
X134150000Y-100645000D01*
X135200000Y-105095000D02*
X133400000Y-105095000D01*
X135200000Y-105845000D02*
X135200000Y-105095000D01*
X136700000Y-105095000D02*
X136700000Y-105845000D01*
X136700000Y-105845000D02*
X142700000Y-105845000D01*
X142700000Y-105095000D02*
X136700000Y-105095000D01*
X142700000Y-105845000D02*
X142700000Y-105095000D01*
X144200000Y-105095000D02*
X144200000Y-105845000D01*
X144200000Y-105845000D02*
X146000000Y-105845000D01*
X145050000Y-106145000D02*
X146300000Y-106145000D01*
X145250000Y-100645000D02*
X139700000Y-100645000D01*
X145250000Y-103595000D02*
X145250000Y-100645000D01*
X146000000Y-103595000D02*
X145250000Y-103595000D01*
X146000000Y-105095000D02*
X144200000Y-105095000D01*
X146000000Y-105845000D02*
X146000000Y-105095000D01*
X146010000Y-99885000D02*
X133390000Y-99885000D01*
X146010000Y-105855000D02*
X146010000Y-99885000D01*
X146300000Y-106145000D02*
X146300000Y-104895000D01*
%TD*%
M02*
