%TF.GenerationSoftware,KiCad,Pcbnew,9.0.7*%
%TF.CreationDate,2026-04-07T08:38:22+02:00*%
%TF.ProjectId,smart_plants_breakout_ws-board_rev1,736d6172-745f-4706-9c61-6e74735f6272,rev?*%
%TF.SameCoordinates,Original*%
%TF.FileFunction,Soldermask,Top*%
%TF.FilePolarity,Negative*%
%FSLAX46Y46*%
G04 Gerber Fmt 4.6, Leading zero omitted, Abs format (unit mm)*
G04 Created by KiCad (PCBNEW 9.0.7) date 2026-04-07 08:38:22*
%MOMM*%
%LPD*%
G01*
G04 APERTURE LIST*
G04 Aperture macros list*
%AMRoundRect*
0 Rectangle with rounded corners*
0 $1 Rounding radius*
0 $2 $3 $4 $5 $6 $7 $8 $9 X,Y pos of 4 corners*
0 Add a 4 corners polygon primitive as box body*
4,1,4,$2,$3,$4,$5,$6,$7,$8,$9,$2,$3,0*
0 Add four circle primitives for the rounded corners*
1,1,$1+$1,$2,$3*
1,1,$1+$1,$4,$5*
1,1,$1+$1,$6,$7*
1,1,$1+$1,$8,$9*
0 Add four rect primitives between the rounded corners*
20,1,$1+$1,$2,$3,$4,$5,0*
20,1,$1+$1,$4,$5,$6,$7,0*
20,1,$1+$1,$6,$7,$8,$9,0*
20,1,$1+$1,$8,$9,$2,$3,0*%
G04 Aperture macros list end*
%ADD10C,2.700000*%
%ADD11RoundRect,0.249999X0.850001X-0.850001X0.850001X0.850001X-0.850001X0.850001X-0.850001X-0.850001X0*%
%ADD12C,2.200000*%
%ADD13R,2.900000X1.500000*%
%ADD14R,3.000000X1.500000*%
%ADD15RoundRect,0.249999X-0.850001X0.850001X-0.850001X-0.850001X0.850001X-0.850001X0.850001X0.850001X0*%
%ADD16C,1.600000*%
%ADD17R,1.905000X2.000000*%
%ADD18O,1.905000X2.000000*%
%ADD19RoundRect,0.250000X-0.550000X-0.550000X0.550000X-0.550000X0.550000X0.550000X-0.550000X0.550000X0*%
%ADD20RoundRect,0.250000X0.600000X0.750000X-0.600000X0.750000X-0.600000X-0.750000X0.600000X-0.750000X0*%
%ADD21O,1.700000X2.000000*%
%ADD22RoundRect,0.250000X0.600000X0.725000X-0.600000X0.725000X-0.600000X-0.725000X0.600000X-0.725000X0*%
%ADD23O,1.700000X1.950000*%
%ADD24R,1.700000X1.700000*%
%ADD25C,1.700000*%
%ADD26RoundRect,0.250000X-0.625000X0.350000X-0.625000X-0.350000X0.625000X-0.350000X0.625000X0.350000X0*%
%ADD27O,1.750000X1.200000*%
G04 APERTURE END LIST*
D10*
%TO.C,H4*%
X124920000Y-61420000D03*
%TD*%
%TO.C,H3*%
X124920000Y-103680000D03*
%TD*%
D11*
%TO.C,D1*%
X167386000Y-86614000D03*
D12*
X167386000Y-76454000D03*
%TD*%
D13*
%TO.C,U1*%
X138430000Y-60960000D03*
D14*
X138430000Y-63500000D03*
X138430000Y-66040000D03*
X138430000Y-68580000D03*
X138430000Y-71120000D03*
X138430000Y-73660000D03*
X138430000Y-76200000D03*
X138430000Y-78740000D03*
X138430000Y-81280000D03*
X153670000Y-81280000D03*
X153670000Y-78740000D03*
X153670000Y-76200000D03*
X153670000Y-73660000D03*
X153670000Y-71120000D03*
X153670000Y-68580000D03*
X153670000Y-66040000D03*
X153670000Y-63500000D03*
X153670000Y-60960000D03*
%TD*%
D15*
%TO.C,D2*%
X123698000Y-74422000D03*
D12*
X123698000Y-84582000D03*
%TD*%
D16*
%TO.C,R2*%
X130302000Y-84582000D03*
X130302000Y-74422000D03*
%TD*%
D17*
%TO.C,Q1*%
X147574000Y-89154000D03*
D18*
X150114000Y-89154000D03*
X152654000Y-89154000D03*
%TD*%
D19*
%TO.C,C2*%
X125405000Y-68580000D03*
D16*
X128905000Y-68580000D03*
%TD*%
D20*
%TO.C,J7*%
X128524000Y-97282000D03*
D21*
X126024000Y-97282000D03*
%TD*%
D22*
%TO.C,J9*%
X140970000Y-88900000D03*
D23*
X138470000Y-88900000D03*
X135970000Y-88900000D03*
%TD*%
D10*
%TO.C,H1*%
X167180000Y-61420000D03*
%TD*%
D24*
%TO.C,J1*%
X133985000Y-60960000D03*
D25*
X133985000Y-63500000D03*
X133985000Y-66040000D03*
X133985000Y-68580000D03*
X133985000Y-71120000D03*
X133985000Y-73660000D03*
X133985000Y-76200000D03*
X133985000Y-78740000D03*
X133985000Y-81280000D03*
%TD*%
D22*
%TO.C,J5*%
X157166000Y-103395000D03*
D23*
X154666000Y-103395000D03*
X152166000Y-103395000D03*
X149666000Y-103395000D03*
%TD*%
D19*
%TO.C,C3*%
X159060000Y-87630000D03*
D16*
X162560000Y-87630000D03*
%TD*%
D10*
%TO.C,H2*%
X167180000Y-103680000D03*
%TD*%
D16*
%TO.C,R1*%
X127000000Y-84582000D03*
X127000000Y-74422000D03*
%TD*%
D22*
%TO.C,J3*%
X143450000Y-96283000D03*
D23*
X140950000Y-96283000D03*
X138450000Y-96283000D03*
X135950000Y-96283000D03*
%TD*%
D16*
%TO.C,R6*%
X161544000Y-76454000D03*
X161544000Y-66294000D03*
%TD*%
D22*
%TO.C,J6*%
X157166000Y-96283000D03*
D23*
X154666000Y-96283000D03*
X152166000Y-96283000D03*
X149666000Y-96283000D03*
%TD*%
D20*
%TO.C,SW1*%
X128524000Y-90170000D03*
D21*
X126024000Y-90170000D03*
%TD*%
D24*
%TO.C,J2*%
X158115000Y-60960000D03*
D25*
X158115000Y-63500000D03*
X158115000Y-66040000D03*
X158115000Y-68580000D03*
X158115000Y-71120000D03*
X158115000Y-73660000D03*
X158115000Y-76200000D03*
X158115000Y-78740000D03*
X158115000Y-81280000D03*
%TD*%
D26*
%TO.C,J4*%
X167132000Y-68112000D03*
D27*
X167132000Y-70112000D03*
%TD*%
D20*
%TO.C,J10*%
X166624000Y-97028000D03*
D21*
X164124000Y-97028000D03*
%TD*%
D22*
%TO.C,J11*%
X143450000Y-103395000D03*
D23*
X140950000Y-103395000D03*
X138450000Y-103395000D03*
X135950000Y-103395000D03*
%TD*%
D16*
%TO.C,R3*%
X149860000Y-60706000D03*
X149860000Y-70866000D03*
%TD*%
%TO.C,R5*%
X142240000Y-60706000D03*
X142240000Y-70866000D03*
%TD*%
%TO.C,R4*%
X146050000Y-60706000D03*
X146050000Y-70866000D03*
%TD*%
M02*
